0
SECTION
2
HEADER
9
$INSUNITS
70
4
9
$ACADVER
1
AC1014
9
$HANDSEED
5
FFFF
0
ENDSEC
0
SECTION
2
TABLES
0
TABLE
2
VPORT
5
8
100
AcDbSymbolTable
0
ENDTAB
0
TABLE
2
LTYPE
5
5
100
AcDbSymbolTable
0
LTYPE
5
14
100
AcDbSymbolTableRecord
100
AcDbLinetypeTableRecord
2
BYBLOCK
70
0
0
LTYPE
5
15
100
AcDbSymbolTableRecord
100
AcDbLinetypeTableRecord
2
BYLAYER
70
0
0
ENDTAB
0
TABLE
2
LAYER
5
2
100
AcDbSymbolTable
70
2
0
LAYER
5
50
100
AcDbSymbolTableRecord
100
AcDbLayerTableRecord
2
0
70
0
6
CONTINUOUS
0
ENDTAB
0
TABLE
2
STYLE
5
3
100
AcDbSymbolTable
70
1
0
STYLE
5
11
100
AcDbSymbolTableRecord
100
AcDbTextStyleTableRecord
2
STANDARD
70
0
0
ENDTAB
0
TABLE
2
VIEW
5
6
100
AcDbSymbolTable
70
0
0
ENDTAB
0
TABLE
2
UCS
5
7
100
AcDbSymbolTable
70
0
0
ENDTAB
0
TABLE
2
APPID
5
9
100
AcDbSymbolTable
70
2
0
APPID
5
12
100
AcDbSymbolTableRecord
100
AcDbRegAppTableRecord
2
ACAD
70
0
0
ENDTAB
0
TABLE
2
DIMSTYLE
5
A
100
AcDbSymbolTable
70
1
0
ENDTAB
0
TABLE
2
BLOCK_RECORD
5
1
100
AcDbSymbolTable
70
1
0
BLOCK_RECORD
5
1F
100
AcDbSymbolTableRecord
100
AcDbBlockTableRecord
2
*MODEL_SPACE
0
BLOCK_RECORD
5
1B
100
AcDbSymbolTableRecord
100
AcDbBlockTableRecord
2
*PAPER_SPACE
0
ENDTAB
0
ENDSEC
0
SECTION
2
BLOCKS
0
BLOCK
5
20
100
AcDbEntity
100
AcDbBlockBegin
2
*MODEL_SPACE
0
ENDBLK
5
21
100
AcDbEntity
100
AcDbBlockEnd
0
BLOCK
5
1C
100
AcDbEntity
100
AcDbBlockBegin
2
*PAPER_SPACE
0
ENDBLK
5
1D
100
AcDbEntity
100
AcDbBlockEnd
0
ENDSEC
0
SECTION
2
ENTITIES
0
LWPOLYLINE
5
100
100
AcDbEntity
8
0
100
AcDbPolyline
90
43
70
1
43
0.0
10
1660.4224390000002
20
132.15432799999999
10
1454.4793220000001
20
132.15432799999999
10
1454.4793220000001
20
127.254328
10
1660.6174380000002
20
127.00432800000002
10
1660.6174380000002
20
102.48467400000001
10
1660.4224390000002
20
64.627569999999992
10
1504.4793279999999
20
64.627569999999992
10
1504.4793290000002
20
59.727569000000003
10
1660.6174390000001
20
59.477569000000003
10
1660.6174390000001
20
20.227913000000001
10
1660.6174390000001
20
1.5874999999999995
10
1632.1581980000001
20
13.198971
10
1615.758658
20
19.890039999999999
10
1565.39266
20
19.890039999999999
10
1492.3969589999999
20
19.890039999999999
10
1483.712988
20
26.976134000000002
10
1471.8916320000003
20
36.622321999999997
10
1419.5258910000002
20
36.622321999999997
10
1348.2412180000001
20
36.622321999999997
10
1348.2412180000001
20
49.363987999999999
10
1348.2412180000001
20
79.69081700000001
10
1264.0589410000002
20
79.69081700000001
10
1248.241205
20
79.69081700000001
10
1248.2412039999999
20
95.50852900000001
10
1248.241205
20
163.87733300000005
10
1248.241205
20
179.69078200000001
10
1332.4234820000001
20
179.69078200000001
10
1348.2412180000001
20
179.69078200000001
10
1348.241217
20
210.03674000000001
10
1348.241217
20
222.78644300000002
10
1419.5258910000002
20
222.78644300000002
10
1471.891633
20
222.78644300000002
10
1483.7129890000003
20
232.432625
10
1492.3969589999999
20
239.51871400000002
10
1542.7629570000001
20
239.51871400000002
10
1615.7586590000003
20
239.51871400000002
10
1632.1581980000001
20
246.20974900000004
10
1660.6174380000002
20
257.82115699999997
10
1660.6174380000002
20
239.18074300000001
10
1660.4224390000002
20
200.34966
10
1504.4793279999999
20
200.34966
10
1504.4793279999999
20
195.44966000000002
10
1660.6174380000002
20
195.19966000000005
0
LWPOLYLINE
5
101
100
AcDbEntity
8
0
100
AcDbPolyline
90
79
70
1
43
0.0
10
756.90294400000016
20
237.15665800000005
10
760.90636100000006
20
237.79262799999998
10
762.18176700000004
20
237.95935700000001
10
766.20781699999998
20
238.48016600000005
10
770.2055690000002
20
238.88144800000003
10
771.58429899999999
20
238.98098399999998
10
775.59430899999995
20
239.26749000000001
10
779.58891800000004
20
239.438591
10
783.90005999999994
20
239.50356400000004
10
784.65618800000016
20
239.51871299999999
10
789.68574400000011
20
241.57077900000004
10
829.51497000000018
20
257.82115699999997
10
829.51496900000006
20
244.09433199999998
10
829.31996900000001
20
200.34966
10
673.37685899999997
20
200.34966
10
673.37685800000008
20
195.449659
10
829.51496900000006
20
195.19966000000005
10
829.51497000000018
20
143.43116500000002
10
829.31997000000013
20
132.15432899999999
10
623.37685199999999
20
132.15432799999999
10
623.37685199999999
20
127.254328
10
829.51496900000006
20
127.00432900000001
10
829.31996900000001
20
64.627568999999994
10
673.37685800000008
20
64.627568999999994
10
673.37685899999997
20
59.72757
10
829.51496900000006
20
59.477569999999993
10
829.51497000000018
20
15.314325000000002
10
829.51497000000018
20
1.5874999999999995
10
789.68574400000011
20
17.837964000000003
10
784.65618899999993
20
19.890041
10
780.48932200000013
20
19.949455
10
779.58891700000004
20
19.970157999999998
10
775.59430799999996
20
20.141167000000003
10
771.58429899999999
20
20.427858999999998
10
770.2055690000002
20
20.527411999999998
10
766.20781800000009
20
20.928507
10
762.18176700000004
20
21.449314999999999
10
760.90636100000006
20
21.616029000000001
10
756.90294400000016
20
22.252092999999999
10
752.85775999999998
20
23.014942000000001
10
751.73825899999997
20
23.228287000000002
10
747.7264100000001
20
24.106874000000001
10
746.71503399999995
20
24.362203000000004
10
738.72440099999994
20
26.485103999999996
10
737.94766900000002
20
26.731402000000006
10
729.9419640000001
20
29.376142999999999
10
729.45055600000001
20
29.565528000000008
10
721.26769300000001
20
32.838619000000001
10
718.098705
20
34.334961
10
697.06831000000011
20
34.334961
10
661.29449000000011
20
34.334972999999998
10
658.49135400000011
20
36.622321999999997
10
618.89991500000008
20
36.622321999999997
10
517.13874800000008
20
36.622321999999997
10
517.13874699999997
20
63.825800999999998
10
517.13874800000008
20
79.69081700000001
10
473.10008099999999
20
79.69081700000001
10
417.13873500000005
20
79.69081700000001
10
417.13873400000006
20
123.73094800000001
10
417.13873500000005
20
135.664052
10
417.13873599999999
20
179.69078200000001
10
461.17740099999997
20
179.69078200000001
10
517.13874699999997
20
179.69078100000002
10
517.13874800000008
20
195.56580500000001
10
517.13874800000008
20
222.78644300000002
10
618.89991500000008
20
222.78644300000002
10
658.491353
20
222.78644300000002
10
661.29449000000011
20
225.07379100000006
10
697.068309
20
225.07380499999999
10
718.098705
20
225.07380600000005
10
721.42343800000003
20
226.64153999999999
10
729.45055600000001
20
229.84313
10
729.9419640000001
20
230.03251300000002
10
737.94766800000002
20
232.67735500000001
10
738.72439999999995
20
232.92365200000003
10
746.71503399999995
20
235.04645299999999
10
747.7264100000001
20
235.30178300000003
10
751.73826000000008
20
236.18045499999999
10
752.85775999999998
20
236.39380000000003
0
LWPOLYLINE
5
102
100
AcDbEntity
8
0
100
AcDbPolyline
90
43
70
1
43
0.0
10
142.42169699999999
20
1537.3775439999999
10
165.72592600000002
20
1537.3775439999999
10
269.104941
20
1537.3775439999999
10
285.14270399999998
20
1546.6313420000001
10
310.94963800000005
20
1557.1606060000001
10
313.96372200000002
20
1558.3903570000002
10
313.96372100000002
20
1534.8156279999998
10
313.76872100000003
20
1500.9188589999999
10
157.82561100000004
20
1500.9188589999999
10
157.82561100000004
20
1496.0188590000002
10
313.96372100000002
20
1495.768859
10
313.76872100000003
20
1432.7235270000001
10
157.82561100000004
20
1432.723528
10
157.82561100000004
20
1427.8235279999999
10
313.96372100000002
20
1427.573527
10
313.76872100000003
20
1365.1967690000001
10
157.82561100000004
20
1365.1967680000002
10
157.82561100000004
20
1360.2967680000002
10
313.96372100000002
20
1360.0467690000003
10
313.96372100000002
20
1325.7314270000002
10
313.96372200000002
20
1302.156698
10
310.94963800000005
20
1303.3864560000002
10
285.14270399999998
20
1313.9157760000001
10
269.104941
20
1323.1696099999999
10
165.72592499999999
20
1323.169609
10
142.42169699999999
20
1323.1696099999999
10
124.97461899999999
20
1337.4063679999999
10
124.46806699999999
20
1337.8197699999998
10
48.759453999999998
20
1337.7577859999999
10
48.062925000000007
20
1337.7577000000001
10
1.5874999999999999
20
1337.8313360000002
10
1.5875010000000001
20
1338.8407500000003
10
1.5875010000000001
20
1341.394061
10
1.5875010000000001
20
1362.8498010000001
10
1.5875010000000001
20
1398.796975
10
1.5874999999999999
20
1497.6875270000003
10
1.5874999999999999
20
1519.1530740000003
10
1.5875010000000001
20
1521.7063050000002
10
1.5875009999999978
20
1522.7157980000002
10
48.062926000000004
20
1522.7893550000001
10
48.759453999999998
20
1522.7892689999999
10
124.46806699999999
20
1522.727449
10
124.97462
20
1523.1407960000001
0
LWPOLYLINE
5
103
100
AcDbEntity
8
0
100
AcDbPolyline
90
155
70
1
43
0.0
10
89.839178000000004
20
1792.7464260000002
10
91.579864999999998
20
1793.2943580000001
10
93.351422999999997
20
1793.7719090000001
10
99.862713999999997
20
1795.4157350000003
10
101.66083
20
1795.8217760000002
10
108.29806500000001
20
1797.086648
10
110.118472
20
1797.4202170000001
10
111.95673700000002
20
1797.6804990000001
10
118.68666699999999
20
1798.5602710000001
10
120.538343
20
1798.7466340000003
10
127.32768200000002
20
1799.2367860000002
10
129.188357
20
1799.3487700000001
10
130.70820900000001
20
1799.3872650000001
10
136.16394499999998
20
1799.49657
10
172.454025
20
1814.3029720000002
10
181.02272600000003
20
1817.7990130000001
10
181.02272600000003
20
1814.845879
10
181.02272600000003
20
1793.1896059999999
10
180.82772600000001
20
1760.3275160000001
10
105.919296
20
1760.3275160000001
10
105.919296
20
1755.427516
10
181.02272600000003
20
1755.177516
10
180.82772600000001
20
1692.1321850000004
10
91.355113000000017
20
1692.1321850000004
10
91.355113000000017
20
1687.2321850000003
10
181.02272600000003
20
1686.9821850000003
10
180.82772600000001
20
1624.6054260000003
10
105.60283600000002
20
1624.6054260000003
10
105.60283600000002
20
1619.7054260000002
10
181.02272600000003
20
1619.455426
10
181.02272600000003
20
1564.5184900000002
10
181.02272600000003
20
1561.5653560000001
10
172.454025
20
1565.061416
10
136.16394499999998
20
1579.8678970000003
10
135.346148
20
1579.8795580000001
10
131.05350799999999
20
1579.978259
10
129.188357
20
1580.0156000000002
10
127.32768100000001
20
1580.1275840000003
10
120.53834199999999
20
1580.617814
10
118.68666699999999
20
1580.8041779999999
10
111.95673700000002
20
1581.6838710000002
10
110.118472
20
1581.944152
10
108.29806500000001
20
1582.277752
10
101.66082900000001
20
1583.5426240000002
10
99.862713999999997
20
1583.9486650000003
10
93.351422999999997
20
1585.5924910000001
10
91.579864999999998
20
1586.0700689999999
10
89.839178000000004
20
1586.6179750000001
10
83.486195999999993
20
1588.6324660000002
10
81.780518999999998
20
1589.2493990000003
10
75.617485000000002
20
1591.6245779999999
10
73.950932999999992
20
1592.3090590000002
10
68.008606
20
1595.0331110000002
10
66.385281999999989
20
1595.783537
10
64.809023999999994
20
1596.5980400000001
10
62.390962999999999
20
1597.8411189999999
10
61.760779000000014
20
1598.1774399999999
10
60.923894999999995
20
1598.6349760000003
10
59.903547000000003
20
1599.2073909999999
10
59.116953000000009
20
1599.657224
10
57.591565000000003
20
1600.533835
10
55.860795000000003
20
1601.5605260000002
10
53.02092600000001
20
1603.34878
10
51.81885900000001
20
1604.1142690000001
10
48.675934999999996
20
1606.2531760000002
10
47.756141
20
1606.9006200000001
10
44.474124000000003
20
1609.308863
10
43.749107000000002
20
1609.8721169999999
10
42.123723999999996
20
1611.1330599999999
10
40.526271999999999
20
1612.4239109999999
10
39.889631000000001
20
1612.969554
10
36.023969999999998
20
1616.3204580000001
10
35.420904999999998
20
1616.8909480000002
10
31.759956000000003
20
1620.3915370000002
10
31.191917999999998
20
1620.9854670000002
10
27.744225
20
1624.6273759999999
10
27.212589000000005
20
1625.243342
10
23.986257000000002
20
1629.0179169999999
10
23.492308999999999
20
1629.6544540000002
10
20.495151000000003
20
1633.5528610000001
10
20.040057999999998
20
1634.2083680000001
10
17.279164000000002
20
1638.221225
10
16.864044
20
1638.8941929999999
10
14.345851000000003
20
1643.011935
10
13.971708999999999
20
1643.7006900000003
10
11.702289
20
1647.9137479999999
10
11.370005000000001
20
1648.6166600000001
10
9.3547890000000002
20
1652.9148180000002
10
9.0651710000000012
20
1653.6301980000003
10
7.3088490000000004
20
1658.0033390000003
10
7.0625860000000005
20
1658.7294380000003
10
5.5692980000000016
20
1663.167162
10
5.3670150000000003
20
1663.9022610000002
10
4.1404440000000005
20
1668.3941749999999
10
3.9825910000000002
20
1669.1364939999999
10
3.0254910000000002
20
1673.67165
10
2.9124729999999999
20
1674.419382
10
2.227239
20
1678.9872890000004
10
2.1593230000000001
20
1679.7386390000001
10
1.7475209999999999
20
1684.3284429999999
10
1.7248580000000002
20
1685.0816150000001
10
1.5874999999999999
20
1689.6821840000002
10
1.7248580000000002
20
1694.2828450000002
10
1.7475209999999999
20
1695.0360180000002
10
2.1593230000000001
20
1699.625732
10
2.227239
20
1700.3770960000002
10
2.9124720000000002
20
1704.9450030000003
10
3.0254910000000002
20
1705.6927340000002
10
3.9825910000000002
20
1710.2279829999998
10
4.1404430000000003
20
1710.9702870000001
10
5.3670150000000003
20
1715.4621090000001
10
5.5692980000000016
20
1716.1972079999998
10
7.0625860000000005
20
1720.6350260000002
10
7.3088499999999996
20
1721.3611390000003
10
9.0651710000000012
20
1725.7342780000001
10
9.3547890000000002
20
1726.4496429999999
10
11.370006000000002
20
1730.7478010000002
10
11.702289
20
1731.450728
10
13.971710000000002
20
1735.6637850000004
10
14.345851000000003
20
1736.3525550000004
10
16.864044
20
1740.4702940000004
10
17.279163
20
1741.143233
10
20.040057999999998
20
1745.1560010000003
10
20.495151999999997
20
1745.811539
10
23.492308000000001
20
1749.7099460000004
10
23.986257000000002
20
1750.3464530000001
10
27.212589000000005
20
1754.121028
10
27.744225
20
1754.7369940000001
10
31.191917999999998
20
1758.3789019999999
10
31.759956000000003
20
1758.9728480000003
10
35.420904999999998
20
1762.4734370000001
10
36.023969999999998
20
1763.043911
10
39.889631000000001
20
1766.3948149999999
10
40.526271999999999
20
1766.940458
10
42.124032
20
1768.2303460000003
10
43.749696
20
1769.4886900000001
10
44.475445000000001
20
1770.0525110000001
10
47.75771300000001
20
1772.4562050000004
10
48.679134000000005
20
1773.1047950000002
10
51.819945000000011
20
1775.2460850000002
10
53.0229
20
1776.01214
10
55.868602000000003
20
1777.8082570000004
10
57.591566000000007
20
1778.8306090000003
10
59.116952000000005
20
1779.7072500000002
10
59.907496000000002
20
1780.1592909999999
10
60.924030000000009
20
1780.7296310000002
10
61.761939000000005
20
1781.1876200000002
10
62.814113000000006
20
1781.7440080000001
10
64.809023999999994
20
1782.766513
10
66.385281999999989
20
1783.5809850000001
10
68.008605000000003
20
1784.3314110000001
10
73.950932999999992
20
1787.0553110000001
10
75.61748399999999
20
1787.7397920000001
10
81.780519999999996
20
1790.1149710000004
10
83.486195999999993
20
1790.7319350000002
0
LWPOLYLINE
5
104
100
AcDbEntity
8
0
100
AcDbPolyline
90
142
70
1
43
0.0
10
247.15200299999998
20
1595.71513
10
246.44240699999997
20
1596.0818060000001
10
241.77936900000003
20
1598.4913460000002
10
241.09268600000001
20
1598.8859619999998
10
236.58013799999998
20
1601.479237
10
232.22899500000005
20
1604.2500900000002
10
231.56685800000002
20
1604.67175
10
230.93086700000001
20
1605.1194350000003
10
226.75157400000003
20
1608.0612470000003
10
226.14327799999998
20
1608.5338130000002
10
222.14585400000004
20
1611.6393419999999
10
221.56671200000005
20
1612.1357169999999
10
217.76089200000001
20
1615.3975560000003
10
214.15578900000003
20
1618.807926
10
213.60717300000002
20
1619.326896
10
213.09043700000004
20
1619.8671939999999
10
209.69472600000003
20
1623.4176860000002
10
209.21109900000002
20
1623.9780310000003
10
206.03299500000003
20
1627.6602560000003
10
203.08018900000002
20
1631.4654540000001
10
202.63085100000001
20
1632.044472
10
202.21685600000001
20
1632.6408100000001
10
199.49632000000003
20
1636.5594120000001
10
199.11868999999999
20
1637.1715760000002
10
196.63712100000001
20
1641.1945600000001
10
194.40051100000005
20
1645.3119160000003
10
194.06014099999999
20
1645.9384990000001
10
193.75787400000002
20
1646.5779180000002
10
191.77149400000002
20
1650.7799060000002
10
191.50803500000001
20
1651.4306839999999
10
189.77670800000001
20
1655.707206
10
189.55268999999998
20
1656.3677610000002
10
188.08053400000003
20
1660.7083580000003
10
186.87129600000003
20
1665.102756
10
186.68728100000004
20
1665.771469
10
186.54367300000001
20
1666.4467240000001
10
185.60003700000004
20
1670.8842860000002
10
185.49722600000001
20
1671.5644990000001
10
184.82160300000001
20
1676.0344120000002
10
184.415606
20
1680.5259520000002
10
184.35381599999999
20
1681.2094539999998
10
184.33320800000001
20
1681.8946080000001
10
184.19772599999999
20
1686.397052
10
184.218334
20
1687.082206
10
184.35381500000003
20
1691.5846490000001
10
184.75981299999998
20
1696.0762780000005
10
184.82160300000001
20
1696.7597800000001
10
184.92441600000001
20
1697.4399930000002
10
185.60003800000001
20
1701.9099059999999
10
185.74364499999999
20
1702.585196
10
186.68728100000004
20
1707.0226700000001
10
187.89651899999998
20
1711.4170670000001
10
188.08053400000003
20
1712.0857800000001
10
188.304552
20
1712.7462990000001
10
189.77670800000001
20
1717.0869860000003
10
190.040167
20
1717.7377630000001
10
191.77149400000002
20
1722.014197
10
192.07376000000005
20
1722.6536340000002
10
194.06013999999999
20
1726.85571
10
196.29675000000003
20
1730.9731550000004
10
196.63712100000001
20
1731.5997200000002
10
197.01475099999999
20
1732.2119010000004
10
199.49632000000003
20
1736.2347079999997
10
199.91031500000003
20
1736.8310289999999
10
202.63085200000003
20
1740.7498129999999
10
205.58365700000002
20
1744.5548289999999
10
206.032994
20
1745.133865
10
206.51662000000002
20
1745.6942090000002
10
209.69472600000003
20
1749.3764329999999
10
210.21146200000004
20
1749.9167320000004
10
213.60717300000002
20
1753.467316
10
217.21227599999997
20
1756.8775960000003
10
217.76089200000001
20
1757.396565
10
218.340034
20
1757.8929219999998
10
222.14585400000004
20
1761.1547610000002
10
222.75415000000004
20
1761.6273620000004
10
226.75157400000003
20
1764.7328920000004
10
227.38756400000003
20
1765.1805409999999
10
231.56685699999997
20
1768.1223530000002
10
235.91800000000003
20
1770.8932050000001
10
236.58013700000001
20
1771.3148660000002
10
237.26682200000002
20
1771.7094999999999
10
241.77936900000003
20
1774.3028670000001
10
242.488966
20
1774.6695420000003
10
247.15200400000001
20
1777.0789910000003
10
251.95427800000002
20
1779.2989760000003
10
252.68508199999999
20
1779.6367789999999
10
253.43531400000003
20
1779.9449359999999
10
258.36547000000002
20
1781.9698340000002
10
259.13330299999996
20
1782.2475710000003
10
264.17919999999998
20
1784.0727340000001
10
269.32867000000005
20
1785.6936829999997
10
270.11231200000003
20
1785.9403309999998
10
270.90981099999999
20
1786.1553280000001
10
276.15060700000004
20
1787.5680650000002
10
281.46996799999999
20
1788.769254
10
283.09893499999998
20
1789.1022039999998
10
288.48424
20
1790.0890030000003
10
293.92237400000005
20
1790.8589940000002
10
295.58352000000002
20
1791.0600650000001
10
301.06132599999995
20
1791.6113840000003
10
306.56575800000002
20
1791.942665
10
308.24302899999998
20
1792.0099059999998
10
313.76069999999999
20
1792.1204510000005
10
352.49886900000001
20
1808.6215890000003
10
358.61947999999995
20
1811.2287470000001
10
358.61947999999995
20
1807.2136
10
358.61947999999995
20
1801.3733710000001
10
358.42447999999996
20
1757.042383
10
286.27280500000001
20
1757.042383
10
286.27280500000001
20
1752.1423830000001
10
358.61947999999995
20
1751.8923829999999
10
358.42447999999996
20
1688.8470510000002
10
271.45860299999998
20
1688.8470519999998
10
271.45860299999998
20
1683.9470510000001
10
358.61947999999995
20
1683.6970510000003
10
358.42447999999996
20
1621.320293
10
285.91947900000002
20
1621.320293
10
285.91947900000002
20
1616.4202920000002
10
358.61947999999995
20
1616.1702920000002
10
358.61947999999995
20
1565.5805110000001
10
358.61947999999995
20
1561.5653560000001
10
352.49886800000007
20
1564.1725300000003
10
313.76069900000005
20
1580.6737510000003
10
308.24302999999998
20
1580.7842150000001
10
306.56575800000002
20
1580.851455
10
301.06132500000001
20
1581.1827360000002
10
295.58352000000002
20
1581.7340550000004
10
293.92237400000005
20
1581.935109
10
288.48424
20
1582.705099
10
283.09893499999998
20
1583.69199
10
281.46996799999999
20
1584.0249570000003
10
276.15060700000004
20
1585.2261460000002
10
275.35310800000002
20
1585.4411270000003
10
270.11231099999998
20
1586.853944
10
264.96284199999997
20
1588.4748119999999
10
264.17919999999998
20
1588.7214779999999
10
263.41136699999998
20
1588.9991970000003
10
258.36547000000002
20
1590.824269
10
257.61523700000004
20
1591.1324250000002
10
252.68508199999999
20
1593.157324
10
247.88280700000001
20
1595.3773090000002
0
LWPOLYLINE
5
105
100
AcDbEntity
8
0
100
AcDbPolyline
90
76
70
1
43
0.0
10
1.5875010000000001
20
681.19259800000009
10
1.5875010000000001
20
695.3468170000001
10
1.5874999999999995
20
699.19408099999998
10
18.236926000000004
20
699.19408099999998
10
19.497767000000003
20
699.19408099999998
10
21.004143000000003
20
699.19407999999999
10
22.814686999999999
20
699.19407999999999
10
25.007982999999999
20
699.19408099999998
10
27.691696000000007
20
699.19408099999998
10
31.016749000000004
20
699.19408099999998
10
35.201912
20
699.19408099999998
10
40.575969000000001
20
699.19407999999999
10
47.656665000000011
20
699.19407999999999
10
57.307413000000011
20
699.19407999999999
10
71.084935999999999
20
699.19407999999999
10
92.104394999999997
20
699.19407999999999
10
127.63666000000001
20
699.19407999999999
10
163.02784900000003
20
699.19407999999999
10
163.22189399999999
20
701.10967199999993
10
238.44383199999999
20
701.10967199999993
10
238.44383199999999
20
706.00967200000002
10
163.02379900000003
20
706.25967200000002
10
163.01985300000001
20
713.14187699999991
10
163.030486
20
730.42631500000016
10
167.36684
20
741.82478400000014
10
168.269589
20
744.19775199999992
10
168.55970100000002
20
744.68789000000004
10
241.16372100000004
20
744.68789000000004
10
241.16372000000001
20
749.58789000000013
10
170.50349499999999
20
749.83789000000002
10
177.80068400000002
20
768.26182700000004
10
182.80453800000001
20
780.34548500000005
10
185.59014299999998
20
786.8515460000001
10
249.68119500000003
20
786.8515460000001
10
249.68119400000003
20
791.75154599999996
10
187.69569300000001
20
792.00154600000008
10
189.62539599999999
20
796.43819900000017
10
194.10153300000005
20
806.7293440000002
10
195.967275
20
810.79278299999999
10
201.19104400000001
20
822.16991699999994
10
202.41745700000001
20
824.53575300000011
10
258.10402400000004
20
824.535754
10
258.10402299999998
20
829.43575300000009
10
204.85481100000001
20
829.68575299999998
10
206.01832199999993
20
832.07257500000014
42
-0.10185222626952625
10
313.96372100000002
20
874.87127799999996
10
313.96372100000002
20
845.09697400000005
10
313.96372100000002
20
733.71825200000001
10
313.96372200000002
20
493.95901299999997
10
313.96372200000002
20
453.35067000000009
10
306.29148700000002
20
457.18678700000004
10
269.104941
20
475.78005400000001
10
244.59119500000003
20
475.78005400000001
10
105.767989
20
475.78005400000001
10
99.244247999999999
20
475.78005400000001
10
1.5874999999999999
20
475.78005500000006
10
1.5874999999999999
20
479.41382599999997
10
1.7825000000000024
20
490.51379400000002
10
157.72561100000001
20
490.51379400000002
10
157.72561100000001
20
495.41379400000011
10
1.5875010000000001
20
495.66379500000005
10
1.5874999999999999
20
513.6450769999999
10
1.7825009999999963
20
540.90496299999995
10
157.72561100000001
20
540.90496299999995
10
157.72561100000001
20
545.80496300000004
10
1.5874999999999999
20
546.05496300000004
10
1.5874999999999999
20
587.81544800000006
10
1.7825000000000024
20
591.084473
10
157.72561100000001
20
591.084473
10
157.72561100000001
20
595.98447300000009
10
1.5875010000000001
20
596.23447300000009
10
1.7825000000000024
20
645.55608899999993
10
157.72561100000001
20
645.55608899999993
10
157.72561100000001
20
650.45608900000002
10
1.5875010000000001
20
650.70609000000002
10
1.5874999999999999
20
659.66257199999995
0
LWPOLYLINE
5
106
100
AcDbEntity
8
0
100
AcDbPolyline
90
77
70
1
43
0.0
10
1190.3944099999999
20
239.19121899999999
10
1192.208007
20
239.32079600000003
10
1194.014639
20
239.39818
10
1195.8196760000001
20
239.42389800000001
10
1197.124599
20
239.45694900000004
10
1200.2074230000001
20
239.51871299999999
10
1220.7135360000002
20
247.88523500000002
10
1245.066204
20
257.82115699999997
10
1245.0662029999999
20
249.42820400000002
10
1244.8712039999998
20
200.34966
10
1088.928093
20
200.34966
10
1088.928093
20
195.44966000000002
10
1245.0662029999999
20
195.19966000000005
10
1245.066204
20
187.88001500000001
10
1244.8712039999998
20
132.15432899999999
10
1038.928087
20
132.15432899999999
10
1038.928087
20
127.25432900000001
10
1245.066204
20
127.00432800000002
10
1244.8712039999998
20
64.627569999999992
10
1088.928093
20
64.627569999999992
10
1088.928093
20
59.72757
10
1245.066204
20
59.477569000000003
10
1245.066204
20
9.9804530000000007
10
1245.066204
20
1.5874999999999995
10
1220.7135349999999
20
11.523474
10
1200.2074230000001
20
19.890039999999999
10
1197.698625
20
19.925813000000005
10
1194.014639
20
20.01052
10
1192.208007
20
20.087861
10
1190.3944099999999
20
20.217523
10
1184.5882529999999
20
20.636763000000006
10
1182.7801999999999
20
20.818165
10
1180.9593480000001
20
21.053709000000001
10
1175.2452699999999
20
21.800616000000002
10
1173.434655
20
22.088288000000006
10
1171.6051500000001
20
22.433299999999999
10
1166.0323410000001
20
23.49532
10
1164.2179119999998
20
23.892676999999999
10
1158.7901429999999
20
25.262959000000002
10
1155.1762400000002
20
26.223078999999998
10
1149.9754380000002
20
27.872221000000007
10
1146.354718
20
29.068351000000003
10
1141.4279529999999
20
30.967083000000002
10
1137.797548
20
32.415106000000002
10
1133.191069
20
34.526784999999997
10
1129.5474589999999
20
36.247234000000006
10
1128.8030000000001
20
36.622321999999997
10
1110.61688
20
36.622321999999997
10
983.14747200000011
20
36.622321999999997
10
967.09526900000003
20
36.622321999999997
10
932.6899830000001
20
36.622321999999997
10
932.22860800000012
20
79.69081700000001
10
832.68996900000002
20
80.152206000000007
10
832.68997000000013
20
179.229534
10
833.15134300000011
20
179.69078200000001
10
932.6899830000001
20
179.85709800000001
10
932.68998199999999
20
222.78644300000002
10
967.09526900000003
20
222.78644300000002
10
983.14747200000011
20
222.78644300000002
10
1110.61688
20
222.78644300000002
10
1128.8030000000001
20
222.78644300000002
10
1129.5474589999999
20
223.16158700000003
10
1133.191069
20
224.88203800000002
10
1137.797548
20
226.99359900000005
10
1141.4279529999999
20
228.44157400000003
10
1146.354718
20
230.340305
10
1149.9754370000001
20
231.53648100000001
10
1155.1762390000001
20
233.18562400000005
10
1158.7901440000001
20
234.14569700000001
10
1164.2179119999998
20
235.51597999999998
10
1166.0323410000001
20
235.91337500000003
10
1171.605149
20
236.97539500000005
10
1173.434655
20
237.32041100000001
10
1175.245271
20
237.60804000000002
10
1180.9593480000001
20
238.35501499999998
10
1182.7801999999999
20
238.59055900000001
10
1184.5882529999999
20
238.77204599999999
0
LWPOLYLINE
5
107
100
AcDbEntity
8
0
100
AcDbPolyline
90
77
70
1
43
0.0
10
188.55618700000005
20
1216.697154
10
190.171423
20
1220.4109160000003
10
193.35911500000003
20
1227.739896
10
199.136515
20
1240.322298
10
200.51863800000001
20
1243.332461
10
201.48173600000004
20
1245.3081440000001
10
203.46732800000001
20
1249.231362
10
258.62895800000001
20
1249.2313609999999
10
258.62895900000001
20
1254.131361
10
205.90467900000004
20
1254.3813610000002
10
207.12446599999998
20
1256.7928880000002
42
-0.14286318236501519
10
313.96372200000002
20
1298.9816989999999
10
313.96372100000002
20
1268.563717
10
313.96372100000002
20
1219.6082039999999
10
313.96372100000002
20
1158.4138600000001
10
313.96372200000002
20
1084.9806710000003
10
313.96372100000002
20
878.04627799999992
10
274.867098
20
897.59458499999994
10
269.104941
20
900.47566200000006
10
114.40043899999999
20
900.47566200000006
10
105.767989
20
900.47566200000006
10
7.6600950000000001
20
900.47566200000006
10
1.5874999999999999
20
900.47566300000017
10
1.7825009999999963
20
915.20940199999995
10
157.72561100000001
20
915.20940199999995
10
157.72561100000001
20
920.10940199999993
10
1.5874999999999999
20
920.35940200000005
10
1.5874999999999999
20
937.95247000000006
10
1.7825000000000024
20
965.60057000000006
10
157.72561100000001
20
965.60057000000006
10
157.72561100000001
20
970.50057100000004
10
1.5874999999999999
20
970.75057100000004
10
1.5874999999999999
20
1010.137191
10
1.7825009999999963
20
1015.7800810000001
10
157.72561100000001
20
1015.7800810000001
10
157.72561100000001
20
1020.6800810000002
10
1.5874999999999999
20
1020.9300810000002
10
1.7825000000000024
20
1070.2516970000001
10
157.72561100000001
20
1070.2516970000001
10
157.72561000000002
20
1075.151697
10
1.5874999999999999
20
1075.401697
10
1.5874999999999999
20
1084.7910079999999
10
1.5874999999999999
20
1107.149756
10
1.5875010000000001
20
1123.8896890000001
10
17.085540999999999
20
1123.889688
10
18.259211999999998
20
1123.889688
10
19.661391000000002
20
1123.8896890000001
10
21.346728000000002
20
1123.889688
10
23.388389000000004
20
1123.889688
10
25.886468000000001
20
1123.8896890000001
10
28.981644000000003
20
1123.8896890000001
10
32.877400000000002
20
1123.8896890000001
10
37.879843000000001
20
1123.889688
10
44.470915000000005
20
1123.889688
10
53.454326999999999
20
1123.889688
10
66.278862000000004
20
1123.889688
10
85.844727000000006
20
1123.8896869999999
10
118.91977
20
1123.889688
10
163.66076799999999
20
1123.889688
10
163.85481299999998
20
1125.80528
10
238.76029100000005
20
1125.80528
10
238.76029100000005
20
1130.7052800000001
10
163.65671799999998
20
1130.9552800000001
10
163.655911
20
1132.3617369999999
10
163.66984400000001
20
1155.1219220000003
10
167.271399
20
1164.5890179999999
10
169.26635300000001
20
1169.3834980000001
10
241.51704600000002
20
1169.3834980000001
10
241.51704600000002
20
1174.2834990000001
10
171.21015600000004
20
1174.5334990000001
10
174.77164500000001
20
1183.5254619999998
10
176.89674499999998
20
1188.8908670000001
10
179.980267
20
1196.337156
10
185.53222299999999
20
1209.744436
10
186.40255100000002
20
1211.5471539999999
10
250.09000200000003
20
1211.5471539999999
10
250.09000200000003
20
1216.447154
0
LWPOLYLINE
5
108
100
AcDbEntity
8
0
100
AcDbPolyline
90
54
70
1
43
0.0
10
101.587513
20
71.819622999999993
10
51.573972999999995
20
71.819622999999993
10
1.5874999999999999
20
71.819622999999993
10
1.7824999999999847
20
89.141792000000009
10
207.725617
20
89.141793000000007
10
207.72561800000003
20
94.041792000000001
10
1.5875010000000001
20
94.291792000000001
10
1.5875010000000001
20
134.33878700000002
10
1.7824999999999847
20
139.321303
10
207.725617
20
139.321303
10
207.72561800000003
20
144.22130300000001
10
1.5875010000000001
20
144.47130200000001
10
1.7825009999999963
20
193.79291899999998
10
207.725617
20
193.79291899999998
10
207.725617
20
198.69291900000002
10
101.587513
20
198.94291899999999
10
101.587513
20
216.71158399999999
10
101.587513
20
247.43091000000004
10
234.52850100000001
20
247.43090899999999
10
234.723501
20
249.34650200000004
10
324.19612100000001
20
249.34650200000004
10
324.19612100000001
20
254.24650200000002
10
234.52850299999997
20
254.49650099999999
10
234.52850900000001
20
278.663117
10
238.92698700000005
20
292.92472000000004
10
326.70285799999999
20
292.92472000000004
10
326.70285699999999
20
297.82472000000001
10
240.35198700000001
20
298.07471900000002
10
251.57607999999999
20
335.08837599999998
10
333.02740499999999
20
335.08837599999998
10
333.02740499999999
20
339.98837599999996
10
253.001079
20
340.23837500000008
10
262.88133799999997
20
372.772583
10
338.68003600000003
20
372.77258399999999
10
338.68003500000009
20
377.67258300000003
10
264.30633699999998
20
377.92258300000009
10
265.02238299999999
20
380.30940400000009
10
331.79676800000004
20
427.74627399999997
42
-0.14972115342983552
10
413.96373400000004
20
450.17567100000008
10
413.96373400000004
20
412.79335099999997
10
413.96373400000004
20
281.955082
10
413.96373500000004
20
124.94920800000003
10
413.96373400000004
20
1.5874999999999995
10
390.65670299999999
20
13.241013000000002
10
369.10495400000002
20
24.016884000000005
10
279.816487
20
24.016883
10
205.768001
20
24.016884000000005
10
153.67775399999999
20
24.016885000000006
10
101.587513
20
24.016884000000005
10
101.78251400000001
20
38.750624000000002
10
257.72562299999998
20
38.750624000000002
10
257.72562400000004
20
43.650622999999996
10
101.587514
20
43.900624000000008
10
101.587513
20
53.031524000000005
0
LWPOLYLINE
5
109
100
AcDbEntity
8
0
100
AcDbPolyline
90
142
70
1
43
0.0
10
2.1504650000000005
20
1944.8350250000001
10
2.5126740000000005
20
1947.2314310000002
10
2.8529010000000001
20
1949.4823690000001
10
3.3588320000000005
20
1951.8614300000002
10
3.8340240000000003
20
1954.0960340000001
10
4.4429669999999994
20
1956.3089440000001
10
5.0912559999999996
20
1958.6648360000002
10
5.8804780000000001
20
1960.9918590000002
10
6.6218200000000005
20
1963.177723
10
7.5499910000000003
20
1965.4704270000002
10
8.4218449999999994
20
1967.6239340000002
10
9.4867360000000005
20
1969.876683
10
10.487028
20
1971.9927460000004
10
11.613331000000001
20
1974.0661899999998
10
12.812463000000003
20
1976.2735920000002
10
14.142862000000001
20
1978.4303190000003
10
15.392519
20
1980.4561060000001
10
16.851030999999999
20
1982.5569580000001
10
18.221026999999999
20
1984.5303620000004
10
19.707986999999999
20
1986.4464750000002
10
21.291013
20
1988.4864300000004
10
22.994839000000002
20
1990.4605340000001
10
24.595254999999998
20
1992.3148120000001
10
26.415728000000005
20
1994.2182960000002
10
28.125724999999999
20
1996.0062829999997
10
29.941165999999999
20
1997.7236160000002
10
31.873953000000004
20
1999.551956
10
33.914279999999998
20
2001.3006310000001
10
35.830798000000001
20
2002.9432129999998
10
37.973836999999996
20
2004.6081989999998
10
39.986841999999996
20
2006.1720670000002
10
42.227449000000007
20
2007.7491450000002
10
44.332038000000004
20
2009.2305690000001
10
46.523167000000001
20
2010.6259030000001
10
48.855891999999997
20
2012.11142
10
51.27509400000001
20
2013.5017260000004
10
53.547502000000009
20
2014.8076809999998
10
56.047426000000009
20
2016.0994890000002
10
58.395618000000013
20
2017.3128280000003
10
60.813924999999998
20
2018.4307579999997
10
63.388562000000007
20
2019.6208449999999
10
66.031645999999995
20
2020.7064870000002
10
68.514351000000005
20
2021.7261770000002
10
71.21944400000001
20
2022.7046510000002
10
73.760434000000004
20
2023.623758
10
76.35358100000002
20
2024.4400280000002
10
79.114367000000001
20
2025.3089760000003
10
81.923973000000018
20
2026.066415
10
84.563109999999995
20
2026.7778350000003
10
87.241810000000001
20
2027.3827240000001
10
92.980694000000014
20
2028.5557140000003
10
95.69260300000002
20
2029.0526420000003
10
98.431114000000008
20
2029.4403910000003
10
104.28336600000002
20
2030.1487690000001
10
107.04185500000001
20
2030.4264000000001
10
109.81375200000002
20
2030.5932250000001
10
115.722814
20
2030.8301170000004
10
118.501378
20
2030.8857850000004
10
138.00897200000003
20
2039.195354
10
163.36015800000001
20
2049.9940400000005
10
163.36015800000001
20
2033.3635559999998
10
163.36015800000001
20
2009.1736980000001
10
163.16515800000002
20
2006.1293580000001
10
99.586439999999996
20
2006.1293580000001
10
99.586439999999996
20
2001.229358
10
163.36015800000001
20
2000.9793579999998
10
163.16515900000002
20
1937.9340260000004
10
82.523829000000006
20
1937.934027
10
82.523829000000006
20
1933.0340269999999
10
163.36015800000001
20
1932.7840260000005
10
163.16515900000002
20
1870.4072680000002
10
99.177631000000019
20
1870.4072680000002
10
99.177631000000019
20
1865.5072680000001
10
163.36015800000001
20
1865.2572680000003
10
163.36015900000004
20
1837.6045320000003
10
163.36015800000001
20
1820.974013
10
138.00897200000003
20
1831.7727620000003
10
118.501378
20
1840.0823730000002
10
115.722814
20
1840.1379999999999
10
109.81375200000002
20
1840.3748880000001
10
107.04185500000001
20
1840.5417130000001
10
104.28336600000002
20
1840.8193440000002
10
98.431114000000008
20
1841.5276629999998
10
95.69260300000002
20
1841.9154109999999
10
92.980694999999997
20
1842.4123850000001
10
87.241809000000003
20
1843.5854340000003
10
84.563109999999995
20
1844.1903239999999
10
81.753504000000007
20
1844.9477039999999
10
79.114367000000001
20
1845.6591640000001
10
76.52122
20
1846.4753940000003
10
73.760434000000004
20
1847.3444040000002
10
71.05534200000001
20
1848.322815
10
68.514351000000005
20
1849.2418760000005
10
65.871267000000003
20
1850.3275190000002
10
63.388561000000003
20
1851.3472079999999
10
60.970254000000004
20
1852.465138
10
58.395617000000009
20
1853.6552879999999
10
55.895693999999992
20
1854.9470960000003
10
53.547503000000006
20
1856.1604809999999
10
51.128301
20
1857.5507240000002
10
48.855891999999997
20
1858.856634
10
46.664763000000001
20
1860.2519670000004
10
44.332039000000009
20
1861.7374840000002
10
42.091431999999998
20
1863.3146880000002
10
39.986841999999996
20
1864.7961120000002
10
37.843803999999999
20
1866.4609719999999
10
35.830798000000001
20
1868.02484
10
33.790471000000004
20
1869.7735780000003
10
31.873953000000004
20
1871.4161600000002
10
30.058511000000003
20
1873.1335390000004
10
28.125724000000002
20
1874.961879
10
26.305252000000007
20
1876.8653610000001
10
24.595254999999998
20
1878.6533020000002
10
22.891429000000002
20
1880.6274080000001
10
21.291014000000001
20
1882.4816859999999
10
19.804053000000003
20
1884.3978910000001
10
18.221026999999999
20
1886.4377830000001
10
16.762515
20
1888.5386970000002
10
15.392519
20
1890.5120090000003
10
14.062120000000002
20
1892.668674
10
12.812463000000003
20
1894.6945500000002
10
11.686161000000002
20
1896.7679499999999
10
10.487029000000001
20
1898.9754149999999
10
9.4221369999999993
20
1901.2281010000004
10
8.4218449999999994
20
1903.3441190000003
10
7.4936740000000013
20
1905.636823
10
6.6218200000000005
20
1907.790375
10
5.8325979999999999
20
1910.1175230000001
10
5.0912559999999996
20
1912.3033420000002
10
4.4823129999999995
20
1914.5162530000002
10
3.8340240000000003
20
1916.8721449999998
10
3.3280930000000004
20
1919.2510809999999
10
2.8529010000000001
20
1921.485729
10
2.4906920000000001
20
1923.8821340000002
10
2.1504650000000005
20
1926.133073
10
1.9460140000000001
20
1928.3949030000003
10
1.7283270000000002
20
1930.802893
10
1.6557250000000001
20
1933.2167070000003
10
1.5874999999999999
20
1935.484027
10
1.660101
20
1937.8978400000001
10
1.728326
20
1940.1651600000002
10
1.932777
20
1942.4270350000004
0
LWPOLYLINE
5
110
100
AcDbEntity
8
0
100
AcDbPolyline
90
99
70
1
43
0.0
10
241.173362
20
2008.640259
10
241.80582000000001
20
2008.7968090000002
10
251.21798700000002
20
2010.720593
10
251.86621400000004
20
2010.82581
10
261.46431100000001
20
2011.987599
10
262.12204800000001
20
2012.0404590000001
10
272.14377500000001
20
2012.4355990000001
10
274.463842
20
2013.4238679999999
10
317.00255600000003
20
2031.5438180000001
10
317.00255600000003
20
2003.6382449999999
10
316.80755600000003
20
1996.9042469999999
10
261.7677930000001
20
1996.9042469999999
10
261.7677930000001
20
1992.0042469999999
10
317.00255600000003
20
1991.7542470000001
10
317.00255600000003
20
1963.0482129999998
10
316.80755600000003
20
1928.7089160000003
10
241.81885699999998
20
1928.7089160000003
10
241.81885699999998
20
1923.8089160000002
10
317.00255600000003
20
1923.558916
10
316.80755600000003
20
1861.1821570000002
10
261.24285800000001
20
1861.1821570000002
10
261.24285800000001
20
1856.2821570000003
10
317.00255600000003
20
1856.0321570000001
10
317.00255600000003
20
1848.879645
10
317.00255600000003
20
1820.974013
10
274.463842
20
1839.0940670000005
10
271.81331699999998
20
1840.0889570000002
10
262.12204800000001
20
1840.4774699999998
10
261.46431000000001
20
1840.5303300000003
10
251.86621400000004
20
1841.692022
10
251.21798799999999
20
1841.797243
10
241.48723799999999
20
1843.7930660000002
10
236.87929100000005
20
1845.0352220000002
10
236.25700800000004
20
1845.2169120000003
10
231.729128
20
1846.6421500000001
10
226.99038700000003
20
1848.3561159999999
10
222.65554700000001
20
1850.136645
10
222.07266200000004
20
1850.3908750000003
10
217.85008100000002
20
1852.3428020000001
10
213.47076099999998
20
1854.6057659999999
10
209.50310300000001
20
1856.8858590000002
10
208.97224800000004
20
1857.2071219999998
10
205.14641900000001
20
1859.6434720000002
10
201.22136699999999
20
1862.406383
10
197.46722700000004
20
1865.3228600000002
10
194.120949
20
1868.1909100000005
10
193.67710099999999
20
1868.5905149999999
10
190.50719799999999
20
1871.5891190000002
10
187.31812500000001
20
1874.9236030000002
10
184.52373400000002
20
1878.1612719999998
10
184.15654799999999
20
1878.6097010000003
10
181.56027499999999
20
1881.9552659999999
10
179.00528000000003
20
1885.6355970000002
10
176.82333400000002
20
1889.1726780000001
10
176.54075800000001
20
1889.6602110000001
10
174.57409799999999
20
1893.2806050000002
10
172.70863600000001
20
1897.2268260000001
10
171.08268200000001
20
1901.243144
10
169.78830200000002
20
1905.059827
10
169.62771100000001
20
1905.582975
10
168.56447200000002
20
1909.4468000000002
10
167.67819400000002
20
1913.6141890000001
10
167.084146
20
1917.5444600000003
10
167.01936599999999
20
1918.0811700000002
10
166.66234400000002
20
1922.0304399999998
10
166.53515900000002
20
1926.2589160000002
10
166.65422900000004
20
1930.2177359999998
10
166.68665900000005
20
1930.7564000000002
10
167.04368200000002
20
1934.7056699999998
10
167.67819400000002
20
1938.9036480000002
10
168.50795700000003
20
1942.805472
10
168.63689399999998
20
1943.334421
10
169.70013300000002
20
1947.1982460000004
10
171.08268100000001
20
1951.2746930000003
10
172.70863600000001
20
1955.2910059999999
10
174.45513200000005
20
1958.9856690000001
10
174.70805100000004
20
1959.483933
10
176.674711
20
1963.1042239999999
10
179.00528000000003
20
1966.8823350000002
10
181.39734000000001
20
1970.3278769999999
10
181.737122
20
1970.7904629999998
10
184.333394
20
1974.1361310000002
10
187.31812500000001
20
1977.5943280000001
10
190.30382499999999
20
1980.7161730000003
10
190.72311100000005
20
1981.1330660000001
10
193.89301399999999
20
1984.1316700000002
10
197.46722700000004
20
1987.1949719999998
10
201.22136699999999
20
1990.111656
10
204.896117
20
1992.698171
10
205.40701299999998
20
1993.0403079999999
10
209.23284200000001
20
1995.4766589999999
10
213.47076099999998
20
1997.9121750000002
10
217.570807
20
2000.0308289999998
10
218.13769399999998
20
2000.3080899999998
10
222.36027500000003
20
2002.259914
10
226.99038700000003
20
2004.1617160000001
10
231.42692500000004
20
2005.76648
10
232.03753500000005
20
2005.9728710000002
10
236.56541500000003
20
2007.398005
0
LWPOLYLINE
5
111
100
AcDbEntity
8
0
100
AcDbPolyline
90
46
70
1
43
0.0
10
810.85904799999992
20
1849.0234599999999
10
813.96372199999996
20
1850.2901710000003
10
813.96372100000008
20
1826.7330039999999
10
813.76872100000014
20
1796.5414970000004
10
657.82561100000009
20
1796.5414970000004
10
657.82561100000009
20
1791.6414970000003
10
813.96372100000008
20
1791.3914970000001
10
813.76872100000014
20
1724.6233470000002
10
657.82561100000009
20
1724.6233480000001
10
657.82561100000009
20
1719.723348
10
813.96372100000008
20
1719.473348
10
813.96372100000008
20
1653.9808000000003
10
813.76872100000014
20
1651.5658000000003
10
657.82561100000009
20
1651.5658000000003
10
657.82561100000009
20
1646.6658000000002
10
813.96372100000008
20
1646.4158
10
813.96372100000008
20
1617.6135980000001
10
813.96372199999996
20
1594.056525
10
810.85904700000003
20
1595.3232290000001
10
784.27646600000003
20
1606.1688939999999
10
769.10494099999994
20
1614.9228370000001
10
664.646613
20
1614.9228360000002
10
642.60110099999997
20
1614.9228370000001
10
624.97186999999997
20
1629.3083240000001
10
624.50812099999996
20
1629.6868070000003
10
555.19685700000002
20
1629.630058
10
548.372163
20
1629.6340770000002
10
542.92290200000002
20
1629.6285660000001
10
501.58749999999998
20
1629.6941179999999
10
501.58750099999997
20
1630.591923
10
501.58750099999997
20
1633.1717169999999
10
501.58750099999997
20
1654.5791160000001
10
501.58750099999997
20
1754.4804529999999
10
501.58749999999998
20
1789.7730140000001
10
501.58749999999998
20
1811.1748210000001
10
501.58750099999997
20
1813.7547730000003
10
501.58750099999997
20
1814.652576
10
542.92290200000002
20
1814.71813
10
548.372163
20
1814.712618
10
555.19685699999991
20
1814.716637
10
624.50812099999996
20
1814.6598880000001
10
624.97187099999996
20
1815.0383510000001
10
642.60110199999997
20
1829.423734
10
664.64661299999989
20
1829.423734
10
769.10494099999994
20
1829.423734
10
784.27646600000003
20
1838.1777300000001
0
LWPOLYLINE
5
112
100
AcDbEntity
8
0
100
AcDbPolyline
90
79
70
1
43
0.0
10
971.98408099999995
20
379.71201899999994
10
917.13873599999999
20
379.71201899999994
10
917.138735
20
424.87333599999999
10
917.138735
20
434.55731600000001
10
917.138735
20
479.71202599999998
10
962.29340200000001
20
479.71202599999998
10
1017.1387480000001
20
479.71202700000003
10
1017.138747
20
495.83080300000006
10
1017.138747
20
522.78631700000005
10
1118.8999190000002
20
522.78631700000005
10
1158.4913429999999
20
522.78631699999994
10
1161.29449
20
525.07368999999994
10
1197.068372
20
525.07368199999996
10
1218.098714
20
525.07368199999996
10
1221.423438
20
526.64141500000005
10
1229.450556
20
529.84311200000002
10
1229.9419640000001
20
530.03249600000004
10
1237.9476689999999
20
532.67734300000006
10
1238.7244000000001
20
532.92364000000009
10
1246.7150339999998
20
535.04653900000005
10
1247.7264110000001
20
535.30186700000002
10
1251.7382600000001
20
536.18053799999996
10
1252.857761
20
536.39389700000004
10
1256.9029440000002
20
537.15665899999999
10
1260.9063599999999
20
537.79263000000003
10
1262.181767
20
537.95934399999999
10
1266.207817
20
538.48024799999996
10
1270.2055690000002
20
538.88142599999992
10
1271.5843
20
538.98096199999998
10
1275.594308
20
539.26746800000001
10
1279.588917
20
539.43858
10
1283.9000609999998
20
539.50355400000012
10
1284.6561880000002
20
539.51870200000008
10
1289.6857439999999
20
541.57076700000005
10
1329.5149689999998
20
557.82114500000012
10
1329.5149700000002
20
544.09431600000005
10
1329.3199690000001
20
504.072472
10
1173.376859
20
504.072472
10
1173.3768580000001
20
499.17247200000008
10
1329.5149689999998
20
498.92247199999997
10
1329.5149689999998
20
443.43110800000005
10
1329.3199690000001
20
432.15432300000003
10
1123.3768520000001
20
432.15432300000003
10
1123.3768520000001
20
427.254323
10
1329.5149689999998
20
427.004323
10
1329.3199690000001
20
359.09677499999998
10
1173.376859
20
359.09677499999998
10
1173.3768589999997
20
354.196775
10
1329.5149689999998
20
353.946775
10
1329.5149689999998
20
315.31427500000001
10
1329.5149700000002
20
301.58750000000003
10
1289.6857449999998
20
317.83778100000001
10
1284.656189
20
319.88983500000001
10
1280.4893220000004
20
319.94933600000002
10
1279.588917
20
319.97005100000001
10
1275.594308
20
320.14115099999998
10
1271.5842990000001
20
320.42765700000007
10
1270.2055690000002
20
320.52719400000001
10
1266.207817
20
320.92838200000006
10
1262.1817679999999
20
321.44928600000003
10
1260.9063610000001
20
321.61601500000006
10
1256.9029440000002
20
322.25198699999993
10
1252.8577599999999
20
323.01474999999994
10
1251.738259
20
323.22810699999997
10
1247.72641
20
324.10677700000002
10
1246.7150339999998
20
324.36209500000007
10
1238.7244000000001
20
326.48499600000002
10
1237.9476689999999
20
326.73130200000003
10
1229.9419640000001
20
329.37615
10
1229.450556
20
329.56553400000007
10
1221.2676919999999
20
332.83851800000002
10
1218.098714
20
334.33481200000006
10
1197.068372
20
334.33481199999994
10
1161.29449
20
334.33475900000008
10
1158.491344
20
336.622118
10
1118.8999200000001
20
336.622118
10
1017.1387480000001
20
336.622117
10
1017.1387480000001
20
363.587401
10
1017.1387480000001
20
379.71201899999994
0
LWPOLYLINE
5
113
100
AcDbEntity
8
0
100
AcDbPolyline
90
58
70
1
43
0.0
10
600.87973699999998
20
435.71462699999995
10
601.58751299999994
20
435.72390499999995
10
502.29527599999994
20
435.72390400000006
10
501.58749999999998
20
435.73346100000003
10
501.78250100000002
20
439.321304
10
707.72561699999994
20
439.321304
10
707.72561699999994
20
444.22130400000003
10
501.58750099999997
20
444.47130399999998
10
501.78249999999991
20
495.59644500000002
10
707.72561699999994
20
495.59644600000001
10
707.72561699999994
20
500.49644499999999
10
601.58751299999994
20
500.74644500000005
10
601.58751299999994
20
517.55966899999999
10
601.58751300000006
20
547.43093299999998
10
734.5285100000001
20
547.43093399999998
10
734.72351000000003
20
551.46834600000011
10
824.19612200000006
20
551.46834600000011
10
824.19612200000006
20
556.36834599999997
10
734.5285100000001
20
556.61834699999997
10
734.528909
20
578.66447400000004
10
738.30045100000007
20
590.83628199999998
10
826.38959200000022
20
590.8362820000001
10
826.38959299999999
20
595.73628199999996
10
739.72545099999991
20
595.98628199999996
10
749.69891200000006
20
628.83115600000008
10
832.08882300000005
20
628.83115600000008
10
832.08882400000005
20
633.73115699999994
10
751.12391200000002
20
633.98115600000006
10
760.20488399999999
20
663.85106699999994
10
837.34180900000013
20
663.85106699999994
10
837.34180900000013
20
668.75106700000003
10
761.62988400000006
20
669.00106700000015
10
765.02238499999999
20
680.30940499999997
10
831.79677100000004
20
727.74627400000008
42
-0.14057023855563022
10
913.96373400000004
20
750.17567200000008
10
913.96373500000004
20
712.79338300000006
10
913.96373500000004
20
581.95508300000006
10
913.96373400000004
20
424.949274
10
913.96373500000004
20
301.58750000000003
10
890.65668000000005
20
313.24102399999998
10
869.10495400000002
20
324.016885
10
779.81644900000015
20
324.016885
10
705.76800200000002
20
324.016884
10
653.67775800000004
20
324.016884
10
601.58751299999994
20
324.016885
10
601.78251299999999
20
338.93002899999999
10
757.72562399999993
20
338.93002799999999
10
757.72562399999993
20
343.83002799999997
10
601.58751299999994
20
344.08002799999997
10
601.58751299999994
20
353.87688499999996
10
601.58751299999994
20
373.21463299999999
10
551.59520700000007
20
373.21463299999999
10
501.58750099999997
20
373.21463299999999
10
501.78249999999997
20
386.451594
10
707.72561800000005
20
386.451593
10
707.72561800000005
20
391.35159399999998
10
501.58750099999997
20
391.60159399999998
10
501.58750099999997
20
435.714628
0
LWPOLYLINE
5
114
100
AcDbEntity
8
0
100
AcDbPolyline
90
81
70
1
43
0.0
10
514.36994000000004
20
999.19410599999992
10
515.83463000000006
20
999.19410599999992
10
517.64933800000006
20
999.19410599999992
10
519.93359799999996
20
999.19410500000015
10
522.86666500000001
20
999.19410500000015
10
526.73100700000009
20
999.19410500000015
10
531.99827400000004
20
999.19410500000015
10
539.51756999999998
20
999.19410500000015
10
550.98944199999994
20
999.19410500000015
10
570.38251500000001
20
999.19410500000015
10
609.604197
20
999.19410500000015
10
667.45152800000005
20
999.19410500000015
10
667.64412100000004
20
1003.2315179999999
10
740.65478499999995
20
1003.2315179999999
10
740.65478499999995
20
1008.131518
10
667.44569000000001
20
1008.3815179999999
10
667.443985
20
1011.0647690000001
10
667.45724300000006
20
1030.426316
10
671.16297900000006
20
1039.782469
10
671.86297200000001
20
1041.5497690000002
10
672.38912000000005
20
1042.5994540000002
10
743.08068200000002
20
1042.5994540000002
10
743.08068300000002
20
1047.499454
10
674.43023700000003
20
1047.749454
10
680.97000800000001
20
1063.5423510000001
10
683.78260299999988
20
1070.0090610000002
10
688.47292900000002
20
1080.5943280000001
10
751.12519300000008
20
1080.5943280000001
10
751.12519399999996
20
1085.4943290000001
10
690.70474399999989
20
1085.7443280000002
10
693.36855200000002
20
1091.54575
10
696.77445499999999
20
1098.9635509999998
10
699.14777100000015
20
1103.8321350000001
10
703.73961600000007
20
1113.251835
10
705.03482299999996
20
1115.614239
10
759.416876
20
1115.6142380000001
10
759.416876
20
1120.5142380000002
10
707.65231500000004
20
1120.764238
10
709.62791100000004
20
1124.557393
10
710.21508799999992
20
1125.684753
10
713.79615599999988
20
1132.0725769999999
42
-0.11738708080781907
10
813.96372100000008
20
1171.0272570000002
10
813.96372100000008
20
1137.024525
10
813.96372199999996
20
1091.110709
10
813.96372199999996
20
1033.7182540000001
10
813.96372199999996
20
964.84737600000005
10
813.96372199999996
20
753.35067200000003
10
774.00510899999995
20
773.32997300000011
10
769.10494099999994
20
775.78005599999995
10
610.82941700000003
20
775.78005700000006
10
605.76798899999994
20
775.78005599999995
10
505.14802099999997
20
775.78005599999995
10
501.58749999999998
20
775.78005700000006
10
501.58749999999998
20
777.82107499999995
10
501.58750099999997
20
785.32842900000003
10
501.78249999999997
20
790.69320100000004
10
657.72561100000007
20
790.69320000000005
10
657.72561100000007
20
795.59320000000014
10
501.58750099999997
20
795.84320000000002
10
501.58749999999998
20
811.83702199999993
10
501.78250100000002
20
838.21476500000017
10
657.72561100000007
20
838.21476500000017
10
657.72561100000007
20
843.11476500000003
10
501.58750099999997
20
843.36476500000003
10
501.58750099999997
20
873.25371500000017
10
501.78250100000002
20
891.084476
10
657.72561100000007
20
891.08447500000011
10
657.72561100000007
20
895.98447499999997
10
501.58750099999997
20
896.23447499999997
10
501.78249999999997
20
947.35961700000007
10
657.72561000000007
20
947.35961700000007
10
657.72561100000007
20
952.25961700000016
10
501.58749999999998
20
952.50961700000005
10
501.58749999999998
20
963.128016
10
501.58750099999997
20
989.64213200000006
10
501.58750099999997
20
997.15231700000004
10
501.58749999999998
20
999.19410599999992
10
510.67440000000005
20
999.19410500000015
10
511.36255300000005
20
999.19410500000015
10
512.18468499999994
20
999.19410500000015
10
513.17283899999995
20
999.19410599999992
0
LWPOLYLINE
5
115
100
AcDbEntity
8
0
100
AcDbPolyline
90
79
70
1
43
0.0
10
501.78250100000002
20
1368.211202
10
657.72561199999996
20
1368.211202
10
657.72561100000007
20
1373.111202
10
501.58749999999998
20
1373.3612009999999
10
501.58749999999998
20
1384.667672
10
501.58749999999998
20
1412.560602
10
501.58750099999997
20
1420.0456899999999
10
508.71219300000001
20
1420.045689
10
509.25174700000002
20
1420.0456899999999
10
509.89633800000001
20
1420.0456899999999
10
510.67112600000002
20
1420.0456899999999
10
511.60971000000006
20
1420.0456899999999
10
512.75811699999997
20
1420.0456899999999
10
514.18098699999996
20
1420.0456899999999
10
515.97195799999997
20
1420.0456899999999
10
518.271659
20
1420.0456899999999
10
521.30153999999993
20
1420.045689
10
525.43149600000004
20
1420.0456889999998
10
531.327135
20
1420.0456899999999
10
540.32188100000008
20
1420.0456899999999
10
555.52700199999992
20
1420.0456899999999
10
586.27915799999994
20
1420.0456899999999
10
668.64308899999992
20
1420.045689
10
668.64176999999995
20
1422.123012
10
668.83793999999989
20
1424.0831020000001
10
741.25341600000013
20
1424.0831029999999
10
741.25341700000013
20
1428.983103
10
668.64663800000005
20
1429.2331020000001
10
668.66173300000003
20
1451.2779010000004
10
670.32237099999998
20
1455.4706290000001
10
673.71849999999995
20
1463.4510390000003
10
743.74537200000009
20
1463.4510390000003
10
743.74537299999997
20
1468.3510390000004
10
675.75961600000005
20
1468.6010390000001
10
677.96446800000001
20
1473.925542
10
679.57373000000007
20
1477.8118199999999
10
685.27109399999995
20
1490.9108590000001
10
687.95857799999999
20
1497.0898260000001
10
690.03892699999994
20
1501.445913
10
751.91121899999996
20
1501.445913
10
751.91122000000007
20
1506.3459130000001
10
692.32339400000001
20
1506.5959130000001
10
695.62852700000008
20
1513.794011
10
700.317093
20
1523.4121300000004
10
702.70403499999998
20
1528.308667
10
704.42736800000011
20
1531.617475
10
707.01733899999999
20
1536.465823
10
760.4081339999999
20
1536.465823
10
760.4081339999999
20
1541.3658230000001
10
709.66176300000006
20
1541.6158230000001
10
710.10399700000005
20
1542.4046900000003
10
715.44187800000009
20
1551.926215
10
716.04906700000004
20
1552.9241609999999
42
-0.11262185575777657
10
813.96372100000008
20
1590.881525
10
813.96372100000008
20
1555.7816320000002
10
813.96372199999996
20
1454.5698390000002
10
813.96372100000008
20
1208.0327789999999
10
813.96372199999996
20
1174.2022569999999
10
807.57203500000003
20
1177.398099
10
769.10494099999994
20
1196.6316410000002
10
749.89641600000004
20
1196.6316410000002
10
605.76798899999994
20
1196.6316410000002
10
602.97632399999998
20
1196.6316400000001
10
501.58749999999998
20
1196.6316410000002
10
501.58749999999998
20
1204.1139070000002
10
501.78250000000003
20
1211.544785
10
657.72561100000007
20
1211.544785
10
657.72561100000007
20
1216.4447849999999
10
501.58749999999998
20
1216.6947849999999
10
501.58750099999997
20
1232.001029
10
501.78250000000003
20
1259.0663490000002
10
657.72561100000007
20
1259.0663500000001
10
657.72561100000007
20
1263.9663500000001
10
501.58750099999997
20
1264.2163490000003
10
501.58750099999997
20
1290.0907899999997
10
501.78250100000002
20
1311.93606
10
657.72561100000007
20
1311.93606
10
657.72561100000007
20
1316.8360600000001
10
501.58750099999997
20
1317.0860600000001
0
LWPOLYLINE
5
116
100
AcDbEntity
8
0
100
AcDbPolyline
90
76
70
1
43
0.0
10
1649.8587769999999
20
327.90994999999998
10
1646.3832419999999
20
329.05816399999998
10
1641.3096250000001
20
331.01349400000004
10
1637.824793
20
332.40340800000001
10
1633.070952
20
334.58257699999996
10
1629.573445
20
336.23399399999994
10
1628.8030000000003
20
336.622118
10
1611.7956730000003
20
336.622117
10
1479.8769029999999
20
336.622117
10
1464.8651730000001
20
336.622117
10
1432.689983
20
336.62211600000001
10
1432.5554369999998
20
379.71201899999994
10
1332.6899700000001
20
379.84654399999999
10
1332.8245160000001
20
479.71202599999998
10
1432.6899819999999
20
479.76005499999997
10
1432.6899819999999
20
522.78631700000005
10
1464.8651730000001
20
522.78631700000005
10
1479.8769029999999
20
522.78631700000005
10
1611.7956730000003
20
522.78631700000005
10
1628.8030000000003
20
522.78631600000006
10
1629.573445
20
523.17455399999994
10
1633.070952
20
524.82601900000009
10
1637.8247940000001
20
527.00519200000008
10
1641.3096250000001
20
528.39515200000005
10
1646.3832419999999
20
530.35047899999995
10
1649.8587780000003
20
531.49869200000001
10
1655.206058
20
533.19428500000004
10
1658.6750510000002
20
534.115904
10
1664.2490440000001
20
535.52309500000001
10
1665.990718
20
535.90455500000007
10
1671.7109729999997
20
536.99474300000008
10
1673.467118
20
537.32588199999998
10
1675.2051310000002
20
537.60197700000003
10
1681.0661699999996
20
538.36810200000002
10
1682.8140089999999
20
538.59424399999989
10
1684.549563
20
538.76840799999991
10
1690.5023110000002
20
539.19816300000002
10
1692.243185
20
539.32254499999999
10
1693.9773740000001
20
539.39683000000002
10
1695.7100330000003
20
539.42151800000011
10
1697.047564
20
539.45539500000007
10
1700.2074229999998
20
539.51870200000008
10
1721.2259560000002
20
548.094292
10
1745.066204
20
557.82114500000012
10
1745.066204
20
549.60479199999997
10
1744.8712039999998
20
504.072472
10
1588.928093
20
504.072472
10
1588.928093
20
499.17247200000008
10
1745.0662030000001
20
498.92247199999997
10
1745.066204
20
489.351653
10
1744.8712039999998
20
432.15432300000003
10
1538.9280869999998
20
432.15432300000003
10
1538.9280869999998
20
427.254323
10
1745.066204
20
427.004323
10
1744.8712039999998
20
359.09677499999998
10
1588.928093
20
359.09677499999998
10
1588.928093
20
354.196775
10
1745.066204
20
353.946775
10
1745.0662039999997
20
309.80382200000003
10
1745.0662050000003
20
301.58750000000003
10
1721.2259570000001
20
311.31429600000001
10
1700.2074229999998
20
319.88983500000001
10
1697.753522
20
319.92487599999998
10
1693.9773730000002
20
320.01174800000001
10
1692.243185
20
320.086028
10
1690.502311
20
320.21041000000002
10
1684.549563
20
320.64016500000002
10
1682.8140089999999
20
320.81433400000003
10
1681.0661699999996
20
321.04047500000001
10
1675.2051310000002
20
321.80666799999995
10
1673.4671179999998
20
322.082763
10
1671.7109729999997
20
322.413904
10
1665.9907169999999
20
323.50408399999998
10
1664.2490440000001
20
323.88554399999998
10
1658.6750510000002
20
325.29267499999997
10
1655.206058
20
326.21429500000005
0
LWPOLYLINE
5
117
100
AcDbEntity
8
0
100
AcDbPolyline
90
142
70
1
43
0.0
10
739.36805400000003
20
2137.4146180000002
10
735.25852299999997
20
2138.7082660000001
10
731.23189499999989
20
2140.1646649999998
10
730.39967100000001
20
2140.4656910000003
10
726.46534500000007
20
2142.0816150000001
10
725.65221100000008
20
2142.415598
10
724.86016800000004
20
2142.7817270000005
10
721.02772900000002
20
2144.5534020000005
10
717.30650200000002
20
2146.476122
10
716.53742399999999
20
2146.8735139999999
10
712.93635499999993
20
2148.943123
10
712.19209599999999
20
2149.370864
10
711.47446000000002
20
2149.827863
10
708.00211399999989
20
2152.0391140000002
10
704.66688900000008
20
2154.3866560000001
10
703.97759599999995
20
2154.8718370000001
10
700.78760499999987
20
2157.3501290000004
10
700.12830699999995
20
2157.8623280000002
10
697.09120499999995
20
2160.4654810000002
10
696.46350800000005
20
2161.0034730000002
10
695.86891600000001
20
2161.5659329999999
10
692.99189299999989
20
2164.2873950000003
10
690.28205400000002
20
2167.1207090000003
10
689.7219970000001
20
2167.7063090000001
10
687.18579
20
2170.6449280000006
10
686.66162299999996
20
2171.2522399999998
10
686.17461400000002
20
2171.8798040000001
10
683.81822299999999
20
2174.9163530000001
10
681.64717500000006
20
2178.0435470000002
10
681.19847499999992
20
2178.689875
10
679.21812799999998
20
2181.9002469999996
10
678.80884100000003
20
2182.5637460000003
10
678.43995500000005
20
2183.2428250000003
10
676.65500300000008
20
2186.5286230000002
10
675.06987300000003
20
2189.8819210000001
10
674.74225799999999
20
2190.5749580000002
10
673.36064299999998
20
2193.9876420000005
10
673.07509299999992
20
2194.6929710000004
10
671.90030699999988
20
2198.1570170000005
10
671.65750300000002
20
2198.8729160000003
10
671.45806300000004
20
2199.5976870000004
10
670.4930609999999
20
2203.1044260000003
10
669.7399640000001
20
2206.6456539999999
10
669.58432900000003
20
2207.3775299999998
10
669.04516699999999
20
2210.9446680000001
10
668.93373600000007
20
2211.6819089999999
10
668.86677499999996
20
2212.4227170000004
10
668.54273899999998
20
2216.0071920000005
10
668.43466899999999
20
2219.6001500000002
10
668.4123239999999
20
2220.3427270000002
10
668.5203939999999
20
2223.9357770000001
10
668.54273899999998
20
2224.6783679999999
10
668.60970100000009
20
2225.4191769999998
10
668.93373600000007
20
2229.0035590000002
10
669.4728980000001
20
2232.5707899999998
10
669.58432899999991
20
2233.308031
10
670.33742599999994
20
2236.8492579999997
10
670.49306100000013
20
2237.5811190000004
10
670.69250099999999
20
2238.3058900000001
10
671.65750300000002
20
2241.8126309999998
10
672.83229000000006
20
2245.2765840000002
10
673.07509400000004
20
2245.9924970000002
10
674.45670900000005
20
2249.405272
10
674.74225799999999
20
2250.1105870000001
10
676.32738799999993
20
2253.4638850000001
10
676.65500300000008
20
2254.1569370000002
10
677.02388900000005
20
2254.8360160000002
10
678.80884100000003
20
2258.1218160000003
10
680.78918799999997
20
2261.3321860000001
10
681.19847500000003
20
2261.9956850000003
10
683.36952299999996
20
2265.122879
10
683.8182230000001
20
2265.7692070000003
10
684.30523099999982
20
2266.3967710000002
10
686.66162299999996
20
2269.4332280000003
10
689.19783000000007
20
2272.3717550000001
10
689.7219970000001
20
2272.9790670000002
10
692.43183600000009
20
2275.8125660000001
10
692.99189299999989
20
2276.3981680000002
10
693.58648500000004
20
2276.9606280000003
10
696.46350900000004
20
2279.6820890000004
10
699.50061000000005
20
2282.2851489999998
10
700.12830699999995
20
2282.8231409999999
10
703.31829700000003
20
2285.3015270000001
10
703.97759500000006
20
2285.8137110000002
10
707.31281999999987
20
2288.1612519999999
10
708.00211399999989
20
2288.646448
10
708.71975099999997
20
2289.1034460000001
10
712.19209599999999
20
2291.3146930000003
10
715.79316599999993
20
2293.3843070000003
10
716.53742399999999
20
2293.812034
10
720.2586510000001
20
2295.7347489999997
10
721.02772900000002
20
2296.132141
10
721.81977200000006
20
2296.4982840000002
10
725.65221100000008
20
2298.2699590000002
10
729.58653800000002
20
2299.8858890000001
10
730.39967200000001
20
2300.219857
10
734.42629899999997
20
2301.6762570000001
10
735.25852299999997
20
2301.977296
10
736.10782900000004
20
2302.244627
10
740.2173600000001
20
2303.53827
10
744.39955999999995
20
2304.6656579999999
10
745.26392799999996
20
2304.8986599999998
10
746.14125400000012
20
2305.0967890000002
10
754.68379300000015
20
2306.8428279999998
10
755.57199600000001
20
2307.0055660000003
10
756.46891100000005
20
2307.1325609999999
10
765.1802009999999
20
2308.1870090000002
10
766.0836589999999
20
2308.277936
10
766.99151000000006
20
2308.3325760000002
10
775.78736200000003
20
2308.6851980000001
10
776.6973959999998
20
2308.7034309999999
10
783.08650999999998
20
2311.4249749999999
10
821.55617600000005
20
2327.8116650000002
10
821.55617600000005
20
2302.5753380000001
10
821.36117600000011
20
2294.7109300000002
10
767.10933100000011
20
2294.7109300000002
10
767.10933100000011
20
2289.810931
10
821.55617600000005
20
2289.560931
10
821.55617699999993
20
2265.8680439999998
10
821.36117600000011
20
2222.7927810000001
10
745.03425100000004
20
2222.7927810000001
10
745.03425100000004
20
2217.892781
10
821.55617600000005
20
2217.642781
10
821.36117600000011
20
2149.7352330000003
10
768.10058900000001
20
2149.7352330000003
10
768.10058900000001
20
2144.8352329999998
10
821.55617600000005
20
2144.5852329999998
10
821.55617600000005
20
2138.1102230000001
10
821.55617699999993
20
2112.8738160000003
10
783.08650999999998
20
2129.2605870000002
10
776.69739600000003
20
2131.9821170000005
10
775.78736200000003
20
2132.0003489999999
10
766.99150900000006
20
2132.3528770000003
10
766.08365900000013
20
2132.4075170000006
10
765.18020100000001
20
2132.4984450000002
10
756.46891100000005
20
2133.5529809999998
10
755.57199600000001
20
2133.6799920000003
10
754.68379300000015
20
2133.8427300000003
10
746.14125400000012
20
2135.5887729999999
10
745.26392800000008
20
2135.7869030000002
10
741.08172800000011
20
2136.9142860000002
10
740.2173600000001
20
2137.1472870000002
0
LWPOLYLINE
5
118
100
AcDbEntity
8
0
100
AcDbPolyline
90
155
70
1
43
0.0
10
527.77004099999999
20
1916.4985670000001
10
526.98001099999999
20
1917.413914
10
524.00848299999996
20
1920.8903880000003
10
523.27445899999998
20
1921.8362580000003
10
520.51400699999999
20
1925.426788
10
519.83772199999999
20
1926.40094
10
517.29487300000005
20
1930.0967949999999
10
516.67799200000002
20
1931.0968270000001
10
514.35867600000006
20
1934.889535
10
513.80268799999999
20
1935.9130490000002
10
511.71249800000004
20
1939.7932070000002
10
511.21871300000004
20
1940.8377599999999
10
509.36265100000003
20
1944.7964650000004
10
508.93226900000002
20
1945.8595450000003
10
507.31465500000002
20
1949.8873980000003
10
506.94869900000003
20
1950.966406
10
505.57334500000002
20
1955.0536580000003
10
505.27274599999998
20
1956.146041
10
504.14304399999997
20
1960.2831180000001
10
503.90847100000002
20
1961.3862080000001
10
503.02695900000003
20
1965.5632800000001
10
502.85900900000001
20
1966.6744570000003
10
502.22789299999999
20
1970.8816960000001
10
502.12696800000003
20
1971.9982490000002
10
501.74768800000004
20
1976.2254010000001
10
501.71400900000003
20
1977.3446190000002
10
501.58750000000003
20
1981.5819390000001
10
501.71401000000003
20
1985.819258
10
501.74768800000004
20
1986.9384990000001
10
502.12696800000003
20
1991.1657360000002
10
502.22789299999999
20
1992.282289
10
502.85900900000001
20
1996.4894430000002
10
503.02695900000003
20
1997.6006190000001
10
503.90847000000002
20
2001.7777760000001
10
504.14304399999997
20
2002.880844
10
505.27274600000004
20
2007.0179210000003
10
505.57334500000002
20
2008.1103039999998
10
506.94869900000003
20
2012.1974710000004
10
507.31465500000002
20
2013.2765019999999
10
508.93226900000002
20
2017.304439
10
509.36265100000003
20
2018.3674970000002
10
511.21871300000004
20
2022.326204
10
511.71249799999998
20
2023.3707789999999
10
513.80268799999999
20
2027.2509350000005
10
514.35867600000006
20
2028.274449
10
516.67799200000002
20
2032.0670730000002
10
517.29487200000005
20
2033.067106
10
519.83772099999999
20
2036.7629609999999
10
520.51400699999999
20
2037.737112
10
523.27445999999998
20
2041.3276420000002
10
524.00848299999996
20
2042.2735120000004
10
526.98001199999999
20
2045.7500680000001
10
527.77004199999999
20
2046.6654140000003
10
530.94544900000005
20
2050.0196170000004
10
531.78957200000002
20
2050.9022409999998
10
535.16139299999998
20
2054.1264529999999
10
536.05756800000006
20
2054.9741980000003
10
539.61793399999999
20
2058.0604590000003
10
540.56400400000007
20
2058.8713260000004
10
542.03549299999997
20
2060.0591720000002
10
543.53285500000004
20
2061.2183129999999
10
544.57910399999992
20
2062.0311030000003
10
547.60215099999994
20
2064.2447960000004
10
548.84580900000003
20
2065.12021
10
551.73857099999998
20
2067.0923929999999
10
553.25777300000004
20
2068.0598359999999
10
555.87873100000002
20
2069.7141809999998
10
557.46561999999994
20
2070.6557940000002
10
559.29704500000003
20
2071.708318
10
560.02515400000004
20
2072.1247200000003
10
560.96140600000001
20
2072.649891
10
561.73313899999994
20
2073.0717129999998
10
562.70221700000002
20
2073.5841639999999
10
564.53957500000001
20
2074.5258980000003
10
566.43207800000005
20
2075.5037769999999
10
568.38108899999997
20
2076.4047620000001
10
573.85410999999999
20
2078.9136079999998
10
575.85502300000007
20
2079.7354170000003
10
581.53132000000005
20
2081.9230109999999
10
583.579206
20
2082.6637920000003
10
589.43044999999995
20
2084.5191890000001
10
591.52037100000007
20
2085.1770210000004
10
593.64735799999994
20
2085.7503780000002
10
599.644407
20
2087.2643720000001
10
601.80327899999997
20
2087.7519179999999
10
607.91632600000003
20
2088.9169649999999
10
610.10196200000007
20
2089.317423
10
612.30903799999999
20
2089.6299250000002
10
618.50745900000004
20
2090.4401510000002
10
620.730636
20
2090.6639
10
626.98377400000004
20
2091.1153420000005
10
629.217759
20
2091.2497969999999
10
630.61757699999998
20
2091.285253
10
636.16394500000001
20
2091.3963720000002
10
673.05688599999996
20
2106.4487420000005
10
681.02272600000003
20
2109.6988160000001
10
681.02272600000003
20
2106.9534520000002
10
681.02272600000003
20
2086.8208240000004
10
680.82772599999998
20
2055.950143
10
607.81379000000004
20
2055.950143
10
607.81379000000004
20
2051.0501429999999
10
681.02272500000004
20
2050.8001430000004
10
680.82772599999998
20
1984.0319930000001
10
591.35511399999996
20
1984.0319940000004
10
591.35511399999996
20
1979.131993
10
681.02272600000003
20
1978.8819940000003
10
680.82772599999998
20
1910.9744460000002
10
608.41242099999999
20
1910.9744449999998
10
608.41242099999999
20
1906.0744460000001
10
681.02272600000003
20
1905.8244460000003
10
681.02272600000003
20
1856.2105240000003
10
681.02272600000003
20
1853.4651710000003
10
673.05688700000007
20
1856.7152250000001
10
636.16394500000001
20
1871.7675050000003
10
635.41073499999993
20
1871.7782609999999
10
631.45711399999993
20
1871.8692160000001
10
629.217758
20
1871.9140810000001
10
626.98377400000004
20
1872.048536
10
620.730636
20
1872.4999779999998
10
618.50745900000004
20
1872.7237270000001
10
612.30903799999999
20
1873.5340250000002
10
610.10196200000007
20
1873.8465640000004
10
607.91632600000003
20
1874.2470210000001
10
601.80327799999998
20
1875.4120599999999
10
599.644406
20
1875.8996070000001
10
593.64735800000005
20
1877.4135369999999
10
591.52037100000007
20
1877.9868940000001
10
589.43044999999995
20
1878.6447240000002
10
583.579206
20
1880.5001890000003
10
581.53132000000005
20
1881.2409339999999
10
575.85502199999996
20
1883.428533
10
573.85410999999999
20
1884.2503769999998
10
568.38109000000009
20
1886.7592190000003
10
566.43207800000005
20
1887.6601690000002
10
564.53957500000001
20
1888.6380480000003
10
562.31248500000004
20
1889.7829380000003
10
561.73207100000002
20
1890.0927609999999
10
560.96128099999999
20
1890.5141090000002
10
560.02151700000002
20
1891.0413189999999
10
559.29704600000002
20
1891.4556319999999
10
557.46561999999994
20
1892.5081910000004
10
555.87153999999998
20
1893.4537970000001
10
553.25595399999997
20
1895.100817
10
551.737572
20
1896.0677390000001
10
548.84286299999997
20
1898.0377190000002
10
547.60070300000007
20
1898.912051
10
544.57788800000003
20
1901.1301860000001
10
543.53231200000005
20
1901.9424770000001
10
542.03529600000002
20
1903.1037509999999
10
540.56400399999995
20
1904.2926600000001
10
539.61793399999999
20
1905.103527
10
536.05756800000006
20
1908.1897890000002
10
535.16139299999998
20
1909.0375340000003
10
531.78957200000002
20
1912.261747
10
530.94544900000005
20
1913.1443690000001
0
LWPOLYLINE
5
119
100
AcDbEntity
8
0
100
AcDbPolyline
90
43
70
1
43
0.0
10
1915.188277
20
522.78631600000006
10
1971.891633
20
522.78631600000006
10
1982.993669
20
531.845598
10
1992.39696
20
539.51870099999996
10
2046.9349260000001
20
539.51870099999996
10
2115.7586590000001
20
539.51870200000008
10
2133.5166220000001
20
546.76397499999996
10
2160.6174390000001
20
557.82114500000012
10
2160.6174380000002
20
538.91730100000007
10
2160.4224389999999
20
504.072472
10
2004.4793279999999
20
504.072472
10
2004.4793279999999
20
499.17247099999997
10
2160.6174380000002
20
498.92247199999997
10
2160.4224389999999
20
432.15432200000004
10
1954.4793220000001
20
432.15432200000004
10
1954.4793220000001
20
427.254322
10
2160.6174380000002
20
427.004322
10
2160.6174390000001
20
400.28939600000001
10
2160.4224389999999
20
359.09677499999998
10
2004.4793279999999
20
359.09677399999998
10
2004.4793290000002
20
354.196774
10
2160.6174390000001
20
353.946774
10
2160.6174390000001
20
320.49126699999999
10
2160.6174390000001
20
301.58749999999998
10
2133.5166220000001
20
312.64460499999996
10
2115.7586590000001
20
319.88983400000001
10
2061.220691
20
319.88983400000001
10
1992.3969589999999
20
319.88983500000001
10
1982.9936680000001
20
327.56289000000004
10
1971.8916320000003
20
336.62211600000001
10
1915.188277
20
336.62211600000001
10
1848.2412180000001
20
336.62211600000001
10
1848.2412180000001
20
348.48368399999998
10
1848.2412180000001
20
379.71201899999994
10
1760.7907760000001
20
379.71201899999994
10
1748.2412049999998
20
379.71201899999994
10
1748.2412039999997
20
392.2615760000001
10
1748.2412049999998
20
467.16244200000006
10
1748.2412049999998
20
479.71202599999998
10
1835.691648
20
479.71202600000004
10
1848.2412180000001
20
479.71202500000004
10
1848.241217
20
510.92904500000003
10
1848.2412180000001
20
522.78631600000006
0
LWPOLYLINE
5
120
100
AcDbEntity
8
0
100
AcDbPolyline
90
142
70
1
43
0.0
10
684.40863900000011
20
1972.9973870000001
10
684.35457199999996
20
1973.5954880000004
10
684.3365389999999
20
1974.1950040000002
10
684.19772599999999
20
1978.8080660000003
10
684.21575800000005
20
1979.4075980000002
10
684.35457199999985
20
1984.0207520000001
10
684.77055199999995
20
1988.6228270000001
10
684.82461999999998
20
1989.2209120000002
10
684.91458399999999
20
1989.8161350000005
10
685.60681900000009
20
1994.3960510000002
10
685.73247900000001
20
1994.9869350000004
10
686.69931799999995
20
1999.5334309999998
10
687.93828999999982
20
2004.035883
10
688.09930899999995
20
2004.6210129999999
10
688.29533200000003
20
2005.1990030000002
10
689.80368600000008
20
2009.6464230000004
10
690.03422
20
2010.215874
10
691.80811800000004
20
2014.5974600000002
10
692.07261000000005
20
2015.1569870000003
10
694.10783400000003
20
2019.4623899999999
10
696.39943900000003
20
2023.680989
10
696.697273
20
2024.2292530000004
10
697.02771200000007
20
2024.7649309999999
10
699.57029900000009
20
2028.886747
10
699.93255700000009
20
2029.4085460000001
10
702.71998899999994
20
2033.4236880000001
10
705.74539899999991
20
2037.3222640000004
10
706.13858400000004
20
2037.828923
10
706.56177200000002
20
2038.3192410000001
10
709.81802200000004
20
2042.092007
10
710.27018199999998
20
2042.5648010000004
10
713.74938999999995
20
2046.2026940000001
10
717.44313700000009
20
2049.696829
10
717.92319300000008
20
2050.150928
10
718.42995999999994
20
2050.5852710000004
10
722.32936100000006
20
2053.927408
10
722.86163799999997
20
2054.340948
10
726.95735400000001
20
2057.5227500000001
10
727.51386400000001
20
2057.9144570000003
10
731.79592100000013
20
2060.9286050000001
10
736.254053
20
2063.767589
10
736.83344399999999
20
2064.136555
10
737.43431299999997
20
2064.4818879999998
10
742.05781899999988
20
2067.1390270000002
10
742.67873699999996
20
2067.459848
10
747.45643299999995
20
2069.9285420000001
10
752.37679000000003
20
2072.2031139999999
10
753.01626499999998
20
2072.4987329999999
10
753.67274100000009
20
2072.7683649999999
10
758.72412400000007
20
2074.8430530000001
10
759.39599999999996
20
2075.0860659999998
10
764.56597099999999
20
2076.9561950000002
10
769.84205900000006
20
2078.6169180000002
10
770.52777000000003
20
2078.8327730000001
10
771.22560599999997
20
2079.0208870000006
10
776.59526600000004
20
2080.4683510000004
10
782.04542400000014
20
2081.6991800000001
10
783.47082
20
2081.9905210000002
10
788.98854299999994
20
2083.0014920000003
10
794.56039299999998
20
2083.7904149999999
10
796.01394700000003
20
2083.9663580000001
10
801.62644399999999
20
2084.531223
10
807.26622500000008
20
2084.8706600000005
10
808.73388799999998
20
2084.9294980000004
10
814.38723100000004
20
2085.042762
10
854.07792300000006
20
2101.9496410000002
10
859.24601100000007
20
2104.1510600000001
10
859.24601100000007
20
2100.7607640000006
10
859.24601100000007
20
2095.8294370000003
10
859.05101100000002
20
2053.1762699999999
10
788.46297200000004
20
2053.1762699999999
10
788.46297200000004
20
2048.2762700000003
10
859.24601100000007
20
2048.0262699999998
10
859.05101100000002
20
1981.2581210000003
10
771.77186899999992
20
1981.2581210000003
10
771.77186899999992
20
1976.3581210000002
10
859.24601100000007
20
1976.108121
10
859.05101100000002
20
1908.2005730000003
10
789.12766199999987
20
1908.2005730000003
10
789.12766199999987
20
1903.3005730000002
10
859.24601100000007
20
1903.0505730000002
10
859.24601100000018
20
1856.8554770000003
10
859.24601200000006
20
1853.4651710000003
10
854.07792400000005
20
1855.6666
10
814.38723100000004
20
1872.5733869999999
10
808.73388799999998
20
1872.6866500000003
10
807.26622500000008
20
1872.7454729999999
10
801.62644499999999
20
1873.08491
10
796.01394700000003
20
1873.6497750000001
10
794.56039299999998
20
1873.8257329999999
10
788.98854300000016
20
1874.6147500000002
10
783.47081900000012
20
1875.6257189999999
10
782.04542400000014
20
1875.917062
10
776.59526600000004
20
1877.1478910000001
10
775.89743099999987
20
1877.3360050000001
10
770.52777000000003
20
1878.7834680000001
10
765.25168099999996
20
1880.4441850000001
10
764.56597099999999
20
1880.6600410000001
10
763.89409300000011
20
1880.9030540000001
10
758.72412300000008
20
1882.773095
10
758.06764799999996
20
1883.0427259999999
10
753.01626499999998
20
1885.1175030000002
10
748.09590900000001
20
1887.3919860000001
10
747.45643399999994
20
1887.6876050000001
10
746.83551499999999
20
1888.0084280000001
10
742.05781900000011
20
1890.4771210000001
10
741.45695000000001
20
1890.8224530000002
10
736.83344399999999
20
1893.479681
10
732.37531200000012
20
1896.3186660000001
10
731.79592099999991
20
1896.6876320000003
10
731.23941100000002
20
1897.0793390000003
10
726.95735400000001
20
1900.0933980000002
10
726.42507699999999
20
1900.5069230000004
10
722.32935999999995
20
1903.6888190000002
10
721.82259399999998
20
1904.1231770000002
10
717.92319300000008
20
1907.465314
10
714.22944599999994
20
1910.9594480000001
10
713.74938999999995
20
1911.4135470000001
10
713.29723000000001
20
1911.8863099999999
10
709.81802300000004
20
1915.5241980000003
10
709.39483399999995
20
1916.0145320000001
10
706.13858400000004
20
1919.7873030000001
10
703.11317200000008
20
1923.6858789999999
10
702.71998800000006
20
1924.1925530000001
10
702.35773100000017
20
1924.714352
10
699.57029900000009
20
1928.7294940000002
10
699.23986200000002
20
1929.2651720000003
10
696.69727399999999
20
1933.3869860000002
10
694.40566799999999
20
1937.605585
10
694.10783400000003
20
1938.1538490000003
10
693.84334100000001
20
1938.7133760000002
10
691.80811800000004
20
1943.0186880000001
10
691.57758400000012
20
1943.5881240000003
10
689.80368600000008
20
1947.9698000000003
10
689.60766299999989
20
1948.5478060000003
10
688.09930899999995
20
1952.995136
10
686.86033699999996
20
1957.4975880000002
10
686.69931799999995
20
1958.082717
10
686.57365700000003
20
1958.6736020000001
10
685.60681900000009
20
1963.2201880000002
10
685.51685500000008
20
1963.8153950000001
10
684.82461999999998
20
1968.3953120000001
0
LWPOLYLINE
5
121
100
AcDbEntity
8
0
100
AcDbPolyline
90
142
70
1
43
0.0
10
600.34270000000004
20
2133.4001699999999
10
597.20355600000005
20
2133.844697
10
594.09490800000003
20
2134.4142710000001
10
588.96594800000003
20
2135.4626000000003
10
585.89536499999997
20
2136.1560399999998
10
583.38436200000001
20
2136.8329239999998
10
580.35913100000005
20
2137.6484149999997
10
577.386618
20
2138.5840520000002
10
574.91924600000004
20
2139.3607609999999
10
572.50164900000004
20
2140.2351870000002
10
569.58892200000003
20
2141.2887559999999
10
567.22674400000005
20
2142.258961
10
564.38082799999995
20
2143.4278760000002
10
561.60873199999992
20
2144.7093050000003
10
559.307727
20
2145.7730219999999
10
557.07349399999998
20
2146.927428
10
554.38177199999996
20
2148.3182730000003
10
552.21968100000004
20
2149.560872
10
549.61482899999999
20
2151.0579360000002
10
547.10314700000004
20
2152.6574010000004
10
545.01834299999996
20
2153.9850420000002
10
543.01586599999996
20
2155.394511
10
540.60338400000001
20
2157.0926120000004
10
538.68810599999995
20
2158.5805850000002
10
536.38060699999994
20
2160.3732440000003
10
534.55712300000005
20
2161.9361829999998
10
532.36022700000001
20
2163.8191210000005
10
530.27919399999996
20
2165.7876919999999
10
528.55182300000001
20
2167.4216649999998
10
526.92482900000005
20
2169.1227930000005
10
524.96466699999996
20
2171.1723550000002
10
523.44192300000009
20
2172.9367079999997
10
521.60737300000005
20
2175.0622620000004
10
519.90287599999999
20
2177.2586940000001
10
518.48809299999994
20
2179.0818450000002
10
517.18459099999995
20
2180.9594200000001
10
515.61416999999994
20
2183.221524
10
514.42516599999999
20
2185.1490390000004
10
512.99268800000004
20
2187.4712410000002
10
511.70161299999995
20
2189.847972
10
510.62992399999996
20
2191.8207730000004
10
509.67820799999998
20
2193.8341010000004
10
508.53157699999997
20
2196.2596850000004
10
507.70205199999998
20
2198.3086680000001
10
506.70264900000001
20
2200.7772749999999
10
505.99730499999998
20
2202.8570970000001
10
505.14750800000002
20
2205.362693
10
504.44947999999999
20
2207.8993449999998
10
503.87009
20
2210.0047989999998
10
503.41792900000002
20
2212.1309600000004
10
502.87321900000001
20
2214.6924770000001
10
502.54950399999996
20
2216.8341950000004
10
502.15950399999997
20
2219.4144890000002
10
501.92514299999999
20
2222.0072680000003
10
501.730592
20
2224.1593950000001
10
501.665706
20
2226.3166160000001
10
501.58749999999998
20
2228.9155840000003
10
501.65238499999998
20
2231.0728600000002
10
501.73059200000006
20
2233.6718800000003
10
501.96495200000004
20
2236.2646589999999
10
502.15950399999997
20
2238.4167299999999
10
502.48321799999997
20
2240.558505
10
502.87321900000001
20
2243.1387989999998
10
503.32538
20
2245.2649600000004
10
503.870091
20
2247.8264250000002
10
504.56811899999997
20
2250.3630760000001
10
505.14750900000001
20
2252.4685320000003
10
505.85285300000004
20
2254.5482970000003
10
506.70265000000001
20
2257.0539440000002
10
507.532175
20
2259.1029820000003
10
508.53157700000003
20
2261.5715390000005
10
509.48329199999995
20
2263.5848670000005
10
510.62992399999996
20
2266.0105020000001
10
511.92099900000005
20
2268.3872329999999
10
512.99268799999993
20
2270.3600350000002
10
514.18169399999999
20
2272.2875480000002
10
515.61417099999994
20
2274.6097520000003
10
516.91767300000004
20
2276.4873270000003
10
518.48809299999994
20
2278.7494310000002
10
520.192589
20
2280.9458629999999
10
521.60737199999994
20
2282.768959
10
523.13011699999993
20
2284.533257
10
524.96466699999996
20
2286.6588080000001
10
526.59166000000005
20
2288.360048
10
528.55182300000001
20
2290.4096129999998
10
530.63285499999995
20
2292.3781850000005
10
532.36022800000001
20
2294.0121570000001
10
534.18371000000002
20
2295.5750399999997
10
536.38060699999994
20
2297.4579780000004
10
538.295884
20
2298.9460060000001
10
540.60338400000001
20
2300.738613
10
542.60586000000001
20
2302.1480819999997
10
545.01834199999996
20
2303.8462329999998
10
547.53002400000003
20
2305.445698
10
549.61482899999999
20
2306.7733360000002
10
551.77691900000002
20
2308.0159370000001
10
554.38177199999996
20
2309.512952
10
556.61600499999997
20
2310.6673540000002
10
559.307727
20
2312.0581990000001
10
562.07982300000003
20
2313.3396780000003
10
564.38082799999995
20
2314.4033949999998
10
566.74300800000003
20
2315.3736040000003
10
569.58892299999991
20
2316.5424690000004
10
572.00651900000003
20
2317.4168950000003
10
574.91924600000004
20
2318.4705140000001
10
577.89175900000009
20
2319.4061540000002
10
580.35913100000005
20
2320.1828600000003
10
582.87013400000001
20
2320.8597460000001
10
585.89536499999997
20
2321.6752370000004
10
588.96594700000003
20
2322.3686780000003
10
594.09490800000003
20
2323.4170039999999
10
597.20355600000005
20
2323.986578
10
600.34270000000004
20
2324.4310519999999
10
605.57297900000003
20
2325.0641440000004
10
608.73502200000007
20
2325.3823850000003
10
611.91243699999995
20
2325.5736219999999
10
617.193488
20
2325.7853370000003
10
620.37854300000004
20
2325.8491490000001
10
642.74001600000008
20
2335.3743720000002
10
665.23732399999994
20
2344.957414
10
665.23732399999994
20
2330.1990479999999
10
665.23732399999994
20
2308.7323860000001
10
665.04232400000001
20
2303.2837879999997
10
602.49879699999997
20
2303.2837879999997
10
602.49879699999997
20
2298.3837880000001
10
665.23732399999994
20
2298.1337880000001
10
665.04232400000001
20
2231.3656390000001
10
583.46241299999997
20
2231.3656390000001
10
583.46241299999997
20
2226.465639
10
665.23732399999994
20
2226.215639
10
665.04232400000001
20
2158.3080909999999
10
603.28482199999996
20
2158.3080909999999
10
603.28482199999996
20
2153.4080910000002
10
665.23732399999994
20
2153.1580910000002
10
665.23732399999994
20
2127.6322289999998
10
665.23732399999994
20
2112.8738160000003
10
642.74001600000008
20
2122.456905
10
620.37854400000003
20
2131.9820770000001
10
617.193487
20
2132.0458880000001
10
611.91243699999995
20
2132.2575470000002
10
608.73502299999996
20
2132.4487829999998
10
605.57297900000003
20
2132.7670250000001
0
ENDSEC
0
SECTION
2
OBJECTS
0
DICTIONARY
5
C
100
AcDbDictionary
3
ACAD_GROUP
350
D
3
ACAD_MLINESTYLE
350
17
0
DICTIONARY
5
D
100
AcDbDictionary
0
DICTIONARY
5
1A
330
C
100
AcDbDictionary
0
DICTIONARY
5
17
100
AcDbDictionary
0
ENDSEC
0
EOF
