0
SECTION
2
HEADER
9
$ACADVER
1
AC1009
0
ENDSEC
0
SECTION
2
TABLES
0
TABLE
2
VPORT
70
1
0
VPORT
2
ACTIVE
70
0
10
0.0
20
0.0
11
0.0
21
0.0
12
0.0
22
0.0
13
0.0
23
0.0
14
0.0
24
0.0
15
0.0
25
0.0
16
0.0
26
0.0
36
0.0
17
0.0
27
0.0
37
0.0
40
0.0
41
0.0
42
0.0
43
0.0
44
0.0
50
0.0
51
0.0
71
0
72
1000
73
1
74
3
75
0
76
0
77
0
78
0
0
ENDTAB
0
ENDSEC
0
SECTION
2
ENTITIES
0
LINE
8
boundary
62
5
39
2
10
379.519204
20
60.884414
11
379.519205
21
80.324096
0
LINE
8
boundary
62
5
39
2
10
379.519205
20
80.324096
11
379.519204
21
140.884339
0
LINE
8
boundary
62
5
39
2
10
379.519204
20
140.884339
11
357.649546
21
140.884340
0
LINE
8
boundary
62
5
39
2
10
357.649546
20
140.884340
11
289.519229
21
140.884339
0
LINE
8
boundary
62
5
39
2
10
289.519229
20
140.884339
11
289.519229
21
147.832814
0
LINE
8
boundary
62
5
39
2
10
289.519229
20
147.832814
11
145.603365
21
148.082814
0
LINE
8
boundary
62
5
39
2
10
145.603365
20
148.082814
11
145.603365
21
152.982814
0
LINE
8
boundary
62
5
39
2
10
145.603365
20
152.982814
11
289.324229
21
152.982814
0
LINE
8
boundary
62
5
39
2
10
289.324229
20
152.982814
11
289.519229
21
169.702196
0
LINE
8
boundary
62
5
39
2
10
289.519229
20
169.702196
11
289.519229
21
247.129692
0
LINE
8
boundary
62
5
39
2
10
289.519229
20
247.129692
11
145.603364
21
247.379691
0
LINE
8
boundary
62
5
39
2
10
145.603364
20
247.379691
11
145.603365
21
252.279691
0
LINE
8
boundary
62
5
39
2
10
145.603365
20
252.279691
11
289.324229
21
252.279691
0
LINE
8
boundary
62
5
39
2
10
289.324229
20
252.279691
11
289.519229
21
259.478167
0
LINE
8
boundary
62
5
39
2
10
289.519229
20
259.478167
11
311.388887
21
259.478166
0
LINE
8
boundary
62
5
39
2
10
311.388887
20
259.478166
11
379.519204
21
259.478167
0
LINE
8
boundary
62
5
39
2
10
379.519204
20
259.478167
11
379.519205
21
278.917850
0
LINE
8
boundary
62
5
39
2
10
379.519205
20
278.917850
11
379.519205
21
339.478092
0
LINE
8
boundary
62
5
39
2
10
379.519205
20
339.478092
11
357.649546
21
339.478092
0
LINE
8
boundary
62
5
39
2
10
357.649546
20
339.478092
11
289.519229
21
339.478092
0
LINE
8
boundary
62
5
39
2
10
289.519229
20
339.478092
11
289.519229
21
346.426567
0
LINE
8
boundary
62
5
39
2
10
289.519229
20
346.426567
11
152.979025
21
346.676567
0
LINE
8
boundary
62
5
39
2
10
152.979025
20
346.676567
11
152.979025
21
351.576567
0
LINE
8
boundary
62
5
39
2
10
152.979025
20
351.576567
11
289.324229
21
351.576567
0
LINE
8
boundary
62
5
39
2
10
289.324229
20
351.576567
11
289.519228
21
398.775005
0
LINE
8
boundary
62
5
39
2
10
289.519228
20
398.775005
11
178.946593
21
398.775005
0
LINE
8
boundary
62
5
39
2
10
178.946593
20
398.775005
11
74.748756
21
398.775005
0
LINE
8
boundary
62
5
39
2
10
74.748756
20
398.775005
11
28.328672
21
359.317938
0
LINE
8
boundary
62
5
39
2
10
28.328672
20
359.317938
11
1.587501
21
336.587947
0
LINE
8
boundary
62
5
39
2
10
1.587501
20
336.587947
11
1.587500
21
250.197079
0
LINE
8
boundary
62
5
39
2
10
1.587500
20
250.197079
11
1.587501
21
63.774657
0
LINE
8
boundary
62
5
39
2
10
1.587501
20
63.774657
11
28.328672
21
41.044629
0
LINE
8
boundary
62
5
39
2
10
28.328672
20
41.044629
11
74.748756
21
1.587501
0
LINE
8
boundary
62
5
39
2
10
74.748756
20
1.587501
11
178.946592
21
1.587500
0
LINE
8
boundary
62
5
39
2
10
178.946592
20
1.587500
11
289.519229
21
1.587500
0
LINE
8
boundary
62
5
39
2
10
289.519229
20
1.587500
11
289.519229
21
32.379448
0
LINE
8
boundary
62
5
39
2
10
289.519229
20
32.379448
11
289.519229
21
48.535939
0
LINE
8
boundary
62
5
39
2
10
289.519229
20
48.535939
11
152.979070
21
48.785939
0
LINE
8
boundary
62
5
39
2
10
152.979070
20
48.785939
11
152.979071
21
53.685939
0
LINE
8
boundary
62
5
39
2
10
152.979071
20
53.685939
11
289.324229
21
53.685938
0
LINE
8
boundary
62
5
39
2
10
289.324229
20
53.685938
11
289.519229
21
60.884414
0
LINE
8
boundary
62
5
39
2
10
289.519229
20
60.884414
11
311.388886
21
60.884414
0
LINE
8
boundary
62
5
39
2
10
311.388886
20
60.884414
11
379.519204
21
60.884414
0
LINE
8
annotation
62
1
39
211
10
143.817569
20
47.235938
11
143.817569
21
55.235938
0
LINE
8
annotation
62
1
39
211
10
143.817569
20
55.235938
11
142.039067
21
53.456934
0
LINE
8
annotation
62
1
39
211
10
137.328857
20
146.532750
11
133.775865
21
146.532750
0
LINE
8
annotation
62
1
39
211
10
133.775865
20
146.532750
11
137.058946
21
151.818088
0
LINE
8
annotation
62
1
39
211
10
137.058946
20
151.818088
11
137.058946
21
151.818088
0
LINE
8
annotation
62
1
39
211
10
137.058946
20
151.818088
11
137.062871
21
151.822944
0
LINE
8
annotation
62
1
39
211
10
137.062871
20
151.822944
11
137.066634
21
151.827842
0
LINE
8
annotation
62
1
39
211
10
137.066634
20
151.827842
11
137.070262
21
151.832823
0
LINE
8
annotation
62
1
39
211
10
137.070262
20
151.832823
11
137.073778
21
151.837927
0
LINE
8
annotation
62
1
39
211
10
137.073778
20
151.837927
11
137.077207
21
151.843196
0
LINE
8
annotation
62
1
39
211
10
137.077207
20
151.843196
11
137.080574
21
151.848672
0
LINE
8
annotation
62
1
39
211
10
137.080574
20
151.848672
11
137.083905
21
151.854396
0
LINE
8
annotation
62
1
39
211
10
137.083905
20
151.854396
11
137.087222
21
151.860409
0
LINE
8
annotation
62
1
39
211
10
137.087222
20
151.860409
11
137.090553
21
151.866752
0
LINE
8
annotation
62
1
39
211
10
137.090553
20
151.866752
11
137.090553
21
151.866752
0
LINE
8
annotation
62
1
39
211
10
137.090553
20
151.866752
11
137.226110
21
152.157806
0
LINE
8
annotation
62
1
39
211
10
137.226110
20
152.157806
11
137.305301
21
152.459508
0
LINE
8
annotation
62
1
39
211
10
137.305301
20
152.459508
11
137.330065
21
152.765043
0
LINE
8
annotation
62
1
39
211
10
137.330065
20
152.765043
11
137.302343
21
153.067592
0
LINE
8
annotation
62
1
39
211
10
137.302343
20
153.067592
11
137.224076
21
153.360339
0
LINE
8
annotation
62
1
39
211
10
137.224076
20
153.360339
11
137.097205
21
153.636465
0
LINE
8
annotation
62
1
39
211
10
137.097205
20
153.636465
11
136.923670
21
153.889155
0
LINE
8
annotation
62
1
39
211
10
136.923670
20
153.889155
11
136.705412
21
154.111590
0
LINE
8
annotation
62
1
39
211
10
136.705412
20
154.111590
11
136.444372
21
154.296954
0
LINE
8
annotation
62
1
39
211
10
136.444372
20
154.296954
11
136.444372
21
154.296954
0
LINE
8
annotation
62
1
39
211
10
136.444372
20
154.296954
11
136.152509
21
154.430585
0
LINE
8
annotation
62
1
39
211
10
136.152509
20
154.430585
11
135.850343
21
154.508556
0
LINE
8
annotation
62
1
39
211
10
135.850343
20
154.508556
11
135.544631
21
154.532620
0
LINE
8
annotation
62
1
39
211
10
135.544631
20
154.532620
11
135.242128
21
154.504532
0
LINE
8
annotation
62
1
39
211
10
135.242128
20
154.504532
11
134.949587
21
154.426049
0
LINE
8
annotation
62
1
39
211
10
134.949587
20
154.426049
11
134.673766
21
154.298923
0
LINE
8
annotation
62
1
39
211
10
134.673766
20
154.298923
11
134.421419
21
154.124912
0
LINE
8
annotation
62
1
39
211
10
134.421419
20
154.124912
11
134.199302
21
153.905768
0
LINE
8
annotation
62
1
39
211
10
134.199302
20
153.905768
11
134.014170
21
153.643248
0
LINE
8
annotation
62
1
39
211
10
134.014170
20
153.643248
11
133.780882
21
153.195737
0
LINE
8
annotation
62
1
39
211
10
133.775866
20
245.829942
11
135.552361
21
245.829942
0
LINE
8
annotation
62
1
39
211
10
135.552361
20
245.829942
11
135.552361
21
245.829942
0
LINE
8
annotation
62
1
39
211
10
135.552361
20
245.829942
11
135.871868
21
245.858604
0
LINE
8
annotation
62
1
39
211
10
135.871868
20
245.858604
11
136.172513
21
245.941209
0
LINE
8
annotation
62
1
39
211
10
136.172513
20
245.941209
11
136.449296
21
246.072687
0
LINE
8
annotation
62
1
39
211
10
136.449296
20
246.072687
11
136.697215
21
246.247967
0
LINE
8
annotation
62
1
39
211
10
136.697215
20
246.247967
11
136.911272
21
246.461979
0
LINE
8
annotation
62
1
39
211
10
136.911272
20
246.461979
11
137.086465
21
246.709652
0
LINE
8
annotation
62
1
39
211
10
137.086465
20
246.709652
11
137.217793
21
246.985915
0
LINE
8
annotation
62
1
39
211
10
137.217793
20
246.985915
11
137.300258
21
247.285697
0
LINE
8
annotation
62
1
39
211
10
137.300258
20
247.285697
11
137.328857
21
247.603929
0
LINE
8
annotation
62
1
39
211
10
137.328857
20
247.603929
11
137.328857
21
248.493431
0
LINE
8
annotation
62
1
39
211
10
137.328857
20
248.493431
11
137.328857
21
248.493431
0
LINE
8
annotation
62
1
39
211
10
137.328857
20
248.493431
11
137.300258
21
248.811531
0
LINE
8
annotation
62
1
39
211
10
137.300258
20
248.811531
11
137.217793
21
249.111243
0
LINE
8
annotation
62
1
39
211
10
137.217793
20
249.111243
11
137.086465
21
249.387486
0
LINE
8
annotation
62
1
39
211
10
137.086465
20
249.387486
11
136.911272
21
249.635175
0
LINE
8
annotation
62
1
39
211
10
136.911272
20
249.635175
11
136.697215
21
249.849228
0
LINE
8
annotation
62
1
39
211
10
136.697215
20
249.849228
11
136.449296
21
250.024562
0
LINE
8
annotation
62
1
39
211
10
136.449296
20
250.024562
11
136.172513
21
250.156093
0
LINE
8
annotation
62
1
39
211
10
136.172513
20
250.156093
11
135.871868
21
250.238740
0
LINE
8
annotation
62
1
39
211
10
135.871868
20
250.238740
11
135.552361
21
250.267418
0
LINE
8
annotation
62
1
39
211
10
135.552361
20
250.267418
11
134.662859
21
250.267418
0
LINE
8
annotation
62
1
39
211
10
134.662859
20
250.267418
11
135.552361
21
250.267418
0
LINE
8
annotation
62
1
39
211
10
135.552361
20
250.267418
11
135.552361
21
250.267418
0
LINE
8
annotation
62
1
39
211
10
135.552361
20
250.267418
11
135.871868
21
250.296104
0
LINE
8
annotation
62
1
39
211
10
135.871868
20
250.296104
11
136.172513
21
250.378798
0
LINE
8
annotation
62
1
39
211
10
136.172513
20
250.378798
11
136.449296
21
250.510461
0
LINE
8
annotation
62
1
39
211
10
136.449296
20
250.510461
11
136.697215
21
250.686049
0
LINE
8
annotation
62
1
39
211
10
136.697215
20
250.686049
11
136.911272
21
250.900522
0
LINE
8
annotation
62
1
39
211
10
136.911272
20
250.900522
11
137.086465
21
251.148838
0
LINE
8
annotation
62
1
39
211
10
137.086465
20
251.148838
11
137.217793
21
251.425954
0
LINE
8
annotation
62
1
39
211
10
137.217793
20
251.425954
11
137.300258
21
251.726829
0
LINE
8
annotation
62
1
39
211
10
137.300258
20
251.726829
11
137.328857
21
252.046422
0
LINE
8
annotation
62
1
39
211
10
137.328857
20
252.046422
11
137.328857
21
252.046422
0
LINE
8
annotation
62
1
39
211
10
137.328857
20
252.046422
11
137.300258
21
252.364522
0
LINE
8
annotation
62
1
39
211
10
137.300258
20
252.364522
11
137.217793
21
252.664235
0
LINE
8
annotation
62
1
39
211
10
137.217793
20
252.664235
11
137.086465
21
252.940477
0
LINE
8
annotation
62
1
39
211
10
137.086465
20
252.940477
11
136.911272
21
253.188166
0
LINE
8
annotation
62
1
39
211
10
136.911272
20
253.188166
11
136.697215
21
253.402219
0
LINE
8
annotation
62
1
39
211
10
136.697215
20
253.402219
11
136.449296
21
253.577553
0
LINE
8
annotation
62
1
39
211
10
136.449296
20
253.577553
11
136.172513
21
253.709085
0
LINE
8
annotation
62
1
39
211
10
136.172513
20
253.709085
11
135.871868
21
253.791731
0
LINE
8
annotation
62
1
39
211
10
135.871868
20
253.791731
11
135.552361
21
253.820410
0
LINE
8
annotation
62
1
39
211
10
135.552361
20
253.820410
11
133.775866
21
253.820410
0
LINE
8
annotation
62
1
39
211
10
145.149018
20
346.905070
11
140.707026
21
346.905070
0
LINE
8
annotation
62
1
39
211
10
140.707026
20
346.905070
11
142.481013
21
353.126567
0
LINE
8
annotation
62
1
39
211
10
143.817524
20
345.126567
11
143.817524
21
348.679559
0
LINE
8
annotation
62
1
39
211
10
53.395134
20
184.937658
11
29.574653
21
184.937658
0
LINE
8
annotation
62
1
39
211
10
29.574653
20
184.937658
11
53.395134
21
227.838198
0
LINE
8
annotation
62
1
39
211
10
53.395134
20
227.838198
11
29.574653
21
227.838198
0
LINE
8
annotation
62
1
39
211
10
92.944153
20
206.387928
11
69.486872
21
206.387928
0
LINE
8
annotation
62
1
39
211
10
109.027820
20
184.939003
11
118.554398
21
184.939003
0
LINE
8
annotation
62
1
39
211
10
118.554398
20
184.939003
11
118.554398
21
184.939003
0
LINE
8
annotation
62
1
39
211
10
118.554398
20
184.939003
11
120.267776
21
185.092705
0
LINE
8
annotation
62
1
39
211
10
120.267776
20
185.092705
11
121.880005
21
185.535681
0
LINE
8
annotation
62
1
39
211
10
121.880005
20
185.535681
11
123.364270
21
186.240741
0
LINE
8
annotation
62
1
39
211
10
123.364270
20
186.240741
11
124.693757
21
187.180693
0
LINE
8
annotation
62
1
39
211
10
124.693757
20
187.180693
11
125.841649
21
188.328345
0
LINE
8
annotation
62
1
39
211
10
125.841649
20
188.328345
11
126.781132
21
189.656506
0
LINE
8
annotation
62
1
39
211
10
126.781132
20
189.656506
11
127.485391
21
191.137985
0
LINE
8
annotation
62
1
39
211
10
127.485391
20
191.137985
11
127.927611
21
192.745590
0
LINE
8
annotation
62
1
39
211
10
127.927611
20
192.745590
11
128.080976
21
194.452129
0
LINE
8
annotation
62
1
39
211
10
128.080976
20
194.452129
11
128.080976
21
199.222144
0
LINE
8
annotation
62
1
39
211
10
128.080976
20
199.222144
11
128.080976
21
199.222144
0
LINE
8
annotation
62
1
39
211
10
128.080976
20
199.222144
11
127.927611
21
200.927975
0
LINE
8
annotation
62
1
39
211
10
127.927611
20
200.927975
11
127.485391
21
202.535204
0
LINE
8
annotation
62
1
39
211
10
127.485391
20
202.535204
11
126.781132
21
204.016572
0
LINE
8
annotation
62
1
39
211
10
126.781132
20
204.016572
11
125.841649
21
205.344822
0
LINE
8
annotation
62
1
39
211
10
125.841649
20
205.344822
11
124.693757
21
206.492696
0
LINE
8
annotation
62
1
39
211
10
124.693757
20
206.492696
11
123.364270
21
207.432935
0
LINE
8
annotation
62
1
39
211
10
123.364270
20
207.432935
11
121.880005
21
208.138283
0
LINE
8
annotation
62
1
39
211
10
121.880005
20
208.138283
11
120.267776
21
208.581481
0
LINE
8
annotation
62
1
39
211
10
120.267776
20
208.581481
11
118.554398
21
208.735271
0
LINE
8
annotation
62
1
39
211
10
118.554398
20
208.735271
11
113.784383
21
208.735271
0
LINE
8
annotation
62
1
39
211
10
113.784383
20
208.735271
11
118.554398
21
208.735271
0
LINE
8
annotation
62
1
39
211
10
118.554398
20
208.735271
11
118.554398
21
208.735271
0
LINE
8
annotation
62
1
39
211
10
118.554398
20
208.735271
11
120.267776
21
208.889097
0
LINE
8
annotation
62
1
39
211
10
120.267776
20
208.889097
11
121.880005
21
209.332553
0
LINE
8
annotation
62
1
39
211
10
121.880005
20
209.332553
11
123.364270
21
210.038602
0
LINE
8
annotation
62
1
39
211
10
123.364270
20
210.038602
11
124.693757
21
210.980207
0
LINE
8
annotation
62
1
39
211
10
124.693757
20
210.980207
11
125.841649
21
212.130332
0
LINE
8
annotation
62
1
39
211
10
125.841649
20
212.130332
11
126.781132
21
213.461941
0
LINE
8
annotation
62
1
39
211
10
126.781132
20
213.461941
11
127.485391
21
214.947996
0
LINE
8
annotation
62
1
39
211
10
127.485391
20
214.947996
11
127.927611
21
216.561461
0
LINE
8
annotation
62
1
39
211
10
127.927611
20
216.561461
11
128.080976
21
218.275300
0
LINE
8
annotation
62
1
39
211
10
128.080976
20
218.275300
11
128.080976
21
218.275300
0
LINE
8
annotation
62
1
39
211
10
128.080976
20
218.275300
11
127.927611
21
219.981131
0
LINE
8
annotation
62
1
39
211
10
127.927611
20
219.981131
11
127.485391
21
221.588360
0
LINE
8
annotation
62
1
39
211
10
127.485391
20
221.588360
11
126.781132
21
223.069728
0
LINE
8
annotation
62
1
39
211
10
126.781132
20
223.069728
11
125.841649
21
224.397978
0
LINE
8
annotation
62
1
39
211
10
125.841649
20
224.397978
11
124.693757
21
225.545852
0
LINE
8
annotation
62
1
39
211
10
124.693757
20
225.545852
11
123.364270
21
226.486091
0
LINE
8
annotation
62
1
39
211
10
123.364270
20
226.486091
11
121.880005
21
227.191439
0
LINE
8
annotation
62
1
39
211
10
121.880005
20
227.191439
11
120.267776
21
227.634637
0
LINE
8
annotation
62
1
39
211
10
120.267776
20
227.634637
11
118.554398
21
227.788427
0
LINE
8
annotation
62
1
39
211
10
118.554398
20
227.788427
11
109.027820
21
227.788427
0
LINE
8
boundary
62
5
39
2
10
379.519204
20
461.246920
11
379.519205
21
521.807152
0
LINE
8
boundary
62
5
39
2
10
379.519205
20
521.807152
11
379.519204
21
541.246845
0
LINE
8
boundary
62
5
39
2
10
379.519204
20
541.246845
11
311.388897
21
541.246845
0
LINE
8
boundary
62
5
39
2
10
311.388897
20
541.246845
11
289.519229
21
541.246845
0
LINE
8
boundary
62
5
39
2
10
289.519229
20
541.246845
11
289.519229
21
548.195320
0
LINE
8
boundary
62
5
39
2
10
289.519229
20
548.195320
11
145.603365
21
548.445320
0
LINE
8
boundary
62
5
39
2
10
145.603365
20
548.445320
11
145.603365
21
553.345320
0
LINE
8
boundary
62
5
39
2
10
145.603365
20
553.345320
11
289.324229
21
553.345320
0
LINE
8
boundary
62
5
39
2
10
289.324229
20
553.345320
11
289.519229
21
631.022801
0
LINE
8
boundary
62
5
39
2
10
289.519229
20
631.022801
11
289.519229
21
647.492197
0
LINE
8
boundary
62
5
39
2
10
289.519229
20
647.492197
11
145.603364
21
647.742197
0
LINE
8
boundary
62
5
39
2
10
145.603364
20
647.742197
11
145.603365
21
652.642196
0
LINE
8
boundary
62
5
39
2
10
145.603365
20
652.642196
11
289.324229
21
652.642197
0
LINE
8
boundary
62
5
39
2
10
289.324229
20
652.642197
11
289.519229
21
659.840672
0
LINE
8
boundary
62
5
39
2
10
289.519229
20
659.840672
11
357.649536
21
659.840672
0
LINE
8
boundary
62
5
39
2
10
357.649536
20
659.840672
11
379.519204
21
659.840672
0
LINE
8
boundary
62
5
39
2
10
379.519204
20
659.840672
11
379.519205
21
720.400906
0
LINE
8
boundary
62
5
39
2
10
379.519205
20
720.400906
11
379.519205
21
739.840598
0
LINE
8
boundary
62
5
39
2
10
379.519205
20
739.840598
11
311.388897
21
739.840598
0
LINE
8
boundary
62
5
39
2
10
311.388897
20
739.840598
11
289.519229
21
739.840598
0
LINE
8
boundary
62
5
39
2
10
289.519229
20
739.840598
11
289.519229
21
746.789073
0
LINE
8
boundary
62
5
39
2
10
289.519229
20
746.789073
11
152.979025
21
747.039073
0
LINE
8
boundary
62
5
39
2
10
152.979025
20
747.039073
11
152.979025
21
751.939073
0
LINE
8
boundary
62
5
39
2
10
152.979025
20
751.939073
11
289.324229
21
751.939073
0
LINE
8
boundary
62
5
39
2
10
289.324229
20
751.939073
11
289.519229
21
768.345560
0
LINE
8
boundary
62
5
39
2
10
289.519229
20
768.345560
11
289.519228
21
799.137511
0
LINE
8
boundary
62
5
39
2
10
289.519228
20
799.137511
11
109.443789
21
799.137511
0
LINE
8
boundary
62
5
39
2
10
109.443789
20
799.137511
11
74.748756
21
799.137511
0
LINE
8
boundary
62
5
39
2
10
74.748756
20
799.137511
11
59.292137
21
785.999385
0
LINE
8
boundary
62
5
39
2
10
59.292137
20
785.999385
11
1.587501
21
736.950452
0
LINE
8
boundary
62
5
39
2
10
1.587501
20
736.950452
11
1.587500
21
550.528042
0
LINE
8
boundary
62
5
39
2
10
1.587500
20
550.528042
11
1.587501
21
464.137162
0
LINE
8
boundary
62
5
39
2
10
1.587501
20
464.137162
11
59.292137
21
415.088152
0
LINE
8
boundary
62
5
39
2
10
59.292137
20
415.088152
11
74.748756
21
401.950006
0
LINE
8
boundary
62
5
39
2
10
74.748756
20
401.950006
11
109.443789
21
401.950005
0
LINE
8
boundary
62
5
39
2
10
109.443789
20
401.950005
11
289.519229
21
401.950006
0
LINE
8
boundary
62
5
39
2
10
289.519229
20
401.950006
11
289.519229
21
448.898444
0
LINE
8
boundary
62
5
39
2
10
289.519229
20
448.898444
11
152.979070
21
449.148444
0
LINE
8
boundary
62
5
39
2
10
152.979070
20
449.148444
11
152.979071
21
454.048444
0
LINE
8
boundary
62
5
39
2
10
152.979071
20
454.048444
11
289.324229
21
454.048444
0
LINE
8
boundary
62
5
39
2
10
289.324229
20
454.048444
11
289.519229
21
461.246919
0
LINE
8
boundary
62
5
39
2
10
289.519229
20
461.246919
11
357.649535
21
461.246920
0
LINE
8
boundary
62
5
39
2
10
357.649535
20
461.246920
11
379.519204
21
461.246920
0
LINE
8
annotation
62
1
39
211
10
143.817569
20
447.598444
11
143.817569
21
455.598444
0
LINE
8
annotation
62
1
39
211
10
143.817569
20
455.598444
11
142.039067
21
453.819440
0
LINE
8
annotation
62
1
39
211
10
137.328857
20
546.895255
11
133.775866
21
546.895255
0
LINE
8
annotation
62
1
39
211
10
133.775866
20
546.895255
11
137.058946
21
552.180593
0
LINE
8
annotation
62
1
39
211
10
137.058946
20
552.180593
11
137.058946
21
552.180593
0
LINE
8
annotation
62
1
39
211
10
137.058946
20
552.180593
11
137.062871
21
552.185450
0
LINE
8
annotation
62
1
39
211
10
137.062871
20
552.185450
11
137.066634
21
552.190348
0
LINE
8
annotation
62
1
39
211
10
137.066634
20
552.190348
11
137.070262
21
552.195328
0
LINE
8
annotation
62
1
39
211
10
137.070262
20
552.195328
11
137.073778
21
552.200433
0
LINE
8
annotation
62
1
39
211
10
137.073778
20
552.200433
11
137.077207
21
552.205702
0
LINE
8
annotation
62
1
39
211
10
137.077207
20
552.205702
11
137.080574
21
552.211178
0
LINE
8
annotation
62
1
39
211
10
137.080574
20
552.211178
11
137.083905
21
552.216902
0
LINE
8
annotation
62
1
39
211
10
137.083905
20
552.216902
11
137.087222
21
552.222914
0
LINE
8
annotation
62
1
39
211
10
137.087222
20
552.222914
11
137.090553
21
552.229258
0
LINE
8
annotation
62
1
39
211
10
137.090553
20
552.229258
11
137.090553
21
552.229258
0
LINE
8
annotation
62
1
39
211
10
137.090553
20
552.229258
11
137.226110
21
552.520311
0
LINE
8
annotation
62
1
39
211
10
137.226110
20
552.520311
11
137.305301
21
552.822014
0
LINE
8
annotation
62
1
39
211
10
137.305301
20
552.822014
11
137.330065
21
553.127549
0
LINE
8
annotation
62
1
39
211
10
137.330065
20
553.127549
11
137.302343
21
553.430098
0
LINE
8
annotation
62
1
39
211
10
137.302343
20
553.430098
11
137.224076
21
553.722844
0
LINE
8
annotation
62
1
39
211
10
137.224076
20
553.722844
11
137.097205
21
553.998971
0
LINE
8
annotation
62
1
39
211
10
137.097205
20
553.998971
11
136.923670
21
554.251661
0
LINE
8
annotation
62
1
39
211
10
136.923670
20
554.251661
11
136.705412
21
554.474096
0
LINE
8
annotation
62
1
39
211
10
136.705412
20
554.474096
11
136.444372
21
554.659459
0
LINE
8
annotation
62
1
39
211
10
136.444372
20
554.659459
11
136.444372
21
554.659459
0
LINE
8
annotation
62
1
39
211
10
136.444372
20
554.659459
11
136.152509
21
554.793091
0
LINE
8
annotation
62
1
39
211
10
136.152509
20
554.793091
11
135.850344
21
554.871061
0
LINE
8
annotation
62
1
39
211
10
135.850344
20
554.871061
11
135.544631
21
554.895125
0
LINE
8
annotation
62
1
39
211
10
135.544631
20
554.895125
11
135.242128
21
554.867038
0
LINE
8
annotation
62
1
39
211
10
135.242128
20
554.867038
11
134.949587
21
554.788554
0
LINE
8
annotation
62
1
39
211
10
134.949587
20
554.788554
11
134.673766
21
554.661429
0
LINE
8
annotation
62
1
39
211
10
134.673766
20
554.661429
11
134.421419
21
554.487417
0
LINE
8
annotation
62
1
39
211
10
134.421419
20
554.487417
11
134.199302
21
554.268274
0
LINE
8
annotation
62
1
39
211
10
134.199302
20
554.268274
11
134.014170
21
554.005753
0
LINE
8
annotation
62
1
39
211
10
134.014170
20
554.005753
11
133.780882
21
553.558243
0
LINE
8
annotation
62
1
39
211
10
133.775865
20
646.192447
11
135.552361
21
646.192447
0
LINE
8
annotation
62
1
39
211
10
135.552361
20
646.192447
11
135.552361
21
646.192447
0
LINE
8
annotation
62
1
39
211
10
135.552361
20
646.192447
11
135.871868
21
646.221109
0
LINE
8
annotation
62
1
39
211
10
135.871868
20
646.221109
11
136.172513
21
646.303715
0
LINE
8
annotation
62
1
39
211
10
136.172513
20
646.303715
11
136.449296
21
646.435193
0
LINE
8
annotation
62
1
39
211
10
136.449296
20
646.435193
11
136.697215
21
646.610473
0
LINE
8
annotation
62
1
39
211
10
136.697215
20
646.610473
11
136.911272
21
646.824485
0
LINE
8
annotation
62
1
39
211
10
136.911272
20
646.824485
11
137.086465
21
647.072157
0
LINE
8
annotation
62
1
39
211
10
137.086465
20
647.072157
11
137.217793
21
647.348420
0
LINE
8
annotation
62
1
39
211
10
137.217793
20
647.348420
11
137.300258
21
647.648203
0
LINE
8
annotation
62
1
39
211
10
137.300258
20
647.648203
11
137.328857
21
647.966435
0
LINE
8
annotation
62
1
39
211
10
137.328857
20
647.966435
11
137.328857
21
648.855937
0
LINE
8
annotation
62
1
39
211
10
137.328857
20
648.855937
11
137.328857
21
648.855937
0
LINE
8
annotation
62
1
39
211
10
137.328857
20
648.855937
11
137.300258
21
649.174036
0
LINE
8
annotation
62
1
39
211
10
137.300258
20
649.174036
11
137.217793
21
649.473749
0
LINE
8
annotation
62
1
39
211
10
137.217793
20
649.473749
11
137.086465
21
649.749991
0
LINE
8
annotation
62
1
39
211
10
137.086465
20
649.749991
11
136.911272
21
649.997680
0
LINE
8
annotation
62
1
39
211
10
136.911272
20
649.997680
11
136.697215
21
650.211733
0
LINE
8
annotation
62
1
39
211
10
136.697215
20
650.211733
11
136.449296
21
650.387067
0
LINE
8
annotation
62
1
39
211
10
136.449296
20
650.387067
11
136.172513
21
650.518599
0
LINE
8
annotation
62
1
39
211
10
136.172513
20
650.518599
11
135.871868
21
650.601246
0
LINE
8
annotation
62
1
39
211
10
135.871868
20
650.601246
11
135.552361
21
650.629924
0
LINE
8
annotation
62
1
39
211
10
135.552361
20
650.629924
11
134.662859
21
650.629924
0
LINE
8
annotation
62
1
39
211
10
134.662859
20
650.629924
11
135.552361
21
650.629924
0
LINE
8
annotation
62
1
39
211
10
135.552361
20
650.629924
11
135.552361
21
650.629924
0
LINE
8
annotation
62
1
39
211
10
135.552361
20
650.629924
11
135.871868
21
650.658609
0
LINE
8
annotation
62
1
39
211
10
135.871868
20
650.658609
11
136.172513
21
650.741304
0
LINE
8
annotation
62
1
39
211
10
136.172513
20
650.741304
11
136.449296
21
650.872966
0
LINE
8
annotation
62
1
39
211
10
136.449296
20
650.872966
11
136.697215
21
651.048555
0
LINE
8
annotation
62
1
39
211
10
136.697215
20
651.048555
11
136.911272
21
651.263028
0
LINE
8
annotation
62
1
39
211
10
136.911272
20
651.263028
11
137.086465
21
651.511343
0
LINE
8
annotation
62
1
39
211
10
137.086465
20
651.511343
11
137.217793
21
651.788460
0
LINE
8
annotation
62
1
39
211
10
137.217793
20
651.788460
11
137.300258
21
652.089335
0
LINE
8
annotation
62
1
39
211
10
137.300258
20
652.089335
11
137.328857
21
652.408928
0
LINE
8
annotation
62
1
39
211
10
137.328857
20
652.408928
11
137.328857
21
652.408928
0
LINE
8
annotation
62
1
39
211
10
137.328857
20
652.408928
11
137.300258
21
652.727028
0
LINE
8
annotation
62
1
39
211
10
137.300258
20
652.727028
11
137.217793
21
653.026740
0
LINE
8
annotation
62
1
39
211
10
137.217793
20
653.026740
11
137.086465
21
653.302983
0
LINE
8
annotation
62
1
39
211
10
137.086465
20
653.302983
11
136.911272
21
653.550672
0
LINE
8
annotation
62
1
39
211
10
136.911272
20
653.550672
11
136.697215
21
653.764725
0
LINE
8
annotation
62
1
39
211
10
136.697215
20
653.764725
11
136.449296
21
653.940059
0
LINE
8
annotation
62
1
39
211
10
136.449296
20
653.940059
11
136.172513
21
654.071590
0
LINE
8
annotation
62
1
39
211
10
136.172513
20
654.071590
11
135.871868
21
654.154237
0
LINE
8
annotation
62
1
39
211
10
135.871868
20
654.154237
11
135.552361
21
654.182915
0
LINE
8
annotation
62
1
39
211
10
135.552361
20
654.182915
11
133.775865
21
654.182915
0
LINE
8
annotation
62
1
39
211
10
145.149018
20
747.267575
11
140.707026
21
747.267575
0
LINE
8
annotation
62
1
39
211
10
140.707026
20
747.267575
11
142.481013
21
753.489073
0
LINE
8
annotation
62
1
39
211
10
143.817524
20
745.489073
11
143.817524
21
749.042064
0
LINE
8
annotation
62
1
39
211
10
51.011471
20
585.300164
11
27.190991
21
585.300164
0
LINE
8
annotation
62
1
39
211
10
27.190991
20
585.300164
11
51.011471
21
628.200704
0
LINE
8
annotation
62
1
39
211
10
51.011471
20
628.200704
11
27.190991
21
628.200704
0
LINE
8
annotation
62
1
39
211
10
90.560491
20
606.750434
11
67.103209
21
606.750434
0
LINE
8
annotation
62
1
39
211
10
130.464639
20
594.837503
11
106.644158
21
594.837503
0
LINE
8
annotation
62
1
39
211
10
106.644158
20
594.837503
11
116.157284
21
628.200704
0
LINE
8
annotation
62
1
39
211
10
123.324413
20
585.300164
11
123.324413
21
604.353320
0
LINE
8
boundary
62
5
39
2
10
285.625275
20
802.312512
11
285.625275
21
833.648881
0
LINE
8
boundary
62
5
39
2
10
285.625275
20
833.648881
11
285.625275
21
849.260950
0
LINE
8
boundary
62
5
39
2
10
285.625275
20
849.260950
11
151.350715
21
849.510950
0
LINE
8
boundary
62
5
39
2
10
151.350715
20
849.510950
11
151.350715
21
854.410949
0
LINE
8
boundary
62
5
39
2
10
151.350715
20
854.410949
11
285.430274
21
854.410950
0
LINE
8
boundary
62
5
39
2
10
285.430274
20
854.410950
11
285.625275
21
856.517491
0
LINE
8
boundary
62
5
39
2
10
285.625275
20
856.517491
11
285.625274
21
915.710891
0
LINE
8
boundary
62
5
39
2
10
285.625274
20
915.710891
11
285.625274
21
948.557826
0
LINE
8
boundary
62
5
39
2
10
285.625274
20
948.557826
11
143.656388
21
948.807826
0
LINE
8
boundary
62
5
39
2
10
143.656388
20
948.807826
11
143.656387
21
953.707826
0
LINE
8
boundary
62
5
39
2
10
143.656387
20
953.707826
11
285.430274
21
953.707826
0
LINE
8
boundary
62
5
39
2
10
285.430274
20
953.707826
11
285.625275
21
1003.460620
0
LINE
8
boundary
62
5
39
2
10
285.625275
20
1003.460620
11
285.625274
21
1047.854702
0
LINE
8
boundary
62
5
39
2
10
285.625274
20
1047.854702
11
143.656387
21
1048.104702
0
LINE
8
boundary
62
5
39
2
10
143.656387
20
1048.104702
11
143.656387
21
1053.004702
0
LINE
8
boundary
62
5
39
2
10
143.656387
20
1053.004702
11
285.430274
21
1053.004702
0
LINE
8
boundary
62
5
39
2
10
285.430274
20
1053.004702
11
285.625275
21
1086.101612
0
LINE
8
boundary
62
5
39
2
10
285.625275
20
1086.101612
11
285.625274
21
1145.295012
0
LINE
8
boundary
62
5
39
2
10
285.625274
20
1145.295012
11
285.625274
21
1147.151579
0
LINE
8
boundary
62
5
39
2
10
285.625274
20
1147.151579
11
151.350767
21
1147.401578
0
LINE
8
boundary
62
5
39
2
10
151.350767
20
1147.401578
11
151.350767
21
1152.301579
0
LINE
8
boundary
62
5
39
2
10
151.350767
20
1152.301579
11
285.430274
21
1152.301578
0
LINE
8
boundary
62
5
39
2
10
285.430274
20
1152.301578
11
285.625274
21
1168.163646
0
LINE
8
boundary
62
5
39
2
10
285.625274
20
1168.163646
11
285.625275
21
1188.063008
0
LINE
8
boundary
62
5
39
2
10
285.625275
20
1188.063008
11
285.625275
21
1199.500017
0
LINE
8
boundary
62
5
39
2
10
285.625275
20
1199.500017
11
169.377702
21
1199.500017
0
LINE
8
boundary
62
5
39
2
10
169.377702
20
1199.500017
11
85.155923
21
1199.500017
0
LINE
8
boundary
62
5
39
2
10
85.155923
20
1199.500017
11
16.897241
21
1148.781515
0
LINE
8
boundary
62
5
39
2
10
16.897241
20
1148.781515
11
7.810798
21
1142.029965
0
LINE
8
boundary
62
5
39
2
10
7.810798
20
1142.029965
11
1.587501
21
1137.405854
0
LINE
8
boundary
62
5
39
2
10
1.587501
20
1137.405854
11
1.587500
21
1102.906438
0
LINE
8
boundary
62
5
39
2
10
1.587500
20
1102.906438
11
1.587500
21
864.406577
0
LINE
8
boundary
62
5
39
2
10
1.587500
20
864.406577
11
7.810797
21
859.782477
0
LINE
8
boundary
62
5
39
2
10
7.810797
20
859.782477
11
16.897241
21
853.030934
0
LINE
8
boundary
62
5
39
2
10
16.897241
20
853.030934
11
85.155923
21
802.312512
0
LINE
8
boundary
62
5
39
2
10
85.155923
20
802.312512
11
169.377702
21
802.312512
0
LINE
8
boundary
62
5
39
2
10
169.377702
20
802.312512
11
285.625275
21
802.312512
0
LINE
8
annotation
62
1
39
211
10
142.189214
20
847.960950
11
142.189214
21
855.960950
0
LINE
8
annotation
62
1
39
211
10
142.189214
20
855.960950
11
140.410711
21
854.181945
0
LINE
8
annotation
62
1
39
211
10
135.381880
20
947.257761
11
131.828888
21
947.257761
0
LINE
8
annotation
62
1
39
211
10
131.828888
20
947.257761
11
135.111969
21
952.543099
0
LINE
8
annotation
62
1
39
211
10
135.111969
20
952.543099
11
135.111969
21
952.543099
0
LINE
8
annotation
62
1
39
211
10
135.111969
20
952.543099
11
135.115893
21
952.547955
0
LINE
8
annotation
62
1
39
211
10
135.115893
20
952.547955
11
135.119657
21
952.552853
0
LINE
8
annotation
62
1
39
211
10
135.119657
20
952.552853
11
135.123285
21
952.557834
0
LINE
8
annotation
62
1
39
211
10
135.123285
20
952.557834
11
135.126801
21
952.562938
0
LINE
8
annotation
62
1
39
211
10
135.126801
20
952.562938
11
135.130230
21
952.568208
0
LINE
8
annotation
62
1
39
211
10
135.130230
20
952.568208
11
135.133597
21
952.573684
0
LINE
8
annotation
62
1
39
211
10
135.133597
20
952.573684
11
135.136927
21
952.579407
0
LINE
8
annotation
62
1
39
211
10
135.136927
20
952.579407
11
135.140245
21
952.585420
0
LINE
8
annotation
62
1
39
211
10
135.140245
20
952.585420
11
135.143575
21
952.591763
0
LINE
8
annotation
62
1
39
211
10
135.143575
20
952.591763
11
135.143575
21
952.591763
0
LINE
8
annotation
62
1
39
211
10
135.143575
20
952.591763
11
135.279133
21
952.882817
0
LINE
8
annotation
62
1
39
211
10
135.279133
20
952.882817
11
135.358323
21
953.184520
0
LINE
8
annotation
62
1
39
211
10
135.358323
20
953.184520
11
135.383087
21
953.490054
0
LINE
8
annotation
62
1
39
211
10
135.383087
20
953.490054
11
135.355366
21
953.792603
0
LINE
8
annotation
62
1
39
211
10
135.355366
20
953.792603
11
135.277099
21
954.085350
0
LINE
8
annotation
62
1
39
211
10
135.277099
20
954.085350
11
135.150227
21
954.361477
0
LINE
8
annotation
62
1
39
211
10
135.150227
20
954.361477
11
134.976692
21
954.614166
0
LINE
8
annotation
62
1
39
211
10
134.976692
20
954.614166
11
134.758435
21
954.836601
0
LINE
8
annotation
62
1
39
211
10
134.758435
20
954.836601
11
134.497394
21
955.021965
0
LINE
8
annotation
62
1
39
211
10
134.497394
20
955.021965
11
134.497394
21
955.021965
0
LINE
8
annotation
62
1
39
211
10
134.497394
20
955.021965
11
134.205531
21
955.155596
0
LINE
8
annotation
62
1
39
211
10
134.205531
20
955.155596
11
133.903366
21
955.233567
0
LINE
8
annotation
62
1
39
211
10
133.903366
20
955.233567
11
133.597654
21
955.257631
0
LINE
8
annotation
62
1
39
211
10
133.597654
20
955.257631
11
133.295150
21
955.229544
0
LINE
8
annotation
62
1
39
211
10
133.295150
20
955.229544
11
133.002610
21
955.151060
0
LINE
8
annotation
62
1
39
211
10
133.002610
20
955.151060
11
132.726789
21
955.023935
0
LINE
8
annotation
62
1
39
211
10
132.726789
20
955.023935
11
132.474442
21
954.849923
0
LINE
8
annotation
62
1
39
211
10
132.474442
20
954.849923
11
132.252325
21
954.630779
0
LINE
8
annotation
62
1
39
211
10
132.252325
20
954.630779
11
132.067192
21
954.368259
0
LINE
8
annotation
62
1
39
211
10
132.067192
20
954.368259
11
131.833905
21
953.920748
0
LINE
8
annotation
62
1
39
211
10
131.828888
20
1046.554953
11
133.605384
21
1046.554953
0
LINE
8
annotation
62
1
39
211
10
133.605384
20
1046.554953
11
133.605384
21
1046.554953
0
LINE
8
annotation
62
1
39
211
10
133.605384
20
1046.554953
11
133.924891
21
1046.583615
0
LINE
8
annotation
62
1
39
211
10
133.924891
20
1046.583615
11
134.225536
21
1046.666220
0
LINE
8
annotation
62
1
39
211
10
134.225536
20
1046.666220
11
134.502318
21
1046.797698
0
LINE
8
annotation
62
1
39
211
10
134.502318
20
1046.797698
11
134.750238
21
1046.972978
0
LINE
8
annotation
62
1
39
211
10
134.750238
20
1046.972978
11
134.964295
21
1047.186990
0
LINE
8
annotation
62
1
39
211
10
134.964295
20
1047.186990
11
135.139487
21
1047.434663
0
LINE
8
annotation
62
1
39
211
10
135.139487
20
1047.434663
11
135.270816
21
1047.710926
0
LINE
8
annotation
62
1
39
211
10
135.270816
20
1047.710926
11
135.353280
21
1048.010708
0
LINE
8
annotation
62
1
39
211
10
135.353280
20
1048.010708
11
135.381880
21
1048.328940
0
LINE
8
annotation
62
1
39
211
10
135.381880
20
1048.328940
11
135.381880
21
1049.218442
0
LINE
8
annotation
62
1
39
211
10
135.381880
20
1049.218442
11
135.381880
21
1049.218442
0
LINE
8
annotation
62
1
39
211
10
135.381880
20
1049.218442
11
135.353280
21
1049.536542
0
LINE
8
annotation
62
1
39
211
10
135.353280
20
1049.536542
11
135.270816
21
1049.836254
0
LINE
8
annotation
62
1
39
211
10
135.270816
20
1049.836254
11
135.139487
21
1050.112497
0
LINE
8
annotation
62
1
39
211
10
135.139487
20
1050.112497
11
134.964295
21
1050.360186
0
LINE
8
annotation
62
1
39
211
10
134.964295
20
1050.360186
11
134.750238
21
1050.574239
0
LINE
8
annotation
62
1
39
211
10
134.750238
20
1050.574239
11
134.502318
21
1050.749573
0
LINE
8
annotation
62
1
39
211
10
134.502318
20
1050.749573
11
134.225536
21
1050.881105
0
LINE
8
annotation
62
1
39
211
10
134.225536
20
1050.881105
11
133.924891
21
1050.963751
0
LINE
8
annotation
62
1
39
211
10
133.924891
20
1050.963751
11
133.605384
21
1050.992430
0
LINE
8
annotation
62
1
39
211
10
133.605384
20
1050.992430
11
132.715882
21
1050.992430
0
LINE
8
annotation
62
1
39
211
10
132.715882
20
1050.992430
11
133.605384
21
1050.992430
0
LINE
8
annotation
62
1
39
211
10
133.605384
20
1050.992430
11
133.605384
21
1050.992430
0
LINE
8
annotation
62
1
39
211
10
133.605384
20
1050.992430
11
133.924891
21
1051.021115
0
LINE
8
annotation
62
1
39
211
10
133.924891
20
1051.021115
11
134.225536
21
1051.103810
0
LINE
8
annotation
62
1
39
211
10
134.225536
20
1051.103810
11
134.502318
21
1051.235472
0
LINE
8
annotation
62
1
39
211
10
134.502318
20
1051.235472
11
134.750238
21
1051.411061
0
LINE
8
annotation
62
1
39
211
10
134.750238
20
1051.411061
11
134.964295
21
1051.625533
0
LINE
8
annotation
62
1
39
211
10
134.964295
20
1051.625533
11
135.139487
21
1051.873849
0
LINE
8
annotation
62
1
39
211
10
135.139487
20
1051.873849
11
135.270816
21
1052.150965
0
LINE
8
annotation
62
1
39
211
10
135.270816
20
1052.150965
11
135.353280
21
1052.451841
0
LINE
8
annotation
62
1
39
211
10
135.353280
20
1052.451841
11
135.381880
21
1052.771434
0
LINE
8
annotation
62
1
39
211
10
135.381880
20
1052.771434
11
135.381880
21
1052.771434
0
LINE
8
annotation
62
1
39
211
10
135.381880
20
1052.771434
11
135.353280
21
1053.089533
0
LINE
8
annotation
62
1
39
211
10
135.353280
20
1053.089533
11
135.270816
21
1053.389246
0
LINE
8
annotation
62
1
39
211
10
135.270816
20
1053.389246
11
135.139487
21
1053.665488
0
LINE
8
annotation
62
1
39
211
10
135.139487
20
1053.665488
11
134.964295
21
1053.913177
0
LINE
8
annotation
62
1
39
211
10
134.964295
20
1053.913177
11
134.750238
21
1054.127230
0
LINE
8
annotation
62
1
39
211
10
134.750238
20
1054.127230
11
134.502318
21
1054.302564
0
LINE
8
annotation
62
1
39
211
10
134.502318
20
1054.302564
11
134.225536
21
1054.434096
0
LINE
8
annotation
62
1
39
211
10
134.225536
20
1054.434096
11
133.924891
21
1054.516742
0
LINE
8
annotation
62
1
39
211
10
133.924891
20
1054.516742
11
133.605384
21
1054.545421
0
LINE
8
annotation
62
1
39
211
10
133.605384
20
1054.545421
11
131.828888
21
1054.545421
0
LINE
8
annotation
62
1
39
211
10
143.520760
20
1147.630081
11
139.078768
21
1147.630081
0
LINE
8
annotation
62
1
39
211
10
139.078768
20
1147.630081
11
140.852755
21
1153.851578
0
LINE
8
annotation
62
1
39
211
10
142.189266
20
1145.851578
11
142.189266
21
1149.404570
0
LINE
8
annotation
62
1
39
211
10
56.101572
20
973.249319
11
32.281091
21
973.249319
0
LINE
8
annotation
62
1
39
211
10
32.281091
20
973.249319
11
56.101572
21
1016.149859
0
LINE
8
annotation
62
1
39
211
10
56.101572
20
1016.149859
11
32.281091
21
1016.149859
0
LINE
8
annotation
62
1
39
211
10
95.650591
20
994.699589
11
72.193310
21
994.699589
0
LINE
8
annotation
62
1
39
211
10
111.734258
20
973.249319
11
121.260836
21
973.249319
0
LINE
8
annotation
62
1
39
211
10
121.260836
20
973.249319
11
121.260836
21
973.249319
0
LINE
8
annotation
62
1
39
211
10
121.260836
20
973.249319
11
122.970671
21
973.403053
0
LINE
8
annotation
62
1
39
211
10
122.970671
20
973.403053
11
124.581018
21
973.846262
0
LINE
8
annotation
62
1
39
211
10
124.581018
20
973.846262
11
126.064730
21
974.551953
0
LINE
8
annotation
62
1
39
211
10
126.064730
20
974.551953
11
127.394659
21
975.493134
0
LINE
8
annotation
62
1
39
211
10
127.394659
20
975.493134
11
128.543658
21
976.642812
0
LINE
8
annotation
62
1
39
211
10
128.543658
20
976.642812
11
129.484581
21
977.973996
0
LINE
8
annotation
62
1
39
211
10
129.484581
20
977.973996
11
130.190279
21
979.459693
0
LINE
8
annotation
62
1
39
211
10
130.190279
20
979.459693
11
130.633606
21
981.072911
0
LINE
8
annotation
62
1
39
211
10
130.633606
20
981.072911
11
130.787414
21
982.786658
0
LINE
8
annotation
62
1
39
211
10
130.787414
20
982.786658
11
130.787414
21
987.532460
0
LINE
8
annotation
62
1
39
211
10
130.787414
20
987.532460
11
130.787414
21
987.532460
0
LINE
8
annotation
62
1
39
211
10
130.787414
20
987.532460
11
130.633695
21
989.245376
0
LINE
8
annotation
62
1
39
211
10
130.633695
20
989.245376
11
130.190589
21
990.856369
0
LINE
8
annotation
62
1
39
211
10
130.190589
20
990.856369
11
129.485179
21
992.338844
0
LINE
8
annotation
62
1
39
211
10
129.485179
20
992.338844
11
128.544544
21
993.666209
0
LINE
8
annotation
62
1
39
211
10
128.544544
20
993.666209
11
127.395766
21
994.811868
0
LINE
8
annotation
62
1
39
211
10
127.395766
20
994.811868
11
126.065926
21
995.749229
0
LINE
8
annotation
62
1
39
211
10
126.065926
20
995.749229
11
124.582103
21
996.451698
0
LINE
8
annotation
62
1
39
211
10
124.582103
20
996.451698
11
122.971380
21
996.892682
0
LINE
8
annotation
62
1
39
211
10
122.971380
20
996.892682
11
121.260836
21
997.045586
0
LINE
8
annotation
62
1
39
211
10
121.260836
20
997.045586
11
111.734258
21
997.045586
0
LINE
8
annotation
62
1
39
211
10
111.734258
20
997.045586
11
111.734258
21
1016.149859
0
LINE
8
annotation
62
1
39
211
10
111.734258
20
1016.149859
11
130.787414
21
1016.149859
0
LINE
8
boundary
62
5
39
2
10
285.625238
20
1234.011380
11
285.625237
21
1249.623455
0
LINE
8
boundary
62
5
39
2
10
285.625237
20
1249.623455
11
150.831593
21
1249.873455
0
LINE
8
boundary
62
5
39
2
10
150.831593
20
1249.873455
11
150.831594
21
1254.773456
0
LINE
8
boundary
62
5
39
2
10
150.831594
20
1254.773456
11
285.430238
21
1254.773456
0
LINE
8
boundary
62
5
39
2
10
285.430238
20
1254.773456
11
285.625238
21
1256.879994
0
LINE
8
boundary
62
5
39
2
10
285.625238
20
1256.879994
11
285.625238
21
1316.073388
0
LINE
8
boundary
62
5
39
2
10
285.625238
20
1316.073388
11
285.625237
21
1348.920332
0
LINE
8
boundary
62
5
39
2
10
285.625237
20
1348.920332
11
143.656369
21
1349.170332
0
LINE
8
boundary
62
5
39
2
10
143.656369
20
1349.170332
11
143.656369
21
1354.070332
0
LINE
8
boundary
62
5
39
2
10
143.656369
20
1354.070332
11
285.430237
21
1354.070332
0
LINE
8
boundary
62
5
39
2
10
285.430237
20
1354.070332
11
285.625237
21
1403.823108
0
LINE
8
boundary
62
5
39
2
10
285.625237
20
1403.823108
11
285.625237
21
1448.217208
0
LINE
8
boundary
62
5
39
2
10
285.625237
20
1448.217208
11
143.656369
21
1448.467208
0
LINE
8
boundary
62
5
39
2
10
143.656369
20
1448.467208
11
143.656369
21
1453.367208
0
LINE
8
boundary
62
5
39
2
10
143.656369
20
1453.367208
11
285.430237
21
1453.367208
0
LINE
8
boundary
62
5
39
2
10
285.430237
20
1453.367208
11
285.625238
21
1486.464127
0
LINE
8
boundary
62
5
39
2
10
285.625238
20
1486.464127
11
285.625238
21
1545.657519
0
LINE
8
boundary
62
5
39
2
10
285.625238
20
1545.657519
11
285.625238
21
1547.514084
0
LINE
8
boundary
62
5
39
2
10
285.625238
20
1547.514084
11
150.831593
21
1547.764084
0
LINE
8
boundary
62
5
39
2
10
150.831593
20
1547.764084
11
150.831593
21
1552.664084
0
LINE
8
boundary
62
5
39
2
10
150.831593
20
1552.664084
11
285.430238
21
1552.664085
0
LINE
8
boundary
62
5
39
2
10
285.430238
20
1552.664085
11
285.625237
21
1568.526160
0
LINE
8
boundary
62
5
39
2
10
285.625237
20
1568.526160
11
285.625237
21
1599.862522
0
LINE
8
boundary
62
5
39
2
10
285.625237
20
1599.862522
11
244.555405
21
1599.862523
0
LINE
8
boundary
62
5
39
2
10
244.555405
20
1599.862523
11
165.372214
21
1599.862522
0
LINE
8
boundary
62
5
39
2
10
165.372214
20
1599.862522
11
84.117510
21
1599.862523
0
LINE
8
boundary
62
5
39
2
10
84.117510
20
1599.862523
11
13.608917
21
1547.472179
0
LINE
8
boundary
62
5
39
2
10
13.608917
20
1547.472179
11
3.417427
21
1539.899547
0
LINE
8
boundary
62
5
39
2
10
3.417427
20
1539.899547
11
1.587501
21
1538.539848
0
LINE
8
boundary
62
5
39
2
10
1.587501
20
1538.539848
11
1.587500
21
1521.260778
0
LINE
8
boundary
62
5
39
2
10
1.587500
20
1521.260778
11
1.587501
21
1263.997692
0
LINE
8
boundary
62
5
39
2
10
1.587501
20
1263.997692
11
3.417426
21
1262.637986
0
LINE
8
boundary
62
5
39
2
10
3.417426
20
1262.637986
11
13.608918
21
1255.065361
0
LINE
8
boundary
62
5
39
2
10
13.608918
20
1255.065361
11
84.117510
21
1202.675017
0
LINE
8
boundary
62
5
39
2
10
84.117510
20
1202.675017
11
165.372214
21
1202.675018
0
LINE
8
boundary
62
5
39
2
10
165.372214
20
1202.675018
11
244.555405
21
1202.675017
0
LINE
8
boundary
62
5
39
2
10
244.555405
20
1202.675017
11
285.625238
21
1202.675017
0
LINE
8
boundary
62
5
39
2
10
285.625238
20
1202.675017
11
285.625237
21
1214.112026
0
LINE
8
boundary
62
5
39
2
10
285.625237
20
1214.112026
11
285.625238
21
1234.011380
0
LINE
8
annotation
62
1
39
211
10
141.670092
20
1248.323455
11
141.670092
21
1256.323455
0
LINE
8
annotation
62
1
39
211
10
141.670092
20
1256.323455
11
139.891590
21
1254.544451
0
LINE
8
annotation
62
1
39
211
10
135.381861
20
1347.620267
11
131.828870
21
1347.620267
0
LINE
8
annotation
62
1
39
211
10
131.828870
20
1347.620267
11
135.111950
21
1352.905605
0
LINE
8
annotation
62
1
39
211
10
135.111950
20
1352.905605
11
135.111950
21
1352.905605
0
LINE
8
annotation
62
1
39
211
10
135.111950
20
1352.905605
11
135.115875
21
1352.910461
0
LINE
8
annotation
62
1
39
211
10
135.115875
20
1352.910461
11
135.119639
21
1352.915359
0
LINE
8
annotation
62
1
39
211
10
135.119639
20
1352.915359
11
135.123266
21
1352.920340
0
LINE
8
annotation
62
1
39
211
10
135.123266
20
1352.920340
11
135.126782
21
1352.925444
0
LINE
8
annotation
62
1
39
211
10
135.126782
20
1352.925444
11
135.130211
21
1352.930713
0
LINE
8
annotation
62
1
39
211
10
135.130211
20
1352.930713
11
135.133579
21
1352.936189
0
LINE
8
annotation
62
1
39
211
10
135.133579
20
1352.936189
11
135.136909
21
1352.941913
0
LINE
8
annotation
62
1
39
211
10
135.136909
20
1352.941913
11
135.140227
21
1352.947926
0
LINE
8
annotation
62
1
39
211
10
135.140227
20
1352.947926
11
135.143557
21
1352.954269
0
LINE
8
annotation
62
1
39
211
10
135.143557
20
1352.954269
11
135.143557
21
1352.954269
0
LINE
8
annotation
62
1
39
211
10
135.143557
20
1352.954269
11
135.279115
21
1353.245323
0
LINE
8
annotation
62
1
39
211
10
135.279115
20
1353.245323
11
135.358305
21
1353.547025
0
LINE
8
annotation
62
1
39
211
10
135.358305
20
1353.547025
11
135.383069
21
1353.852560
0
LINE
8
annotation
62
1
39
211
10
135.383069
20
1353.852560
11
135.355347
21
1354.155109
0
LINE
8
annotation
62
1
39
211
10
135.355347
20
1354.155109
11
135.277080
21
1354.447856
0
LINE
8
annotation
62
1
39
211
10
135.277080
20
1354.447856
11
135.150209
21
1354.723982
0
LINE
8
annotation
62
1
39
211
10
135.150209
20
1354.723982
11
134.976674
21
1354.976672
0
LINE
8
annotation
62
1
39
211
10
134.976674
20
1354.976672
11
134.758416
21
1355.199107
0
LINE
8
annotation
62
1
39
211
10
134.758416
20
1355.199107
11
134.497376
21
1355.384471
0
LINE
8
annotation
62
1
39
211
10
134.497376
20
1355.384471
11
134.497376
21
1355.384471
0
LINE
8
annotation
62
1
39
211
10
134.497376
20
1355.384471
11
134.205513
21
1355.518102
0
LINE
8
annotation
62
1
39
211
10
134.205513
20
1355.518102
11
133.903348
21
1355.596073
0
LINE
8
annotation
62
1
39
211
10
133.903348
20
1355.596073
11
133.597636
21
1355.620137
0
LINE
8
annotation
62
1
39
211
10
133.597636
20
1355.620137
11
133.295132
21
1355.592049
0
LINE
8
annotation
62
1
39
211
10
133.295132
20
1355.592049
11
133.002592
21
1355.513566
0
LINE
8
annotation
62
1
39
211
10
133.002592
20
1355.513566
11
132.726771
21
1355.386440
0
LINE
8
annotation
62
1
39
211
10
132.726771
20
1355.386440
11
132.474424
21
1355.212429
0
LINE
8
annotation
62
1
39
211
10
132.474424
20
1355.212429
11
132.252306
21
1354.993285
0
LINE
8
annotation
62
1
39
211
10
132.252306
20
1354.993285
11
132.067174
21
1354.730765
0
LINE
8
annotation
62
1
39
211
10
132.067174
20
1354.730765
11
131.833887
21
1354.283254
0
LINE
8
annotation
62
1
39
211
10
131.828870
20
1446.917459
11
133.605365
21
1446.917459
0
LINE
8
annotation
62
1
39
211
10
133.605365
20
1446.917459
11
133.605365
21
1446.917459
0
LINE
8
annotation
62
1
39
211
10
133.605365
20
1446.917459
11
133.924872
21
1446.946121
0
LINE
8
annotation
62
1
39
211
10
133.924872
20
1446.946121
11
134.225517
21
1447.028726
0
LINE
8
annotation
62
1
39
211
10
134.225517
20
1447.028726
11
134.502300
21
1447.160204
0
LINE
8
annotation
62
1
39
211
10
134.502300
20
1447.160204
11
134.750220
21
1447.335484
0
LINE
8
annotation
62
1
39
211
10
134.750220
20
1447.335484
11
134.964276
21
1447.549496
0
LINE
8
annotation
62
1
39
211
10
134.964276
20
1447.549496
11
135.139469
21
1447.797169
0
LINE
8
annotation
62
1
39
211
10
135.139469
20
1447.797169
11
135.270798
21
1448.073432
0
LINE
8
annotation
62
1
39
211
10
135.270798
20
1448.073432
11
135.353262
21
1448.373214
0
LINE
8
annotation
62
1
39
211
10
135.353262
20
1448.373214
11
135.381861
21
1448.691446
0
LINE
8
annotation
62
1
39
211
10
135.381861
20
1448.691446
11
135.381861
21
1449.580948
0
LINE
8
annotation
62
1
39
211
10
135.381861
20
1449.580948
11
135.381861
21
1449.580948
0
LINE
8
annotation
62
1
39
211
10
135.381861
20
1449.580948
11
135.353262
21
1449.899048
0
LINE
8
annotation
62
1
39
211
10
135.353262
20
1449.899048
11
135.270798
21
1450.198760
0
LINE
8
annotation
62
1
39
211
10
135.270798
20
1450.198760
11
135.139469
21
1450.475003
0
LINE
8
annotation
62
1
39
211
10
135.139469
20
1450.475003
11
134.964276
21
1450.722692
0
LINE
8
annotation
62
1
39
211
10
134.964276
20
1450.722692
11
134.750220
21
1450.936745
0
LINE
8
annotation
62
1
39
211
10
134.750220
20
1450.936745
11
134.502300
21
1451.112079
0
LINE
8
annotation
62
1
39
211
10
134.502300
20
1451.112079
11
134.225517
21
1451.243610
0
LINE
8
annotation
62
1
39
211
10
134.225517
20
1451.243610
11
133.924872
21
1451.326257
0
LINE
8
annotation
62
1
39
211
10
133.924872
20
1451.326257
11
133.605365
21
1451.354935
0
LINE
8
annotation
62
1
39
211
10
133.605365
20
1451.354935
11
132.715863
21
1451.354935
0
LINE
8
annotation
62
1
39
211
10
132.715863
20
1451.354935
11
133.605365
21
1451.354935
0
LINE
8
annotation
62
1
39
211
10
133.605365
20
1451.354935
11
133.605365
21
1451.354935
0
LINE
8
annotation
62
1
39
211
10
133.605365
20
1451.354935
11
133.924872
21
1451.383621
0
LINE
8
annotation
62
1
39
211
10
133.924872
20
1451.383621
11
134.225517
21
1451.466315
0
LINE
8
annotation
62
1
39
211
10
134.225517
20
1451.466315
11
134.502300
21
1451.597978
0
LINE
8
annotation
62
1
39
211
10
134.502300
20
1451.597978
11
134.750220
21
1451.773566
0
LINE
8
annotation
62
1
39
211
10
134.750220
20
1451.773566
11
134.964276
21
1451.988039
0
LINE
8
annotation
62
1
39
211
10
134.964276
20
1451.988039
11
135.139469
21
1452.236355
0
LINE
8
annotation
62
1
39
211
10
135.139469
20
1452.236355
11
135.270798
21
1452.513471
0
LINE
8
annotation
62
1
39
211
10
135.270798
20
1452.513471
11
135.353262
21
1452.814346
0
LINE
8
annotation
62
1
39
211
10
135.353262
20
1452.814346
11
135.381861
21
1453.133939
0
LINE
8
annotation
62
1
39
211
10
135.381861
20
1453.133939
11
135.381861
21
1453.133939
0
LINE
8
annotation
62
1
39
211
10
135.381861
20
1453.133939
11
135.353262
21
1453.452039
0
LINE
8
annotation
62
1
39
211
10
135.353262
20
1453.452039
11
135.270798
21
1453.751752
0
LINE
8
annotation
62
1
39
211
10
135.270798
20
1453.751752
11
135.139469
21
1454.027994
0
LINE
8
annotation
62
1
39
211
10
135.139469
20
1454.027994
11
134.964276
21
1454.275683
0
LINE
8
annotation
62
1
39
211
10
134.964276
20
1454.275683
11
134.750220
21
1454.489736
0
LINE
8
annotation
62
1
39
211
10
134.750220
20
1454.489736
11
134.502300
21
1454.665070
0
LINE
8
annotation
62
1
39
211
10
134.502300
20
1454.665070
11
134.225517
21
1454.796602
0
LINE
8
annotation
62
1
39
211
10
134.225517
20
1454.796602
11
133.924872
21
1454.879248
0
LINE
8
annotation
62
1
39
211
10
133.924872
20
1454.879248
11
133.605365
21
1454.907927
0
LINE
8
annotation
62
1
39
211
10
133.605365
20
1454.907927
11
131.828870
21
1454.907927
0
LINE
8
annotation
62
1
39
211
10
143.001586
20
1547.992587
11
138.559594
21
1547.992587
0
LINE
8
annotation
62
1
39
211
10
138.559594
20
1547.992587
11
140.333581
21
1554.214084
0
LINE
8
annotation
62
1
39
211
10
141.670092
20
1546.214084
11
141.670092
21
1549.767076
0
LINE
8
annotation
62
1
39
211
10
56.098315
20
1386.025175
11
32.277834
21
1386.025175
0
LINE
8
annotation
62
1
39
211
10
32.277834
20
1386.025175
11
56.098315
21
1428.925715
0
LINE
8
annotation
62
1
39
211
10
56.098315
20
1428.925715
11
32.277834
21
1428.925715
0
LINE
8
annotation
62
1
39
211
10
95.647334
20
1407.475445
11
72.190053
21
1407.475445
0
LINE
8
annotation
62
1
39
211
10
130.787396
20
1386.024826
11
111.734240
21
1386.024826
0
LINE
8
annotation
62
1
39
211
10
111.734240
20
1386.024826
11
129.339980
21
1414.367808
0
LINE
8
annotation
62
1
39
211
10
129.339980
20
1414.367808
11
129.339980
21
1414.367808
0
LINE
8
annotation
62
1
39
211
10
129.339980
20
1414.367808
11
129.361027
21
1414.393852
0
LINE
8
annotation
62
1
39
211
10
129.361027
20
1414.393852
11
129.381210
21
1414.420117
0
LINE
8
annotation
62
1
39
211
10
129.381210
20
1414.420117
11
129.400663
21
1414.446825
0
LINE
8
annotation
62
1
39
211
10
129.400663
20
1414.446825
11
129.419518
21
1414.474198
0
LINE
8
annotation
62
1
39
211
10
129.419518
20
1414.474198
11
129.437907
21
1414.502456
0
LINE
8
annotation
62
1
39
211
10
129.437907
20
1414.502456
11
129.455965
21
1414.531821
0
LINE
8
annotation
62
1
39
211
10
129.455965
20
1414.531821
11
129.473823
21
1414.562515
0
LINE
8
annotation
62
1
39
211
10
129.473823
20
1414.562515
11
129.491615
21
1414.594758
0
LINE
8
annotation
62
1
39
211
10
129.491615
20
1414.594758
11
129.509473
21
1414.628774
0
LINE
8
annotation
62
1
39
211
10
129.509473
20
1414.628774
11
129.509473
21
1414.628774
0
LINE
8
annotation
62
1
39
211
10
129.509473
20
1414.628774
11
130.236410
21
1416.189568
0
LINE
8
annotation
62
1
39
211
10
130.236410
20
1416.189568
11
130.661074
21
1417.807470
0
LINE
8
annotation
62
1
39
211
10
130.661074
20
1417.807470
11
130.793873
21
1419.445920
0
LINE
8
annotation
62
1
39
211
10
130.793873
20
1419.445920
11
130.645213
21
1421.068360
0
LINE
8
annotation
62
1
39
211
10
130.645213
20
1421.068360
11
130.225501
21
1422.638234
0
LINE
8
annotation
62
1
39
211
10
130.225501
20
1422.638234
11
129.545145
21
1424.118982
0
LINE
8
annotation
62
1
39
211
10
129.545145
20
1424.118982
11
128.614553
21
1425.474047
0
LINE
8
annotation
62
1
39
211
10
128.614553
20
1425.474047
11
127.444130
21
1426.666871
0
LINE
8
annotation
62
1
39
211
10
127.444130
20
1426.666871
11
126.044285
21
1427.660896
0
LINE
8
annotation
62
1
39
211
10
126.044285
20
1427.660896
11
126.044285
21
1427.660896
0
LINE
8
annotation
62
1
39
211
10
126.044285
20
1427.660896
11
124.479150
21
1428.377503
0
LINE
8
annotation
62
1
39
211
10
124.479150
20
1428.377503
11
122.858768
21
1428.795624
0
LINE
8
annotation
62
1
39
211
10
122.858768
20
1428.795624
11
121.219366
21
1428.924669
0
LINE
8
annotation
62
1
39
211
10
121.219366
20
1428.924669
11
119.597169
21
1428.774049
0
LINE
8
annotation
62
1
39
211
10
119.597169
20
1428.774049
11
118.028403
21
1428.353175
0
LINE
8
annotation
62
1
39
211
10
118.028403
20
1428.353175
11
116.549293
21
1427.671458
0
LINE
8
annotation
62
1
39
211
10
116.549293
20
1427.671458
11
115.196066
21
1426.738307
0
LINE
8
annotation
62
1
39
211
10
115.196066
20
1426.738307
11
114.004947
21
1425.563135
0
LINE
8
annotation
62
1
39
211
10
114.004947
20
1425.563135
11
113.012163
21
1424.155352
0
LINE
8
annotation
62
1
39
211
10
113.012163
20
1424.155352
11
111.761144
21
1421.755547
0
LINE
8
boundary
62
5
39
2
10
257.069298
20
1603.037523
11
257.069298
21
1629.711567
0
LINE
8
boundary
62
5
39
2
10
257.069298
20
1629.711567
11
257.069298
21
1632.112539
0
LINE
8
boundary
62
5
39
2
10
257.069298
20
1632.112539
11
136.553586
21
1632.362538
0
LINE
8
boundary
62
5
39
2
10
136.553586
20
1632.362538
11
136.553586
21
1637.262539
0
LINE
8
boundary
62
5
39
2
10
136.553586
20
1637.262539
11
256.874297
21
1637.262538
0
LINE
8
boundary
62
5
39
2
10
256.874297
20
1637.262538
11
257.069298
21
1649.442698
0
LINE
8
boundary
62
5
39
2
10
257.069298
20
1649.442698
11
257.069297
21
1678.692605
0
LINE
8
boundary
62
5
39
2
10
257.069297
20
1678.692605
11
257.069298
21
1731.409415
0
LINE
8
boundary
62
5
39
2
10
257.069298
20
1731.409415
11
129.378399
21
1731.659415
0
LINE
8
boundary
62
5
39
2
10
129.378399
20
1731.659415
11
129.378399
21
1736.559415
0
LINE
8
boundary
62
5
39
2
10
129.378399
20
1736.559415
11
256.874298
21
1736.559415
0
LINE
8
boundary
62
5
39
2
10
256.874298
20
1736.559415
11
257.069298
21
1830.706291
0
LINE
8
boundary
62
5
39
2
10
257.069298
20
1830.706291
11
129.378399
21
1830.956291
0
LINE
8
boundary
62
5
39
2
10
129.378399
20
1830.956291
11
129.378399
21
1835.856291
0
LINE
8
boundary
62
5
39
2
10
129.378399
20
1835.856291
11
256.874297
21
1835.856291
0
LINE
8
boundary
62
5
39
2
10
256.874297
20
1835.856291
11
257.069298
21
1918.072934
0
LINE
8
boundary
62
5
39
2
10
257.069298
20
1918.072934
11
257.069297
21
1930.003167
0
LINE
8
boundary
62
5
39
2
10
257.069297
20
1930.003167
11
136.553621
21
1930.253167
0
LINE
8
boundary
62
5
39
2
10
136.553621
20
1930.253167
11
136.553621
21
1935.153168
0
LINE
8
boundary
62
5
39
2
10
136.553621
20
1935.153168
11
256.874298
21
1935.153167
0
LINE
8
boundary
62
5
39
2
10
256.874298
20
1935.153167
11
257.069298
21
1937.804065
0
LINE
8
boundary
62
5
39
2
10
257.069298
20
1937.804065
11
257.069298
21
1964.478140
0
LINE
8
boundary
62
5
39
2
10
257.069298
20
1964.478140
11
155.520743
21
1964.478140
0
LINE
8
boundary
62
5
39
2
10
155.520743
20
1964.478140
11
60.062834
21
1964.478140
0
LINE
8
boundary
62
5
39
2
10
60.062834
20
1964.478140
11
21.580918
21
1935.884742
0
LINE
8
boundary
62
5
39
2
10
21.580918
20
1935.884742
11
1.587501
21
1921.028932
0
LINE
8
boundary
62
5
39
2
10
1.587501
20
1921.028932
11
1.587500
21
1732.241137
0
LINE
8
boundary
62
5
39
2
10
1.587500
20
1732.241137
11
1.587500
21
1646.486775
0
LINE
8
boundary
62
5
39
2
10
1.587500
20
1646.486775
11
21.580918
21
1631.630897
0
LINE
8
boundary
62
5
39
2
10
21.580918
20
1631.630897
11
60.062834
21
1603.037523
0
LINE
8
boundary
62
5
39
2
10
60.062834
20
1603.037523
11
155.520743
21
1603.037523
0
LINE
8
boundary
62
5
39
2
10
155.520743
20
1603.037523
11
257.069298
21
1603.037523
0
LINE
8
annotation
62
1
39
211
10
127.392085
20
1630.812539
11
127.392085
21
1638.812539
0
LINE
8
annotation
62
1
39
211
10
127.392085
20
1638.812539
11
125.613582
21
1637.033534
0
LINE
8
annotation
62
1
39
211
10
121.103891
20
1730.109350
11
117.550900
21
1730.109350
0
LINE
8
annotation
62
1
39
211
10
117.550900
20
1730.109350
11
120.833980
21
1735.394688
0
LINE
8
annotation
62
1
39
211
10
120.833980
20
1735.394688
11
120.833980
21
1735.394688
0
LINE
8
annotation
62
1
39
211
10
120.833980
20
1735.394688
11
120.837905
21
1735.399544
0
LINE
8
annotation
62
1
39
211
10
120.837905
20
1735.399544
11
120.841669
21
1735.404442
0
LINE
8
annotation
62
1
39
211
10
120.841669
20
1735.404442
11
120.845296
21
1735.409423
0
LINE
8
annotation
62
1
39
211
10
120.845296
20
1735.409423
11
120.848812
21
1735.414527
0
LINE
8
annotation
62
1
39
211
10
120.848812
20
1735.414527
11
120.852241
21
1735.419797
0
LINE
8
annotation
62
1
39
211
10
120.852241
20
1735.419797
11
120.855609
21
1735.425272
0
LINE
8
annotation
62
1
39
211
10
120.855609
20
1735.425272
11
120.858939
21
1735.430996
0
LINE
8
annotation
62
1
39
211
10
120.858939
20
1735.430996
11
120.862257
21
1735.437009
0
LINE
8
annotation
62
1
39
211
10
120.862257
20
1735.437009
11
120.865587
21
1735.443352
0
LINE
8
annotation
62
1
39
211
10
120.865587
20
1735.443352
11
120.865587
21
1735.443352
0
LINE
8
annotation
62
1
39
211
10
120.865587
20
1735.443352
11
121.001145
21
1735.734406
0
LINE
8
annotation
62
1
39
211
10
121.001145
20
1735.734406
11
121.080335
21
1736.036108
0
LINE
8
annotation
62
1
39
211
10
121.080335
20
1736.036108
11
121.105099
21
1736.341643
0
LINE
8
annotation
62
1
39
211
10
121.105099
20
1736.341643
11
121.077377
21
1736.644192
0
LINE
8
annotation
62
1
39
211
10
121.077377
20
1736.644192
11
120.999110
21
1736.936939
0
LINE
8
annotation
62
1
39
211
10
120.999110
20
1736.936939
11
120.872239
21
1737.213066
0
LINE
8
annotation
62
1
39
211
10
120.872239
20
1737.213066
11
120.698704
21
1737.465755
0
LINE
8
annotation
62
1
39
211
10
120.698704
20
1737.465755
11
120.480446
21
1737.688190
0
LINE
8
annotation
62
1
39
211
10
120.480446
20
1737.688190
11
120.219406
21
1737.873554
0
LINE
8
annotation
62
1
39
211
10
120.219406
20
1737.873554
11
120.219406
21
1737.873554
0
LINE
8
annotation
62
1
39
211
10
120.219406
20
1737.873554
11
119.927543
21
1738.007185
0
LINE
8
annotation
62
1
39
211
10
119.927543
20
1738.007185
11
119.625378
21
1738.085156
0
LINE
8
annotation
62
1
39
211
10
119.625378
20
1738.085156
11
119.319666
21
1738.109220
0
LINE
8
annotation
62
1
39
211
10
119.319666
20
1738.109220
11
119.017162
21
1738.081132
0
LINE
8
annotation
62
1
39
211
10
119.017162
20
1738.081132
11
118.724622
21
1738.002649
0
LINE
8
annotation
62
1
39
211
10
118.724622
20
1738.002649
11
118.448801
21
1737.875524
0
LINE
8
annotation
62
1
39
211
10
118.448801
20
1737.875524
11
118.196454
21
1737.701512
0
LINE
8
annotation
62
1
39
211
10
118.196454
20
1737.701512
11
117.974336
21
1737.482368
0
LINE
8
annotation
62
1
39
211
10
117.974336
20
1737.482368
11
117.789204
21
1737.219848
0
LINE
8
annotation
62
1
39
211
10
117.789204
20
1737.219848
11
117.555917
21
1736.772337
0
LINE
8
annotation
62
1
39
211
10
117.550900
20
1829.406542
11
119.327396
21
1829.406542
0
LINE
8
annotation
62
1
39
211
10
119.327396
20
1829.406542
11
119.327396
21
1829.406542
0
LINE
8
annotation
62
1
39
211
10
119.327396
20
1829.406542
11
119.646903
21
1829.435204
0
LINE
8
annotation
62
1
39
211
10
119.646903
20
1829.435204
11
119.947548
21
1829.517809
0
LINE
8
annotation
62
1
39
211
10
119.947548
20
1829.517809
11
120.224330
21
1829.649287
0
LINE
8
annotation
62
1
39
211
10
120.224330
20
1829.649287
11
120.472250
21
1829.824567
0
LINE
8
annotation
62
1
39
211
10
120.472250
20
1829.824567
11
120.686306
21
1830.038579
0
LINE
8
annotation
62
1
39
211
10
120.686306
20
1830.038579
11
120.861499
21
1830.286252
0
LINE
8
annotation
62
1
39
211
10
120.861499
20
1830.286252
11
120.992828
21
1830.562515
0
LINE
8
annotation
62
1
39
211
10
120.992828
20
1830.562515
11
121.075292
21
1830.862297
0
LINE
8
annotation
62
1
39
211
10
121.075292
20
1830.862297
11
121.103891
21
1831.180529
0
LINE
8
annotation
62
1
39
211
10
121.103891
20
1831.180529
11
121.103891
21
1832.070031
0
LINE
8
annotation
62
1
39
211
10
121.103891
20
1832.070031
11
121.103891
21
1832.070031
0
LINE
8
annotation
62
1
39
211
10
121.103891
20
1832.070031
11
121.075292
21
1832.388131
0
LINE
8
annotation
62
1
39
211
10
121.075292
20
1832.388131
11
120.992828
21
1832.687843
0
LINE
8
annotation
62
1
39
211
10
120.992828
20
1832.687843
11
120.861499
21
1832.964086
0
LINE
8
annotation
62
1
39
211
10
120.861499
20
1832.964086
11
120.686306
21
1833.211775
0
LINE
8
annotation
62
1
39
211
10
120.686306
20
1833.211775
11
120.472250
21
1833.425828
0
LINE
8
annotation
62
1
39
211
10
120.472250
20
1833.425828
11
120.224330
21
1833.601162
0
LINE
8
annotation
62
1
39
211
10
120.224330
20
1833.601162
11
119.947548
21
1833.732693
0
LINE
8
annotation
62
1
39
211
10
119.947548
20
1833.732693
11
119.646903
21
1833.815340
0
LINE
8
annotation
62
1
39
211
10
119.646903
20
1833.815340
11
119.327396
21
1833.844018
0
LINE
8
annotation
62
1
39
211
10
119.327396
20
1833.844018
11
118.437893
21
1833.844018
0
LINE
8
annotation
62
1
39
211
10
118.437893
20
1833.844018
11
119.327396
21
1833.844018
0
LINE
8
annotation
62
1
39
211
10
119.327396
20
1833.844018
11
119.327396
21
1833.844018
0
LINE
8
annotation
62
1
39
211
10
119.327396
20
1833.844018
11
119.646903
21
1833.872704
0
LINE
8
annotation
62
1
39
211
10
119.646903
20
1833.872704
11
119.947548
21
1833.955398
0
LINE
8
annotation
62
1
39
211
10
119.947548
20
1833.955398
11
120.224330
21
1834.087061
0
LINE
8
annotation
62
1
39
211
10
120.224330
20
1834.087061
11
120.472250
21
1834.262649
0
LINE
8
annotation
62
1
39
211
10
120.472250
20
1834.262649
11
120.686306
21
1834.477122
0
LINE
8
annotation
62
1
39
211
10
120.686306
20
1834.477122
11
120.861499
21
1834.725438
0
LINE
8
annotation
62
1
39
211
10
120.861499
20
1834.725438
11
120.992828
21
1835.002554
0
LINE
8
annotation
62
1
39
211
10
120.992828
20
1835.002554
11
121.075292
21
1835.303430
0
LINE
8
annotation
62
1
39
211
10
121.075292
20
1835.303430
11
121.103891
21
1835.623023
0
LINE
8
annotation
62
1
39
211
10
121.103891
20
1835.623023
11
121.103891
21
1835.623023
0
LINE
8
annotation
62
1
39
211
10
121.103891
20
1835.623023
11
121.075292
21
1835.941122
0
LINE
8
annotation
62
1
39
211
10
121.075292
20
1835.941122
11
120.992828
21
1836.240835
0
LINE
8
annotation
62
1
39
211
10
120.992828
20
1836.240835
11
120.861499
21
1836.517077
0
LINE
8
annotation
62
1
39
211
10
120.861499
20
1836.517077
11
120.686306
21
1836.764766
0
LINE
8
annotation
62
1
39
211
10
120.686306
20
1836.764766
11
120.472250
21
1836.978819
0
LINE
8
annotation
62
1
39
211
10
120.472250
20
1836.978819
11
120.224330
21
1837.154153
0
LINE
8
annotation
62
1
39
211
10
120.224330
20
1837.154153
11
119.947548
21
1837.285685
0
LINE
8
annotation
62
1
39
211
10
119.947548
20
1837.285685
11
119.646903
21
1837.368331
0
LINE
8
annotation
62
1
39
211
10
119.646903
20
1837.368331
11
119.327396
21
1837.397010
0
LINE
8
annotation
62
1
39
211
10
119.327396
20
1837.397010
11
117.550900
21
1837.397010
0
LINE
8
annotation
62
1
39
211
10
128.723614
20
1930.481670
11
124.281622
21
1930.481670
0
LINE
8
annotation
62
1
39
211
10
124.281622
20
1930.481670
11
126.055609
21
1936.703167
0
LINE
8
annotation
62
1
39
211
10
127.392120
20
1928.703167
11
127.392120
21
1932.256159
0
LINE
8
annotation
62
1
39
211
10
42.732567
20
1758.590012
11
21.055931
21
1758.590012
0
LINE
8
annotation
62
1
39
211
10
21.055931
20
1758.590012
11
42.732567
21
1797.629502
0
LINE
8
annotation
62
1
39
211
10
42.732567
20
1797.629502
11
21.055931
21
1797.629502
0
LINE
8
annotation
62
1
39
211
10
78.722174
20
1778.109757
11
57.376048
21
1778.109757
0
LINE
8
annotation
62
1
39
211
10
102.038513
20
1758.590012
11
102.038513
21
1797.629502
0
LINE
8
annotation
62
1
39
211
10
102.038513
20
1797.629502
11
93.359534
21
1788.948075
0
LINE
8
boundary
62
5
39
2
10
216.599970
20
1967.653140
11
289.519229
21
1967.653140
0
LINE
8
boundary
62
5
39
2
10
289.519229
20
1967.653140
11
289.519229
21
2019.821402
0
LINE
8
boundary
62
5
39
2
10
289.519229
20
2019.821402
11
289.519229
21
2071.855335
0
LINE
8
boundary
62
5
39
2
10
289.519229
20
2071.855335
11
289.519229
21
2079.991064
0
LINE
8
boundary
62
5
39
2
10
289.519229
20
2079.991064
11
289.519229
21
2171.855316
0
LINE
8
boundary
62
5
39
2
10
289.519229
20
2171.855316
11
289.519229
21
2223.889243
0
LINE
8
boundary
62
5
39
2
10
289.519229
20
2223.889243
11
289.519228
21
2276.057498
0
LINE
8
boundary
62
5
39
2
10
289.519228
20
2276.057498
11
280.538525
21
2276.057499
0
LINE
8
boundary
62
5
39
2
10
280.538525
20
2276.057499
11
275.834345
21
2276.057499
0
LINE
8
boundary
62
5
39
2
10
275.834345
20
2276.057499
11
161.915823
21
2262.059192
0
LINE
8
boundary
62
5
39
2
10
161.915823
20
2262.059192
11
91.739610
21
2253.435939
0
LINE
8
boundary
62
5
39
2
10
91.739610
20
2253.435939
11
88.656893
21
2253.057136
0
LINE
8
boundary
62
5
39
2
10
88.656893
20
2253.057136
11
178.051705
21
2252.807135
0
LINE
8
boundary
62
5
39
2
10
178.051705
20
2252.807135
11
178.051705
21
2247.907135
0
LINE
8
boundary
62
5
39
2
10
178.051705
20
2247.907135
11
46.745975
21
2247.907135
0
LINE
8
boundary
62
5
39
2
10
46.745975
20
2247.907135
11
44.711468
21
2247.657136
0
LINE
8
boundary
62
5
39
2
10
44.711468
20
2247.657136
11
31.645477
21
2246.051590
0
LINE
8
boundary
62
5
39
2
10
31.645477
20
2246.051590
11
22.117681
21
2228.901579
0
LINE
8
boundary
62
5
39
2
10
22.117681
20
2228.901579
11
6.981457
21
2201.656409
0
LINE
8
boundary
62
5
39
2
10
6.981457
20
2201.656409
11
147.450342
21
2201.406409
0
LINE
8
boundary
62
5
39
2
10
147.450342
20
2201.406409
11
147.450342
21
2196.506409
0
LINE
8
boundary
62
5
39
2
10
147.450342
20
2196.506409
11
4.176453
21
2196.506409
0
LINE
8
boundary
62
5
39
2
10
4.176453
20
2196.506409
11
1.696784
21
2192.144010
0
LINE
8
boundary
62
5
39
2
10
1.696784
20
2192.144010
11
1.587500
21
2150.255682
0
LINE
8
boundary
62
5
39
2
10
1.587500
20
2150.255682
11
145.503365
21
2150.005683
0
LINE
8
boundary
62
5
39
2
10
145.503365
20
2150.005683
11
145.503364
21
2145.105683
0
LINE
8
boundary
62
5
39
2
10
145.503364
20
2145.105683
11
1.782500
21
2145.105683
0
LINE
8
boundary
62
5
39
2
10
1.782500
20
2145.105683
11
1.587501
21
2098.854956
0
LINE
8
boundary
62
5
39
2
10
1.587501
20
2098.854956
11
145.503365
21
2098.604956
0
LINE
8
boundary
62
5
39
2
10
145.503365
20
2098.604956
11
145.503365
21
2093.704956
0
LINE
8
boundary
62
5
39
2
10
145.503365
20
2093.704956
11
1.782501
21
2093.704956
0
LINE
8
boundary
62
5
39
2
10
1.782501
20
2093.704956
11
1.587501
21
2051.763426
0
LINE
8
boundary
62
5
39
2
10
1.587501
20
2051.763426
11
1.909915
21
2051.183077
0
LINE
8
boundary
62
5
39
2
10
1.909915
20
2051.183077
11
2.604553
21
2049.932723
0
LINE
8
boundary
62
5
39
2
10
2.604553
20
2049.932723
11
3.981493
21
2047.454230
0
LINE
8
boundary
62
5
39
2
10
3.981493
20
2047.454230
11
147.450360
21
2047.204229
0
LINE
8
boundary
62
5
39
2
10
147.450360
20
2047.204229
11
147.450360
21
2042.304230
0
LINE
8
boundary
62
5
39
2
10
147.450360
20
2042.304230
11
7.176491
21
2042.304230
0
LINE
8
boundary
62
5
39
2
10
7.176491
20
2042.304230
11
32.537433
21
1996.053503
0
LINE
8
boundary
62
5
39
2
10
32.537433
20
1996.053503
11
161.728330
21
1995.803504
0
LINE
8
boundary
62
5
39
2
10
161.728330
20
1995.803504
11
161.728330
21
1990.903503
0
LINE
8
boundary
62
5
39
2
10
161.728330
20
1990.903503
11
35.732431
21
1990.903503
0
LINE
8
boundary
62
5
39
2
10
35.732431
20
1990.903503
11
48.315401
21
1967.653140
0
LINE
8
boundary
62
5
39
2
10
48.315401
20
1967.653140
11
66.666868
21
1967.653140
0
LINE
8
boundary
62
5
39
2
10
66.666868
20
1967.653140
11
77.390565
21
1967.653140
0
LINE
8
boundary
62
5
39
2
10
77.390565
20
1967.653140
11
216.599970
21
1967.653140
0
LINE
8
annotation
62
1
39
211
10
172.666829
20
1989.353503
11
172.666829
21
1997.353503
0
LINE
8
annotation
62
1
39
211
10
172.666829
20
1997.353503
11
170.888326
21
1995.574499
0
LINE
8
annotation
62
1
39
211
10
159.275853
20
2040.754165
11
155.722861
21
2040.754165
0
LINE
8
annotation
62
1
39
211
10
155.722861
20
2040.754165
11
159.005942
21
2046.039503
0
LINE
8
annotation
62
1
39
211
10
159.005942
20
2046.039503
11
159.005942
21
2046.039503
0
LINE
8
annotation
62
1
39
211
10
159.005942
20
2046.039503
11
159.009866
21
2046.044359
0
LINE
8
annotation
62
1
39
211
10
159.009866
20
2046.044359
11
159.013630
21
2046.049257
0
LINE
8
annotation
62
1
39
211
10
159.013630
20
2046.049257
11
159.017258
21
2046.054238
0
LINE
8
annotation
62
1
39
211
10
159.017258
20
2046.054238
11
159.020774
21
2046.059342
0
LINE
8
annotation
62
1
39
211
10
159.020774
20
2046.059342
11
159.024203
21
2046.064611
0
LINE
8
annotation
62
1
39
211
10
159.024203
20
2046.064611
11
159.027570
21
2046.070087
0
LINE
8
annotation
62
1
39
211
10
159.027570
20
2046.070087
11
159.030900
21
2046.075811
0
LINE
8
annotation
62
1
39
211
10
159.030900
20
2046.075811
11
159.034218
21
2046.081824
0
LINE
8
annotation
62
1
39
211
10
159.034218
20
2046.081824
11
159.037548
21
2046.088167
0
LINE
8
annotation
62
1
39
211
10
159.037548
20
2046.088167
11
159.037548
21
2046.088167
0
LINE
8
annotation
62
1
39
211
10
159.037548
20
2046.088167
11
159.173106
21
2046.379221
0
LINE
8
annotation
62
1
39
211
10
159.173106
20
2046.379221
11
159.252296
21
2046.680923
0
LINE
8
annotation
62
1
39
211
10
159.252296
20
2046.680923
11
159.277060
21
2046.986458
0
LINE
8
annotation
62
1
39
211
10
159.277060
20
2046.986458
11
159.249339
21
2047.289007
0
LINE
8
annotation
62
1
39
211
10
159.249339
20
2047.289007
11
159.171072
21
2047.581754
0
LINE
8
annotation
62
1
39
211
10
159.171072
20
2047.581754
11
159.044200
21
2047.857880
0
LINE
8
annotation
62
1
39
211
10
159.044200
20
2047.857880
11
158.870665
21
2048.110570
0
LINE
8
annotation
62
1
39
211
10
158.870665
20
2048.110570
11
158.652408
21
2048.333005
0
LINE
8
annotation
62
1
39
211
10
158.652408
20
2048.333005
11
158.391367
21
2048.518369
0
LINE
8
annotation
62
1
39
211
10
158.391367
20
2048.518369
11
158.391367
21
2048.518369
0
LINE
8
annotation
62
1
39
211
10
158.391367
20
2048.518369
11
158.099505
21
2048.652000
0
LINE
8
annotation
62
1
39
211
10
158.099505
20
2048.652000
11
157.797339
21
2048.729971
0
LINE
8
annotation
62
1
39
211
10
157.797339
20
2048.729971
11
157.491627
21
2048.754035
0
LINE
8
annotation
62
1
39
211
10
157.491627
20
2048.754035
11
157.189123
21
2048.725947
0
LINE
8
annotation
62
1
39
211
10
157.189123
20
2048.725947
11
156.896583
21
2048.647464
0
LINE
8
annotation
62
1
39
211
10
156.896583
20
2048.647464
11
156.620762
21
2048.520338
0
LINE
8
annotation
62
1
39
211
10
156.620762
20
2048.520338
11
156.368415
21
2048.346327
0
LINE
8
annotation
62
1
39
211
10
156.368415
20
2048.346327
11
156.146298
21
2048.127183
0
LINE
8
annotation
62
1
39
211
10
156.146298
20
2048.127183
11
155.961166
21
2047.864663
0
LINE
8
annotation
62
1
39
211
10
155.961166
20
2047.864663
11
155.727878
21
2047.417152
0
LINE
8
annotation
62
1
39
211
10
153.775865
20
2092.155207
11
155.552361
21
2092.155207
0
LINE
8
annotation
62
1
39
211
10
155.552361
20
2092.155207
11
155.552361
21
2092.155207
0
LINE
8
annotation
62
1
39
211
10
155.552361
20
2092.155207
11
155.871868
21
2092.183869
0
LINE
8
annotation
62
1
39
211
10
155.871868
20
2092.183869
11
156.172513
21
2092.266474
0
LINE
8
annotation
62
1
39
211
10
156.172513
20
2092.266474
11
156.449296
21
2092.397952
0
LINE
8
annotation
62
1
39
211
10
156.449296
20
2092.397952
11
156.697215
21
2092.573232
0
LINE
8
annotation
62
1
39
211
10
156.697215
20
2092.573232
11
156.911272
21
2092.787244
0
LINE
8
annotation
62
1
39
211
10
156.911272
20
2092.787244
11
157.086465
21
2093.034917
0
LINE
8
annotation
62
1
39
211
10
157.086465
20
2093.034917
11
157.217793
21
2093.311180
0
LINE
8
annotation
62
1
39
211
10
157.217793
20
2093.311180
11
157.300257
21
2093.610962
0
LINE
8
annotation
62
1
39
211
10
157.300257
20
2093.610962
11
157.328857
21
2093.929194
0
LINE
8
annotation
62
1
39
211
10
157.328857
20
2093.929194
11
157.328857
21
2094.818696
0
LINE
8
annotation
62
1
39
211
10
157.328857
20
2094.818696
11
157.328857
21
2094.818696
0
LINE
8
annotation
62
1
39
211
10
157.328857
20
2094.818696
11
157.300257
21
2095.136796
0
LINE
8
annotation
62
1
39
211
10
157.300257
20
2095.136796
11
157.217793
21
2095.436508
0
LINE
8
annotation
62
1
39
211
10
157.217793
20
2095.436508
11
157.086465
21
2095.712751
0
LINE
8
annotation
62
1
39
211
10
157.086465
20
2095.712751
11
156.911272
21
2095.960440
0
LINE
8
annotation
62
1
39
211
10
156.911272
20
2095.960440
11
156.697215
21
2096.174493
0
LINE
8
annotation
62
1
39
211
10
156.697215
20
2096.174493
11
156.449296
21
2096.349827
0
LINE
8
annotation
62
1
39
211
10
156.449296
20
2096.349827
11
156.172513
21
2096.481359
0
LINE
8
annotation
62
1
39
211
10
156.172513
20
2096.481359
11
155.871868
21
2096.564005
0
LINE
8
annotation
62
1
39
211
10
155.871868
20
2096.564005
11
155.552361
21
2096.592683
0
LINE
8
annotation
62
1
39
211
10
155.552361
20
2096.592683
11
154.662859
21
2096.592683
0
LINE
8
annotation
62
1
39
211
10
154.662859
20
2096.592683
11
155.552361
21
2096.592683
0
LINE
8
annotation
62
1
39
211
10
155.552361
20
2096.592683
11
155.552361
21
2096.592683
0
LINE
8
annotation
62
1
39
211
10
155.552361
20
2096.592683
11
155.871868
21
2096.621369
0
LINE
8
annotation
62
1
39
211
10
155.871868
20
2096.621369
11
156.172513
21
2096.704063
0
LINE
8
annotation
62
1
39
211
10
156.172513
20
2096.704063
11
156.449296
21
2096.835726
0
LINE
8
annotation
62
1
39
211
10
156.449296
20
2096.835726
11
156.697215
21
2097.011314
0
LINE
8
annotation
62
1
39
211
10
156.697215
20
2097.011314
11
156.911272
21
2097.225787
0
LINE
8
annotation
62
1
39
211
10
156.911272
20
2097.225787
11
157.086465
21
2097.474103
0
LINE
8
annotation
62
1
39
211
10
157.086465
20
2097.474103
11
157.217793
21
2097.751219
0
LINE
8
annotation
62
1
39
211
10
157.217793
20
2097.751219
11
157.300257
21
2098.052095
0
LINE
8
annotation
62
1
39
211
10
157.300257
20
2098.052095
11
157.328857
21
2098.371688
0
LINE
8
annotation
62
1
39
211
10
157.328857
20
2098.371688
11
157.328857
21
2098.371688
0
LINE
8
annotation
62
1
39
211
10
157.328857
20
2098.371688
11
157.300257
21
2098.689787
0
LINE
8
annotation
62
1
39
211
10
157.300257
20
2098.689787
11
157.217793
21
2098.989500
0
LINE
8
annotation
62
1
39
211
10
157.217793
20
2098.989500
11
157.086465
21
2099.265742
0
LINE
8
annotation
62
1
39
211
10
157.086465
20
2099.265742
11
156.911272
21
2099.513431
0
LINE
8
annotation
62
1
39
211
10
156.911272
20
2099.513431
11
156.697215
21
2099.727484
0
LINE
8
annotation
62
1
39
211
10
156.697215
20
2099.727484
11
156.449296
21
2099.902818
0
LINE
8
annotation
62
1
39
211
10
156.449296
20
2099.902818
11
156.172513
21
2100.034350
0
LINE
8
annotation
62
1
39
211
10
156.172513
20
2100.034350
11
155.871868
21
2100.116996
0
LINE
8
annotation
62
1
39
211
10
155.871868
20
2100.116996
11
155.552361
21
2100.145675
0
LINE
8
annotation
62
1
39
211
10
155.552361
20
2100.145675
11
153.775865
21
2100.145675
0
LINE
8
annotation
62
1
39
211
10
157.773357
20
2145.334185
11
153.331365
21
2145.334185
0
LINE
8
annotation
62
1
39
211
10
153.331365
20
2145.334185
11
155.105352
21
2151.555683
0
LINE
8
annotation
62
1
39
211
10
156.441863
20
2143.555683
11
156.441863
21
2147.108674
0
LINE
8
annotation
62
1
39
211
10
155.722843
20
2194.956409
11
157.499338
21
2194.956409
0
LINE
8
annotation
62
1
39
211
10
157.499338
20
2194.956409
11
157.499338
21
2194.956409
0
LINE
8
annotation
62
1
39
211
10
157.499338
20
2194.956409
11
157.818185
21
2194.985077
0
LINE
8
annotation
62
1
39
211
10
157.818185
20
2194.985077
11
158.118479
21
2195.067726
0
LINE
8
annotation
62
1
39
211
10
158.118479
20
2195.067726
11
158.395158
21
2195.199321
0
LINE
8
annotation
62
1
39
211
10
158.395158
20
2195.199321
11
158.643160
21
2195.374831
0
LINE
8
annotation
62
1
39
211
10
158.643160
20
2195.374831
11
158.857423
21
2195.589220
0
LINE
8
annotation
62
1
39
211
10
158.857423
20
2195.589220
11
159.032884
21
2195.837457
0
LINE
8
annotation
62
1
39
211
10
159.032884
20
2195.837457
11
159.164481
21
2196.114506
0
LINE
8
annotation
62
1
39
211
10
159.164481
20
2196.114506
11
159.247152
21
2196.415336
0
LINE
8
annotation
62
1
39
211
10
159.247152
20
2196.415336
11
159.275834
21
2196.734911
0
LINE
8
annotation
62
1
39
211
10
159.275834
20
2196.734911
11
159.275834
21
2197.619898
0
LINE
8
annotation
62
1
39
211
10
159.275834
20
2197.619898
11
159.275834
21
2197.619898
0
LINE
8
annotation
62
1
39
211
10
159.275834
20
2197.619898
11
159.247169
21
2197.939319
0
LINE
8
annotation
62
1
39
211
10
159.247169
20
2197.939319
11
159.164539
21
2198.239734
0
LINE
8
annotation
62
1
39
211
10
159.164539
20
2198.239734
11
159.032996
21
2198.516182
0
LINE
8
annotation
62
1
39
211
10
159.032996
20
2198.516182
11
158.857588
21
2198.763706
0
LINE
8
annotation
62
1
39
211
10
158.857588
20
2198.763706
11
158.643367
21
2198.977347
0
LINE
8
annotation
62
1
39
211
10
158.643367
20
2198.977347
11
158.395381
21
2199.152144
0
LINE
8
annotation
62
1
39
211
10
158.395381
20
2199.152144
11
158.118681
21
2199.283139
0
LINE
8
annotation
62
1
39
211
10
158.118681
20
2199.283139
11
157.818317
21
2199.365372
0
LINE
8
annotation
62
1
39
211
10
157.818317
20
2199.365372
11
157.499338
21
2199.393885
0
LINE
8
annotation
62
1
39
211
10
157.499338
20
2199.393885
11
155.722843
21
2199.393885
0
LINE
8
annotation
62
1
39
211
10
155.722843
20
2199.393885
11
155.722843
21
2202.956409
0
LINE
8
annotation
62
1
39
211
10
155.722843
20
2202.956409
11
159.275834
21
2202.956409
0
LINE
8
annotation
62
1
39
211
10
188.992712
20
2254.357135
11
188.992712
21
2254.357135
0
LINE
8
annotation
62
1
39
211
10
188.992712
20
2254.357135
11
188.483791
21
2254.166321
0
LINE
8
annotation
62
1
39
211
10
188.483791
20
2254.166321
11
188.016789
21
2253.909220
0
LINE
8
annotation
62
1
39
211
10
188.016789
20
2253.909220
11
187.596500
21
2253.592276
0
LINE
8
annotation
62
1
39
211
10
187.596500
20
2253.592276
11
187.227719
21
2253.221930
0
LINE
8
annotation
62
1
39
211
10
187.227719
20
2253.221930
11
186.915238
21
2252.804622
0
LINE
8
annotation
62
1
39
211
10
186.915238
20
2252.804622
11
186.663853
21
2252.346795
0
LINE
8
annotation
62
1
39
211
10
186.663853
20
2252.346795
11
186.478356
21
2251.854890
0
LINE
8
annotation
62
1
39
211
10
186.478356
20
2251.854890
11
186.363543
21
2251.335348
0
LINE
8
annotation
62
1
39
211
10
186.363543
20
2251.335348
11
186.324206
21
2250.794612
0
LINE
8
annotation
62
1
39
211
10
186.324206
20
2250.794612
11
186.324206
21
2248.135638
0
LINE
8
annotation
62
1
39
211
10
186.324206
20
2248.135638
11
186.324206
21
2248.135638
0
LINE
8
annotation
62
1
39
211
10
186.324206
20
2248.135638
11
186.352888
21
2247.816062
0
LINE
8
annotation
62
1
39
211
10
186.352888
20
2247.816062
11
186.435559
21
2247.515233
0
LINE
8
annotation
62
1
39
211
10
186.435559
20
2247.515233
11
186.567156
21
2247.238183
0
LINE
8
annotation
62
1
39
211
10
186.567156
20
2247.238183
11
186.742617
21
2246.989947
0
LINE
8
annotation
62
1
39
211
10
186.742617
20
2246.989947
11
186.956880
21
2246.775557
0
LINE
8
annotation
62
1
39
211
10
186.956880
20
2246.775557
11
187.204882
21
2246.600048
0
LINE
8
annotation
62
1
39
211
10
187.204882
20
2246.600048
11
187.481562
21
2246.468452
0
LINE
8
annotation
62
1
39
211
10
187.481562
20
2246.468452
11
187.781856
21
2246.385803
0
LINE
8
annotation
62
1
39
211
10
187.781856
20
2246.385803
11
188.100702
21
2246.357135
0
LINE
8
annotation
62
1
39
211
10
188.100702
20
2246.357135
11
188.100702
21
2246.357135
0
LINE
8
annotation
62
1
39
211
10
188.100702
20
2246.357135
11
188.420209
21
2246.385803
0
LINE
8
annotation
62
1
39
211
10
188.420209
20
2246.385803
11
188.720854
21
2246.468452
0
LINE
8
annotation
62
1
39
211
10
188.720854
20
2246.468452
11
188.997636
21
2246.600048
0
LINE
8
annotation
62
1
39
211
10
188.997636
20
2246.600048
11
189.245556
21
2246.775557
0
LINE
8
annotation
62
1
39
211
10
189.245556
20
2246.775557
11
189.459613
21
2246.989947
0
LINE
8
annotation
62
1
39
211
10
189.459613
20
2246.989947
11
189.634805
21
2247.238183
0
LINE
8
annotation
62
1
39
211
10
189.634805
20
2247.238183
11
189.766134
21
2247.515233
0
LINE
8
annotation
62
1
39
211
10
189.766134
20
2247.515233
11
189.848598
21
2247.816062
0
LINE
8
annotation
62
1
39
211
10
189.848598
20
2247.816062
11
189.877198
21
2248.135638
0
LINE
8
annotation
62
1
39
211
10
189.877198
20
2248.135638
11
189.877198
21
2249.020625
0
LINE
8
annotation
62
1
39
211
10
189.877198
20
2249.020625
11
189.877198
21
2249.020625
0
LINE
8
annotation
62
1
39
211
10
189.877198
20
2249.020625
11
189.848598
21
2249.340046
0
LINE
8
annotation
62
1
39
211
10
189.848598
20
2249.340046
11
189.766134
21
2249.640460
0
LINE
8
annotation
62
1
39
211
10
189.766134
20
2249.640460
11
189.634805
21
2249.916909
0
LINE
8
annotation
62
1
39
211
10
189.634805
20
2249.916909
11
189.459613
21
2250.164433
0
LINE
8
annotation
62
1
39
211
10
189.459613
20
2250.164433
11
189.245556
21
2250.378073
0
LINE
8
annotation
62
1
39
211
10
189.245556
20
2250.378073
11
188.997636
21
2250.552870
0
LINE
8
annotation
62
1
39
211
10
188.997636
20
2250.552870
11
188.720854
21
2250.683865
0
LINE
8
annotation
62
1
39
211
10
188.720854
20
2250.683865
11
188.420209
21
2250.766099
0
LINE
8
annotation
62
1
39
211
10
188.420209
20
2250.766099
11
188.100702
21
2250.794612
0
LINE
8
annotation
62
1
39
211
10
188.100702
20
2250.794612
11
186.324206
21
2250.794612
0
LINE
8
annotation
62
1
39
211
10
186.101705
20
2245.357135
11
190.101705
21
2245.357135
0
LINE
8
annotation
62
1
39
211
10
199.949735
20
2124.053965
11
188.840497
21
2107.985470
0
LINE
8
annotation
62
1
39
211
10
188.840497
20
2107.985470
11
177.729170
21
2124.053965
0
LINE
8
annotation
62
1
39
211
10
188.840497
20
2109.278553
11
188.840497
21
2090.740874
0
LINE
8
annotation
62
1
39
211
10
230.659424
20
2107.397419
11
212.445538
21
2107.397419
0
LINE
8
annotation
62
1
39
211
10
257.944643
20
2090.741648
11
243.150431
21
2090.741648
0
LINE
8
annotation
62
1
39
211
10
243.150431
20
2090.741648
11
256.820768
21
2112.749136
0
LINE
8
annotation
62
1
39
211
10
256.820768
20
2112.749136
11
256.820768
21
2112.749136
0
LINE
8
annotation
62
1
39
211
10
256.820768
20
2112.749136
11
256.837110
21
2112.769358
0
LINE
8
annotation
62
1
39
211
10
256.837110
20
2112.769358
11
256.852782
21
2112.789752
0
LINE
8
annotation
62
1
39
211
10
256.852782
20
2112.789752
11
256.867886
21
2112.810490
0
LINE
8
annotation
62
1
39
211
10
256.867886
20
2112.810490
11
256.882526
21
2112.831744
0
LINE
8
annotation
62
1
39
211
10
256.882526
20
2112.831744
11
256.896805
21
2112.853685
0
LINE
8
annotation
62
1
39
211
10
256.896805
20
2112.853685
11
256.910826
21
2112.876487
0
LINE
8
annotation
62
1
39
211
10
256.910826
20
2112.876487
11
256.924693
21
2112.900319
0
LINE
8
annotation
62
1
39
211
10
256.924693
20
2112.900319
11
256.938508
21
2112.925356
0
LINE
8
annotation
62
1
39
211
10
256.938508
20
2112.925356
11
256.952374
21
2112.951768
0
LINE
8
annotation
62
1
39
211
10
256.952374
20
2112.951768
11
256.952374
21
2112.951768
0
LINE
8
annotation
62
1
39
211
10
256.952374
20
2112.951768
11
257.516819
21
2114.163679
0
LINE
8
annotation
62
1
39
211
10
257.516819
20
2114.163679
11
257.846558
21
2115.419931
0
LINE
8
annotation
62
1
39
211
10
257.846558
20
2115.419931
11
257.949672
21
2116.692139
0
LINE
8
annotation
62
1
39
211
10
257.949672
20
2116.692139
11
257.834242
21
2117.951916
0
LINE
8
annotation
62
1
39
211
10
257.834242
20
2117.951916
11
257.508349
21
2119.170877
0
LINE
8
annotation
62
1
39
211
10
257.508349
20
2119.170877
11
256.980073
21
2120.320634
0
LINE
8
annotation
62
1
39
211
10
256.980073
20
2120.320634
11
256.257495
21
2121.372802
0
LINE
8
annotation
62
1
39
211
10
256.257495
20
2121.372802
11
255.348696
21
2122.298994
0
LINE
8
annotation
62
1
39
211
10
255.348696
20
2122.298994
11
254.261758
21
2123.070825
0
LINE
8
annotation
62
1
39
211
10
254.261758
20
2123.070825
11
254.261758
21
2123.070825
0
LINE
8
annotation
62
1
39
211
10
254.261758
20
2123.070825
11
253.046477
21
2123.627250
0
LINE
8
annotation
62
1
39
211
10
253.046477
20
2123.627250
11
251.788299
21
2123.951908
0
LINE
8
annotation
62
1
39
211
10
251.788299
20
2123.951908
11
250.515351
21
2124.052108
0
LINE
8
annotation
62
1
39
211
10
250.515351
20
2124.052108
11
249.255763
21
2123.935156
0
LINE
8
annotation
62
1
39
211
10
249.255763
20
2123.935156
11
248.037663
21
2123.608360
0
LINE
8
annotation
62
1
39
211
10
248.037663
20
2123.608360
11
246.889178
21
2123.079026
0
LINE
8
annotation
62
1
39
211
10
246.889178
20
2123.079026
11
245.838437
21
2122.354463
0
LINE
8
annotation
62
1
39
211
10
245.838437
20
2122.354463
11
244.913568
21
2121.441976
0
LINE
8
annotation
62
1
39
211
10
244.913568
20
2121.441976
11
244.142700
21
2120.348874
0
LINE
8
annotation
62
1
39
211
10
244.142700
20
2120.348874
11
243.171321
21
2118.485497
0
LINE
8
boundary
62
5
39
2
10
150.309759
20
2279.232499
11
289.519229
21
2279.232499
0
LINE
8
boundary
62
5
39
2
10
289.519229
20
2279.232499
11
289.519229
21
2378.826437
0
LINE
8
boundary
62
5
39
2
10
289.519229
20
2378.826437
11
289.519229
21
2383.434694
0
LINE
8
boundary
62
5
39
2
10
289.519229
20
2383.434694
11
289.519229
21
2475.298946
0
LINE
8
boundary
62
5
39
2
10
289.519229
20
2475.298946
11
289.519229
21
2483.434675
0
LINE
8
boundary
62
5
39
2
10
289.519229
20
2483.434675
11
289.519229
21
2488.042931
0
LINE
8
boundary
62
5
39
2
10
289.519229
20
2488.042931
11
289.519228
21
2587.636857
0
LINE
8
boundary
62
5
39
2
10
289.519228
20
2587.636857
11
284.815052
21
2587.636858
0
LINE
8
boundary
62
5
39
2
10
284.815052
20
2587.636858
11
275.834345
21
2587.636858
0
LINE
8
boundary
62
5
39
2
10
275.834345
20
2587.636858
11
216.162753
21
2580.304413
0
LINE
8
boundary
62
5
39
2
10
216.162753
20
2580.304413
11
91.739610
21
2565.015298
0
LINE
8
boundary
62
5
39
2
10
91.739610
20
2565.015298
11
88.656893
21
2564.636495
0
LINE
8
boundary
62
5
39
2
10
88.656893
20
2564.636495
11
178.051705
21
2564.386494
0
LINE
8
boundary
62
5
39
2
10
178.051705
20
2564.386494
11
178.051705
21
2559.486494
0
LINE
8
boundary
62
5
39
2
10
178.051705
20
2559.486494
11
46.745977
21
2559.486494
0
LINE
8
boundary
62
5
39
2
10
46.745977
20
2559.486494
11
44.711467
21
2559.236494
0
LINE
8
boundary
62
5
39
2
10
44.711467
20
2559.236494
11
31.645477
21
2557.630949
0
LINE
8
boundary
62
5
39
2
10
31.645477
20
2557.630949
11
11.224569
21
2520.873361
0
LINE
8
boundary
62
5
39
2
10
11.224569
20
2520.873361
11
6.981457
21
2513.235768
0
LINE
8
boundary
62
5
39
2
10
6.981457
20
2513.235768
11
147.450342
21
2512.985768
0
LINE
8
boundary
62
5
39
2
10
147.450342
20
2512.985768
11
147.450342
21
2508.085768
0
LINE
8
boundary
62
5
39
2
10
147.450342
20
2508.085768
11
4.176453
21
2508.085768
0
LINE
8
boundary
62
5
39
2
10
4.176453
20
2508.085768
11
1.696784
21
2503.723369
0
LINE
8
boundary
62
5
39
2
10
1.696784
20
2503.723369
11
1.587500
21
2461.835041
0
LINE
8
boundary
62
5
39
2
10
1.587500
20
2461.835041
11
145.503365
21
2461.585042
0
LINE
8
boundary
62
5
39
2
10
145.503365
20
2461.585042
11
145.503364
21
2456.685042
0
LINE
8
boundary
62
5
39
2
10
145.503364
20
2456.685042
11
1.782500
21
2456.685042
0
LINE
8
boundary
62
5
39
2
10
1.782500
20
2456.685042
11
1.587500
21
2410.434315
0
LINE
8
boundary
62
5
39
2
10
1.587500
20
2410.434315
11
145.503365
21
2410.184315
0
LINE
8
boundary
62
5
39
2
10
145.503365
20
2410.184315
11
145.503365
21
2405.284315
0
LINE
8
boundary
62
5
39
2
10
145.503365
20
2405.284315
11
1.782500
21
2405.284315
0
LINE
8
boundary
62
5
39
2
10
1.782500
20
2405.284315
11
1.587501
21
2363.342784
0
LINE
8
boundary
62
5
39
2
10
1.587501
20
2363.342784
11
2.278926
21
2362.098213
0
LINE
8
boundary
62
5
39
2
10
2.278926
20
2362.098213
11
2.604553
21
2361.512082
0
LINE
8
boundary
62
5
39
2
10
2.604553
20
2361.512082
11
3.981493
21
2359.033589
0
LINE
8
boundary
62
5
39
2
10
3.981493
20
2359.033589
11
147.450360
21
2358.783588
0
LINE
8
boundary
62
5
39
2
10
147.450360
20
2358.783588
11
147.450360
21
2353.883589
0
LINE
8
boundary
62
5
39
2
10
147.450360
20
2353.883589
11
7.176491
21
2353.883589
0
LINE
8
boundary
62
5
39
2
10
7.176491
20
2353.883589
11
17.193588
21
2335.251801
0
LINE
8
boundary
62
5
39
2
10
17.193588
20
2335.251801
11
32.537433
21
2307.632862
0
LINE
8
boundary
62
5
39
2
10
32.537433
20
2307.632862
11
161.728330
21
2307.382863
0
LINE
8
boundary
62
5
39
2
10
161.728330
20
2307.382863
11
161.728330
21
2302.482862
0
LINE
8
boundary
62
5
39
2
10
161.728330
20
2302.482862
11
35.732431
21
2302.482862
0
LINE
8
boundary
62
5
39
2
10
35.732431
20
2302.482862
11
48.315401
21
2279.232499
0
LINE
8
boundary
62
5
39
2
10
48.315401
20
2279.232499
11
56.918056
21
2279.232499
0
LINE
8
boundary
62
5
39
2
10
56.918056
20
2279.232499
11
77.390565
21
2279.232499
0
LINE
8
boundary
62
5
39
2
10
77.390565
20
2279.232499
11
150.309759
21
2279.232499
0
LINE
8
annotation
62
1
39
211
10
172.666829
20
2300.932862
11
172.666829
21
2308.932862
0
LINE
8
annotation
62
1
39
211
10
172.666829
20
2308.932862
11
170.888326
21
2307.153858
0
LINE
8
annotation
62
1
39
211
10
159.275852
20
2352.333524
11
155.722861
21
2352.333524
0
LINE
8
annotation
62
1
39
211
10
155.722861
20
2352.333524
11
159.005941
21
2357.618862
0
LINE
8
annotation
62
1
39
211
10
159.005941
20
2357.618862
11
159.005941
21
2357.618862
0
LINE
8
annotation
62
1
39
211
10
159.005941
20
2357.618862
11
159.009866
21
2357.623718
0
LINE
8
annotation
62
1
39
211
10
159.009866
20
2357.623718
11
159.013630
21
2357.628616
0
LINE
8
annotation
62
1
39
211
10
159.013630
20
2357.628616
11
159.017257
21
2357.633597
0
LINE
8
annotation
62
1
39
211
10
159.017257
20
2357.633597
11
159.020773
21
2357.638701
0
LINE
8
annotation
62
1
39
211
10
159.020773
20
2357.638701
11
159.024203
21
2357.643970
0
LINE
8
annotation
62
1
39
211
10
159.024203
20
2357.643970
11
159.027570
21
2357.649446
0
LINE
8
annotation
62
1
39
211
10
159.027570
20
2357.649446
11
159.030900
21
2357.655170
0
LINE
8
annotation
62
1
39
211
10
159.030900
20
2357.655170
11
159.034218
21
2357.661183
0
LINE
8
annotation
62
1
39
211
10
159.034218
20
2357.661183
11
159.037548
21
2357.667526
0
LINE
8
annotation
62
1
39
211
10
159.037548
20
2357.667526
11
159.037548
21
2357.667526
0
LINE
8
annotation
62
1
39
211
10
159.037548
20
2357.667526
11
159.173106
21
2357.958580
0
LINE
8
annotation
62
1
39
211
10
159.173106
20
2357.958580
11
159.252296
21
2358.260282
0
LINE
8
annotation
62
1
39
211
10
159.252296
20
2358.260282
11
159.277060
21
2358.565817
0
LINE
8
annotation
62
1
39
211
10
159.277060
20
2358.565817
11
159.249338
21
2358.868366
0
LINE
8
annotation
62
1
39
211
10
159.249338
20
2358.868366
11
159.171071
21
2359.161113
0
LINE
8
annotation
62
1
39
211
10
159.171071
20
2359.161113
11
159.044200
21
2359.437239
0
LINE
8
annotation
62
1
39
211
10
159.044200
20
2359.437239
11
158.870665
21
2359.689929
0
LINE
8
annotation
62
1
39
211
10
158.870665
20
2359.689929
11
158.652407
21
2359.912364
0
LINE
8
annotation
62
1
39
211
10
158.652407
20
2359.912364
11
158.391367
21
2360.097728
0
LINE
8
annotation
62
1
39
211
10
158.391367
20
2360.097728
11
158.391367
21
2360.097728
0
LINE
8
annotation
62
1
39
211
10
158.391367
20
2360.097728
11
158.099504
21
2360.231359
0
LINE
8
annotation
62
1
39
211
10
158.099504
20
2360.231359
11
157.797339
21
2360.309330
0
LINE
8
annotation
62
1
39
211
10
157.797339
20
2360.309330
11
157.491627
21
2360.333394
0
LINE
8
annotation
62
1
39
211
10
157.491627
20
2360.333394
11
157.189123
21
2360.305306
0
LINE
8
annotation
62
1
39
211
10
157.189123
20
2360.305306
11
156.896583
21
2360.226823
0
LINE
8
annotation
62
1
39
211
10
156.896583
20
2360.226823
11
156.620762
21
2360.099697
0
LINE
8
annotation
62
1
39
211
10
156.620762
20
2360.099697
11
156.368415
21
2359.925686
0
LINE
8
annotation
62
1
39
211
10
156.368415
20
2359.925686
11
156.146298
21
2359.706542
0
LINE
8
annotation
62
1
39
211
10
156.146298
20
2359.706542
11
155.961165
21
2359.444022
0
LINE
8
annotation
62
1
39
211
10
155.961165
20
2359.444022
11
155.727878
21
2358.996511
0
LINE
8
annotation
62
1
39
211
10
153.775865
20
2403.734566
11
155.552361
21
2403.734566
0
LINE
8
annotation
62
1
39
211
10
155.552361
20
2403.734566
11
155.552361
21
2403.734566
0
LINE
8
annotation
62
1
39
211
10
155.552361
20
2403.734566
11
155.871868
21
2403.763228
0
LINE
8
annotation
62
1
39
211
10
155.871868
20
2403.763228
11
156.172513
21
2403.845833
0
LINE
8
annotation
62
1
39
211
10
156.172513
20
2403.845833
11
156.449296
21
2403.977311
0
LINE
8
annotation
62
1
39
211
10
156.449296
20
2403.977311
11
156.697215
21
2404.152591
0
LINE
8
annotation
62
1
39
211
10
156.697215
20
2404.152591
11
156.911272
21
2404.366603
0
LINE
8
annotation
62
1
39
211
10
156.911272
20
2404.366603
11
157.086465
21
2404.614276
0
LINE
8
annotation
62
1
39
211
10
157.086465
20
2404.614276
11
157.217793
21
2404.890539
0
LINE
8
annotation
62
1
39
211
10
157.217793
20
2404.890539
11
157.300258
21
2405.190321
0
LINE
8
annotation
62
1
39
211
10
157.300258
20
2405.190321
11
157.328857
21
2405.508553
0
LINE
8
annotation
62
1
39
211
10
157.328857
20
2405.508553
11
157.328857
21
2406.398055
0
LINE
8
annotation
62
1
39
211
10
157.328857
20
2406.398055
11
157.328857
21
2406.398055
0
LINE
8
annotation
62
1
39
211
10
157.328857
20
2406.398055
11
157.300258
21
2406.716155
0
LINE
8
annotation
62
1
39
211
10
157.300258
20
2406.716155
11
157.217793
21
2407.015867
0
LINE
8
annotation
62
1
39
211
10
157.217793
20
2407.015867
11
157.086465
21
2407.292110
0
LINE
8
annotation
62
1
39
211
10
157.086465
20
2407.292110
11
156.911272
21
2407.539799
0
LINE
8
annotation
62
1
39
211
10
156.911272
20
2407.539799
11
156.697215
21
2407.753852
0
LINE
8
annotation
62
1
39
211
10
156.697215
20
2407.753852
11
156.449296
21
2407.929186
0
LINE
8
annotation
62
1
39
211
10
156.449296
20
2407.929186
11
156.172513
21
2408.060717
0
LINE
8
annotation
62
1
39
211
10
156.172513
20
2408.060717
11
155.871868
21
2408.143364
0
LINE
8
annotation
62
1
39
211
10
155.871868
20
2408.143364
11
155.552361
21
2408.172042
0
LINE
8
annotation
62
1
39
211
10
155.552361
20
2408.172042
11
154.662859
21
2408.172042
0
LINE
8
annotation
62
1
39
211
10
154.662859
20
2408.172042
11
155.552361
21
2408.172042
0
LINE
8
annotation
62
1
39
211
10
155.552361
20
2408.172042
11
155.552361
21
2408.172042
0
LINE
8
annotation
62
1
39
211
10
155.552361
20
2408.172042
11
155.871868
21
2408.200728
0
LINE
8
annotation
62
1
39
211
10
155.871868
20
2408.200728
11
156.172513
21
2408.283422
0
LINE
8
annotation
62
1
39
211
10
156.172513
20
2408.283422
11
156.449296
21
2408.415085
0
LINE
8
annotation
62
1
39
211
10
156.449296
20
2408.415085
11
156.697215
21
2408.590673
0
LINE
8
annotation
62
1
39
211
10
156.697215
20
2408.590673
11
156.911272
21
2408.805146
0
LINE
8
annotation
62
1
39
211
10
156.911272
20
2408.805146
11
157.086465
21
2409.053462
0
LINE
8
annotation
62
1
39
211
10
157.086465
20
2409.053462
11
157.217793
21
2409.330578
0
LINE
8
annotation
62
1
39
211
10
157.217793
20
2409.330578
11
157.300258
21
2409.631454
0
LINE
8
annotation
62
1
39
211
10
157.300258
20
2409.631454
11
157.328857
21
2409.951047
0
LINE
8
annotation
62
1
39
211
10
157.328857
20
2409.951047
11
157.328857
21
2409.951047
0
LINE
8
annotation
62
1
39
211
10
157.328857
20
2409.951047
11
157.300258
21
2410.269146
0
LINE
8
annotation
62
1
39
211
10
157.300258
20
2410.269146
11
157.217793
21
2410.568859
0
LINE
8
annotation
62
1
39
211
10
157.217793
20
2410.568859
11
157.086465
21
2410.845101
0
LINE
8
annotation
62
1
39
211
10
157.086465
20
2410.845101
11
156.911272
21
2411.092790
0
LINE
8
annotation
62
1
39
211
10
156.911272
20
2411.092790
11
156.697215
21
2411.306843
0
LINE
8
annotation
62
1
39
211
10
156.697215
20
2411.306843
11
156.449296
21
2411.482177
0
LINE
8
annotation
62
1
39
211
10
156.449296
20
2411.482177
11
156.172513
21
2411.613709
0
LINE
8
annotation
62
1
39
211
10
156.172513
20
2411.613709
11
155.871868
21
2411.696355
0
LINE
8
annotation
62
1
39
211
10
155.871868
20
2411.696355
11
155.552361
21
2411.725034
0
LINE
8
annotation
62
1
39
211
10
155.552361
20
2411.725034
11
153.775865
21
2411.725034
0
LINE
8
annotation
62
1
39
211
10
157.773357
20
2456.913544
11
153.331365
21
2456.913544
0
LINE
8
annotation
62
1
39
211
10
153.331365
20
2456.913544
11
155.105352
21
2463.135042
0
LINE
8
annotation
62
1
39
211
10
156.441863
20
2455.135042
11
156.441863
21
2458.688033
0
LINE
8
annotation
62
1
39
211
10
155.722843
20
2506.535768
11
157.499338
21
2506.535768
0
LINE
8
annotation
62
1
39
211
10
157.499338
20
2506.535768
11
157.499338
21
2506.535768
0
LINE
8
annotation
62
1
39
211
10
157.499338
20
2506.535768
11
157.818185
21
2506.564436
0
LINE
8
annotation
62
1
39
211
10
157.818185
20
2506.564436
11
158.118479
21
2506.647085
0
LINE
8
annotation
62
1
39
211
10
158.118479
20
2506.647085
11
158.395158
21
2506.778680
0
LINE
8
annotation
62
1
39
211
10
158.395158
20
2506.778680
11
158.643160
21
2506.954190
0
LINE
8
annotation
62
1
39
211
10
158.643160
20
2506.954190
11
158.857423
21
2507.168579
0
LINE
8
annotation
62
1
39
211
10
158.857423
20
2507.168579
11
159.032884
21
2507.416816
0
LINE
8
annotation
62
1
39
211
10
159.032884
20
2507.416816
11
159.164481
21
2507.693865
0
LINE
8
annotation
62
1
39
211
10
159.164481
20
2507.693865
11
159.247152
21
2507.994695
0
LINE
8
annotation
62
1
39
211
10
159.247152
20
2507.994695
11
159.275834
21
2508.314270
0
LINE
8
annotation
62
1
39
211
10
159.275834
20
2508.314270
11
159.275834
21
2509.199257
0
LINE
8
annotation
62
1
39
211
10
159.275834
20
2509.199257
11
159.275834
21
2509.199257
0
LINE
8
annotation
62
1
39
211
10
159.275834
20
2509.199257
11
159.247169
21
2509.518678
0
LINE
8
annotation
62
1
39
211
10
159.247169
20
2509.518678
11
159.164539
21
2509.819093
0
LINE
8
annotation
62
1
39
211
10
159.164539
20
2509.819093
11
159.032996
21
2510.095541
0
LINE
8
annotation
62
1
39
211
10
159.032996
20
2510.095541
11
158.857588
21
2510.343065
0
LINE
8
annotation
62
1
39
211
10
158.857588
20
2510.343065
11
158.643367
21
2510.556706
0
LINE
8
annotation
62
1
39
211
10
158.643367
20
2510.556706
11
158.395381
21
2510.731503
0
LINE
8
annotation
62
1
39
211
10
158.395381
20
2510.731503
11
158.118681
21
2510.862498
0
LINE
8
annotation
62
1
39
211
10
158.118681
20
2510.862498
11
157.818317
21
2510.944731
0
LINE
8
annotation
62
1
39
211
10
157.818317
20
2510.944731
11
157.499338
21
2510.973244
0
LINE
8
annotation
62
1
39
211
10
157.499338
20
2510.973244
11
155.722843
21
2510.973244
0
LINE
8
annotation
62
1
39
211
10
155.722843
20
2510.973244
11
155.722843
21
2514.535768
0
LINE
8
annotation
62
1
39
211
10
155.722843
20
2514.535768
11
159.275834
21
2514.535768
0
LINE
8
annotation
62
1
39
211
10
188.992712
20
2565.936494
11
188.992712
21
2565.936494
0
LINE
8
annotation
62
1
39
211
10
188.992712
20
2565.936494
11
188.483791
21
2565.745680
0
LINE
8
annotation
62
1
39
211
10
188.483791
20
2565.745680
11
188.016789
21
2565.488579
0
LINE
8
annotation
62
1
39
211
10
188.016789
20
2565.488579
11
187.596500
21
2565.171635
0
LINE
8
annotation
62
1
39
211
10
187.596500
20
2565.171635
11
187.227719
21
2564.801289
0
LINE
8
annotation
62
1
39
211
10
187.227719
20
2564.801289
11
186.915238
21
2564.383981
0
LINE
8
annotation
62
1
39
211
10
186.915238
20
2564.383981
11
186.663853
21
2563.926154
0
LINE
8
annotation
62
1
39
211
10
186.663853
20
2563.926154
11
186.478356
21
2563.434249
0
LINE
8
annotation
62
1
39
211
10
186.478356
20
2563.434249
11
186.363543
21
2562.914707
0
LINE
8
annotation
62
1
39
211
10
186.363543
20
2562.914707
11
186.324206
21
2562.373971
0
LINE
8
annotation
62
1
39
211
10
186.324206
20
2562.373971
11
186.324206
21
2559.714997
0
LINE
8
annotation
62
1
39
211
10
186.324206
20
2559.714997
11
186.324206
21
2559.714997
0
LINE
8
annotation
62
1
39
211
10
186.324206
20
2559.714997
11
186.352888
21
2559.395421
0
LINE
8
annotation
62
1
39
211
10
186.352888
20
2559.395421
11
186.435559
21
2559.094592
0
LINE
8
annotation
62
1
39
211
10
186.435559
20
2559.094592
11
186.567156
21
2558.817542
0
LINE
8
annotation
62
1
39
211
10
186.567156
20
2558.817542
11
186.742617
21
2558.569306
0
LINE
8
annotation
62
1
39
211
10
186.742617
20
2558.569306
11
186.956880
21
2558.354916
0
LINE
8
annotation
62
1
39
211
10
186.956880
20
2558.354916
11
187.204882
21
2558.179407
0
LINE
8
annotation
62
1
39
211
10
187.204882
20
2558.179407
11
187.481562
21
2558.047811
0
LINE
8
annotation
62
1
39
211
10
187.481562
20
2558.047811
11
187.781856
21
2557.965162
0
LINE
8
annotation
62
1
39
211
10
187.781856
20
2557.965162
11
188.100702
21
2557.936494
0
LINE
8
annotation
62
1
39
211
10
188.100702
20
2557.936494
11
188.100702
21
2557.936494
0
LINE
8
annotation
62
1
39
211
10
188.100702
20
2557.936494
11
188.420209
21
2557.965162
0
LINE
8
annotation
62
1
39
211
10
188.420209
20
2557.965162
11
188.720854
21
2558.047811
0
LINE
8
annotation
62
1
39
211
10
188.720854
20
2558.047811
11
188.997636
21
2558.179407
0
LINE
8
annotation
62
1
39
211
10
188.997636
20
2558.179407
11
189.245556
21
2558.354916
0
LINE
8
annotation
62
1
39
211
10
189.245556
20
2558.354916
11
189.459613
21
2558.569306
0
LINE
8
annotation
62
1
39
211
10
189.459613
20
2558.569306
11
189.634805
21
2558.817542
0
LINE
8
annotation
62
1
39
211
10
189.634805
20
2558.817542
11
189.766134
21
2559.094592
0
LINE
8
annotation
62
1
39
211
10
189.766134
20
2559.094592
11
189.848598
21
2559.395421
0
LINE
8
annotation
62
1
39
211
10
189.848598
20
2559.395421
11
189.877198
21
2559.714997
0
LINE
8
annotation
62
1
39
211
10
189.877198
20
2559.714997
11
189.877198
21
2560.599984
0
LINE
8
annotation
62
1
39
211
10
189.877198
20
2560.599984
11
189.877198
21
2560.599984
0
LINE
8
annotation
62
1
39
211
10
189.877198
20
2560.599984
11
189.848598
21
2560.919405
0
LINE
8
annotation
62
1
39
211
10
189.848598
20
2560.919405
11
189.766134
21
2561.219819
0
LINE
8
annotation
62
1
39
211
10
189.766134
20
2561.219819
11
189.634805
21
2561.496268
0
LINE
8
annotation
62
1
39
211
10
189.634805
20
2561.496268
11
189.459613
21
2561.743792
0
LINE
8
annotation
62
1
39
211
10
189.459613
20
2561.743792
11
189.245556
21
2561.957432
0
LINE
8
annotation
62
1
39
211
10
189.245556
20
2561.957432
11
188.997636
21
2562.132229
0
LINE
8
annotation
62
1
39
211
10
188.997636
20
2562.132229
11
188.720854
21
2562.263224
0
LINE
8
annotation
62
1
39
211
10
188.720854
20
2562.263224
11
188.420209
21
2562.345458
0
LINE
8
annotation
62
1
39
211
10
188.420209
20
2562.345458
11
188.100702
21
2562.373971
0
LINE
8
annotation
62
1
39
211
10
188.100702
20
2562.373971
11
186.324206
21
2562.373971
0
LINE
8
annotation
62
1
39
211
10
186.101705
20
2556.936494
11
190.101705
21
2556.936494
0
LINE
8
annotation
62
1
39
211
10
199.952249
20
2435.633324
11
188.843012
21
2419.564829
0
LINE
8
annotation
62
1
39
211
10
188.843012
20
2419.564829
11
177.731685
21
2435.633324
0
LINE
8
annotation
62
1
39
211
10
188.843012
20
2420.857912
11
188.843012
21
2402.320233
0
LINE
8
annotation
62
1
39
211
10
230.661939
20
2418.976778
11
212.448053
21
2418.976778
0
LINE
8
annotation
62
1
39
211
10
243.150431
20
2402.322322
11
250.547537
21
2402.322322
0
LINE
8
annotation
62
1
39
211
10
250.547537
20
2402.322322
11
250.547537
21
2402.322322
0
LINE
8
annotation
62
1
39
211
10
250.547537
20
2402.322322
11
251.877924
21
2402.441667
0
LINE
8
annotation
62
1
39
211
10
251.877924
20
2402.441667
11
253.129773
21
2402.785625
0
LINE
8
annotation
62
1
39
211
10
253.129773
20
2402.785625
11
254.282261
21
2403.333083
0
LINE
8
annotation
62
1
39
211
10
254.282261
20
2403.333083
11
255.314567
21
2404.062928
0
LINE
8
annotation
62
1
39
211
10
255.314567
20
2404.062928
11
256.205872
21
2404.954046
0
LINE
8
annotation
62
1
39
211
10
256.205872
20
2404.954046
11
256.935353
21
2405.985324
0
LINE
8
annotation
62
1
39
211
10
256.935353
20
2405.985324
11
257.482189
21
2407.135648
0
LINE
8
annotation
62
1
39
211
10
257.482189
20
2407.135648
11
257.825560
21
2408.383906
0
LINE
8
annotation
62
1
39
211
10
257.825560
20
2408.383906
11
257.944643
21
2409.708983
0
LINE
8
annotation
62
1
39
211
10
257.944643
20
2409.708983
11
257.944643
21
2413.412759
0
LINE
8
annotation
62
1
39
211
10
257.944643
20
2413.412759
11
257.944643
21
2413.412759
0
LINE
8
annotation
62
1
39
211
10
257.944643
20
2413.412759
11
257.825560
21
2414.737286
0
LINE
8
annotation
62
1
39
211
10
257.825560
20
2414.737286
11
257.482189
21
2415.985252
0
LINE
8
annotation
62
1
39
211
10
257.482189
20
2415.985252
11
256.935353
21
2417.135490
0
LINE
8
annotation
62
1
39
211
10
256.935353
20
2417.135490
11
256.205872
21
2418.166837
0
LINE
8
annotation
62
1
39
211
10
256.205872
20
2418.166837
11
255.314567
21
2419.058127
0
LINE
8
annotation
62
1
39
211
10
255.314567
20
2419.058127
11
254.282261
21
2419.788195
0
LINE
8
annotation
62
1
39
211
10
254.282261
20
2419.788195
11
253.129773
21
2420.335877
0
LINE
8
annotation
62
1
39
211
10
253.129773
20
2420.335877
11
251.877924
21
2420.680007
0
LINE
8
annotation
62
1
39
211
10
251.877924
20
2420.680007
11
250.547537
21
2420.799420
0
LINE
8
annotation
62
1
39
211
10
250.547537
20
2420.799420
11
246.843762
21
2420.799420
0
LINE
8
annotation
62
1
39
211
10
246.843762
20
2420.799420
11
250.547537
21
2420.799420
0
LINE
8
annotation
62
1
39
211
10
250.547537
20
2420.799420
11
250.547537
21
2420.799420
0
LINE
8
annotation
62
1
39
211
10
250.547537
20
2420.799420
11
251.877924
21
2420.918862
0
LINE
8
annotation
62
1
39
211
10
251.877924
20
2420.918862
11
253.129773
21
2421.263193
0
LINE
8
annotation
62
1
39
211
10
253.129773
20
2421.263193
11
254.282261
21
2421.811419
0
LINE
8
annotation
62
1
39
211
10
254.282261
20
2421.811419
11
255.314567
21
2422.542548
0
LINE
8
annotation
62
1
39
211
10
255.314567
20
2422.542548
11
256.205872
21
2423.435586
0
LINE
8
annotation
62
1
39
211
10
256.205872
20
2423.435586
11
256.935353
21
2424.469540
0
LINE
8
annotation
62
1
39
211
10
256.935353
20
2424.469540
11
257.482189
21
2425.623418
0
LINE
8
annotation
62
1
39
211
10
257.482189
20
2425.623418
11
257.825560
21
2426.876226
0
LINE
8
annotation
62
1
39
211
10
257.825560
20
2426.876226
11
257.944643
21
2428.206972
0
LINE
8
annotation
62
1
39
211
10
257.944643
20
2428.206972
11
257.944643
21
2428.206972
0
LINE
8
annotation
62
1
39
211
10
257.944643
20
2428.206972
11
257.825560
21
2429.531499
0
LINE
8
annotation
62
1
39
211
10
257.825560
20
2429.531499
11
257.482189
21
2430.779464
0
LINE
8
annotation
62
1
39
211
10
257.482189
20
2430.779464
11
256.935353
21
2431.929703
0
LINE
8
annotation
62
1
39
211
10
256.935353
20
2431.929703
11
256.205872
21
2432.961050
0
LINE
8
annotation
62
1
39
211
10
256.205872
20
2432.961050
11
255.314567
21
2433.852340
0
LINE
8
annotation
62
1
39
211
10
255.314567
20
2433.852340
11
254.282261
21
2434.582408
0
LINE
8
annotation
62
1
39
211
10
254.282261
20
2434.582408
11
253.129773
21
2435.130090
0
LINE
8
annotation
62
1
39
211
10
253.129773
20
2435.130090
11
251.877924
21
2435.474220
0
LINE
8
annotation
62
1
39
211
10
251.877924
20
2435.474220
11
250.547537
21
2435.593633
0
LINE
8
annotation
62
1
39
211
10
250.547537
20
2435.593633
11
243.150431
21
2435.593633
0
LINE
8
boundary
62
5
39
2
10
274.768004
20
2595.554444
11
274.768004
21
2601.202686
0
LINE
8
boundary
62
5
39
2
10
274.768004
20
2601.202686
11
274.768004
21
2643.661414
0
LINE
8
boundary
62
5
39
2
10
274.768004
20
2643.661414
11
274.768004
21
2685.662150
0
LINE
8
boundary
62
5
39
2
10
274.768004
20
2685.662150
11
274.768004
21
2769.390672
0
LINE
8
boundary
62
5
39
2
10
274.768004
20
2769.390672
11
274.768004
21
2804.365935
0
LINE
8
boundary
62
5
39
2
10
274.768004
20
2804.365935
11
274.768004
21
2846.366666
0
LINE
8
boundary
62
5
39
2
10
274.768004
20
2846.366666
11
274.768004
21
2888.825389
0
LINE
8
boundary
62
5
39
2
10
274.768004
20
2888.825389
11
274.768004
21
2894.473631
0
LINE
8
boundary
62
5
39
2
10
274.768004
20
2894.473631
11
274.768004
21
2899.216217
0
LINE
8
boundary
62
5
39
2
10
274.768004
20
2899.216217
11
261.510775
21
2899.216217
0
LINE
8
boundary
62
5
39
2
10
261.510775
20
2899.216217
11
92.917667
21
2878.552047
0
LINE
8
boundary
62
5
39
2
10
92.917667
20
2878.552047
11
76.988386
21
2876.594656
0
LINE
8
boundary
62
5
39
2
10
76.988386
20
2876.594656
11
73.905668
21
2876.215853
0
LINE
8
boundary
62
5
39
2
10
73.905668
20
2876.215853
11
163.300480
21
2875.965854
0
LINE
8
boundary
62
5
39
2
10
163.300480
20
2875.965854
11
163.300480
21
2871.065854
0
LINE
8
boundary
62
5
39
2
10
163.300480
20
2871.065854
11
34.731042
21
2871.065854
0
LINE
8
boundary
62
5
39
2
10
34.731042
20
2871.065854
11
13.881708
21
2833.638098
0
LINE
8
boundary
62
5
39
2
10
13.881708
20
2833.638098
11
8.980007
21
2824.815127
0
LINE
8
boundary
62
5
39
2
10
8.980007
20
2824.815127
11
140.393445
21
2824.565127
0
LINE
8
boundary
62
5
39
2
10
140.393445
20
2824.565127
11
140.393445
21
2819.665127
0
LINE
8
boundary
62
5
39
2
10
140.393445
20
2819.665127
11
6.174997
21
2819.665127
0
LINE
8
boundary
62
5
39
2
10
6.174997
20
2819.665127
11
1.587500
21
2811.508622
0
LINE
8
boundary
62
5
39
2
10
1.587500
20
2811.508622
11
1.587688
21
2773.414400
0
LINE
8
boundary
62
5
39
2
10
1.587688
20
2773.414400
11
138.127846
21
2773.164400
0
LINE
8
boundary
62
5
39
2
10
138.127846
20
2773.164400
11
138.127846
21
2768.264401
0
LINE
8
boundary
62
5
39
2
10
138.127846
20
2768.264401
11
1.782687
21
2768.264401
0
LINE
8
boundary
62
5
39
2
10
1.782687
20
2768.264401
11
1.587688
21
2722.013674
0
LINE
8
boundary
62
5
39
2
10
1.587688
20
2722.013674
11
138.127846
21
2721.763674
0
LINE
8
boundary
62
5
39
2
10
138.127846
20
2721.763674
11
138.127846
21
2716.863674
0
LINE
8
boundary
62
5
39
2
10
138.127846
20
2716.863674
11
1.782688
21
2716.863674
0
LINE
8
boundary
62
5
39
2
10
1.782688
20
2716.863674
11
1.587688
21
2699.410142
0
LINE
8
boundary
62
5
39
2
10
1.587688
20
2699.410142
11
1.587688
21
2678.322358
0
LINE
8
boundary
62
5
39
2
10
1.587688
20
2678.322358
11
1.587701
21
2676.650375
0
LINE
8
boundary
62
5
39
2
10
1.587701
20
2676.650375
11
4.941828
21
2670.612947
0
LINE
8
boundary
62
5
39
2
10
4.941828
20
2670.612947
11
139.874361
21
2670.362947
0
LINE
8
boundary
62
5
39
2
10
139.874361
20
2670.362947
11
139.874360
21
2665.462948
0
LINE
8
boundary
62
5
39
2
10
139.874360
20
2665.462948
11
8.136825
21
2665.462948
0
LINE
8
boundary
62
5
39
2
10
8.136825
20
2665.462948
11
28.265801
21
2628.629631
0
LINE
8
boundary
62
5
39
2
10
28.265801
20
2628.629631
11
33.497694
21
2619.212218
0
LINE
8
boundary
62
5
39
2
10
33.497694
20
2619.212218
11
154.152293
21
2618.962221
0
LINE
8
boundary
62
5
39
2
10
154.152293
20
2618.962221
11
154.152293
21
2614.062221
0
LINE
8
boundary
62
5
39
2
10
154.152293
20
2614.062221
11
36.692690
21
2614.062221
0
LINE
8
boundary
62
5
39
2
10
36.692690
20
2614.062221
11
49.275661
21
2590.811858
0
LINE
8
boundary
62
5
39
2
10
49.275661
20
2590.811858
11
61.664455
21
2590.811858
0
LINE
8
boundary
62
5
39
2
10
61.664455
20
2590.811858
11
62.639340
21
2590.811858
0
LINE
8
boundary
62
5
39
2
10
62.639340
20
2590.811858
11
268.138957
21
2590.811858
0
LINE
8
boundary
62
5
39
2
10
268.138957
20
2590.811858
11
274.768004
21
2590.811858
0
LINE
8
boundary
62
5
39
2
10
274.768004
20
2590.811858
11
274.768004
21
2595.554444
0
LINE
8
annotation
62
1
39
211
10
165.090791
20
2612.512221
11
165.090791
21
2620.512221
0
LINE
8
annotation
62
1
39
211
10
165.090791
20
2620.512221
11
163.312289
21
2618.733217
0
LINE
8
annotation
62
1
39
211
10
151.699853
20
2663.912883
11
148.146861
21
2663.912883
0
LINE
8
annotation
62
1
39
211
10
148.146861
20
2663.912883
11
151.429942
21
2669.198221
0
LINE
8
annotation
62
1
39
211
10
151.429942
20
2669.198221
11
151.429942
21
2669.198221
0
LINE
8
annotation
62
1
39
211
10
151.429942
20
2669.198221
11
151.433867
21
2669.203077
0
LINE
8
annotation
62
1
39
211
10
151.433867
20
2669.203077
11
151.437630
21
2669.207975
0
LINE
8
annotation
62
1
39
211
10
151.437630
20
2669.207975
11
151.441258
21
2669.212956
0
LINE
8
annotation
62
1
39
211
10
151.441258
20
2669.212956
11
151.444774
21
2669.218060
0
LINE
8
annotation
62
1
39
211
10
151.444774
20
2669.218060
11
151.448203
21
2669.223329
0
LINE
8
annotation
62
1
39
211
10
151.448203
20
2669.223329
11
151.451570
21
2669.228805
0
LINE
8
annotation
62
1
39
211
10
151.451570
20
2669.228805
11
151.454900
21
2669.234529
0
LINE
8
annotation
62
1
39
211
10
151.454900
20
2669.234529
11
151.458218
21
2669.240542
0
LINE
8
annotation
62
1
39
211
10
151.458218
20
2669.240542
11
151.461548
21
2669.246885
0
LINE
8
annotation
62
1
39
211
10
151.461548
20
2669.246885
11
151.461548
21
2669.246885
0
LINE
8
annotation
62
1
39
211
10
151.461548
20
2669.246885
11
151.597106
21
2669.537939
0
LINE
8
annotation
62
1
39
211
10
151.597106
20
2669.537939
11
151.676297
21
2669.839641
0
LINE
8
annotation
62
1
39
211
10
151.676297
20
2669.839641
11
151.701060
21
2670.145176
0
LINE
8
annotation
62
1
39
211
10
151.701060
20
2670.145176
11
151.673339
21
2670.447725
0
LINE
8
annotation
62
1
39
211
10
151.673339
20
2670.447725
11
151.595072
21
2670.740472
0
LINE
8
annotation
62
1
39
211
10
151.595072
20
2670.740472
11
151.468201
21
2671.016598
0
LINE
8
annotation
62
1
39
211
10
151.468201
20
2671.016598
11
151.294666
21
2671.269288
0
LINE
8
annotation
62
1
39
211
10
151.294666
20
2671.269288
11
151.076408
21
2671.491723
0
LINE
8
annotation
62
1
39
211
10
151.076408
20
2671.491723
11
150.815368
21
2671.677087
0
LINE
8
annotation
62
1
39
211
10
150.815368
20
2671.677087
11
150.815368
21
2671.677087
0
LINE
8
annotation
62
1
39
211
10
150.815368
20
2671.677087
11
150.523505
21
2671.810718
0
LINE
8
annotation
62
1
39
211
10
150.523505
20
2671.810718
11
150.221339
21
2671.888688
0
LINE
8
annotation
62
1
39
211
10
150.221339
20
2671.888688
11
149.915627
21
2671.912753
0
LINE
8
annotation
62
1
39
211
10
149.915627
20
2671.912753
11
149.613123
21
2671.884665
0
LINE
8
annotation
62
1
39
211
10
149.613123
20
2671.884665
11
149.320583
21
2671.806182
0
LINE
8
annotation
62
1
39
211
10
149.320583
20
2671.806182
11
149.044762
21
2671.679056
0
LINE
8
annotation
62
1
39
211
10
149.044762
20
2671.679056
11
148.792415
21
2671.505045
0
LINE
8
annotation
62
1
39
211
10
148.792415
20
2671.505045
11
148.570298
21
2671.285901
0
LINE
8
annotation
62
1
39
211
10
148.570298
20
2671.285901
11
148.385166
21
2671.023381
0
LINE
8
annotation
62
1
39
211
10
148.385166
20
2671.023381
11
148.151878
21
2670.575870
0
LINE
8
annotation
62
1
39
211
10
146.400347
20
2715.313925
11
148.176842
21
2715.313925
0
LINE
8
annotation
62
1
39
211
10
148.176842
20
2715.313925
11
148.176842
21
2715.313925
0
LINE
8
annotation
62
1
39
211
10
148.176842
20
2715.313925
11
148.496350
21
2715.342587
0
LINE
8
annotation
62
1
39
211
10
148.496350
20
2715.342587
11
148.796994
21
2715.425192
0
LINE
8
annotation
62
1
39
211
10
148.796994
20
2715.425192
11
149.073777
21
2715.556670
0
LINE
8
annotation
62
1
39
211
10
149.073777
20
2715.556670
11
149.321697
21
2715.731950
0
LINE
8
annotation
62
1
39
211
10
149.321697
20
2715.731950
11
149.535753
21
2715.945962
0
LINE
8
annotation
62
1
39
211
10
149.535753
20
2715.945962
11
149.710946
21
2716.193635
0
LINE
8
annotation
62
1
39
211
10
149.710946
20
2716.193635
11
149.842275
21
2716.469898
0
LINE
8
annotation
62
1
39
211
10
149.842275
20
2716.469898
11
149.924739
21
2716.769680
0
LINE
8
annotation
62
1
39
211
10
149.924739
20
2716.769680
11
149.953338
21
2717.087912
0
LINE
8
annotation
62
1
39
211
10
149.953338
20
2717.087912
11
149.953338
21
2717.977414
0
LINE
8
annotation
62
1
39
211
10
149.953338
20
2717.977414
11
149.953338
21
2717.977414
0
LINE
8
annotation
62
1
39
211
10
149.953338
20
2717.977414
11
149.924739
21
2718.295514
0
LINE
8
annotation
62
1
39
211
10
149.924739
20
2718.295514
11
149.842275
21
2718.595226
0
LINE
8
annotation
62
1
39
211
10
149.842275
20
2718.595226
11
149.710946
21
2718.871469
0
LINE
8
annotation
62
1
39
211
10
149.710946
20
2718.871469
11
149.535753
21
2719.119158
0
LINE
8
annotation
62
1
39
211
10
149.535753
20
2719.119158
11
149.321697
21
2719.333211
0
LINE
8
annotation
62
1
39
211
10
149.321697
20
2719.333211
11
149.073777
21
2719.508545
0
LINE
8
annotation
62
1
39
211
10
149.073777
20
2719.508545
11
148.796994
21
2719.640076
0
LINE
8
annotation
62
1
39
211
10
148.796994
20
2719.640076
11
148.496350
21
2719.722723
0
LINE
8
annotation
62
1
39
211
10
148.496350
20
2719.722723
11
148.176842
21
2719.751401
0
LINE
8
annotation
62
1
39
211
10
148.176842
20
2719.751401
11
147.287340
21
2719.751401
0
LINE
8
annotation
62
1
39
211
10
147.287340
20
2719.751401
11
148.176842
21
2719.751401
0
LINE
8
annotation
62
1
39
211
10
148.176842
20
2719.751401
11
148.176842
21
2719.751401
0
LINE
8
annotation
62
1
39
211
10
148.176842
20
2719.751401
11
148.496350
21
2719.780087
0
LINE
8
annotation
62
1
39
211
10
148.496350
20
2719.780087
11
148.796994
21
2719.862781
0
LINE
8
annotation
62
1
39
211
10
148.796994
20
2719.862781
11
149.073777
21
2719.994444
0
LINE
8
annotation
62
1
39
211
10
149.073777
20
2719.994444
11
149.321697
21
2720.170032
0
LINE
8
annotation
62
1
39
211
10
149.321697
20
2720.170032
11
149.535753
21
2720.384505
0
LINE
8
annotation
62
1
39
211
10
149.535753
20
2720.384505
11
149.710946
21
2720.632821
0
LINE
8
annotation
62
1
39
211
10
149.710946
20
2720.632821
11
149.842275
21
2720.909937
0
LINE
8
annotation
62
1
39
211
10
149.842275
20
2720.909937
11
149.924739
21
2721.210813
0
LINE
8
annotation
62
1
39
211
10
149.924739
20
2721.210813
11
149.953338
21
2721.530406
0
LINE
8
annotation
62
1
39
211
10
149.953338
20
2721.530406
11
149.953338
21
2721.530406
0
LINE
8
annotation
62
1
39
211
10
149.953338
20
2721.530406
11
149.924739
21
2721.848505
0
LINE
8
annotation
62
1
39
211
10
149.924739
20
2721.848505
11
149.842275
21
2722.148218
0
LINE
8
annotation
62
1
39
211
10
149.842275
20
2722.148218
11
149.710946
21
2722.424460
0
LINE
8
annotation
62
1
39
211
10
149.710946
20
2722.424460
11
149.535753
21
2722.672149
0
LINE
8
annotation
62
1
39
211
10
149.535753
20
2722.672149
11
149.321697
21
2722.886202
0
LINE
8
annotation
62
1
39
211
10
149.321697
20
2722.886202
11
149.073777
21
2723.061536
0
LINE
8
annotation
62
1
39
211
10
149.073777
20
2723.061536
11
148.796994
21
2723.193068
0
LINE
8
annotation
62
1
39
211
10
148.796994
20
2723.193068
11
148.496350
21
2723.275714
0
LINE
8
annotation
62
1
39
211
10
148.496350
20
2723.275714
11
148.176842
21
2723.304393
0
LINE
8
annotation
62
1
39
211
10
148.176842
20
2723.304393
11
146.400347
21
2723.304393
0
LINE
8
annotation
62
1
39
211
10
150.397838
20
2768.492903
11
145.955846
21
2768.492903
0
LINE
8
annotation
62
1
39
211
10
145.955846
20
2768.492903
11
147.729834
21
2774.714400
0
LINE
8
annotation
62
1
39
211
10
149.066344
20
2766.714400
11
149.066344
21
2770.267392
0
LINE
8
annotation
62
1
39
211
10
148.665946
20
2818.115127
11
150.442441
21
2818.115127
0
LINE
8
annotation
62
1
39
211
10
150.442441
20
2818.115127
11
150.442441
21
2818.115127
0
LINE
8
annotation
62
1
39
211
10
150.442441
20
2818.115127
11
150.761288
21
2818.143795
0
LINE
8
annotation
62
1
39
211
10
150.761288
20
2818.143795
11
151.061582
21
2818.226444
0
LINE
8
annotation
62
1
39
211
10
151.061582
20
2818.226444
11
151.338261
21
2818.358039
0
LINE
8
annotation
62
1
39
211
10
151.338261
20
2818.358039
11
151.586263
21
2818.533549
0
LINE
8
annotation
62
1
39
211
10
151.586263
20
2818.533549
11
151.800526
21
2818.747938
0
LINE
8
annotation
62
1
39
211
10
151.800526
20
2818.747938
11
151.975988
21
2818.996175
0
LINE
8
annotation
62
1
39
211
10
151.975988
20
2818.996175
11
152.107585
21
2819.273224
0
LINE
8
annotation
62
1
39
211
10
152.107585
20
2819.273224
11
152.190255
21
2819.574054
0
LINE
8
annotation
62
1
39
211
10
152.190255
20
2819.574054
11
152.218937
21
2819.893629
0
LINE
8
annotation
62
1
39
211
10
152.218937
20
2819.893629
11
152.218937
21
2820.778616
0
LINE
8
annotation
62
1
39
211
10
152.218937
20
2820.778616
11
152.218937
21
2820.778616
0
LINE
8
annotation
62
1
39
211
10
152.218937
20
2820.778616
11
152.190272
21
2821.098037
0
LINE
8
annotation
62
1
39
211
10
152.190272
20
2821.098037
11
152.107642
21
2821.398452
0
LINE
8
annotation
62
1
39
211
10
152.107642
20
2821.398452
11
151.976099
21
2821.674900
0
LINE
8
annotation
62
1
39
211
10
151.976099
20
2821.674900
11
151.800692
21
2821.922424
0
LINE
8
annotation
62
1
39
211
10
151.800692
20
2821.922424
11
151.586470
21
2822.136065
0
LINE
8
annotation
62
1
39
211
10
151.586470
20
2822.136065
11
151.338484
21
2822.310862
0
LINE
8
annotation
62
1
39
211
10
151.338484
20
2822.310862
11
151.061784
21
2822.441856
0
LINE
8
annotation
62
1
39
211
10
151.061784
20
2822.441856
11
150.761420
21
2822.524090
0
LINE
8
annotation
62
1
39
211
10
150.761420
20
2822.524090
11
150.442441
21
2822.552603
0
LINE
8
annotation
62
1
39
211
10
150.442441
20
2822.552603
11
148.665946
21
2822.552603
0
LINE
8
annotation
62
1
39
211
10
148.665946
20
2822.552603
11
148.665946
21
2826.115127
0
LINE
8
annotation
62
1
39
211
10
148.665946
20
2826.115127
11
152.218937
21
2826.115127
0
LINE
8
annotation
62
1
39
211
10
174.241488
20
2877.515853
11
174.241488
21
2877.515853
0
LINE
8
annotation
62
1
39
211
10
174.241488
20
2877.515853
11
173.732566
21
2877.325039
0
LINE
8
annotation
62
1
39
211
10
173.732566
20
2877.325039
11
173.265564
21
2877.067938
0
LINE
8
annotation
62
1
39
211
10
173.265564
20
2877.067938
11
172.845275
21
2876.750994
0
LINE
8
annotation
62
1
39
211
10
172.845275
20
2876.750994
11
172.476494
21
2876.380648
0
LINE
8
annotation
62
1
39
211
10
172.476494
20
2876.380648
11
172.164013
21
2875.963340
0
LINE
8
annotation
62
1
39
211
10
172.164013
20
2875.963340
11
171.912628
21
2875.505513
0
LINE
8
annotation
62
1
39
211
10
171.912628
20
2875.505513
11
171.727131
21
2875.013608
0
LINE
8
annotation
62
1
39
211
10
171.727131
20
2875.013608
11
171.612318
21
2874.494066
0
LINE
8
annotation
62
1
39
211
10
171.612318
20
2874.494066
11
171.572981
21
2873.953330
0
LINE
8
annotation
62
1
39
211
10
171.572981
20
2873.953330
11
171.572981
21
2871.294356
0
LINE
8
annotation
62
1
39
211
10
171.572981
20
2871.294356
11
171.572981
21
2871.294356
0
LINE
8
annotation
62
1
39
211
10
171.572981
20
2871.294356
11
171.601663
21
2870.974780
0
LINE
8
annotation
62
1
39
211
10
171.601663
20
2870.974780
11
171.684334
21
2870.673951
0
LINE
8
annotation
62
1
39
211
10
171.684334
20
2870.673951
11
171.815931
21
2870.396901
0
LINE
8
annotation
62
1
39
211
10
171.815931
20
2870.396901
11
171.991392
21
2870.148665
0
LINE
8
annotation
62
1
39
211
10
171.991392
20
2870.148665
11
172.205655
21
2869.934275
0
LINE
8
annotation
62
1
39
211
10
172.205655
20
2869.934275
11
172.453657
21
2869.758766
0
LINE
8
annotation
62
1
39
211
10
172.453657
20
2869.758766
11
172.730337
21
2869.627170
0
LINE
8
annotation
62
1
39
211
10
172.730337
20
2869.627170
11
173.030631
21
2869.544521
0
LINE
8
annotation
62
1
39
211
10
173.030631
20
2869.544521
11
173.349477
21
2869.515853
0
LINE
8
annotation
62
1
39
211
10
173.349477
20
2869.515853
11
173.349477
21
2869.515853
0
LINE
8
annotation
62
1
39
211
10
173.349477
20
2869.515853
11
173.668984
21
2869.544521
0
LINE
8
annotation
62
1
39
211
10
173.668984
20
2869.544521
11
173.969629
21
2869.627170
0
LINE
8
annotation
62
1
39
211
10
173.969629
20
2869.627170
11
174.246412
21
2869.758766
0
LINE
8
annotation
62
1
39
211
10
174.246412
20
2869.758766
11
174.494331
21
2869.934275
0
LINE
8
annotation
62
1
39
211
10
174.494331
20
2869.934275
11
174.708388
21
2870.148665
0
LINE
8
annotation
62
1
39
211
10
174.708388
20
2870.148665
11
174.883581
21
2870.396901
0
LINE
8
annotation
62
1
39
211
10
174.883581
20
2870.396901
11
175.014909
21
2870.673951
0
LINE
8
annotation
62
1
39
211
10
175.014909
20
2870.673951
11
175.097374
21
2870.974780
0
LINE
8
annotation
62
1
39
211
10
175.097374
20
2870.974780
11
175.125973
21
2871.294356
0
LINE
8
annotation
62
1
39
211
10
175.125973
20
2871.294356
11
175.125973
21
2872.179343
0
LINE
8
annotation
62
1
39
211
10
175.125973
20
2872.179343
11
175.125973
21
2872.179343
0
LINE
8
annotation
62
1
39
211
10
175.125973
20
2872.179343
11
175.097374
21
2872.498764
0
LINE
8
annotation
62
1
39
211
10
175.097374
20
2872.498764
11
175.014909
21
2872.799178
0
LINE
8
annotation
62
1
39
211
10
175.014909
20
2872.799178
11
174.883581
21
2873.075627
0
LINE
8
annotation
62
1
39
211
10
174.883581
20
2873.075627
11
174.708388
21
2873.323151
0
LINE
8
annotation
62
1
39
211
10
174.708388
20
2873.323151
11
174.494331
21
2873.536791
0
LINE
8
annotation
62
1
39
211
10
174.494331
20
2873.536791
11
174.246412
21
2873.711588
0
LINE
8
annotation
62
1
39
211
10
174.246412
20
2873.711588
11
173.969629
21
2873.842583
0
LINE
8
annotation
62
1
39
211
10
173.969629
20
2873.842583
11
173.668984
21
2873.924817
0
LINE
8
annotation
62
1
39
211
10
173.668984
20
2873.924817
11
173.349477
21
2873.953330
0
LINE
8
annotation
62
1
39
211
10
173.349477
20
2873.953330
11
171.572981
21
2873.953330
0
LINE
8
annotation
62
1
39
211
10
171.350480
20
2868.515853
11
175.350480
21
2868.515853
0
LINE
8
annotation
62
1
39
211
10
186.719632
20
2772.042064
11
171.907315
21
2750.617404
0
LINE
8
annotation
62
1
39
211
10
171.907315
20
2750.617404
11
157.092213
21
2772.042064
0
LINE
8
annotation
62
1
39
211
10
171.907315
20
2752.341516
11
171.907315
21
2727.624610
0
LINE
8
annotation
62
1
39
211
10
227.665885
20
2749.833337
11
203.380704
21
2749.833337
0
LINE
8
annotation
62
1
39
211
10
254.192550
20
2727.626003
11
254.192550
21
2772.040672
0
LINE
8
annotation
62
1
39
211
10
254.192550
20
2772.040672
11
244.318600
21
2762.163937
0
LINE
8
boundary
62
5
39
2
10
655.874617
20
1.587500
11
655.874617
21
11.978237
0
LINE
8
boundary
62
5
39
2
10
655.874617
20
11.978237
11
655.874617
21
54.436802
0
LINE
8
boundary
62
5
39
2
10
655.874617
20
54.436802
11
655.874617
21
96.437792
0
LINE
8
boundary
62
5
39
2
10
655.874617
20
96.437792
11
655.874617
21
131.413055
0
LINE
8
boundary
62
5
39
2
10
655.874617
20
131.413055
11
655.874617
21
215.141577
0
LINE
8
boundary
62
5
39
2
10
655.874617
20
215.141577
11
655.874617
21
257.142563
0
LINE
8
boundary
62
5
39
2
10
655.874617
20
257.142563
11
655.874616
21
299.601122
0
LINE
8
boundary
62
5
39
2
10
655.874616
20
299.601122
11
655.874617
21
309.991859
0
LINE
8
boundary
62
5
39
2
10
655.874617
20
309.991859
11
642.189733
21
309.991859
0
LINE
8
boundary
62
5
39
2
10
642.189733
20
309.991859
11
636.765071
21
309.325277
0
LINE
8
boundary
62
5
39
2
10
636.765071
20
309.325277
11
458.094998
21
287.370299
0
LINE
8
boundary
62
5
39
2
10
458.094998
20
287.370299
11
455.012285
21
286.991495
0
LINE
8
boundary
62
5
39
2
10
455.012285
20
286.991495
11
544.407093
21
286.741495
0
LINE
8
boundary
62
5
39
2
10
544.407093
20
286.741495
11
544.407094
21
281.841495
0
LINE
8
boundary
62
5
39
2
10
544.407094
20
281.841495
11
415.837746
21
281.841496
0
LINE
8
boundary
62
5
39
2
10
415.837746
20
281.841496
11
394.988468
21
244.413840
0
LINE
8
boundary
62
5
39
2
10
394.988468
20
244.413840
11
390.086721
21
235.590769
0
LINE
8
boundary
62
5
39
2
10
390.086721
20
235.590769
11
521.500110
21
235.340769
0
LINE
8
boundary
62
5
39
2
10
521.500110
20
235.340769
11
521.500110
21
230.440769
0
LINE
8
boundary
62
5
39
2
10
521.500110
20
230.440769
11
387.281714
21
230.440769
0
LINE
8
boundary
62
5
39
2
10
387.281714
20
230.440769
11
382.694204
21
222.284241
0
LINE
8
boundary
62
5
39
2
10
382.694204
20
222.284241
11
382.694209
21
184.190042
0
LINE
8
boundary
62
5
39
2
10
382.694209
20
184.190042
11
519.234413
21
183.940043
0
LINE
8
boundary
62
5
39
2
10
519.234413
20
183.940043
11
519.234413
21
179.040043
0
LINE
8
boundary
62
5
39
2
10
519.234413
20
179.040043
11
382.889209
21
179.040042
0
LINE
8
boundary
62
5
39
2
10
382.889209
20
179.040042
11
382.694210
21
132.789316
0
LINE
8
boundary
62
5
39
2
10
382.694210
20
132.789316
11
519.234413
21
132.539316
0
LINE
8
boundary
62
5
39
2
10
519.234413
20
132.539316
11
519.234413
21
127.639316
0
LINE
8
boundary
62
5
39
2
10
519.234413
20
127.639316
11
382.889210
21
127.639316
0
LINE
8
boundary
62
5
39
2
10
382.889210
20
127.639316
11
382.694210
21
110.185633
0
LINE
8
boundary
62
5
39
2
10
382.694210
20
110.185633
11
382.694210
21
89.097980
0
LINE
8
boundary
62
5
39
2
10
382.694210
20
89.097980
11
382.694314
21
87.426018
0
LINE
8
boundary
62
5
39
2
10
382.694314
20
87.426018
11
386.048440
21
81.388589
0
LINE
8
boundary
62
5
39
2
10
386.048440
20
81.388589
11
520.980973
21
81.138590
0
LINE
8
boundary
62
5
39
2
10
520.980973
20
81.138590
11
520.980973
21
76.238590
0
LINE
8
boundary
62
5
39
2
10
520.980973
20
76.238590
11
389.243440
21
76.238590
0
LINE
8
boundary
62
5
39
2
10
389.243440
20
76.238590
11
409.372595
21
39.405074
0
LINE
8
boundary
62
5
39
2
10
409.372595
20
39.405074
11
414.604377
21
29.987861
0
LINE
8
boundary
62
5
39
2
10
414.604377
20
29.987861
11
535.258940
21
29.737863
0
LINE
8
boundary
62
5
39
2
10
535.258940
20
29.737863
11
535.258940
21
24.837864
0
LINE
8
boundary
62
5
39
2
10
535.258940
20
24.837864
11
417.799373
21
24.837863
0
LINE
8
boundary
62
5
39
2
10
417.799373
20
24.837863
11
430.382345
21
1.587500
0
LINE
8
boundary
62
5
39
2
10
430.382345
20
1.587500
11
443.745953
21
1.587500
0
LINE
8
boundary
62
5
39
2
10
443.745953
20
1.587500
11
450.374935
21
1.587501
0
LINE
8
boundary
62
5
39
2
10
450.374935
20
1.587501
11
655.874617
21
1.587500
0
LINE
8
annotation
62
1
39
211
10
546.197439
20
23.287863
11
546.197439
21
31.287863
0
LINE
8
annotation
62
1
39
211
10
546.197439
20
31.287863
11
544.418937
21
29.508859
0
LINE
8
annotation
62
1
39
211
10
532.806465
20
74.688525
11
529.253474
21
74.688525
0
LINE
8
annotation
62
1
39
211
10
529.253474
20
74.688525
11
532.536554
21
79.973863
0
LINE
8
annotation
62
1
39
211
10
532.536554
20
79.973863
11
532.536554
21
79.973863
0
LINE
8
annotation
62
1
39
211
10
532.536554
20
79.973863
11
532.540479
21
79.978719
0
LINE
8
annotation
62
1
39
211
10
532.540479
20
79.978719
11
532.544243
21
79.983617
0
LINE
8
annotation
62
1
39
211
10
532.544243
20
79.983617
11
532.547870
21
79.988598
0
LINE
8
annotation
62
1
39
211
10
532.547870
20
79.988598
11
532.551386
21
79.993702
0
LINE
8
annotation
62
1
39
211
10
532.551386
20
79.993702
11
532.554816
21
79.998972
0
LINE
8
annotation
62
1
39
211
10
532.554816
20
79.998972
11
532.558183
21
80.004447
0
LINE
8
annotation
62
1
39
211
10
532.558183
20
80.004447
11
532.561513
21
80.010171
0
LINE
8
annotation
62
1
39
211
10
532.561513
20
80.010171
11
532.564831
21
80.016184
0
LINE
8
annotation
62
1
39
211
10
532.564831
20
80.016184
11
532.568161
21
80.022527
0
LINE
8
annotation
62
1
39
211
10
532.568161
20
80.022527
11
532.568161
21
80.022527
0
LINE
8
annotation
62
1
39
211
10
532.568161
20
80.022527
11
532.703719
21
80.313581
0
LINE
8
annotation
62
1
39
211
10
532.703719
20
80.313581
11
532.782909
21
80.615283
0
LINE
8
annotation
62
1
39
211
10
532.782909
20
80.615283
11
532.807673
21
80.920818
0
LINE
8
annotation
62
1
39
211
10
532.807673
20
80.920818
11
532.779951
21
81.223367
0
LINE
8
annotation
62
1
39
211
10
532.779951
20
81.223367
11
532.701684
21
81.516114
0
LINE
8
annotation
62
1
39
211
10
532.701684
20
81.516114
11
532.574813
21
81.792241
0
LINE
8
annotation
62
1
39
211
10
532.574813
20
81.792241
11
532.401278
21
82.044930
0
LINE
8
annotation
62
1
39
211
10
532.401278
20
82.044930
11
532.183020
21
82.267365
0
LINE
8
annotation
62
1
39
211
10
532.183020
20
82.267365
11
531.921980
21
82.452729
0
LINE
8
annotation
62
1
39
211
10
531.921980
20
82.452729
11
531.921980
21
82.452729
0
LINE
8
annotation
62
1
39
211
10
531.921980
20
82.452729
11
531.630117
21
82.586360
0
LINE
8
annotation
62
1
39
211
10
531.630117
20
82.586360
11
531.327952
21
82.664331
0
LINE
8
annotation
62
1
39
211
10
531.327952
20
82.664331
11
531.022240
21
82.688395
0
LINE
8
annotation
62
1
39
211
10
531.022240
20
82.688395
11
530.719736
21
82.660307
0
LINE
8
annotation
62
1
39
211
10
530.719736
20
82.660307
11
530.427196
21
82.581824
0
LINE
8
annotation
62
1
39
211
10
530.427196
20
82.581824
11
530.151375
21
82.454699
0
LINE
8
annotation
62
1
39
211
10
530.151375
20
82.454699
11
529.899028
21
82.280687
0
LINE
8
annotation
62
1
39
211
10
529.899028
20
82.280687
11
529.676911
21
82.061543
0
LINE
8
annotation
62
1
39
211
10
529.676911
20
82.061543
11
529.491778
21
81.799023
0
LINE
8
annotation
62
1
39
211
10
529.491778
20
81.799023
11
529.258491
21
81.351512
0
LINE
8
annotation
62
1
39
211
10
527.506914
20
126.089567
11
529.283410
21
126.089567
0
LINE
8
annotation
62
1
39
211
10
529.283410
20
126.089567
11
529.283410
21
126.089567
0
LINE
8
annotation
62
1
39
211
10
529.283410
20
126.089567
11
529.602917
21
126.118229
0
LINE
8
annotation
62
1
39
211
10
529.602917
20
126.118229
11
529.903562
21
126.200834
0
LINE
8
annotation
62
1
39
211
10
529.903562
20
126.200834
11
530.180344
21
126.332312
0
LINE
8
annotation
62
1
39
211
10
530.180344
20
126.332312
11
530.428264
21
126.507592
0
LINE
8
annotation
62
1
39
211
10
530.428264
20
126.507592
11
530.642320
21
126.721604
0
LINE
8
annotation
62
1
39
211
10
530.642320
20
126.721604
11
530.817513
21
126.969277
0
LINE
8
annotation
62
1
39
211
10
530.817513
20
126.969277
11
530.948842
21
127.245540
0
LINE
8
annotation
62
1
39
211
10
530.948842
20
127.245540
11
531.031306
21
127.545322
0
LINE
8
annotation
62
1
39
211
10
531.031306
20
127.545322
11
531.059905
21
127.863554
0
LINE
8
annotation
62
1
39
211
10
531.059905
20
127.863554
11
531.059905
21
128.753056
0
LINE
8
annotation
62
1
39
211
10
531.059905
20
128.753056
11
531.059905
21
128.753056
0
LINE
8
annotation
62
1
39
211
10
531.059905
20
128.753056
11
531.031306
21
129.071156
0
LINE
8
annotation
62
1
39
211
10
531.031306
20
129.071156
11
530.948842
21
129.370868
0
LINE
8
annotation
62
1
39
211
10
530.948842
20
129.370868
11
530.817513
21
129.647111
0
LINE
8
annotation
62
1
39
211
10
530.817513
20
129.647111
11
530.642320
21
129.894800
0
LINE
8
annotation
62
1
39
211
10
530.642320
20
129.894800
11
530.428264
21
130.108853
0
LINE
8
annotation
62
1
39
211
10
530.428264
20
130.108853
11
530.180344
21
130.284187
0
LINE
8
annotation
62
1
39
211
10
530.180344
20
130.284187
11
529.903562
21
130.415719
0
LINE
8
annotation
62
1
39
211
10
529.903562
20
130.415719
11
529.602917
21
130.498365
0
LINE
8
annotation
62
1
39
211
10
529.602917
20
130.498365
11
529.283410
21
130.527044
0
LINE
8
annotation
62
1
39
211
10
529.283410
20
130.527044
11
528.393908
21
130.527044
0
LINE
8
annotation
62
1
39
211
10
528.393908
20
130.527044
11
529.283410
21
130.527044
0
LINE
8
annotation
62
1
39
211
10
529.283410
20
130.527044
11
529.283410
21
130.527044
0
LINE
8
annotation
62
1
39
211
10
529.283410
20
130.527044
11
529.602917
21
130.555729
0
LINE
8
annotation
62
1
39
211
10
529.602917
20
130.555729
11
529.903562
21
130.638424
0
LINE
8
annotation
62
1
39
211
10
529.903562
20
130.638424
11
530.180344
21
130.770086
0
LINE
8
annotation
62
1
39
211
10
530.180344
20
130.770086
11
530.428264
21
130.945675
0
LINE
8
annotation
62
1
39
211
10
530.428264
20
130.945675
11
530.642320
21
131.160147
0
LINE
8
annotation
62
1
39
211
10
530.642320
20
131.160147
11
530.817513
21
131.408463
0
LINE
8
annotation
62
1
39
211
10
530.817513
20
131.408463
11
530.948842
21
131.685579
0
LINE
8
annotation
62
1
39
211
10
530.948842
20
131.685579
11
531.031306
21
131.986455
0
LINE
8
annotation
62
1
39
211
10
531.031306
20
131.986455
11
531.059905
21
132.306048
0
LINE
8
annotation
62
1
39
211
10
531.059905
20
132.306048
11
531.059905
21
132.306048
0
LINE
8
annotation
62
1
39
211
10
531.059905
20
132.306048
11
531.031306
21
132.624147
0
LINE
8
annotation
62
1
39
211
10
531.031306
20
132.624147
11
530.948842
21
132.923860
0
LINE
8
annotation
62
1
39
211
10
530.948842
20
132.923860
11
530.817513
21
133.200102
0
LINE
8
annotation
62
1
39
211
10
530.817513
20
133.200102
11
530.642320
21
133.447791
0
LINE
8
annotation
62
1
39
211
10
530.642320
20
133.447791
11
530.428264
21
133.661844
0
LINE
8
annotation
62
1
39
211
10
530.428264
20
133.661844
11
530.180344
21
133.837178
0
LINE
8
annotation
62
1
39
211
10
530.180344
20
133.837178
11
529.903562
21
133.968710
0
LINE
8
annotation
62
1
39
211
10
529.903562
20
133.968710
11
529.602917
21
134.051356
0
LINE
8
annotation
62
1
39
211
10
529.602917
20
134.051356
11
529.283410
21
134.080035
0
LINE
8
annotation
62
1
39
211
10
529.283410
20
134.080035
11
527.506914
21
134.080035
0
LINE
8
annotation
62
1
39
211
10
531.504406
20
179.268545
11
527.062414
21
179.268545
0
LINE
8
annotation
62
1
39
211
10
527.062414
20
179.268545
11
528.836401
21
185.490043
0
LINE
8
annotation
62
1
39
211
10
530.172912
20
177.490043
11
530.172912
21
181.043034
0
LINE
8
annotation
62
1
39
211
10
529.772611
20
228.890769
11
531.549106
21
228.890769
0
LINE
8
annotation
62
1
39
211
10
531.549106
20
228.890769
11
531.549106
21
228.890769
0
LINE
8
annotation
62
1
39
211
10
531.549106
20
228.890769
11
531.867953
21
228.919437
0
LINE
8
annotation
62
1
39
211
10
531.867953
20
228.919437
11
532.168247
21
229.002086
0
LINE
8
annotation
62
1
39
211
10
532.168247
20
229.002086
11
532.444926
21
229.133681
0
LINE
8
annotation
62
1
39
211
10
532.444926
20
229.133681
11
532.692928
21
229.309191
0
LINE
8
annotation
62
1
39
211
10
532.692928
20
229.309191
11
532.907191
21
229.523580
0
LINE
8
annotation
62
1
39
211
10
532.907191
20
229.523580
11
533.082652
21
229.771817
0
LINE
8
annotation
62
1
39
211
10
533.082652
20
229.771817
11
533.214249
21
230.048866
0
LINE
8
annotation
62
1
39
211
10
533.214249
20
230.048866
11
533.296920
21
230.349696
0
LINE
8
annotation
62
1
39
211
10
533.296920
20
230.349696
11
533.325602
21
230.669271
0
LINE
8
annotation
62
1
39
211
10
533.325602
20
230.669271
11
533.325602
21
231.554258
0
LINE
8
annotation
62
1
39
211
10
533.325602
20
231.554258
11
533.325602
21
231.554258
0
LINE
8
annotation
62
1
39
211
10
533.325602
20
231.554258
11
533.296937
21
231.873679
0
LINE
8
annotation
62
1
39
211
10
533.296937
20
231.873679
11
533.214307
21
232.174094
0
LINE
8
annotation
62
1
39
211
10
533.214307
20
232.174094
11
533.082764
21
232.450543
0
LINE
8
annotation
62
1
39
211
10
533.082764
20
232.450543
11
532.907356
21
232.698067
0
LINE
8
annotation
62
1
39
211
10
532.907356
20
232.698067
11
532.693135
21
232.911707
0
LINE
8
annotation
62
1
39
211
10
532.693135
20
232.911707
11
532.445149
21
233.086504
0
LINE
8
annotation
62
1
39
211
10
532.445149
20
233.086504
11
532.168449
21
233.217499
0
LINE
8
annotation
62
1
39
211
10
532.168449
20
233.217499
11
531.868085
21
233.299732
0
LINE
8
annotation
62
1
39
211
10
531.868085
20
233.299732
11
531.549106
21
233.328246
0
LINE
8
annotation
62
1
39
211
10
531.549106
20
233.328246
11
529.772611
21
233.328246
0
LINE
8
annotation
62
1
39
211
10
529.772611
20
233.328246
11
529.772611
21
236.890769
0
LINE
8
annotation
62
1
39
211
10
529.772611
20
236.890769
11
533.325602
21
236.890769
0
LINE
8
annotation
62
1
39
211
10
555.348101
20
288.291495
11
555.348101
21
288.291495
0
LINE
8
annotation
62
1
39
211
10
555.348101
20
288.291495
11
554.839179
21
288.100681
0
LINE
8
annotation
62
1
39
211
10
554.839179
20
288.100681
11
554.372177
21
287.843580
0
LINE
8
annotation
62
1
39
211
10
554.372177
20
287.843580
11
553.951888
21
287.526636
0
LINE
8
annotation
62
1
39
211
10
553.951888
20
287.526636
11
553.583107
21
287.156290
0
LINE
8
annotation
62
1
39
211
10
553.583107
20
287.156290
11
553.270626
21
286.738982
0
LINE
8
annotation
62
1
39
211
10
553.270626
20
286.738982
11
553.019241
21
286.281155
0
LINE
8
annotation
62
1
39
211
10
553.019241
20
286.281155
11
552.833744
21
285.789250
0
LINE
8
annotation
62
1
39
211
10
552.833744
20
285.789250
11
552.718931
21
285.269708
0
LINE
8
annotation
62
1
39
211
10
552.718931
20
285.269708
11
552.679594
21
284.728972
0
LINE
8
annotation
62
1
39
211
10
552.679594
20
284.728972
11
552.679594
21
282.069998
0
LINE
8
annotation
62
1
39
211
10
552.679594
20
282.069998
11
552.679594
21
282.069998
0
LINE
8
annotation
62
1
39
211
10
552.679594
20
282.069998
11
552.708276
21
281.750422
0
LINE
8
annotation
62
1
39
211
10
552.708276
20
281.750422
11
552.790947
21
281.449593
0
LINE
8
annotation
62
1
39
211
10
552.790947
20
281.449593
11
552.922544
21
281.172543
0
LINE
8
annotation
62
1
39
211
10
552.922544
20
281.172543
11
553.098005
21
280.924307
0
LINE
8
annotation
62
1
39
211
10
553.098005
20
280.924307
11
553.312268
21
280.709917
0
LINE
8
annotation
62
1
39
211
10
553.312268
20
280.709917
11
553.560270
21
280.534408
0
LINE
8
annotation
62
1
39
211
10
553.560270
20
280.534408
11
553.836950
21
280.402812
0
LINE
8
annotation
62
1
39
211
10
553.836950
20
280.402812
11
554.137244
21
280.320164
0
LINE
8
annotation
62
1
39
211
10
554.137244
20
280.320164
11
554.456090
21
280.291495
0
LINE
8
annotation
62
1
39
211
10
554.456090
20
280.291495
11
554.456090
21
280.291495
0
LINE
8
annotation
62
1
39
211
10
554.456090
20
280.291495
11
554.775597
21
280.320164
0
LINE
8
annotation
62
1
39
211
10
554.775597
20
280.320164
11
555.076242
21
280.402812
0
LINE
8
annotation
62
1
39
211
10
555.076242
20
280.402812
11
555.353025
21
280.534408
0
LINE
8
annotation
62
1
39
211
10
555.353025
20
280.534408
11
555.600944
21
280.709917
0
LINE
8
annotation
62
1
39
211
10
555.600944
20
280.709917
11
555.815001
21
280.924307
0
LINE
8
annotation
62
1
39
211
10
555.815001
20
280.924307
11
555.990194
21
281.172543
0
LINE
8
annotation
62
1
39
211
10
555.990194
20
281.172543
11
556.121522
21
281.449593
0
LINE
8
annotation
62
1
39
211
10
556.121522
20
281.449593
11
556.203986
21
281.750422
0
LINE
8
annotation
62
1
39
211
10
556.203986
20
281.750422
11
556.232586
21
282.069998
0
LINE
8
annotation
62
1
39
211
10
556.232586
20
282.069998
11
556.232586
21
282.954985
0
LINE
8
annotation
62
1
39
211
10
556.232586
20
282.954985
11
556.232586
21
282.954985
0
LINE
8
annotation
62
1
39
211
10
556.232586
20
282.954985
11
556.203986
21
283.274406
0
LINE
8
annotation
62
1
39
211
10
556.203986
20
283.274406
11
556.121522
21
283.574820
0
LINE
8
annotation
62
1
39
211
10
556.121522
20
283.574820
11
555.990194
21
283.851269
0
LINE
8
annotation
62
1
39
211
10
555.990194
20
283.851269
11
555.815001
21
284.098793
0
LINE
8
annotation
62
1
39
211
10
555.815001
20
284.098793
11
555.600944
21
284.312433
0
LINE
8
annotation
62
1
39
211
10
555.600944
20
284.312433
11
555.353025
21
284.487230
0
LINE
8
annotation
62
1
39
211
10
555.353025
20
284.487230
11
555.076242
21
284.618225
0
LINE
8
annotation
62
1
39
211
10
555.076242
20
284.618225
11
554.775597
21
284.700459
0
LINE
8
annotation
62
1
39
211
10
554.775597
20
284.700459
11
554.456090
21
284.728972
0
LINE
8
annotation
62
1
39
211
10
554.456090
20
284.728972
11
552.679594
21
284.728972
0
LINE
8
annotation
62
1
39
211
10
552.457093
20
279.291495
11
556.457093
21
279.291495
0
LINE
8
annotation
62
1
39
211
10
576.651752
20
157.988325
11
565.542515
21
141.919830
0
LINE
8
annotation
62
1
39
211
10
565.542515
20
141.919830
11
554.431188
21
157.988325
0
LINE
8
annotation
62
1
39
211
10
565.542515
20
143.212913
11
565.542515
21
124.675234
0
LINE
8
annotation
62
1
39
211
10
607.361442
20
141.331779
11
589.147556
21
141.331779
0
LINE
8
annotation
62
1
39
211
10
638.345833
20
132.081741
11
619.849934
21
132.081741
0
LINE
8
annotation
62
1
39
211
10
619.849934
20
132.081741
11
627.236595
21
157.987280
0
LINE
8
annotation
62
1
39
211
10
632.801659
20
124.676279
11
632.801659
21
139.470491
0
LINE
8
boundary
62
5
39
2
10
605.529252
20
313.166859
11
605.529252
21
339.840903
0
LINE
8
boundary
62
5
39
2
10
605.529252
20
339.840903
11
605.529252
21
342.241874
0
LINE
8
boundary
62
5
39
2
10
605.529252
20
342.241874
11
494.161728
21
342.491874
0
LINE
8
boundary
62
5
39
2
10
494.161728
20
342.491874
11
494.161728
21
347.391875
0
LINE
8
boundary
62
5
39
2
10
494.161728
20
347.391875
11
605.334252
21
347.391875
0
LINE
8
boundary
62
5
39
2
10
605.334252
20
347.391875
11
605.529252
21
359.572038
0
LINE
8
boundary
62
5
39
2
10
605.529252
20
359.572038
11
605.529251
21
388.821947
0
LINE
8
boundary
62
5
39
2
10
605.529251
20
388.821947
11
605.529251
21
441.538751
0
LINE
8
boundary
62
5
39
2
10
605.529251
20
441.538751
11
494.161728
21
441.788751
0
LINE
8
boundary
62
5
39
2
10
494.161728
20
441.788751
11
494.161728
21
446.688750
0
LINE
8
boundary
62
5
39
2
10
494.161728
20
446.688750
11
605.334251
21
446.688751
0
LINE
8
boundary
62
5
39
2
10
605.334251
20
446.688751
11
605.529251
21
540.835627
0
LINE
8
boundary
62
5
39
2
10
605.529251
20
540.835627
11
494.161728
21
541.085627
0
LINE
8
boundary
62
5
39
2
10
494.161728
20
541.085627
11
494.161728
21
545.985627
0
LINE
8
boundary
62
5
39
2
10
494.161728
20
545.985627
11
605.334251
21
545.985627
0
LINE
8
boundary
62
5
39
2
10
605.334251
20
545.985627
11
605.529251
21
628.202267
0
LINE
8
boundary
62
5
39
2
10
605.529251
20
628.202267
11
605.529251
21
640.132503
0
LINE
8
boundary
62
5
39
2
10
605.529251
20
640.132503
11
494.161728
21
640.382504
0
LINE
8
boundary
62
5
39
2
10
494.161728
20
640.382504
11
494.161728
21
645.282504
0
LINE
8
boundary
62
5
39
2
10
494.161728
20
645.282504
11
605.334252
21
645.282503
0
LINE
8
boundary
62
5
39
2
10
605.334252
20
645.282503
11
605.529252
21
647.933401
0
LINE
8
boundary
62
5
39
2
10
605.529252
20
647.933401
11
605.529251
21
674.607476
0
LINE
8
boundary
62
5
39
2
10
605.529251
20
674.607476
11
599.371053
21
674.607475
0
LINE
8
boundary
62
5
39
2
10
599.371053
20
674.607475
11
433.009526
21
674.607424
0
LINE
8
boundary
62
5
39
2
10
433.009526
20
674.607424
11
409.561204
21
674.607424
0
LINE
8
boundary
62
5
39
2
10
409.561204
20
674.607424
11
403.226621
21
669.900604
0
LINE
8
boundary
62
5
39
2
10
403.226621
20
669.900604
11
382.694205
21
654.644356
0
LINE
8
boundary
62
5
39
2
10
382.694205
20
654.644356
11
382.694205
21
540.821037
0
LINE
8
boundary
62
5
39
2
10
382.694205
20
540.821037
11
382.694205
21
333.129982
0
LINE
8
boundary
62
5
39
2
10
382.694205
20
333.129982
11
403.226620
21
317.873770
0
LINE
8
boundary
62
5
39
2
10
403.226620
20
317.873770
11
409.561204
21
313.166954
0
LINE
8
boundary
62
5
39
2
10
409.561204
20
313.166954
11
433.009525
21
313.166954
0
LINE
8
boundary
62
5
39
2
10
433.009525
20
313.166954
11
599.371052
21
313.166859
0
LINE
8
boundary
62
5
39
2
10
599.371052
20
313.166859
11
605.529252
21
313.166859
0
LINE
8
annotation
62
1
39
211
10
485.000226
20
340.941874
11
485.000226
21
348.941874
0
LINE
8
annotation
62
1
39
211
10
485.000226
20
348.941874
11
483.221724
21
347.162870
0
LINE
8
annotation
62
1
39
211
10
485.887220
20
440.238686
11
482.334229
21
440.238686
0
LINE
8
annotation
62
1
39
211
10
482.334229
20
440.238686
11
485.617309
21
445.524024
0
LINE
8
annotation
62
1
39
211
10
485.617309
20
445.524024
11
485.617309
21
445.524024
0
LINE
8
annotation
62
1
39
211
10
485.617309
20
445.524024
11
485.621234
21
445.528880
0
LINE
8
annotation
62
1
39
211
10
485.621234
20
445.528880
11
485.624998
21
445.533778
0
LINE
8
annotation
62
1
39
211
10
485.624998
20
445.533778
11
485.628625
21
445.538759
0
LINE
8
annotation
62
1
39
211
10
485.628625
20
445.538759
11
485.632141
21
445.543863
0
LINE
8
annotation
62
1
39
211
10
485.632141
20
445.543863
11
485.635570
21
445.549132
0
LINE
8
annotation
62
1
39
211
10
485.635570
20
445.549132
11
485.638938
21
445.554608
0
LINE
8
annotation
62
1
39
211
10
485.638938
20
445.554608
11
485.642268
21
445.560332
0
LINE
8
annotation
62
1
39
211
10
485.642268
20
445.560332
11
485.645586
21
445.566345
0
LINE
8
annotation
62
1
39
211
10
485.645586
20
445.566345
11
485.648916
21
445.572688
0
LINE
8
annotation
62
1
39
211
10
485.648916
20
445.572688
11
485.648916
21
445.572688
0
LINE
8
annotation
62
1
39
211
10
485.648916
20
445.572688
11
485.784473
21
445.863742
0
LINE
8
annotation
62
1
39
211
10
485.784473
20
445.863742
11
485.863664
21
446.165444
0
LINE
8
annotation
62
1
39
211
10
485.863664
20
446.165444
11
485.888428
21
446.470979
0
LINE
8
annotation
62
1
39
211
10
485.888428
20
446.470979
11
485.860706
21
446.773528
0
LINE
8
annotation
62
1
39
211
10
485.860706
20
446.773528
11
485.782439
21
447.066275
0
LINE
8
annotation
62
1
39
211
10
485.782439
20
447.066275
11
485.655568
21
447.342401
0
LINE
8
annotation
62
1
39
211
10
485.655568
20
447.342401
11
485.482033
21
447.595091
0
LINE
8
annotation
62
1
39
211
10
485.482033
20
447.595091
11
485.263775
21
447.817526
0
LINE
8
annotation
62
1
39
211
10
485.263775
20
447.817526
11
485.002735
21
448.002890
0
LINE
8
annotation
62
1
39
211
10
485.002735
20
448.002890
11
485.002735
21
448.002890
0
LINE
8
annotation
62
1
39
211
10
485.002735
20
448.002890
11
484.710872
21
448.136521
0
LINE
8
annotation
62
1
39
211
10
484.710872
20
448.136521
11
484.408707
21
448.214492
0
LINE
8
annotation
62
1
39
211
10
484.408707
20
448.214492
11
484.102995
21
448.238556
0
LINE
8
annotation
62
1
39
211
10
484.102995
20
448.238556
11
483.800491
21
448.210468
0
LINE
8
annotation
62
1
39
211
10
483.800491
20
448.210468
11
483.507951
21
448.131985
0
LINE
8
annotation
62
1
39
211
10
483.507951
20
448.131985
11
483.232130
21
448.004859
0
LINE
8
annotation
62
1
39
211
10
483.232130
20
448.004859
11
482.979783
21
447.830848
0
LINE
8
annotation
62
1
39
211
10
482.979783
20
447.830848
11
482.757665
21
447.611704
0
LINE
8
annotation
62
1
39
211
10
482.757665
20
447.611704
11
482.572533
21
447.349184
0
LINE
8
annotation
62
1
39
211
10
482.572533
20
447.349184
11
482.339246
21
446.901673
0
LINE
8
annotation
62
1
39
211
10
482.334229
20
539.535878
11
484.110724
21
539.535878
0
LINE
8
annotation
62
1
39
211
10
484.110724
20
539.535878
11
484.110724
21
539.535878
0
LINE
8
annotation
62
1
39
211
10
484.110724
20
539.535878
11
484.430231
21
539.564540
0
LINE
8
annotation
62
1
39
211
10
484.430231
20
539.564540
11
484.730876
21
539.647145
0
LINE
8
annotation
62
1
39
211
10
484.730876
20
539.647145
11
485.007659
21
539.778623
0
LINE
8
annotation
62
1
39
211
10
485.007659
20
539.778623
11
485.255579
21
539.953903
0
LINE
8
annotation
62
1
39
211
10
485.255579
20
539.953903
11
485.469635
21
540.167915
0
LINE
8
annotation
62
1
39
211
10
485.469635
20
540.167915
11
485.644828
21
540.415588
0
LINE
8
annotation
62
1
39
211
10
485.644828
20
540.415588
11
485.776157
21
540.691851
0
LINE
8
annotation
62
1
39
211
10
485.776157
20
540.691851
11
485.858621
21
540.991633
0
LINE
8
annotation
62
1
39
211
10
485.858621
20
540.991633
11
485.887220
21
541.309865
0
LINE
8
annotation
62
1
39
211
10
485.887220
20
541.309865
11
485.887220
21
542.199367
0
LINE
8
annotation
62
1
39
211
10
485.887220
20
542.199367
11
485.887220
21
542.199367
0
LINE
8
annotation
62
1
39
211
10
485.887220
20
542.199367
11
485.858621
21
542.517467
0
LINE
8
annotation
62
1
39
211
10
485.858621
20
542.517467
11
485.776157
21
542.817179
0
LINE
8
annotation
62
1
39
211
10
485.776157
20
542.817179
11
485.644828
21
543.093422
0
LINE
8
annotation
62
1
39
211
10
485.644828
20
543.093422
11
485.469635
21
543.341111
0
LINE
8
annotation
62
1
39
211
10
485.469635
20
543.341111
11
485.255579
21
543.555164
0
LINE
8
annotation
62
1
39
211
10
485.255579
20
543.555164
11
485.007659
21
543.730498
0
LINE
8
annotation
62
1
39
211
10
485.007659
20
543.730498
11
484.730876
21
543.862029
0
LINE
8
annotation
62
1
39
211
10
484.730876
20
543.862029
11
484.430231
21
543.944676
0
LINE
8
annotation
62
1
39
211
10
484.430231
20
543.944676
11
484.110724
21
543.973354
0
LINE
8
annotation
62
1
39
211
10
484.110724
20
543.973354
11
483.221222
21
543.973354
0
LINE
8
annotation
62
1
39
211
10
483.221222
20
543.973354
11
484.110724
21
543.973354
0
LINE
8
annotation
62
1
39
211
10
484.110724
20
543.973354
11
484.110724
21
543.973354
0
LINE
8
annotation
62
1
39
211
10
484.110724
20
543.973354
11
484.430231
21
544.002040
0
LINE
8
annotation
62
1
39
211
10
484.430231
20
544.002040
11
484.730876
21
544.084734
0
LINE
8
annotation
62
1
39
211
10
484.730876
20
544.084734
11
485.007659
21
544.216397
0
LINE
8
annotation
62
1
39
211
10
485.007659
20
544.216397
11
485.255579
21
544.391985
0
LINE
8
annotation
62
1
39
211
10
485.255579
20
544.391985
11
485.469635
21
544.606458
0
LINE
8
annotation
62
1
39
211
10
485.469635
20
544.606458
11
485.644828
21
544.854774
0
LINE
8
annotation
62
1
39
211
10
485.644828
20
544.854774
11
485.776157
21
545.131890
0
LINE
8
annotation
62
1
39
211
10
485.776157
20
545.131890
11
485.858621
21
545.432765
0
LINE
8
annotation
62
1
39
211
10
485.858621
20
545.432765
11
485.887220
21
545.752358
0
LINE
8
annotation
62
1
39
211
10
485.887220
20
545.752358
11
485.887220
21
545.752358
0
LINE
8
annotation
62
1
39
211
10
485.887220
20
545.752358
11
485.858621
21
546.070458
0
LINE
8
annotation
62
1
39
211
10
485.858621
20
546.070458
11
485.776157
21
546.370171
0
LINE
8
annotation
62
1
39
211
10
485.776157
20
546.370171
11
485.644828
21
546.646413
0
LINE
8
annotation
62
1
39
211
10
485.644828
20
546.646413
11
485.469635
21
546.894102
0
LINE
8
annotation
62
1
39
211
10
485.469635
20
546.894102
11
485.255579
21
547.108155
0
LINE
8
annotation
62
1
39
211
10
485.255579
20
547.108155
11
485.007659
21
547.283489
0
LINE
8
annotation
62
1
39
211
10
485.007659
20
547.283489
11
484.730876
21
547.415021
0
LINE
8
annotation
62
1
39
211
10
484.730876
20
547.415021
11
484.430231
21
547.497667
0
LINE
8
annotation
62
1
39
211
10
484.430231
20
547.497667
11
484.110724
21
547.526346
0
LINE
8
annotation
62
1
39
211
10
484.110724
20
547.526346
11
482.334229
21
547.526346
0
LINE
8
annotation
62
1
39
211
10
486.331720
20
640.611006
11
481.889729
21
640.611006
0
LINE
8
annotation
62
1
39
211
10
481.889729
20
640.611006
11
483.663716
21
646.832503
0
LINE
8
annotation
62
1
39
211
10
485.000227
20
638.832503
11
485.000227
21
642.385495
0
LINE
8
annotation
62
1
39
211
10
476.611167
20
581.680836
11
454.934530
21
581.680836
0
LINE
8
annotation
62
1
39
211
10
454.934530
20
581.680836
11
476.611167
21
620.720326
0
LINE
8
annotation
62
1
39
211
10
476.611167
20
620.720326
11
454.934530
21
620.720326
0
LINE
8
annotation
62
1
39
211
10
512.600774
20
601.200581
11
491.254648
21
601.200581
0
LINE
8
annotation
62
1
39
211
10
540.259050
20
620.720326
11
540.259050
21
620.720326
0
LINE
8
annotation
62
1
39
211
10
540.259050
20
620.720326
11
537.775547
21
619.789162
0
LINE
8
annotation
62
1
39
211
10
537.775547
20
619.789162
11
535.496606
21
618.534529
0
LINE
8
annotation
62
1
39
211
10
535.496606
20
618.534529
11
533.445624
21
616.987862
0
LINE
8
annotation
62
1
39
211
10
533.445624
20
616.987862
11
531.645993
21
615.180594
0
LINE
8
annotation
62
1
39
211
10
531.645993
20
615.180594
11
530.121107
21
613.144159
0
LINE
8
annotation
62
1
39
211
10
530.121107
20
613.144159
11
528.894362
21
610.909992
0
LINE
8
annotation
62
1
39
211
10
528.894362
20
610.909992
11
527.989152
21
608.509527
0
LINE
8
annotation
62
1
39
211
10
527.989152
20
608.509527
11
527.428869
21
605.974198
0
LINE
8
annotation
62
1
39
211
10
527.428869
20
605.974198
11
527.236910
21
603.335438
0
LINE
8
annotation
62
1
39
211
10
527.236910
20
603.335438
11
527.236910
21
590.359814
0
LINE
8
annotation
62
1
39
211
10
527.236910
20
590.359814
11
527.236910
21
590.359814
0
LINE
8
annotation
62
1
39
211
10
527.236910
20
590.359814
11
527.376876
21
588.800305
0
LINE
8
annotation
62
1
39
211
10
527.376876
20
588.800305
11
527.780303
21
587.332276
0
LINE
8
annotation
62
1
39
211
10
527.780303
20
587.332276
11
528.422488
21
585.980292
0
LINE
8
annotation
62
1
39
211
10
528.422488
20
585.980292
11
529.278728
21
584.768915
0
LINE
8
annotation
62
1
39
211
10
529.278728
20
584.768915
11
530.324317
21
583.722707
0
LINE
8
annotation
62
1
39
211
10
530.324317
20
583.722707
11
531.534553
21
582.866233
0
LINE
8
annotation
62
1
39
211
10
531.534553
20
582.866233
11
532.884730
21
582.224054
0
LINE
8
annotation
62
1
39
211
10
532.884730
20
582.224054
11
534.350146
21
581.820734
0
LINE
8
annotation
62
1
39
211
10
534.350146
20
581.820734
11
535.906096
21
581.680836
0
LINE
8
annotation
62
1
39
211
10
535.906096
20
581.680836
11
535.906096
21
581.680836
0
LINE
8
annotation
62
1
39
211
10
535.906096
20
581.680836
11
537.465269
21
581.820734
0
LINE
8
annotation
62
1
39
211
10
537.465269
20
581.820734
11
538.932398
21
582.224054
0
LINE
8
annotation
62
1
39
211
10
538.932398
20
582.224054
11
540.283079
21
582.866233
0
LINE
8
annotation
62
1
39
211
10
540.283079
20
582.866233
11
541.492912
21
583.722707
0
LINE
8
annotation
62
1
39
211
10
541.492912
20
583.722707
11
542.537493
21
584.768915
0
LINE
8
annotation
62
1
39
211
10
542.537493
20
584.768915
11
543.392423
21
585.980292
0
LINE
8
annotation
62
1
39
211
10
543.392423
20
585.980292
11
544.033299
21
587.332276
0
LINE
8
annotation
62
1
39
211
10
544.033299
20
587.332276
11
544.435719
21
588.800305
0
LINE
8
annotation
62
1
39
211
10
544.435719
20
588.800305
11
544.575281
21
590.359814
0
LINE
8
annotation
62
1
39
211
10
544.575281
20
590.359814
11
544.575281
21
594.678494
0
LINE
8
annotation
62
1
39
211
10
544.575281
20
594.678494
11
544.575281
21
594.678494
0
LINE
8
annotation
62
1
39
211
10
544.575281
20
594.678494
11
544.435719
21
596.237248
0
LINE
8
annotation
62
1
39
211
10
544.435719
20
596.237248
11
544.033299
21
597.703251
0
LINE
8
annotation
62
1
39
211
10
544.033299
20
597.703251
11
543.392423
21
599.052303
0
LINE
8
annotation
62
1
39
211
10
543.392423
20
599.052303
11
542.537493
21
600.260205
0
LINE
8
annotation
62
1
39
211
10
542.537493
20
600.260205
11
541.492912
21
601.302755
0
LINE
8
annotation
62
1
39
211
10
541.492912
20
601.302755
11
540.283079
21
602.155753
0
LINE
8
annotation
62
1
39
211
10
540.283079
20
602.155753
11
538.932398
21
602.795000
0
LINE
8
annotation
62
1
39
211
10
538.932398
20
602.795000
11
537.465269
21
603.196295
0
LINE
8
annotation
62
1
39
211
10
537.465269
20
603.196295
11
535.906096
21
603.335438
0
LINE
8
annotation
62
1
39
211
10
535.906096
20
603.335438
11
527.236910
21
603.335438
0
LINE
8
annotation
62
1
39
211
10
526.151120
20
576.800899
11
545.670865
21
576.800899
0
LINE
8
frame
62
5
39
2
10
0.000000
20
0.000000
11
3000.000000
21
0.000000
0
LINE
8
frame
62
5
39
2
10
3000.000000
20
0.000000
11
3000.000000
21
3000.000000
0
LINE
8
frame
62
5
39
2
10
3000.000000
20
3000.000000
11
0.000000
21
3000.000000
0
LINE
8
frame
62
5
39
2
10
0.000000
20
3000.000000
11
0.000000
21
0.000000
0
ENDSEC
0
EOF
