0
SECTION
2
HEADER
9
$ACADVER
1
AC1009
0
ENDSEC
0
SECTION
2
TABLES
0
TABLE
2
VPORT
70
1
0
VPORT
2
ACTIVE
70
0
10
0.0
20
0.0
11
0.0
21
0.0
12
0.0
22
0.0
13
0.0
23
0.0
14
0.0
24
0.0
15
0.0
25
0.0
16
0.0
26
0.0
36
0.0
17
0.0
27
0.0
37
0.0
40
0.0
41
0.0
42
0.0
43
0.0
44
0.0
50
0.0
51
0.0
71
0
72
1000
73
1
74
3
75
0
76
0
77
0
78
0
0
ENDTAB
0
ENDSEC
0
SECTION
2
ENTITIES
0
LINE
8
hole
62
5
39
2
10
162.036139
20
209.290811
11
216.379812
21
209.290810
0
LINE
8
hole
62
5
39
2
10
216.379812
20
209.290810
11
216.379811
21
131.997571
0
LINE
8
hole
62
5
39
2
10
216.379811
20
131.997571
11
216.379811
21
84.290809
0
LINE
8
hole
62
5
39
2
10
216.379811
20
84.290809
11
162.036139
21
84.290809
0
LINE
8
hole
62
5
39
2
10
162.036139
20
84.290809
11
101.379829
21
84.290809
0
LINE
8
hole
62
5
39
2
10
101.379829
20
84.290809
11
101.379828
21
97.227532
0
LINE
8
hole
62
5
39
2
10
101.379828
20
97.227532
11
56.869423
21
97.377532
0
LINE
8
hole
62
5
39
2
10
56.869423
20
97.377532
11
56.869423
21
100.277532
0
LINE
8
hole
62
5
39
2
10
56.869423
20
100.277532
11
101.284828
21
100.277532
0
LINE
8
hole
62
5
39
2
10
101.284828
20
100.277532
11
101.379828
21
112.623741
0
LINE
8
hole
62
5
39
2
10
101.379828
20
112.623741
11
51.533664
21
112.773741
0
LINE
8
hole
62
5
39
2
10
51.533664
20
112.773741
11
51.533664
21
115.673741
0
LINE
8
hole
62
5
39
2
10
51.533664
20
115.673741
11
101.284829
21
115.673741
0
LINE
8
hole
62
5
39
2
10
101.284829
20
115.673741
11
101.379828
21
150.221593
0
LINE
8
hole
62
5
39
2
10
101.379828
20
150.221593
11
101.379828
21
177.116784
0
LINE
8
hole
62
5
39
2
10
101.379828
20
177.116784
11
51.533664
21
177.266784
0
LINE
8
hole
62
5
39
2
10
51.533664
20
177.266784
11
51.533664
21
180.166784
0
LINE
8
hole
62
5
39
2
10
51.533664
20
180.166784
11
101.284828
21
180.166785
0
LINE
8
hole
62
5
39
2
10
101.284828
20
180.166785
11
101.379828
21
193.133349
0
LINE
8
hole
62
5
39
2
10
101.379828
20
193.133349
11
57.200675
21
193.283349
0
LINE
8
hole
62
5
39
2
10
57.200675
20
193.283349
11
57.200675
21
196.183349
0
LINE
8
hole
62
5
39
2
10
57.200675
20
196.183349
11
101.284828
21
196.183349
0
LINE
8
hole
62
5
39
2
10
101.284828
20
196.183349
11
101.379828
21
209.290810
0
LINE
8
hole
62
5
39
2
10
101.379828
20
209.290810
11
162.036139
21
209.290811
0
LINE
8
boundary
62
5
39
2
10
295.215605
20
75.544303
11
295.215605
21
76.066413
0
LINE
8
boundary
62
5
39
2
10
295.215605
20
76.066413
11
295.215605
21
77.025058
0
LINE
8
boundary
62
5
39
2
10
295.215605
20
77.025058
11
295.215604
21
77.943619
0
LINE
8
boundary
62
5
39
2
10
295.215604
20
77.943619
11
295.215605
21
97.227532
0
LINE
8
boundary
62
5
39
2
10
295.215605
20
97.227532
11
255.847708
21
97.377532
0
LINE
8
boundary
62
5
39
2
10
255.847708
20
97.377532
11
255.847708
21
100.277532
0
LINE
8
boundary
62
5
39
2
10
255.847708
20
100.277532
11
295.120605
21
100.277532
0
LINE
8
boundary
62
5
39
2
10
295.120605
20
100.277532
11
295.215605
21
112.623741
0
LINE
8
boundary
62
5
39
2
10
295.215605
20
112.623741
11
255.847708
21
112.773741
0
LINE
8
boundary
62
5
39
2
10
255.847708
20
112.773741
11
255.847708
21
115.673742
0
LINE
8
boundary
62
5
39
2
10
255.847708
20
115.673742
11
295.120605
21
115.673741
0
LINE
8
boundary
62
5
39
2
10
295.120605
20
115.673741
11
295.215605
21
121.699349
0
LINE
8
boundary
62
5
39
2
10
295.215605
20
121.699349
11
295.215605
21
122.607332
0
LINE
8
boundary
62
5
39
2
10
295.215605
20
122.607332
11
295.215605
21
123.535039
0
LINE
8
boundary
62
5
39
2
10
295.215605
20
123.535039
11
295.215605
21
124.430733
0
LINE
8
boundary
62
5
39
2
10
295.215605
20
124.430733
11
295.215604
21
125.248112
0
LINE
8
boundary
62
5
39
2
10
295.215604
20
125.248112
11
295.215605
21
125.950112
0
LINE
8
boundary
62
5
39
2
10
295.215605
20
125.950112
11
295.215604
21
126.510861
0
LINE
8
boundary
62
5
39
2
10
295.215604
20
126.510861
11
295.215605
21
127.160130
0
LINE
8
boundary
62
5
39
2
10
295.215605
20
127.160130
11
295.215604
21
133.116031
0
LINE
8
boundary
62
5
39
2
10
295.215604
20
133.116031
11
277.548941
21
135.758343
0
LINE
8
boundary
62
5
39
2
10
277.548941
20
135.758343
11
235.215612
21
142.089923
0
LINE
8
boundary
62
5
39
2
10
235.215612
20
142.089923
11
235.215612
21
144.592700
0
LINE
8
boundary
62
5
39
2
10
235.215612
20
144.592700
11
235.215613
21
150.589922
0
LINE
8
boundary
62
5
39
2
10
235.215613
20
150.589922
11
252.882276
21
153.232236
0
LINE
8
boundary
62
5
39
2
10
252.882276
20
153.232236
11
295.215605
21
159.563816
0
LINE
8
boundary
62
5
39
2
10
295.215605
20
159.563816
11
295.215604
21
163.562089
0
LINE
8
boundary
62
5
39
2
10
295.215604
20
163.562089
11
295.215604
21
164.099842
0
LINE
8
boundary
62
5
39
2
10
295.215604
20
164.099842
11
295.215604
21
165.257596
0
LINE
8
boundary
62
5
39
2
10
295.215604
20
165.257596
11
295.215605
21
166.031842
0
LINE
8
boundary
62
5
39
2
10
295.215605
20
166.031842
11
295.215605
21
166.894365
0
LINE
8
boundary
62
5
39
2
10
295.215605
20
166.894365
11
295.215604
21
167.801150
0
LINE
8
boundary
62
5
39
2
10
295.215604
20
167.801150
11
295.215605
21
168.701976
0
LINE
8
boundary
62
5
39
2
10
295.215605
20
168.701976
11
295.215605
21
177.116784
0
LINE
8
boundary
62
5
39
2
10
295.215605
20
177.116784
11
255.847708
21
177.266785
0
LINE
8
boundary
62
5
39
2
10
255.847708
20
177.266785
11
255.847708
21
180.166784
0
LINE
8
boundary
62
5
39
2
10
255.847708
20
180.166784
11
295.120605
21
180.166784
0
LINE
8
boundary
62
5
39
2
10
295.120605
20
180.166784
11
295.215605
21
193.133349
0
LINE
8
boundary
62
5
39
2
10
295.215605
20
193.133349
11
255.847708
21
193.283349
0
LINE
8
boundary
62
5
39
2
10
255.847708
20
193.283349
11
255.847708
21
196.183349
0
LINE
8
boundary
62
5
39
2
10
255.847708
20
196.183349
11
295.120604
21
196.183349
0
LINE
8
boundary
62
5
39
2
10
295.120604
20
196.183349
11
295.215605
21
212.280735
0
LINE
8
boundary
62
5
39
2
10
295.215605
20
212.280735
11
295.215604
21
212.910377
0
LINE
8
boundary
62
5
39
2
10
295.215604
20
212.910377
11
295.215605
21
213.869965
0
LINE
8
boundary
62
5
39
2
10
295.215605
20
213.869965
11
295.215605
21
215.340915
0
LINE
8
boundary
62
5
39
2
10
295.215605
20
215.340915
11
295.215605
21
216.265195
0
LINE
8
boundary
62
5
39
2
10
295.215605
20
216.265195
11
295.215605
21
217.057908
0
LINE
8
boundary
62
5
39
2
10
295.215605
20
217.057908
11
189.191229
21
217.207908
0
LINE
8
boundary
62
5
39
2
10
189.191229
20
217.207908
11
189.191229
21
220.107908
0
LINE
8
boundary
62
5
39
2
10
189.191229
20
220.107908
11
295.120604
21
220.107908
0
LINE
8
boundary
62
5
39
2
10
295.120604
20
220.107908
11
295.215605
21
232.078573
0
LINE
8
boundary
62
5
39
2
10
295.215605
20
232.078573
11
278.109363
21
232.078573
0
LINE
8
boundary
62
5
39
2
10
278.109363
20
232.078573
11
235.215612
21
232.078572
0
LINE
8
boundary
62
5
39
2
10
235.215612
20
232.078572
11
202.233194
21
230.049051
0
LINE
8
boundary
62
5
39
2
10
202.233194
20
230.049051
11
149.132327
21
226.781573
0
LINE
8
boundary
62
5
39
2
10
149.132327
20
226.781573
11
149.135818
21
230.366197
0
LINE
8
boundary
62
5
39
2
10
149.135818
20
230.366197
11
149.138305
21
232.918679
0
LINE
8
boundary
62
5
39
2
10
149.138305
20
232.918679
11
149.138804
21
233.431193
0
LINE
8
boundary
62
5
39
2
10
149.138804
20
233.431193
11
149.139496
21
234.142043
0
LINE
8
boundary
62
5
39
2
10
149.139496
20
234.142043
11
149.140425
21
235.091917
0
LINE
8
boundary
62
5
39
2
10
149.140425
20
235.091917
11
149.141629
21
236.329742
0
LINE
8
boundary
62
5
39
2
10
149.141629
20
236.329742
11
149.143170
21
237.913265
0
LINE
8
boundary
62
5
39
2
10
149.143170
20
237.913265
11
149.143892
21
238.656216
0
LINE
8
boundary
62
5
39
2
10
149.143892
20
238.656216
11
150.494517
21
238.660423
0
LINE
8
boundary
62
5
39
2
10
150.494517
20
238.660423
11
151.373252
21
238.663160
0
LINE
8
boundary
62
5
39
2
10
151.373252
20
238.663160
11
155.876061
21
238.663160
0
LINE
8
boundary
62
5
39
2
10
155.876061
20
238.663160
11
162.791689
21
238.663160
0
LINE
8
boundary
62
5
39
2
10
162.791689
20
238.663160
11
164.577433
21
238.679015
0
LINE
8
boundary
62
5
39
2
10
164.577433
20
238.679015
11
166.609743
21
238.707439
0
LINE
8
boundary
62
5
39
2
10
166.609743
20
238.707439
11
168.077575
21
238.755593
0
LINE
8
boundary
62
5
39
2
10
168.077575
20
238.755593
11
170.507808
21
238.835307
0
LINE
8
boundary
62
5
39
2
10
170.507808
20
238.835307
11
171.420111
21
238.885533
0
LINE
8
boundary
62
5
39
2
10
171.420111
20
238.885533
11
174.500481
21
239.055100
0
LINE
8
boundary
62
5
39
2
10
174.500481
20
239.055100
11
177.567167
21
239.344122
0
LINE
8
boundary
62
5
39
2
10
177.567167
20
239.344122
11
178.604024
21
239.444682
0
LINE
8
boundary
62
5
39
2
10
178.604024
20
239.444682
11
180.414177
21
239.671539
0
LINE
8
boundary
62
5
39
2
10
180.414177
20
239.671539
11
182.836808
21
239.975132
0
LINE
8
boundary
62
5
39
2
10
182.836808
20
239.975132
11
183.776304
21
240.119591
0
LINE
8
boundary
62
5
39
2
10
183.776304
20
240.119591
11
185.776812
21
240.499559
0
LINE
8
boundary
62
5
39
2
10
185.776812
20
240.499559
11
187.219495
21
240.773554
0
LINE
8
boundary
62
5
39
2
10
187.219495
20
240.773554
11
188.287787
21
241.014012
0
LINE
8
boundary
62
5
39
2
10
188.287787
20
241.014012
11
189.544156
21
241.296784
0
LINE
8
boundary
62
5
39
2
10
189.544156
20
241.296784
11
190.666454
21
241.607577
0
LINE
8
boundary
62
5
39
2
10
190.666454
20
241.607577
11
191.775741
21
241.914744
0
LINE
8
boundary
62
5
39
2
10
191.775741
20
241.914744
11
192.919426
21
242.280768
0
LINE
8
boundary
62
5
39
2
10
192.919426
20
242.280768
11
193.924912
21
242.602537
0
LINE
8
boundary
62
5
39
2
10
193.924912
20
242.602537
11
195.030094
21
243.039425
0
LINE
8
boundary
62
5
39
2
10
195.030094
20
243.039425
11
196.532532
21
243.633296
0
LINE
8
boundary
62
5
39
2
10
196.532532
20
243.633296
11
197.048453
21
243.864525
0
LINE
8
boundary
62
5
39
2
10
197.048453
20
243.864525
11
198.811412
21
244.815225
0
LINE
8
boundary
62
5
39
2
10
198.811412
20
244.815225
11
200.049933
21
245.509596
0
LINE
8
boundary
62
5
39
2
10
200.049933
20
245.509596
11
200.486843
21
245.823625
0
LINE
8
boundary
62
5
39
2
10
200.486843
20
245.823625
11
201.520713
21
246.566624
0
LINE
8
boundary
62
5
39
2
10
201.520713
20
246.566624
11
201.966640
21
246.924532
0
LINE
8
boundary
62
5
39
2
10
201.966640
20
246.924532
11
203.143000
21
248.141996
0
LINE
8
boundary
62
5
39
2
10
203.143000
20
248.141996
11
203.606731
21
248.639910
0
LINE
8
boundary
62
5
39
2
10
203.606731
20
248.639910
11
204.115649
21
249.430709
0
LINE
8
boundary
62
5
39
2
10
204.115649
20
249.430709
11
204.626409
21
250.224213
0
LINE
8
boundary
62
5
39
2
10
204.626409
20
250.224213
11
204.839643
21
250.791364
0
LINE
8
boundary
62
5
39
2
10
204.839643
20
250.791364
11
204.891980
21
251.333112
0
LINE
8
boundary
62
5
39
2
10
204.891980
20
251.333112
11
147.544658
21
251.333112
0
LINE
8
boundary
62
5
39
2
10
147.544658
20
251.333112
11
147.544658
21
254.233112
0
LINE
8
boundary
62
5
39
2
10
147.544658
20
254.233112
11
205.220571
21
254.233112
0
LINE
8
boundary
62
5
39
2
10
205.220571
20
254.233112
11
205.383910
21
256.565650
0
LINE
8
boundary
62
5
39
2
10
205.383910
20
256.565650
11
205.403715
21
257.390357
0
LINE
8
boundary
62
5
39
2
10
205.403715
20
257.390357
11
205.383787
21
258.214043
0
LINE
8
boundary
62
5
39
2
10
205.383787
20
258.214043
11
205.285798
21
261.353549
0
LINE
8
boundary
62
5
39
2
10
205.285798
20
261.353549
11
148.311427
21
261.503549
0
LINE
8
boundary
62
5
39
2
10
148.311427
20
261.503549
11
148.311427
21
264.403549
0
LINE
8
boundary
62
5
39
2
10
148.311427
20
264.403549
11
204.532677
21
264.403549
0
LINE
8
boundary
62
5
39
2
10
204.532677
20
264.403549
11
204.119154
21
265.344540
0
LINE
8
boundary
62
5
39
2
10
204.119154
20
265.344540
11
203.606548
21
266.140781
0
LINE
8
boundary
62
5
39
2
10
203.606548
20
266.140781
11
202.386751
21
267.449997
0
LINE
8
boundary
62
5
39
2
10
202.386751
20
267.449997
11
201.497082
21
268.232062
0
LINE
8
boundary
62
5
39
2
10
201.497082
20
268.232062
11
200.050596
21
269.271113
0
LINE
8
boundary
62
5
39
2
10
200.050596
20
269.271113
11
198.405188
21
270.193032
0
LINE
8
boundary
62
5
39
2
10
198.405188
20
270.193032
11
197.383212
21
270.765668
0
LINE
8
boundary
62
5
39
2
10
197.383212
20
270.765668
11
196.503113
21
271.159811
0
LINE
8
boundary
62
5
39
2
10
196.503113
20
271.159811
11
193.924770
21
272.178166
0
LINE
8
boundary
62
5
39
2
10
193.924770
20
272.178166
11
191.743222
21
272.875660
0
LINE
8
boundary
62
5
39
2
10
191.743222
20
272.875660
11
189.544267
21
273.483913
0
LINE
8
boundary
62
5
39
2
10
189.544267
20
273.483913
11
187.185100
21
274.014278
0
LINE
8
boundary
62
5
39
2
10
187.185100
20
274.014278
11
183.774506
21
274.661106
0
LINE
8
boundary
62
5
39
2
10
183.774506
20
274.661106
11
182.801192
21
274.810535
0
LINE
8
boundary
62
5
39
2
10
182.801192
20
274.810535
11
181.556102
21
274.966264
0
LINE
8
boundary
62
5
39
2
10
181.556102
20
274.966264
11
178.567676
21
275.340057
0
LINE
8
boundary
62
5
39
2
10
178.567676
20
275.340057
11
174.929415
21
275.692026
0
LINE
8
boundary
62
5
39
2
10
174.929415
20
275.692026
11
174.247544
21
275.739891
0
LINE
8
boundary
62
5
39
2
10
174.247544
20
275.739891
11
170.470693
21
275.947020
0
LINE
8
boundary
62
5
39
2
10
170.470693
20
275.947020
11
169.153911
21
275.989930
0
LINE
8
boundary
62
5
39
2
10
169.153911
20
275.989930
11
166.572489
21
276.074071
0
LINE
8
boundary
62
5
39
2
10
166.572489
20
276.074071
11
164.538180
21
276.102077
0
LINE
8
boundary
62
5
39
2
10
164.538180
20
276.102077
11
162.754392
21
276.117536
0
LINE
8
boundary
62
5
39
2
10
162.754392
20
276.117536
11
158.251579
21
276.117536
0
LINE
8
boundary
62
5
39
2
10
158.251579
20
276.117536
11
151.335946
21
276.117536
0
LINE
8
boundary
62
5
39
2
10
151.335946
20
276.117536
11
150.282548
21
276.100920
0
LINE
8
boundary
62
5
39
2
10
150.282548
20
276.100920
11
149.180320
21
276.058438
0
LINE
8
boundary
62
5
39
2
10
149.180320
20
276.058438
11
149.180957
21
276.712785
0
LINE
8
boundary
62
5
39
2
10
149.180957
20
276.712785
11
149.182083
21
277.880194
0
LINE
8
boundary
62
5
39
2
10
149.182083
20
277.880194
11
149.182561
21
279.562661
0
LINE
8
boundary
62
5
39
2
10
149.182561
20
279.562661
11
149.182560
21
284.958817
0
LINE
8
boundary
62
5
39
2
10
149.182560
20
284.958817
11
149.182560
21
291.014710
0
LINE
8
boundary
62
5
39
2
10
149.182560
20
291.014710
11
145.408325
21
291.014711
0
LINE
8
boundary
62
5
39
2
10
145.408325
20
291.014711
11
126.739993
21
291.014710
0
LINE
8
boundary
62
5
39
2
10
126.739993
20
291.014710
11
123.652239
21
289.964874
0
LINE
8
boundary
62
5
39
2
10
123.652239
20
289.964874
11
108.379419
21
284.772116
0
LINE
8
boundary
62
5
39
2
10
108.379419
20
284.772116
11
105.856070
21
282.627272
0
LINE
8
boundary
62
5
39
2
10
105.856070
20
282.627272
11
93.374945
21
272.018329
0
LINE
8
boundary
62
5
39
2
10
93.374945
20
272.018329
11
92.753292
21
269.376292
0
LINE
8
boundary
62
5
39
2
10
92.753292
20
269.376292
11
89.678441
21
256.308107
0
LINE
8
boundary
62
5
39
2
10
89.678441
20
256.308107
11
89.678441
21
251.044514
0
LINE
8
boundary
62
5
39
2
10
89.678441
20
251.044514
11
89.678440
21
225.009442
0
LINE
8
boundary
62
5
39
2
10
89.678440
20
225.009442
11
91.891793
21
223.259368
0
LINE
8
boundary
62
5
39
2
10
91.891793
20
223.259368
11
90.958363
21
223.201931
0
LINE
8
boundary
62
5
39
2
10
90.958363
20
223.201931
11
86.059028
21
222.900457
0
LINE
8
boundary
62
5
39
2
10
86.059028
20
222.900457
11
84.985861
21
221.919844
0
LINE
8
boundary
62
5
39
2
10
84.985861
20
221.919844
11
83.066853
21
220.166339
0
LINE
8
boundary
62
5
39
2
10
83.066853
20
220.166339
11
83.066854
21
205.826688
0
LINE
8
boundary
62
5
39
2
10
83.066854
20
205.826688
11
83.066853
21
202.697221
0
LINE
8
boundary
62
5
39
2
10
83.066853
20
202.697221
11
63.419915
21
202.697221
0
LINE
8
boundary
62
5
39
2
10
63.419915
20
202.697221
11
25.540364
21
202.697221
0
LINE
8
boundary
62
5
39
2
10
25.540364
20
202.697221
11
22.746773
21
202.697221
0
LINE
8
boundary
62
5
39
2
10
22.746773
20
202.697221
11
19.123344
21
200.004889
0
LINE
8
boundary
62
5
39
2
10
19.123344
20
200.004889
11
18.729988
21
199.670540
0
LINE
8
boundary
62
5
39
2
10
18.729988
20
199.670540
11
3.967773
21
187.122670
0
LINE
8
boundary
62
5
39
2
10
3.967773
20
187.122670
11
1.587500
21
185.099440
0
LINE
8
boundary
62
5
39
2
10
1.587500
20
185.099440
11
1.587500
21
177.409655
0
LINE
8
boundary
62
5
39
2
10
1.587500
20
177.409655
11
1.587500
21
107.898313
0
LINE
8
boundary
62
5
39
2
10
1.587500
20
107.898313
11
3.967774
21
105.875083
0
LINE
8
boundary
62
5
39
2
10
3.967774
20
105.875083
11
18.729988
21
93.327212
0
LINE
8
boundary
62
5
39
2
10
18.729988
20
93.327212
11
19.123344
21
92.992864
0
LINE
8
boundary
62
5
39
2
10
19.123344
20
92.992864
11
22.746774
21
90.300532
0
LINE
8
boundary
62
5
39
2
10
22.746774
20
90.300532
11
25.540365
21
90.300532
0
LINE
8
boundary
62
5
39
2
10
25.540365
20
90.300532
11
63.419916
21
90.300532
0
LINE
8
boundary
62
5
39
2
10
63.419916
20
90.300532
11
83.066853
21
90.300533
0
LINE
8
boundary
62
5
39
2
10
83.066853
20
90.300533
11
83.066853
21
87.135039
0
LINE
8
boundary
62
5
39
2
10
83.066853
20
87.135039
11
83.066853
21
72.630311
0
LINE
8
boundary
62
5
39
2
10
83.066853
20
72.630311
11
84.985744
21
70.875342
0
LINE
8
boundary
62
5
39
2
10
84.985744
20
70.875342
11
86.058846
21
69.893911
0
LINE
8
boundary
62
5
39
2
10
86.058846
20
69.893911
11
91.129143
21
69.578022
0
LINE
8
boundary
62
5
39
2
10
91.129143
20
69.578022
11
92.111777
21
69.516802
0
LINE
8
boundary
62
5
39
2
10
92.111777
20
69.516802
11
91.627064
21
69.133543
0
LINE
8
boundary
62
5
39
2
10
91.627064
20
69.133543
11
89.678441
21
67.592786
0
LINE
8
boundary
62
5
39
2
10
89.678441
20
67.592786
11
89.678441
21
62.329191
0
LINE
8
boundary
62
5
39
2
10
89.678441
20
62.329191
11
89.678441
21
36.294115
0
LINE
8
boundary
62
5
39
2
10
89.678441
20
36.294115
11
90.300094
21
33.652080
0
LINE
8
boundary
62
5
39
2
10
90.300094
20
33.652080
11
93.374945
21
20.583906
0
LINE
8
boundary
62
5
39
2
10
93.374945
20
20.583906
11
95.898293
21
18.439057
0
LINE
8
boundary
62
5
39
2
10
95.898293
20
18.439057
11
108.379420
21
7.830094
0
LINE
8
boundary
62
5
39
2
10
108.379420
20
7.830094
11
111.467174
21
6.780257
0
LINE
8
boundary
62
5
39
2
10
111.467174
20
6.780257
11
126.739993
21
1.587500
0
LINE
8
boundary
62
5
39
2
10
126.739993
20
1.587500
11
130.514229
21
1.587500
0
LINE
8
boundary
62
5
39
2
10
130.514229
20
1.587500
11
149.182561
21
1.587500
0
LINE
8
boundary
62
5
39
2
10
149.182561
20
1.587500
11
149.182561
21
2.811841
0
LINE
8
boundary
62
5
39
2
10
149.182561
20
2.811841
11
149.182561
21
4.835468
0
LINE
8
boundary
62
5
39
2
10
149.182561
20
4.835468
11
149.182560
21
8.009987
0
LINE
8
boundary
62
5
39
2
10
149.182560
20
8.009987
11
149.182561
21
12.783115
0
LINE
8
boundary
62
5
39
2
10
149.182561
20
12.783115
11
149.182561
21
14.232126
0
LINE
8
boundary
62
5
39
2
10
149.182561
20
14.232126
11
149.180958
21
15.889438
0
LINE
8
boundary
62
5
39
2
10
149.180958
20
15.889438
11
149.180320
21
16.543789
0
LINE
8
boundary
62
5
39
2
10
149.180320
20
16.543789
11
150.195214
21
16.501302
0
LINE
8
boundary
62
5
39
2
10
150.195214
20
16.501302
11
151.165065
21
16.484679
0
LINE
8
boundary
62
5
39
2
10
151.165065
20
16.484679
11
158.080691
21
16.484679
0
LINE
8
boundary
62
5
39
2
10
158.080691
20
16.484679
11
162.583500
21
16.484679
0
LINE
8
boundary
62
5
39
2
10
162.583500
20
16.484679
11
164.358078
21
16.498303
0
LINE
8
boundary
62
5
39
2
10
164.358078
20
16.498303
11
166.401433
21
16.524433
0
LINE
8
boundary
62
5
39
2
10
166.401433
20
16.524433
11
167.893816
21
16.571593
0
LINE
8
boundary
62
5
39
2
10
167.893816
20
16.571593
11
170.299122
21
16.647684
0
LINE
8
boundary
62
5
39
2
10
170.299122
20
16.647684
11
171.248629
21
16.698815
0
LINE
8
boundary
62
5
39
2
10
171.248629
20
16.698815
11
174.291175
21
16.862768
0
LINE
8
boundary
62
5
39
2
10
174.291175
20
16.862768
11
174.912395
21
16.910208
0
LINE
8
boundary
62
5
39
2
10
174.912395
20
16.910208
11
177.421014
21
17.149873
0
LINE
8
boundary
62
5
39
2
10
177.421014
20
17.149873
11
178.393959
21
17.242873
0
LINE
8
boundary
62
5
39
2
10
178.393959
20
17.242873
11
180.274386
21
17.475815
0
LINE
8
boundary
62
5
39
2
10
180.274386
20
17.475815
11
182.625790
21
17.767222
0
LINE
8
boundary
62
5
39
2
10
182.625790
20
17.767222
11
183.767072
21
17.941116
0
LINE
8
boundary
62
5
39
2
10
183.767072
20
17.941116
11
185.656715
21
18.296772
0
LINE
8
boundary
62
5
39
2
10
185.656715
20
18.296772
11
187.007546
21
18.551107
0
LINE
8
boundary
62
5
39
2
10
187.007546
20
18.551107
11
188.169980
21
18.810776
0
LINE
8
boundary
62
5
39
2
10
188.169980
20
18.810776
11
189.546229
21
19.118310
0
LINE
8
boundary
62
5
39
2
10
189.546229
20
19.118310
11
190.563963
21
19.398072
0
LINE
8
boundary
62
5
39
2
10
190.563963
20
19.398072
11
191.563019
21
19.672789
0
LINE
8
boundary
62
5
39
2
10
191.563019
20
19.672789
11
192.816884
21
20.071553
0
LINE
8
boundary
62
5
39
2
10
192.816884
20
20.071553
11
193.925005
21
20.424068
0
LINE
8
boundary
62
5
39
2
10
193.925005
20
20.424068
11
194.943076
21
20.824052
0
LINE
8
boundary
62
5
39
2
10
194.943076
20
20.824052
11
196.319700
21
21.365065
0
LINE
8
boundary
62
5
39
2
10
196.319700
20
21.365065
11
196.959237
21
21.650173
0
LINE
8
boundary
62
5
39
2
10
196.959237
20
21.650173
11
198.737442
21
22.595285
0
LINE
8
boundary
62
5
39
2
10
198.737442
20
22.595285
11
200.056264
21
23.331122
0
LINE
8
boundary
62
5
39
2
10
200.056264
20
23.331122
11
201.309815
21
24.227711
0
LINE
8
boundary
62
5
39
2
10
201.309815
20
24.227711
11
201.902959
21
24.701654
0
LINE
8
boundary
62
5
39
2
10
201.902959
20
24.701654
11
203.094488
21
25.914857
0
LINE
8
boundary
62
5
39
2
10
203.094488
20
25.914857
11
203.605553
21
26.461443
0
LINE
8
boundary
62
5
39
2
10
203.605553
20
26.461443
11
204.082818
21
27.199846
0
LINE
8
boundary
62
5
39
2
10
204.082818
20
27.199846
11
204.629388
21
28.045757
0
LINE
8
boundary
62
5
39
2
10
204.629388
20
28.045757
11
204.822633
21
28.557492
0
LINE
8
boundary
62
5
39
2
10
204.822633
20
28.557492
11
148.243315
21
28.889542
0
LINE
8
boundary
62
5
39
2
10
148.243315
20
28.889542
11
148.243315
21
31.789543
0
LINE
8
boundary
62
5
39
2
10
148.243315
20
31.789543
11
205.216818
21
31.789543
0
LINE
8
boundary
62
5
39
2
10
205.216818
20
31.789543
11
205.392239
21
34.507031
0
LINE
8
boundary
62
5
39
2
10
205.392239
20
34.507031
11
205.409354
21
35.211877
0
LINE
8
boundary
62
5
39
2
10
205.409354
20
35.211877
11
205.392337
21
35.917599
0
LINE
8
boundary
62
5
39
2
10
205.392337
20
35.917599
11
205.286505
21
39.284630
0
LINE
8
boundary
62
5
39
2
10
205.286505
20
39.284630
11
147.528782
21
39.471066
0
LINE
8
boundary
62
5
39
2
10
147.528782
20
39.471066
11
147.528782
21
42.371066
0
LINE
8
boundary
62
5
39
2
10
147.528782
20
42.371066
11
204.441687
21
42.371066
0
LINE
8
boundary
62
5
39
2
10
204.441687
20
42.371066
11
204.161697
21
43.101540
0
LINE
8
boundary
62
5
39
2
10
204.161697
20
43.101540
11
203.605592
21
43.962312
0
LINE
8
boundary
62
5
39
2
10
203.605592
20
43.962312
11
202.445543
21
45.203297
0
LINE
8
boundary
62
5
39
2
10
202.445543
20
45.203297
11
201.333757
21
46.177826
0
LINE
8
boundary
62
5
39
2
10
201.333757
20
46.177826
11
200.055381
21
47.092638
0
LINE
8
boundary
62
5
39
2
10
200.055381
20
47.092638
11
198.585114
21
47.913370
0
LINE
8
boundary
62
5
39
2
10
198.585114
20
47.913370
11
197.378046
21
48.587187
0
LINE
8
boundary
62
5
39
2
10
197.378046
20
48.587187
11
196.349284
21
49.046211
0
LINE
8
boundary
62
5
39
2
10
196.349284
20
49.046211
11
193.924837
21
49.999697
0
LINE
8
boundary
62
5
39
2
10
193.924837
20
49.999697
11
191.595643
21
50.741237
0
LINE
8
boundary
62
5
39
2
10
191.595643
20
50.741237
11
189.545697
21
51.305444
0
LINE
8
boundary
62
5
39
2
10
189.545697
20
51.305444
11
187.042018
21
51.865492
0
LINE
8
boundary
62
5
39
2
10
187.042018
20
51.865492
11
183.768367
21
52.482631
0
LINE
8
boundary
62
5
39
2
10
183.768367
20
52.482631
11
182.661456
21
52.651553
0
LINE
8
boundary
62
5
39
2
10
182.661456
20
52.651553
11
181.265591
21
52.824840
0
LINE
8
boundary
62
5
39
2
10
181.265591
20
52.824840
11
178.430335
21
53.176841
0
LINE
8
boundary
62
5
39
2
10
178.430335
20
53.176841
11
174.915709
21
53.513552
0
LINE
8
boundary
62
5
39
2
10
174.915709
20
53.513552
11
174.328060
21
53.558549
0
LINE
8
boundary
62
5
39
2
10
174.328060
20
53.558549
11
170.336253
21
53.774446
0
LINE
8
boundary
62
5
39
2
10
170.336253
20
53.774446
11
168.994459
21
53.817146
0
LINE
8
boundary
62
5
39
2
10
168.994459
20
53.817146
11
166.438696
21
53.898511
0
LINE
8
boundary
62
5
39
2
10
166.438696
20
53.898511
11
164.397318
21
53.925055
0
LINE
8
boundary
62
5
39
2
10
164.397318
20
53.925055
11
162.620808
21
53.939065
0
LINE
8
boundary
62
5
39
2
10
162.620808
20
53.939065
11
155.705181
21
53.939065
0
LINE
8
boundary
62
5
39
2
10
155.705181
20
53.939065
11
151.202371
21
53.939065
0
LINE
8
boundary
62
5
39
2
10
151.202371
20
53.939065
11
149.955241
21
53.943271
0
LINE
8
boundary
62
5
39
2
10
149.955241
20
53.943271
11
149.143892
21
53.946006
0
LINE
8
boundary
62
5
39
2
10
149.143892
20
53.946006
11
149.143162
21
54.697679
0
LINE
8
boundary
62
5
39
2
10
149.143162
20
54.697679
11
149.141602
21
56.300020
0
LINE
8
boundary
62
5
39
2
10
149.141602
20
56.300020
11
149.140385
21
57.552519
0
LINE
8
boundary
62
5
39
2
10
149.140385
20
57.552519
11
149.139445
21
58.514122
0
LINE
8
boundary
62
5
39
2
10
149.139445
20
58.514122
11
149.138743
21
59.234612
0
LINE
8
boundary
62
5
39
2
10
149.138743
20
59.234612
11
149.138236
21
59.755269
0
LINE
8
boundary
62
5
39
2
10
149.138236
20
59.755269
11
149.135714
21
62.346663
0
LINE
8
boundary
62
5
39
2
10
149.135714
20
62.346663
11
149.132192
21
65.964300
0
LINE
8
boundary
62
5
39
2
10
149.132192
20
65.964300
11
202.175836
21
62.659566
0
LINE
8
boundary
62
5
39
2
10
202.175836
20
62.659566
11
235.215612
21
60.601116
0
LINE
8
boundary
62
5
39
2
10
235.215612
20
60.601116
11
252.321853
21
60.601116
0
LINE
8
boundary
62
5
39
2
10
252.321853
20
60.601116
11
295.215604
21
60.601116
0
LINE
8
boundary
62
5
39
2
10
295.215604
20
60.601116
11
295.215605
21
71.516940
0
LINE
8
boundary
62
5
39
2
10
295.215605
20
71.516940
11
295.215605
21
72.344302
0
LINE
8
boundary
62
5
39
2
10
295.215605
20
72.344302
11
189.191229
21
72.494303
0
LINE
8
boundary
62
5
39
2
10
189.191229
20
72.494303
11
189.191229
21
75.394303
0
LINE
8
boundary
62
5
39
2
10
189.191229
20
75.394303
11
295.120605
21
75.394302
0
LINE
8
boundary
62
5
39
2
10
295.120605
20
75.394302
11
295.215605
21
75.544303
0
LINE
8
annotation
62
1
39
211
10
142.726415
20
27.939542
11
142.726415
21
32.739542
0
LINE
8
annotation
62
1
39
211
10
142.726415
20
32.739542
11
141.659313
21
31.672140
0
LINE
8
annotation
62
1
39
211
10
142.544077
20
38.521027
11
140.412283
21
38.521027
0
LINE
8
annotation
62
1
39
211
10
140.412283
20
38.521027
11
142.382131
21
41.692230
0
LINE
8
annotation
62
1
39
211
10
142.382131
20
41.692230
11
142.382131
21
41.692230
0
LINE
8
annotation
62
1
39
211
10
142.382131
20
41.692230
11
142.384486
21
41.695144
0
LINE
8
annotation
62
1
39
211
10
142.384486
20
41.695144
11
142.386744
21
41.698083
0
LINE
8
annotation
62
1
39
211
10
142.386744
20
41.698083
11
142.388920
21
41.701071
0
LINE
8
annotation
62
1
39
211
10
142.388920
20
41.701071
11
142.391030
21
41.704133
0
LINE
8
annotation
62
1
39
211
10
142.391030
20
41.704133
11
142.393088
21
41.707295
0
LINE
8
annotation
62
1
39
211
10
142.393088
20
41.707295
11
142.395108
21
41.710581
0
LINE
8
annotation
62
1
39
211
10
142.395108
20
41.710581
11
142.397106
21
41.714015
0
LINE
8
annotation
62
1
39
211
10
142.397106
20
41.714015
11
142.399097
21
41.717623
0
LINE
8
annotation
62
1
39
211
10
142.399097
20
41.717623
11
142.401095
21
41.721428
0
LINE
8
annotation
62
1
39
211
10
142.401095
20
41.721428
11
142.401095
21
41.721428
0
LINE
8
annotation
62
1
39
211
10
142.401095
20
41.721428
11
142.482429
21
41.896061
0
LINE
8
annotation
62
1
39
211
10
142.482429
20
41.896061
11
142.529944
21
42.077082
0
LINE
8
annotation
62
1
39
211
10
142.529944
20
42.077082
11
142.544802
21
42.260403
0
LINE
8
annotation
62
1
39
211
10
142.544802
20
42.260403
11
142.528169
21
42.441933
0
LINE
8
annotation
62
1
39
211
10
142.528169
20
42.441933
11
142.481209
21
42.617581
0
LINE
8
annotation
62
1
39
211
10
142.481209
20
42.617581
11
142.405086
21
42.783257
0
LINE
8
annotation
62
1
39
211
10
142.405086
20
42.783257
11
142.300965
21
42.934870
0
LINE
8
annotation
62
1
39
211
10
142.300965
20
42.934870
11
142.170010
21
43.068331
0
LINE
8
annotation
62
1
39
211
10
142.170010
20
43.068331
11
142.013386
21
43.179550
0
LINE
8
annotation
62
1
39
211
10
142.013386
20
43.179550
11
142.013386
21
43.179550
0
LINE
8
annotation
62
1
39
211
10
142.013386
20
43.179550
11
141.838269
21
43.259728
0
LINE
8
annotation
62
1
39
211
10
141.838269
20
43.259728
11
141.656969
21
43.306511
0
LINE
8
annotation
62
1
39
211
10
141.656969
20
43.306511
11
141.473542
21
43.320949
0
LINE
8
annotation
62
1
39
211
10
141.473542
20
43.320949
11
141.292040
21
43.304097
0
LINE
8
annotation
62
1
39
211
10
141.292040
20
43.304097
11
141.116516
21
43.257006
0
LINE
8
annotation
62
1
39
211
10
141.116516
20
43.257006
11
140.951023
21
43.180731
0
LINE
8
annotation
62
1
39
211
10
140.951023
20
43.180731
11
140.799615
21
43.076324
0
LINE
8
annotation
62
1
39
211
10
140.799615
20
43.076324
11
140.666345
21
42.944838
0
LINE
8
annotation
62
1
39
211
10
140.666345
20
42.944838
11
140.555265
21
42.787326
0
LINE
8
annotation
62
1
39
211
10
140.555265
20
42.787326
11
140.415293
21
42.518820
0
LINE
8
annotation
62
1
39
211
10
182.074730
20
71.544453
11
183.140627
21
71.544453
0
LINE
8
annotation
62
1
39
211
10
183.140627
20
71.544453
11
183.140627
21
71.544453
0
LINE
8
annotation
62
1
39
211
10
183.140627
20
71.544453
11
183.332331
21
71.561650
0
LINE
8
annotation
62
1
39
211
10
183.332331
20
71.561650
11
183.512718
21
71.611213
0
LINE
8
annotation
62
1
39
211
10
183.512718
20
71.611213
11
183.678788
21
71.690100
0
LINE
8
annotation
62
1
39
211
10
183.678788
20
71.690100
11
183.827540
21
71.795268
0
LINE
8
annotation
62
1
39
211
10
183.827540
20
71.795268
11
183.955973
21
71.923675
0
LINE
8
annotation
62
1
39
211
10
183.955973
20
71.923675
11
184.061089
21
72.072279
0
LINE
8
annotation
62
1
39
211
10
184.061089
20
72.072279
11
184.139886
21
72.238037
0
LINE
8
annotation
62
1
39
211
10
184.139886
20
72.238037
11
184.189365
21
72.417906
0
LINE
8
annotation
62
1
39
211
10
184.189365
20
72.417906
11
184.206524
21
72.608845
0
LINE
8
annotation
62
1
39
211
10
184.206524
20
72.608845
11
184.206524
21
73.142547
0
LINE
8
annotation
62
1
39
211
10
184.206524
20
73.142547
11
184.206524
21
73.142547
0
LINE
8
annotation
62
1
39
211
10
184.206524
20
73.142547
11
184.189365
21
73.333406
0
LINE
8
annotation
62
1
39
211
10
184.189365
20
73.333406
11
184.139886
21
73.513234
0
LINE
8
annotation
62
1
39
211
10
184.139886
20
73.513234
11
184.061089
21
73.678979
0
LINE
8
annotation
62
1
39
211
10
184.061089
20
73.678979
11
183.955973
21
73.827593
0
LINE
8
annotation
62
1
39
211
10
183.955973
20
73.827593
11
183.827540
21
73.956025
0
LINE
8
annotation
62
1
39
211
10
183.827540
20
73.956025
11
183.678788
21
74.061225
0
LINE
8
annotation
62
1
39
211
10
183.678788
20
74.061225
11
183.512718
21
74.140144
0
LINE
8
annotation
62
1
39
211
10
183.512718
20
74.140144
11
183.332331
21
74.189732
0
LINE
8
annotation
62
1
39
211
10
183.332331
20
74.189732
11
183.140627
21
74.206939
0
LINE
8
annotation
62
1
39
211
10
183.140627
20
74.206939
11
182.606926
21
74.206939
0
LINE
8
annotation
62
1
39
211
10
182.606926
20
74.206939
11
183.140627
21
74.206939
0
LINE
8
annotation
62
1
39
211
10
183.140627
20
74.206939
11
183.140627
21
74.206939
0
LINE
8
annotation
62
1
39
211
10
183.140627
20
74.206939
11
183.332331
21
74.224150
0
LINE
8
annotation
62
1
39
211
10
183.332331
20
74.224150
11
183.512718
21
74.273767
0
LINE
8
annotation
62
1
39
211
10
183.512718
20
74.273767
11
183.678788
21
74.352764
0
LINE
8
annotation
62
1
39
211
10
183.678788
20
74.352764
11
183.827540
21
74.458118
0
LINE
8
annotation
62
1
39
211
10
183.827540
20
74.458118
11
183.955973
21
74.586801
0
LINE
8
annotation
62
1
39
211
10
183.955973
20
74.586801
11
184.061089
21
74.735791
0
LINE
8
annotation
62
1
39
211
10
184.061089
20
74.735791
11
184.139886
21
74.902060
0
LINE
8
annotation
62
1
39
211
10
184.139886
20
74.902060
11
184.189365
21
75.082586
0
LINE
8
annotation
62
1
39
211
10
184.189365
20
75.082586
11
184.206524
21
75.274341
0
LINE
8
annotation
62
1
39
211
10
184.206524
20
75.274341
11
184.206524
21
75.274341
0
LINE
8
annotation
62
1
39
211
10
184.206524
20
75.274341
11
184.189365
21
75.465201
0
LINE
8
annotation
62
1
39
211
10
184.189365
20
75.465201
11
184.139886
21
75.645029
0
LINE
8
annotation
62
1
39
211
10
184.139886
20
75.645029
11
184.061089
21
75.810774
0
LINE
8
annotation
62
1
39
211
10
184.061089
20
75.810774
11
183.955973
21
75.959388
0
LINE
8
annotation
62
1
39
211
10
183.955973
20
75.959388
11
183.827540
21
76.087819
0
LINE
8
annotation
62
1
39
211
10
183.827540
20
76.087819
11
183.678788
21
76.193020
0
LINE
8
annotation
62
1
39
211
10
183.678788
20
76.193020
11
183.512718
21
76.271939
0
LINE
8
annotation
62
1
39
211
10
183.512718
20
76.271939
11
183.332331
21
76.321527
0
LINE
8
annotation
62
1
39
211
10
183.332331
20
76.321527
11
183.140627
21
76.338734
0
LINE
8
annotation
62
1
39
211
10
183.140627
20
76.338734
11
182.074730
21
76.338734
0
LINE
8
annotation
62
1
39
211
10
52.151418
20
97.494633
11
49.486223
21
97.494633
0
LINE
8
annotation
62
1
39
211
10
49.486223
20
97.494633
11
50.550615
21
101.227532
0
LINE
8
annotation
62
1
39
211
10
51.352522
20
96.427532
11
51.352522
21
98.559327
0
LINE
8
annotation
62
1
39
211
10
251.129703
20
97.494633
11
248.464508
21
97.494633
0
LINE
8
annotation
62
1
39
211
10
248.464508
20
97.494633
11
249.528901
21
101.227532
0
LINE
8
annotation
62
1
39
211
10
250.330807
20
96.427532
11
250.330807
21
98.559327
0
LINE
8
annotation
62
1
39
211
10
44.417165
20
111.823741
11
45.483062
21
111.823741
0
LINE
8
annotation
62
1
39
211
10
45.483062
20
111.823741
11
45.483062
21
111.823741
0
LINE
8
annotation
62
1
39
211
10
45.483062
20
111.823741
11
45.674370
21
111.840942
0
LINE
8
annotation
62
1
39
211
10
45.674370
20
111.840942
11
45.854546
21
111.890531
0
LINE
8
annotation
62
1
39
211
10
45.854546
20
111.890531
11
46.020554
21
111.969489
0
LINE
8
annotation
62
1
39
211
10
46.020554
20
111.969489
11
46.169355
21
112.074794
0
LINE
8
annotation
62
1
39
211
10
46.169355
20
112.074794
11
46.297913
21
112.203428
0
LINE
8
annotation
62
1
39
211
10
46.297913
20
112.203428
11
46.403190
21
112.352370
0
LINE
8
annotation
62
1
39
211
10
46.403190
20
112.352370
11
46.482148
21
112.518600
0
LINE
8
annotation
62
1
39
211
10
46.482148
20
112.518600
11
46.531750
21
112.699097
0
LINE
8
annotation
62
1
39
211
10
46.531750
20
112.699097
11
46.548960
21
112.890843
0
LINE
8
annotation
62
1
39
211
10
46.548960
20
112.890843
11
46.548960
21
113.421835
0
LINE
8
annotation
62
1
39
211
10
46.548960
20
113.421835
11
46.548960
21
113.421835
0
LINE
8
annotation
62
1
39
211
10
46.548960
20
113.421835
11
46.531760
21
113.613488
0
LINE
8
annotation
62
1
39
211
10
46.531760
20
113.613488
11
46.482183
21
113.793736
0
LINE
8
annotation
62
1
39
211
10
46.482183
20
113.793736
11
46.403257
21
113.959605
0
LINE
8
annotation
62
1
39
211
10
46.403257
20
113.959605
11
46.298012
21
114.108120
0
LINE
8
annotation
62
1
39
211
10
46.298012
20
114.108120
11
46.169479
21
114.236304
0
LINE
8
annotation
62
1
39
211
10
46.169479
20
114.236304
11
46.020688
21
114.341182
0
LINE
8
annotation
62
1
39
211
10
46.020688
20
114.341182
11
45.854668
21
114.419779
0
LINE
8
annotation
62
1
39
211
10
45.854668
20
114.419779
11
45.674449
21
114.469119
0
LINE
8
annotation
62
1
39
211
10
45.674449
20
114.469119
11
45.483062
21
114.486227
0
LINE
8
annotation
62
1
39
211
10
45.483062
20
114.486227
11
44.417165
21
114.486227
0
LINE
8
annotation
62
1
39
211
10
44.417165
20
114.486227
11
44.417165
21
116.623741
0
LINE
8
annotation
62
1
39
211
10
44.417165
20
116.623741
11
46.548960
21
116.623741
0
LINE
8
annotation
62
1
39
211
10
248.731209
20
111.823741
11
249.797106
21
111.823741
0
LINE
8
annotation
62
1
39
211
10
249.797106
20
111.823741
11
249.797106
21
111.823741
0
LINE
8
annotation
62
1
39
211
10
249.797106
20
111.823741
11
249.988414
21
111.840942
0
LINE
8
annotation
62
1
39
211
10
249.988414
20
111.840942
11
250.168590
21
111.890531
0
LINE
8
annotation
62
1
39
211
10
250.168590
20
111.890531
11
250.334598
21
111.969489
0
LINE
8
annotation
62
1
39
211
10
250.334598
20
111.969489
11
250.483399
21
112.074794
0
LINE
8
annotation
62
1
39
211
10
250.483399
20
112.074794
11
250.611957
21
112.203428
0
LINE
8
annotation
62
1
39
211
10
250.611957
20
112.203428
11
250.717234
21
112.352370
0
LINE
8
annotation
62
1
39
211
10
250.717234
20
112.352370
11
250.796192
21
112.518600
0
LINE
8
annotation
62
1
39
211
10
250.796192
20
112.518600
11
250.845794
21
112.699097
0
LINE
8
annotation
62
1
39
211
10
250.845794
20
112.699097
11
250.863003
21
112.890843
0
LINE
8
annotation
62
1
39
211
10
250.863003
20
112.890843
11
250.863003
21
113.421835
0
LINE
8
annotation
62
1
39
211
10
250.863003
20
113.421835
11
250.863003
21
113.421835
0
LINE
8
annotation
62
1
39
211
10
250.863003
20
113.421835
11
250.845804
21
113.613488
0
LINE
8
annotation
62
1
39
211
10
250.845804
20
113.613488
11
250.796226
21
113.793736
0
LINE
8
annotation
62
1
39
211
10
250.796226
20
113.793736
11
250.717300
21
113.959605
0
LINE
8
annotation
62
1
39
211
10
250.717300
20
113.959605
11
250.612056
21
114.108120
0
LINE
8
annotation
62
1
39
211
10
250.612056
20
114.108120
11
250.483523
21
114.236304
0
LINE
8
annotation
62
1
39
211
10
250.483523
20
114.236304
11
250.334732
21
114.341182
0
LINE
8
annotation
62
1
39
211
10
250.334732
20
114.341182
11
250.168712
21
114.419779
0
LINE
8
annotation
62
1
39
211
10
250.168712
20
114.419779
11
249.988493
21
114.469119
0
LINE
8
annotation
62
1
39
211
10
249.988493
20
114.469119
11
249.797106
21
114.486227
0
LINE
8
annotation
62
1
39
211
10
249.797106
20
114.486227
11
248.731209
21
114.486227
0
LINE
8
annotation
62
1
39
211
10
248.731209
20
114.486227
11
248.731209
21
116.623741
0
LINE
8
annotation
62
1
39
211
10
248.731209
20
116.623741
11
250.863003
21
116.623741
0
LINE
8
annotation
62
1
39
211
10
46.018268
20
181.116784
11
46.018268
21
181.116784
0
LINE
8
annotation
62
1
39
211
10
46.018268
20
181.116784
11
45.712916
21
181.002295
0
LINE
8
annotation
62
1
39
211
10
45.712916
20
181.002295
11
45.432714
21
180.848035
0
LINE
8
annotation
62
1
39
211
10
45.432714
20
180.848035
11
45.180541
21
180.657869
0
LINE
8
annotation
62
1
39
211
10
45.180541
20
180.657869
11
44.959272
21
180.435661
0
LINE
8
annotation
62
1
39
211
10
44.959272
20
180.435661
11
44.771784
21
180.185276
0
LINE
8
annotation
62
1
39
211
10
44.771784
20
180.185276
11
44.620952
21
179.910580
0
LINE
8
annotation
62
1
39
211
10
44.620952
20
179.910580
11
44.509655
21
179.615437
0
LINE
8
annotation
62
1
39
211
10
44.509655
20
179.615437
11
44.440767
21
179.303712
0
LINE
8
annotation
62
1
39
211
10
44.440767
20
179.303712
11
44.417165
21
178.979270
0
LINE
8
annotation
62
1
39
211
10
44.417165
20
178.979270
11
44.417165
21
177.383886
0
LINE
8
annotation
62
1
39
211
10
44.417165
20
177.383886
11
44.417165
21
177.383886
0
LINE
8
annotation
62
1
39
211
10
44.417165
20
177.383886
11
44.434374
21
177.192140
0
LINE
8
annotation
62
1
39
211
10
44.434374
20
177.192140
11
44.483976
21
177.011643
0
LINE
8
annotation
62
1
39
211
10
44.483976
20
177.011643
11
44.562934
21
176.845413
0
LINE
8
annotation
62
1
39
211
10
44.562934
20
176.845413
11
44.668211
21
176.696471
0
LINE
8
annotation
62
1
39
211
10
44.668211
20
176.696471
11
44.796769
21
176.567837
0
LINE
8
annotation
62
1
39
211
10
44.796769
20
176.567837
11
44.945570
21
176.462532
0
LINE
8
annotation
62
1
39
211
10
44.945570
20
176.462532
11
45.111578
21
176.383574
0
LINE
8
annotation
62
1
39
211
10
45.111578
20
176.383574
11
45.291754
21
176.333985
0
LINE
8
annotation
62
1
39
211
10
45.291754
20
176.333985
11
45.483062
21
176.316784
0
LINE
8
annotation
62
1
39
211
10
45.483062
20
176.316784
11
45.483062
21
176.316784
0
LINE
8
annotation
62
1
39
211
10
45.483062
20
176.316784
11
45.674766
21
176.333985
0
LINE
8
annotation
62
1
39
211
10
45.674766
20
176.333985
11
45.855153
21
176.383574
0
LINE
8
annotation
62
1
39
211
10
45.855153
20
176.383574
11
46.021223
21
176.462532
0
LINE
8
annotation
62
1
39
211
10
46.021223
20
176.462532
11
46.169975
21
176.567837
0
LINE
8
annotation
62
1
39
211
10
46.169975
20
176.567837
11
46.298409
21
176.696471
0
LINE
8
annotation
62
1
39
211
10
46.298409
20
176.696471
11
46.403524
21
176.845413
0
LINE
8
annotation
62
1
39
211
10
46.403524
20
176.845413
11
46.482321
21
177.011643
0
LINE
8
annotation
62
1
39
211
10
46.482321
20
177.011643
11
46.531800
21
177.192140
0
LINE
8
annotation
62
1
39
211
10
46.531800
20
177.192140
11
46.548959
21
177.383886
0
LINE
8
annotation
62
1
39
211
10
46.548959
20
177.383886
11
46.548959
21
177.914878
0
LINE
8
annotation
62
1
39
211
10
46.548959
20
177.914878
11
46.548959
21
177.914878
0
LINE
8
annotation
62
1
39
211
10
46.548959
20
177.914878
11
46.531800
21
178.106530
0
LINE
8
annotation
62
1
39
211
10
46.531800
20
178.106530
11
46.482321
21
178.286779
0
LINE
8
annotation
62
1
39
211
10
46.482321
20
178.286779
11
46.403524
21
178.452648
0
LINE
8
annotation
62
1
39
211
10
46.403524
20
178.452648
11
46.298409
21
178.601163
0
LINE
8
annotation
62
1
39
211
10
46.298409
20
178.601163
11
46.169975
21
178.729347
0
LINE
8
annotation
62
1
39
211
10
46.169975
20
178.729347
11
46.021223
21
178.834225
0
LINE
8
annotation
62
1
39
211
10
46.021223
20
178.834225
11
45.855153
21
178.912822
0
LINE
8
annotation
62
1
39
211
10
45.855153
20
178.912822
11
45.674766
21
178.962162
0
LINE
8
annotation
62
1
39
211
10
45.674766
20
178.962162
11
45.483062
21
178.979270
0
LINE
8
annotation
62
1
39
211
10
45.483062
20
178.979270
11
44.417165
21
178.979270
0
LINE
8
annotation
62
1
39
211
10
44.283664
20
175.716784
11
46.683664
21
175.716784
0
LINE
8
annotation
62
1
39
211
10
250.332312
20
181.116784
11
250.332312
21
181.116784
0
LINE
8
annotation
62
1
39
211
10
250.332312
20
181.116784
11
250.026959
21
181.002295
0
LINE
8
annotation
62
1
39
211
10
250.026959
20
181.002295
11
249.746758
21
180.848035
0
LINE
8
annotation
62
1
39
211
10
249.746758
20
180.848035
11
249.494585
21
180.657869
0
LINE
8
annotation
62
1
39
211
10
249.494585
20
180.657869
11
249.273316
21
180.435661
0
LINE
8
annotation
62
1
39
211
10
249.273316
20
180.435661
11
249.085828
21
180.185276
0
LINE
8
annotation
62
1
39
211
10
249.085828
20
180.185276
11
248.934996
21
179.910580
0
LINE
8
annotation
62
1
39
211
10
248.934996
20
179.910580
11
248.823698
21
179.615437
0
LINE
8
annotation
62
1
39
211
10
248.823698
20
179.615437
11
248.754810
21
179.303712
0
LINE
8
annotation
62
1
39
211
10
248.754810
20
179.303712
11
248.731209
21
178.979270
0
LINE
8
annotation
62
1
39
211
10
248.731209
20
178.979270
11
248.731209
21
177.383886
0
LINE
8
annotation
62
1
39
211
10
248.731209
20
177.383886
11
248.731209
21
177.383886
0
LINE
8
annotation
62
1
39
211
10
248.731209
20
177.383886
11
248.748418
21
177.192140
0
LINE
8
annotation
62
1
39
211
10
248.748418
20
177.192140
11
248.798020
21
177.011643
0
LINE
8
annotation
62
1
39
211
10
248.798020
20
177.011643
11
248.876978
21
176.845413
0
LINE
8
annotation
62
1
39
211
10
248.876978
20
176.845413
11
248.982255
21
176.696471
0
LINE
8
annotation
62
1
39
211
10
248.982255
20
176.696471
11
249.110813
21
176.567837
0
LINE
8
annotation
62
1
39
211
10
249.110813
20
176.567837
11
249.259614
21
176.462532
0
LINE
8
annotation
62
1
39
211
10
249.259614
20
176.462532
11
249.425622
21
176.383574
0
LINE
8
annotation
62
1
39
211
10
249.425622
20
176.383574
11
249.605798
21
176.333985
0
LINE
8
annotation
62
1
39
211
10
249.605798
20
176.333985
11
249.797106
21
176.316784
0
LINE
8
annotation
62
1
39
211
10
249.797106
20
176.316784
11
249.797106
21
176.316784
0
LINE
8
annotation
62
1
39
211
10
249.797106
20
176.316784
11
249.988810
21
176.333985
0
LINE
8
annotation
62
1
39
211
10
249.988810
20
176.333985
11
250.169197
21
176.383574
0
LINE
8
annotation
62
1
39
211
10
250.169197
20
176.383574
11
250.335267
21
176.462532
0
LINE
8
annotation
62
1
39
211
10
250.335267
20
176.462532
11
250.484019
21
176.567837
0
LINE
8
annotation
62
1
39
211
10
250.484019
20
176.567837
11
250.612452
21
176.696471
0
LINE
8
annotation
62
1
39
211
10
250.612452
20
176.696471
11
250.717568
21
176.845413
0
LINE
8
annotation
62
1
39
211
10
250.717568
20
176.845413
11
250.796365
21
177.011643
0
LINE
8
annotation
62
1
39
211
10
250.796365
20
177.011643
11
250.845844
21
177.192140
0
LINE
8
annotation
62
1
39
211
10
250.845844
20
177.192140
11
250.863003
21
177.383886
0
LINE
8
annotation
62
1
39
211
10
250.863003
20
177.383886
11
250.863003
21
177.914878
0
LINE
8
annotation
62
1
39
211
10
250.863003
20
177.914878
11
250.863003
21
177.914878
0
LINE
8
annotation
62
1
39
211
10
250.863003
20
177.914878
11
250.845844
21
178.106530
0
LINE
8
annotation
62
1
39
211
10
250.845844
20
178.106530
11
250.796365
21
178.286779
0
LINE
8
annotation
62
1
39
211
10
250.796365
20
178.286779
11
250.717568
21
178.452648
0
LINE
8
annotation
62
1
39
211
10
250.717568
20
178.452648
11
250.612452
21
178.601163
0
LINE
8
annotation
62
1
39
211
10
250.612452
20
178.601163
11
250.484019
21
178.729347
0
LINE
8
annotation
62
1
39
211
10
250.484019
20
178.729347
11
250.335267
21
178.834225
0
LINE
8
annotation
62
1
39
211
10
250.335267
20
178.834225
11
250.169197
21
178.912822
0
LINE
8
annotation
62
1
39
211
10
250.169197
20
178.912822
11
249.988810
21
178.962162
0
LINE
8
annotation
62
1
39
211
10
249.988810
20
178.962162
11
249.797106
21
178.979270
0
LINE
8
annotation
62
1
39
211
10
249.797106
20
178.979270
11
248.731209
21
178.979270
0
LINE
8
annotation
62
1
39
211
10
248.597708
20
175.716784
11
250.997708
21
175.716784
0
LINE
8
annotation
62
1
39
211
10
51.150073
20
192.333349
11
52.217174
21
197.133349
0
LINE
8
annotation
62
1
39
211
10
52.217174
20
197.133349
11
50.082670
21
197.133349
0
LINE
8
annotation
62
1
39
211
10
52.217174
20
194.995835
11
51.150073
21
194.995835
0
LINE
8
annotation
62
1
39
211
10
249.797106
20
192.333349
11
250.864207
21
197.133349
0
LINE
8
annotation
62
1
39
211
10
250.864207
20
197.133349
11
248.729704
21
197.133349
0
LINE
8
annotation
62
1
39
211
10
250.864207
20
194.995835
11
249.797106
21
194.995835
0
LINE
8
annotation
62
1
39
211
10
182.074730
20
217.322149
11
182.074730
21
217.322149
0
LINE
8
annotation
62
1
39
211
10
182.074730
20
217.322149
11
182.091939
21
217.130497
0
LINE
8
annotation
62
1
39
211
10
182.091939
20
217.130497
11
182.141541
21
216.950248
0
LINE
8
annotation
62
1
39
211
10
182.141541
20
216.950248
11
182.220499
21
216.784379
0
LINE
8
annotation
62
1
39
211
10
182.220499
20
216.784379
11
182.325776
21
216.635865
0
LINE
8
annotation
62
1
39
211
10
182.325776
20
216.635865
11
182.454334
21
216.507680
0
LINE
8
annotation
62
1
39
211
10
182.454334
20
216.507680
11
182.603135
21
216.402802
0
LINE
8
annotation
62
1
39
211
10
182.603135
20
216.402802
11
182.769143
21
216.324205
0
LINE
8
annotation
62
1
39
211
10
182.769143
20
216.324205
11
182.949319
21
216.274865
0
LINE
8
annotation
62
1
39
211
10
182.949319
20
216.274865
11
183.140627
21
216.257757
0
LINE
8
annotation
62
1
39
211
10
183.140627
20
216.257757
11
183.140627
21
216.257757
0
LINE
8
annotation
62
1
39
211
10
183.140627
20
216.257757
11
183.331935
21
216.274865
0
LINE
8
annotation
62
1
39
211
10
183.331935
20
216.274865
11
183.512111
21
216.324205
0
LINE
8
annotation
62
1
39
211
10
183.512111
20
216.324205
11
183.678119
21
216.402802
0
LINE
8
annotation
62
1
39
211
10
183.678119
20
216.402802
11
183.826920
21
216.507680
0
LINE
8
annotation
62
1
39
211
10
183.826920
20
216.507680
11
183.955478
21
216.635865
0
LINE
8
annotation
62
1
39
211
10
183.955478
20
216.635865
11
184.060755
21
216.784379
0
LINE
8
annotation
62
1
39
211
10
184.060755
20
216.784379
11
184.139713
21
216.950248
0
LINE
8
annotation
62
1
39
211
10
184.139713
20
216.950248
11
184.189315
21
217.130497
0
LINE
8
annotation
62
1
39
211
10
184.189315
20
217.130497
11
184.206525
21
217.322149
0
LINE
8
annotation
62
1
39
211
10
184.206525
20
217.322149
11
184.206525
21
217.853142
0
LINE
8
annotation
62
1
39
211
10
184.206525
20
217.853142
11
184.206525
21
217.853142
0
LINE
8
annotation
62
1
39
211
10
184.206525
20
217.853142
11
184.189325
21
218.044887
0
LINE
8
annotation
62
1
39
211
10
184.189325
20
218.044887
11
184.139748
21
218.225385
0
LINE
8
annotation
62
1
39
211
10
184.139748
20
218.225385
11
184.060822
21
218.391614
0
LINE
8
annotation
62
1
39
211
10
184.060822
20
218.391614
11
183.955577
21
218.540556
0
LINE
8
annotation
62
1
39
211
10
183.955577
20
218.540556
11
183.827044
21
218.669190
0
LINE
8
annotation
62
1
39
211
10
183.827044
20
218.669190
11
183.678253
21
218.774496
0
LINE
8
annotation
62
1
39
211
10
183.678253
20
218.774496
11
183.512233
21
218.853453
0
LINE
8
annotation
62
1
39
211
10
183.512233
20
218.853453
11
183.332014
21
218.903042
0
LINE
8
annotation
62
1
39
211
10
183.332014
20
218.903042
11
183.140627
21
218.920243
0
LINE
8
annotation
62
1
39
211
10
183.140627
20
218.920243
11
183.140627
21
218.920243
0
LINE
8
annotation
62
1
39
211
10
183.140627
20
218.920243
11
182.949240
21
218.903032
0
LINE
8
annotation
62
1
39
211
10
182.949240
20
218.903032
11
182.769022
21
218.853418
0
LINE
8
annotation
62
1
39
211
10
182.769022
20
218.853418
11
182.603002
21
218.774429
0
LINE
8
annotation
62
1
39
211
10
182.603002
20
218.774429
11
182.454210
21
218.669091
0
LINE
8
annotation
62
1
39
211
10
182.454210
20
218.669091
11
182.325677
21
218.540432
0
LINE
8
annotation
62
1
39
211
10
182.325677
20
218.540432
11
182.220433
21
218.391481
0
LINE
8
annotation
62
1
39
211
10
182.220433
20
218.391481
11
182.141507
21
218.225263
0
LINE
8
annotation
62
1
39
211
10
182.141507
20
218.225263
11
182.091929
21
218.044808
0
LINE
8
annotation
62
1
39
211
10
182.091929
20
218.044808
11
182.074730
21
217.853142
0
LINE
8
annotation
62
1
39
211
10
182.074730
20
217.853142
11
182.074730
21
217.322149
0
LINE
8
annotation
62
1
39
211
10
184.206525
20
219.987646
11
184.206525
21
219.987646
0
LINE
8
annotation
62
1
39
211
10
184.206525
20
219.987646
11
184.189325
21
220.178505
0
LINE
8
annotation
62
1
39
211
10
184.189325
20
220.178505
11
184.139748
21
220.358333
0
LINE
8
annotation
62
1
39
211
10
184.139748
20
220.358333
11
184.060822
21
220.524078
0
LINE
8
annotation
62
1
39
211
10
184.060822
20
220.524078
11
183.955577
21
220.672692
0
LINE
8
annotation
62
1
39
211
10
183.955577
20
220.672692
11
183.827044
21
220.801124
0
LINE
8
annotation
62
1
39
211
10
183.827044
20
220.801124
11
183.678253
21
220.906324
0
LINE
8
annotation
62
1
39
211
10
183.678253
20
220.906324
11
183.512233
21
220.985243
0
LINE
8
annotation
62
1
39
211
10
183.512233
20
220.985243
11
183.332014
21
221.034831
0
LINE
8
annotation
62
1
39
211
10
183.332014
20
221.034831
11
183.140627
21
221.052038
0
LINE
8
annotation
62
1
39
211
10
183.140627
20
221.052038
11
183.140627
21
221.052038
0
LINE
8
annotation
62
1
39
211
10
183.140627
20
221.052038
11
182.949240
21
221.034831
0
LINE
8
annotation
62
1
39
211
10
182.949240
20
221.034831
11
182.769022
21
220.985243
0
LINE
8
annotation
62
1
39
211
10
182.769022
20
220.985243
11
182.603002
21
220.906324
0
LINE
8
annotation
62
1
39
211
10
182.603002
20
220.906324
11
182.454210
21
220.801124
0
LINE
8
annotation
62
1
39
211
10
182.454210
20
220.801124
11
182.325677
21
220.672692
0
LINE
8
annotation
62
1
39
211
10
182.325677
20
220.672692
11
182.220433
21
220.524078
0
LINE
8
annotation
62
1
39
211
10
182.220433
20
220.524078
11
182.141507
21
220.358333
0
LINE
8
annotation
62
1
39
211
10
182.141507
20
220.358333
11
182.091929
21
220.178505
0
LINE
8
annotation
62
1
39
211
10
182.091929
20
220.178505
11
182.074730
21
219.987646
0
LINE
8
annotation
62
1
39
211
10
182.074730
20
219.987646
11
182.074730
21
219.987646
0
LINE
8
annotation
62
1
39
211
10
182.074730
20
219.987646
11
182.091939
21
219.795890
0
LINE
8
annotation
62
1
39
211
10
182.091939
20
219.795890
11
182.141541
21
219.615364
0
LINE
8
annotation
62
1
39
211
10
182.141541
20
219.615364
11
182.220499
21
219.449095
0
LINE
8
annotation
62
1
39
211
10
182.220499
20
219.449095
11
182.325776
21
219.300105
0
LINE
8
annotation
62
1
39
211
10
182.325776
20
219.300105
11
182.454334
21
219.171422
0
LINE
8
annotation
62
1
39
211
10
182.454334
20
219.171422
11
182.603135
21
219.066069
0
LINE
8
annotation
62
1
39
211
10
182.603135
20
219.066069
11
182.769143
21
218.987071
0
LINE
8
annotation
62
1
39
211
10
182.769143
20
218.987071
11
182.949319
21
218.937454
0
LINE
8
annotation
62
1
39
211
10
182.949319
20
218.937454
11
183.140627
21
218.920243
0
LINE
8
annotation
62
1
39
211
10
183.140627
20
218.920243
11
183.140627
21
218.920243
0
LINE
8
annotation
62
1
39
211
10
183.140627
20
218.920243
11
183.331935
21
218.937454
0
LINE
8
annotation
62
1
39
211
10
183.331935
20
218.937454
11
183.512111
21
218.987071
0
LINE
8
annotation
62
1
39
211
10
183.512111
20
218.987071
11
183.678119
21
219.066069
0
LINE
8
annotation
62
1
39
211
10
183.678119
20
219.066069
11
183.826920
21
219.171422
0
LINE
8
annotation
62
1
39
211
10
183.826920
20
219.171422
11
183.955478
21
219.300105
0
LINE
8
annotation
62
1
39
211
10
183.955478
20
219.300105
11
184.060755
21
219.449095
0
LINE
8
annotation
62
1
39
211
10
184.060755
20
219.449095
11
184.139713
21
219.615364
0
LINE
8
annotation
62
1
39
211
10
184.139713
20
219.615364
11
184.189315
21
219.795890
0
LINE
8
annotation
62
1
39
211
10
184.189315
20
219.795890
11
184.206525
21
219.987646
0
LINE
8
annotation
62
1
39
211
10
140.960355
20
250.383112
11
140.960355
21
250.383112
0
LINE
8
annotation
62
1
39
211
10
140.960355
20
250.383112
11
141.265170
21
250.496701
0
LINE
8
annotation
62
1
39
211
10
141.265170
20
250.496701
11
141.544952
21
250.650238
0
LINE
8
annotation
62
1
39
211
10
141.544952
20
250.650238
11
141.796811
21
250.839809
0
LINE
8
annotation
62
1
39
211
10
141.796811
20
250.839809
11
142.017854
21
251.061504
0
LINE
8
annotation
62
1
39
211
10
142.017854
20
251.061504
11
142.205192
21
251.311410
0
LINE
8
annotation
62
1
39
211
10
142.205192
20
251.311410
11
142.355931
21
251.585615
0
LINE
8
annotation
62
1
39
211
10
142.355931
20
251.585615
11
142.467182
21
251.880208
0
LINE
8
annotation
62
1
39
211
10
142.467182
20
251.880208
11
142.536053
21
252.191276
0
LINE
8
annotation
62
1
39
211
10
142.536053
20
252.191276
11
142.559652
21
252.514907
0
LINE
8
annotation
62
1
39
211
10
142.559652
20
252.514907
11
142.559652
21
254.115710
0
LINE
8
annotation
62
1
39
211
10
142.559652
20
254.115710
11
142.559652
21
254.115710
0
LINE
8
annotation
62
1
39
211
10
142.559652
20
254.115710
11
142.542493
21
254.307466
0
LINE
8
annotation
62
1
39
211
10
142.542493
20
254.307466
11
142.493014
21
254.487991
0
LINE
8
annotation
62
1
39
211
10
142.493014
20
254.487991
11
142.414217
21
254.654261
0
LINE
8
annotation
62
1
39
211
10
142.414217
20
254.654261
11
142.309101
21
254.803250
0
LINE
8
annotation
62
1
39
211
10
142.309101
20
254.803250
11
142.180667
21
254.931934
0
LINE
8
annotation
62
1
39
211
10
142.180667
20
254.931934
11
142.031915
21
255.037287
0
LINE
8
annotation
62
1
39
211
10
142.031915
20
255.037287
11
141.865846
21
255.116284
0
LINE
8
annotation
62
1
39
211
10
141.865846
20
255.116284
11
141.685459
21
255.165901
0
LINE
8
annotation
62
1
39
211
10
141.685459
20
255.165901
11
141.493755
21
255.183112
0
LINE
8
annotation
62
1
39
211
10
141.493755
20
255.183112
11
141.493755
21
255.183112
0
LINE
8
annotation
62
1
39
211
10
141.493755
20
255.183112
11
141.302447
21
255.165901
0
LINE
8
annotation
62
1
39
211
10
141.302447
20
255.165901
11
141.122271
21
255.116284
0
LINE
8
annotation
62
1
39
211
10
141.122271
20
255.116284
11
140.956263
21
255.037287
0
LINE
8
annotation
62
1
39
211
10
140.956263
20
255.037287
11
140.807462
21
254.931934
0
LINE
8
annotation
62
1
39
211
10
140.807462
20
254.931934
11
140.678904
21
254.803250
0
LINE
8
annotation
62
1
39
211
10
140.678904
20
254.803250
11
140.573627
21
254.654261
0
LINE
8
annotation
62
1
39
211
10
140.573627
20
254.654261
11
140.494669
21
254.487991
0
LINE
8
annotation
62
1
39
211
10
140.494669
20
254.487991
11
140.445066
21
254.307466
0
LINE
8
annotation
62
1
39
211
10
140.445066
20
254.307466
11
140.427857
21
254.115710
0
LINE
8
annotation
62
1
39
211
10
140.427857
20
254.115710
11
140.427857
21
253.582009
0
LINE
8
annotation
62
1
39
211
10
140.427857
20
253.582009
11
140.427857
21
253.582009
0
LINE
8
annotation
62
1
39
211
10
140.427857
20
253.582009
11
140.445066
21
253.390263
0
LINE
8
annotation
62
1
39
211
10
140.445066
20
253.390263
11
140.494669
21
253.209765
0
LINE
8
annotation
62
1
39
211
10
140.494669
20
253.209765
11
140.573627
21
253.043536
0
LINE
8
annotation
62
1
39
211
10
140.573627
20
253.043536
11
140.678904
21
252.894594
0
LINE
8
annotation
62
1
39
211
10
140.678904
20
252.894594
11
140.807462
21
252.765960
0
LINE
8
annotation
62
1
39
211
10
140.807462
20
252.765960
11
140.956263
21
252.660655
0
LINE
8
annotation
62
1
39
211
10
140.956263
20
252.660655
11
141.122271
21
252.581697
0
LINE
8
annotation
62
1
39
211
10
141.122271
20
252.581697
11
141.302447
21
252.532108
0
LINE
8
annotation
62
1
39
211
10
141.302447
20
252.532108
11
141.493755
21
252.514907
0
LINE
8
annotation
62
1
39
211
10
141.493755
20
252.514907
11
142.559652
21
252.514907
0
LINE
8
annotation
62
1
39
211
10
140.294658
20
249.783112
11
142.694658
21
249.783112
0
LINE
8
annotation
62
1
39
211
10
140.887571
20
260.644689
11
140.887571
21
265.262409
0
LINE
8
annotation
62
1
39
211
10
140.887571
20
265.262409
11
139.860992
21
264.235541
0
LINE
8
annotation
62
1
39
211
10
143.360799
20
260.705598
11
143.360799
21
260.705598
0
LINE
8
annotation
62
1
39
211
10
143.360799
20
260.705598
11
143.468121
21
260.665479
0
LINE
8
annotation
62
1
39
211
10
143.468121
20
260.665479
11
143.578188
21
260.645547
0
LINE
8
annotation
62
1
39
211
10
143.578188
20
260.645547
11
143.688513
21
260.644989
0
LINE
8
annotation
62
1
39
211
10
143.688513
20
260.644989
11
143.796607
21
260.662994
0
LINE
8
annotation
62
1
39
211
10
143.796607
20
260.662994
11
143.899981
21
260.698748
0
LINE
8
annotation
62
1
39
211
10
143.899981
20
260.698748
11
143.996148
21
260.751439
0
LINE
8
annotation
62
1
39
211
10
143.996148
20
260.751439
11
144.082620
21
260.820253
0
LINE
8
annotation
62
1
39
211
10
144.082620
20
260.820253
11
144.156907
21
260.904378
0
LINE
8
annotation
62
1
39
211
10
144.156907
20
260.904378
11
144.216522
21
261.003002
0
LINE
8
annotation
62
1
39
211
10
144.216522
20
261.003002
11
144.216522
21
261.003002
0
LINE
8
annotation
62
1
39
211
10
144.216522
20
261.003002
11
144.394392
21
261.419349
0
LINE
8
annotation
62
1
39
211
10
144.394392
20
261.419349
11
144.527794
21
261.847747
0
LINE
8
annotation
62
1
39
211
10
144.527794
20
261.847747
11
144.616729
21
262.284779
0
LINE
8
annotation
62
1
39
211
10
144.616729
20
262.284779
11
144.661196
21
262.727032
0
LINE
8
annotation
62
1
39
211
10
144.661196
20
262.727032
11
144.661196
21
263.171089
0
LINE
8
annotation
62
1
39
211
10
144.661196
20
263.171089
11
144.616729
21
263.613534
0
LINE
8
annotation
62
1
39
211
10
144.616729
20
263.613534
11
144.527794
21
264.050953
0
LINE
8
annotation
62
1
39
211
10
144.527794
20
264.050953
11
144.394392
21
264.479930
0
LINE
8
annotation
62
1
39
211
10
144.394392
20
264.479930
11
144.216522
21
264.897049
0
LINE
8
annotation
62
1
39
211
10
144.216522
20
264.897049
11
144.216522
21
264.897049
0
LINE
8
annotation
62
1
39
211
10
144.216522
20
264.897049
11
144.193903
21
264.939145
0
LINE
8
annotation
62
1
39
211
10
144.193903
20
264.939145
11
144.168258
21
264.979392
0
LINE
8
annotation
62
1
39
211
10
144.168258
20
264.979392
11
144.139783
21
265.017592
0
LINE
8
annotation
62
1
39
211
10
144.139783
20
265.017592
11
144.108668
21
265.053546
0
LINE
8
annotation
62
1
39
211
10
144.108668
20
265.053546
11
144.075109
21
265.087057
0
LINE
8
annotation
62
1
39
211
10
144.075109
20
265.087057
11
144.039297
21
265.117927
0
LINE
8
annotation
62
1
39
211
10
144.039297
20
265.117927
11
144.001425
21
265.145959
0
LINE
8
annotation
62
1
39
211
10
144.001425
20
265.145959
11
143.961688
21
265.170954
0
LINE
8
annotation
62
1
39
211
10
143.961688
20
265.170954
11
143.920277
21
265.192715
0
LINE
8
annotation
62
1
39
211
10
143.920277
20
265.192715
11
143.920277
21
265.192715
0
LINE
8
annotation
62
1
39
211
10
143.920277
20
265.192715
11
143.812104
21
265.233704
0
LINE
8
annotation
62
1
39
211
10
143.812104
20
265.233704
11
143.701392
21
265.254318
0
LINE
8
annotation
62
1
39
211
10
143.701392
20
265.254318
11
143.590601
21
265.255373
0
LINE
8
annotation
62
1
39
211
10
143.590601
20
265.255373
11
143.482191
21
265.237687
0
LINE
8
annotation
62
1
39
211
10
143.482191
20
265.237687
11
143.378622
21
265.202078
0
LINE
8
annotation
62
1
39
211
10
143.378622
20
265.202078
11
143.282354
21
265.149363
0
LINE
8
annotation
62
1
39
211
10
143.282354
20
265.149363
11
143.195846
21
265.080360
0
LINE
8
annotation
62
1
39
211
10
143.195846
20
265.080360
11
143.121557
21
264.995887
0
LINE
8
annotation
62
1
39
211
10
143.121557
20
264.995887
11
143.061948
21
264.896760
0
LINE
8
annotation
62
1
39
211
10
143.061948
20
264.896760
11
143.061948
21
264.896760
0
LINE
8
annotation
62
1
39
211
10
143.061948
20
264.896760
11
142.884936
21
264.480498
0
LINE
8
annotation
62
1
39
211
10
142.884936
20
264.480498
11
142.752178
21
264.052165
0
LINE
8
annotation
62
1
39
211
10
142.752178
20
264.052165
11
142.663672
21
263.615175
0
LINE
8
annotation
62
1
39
211
10
142.663672
20
263.615175
11
142.619419
21
263.172944
0
LINE
8
annotation
62
1
39
211
10
142.619419
20
263.172944
11
142.619419
21
262.728887
0
LINE
8
annotation
62
1
39
211
10
142.619419
20
262.728887
11
142.663672
21
262.286420
0
LINE
8
annotation
62
1
39
211
10
142.663672
20
262.286420
11
142.752178
21
261.848959
0
LINE
8
annotation
62
1
39
211
10
142.752178
20
261.848959
11
142.884936
21
261.419917
0
LINE
8
annotation
62
1
39
211
10
142.884936
20
261.419917
11
143.061948
21
261.002712
0
LINE
8
annotation
62
1
39
211
10
143.061948
20
261.002712
11
143.061948
21
261.002712
0
LINE
8
annotation
62
1
39
211
10
143.061948
20
261.002712
11
143.084485
21
260.960700
0
LINE
8
annotation
62
1
39
211
10
143.084485
20
260.960700
11
143.109940
21
260.920654
0
LINE
8
annotation
62
1
39
211
10
143.109940
20
260.920654
11
143.138205
21
260.882696
0
LINE
8
annotation
62
1
39
211
10
143.138205
20
260.882696
11
143.169173
21
260.846947
0
LINE
8
annotation
62
1
39
211
10
143.169173
20
260.846947
11
143.202736
21
260.813529
0
LINE
8
annotation
62
1
39
211
10
143.202736
20
260.813529
11
143.238788
21
260.782564
0
LINE
8
annotation
62
1
39
211
10
143.238788
20
260.782564
11
143.277220
21
260.754172
0
LINE
8
annotation
62
1
39
211
10
143.277220
20
260.754172
11
143.317926
21
260.728477
0
LINE
8
annotation
62
1
39
211
10
143.317926
20
260.728477
11
143.360799
21
260.705598
0
LINE
8
annotation
62
1
39
211
10
36.573736
20
145.603669
11
30.703828
21
145.603669
0
LINE
8
annotation
62
1
39
211
10
30.703828
20
145.603669
11
36.573736
21
156.175338
0
LINE
8
annotation
62
1
39
211
10
36.573736
20
156.175338
11
30.703828
21
156.175338
0
LINE
8
annotation
62
1
39
211
10
46.319514
20
150.889503
11
40.539106
21
150.889503
0
LINE
8
annotation
62
1
39
211
10
50.282895
20
145.604000
11
52.630461
21
145.604000
0
LINE
8
annotation
62
1
39
211
10
52.630461
20
145.604000
11
52.630461
21
145.604000
0
LINE
8
annotation
62
1
39
211
10
52.630461
20
145.604000
11
53.052676
21
145.641876
0
LINE
8
annotation
62
1
39
211
10
53.052676
20
145.641876
11
53.449966
21
145.751035
0
LINE
8
annotation
62
1
39
211
10
53.449966
20
145.751035
11
53.815722
21
145.924778
0
LINE
8
annotation
62
1
39
211
10
53.815722
20
145.924778
11
54.143338
21
146.156403
0
LINE
8
annotation
62
1
39
211
10
54.143338
20
146.156403
11
54.426205
21
146.439211
0
LINE
8
annotation
62
1
39
211
10
54.426205
20
146.439211
11
54.657715
21
146.766500
0
LINE
8
annotation
62
1
39
211
10
54.657715
20
146.766500
11
54.831260
21
147.131570
0
LINE
8
annotation
62
1
39
211
10
54.831260
20
147.131570
11
54.940233
21
147.527721
0
LINE
8
annotation
62
1
39
211
10
54.940233
20
147.527721
11
54.978026
21
147.948251
0
LINE
8
annotation
62
1
39
211
10
54.978026
20
147.948251
11
54.978026
21
149.123691
0
LINE
8
annotation
62
1
39
211
10
54.978026
20
149.123691
11
54.978026
21
149.123691
0
LINE
8
annotation
62
1
39
211
10
54.978026
20
149.123691
11
54.940233
21
149.544047
0
LINE
8
annotation
62
1
39
211
10
54.940233
20
149.544047
11
54.831260
21
149.940104
0
LINE
8
annotation
62
1
39
211
10
54.831260
20
149.940104
11
54.657715
21
150.305147
0
LINE
8
annotation
62
1
39
211
10
54.657715
20
150.305147
11
54.426205
21
150.632458
0
LINE
8
annotation
62
1
39
211
10
54.426205
20
150.632458
11
54.143338
21
150.915320
0
LINE
8
annotation
62
1
39
211
10
54.143338
20
150.915320
11
53.815722
21
151.147017
0
LINE
8
annotation
62
1
39
211
10
53.815722
20
151.147017
11
53.449966
21
151.320830
0
LINE
8
annotation
62
1
39
211
10
53.449966
20
151.320830
11
53.052676
21
151.430044
0
LINE
8
annotation
62
1
39
211
10
53.052676
20
151.430044
11
52.630461
21
151.467942
0
LINE
8
annotation
62
1
39
211
10
52.630461
20
151.467942
11
51.455020
21
151.467942
0
LINE
8
annotation
62
1
39
211
10
51.455020
20
151.467942
11
52.630461
21
151.467942
0
LINE
8
annotation
62
1
39
211
10
52.630461
20
151.467942
11
52.630461
21
151.467942
0
LINE
8
annotation
62
1
39
211
10
52.630461
20
151.467942
11
53.052676
21
151.505848
0
LINE
8
annotation
62
1
39
211
10
53.052676
20
151.505848
11
53.449966
21
151.615126
0
LINE
8
annotation
62
1
39
211
10
53.449966
20
151.615126
11
53.815722
21
151.789112
0
LINE
8
annotation
62
1
39
211
10
53.815722
20
151.789112
11
54.143338
21
152.021145
0
LINE
8
annotation
62
1
39
211
10
54.143338
20
152.021145
11
54.426205
21
152.304562
0
LINE
8
annotation
62
1
39
211
10
54.426205
20
152.304562
11
54.657715
21
152.632701
0
LINE
8
annotation
62
1
39
211
10
54.657715
20
152.632701
11
54.831260
21
152.998898
0
LINE
8
annotation
62
1
39
211
10
54.831260
20
152.998898
11
54.940233
21
153.396493
0
LINE
8
annotation
62
1
39
211
10
54.940233
20
153.396493
11
54.978026
21
153.818822
0
LINE
8
annotation
62
1
39
211
10
54.978026
20
153.818822
11
54.978026
21
153.818822
0
LINE
8
annotation
62
1
39
211
10
54.978026
20
153.818822
11
54.940233
21
154.239178
0
LINE
8
annotation
62
1
39
211
10
54.940233
20
154.239178
11
54.831260
21
154.635235
0
LINE
8
annotation
62
1
39
211
10
54.831260
20
154.635235
11
54.657715
21
155.000278
0
LINE
8
annotation
62
1
39
211
10
54.657715
20
155.000278
11
54.426205
21
155.327589
0
LINE
8
annotation
62
1
39
211
10
54.426205
20
155.327589
11
54.143338
21
155.610451
0
LINE
8
annotation
62
1
39
211
10
54.143338
20
155.610451
11
53.815722
21
155.842148
0
LINE
8
annotation
62
1
39
211
10
53.815722
20
155.842148
11
53.449966
21
156.015961
0
LINE
8
annotation
62
1
39
211
10
53.449966
20
156.015961
11
53.052676
21
156.125175
0
LINE
8
annotation
62
1
39
211
10
53.052676
20
156.125175
11
52.630461
21
156.163073
0
LINE
8
annotation
62
1
39
211
10
52.630461
20
156.163073
11
50.282895
21
156.163073
0
LINE
8
annotation
62
1
39
211
10
64.723804
20
150.889503
11
58.943396
21
150.889503
0
LINE
8
annotation
62
1
39
211
10
73.383114
20
145.603583
11
68.687983
21
145.603583
0
LINE
8
annotation
62
1
39
211
10
68.687983
20
145.603583
11
73.026438
21
152.587938
0
LINE
8
annotation
62
1
39
211
10
73.026438
20
152.587938
11
73.026438
21
152.587938
0
LINE
8
annotation
62
1
39
211
10
73.026438
20
152.587938
11
73.031625
21
152.594356
0
LINE
8
annotation
62
1
39
211
10
73.031625
20
152.594356
11
73.036598
21
152.600828
0
LINE
8
annotation
62
1
39
211
10
73.036598
20
152.600828
11
73.041392
21
152.607410
0
LINE
8
annotation
62
1
39
211
10
73.041392
20
152.607410
11
73.046038
21
152.614155
0
LINE
8
annotation
62
1
39
211
10
73.046038
20
152.614155
11
73.050570
21
152.621118
0
LINE
8
annotation
62
1
39
211
10
73.050570
20
152.621118
11
73.055019
21
152.628355
0
LINE
8
annotation
62
1
39
211
10
73.055019
20
152.628355
11
73.059420
21
152.635918
0
LINE
8
annotation
62
1
39
211
10
73.059420
20
152.635918
11
73.063804
21
152.643864
0
LINE
8
annotation
62
1
39
211
10
73.063804
20
152.643864
11
73.068205
21
152.652246
0
LINE
8
annotation
62
1
39
211
10
73.068205
20
152.652246
11
73.068205
21
152.652246
0
LINE
8
annotation
62
1
39
211
10
73.068205
20
152.652246
11
73.247339
21
153.036861
0
LINE
8
annotation
62
1
39
211
10
73.247339
20
153.036861
11
73.351986
21
153.435549
0
LINE
8
annotation
62
1
39
211
10
73.351986
20
153.435549
11
73.384710
21
153.839300
0
LINE
8
annotation
62
1
39
211
10
73.384710
20
153.839300
11
73.348077
21
154.239107
0
LINE
8
annotation
62
1
39
211
10
73.348077
20
154.239107
11
73.244651
21
154.625959
0
LINE
8
annotation
62
1
39
211
10
73.244651
20
154.625959
11
73.076995
21
154.990849
0
LINE
8
annotation
62
1
39
211
10
73.076995
20
154.990849
11
72.847676
21
155.324768
0
LINE
8
annotation
62
1
39
211
10
72.847676
20
155.324768
11
72.559258
21
155.618707
0
LINE
8
annotation
62
1
39
211
10
72.559258
20
155.618707
11
72.214304
21
155.863657
0
LINE
8
annotation
62
1
39
211
10
72.214304
20
155.863657
11
72.214304
21
155.863657
0
LINE
8
annotation
62
1
39
211
10
72.214304
20
155.863657
11
71.828619
21
156.040246
0
LINE
8
annotation
62
1
39
211
10
71.828619
20
156.040246
11
71.429320
21
156.143280
0
LINE
8
annotation
62
1
39
211
10
71.429320
20
156.143280
11
71.025334
21
156.175080
0
LINE
8
annotation
62
1
39
211
10
71.025334
20
156.175080
11
70.625588
21
156.137964
0
LINE
8
annotation
62
1
39
211
10
70.625588
20
156.137964
11
70.239008
21
156.034251
0
LINE
8
annotation
62
1
39
211
10
70.239008
20
156.034251
11
69.874522
21
155.866260
0
LINE
8
annotation
62
1
39
211
10
69.874522
20
155.866260
11
69.541056
21
155.636311
0
LINE
8
annotation
62
1
39
211
10
69.541056
20
155.636311
11
69.247537
21
155.346721
0
LINE
8
annotation
62
1
39
211
10
69.247537
20
155.346721
11
69.002893
21
154.999811
0
LINE
8
annotation
62
1
39
211
10
69.002893
20
154.999811
11
68.694613
21
154.408445
0
LINE
8
boundary
62
5
39
2
10
292.842798
20
332.822069
11
301.529937
21
328.478499
0
LINE
8
boundary
62
5
39
2
10
301.529937
20
328.478499
11
302.132940
21
328.176998
0
LINE
8
boundary
62
5
39
2
10
302.132940
20
328.176998
11
302.132939
21
331.368625
0
LINE
8
boundary
62
5
39
2
10
302.132939
20
331.368625
11
302.132939
21
407.515830
0
LINE
8
boundary
62
5
39
2
10
302.132939
20
407.515830
11
302.132939
21
426.584259
0
LINE
8
boundary
62
5
39
2
10
302.132939
20
426.584259
11
302.132939
21
441.531108
0
LINE
8
boundary
62
5
39
2
10
302.132939
20
441.531108
11
300.462135
21
440.504479
0
LINE
8
boundary
62
5
39
2
10
300.462135
20
440.504479
11
294.706670
21
436.968018
0
LINE
8
boundary
62
5
39
2
10
294.706670
20
436.968018
11
292.184746
21
432.579729
0
LINE
8
boundary
62
5
39
2
10
292.184746
20
432.579729
11
296.232432
21
432.429729
0
LINE
8
boundary
62
5
39
2
10
296.232432
20
432.429729
11
296.232432
21
429.529729
0
LINE
8
boundary
62
5
39
2
10
296.232432
20
429.529729
11
290.440720
21
429.529729
0
LINE
8
boundary
62
5
39
2
10
290.440720
20
429.529729
11
289.438729
21
427.801518
0
LINE
8
boundary
62
5
39
2
10
289.438729
20
427.801518
11
287.343665
21
427.458448
0
LINE
8
boundary
62
5
39
2
10
287.343665
20
427.458448
11
286.314838
21
427.289974
0
LINE
8
boundary
62
5
39
2
10
286.314838
20
427.289974
11
284.324900
21
426.315513
0
LINE
8
boundary
62
5
39
2
10
284.324900
20
426.315513
11
283.129734
21
425.730250
0
LINE
8
boundary
62
5
39
2
10
283.129734
20
425.730250
11
281.320598
21
424.263210
0
LINE
8
boundary
62
5
39
2
10
281.320598
20
424.263210
11
279.817348
21
423.044216
0
LINE
8
boundary
62
5
39
2
10
279.817348
20
423.044216
11
277.848605
21
420.830712
0
LINE
8
boundary
62
5
39
2
10
277.848605
20
420.830712
11
276.300929
21
419.090639
0
LINE
8
boundary
62
5
39
2
10
276.300929
20
419.090639
11
275.124631
21
417.412170
0
LINE
8
boundary
62
5
39
2
10
275.124631
20
417.412170
11
272.485385
21
413.646229
0
LINE
8
boundary
62
5
39
2
10
272.485385
20
413.646229
11
271.812994
21
412.492582
0
LINE
8
boundary
62
5
39
2
10
271.812994
20
412.492582
11
269.157155
21
407.935830
0
LINE
8
boundary
62
5
39
2
10
269.157155
20
407.935830
11
285.197550
21
407.785829
0
LINE
8
boundary
62
5
39
2
10
285.197550
20
407.785829
11
285.197550
21
404.885829
0
LINE
8
boundary
62
5
39
2
10
285.197550
20
404.885829
11
268.457106
21
404.885830
0
LINE
8
boundary
62
5
39
2
10
268.457106
20
404.885830
11
268.360604
21
400.711383
0
LINE
8
boundary
62
5
39
2
10
268.360604
20
400.711383
11
268.362434
21
394.010027
0
LINE
8
boundary
62
5
39
2
10
268.362434
20
394.010027
11
263.119663
21
394.027466
0
LINE
8
boundary
62
5
39
2
10
263.119663
20
394.027466
11
247.896363
21
393.988508
0
LINE
8
boundary
62
5
39
2
10
247.896363
20
393.988508
11
235.790017
21
393.988508
0
LINE
8
boundary
62
5
39
2
10
235.790017
20
393.988508
11
226.560105
21
393.988508
0
LINE
8
boundary
62
5
39
2
10
226.560105
20
393.988508
11
219.496237
21
394.013093
0
LINE
8
boundary
62
5
39
2
10
219.496237
20
394.013093
11
213.736252
21
393.986130
0
LINE
8
boundary
62
5
39
2
10
213.736252
20
393.986130
11
213.736252
21
395.529581
0
LINE
8
boundary
62
5
39
2
10
213.736252
20
395.529581
11
213.736252
21
397.740805
0
LINE
8
boundary
62
5
39
2
10
213.736252
20
397.740805
11
213.736252
21
398.389191
0
LINE
8
boundary
62
5
39
2
10
213.736252
20
398.389191
11
213.736251
21
400.901795
0
LINE
8
boundary
62
5
39
2
10
213.736251
20
400.901795
11
213.736252
21
403.180014
0
LINE
8
boundary
62
5
39
2
10
213.736252
20
403.180014
11
213.736252
21
404.204035
0
LINE
8
boundary
62
5
39
2
10
213.736252
20
404.204035
11
213.736252
21
405.142994
0
LINE
8
boundary
62
5
39
2
10
213.736252
20
405.142994
11
213.736252
21
405.993772
0
LINE
8
boundary
62
5
39
2
10
213.736252
20
405.993772
11
213.736251
21
406.755221
0
LINE
8
boundary
62
5
39
2
10
213.736251
20
406.755221
11
213.736252
21
430.827912
0
LINE
8
boundary
62
5
39
2
10
213.736252
20
430.827912
11
162.987389
21
430.827912
0
LINE
8
boundary
62
5
39
2
10
162.987389
20
430.827912
11
153.736259
21
430.827912
0
LINE
8
boundary
62
5
39
2
10
153.736259
20
430.827912
11
148.396105
21
429.886299
0
LINE
8
boundary
62
5
39
2
10
148.396105
20
429.886299
11
139.133976
21
428.253137
0
LINE
8
boundary
62
5
39
2
10
139.133976
20
428.253137
11
23.908812
21
407.935829
0
LINE
8
boundary
62
5
39
2
10
23.908812
20
407.935829
11
114.235506
21
407.785830
0
LINE
8
boundary
62
5
39
2
10
114.235506
20
407.785830
11
114.235506
21
404.885830
0
LINE
8
boundary
62
5
39
2
10
114.235506
20
404.885830
11
6.611405
21
404.885830
0
LINE
8
boundary
62
5
39
2
10
6.611405
20
404.885830
11
5.760712
21
404.735830
0
LINE
8
boundary
62
5
39
2
10
5.760712
20
404.735830
11
4.541923
21
404.520924
0
LINE
8
boundary
62
5
39
2
10
4.541923
20
404.520924
11
1.613781
21
401.031303
0
LINE
8
boundary
62
5
39
2
10
1.613781
20
401.031303
11
1.587500
21
399.491823
0
LINE
8
boundary
62
5
39
2
10
1.587500
20
399.491823
11
1.587500
21
394.968652
0
LINE
8
boundary
62
5
39
2
10
1.587500
20
394.968652
11
1.682500
21
394.403446
0
LINE
8
boundary
62
5
39
2
10
1.682500
20
394.403446
11
151.810220
21
394.403446
0
LINE
8
boundary
62
5
39
2
10
151.810220
20
394.403446
11
151.810220
21
391.503446
0
LINE
8
boundary
62
5
39
2
10
151.810220
20
391.503446
11
1.682500
21
391.503445
0
LINE
8
boundary
62
5
39
2
10
1.682500
20
391.503445
11
1.587501
21
384.300899
0
LINE
8
boundary
62
5
39
2
10
1.587501
20
384.300899
11
151.810220
21
384.150899
0
LINE
8
boundary
62
5
39
2
10
151.810220
20
384.150899
11
151.810220
21
381.250899
0
LINE
8
boundary
62
5
39
2
10
151.810220
20
381.250899
11
1.682501
21
381.250899
0
LINE
8
boundary
62
5
39
2
10
1.682501
20
381.250899
11
1.587500
21
368.207956
0
LINE
8
boundary
62
5
39
2
10
1.587500
20
368.207956
11
151.810220
21
368.057955
0
LINE
8
boundary
62
5
39
2
10
151.810220
20
368.057955
11
151.810220
21
365.157956
0
LINE
8
boundary
62
5
39
2
10
151.810220
20
365.157956
11
1.682500
21
365.157955
0
LINE
8
boundary
62
5
39
2
10
1.682500
20
365.157955
11
1.587500
21
352.115012
0
LINE
8
boundary
62
5
39
2
10
1.587500
20
352.115012
11
151.810220
21
351.965012
0
LINE
8
boundary
62
5
39
2
10
151.810220
20
351.965012
11
151.810220
21
349.065012
0
LINE
8
boundary
62
5
39
2
10
151.810220
20
349.065012
11
1.682500
21
349.065012
0
LINE
8
boundary
62
5
39
2
10
1.682500
20
349.065012
11
1.587500
21
336.022069
0
LINE
8
boundary
62
5
39
2
10
1.587500
20
336.022069
11
107.611876
21
335.872069
0
LINE
8
boundary
62
5
39
2
10
107.611876
20
335.872069
11
107.611876
21
332.972069
0
LINE
8
boundary
62
5
39
2
10
107.611876
20
332.972069
11
1.682500
21
332.972069
0
LINE
8
boundary
62
5
39
2
10
1.682500
20
332.972069
11
1.587500
21
319.929126
0
LINE
8
boundary
62
5
39
2
10
1.587500
20
319.929126
11
107.611876
21
319.779126
0
LINE
8
boundary
62
5
39
2
10
107.611876
20
319.779126
11
107.611876
21
316.879126
0
LINE
8
boundary
62
5
39
2
10
107.611876
20
316.879126
11
1.682500
21
316.879125
0
LINE
8
boundary
62
5
39
2
10
1.682500
20
316.879125
11
1.587500
21
303.836182
0
LINE
8
boundary
62
5
39
2
10
1.587500
20
303.836182
11
107.611876
21
303.686182
0
LINE
8
boundary
62
5
39
2
10
107.611876
20
303.686182
11
107.611876
21
300.786182
0
LINE
8
boundary
62
5
39
2
10
107.611876
20
300.786182
11
1.682500
21
300.786182
0
LINE
8
boundary
62
5
39
2
10
1.682500
20
300.786182
11
1.587500
21
298.877914
0
LINE
8
boundary
62
5
39
2
10
1.587500
20
298.877914
11
1.587501
21
297.620563
0
LINE
8
boundary
62
5
39
2
10
1.587501
20
297.620563
11
4.587511
21
294.189711
0
LINE
8
boundary
62
5
39
2
10
4.587511
20
294.189711
11
6.519718
21
294.189710
0
LINE
8
boundary
62
5
39
2
10
6.519718
20
294.189710
11
85.425596
21
294.189711
0
LINE
8
boundary
62
5
39
2
10
85.425596
20
294.189711
11
144.122343
21
294.189710
0
LINE
8
boundary
62
5
39
2
10
144.122343
20
294.189710
11
162.987239
21
294.189711
0
LINE
8
boundary
62
5
39
2
10
162.987239
20
294.189711
11
213.736251
21
294.189711
0
LINE
8
boundary
62
5
39
2
10
213.736251
20
294.189711
11
213.736252
21
323.539777
0
LINE
8
boundary
62
5
39
2
10
213.736252
20
323.539777
11
213.736252
21
324.462934
0
LINE
8
boundary
62
5
39
2
10
213.736252
20
324.462934
11
213.736252
21
325.483932
0
LINE
8
boundary
62
5
39
2
10
213.736252
20
325.483932
11
213.736252
21
326.600491
0
LINE
8
boundary
62
5
39
2
10
213.736252
20
326.600491
11
213.736251
21
327.807995
0
LINE
8
boundary
62
5
39
2
10
213.736251
20
327.807995
11
213.736252
21
330.462753
0
LINE
8
boundary
62
5
39
2
10
213.736252
20
330.462753
11
213.736251
21
331.662191
0
LINE
8
boundary
62
5
39
2
10
213.736251
20
331.662191
11
213.736252
21
334.088588
0
LINE
8
boundary
62
5
39
2
10
213.736252
20
334.088588
11
213.736252
21
336.580885
0
LINE
8
boundary
62
5
39
2
10
213.736252
20
336.580885
11
213.736251
21
338.284109
0
LINE
8
boundary
62
5
39
2
10
213.736251
20
338.284109
11
219.682795
21
338.257146
0
LINE
8
boundary
62
5
39
2
10
219.682795
20
338.257146
11
226.975451
21
338.281729
0
LINE
8
boundary
62
5
39
2
10
226.975451
20
338.281729
11
238.898618
21
338.281730
0
LINE
8
boundary
62
5
39
2
10
238.898618
20
338.281730
11
248.164453
21
338.338545
0
LINE
8
boundary
62
5
39
2
10
248.164453
20
338.338545
11
248.164455
21
337.043567
0
LINE
8
boundary
62
5
39
2
10
248.164455
20
337.043567
11
248.164462
21
336.022069
0
LINE
8
boundary
62
5
39
2
10
248.164462
20
336.022069
11
295.837869
21
335.872069
0
LINE
8
boundary
62
5
39
2
10
295.837869
20
335.872069
11
295.837869
21
332.972069
0
LINE
8
boundary
62
5
39
2
10
295.837869
20
332.972069
11
292.937798
21
332.972069
0
LINE
8
boundary
62
5
39
2
10
292.937798
20
332.972069
11
292.842798
21
332.822069
0
LINE
8
annotation
62
1
39
211
10
114.194975
20
299.836182
11
114.194975
21
304.636182
0
LINE
8
annotation
62
1
39
211
10
114.194975
20
304.636182
11
113.127874
21
303.568780
0
LINE
8
annotation
62
1
39
211
10
114.727171
20
315.929087
11
112.595377
21
315.929087
0
LINE
8
annotation
62
1
39
211
10
112.595377
20
315.929087
11
114.565225
21
319.100289
0
LINE
8
annotation
62
1
39
211
10
114.565225
20
319.100289
11
114.565225
21
319.100289
0
LINE
8
annotation
62
1
39
211
10
114.565225
20
319.100289
11
114.567580
21
319.103203
0
LINE
8
annotation
62
1
39
211
10
114.567580
20
319.103203
11
114.569838
21
319.106142
0
LINE
8
annotation
62
1
39
211
10
114.569838
20
319.106142
11
114.572014
21
319.109130
0
LINE
8
annotation
62
1
39
211
10
114.572014
20
319.109130
11
114.574124
21
319.112193
0
LINE
8
annotation
62
1
39
211
10
114.574124
20
319.112193
11
114.576182
21
319.115355
0
LINE
8
annotation
62
1
39
211
10
114.576182
20
319.115355
11
114.578202
21
319.118640
0
LINE
8
annotation
62
1
39
211
10
114.578202
20
319.118640
11
114.580200
21
319.122074
0
LINE
8
annotation
62
1
39
211
10
114.580200
20
319.122074
11
114.582191
21
319.125682
0
LINE
8
annotation
62
1
39
211
10
114.582191
20
319.125682
11
114.584189
21
319.129488
0
LINE
8
annotation
62
1
39
211
10
114.584189
20
319.129488
11
114.584189
21
319.129488
0
LINE
8
annotation
62
1
39
211
10
114.584189
20
319.129488
11
114.665523
21
319.304120
0
LINE
8
annotation
62
1
39
211
10
114.665523
20
319.304120
11
114.713038
21
319.485142
0
LINE
8
annotation
62
1
39
211
10
114.713038
20
319.485142
11
114.727896
21
319.668462
0
LINE
8
annotation
62
1
39
211
10
114.727896
20
319.668462
11
114.711263
21
319.849992
0
LINE
8
annotation
62
1
39
211
10
114.711263
20
319.849992
11
114.664303
21
320.025640
0
LINE
8
annotation
62
1
39
211
10
114.664303
20
320.025640
11
114.588180
21
320.191316
0
LINE
8
annotation
62
1
39
211
10
114.588180
20
320.191316
11
114.484059
21
320.342930
0
LINE
8
annotation
62
1
39
211
10
114.484059
20
320.342930
11
114.353104
21
320.476391
0
LINE
8
annotation
62
1
39
211
10
114.353104
20
320.476391
11
114.196480
21
320.587609
0
LINE
8
annotation
62
1
39
211
10
114.196480
20
320.587609
11
114.196480
21
320.587609
0
LINE
8
annotation
62
1
39
211
10
114.196480
20
320.587609
11
114.021363
21
320.667788
0
LINE
8
annotation
62
1
39
211
10
114.021363
20
320.667788
11
113.840063
21
320.714570
0
LINE
8
annotation
62
1
39
211
10
113.840063
20
320.714570
11
113.656636
21
320.729008
0
LINE
8
annotation
62
1
39
211
10
113.656636
20
320.729008
11
113.475134
21
320.712156
0
LINE
8
annotation
62
1
39
211
10
113.475134
20
320.712156
11
113.299610
21
320.665066
0
LINE
8
annotation
62
1
39
211
10
113.299610
20
320.665066
11
113.134117
21
320.588791
0
LINE
8
annotation
62
1
39
211
10
113.134117
20
320.588791
11
112.982709
21
320.484384
0
LINE
8
annotation
62
1
39
211
10
112.982709
20
320.484384
11
112.849439
21
320.352898
0
LINE
8
annotation
62
1
39
211
10
112.849439
20
320.352898
11
112.738359
21
320.195385
0
LINE
8
annotation
62
1
39
211
10
112.738359
20
320.195385
11
112.598387
21
319.926879
0
LINE
8
annotation
62
1
39
211
10
299.889700
20
332.475420
11
300.754307
21
332.475420
0
LINE
8
annotation
62
1
39
211
10
300.754307
20
332.475420
11
300.754307
21
332.475420
0
LINE
8
annotation
62
1
39
211
10
300.754307
20
332.475420
11
300.909809
21
332.489370
0
LINE
8
annotation
62
1
39
211
10
300.909809
20
332.489370
11
301.056131
21
332.529573
0
LINE
8
annotation
62
1
39
211
10
301.056131
20
332.529573
11
301.190839
21
332.593563
0
LINE
8
annotation
62
1
39
211
10
301.190839
20
332.593563
11
301.311500
21
332.678870
0
LINE
8
annotation
62
1
39
211
10
301.311500
20
332.678870
11
301.415679
21
332.783028
0
LINE
8
annotation
62
1
39
211
10
301.415679
20
332.783028
11
301.500944
21
332.903569
0
LINE
8
annotation
62
1
39
211
10
301.500944
20
332.903569
11
301.564861
21
333.038024
0
LINE
8
annotation
62
1
39
211
10
301.564861
20
333.038024
11
301.604996
21
333.183926
0
LINE
8
annotation
62
1
39
211
10
301.604996
20
333.183926
11
301.618915
21
333.338807
0
LINE
8
annotation
62
1
39
211
10
301.618915
20
333.338807
11
301.618915
21
333.771721
0
LINE
8
annotation
62
1
39
211
10
301.618915
20
333.771721
11
301.618915
21
333.771721
0
LINE
8
annotation
62
1
39
211
10
301.618915
20
333.771721
11
301.604996
21
333.926538
0
LINE
8
annotation
62
1
39
211
10
301.604996
20
333.926538
11
301.564861
21
334.072406
0
LINE
8
annotation
62
1
39
211
10
301.564861
20
334.072406
11
301.500944
21
334.206851
0
LINE
8
annotation
62
1
39
211
10
301.500944
20
334.206851
11
301.415679
21
334.327399
0
LINE
8
annotation
62
1
39
211
10
301.415679
20
334.327399
11
301.311500
21
334.431577
0
LINE
8
annotation
62
1
39
211
10
301.311500
20
334.431577
11
301.190839
21
334.516911
0
LINE
8
annotation
62
1
39
211
10
301.190839
20
334.516911
11
301.056131
21
334.580927
0
LINE
8
annotation
62
1
39
211
10
301.056131
20
334.580927
11
300.909809
21
334.621150
0
LINE
8
annotation
62
1
39
211
10
300.909809
20
334.621150
11
300.754307
21
334.635108
0
LINE
8
annotation
62
1
39
211
10
300.754307
20
334.635108
11
300.321393
21
334.635108
0
LINE
8
annotation
62
1
39
211
10
300.321393
20
334.635108
11
300.754307
21
334.635108
0
LINE
8
annotation
62
1
39
211
10
300.754307
20
334.635108
11
300.754307
21
334.635108
0
LINE
8
annotation
62
1
39
211
10
300.754307
20
334.635108
11
300.909809
21
334.649068
0
LINE
8
annotation
62
1
39
211
10
300.909809
20
334.649068
11
301.056131
21
334.689315
0
LINE
8
annotation
62
1
39
211
10
301.056131
20
334.689315
11
301.190839
21
334.753395
0
LINE
8
annotation
62
1
39
211
10
301.190839
20
334.753395
11
301.311500
21
334.838852
0
LINE
8
annotation
62
1
39
211
10
301.311500
20
334.838852
11
301.415679
21
334.943235
0
LINE
8
annotation
62
1
39
211
10
301.415679
20
334.943235
11
301.500944
21
335.064088
0
LINE
8
annotation
62
1
39
211
10
301.500944
20
335.064088
11
301.564861
21
335.198958
0
LINE
8
annotation
62
1
39
211
10
301.564861
20
335.198958
11
301.604996
21
335.345392
0
LINE
8
annotation
62
1
39
211
10
301.604996
20
335.345392
11
301.618915
21
335.500936
0
LINE
8
annotation
62
1
39
211
10
301.618915
20
335.500936
11
301.618915
21
335.500936
0
LINE
8
annotation
62
1
39
211
10
301.618915
20
335.500936
11
301.604996
21
335.655753
0
LINE
8
annotation
62
1
39
211
10
301.604996
20
335.655753
11
301.564861
21
335.801621
0
LINE
8
annotation
62
1
39
211
10
301.564861
20
335.801621
11
301.500944
21
335.936066
0
LINE
8
annotation
62
1
39
211
10
301.500944
20
335.936066
11
301.415679
21
336.056614
0
LINE
8
annotation
62
1
39
211
10
301.415679
20
336.056614
11
301.311500
21
336.160792
0
LINE
8
annotation
62
1
39
211
10
301.311500
20
336.160792
11
301.190839
21
336.246126
0
LINE
8
annotation
62
1
39
211
10
301.190839
20
336.246126
11
301.056131
21
336.310141
0
LINE
8
annotation
62
1
39
211
10
301.056131
20
336.310141
11
300.909809
21
336.350365
0
LINE
8
annotation
62
1
39
211
10
300.909809
20
336.350365
11
300.754307
21
336.364322
0
LINE
8
annotation
62
1
39
211
10
300.754307
20
336.364322
11
299.889700
21
336.364322
0
LINE
8
annotation
62
1
39
211
10
112.595377
20
332.022219
11
113.661274
21
332.022219
0
LINE
8
annotation
62
1
39
211
10
113.661274
20
332.022219
11
113.661274
21
332.022219
0
LINE
8
annotation
62
1
39
211
10
113.661274
20
332.022219
11
113.852978
21
332.039417
0
LINE
8
annotation
62
1
39
211
10
113.852978
20
332.039417
11
114.033365
21
332.088980
0
LINE
8
annotation
62
1
39
211
10
114.033365
20
332.088980
11
114.199435
21
332.167867
0
LINE
8
annotation
62
1
39
211
10
114.199435
20
332.167867
11
114.348187
21
332.273035
0
LINE
8
annotation
62
1
39
211
10
114.348187
20
332.273035
11
114.476620
21
332.401442
0
LINE
8
annotation
62
1
39
211
10
114.476620
20
332.401442
11
114.581736
21
332.550045
0
LINE
8
annotation
62
1
39
211
10
114.581736
20
332.550045
11
114.660533
21
332.715803
0
LINE
8
annotation
62
1
39
211
10
114.660533
20
332.715803
11
114.710012
21
332.895673
0
LINE
8
annotation
62
1
39
211
10
114.710012
20
332.895673
11
114.727171
21
333.086612
0
LINE
8
annotation
62
1
39
211
10
114.727171
20
333.086612
11
114.727171
21
333.620313
0
LINE
8
annotation
62
1
39
211
10
114.727171
20
333.620313
11
114.727171
21
333.620313
0
LINE
8
annotation
62
1
39
211
10
114.727171
20
333.620313
11
114.710012
21
333.811173
0
LINE
8
annotation
62
1
39
211
10
114.710012
20
333.811173
11
114.660533
21
333.991000
0
LINE
8
annotation
62
1
39
211
10
114.660533
20
333.991000
11
114.581736
21
334.156746
0
LINE
8
annotation
62
1
39
211
10
114.581736
20
334.156746
11
114.476620
21
334.305359
0
LINE
8
annotation
62
1
39
211
10
114.476620
20
334.305359
11
114.348187
21
334.433791
0
LINE
8
annotation
62
1
39
211
10
114.348187
20
334.433791
11
114.199435
21
334.538991
0
LINE
8
annotation
62
1
39
211
10
114.199435
20
334.538991
11
114.033365
21
334.617910
0
LINE
8
annotation
62
1
39
211
10
114.033365
20
334.617910
11
113.852978
21
334.667498
0
LINE
8
annotation
62
1
39
211
10
113.852978
20
334.667498
11
113.661274
21
334.684705
0
LINE
8
annotation
62
1
39
211
10
113.661274
20
334.684705
11
113.127573
21
334.684705
0
LINE
8
annotation
62
1
39
211
10
113.127573
20
334.684705
11
113.661274
21
334.684705
0
LINE
8
annotation
62
1
39
211
10
113.661274
20
334.684705
11
113.661274
21
334.684705
0
LINE
8
annotation
62
1
39
211
10
113.661274
20
334.684705
11
113.852978
21
334.701916
0
LINE
8
annotation
62
1
39
211
10
113.852978
20
334.701916
11
114.033365
21
334.751533
0
LINE
8
annotation
62
1
39
211
10
114.033365
20
334.751533
11
114.199435
21
334.830531
0
LINE
8
annotation
62
1
39
211
10
114.199435
20
334.830531
11
114.348187
21
334.935884
0
LINE
8
annotation
62
1
39
211
10
114.348187
20
334.935884
11
114.476620
21
335.064568
0
LINE
8
annotation
62
1
39
211
10
114.476620
20
335.064568
11
114.581736
21
335.213557
0
LINE
8
annotation
62
1
39
211
10
114.581736
20
335.213557
11
114.660533
21
335.379827
0
LINE
8
annotation
62
1
39
211
10
114.660533
20
335.379827
11
114.710012
21
335.560352
0
LINE
8
annotation
62
1
39
211
10
114.710012
20
335.560352
11
114.727171
21
335.752108
0
LINE
8
annotation
62
1
39
211
10
114.727171
20
335.752108
11
114.727171
21
335.752108
0
LINE
8
annotation
62
1
39
211
10
114.727171
20
335.752108
11
114.710012
21
335.942968
0
LINE
8
annotation
62
1
39
211
10
114.710012
20
335.942968
11
114.660533
21
336.122795
0
LINE
8
annotation
62
1
39
211
10
114.660533
20
336.122795
11
114.581736
21
336.288540
0
LINE
8
annotation
62
1
39
211
10
114.581736
20
336.288540
11
114.476620
21
336.437154
0
LINE
8
annotation
62
1
39
211
10
114.476620
20
336.437154
11
114.348187
21
336.565586
0
LINE
8
annotation
62
1
39
211
10
114.348187
20
336.565586
11
114.199435
21
336.670786
0
LINE
8
annotation
62
1
39
211
10
114.199435
20
336.670786
11
114.033365
21
336.749705
0
LINE
8
annotation
62
1
39
211
10
114.033365
20
336.749705
11
113.852978
21
336.799293
0
LINE
8
annotation
62
1
39
211
10
113.852978
20
336.799293
11
113.661274
21
336.816500
0
LINE
8
annotation
62
1
39
211
10
113.661274
20
336.816500
11
112.595377
21
336.816500
0
LINE
8
annotation
62
1
39
211
10
159.192215
20
349.182114
11
156.527020
21
349.182114
0
LINE
8
annotation
62
1
39
211
10
156.527020
20
349.182114
11
157.591413
21
352.915012
0
LINE
8
annotation
62
1
39
211
10
158.393319
20
348.115012
11
158.393319
21
350.246807
0
LINE
8
annotation
62
1
39
211
10
156.793720
20
364.207956
11
157.859618
21
364.207956
0
LINE
8
annotation
62
1
39
211
10
157.859618
20
364.207956
11
157.859618
21
364.207956
0
LINE
8
annotation
62
1
39
211
10
157.859618
20
364.207956
11
158.050926
21
364.225156
0
LINE
8
annotation
62
1
39
211
10
158.050926
20
364.225156
11
158.231102
21
364.274746
0
LINE
8
annotation
62
1
39
211
10
158.231102
20
364.274746
11
158.397110
21
364.353703
0
LINE
8
annotation
62
1
39
211
10
158.397110
20
364.353703
11
158.545911
21
364.459009
0
LINE
8
annotation
62
1
39
211
10
158.545911
20
364.459009
11
158.674469
21
364.587642
0
LINE
8
annotation
62
1
39
211
10
158.674469
20
364.587642
11
158.779745
21
364.736584
0
LINE
8
annotation
62
1
39
211
10
158.779745
20
364.736584
11
158.858704
21
364.902814
0
LINE
8
annotation
62
1
39
211
10
158.858704
20
364.902814
11
158.908306
21
365.083312
0
LINE
8
annotation
62
1
39
211
10
158.908306
20
365.083312
11
158.925515
21
365.275057
0
LINE
8
annotation
62
1
39
211
10
158.925515
20
365.275057
11
158.925515
21
365.806049
0
LINE
8
annotation
62
1
39
211
10
158.925515
20
365.806049
11
158.925515
21
365.806049
0
LINE
8
annotation
62
1
39
211
10
158.925515
20
365.806049
11
158.908316
21
365.997702
0
LINE
8
annotation
62
1
39
211
10
158.908316
20
365.997702
11
158.858738
21
366.177950
0
LINE
8
annotation
62
1
39
211
10
158.858738
20
366.177950
11
158.779812
21
366.343820
0
LINE
8
annotation
62
1
39
211
10
158.779812
20
366.343820
11
158.674568
21
366.492334
0
LINE
8
annotation
62
1
39
211
10
158.674568
20
366.492334
11
158.546035
21
366.620518
0
LINE
8
annotation
62
1
39
211
10
158.546035
20
366.620518
11
158.397243
21
366.725396
0
LINE
8
annotation
62
1
39
211
10
158.397243
20
366.725396
11
158.231223
21
366.803993
0
LINE
8
annotation
62
1
39
211
10
158.231223
20
366.803993
11
158.051005
21
366.853334
0
LINE
8
annotation
62
1
39
211
10
158.051005
20
366.853334
11
157.859618
21
366.870441
0
LINE
8
annotation
62
1
39
211
10
157.859618
20
366.870441
11
156.793720
21
366.870441
0
LINE
8
annotation
62
1
39
211
10
156.793720
20
366.870441
11
156.793720
21
369.007956
0
LINE
8
annotation
62
1
39
211
10
156.793720
20
369.007956
11
158.925515
21
369.007956
0
LINE
8
annotation
62
1
39
211
10
158.394824
20
385.100899
11
158.394824
21
385.100899
0
LINE
8
annotation
62
1
39
211
10
158.394824
20
385.100899
11
158.089471
21
384.986410
0
LINE
8
annotation
62
1
39
211
10
158.089471
20
384.986410
11
157.809270
21
384.832150
0
LINE
8
annotation
62
1
39
211
10
157.809270
20
384.832150
11
157.557097
21
384.641983
0
LINE
8
annotation
62
1
39
211
10
157.557097
20
384.641983
11
157.335828
21
384.419775
0
LINE
8
annotation
62
1
39
211
10
157.335828
20
384.419775
11
157.148339
21
384.169391
0
LINE
8
annotation
62
1
39
211
10
157.148339
20
384.169391
11
156.997508
21
383.894695
0
LINE
8
annotation
62
1
39
211
10
156.997508
20
383.894695
11
156.886210
21
383.599552
0
LINE
8
annotation
62
1
39
211
10
156.886210
20
383.599552
11
156.817322
21
383.287827
0
LINE
8
annotation
62
1
39
211
10
156.817322
20
383.287827
11
156.793720
21
382.963385
0
LINE
8
annotation
62
1
39
211
10
156.793720
20
382.963385
11
156.793720
21
381.368000
0
LINE
8
annotation
62
1
39
211
10
156.793720
20
381.368000
11
156.793720
21
381.368000
0
LINE
8
annotation
62
1
39
211
10
156.793720
20
381.368000
11
156.810930
21
381.176255
0
LINE
8
annotation
62
1
39
211
10
156.810930
20
381.176255
11
156.860532
21
380.995757
0
LINE
8
annotation
62
1
39
211
10
156.860532
20
380.995757
11
156.939490
21
380.829527
0
LINE
8
annotation
62
1
39
211
10
156.939490
20
380.829527
11
157.044767
21
380.680586
0
LINE
8
annotation
62
1
39
211
10
157.044767
20
380.680586
11
157.173325
21
380.551952
0
LINE
8
annotation
62
1
39
211
10
157.173325
20
380.551952
11
157.322126
21
380.446646
0
LINE
8
annotation
62
1
39
211
10
157.322126
20
380.446646
11
157.488134
21
380.367689
0
LINE
8
annotation
62
1
39
211
10
157.488134
20
380.367689
11
157.668310
21
380.318100
0
LINE
8
annotation
62
1
39
211
10
157.668310
20
380.318100
11
157.859618
21
380.300899
0
LINE
8
annotation
62
1
39
211
10
157.859618
20
380.300899
11
157.859618
21
380.300899
0
LINE
8
annotation
62
1
39
211
10
157.859618
20
380.300899
11
158.051322
21
380.318100
0
LINE
8
annotation
62
1
39
211
10
158.051322
20
380.318100
11
158.231709
21
380.367689
0
LINE
8
annotation
62
1
39
211
10
158.231709
20
380.367689
11
158.397779
21
380.446646
0
LINE
8
annotation
62
1
39
211
10
158.397779
20
380.446646
11
158.546530
21
380.551952
0
LINE
8
annotation
62
1
39
211
10
158.546530
20
380.551952
11
158.674964
21
380.680586
0
LINE
8
annotation
62
1
39
211
10
158.674964
20
380.680586
11
158.780080
21
380.829527
0
LINE
8
annotation
62
1
39
211
10
158.780080
20
380.829527
11
158.858877
21
380.995757
0
LINE
8
annotation
62
1
39
211
10
158.858877
20
380.995757
11
158.908356
21
381.176255
0
LINE
8
annotation
62
1
39
211
10
158.908356
20
381.176255
11
158.925515
21
381.368000
0
LINE
8
annotation
62
1
39
211
10
158.925515
20
381.368000
11
158.925515
21
381.898992
0
LINE
8
annotation
62
1
39
211
10
158.925515
20
381.898992
11
158.925515
21
381.898992
0
LINE
8
annotation
62
1
39
211
10
158.925515
20
381.898992
11
158.908356
21
382.090645
0
LINE
8
annotation
62
1
39
211
10
158.908356
20
382.090645
11
158.858877
21
382.270894
0
LINE
8
annotation
62
1
39
211
10
158.858877
20
382.270894
11
158.780080
21
382.436763
0
LINE
8
annotation
62
1
39
211
10
158.780080
20
382.436763
11
158.674964
21
382.585277
0
LINE
8
annotation
62
1
39
211
10
158.674964
20
382.585277
11
158.546530
21
382.713461
0
LINE
8
annotation
62
1
39
211
10
158.546530
20
382.713461
11
158.397779
21
382.818340
0
LINE
8
annotation
62
1
39
211
10
158.397779
20
382.818340
11
158.231709
21
382.896937
0
LINE
8
annotation
62
1
39
211
10
158.231709
20
382.896937
11
158.051322
21
382.946277
0
LINE
8
annotation
62
1
39
211
10
158.051322
20
382.946277
11
157.859618
21
382.963385
0
LINE
8
annotation
62
1
39
211
10
157.859618
20
382.963385
11
156.793720
21
382.963385
0
LINE
8
annotation
62
1
39
211
10
156.660220
20
379.700899
11
159.060220
21
379.700899
0
LINE
8
annotation
62
1
39
211
10
157.859618
20
390.553446
11
158.926719
21
395.353446
0
LINE
8
annotation
62
1
39
211
10
158.926719
20
395.353446
11
156.792215
21
395.353446
0
LINE
8
annotation
62
1
39
211
10
158.926719
20
393.215931
11
157.859618
21
393.215931
0
LINE
8
annotation
62
1
39
211
10
290.181051
20
405.000071
11
290.181051
21
405.000071
0
LINE
8
annotation
62
1
39
211
10
290.181051
20
405.000071
11
290.198260
21
404.808419
0
LINE
8
annotation
62
1
39
211
10
290.198260
20
404.808419
11
290.247863
21
404.628170
0
LINE
8
annotation
62
1
39
211
10
290.247863
20
404.628170
11
290.326821
21
404.462301
0
LINE
8
annotation
62
1
39
211
10
290.326821
20
404.462301
11
290.432097
21
404.313787
0
LINE
8
annotation
62
1
39
211
10
290.432097
20
404.313787
11
290.560655
21
404.185602
0
LINE
8
annotation
62
1
39
211
10
290.560655
20
404.185602
11
290.709457
21
404.080724
0
LINE
8
annotation
62
1
39
211
10
290.709457
20
404.080724
11
290.875464
21
404.002127
0
LINE
8
annotation
62
1
39
211
10
290.875464
20
404.002127
11
291.055641
21
403.952787
0
LINE
8
annotation
62
1
39
211
10
291.055641
20
403.952787
11
291.246948
21
403.935679
0
LINE
8
annotation
62
1
39
211
10
291.246948
20
403.935679
11
291.246948
21
403.935679
0
LINE
8
annotation
62
1
39
211
10
291.246948
20
403.935679
11
291.438256
21
403.952787
0
LINE
8
annotation
62
1
39
211
10
291.438256
20
403.952787
11
291.618433
21
404.002127
0
LINE
8
annotation
62
1
39
211
10
291.618433
20
404.002127
11
291.784440
21
404.080724
0
LINE
8
annotation
62
1
39
211
10
291.784440
20
404.080724
11
291.933242
21
404.185602
0
LINE
8
annotation
62
1
39
211
10
291.933242
20
404.185602
11
292.061799
21
404.313787
0
LINE
8
annotation
62
1
39
211
10
292.061799
20
404.313787
11
292.167076
21
404.462301
0
LINE
8
annotation
62
1
39
211
10
292.167076
20
404.462301
11
292.246034
21
404.628170
0
LINE
8
annotation
62
1
39
211
10
292.246034
20
404.628170
11
292.295637
21
404.808419
0
LINE
8
annotation
62
1
39
211
10
292.295637
20
404.808419
11
292.312846
21
405.000071
0
LINE
8
annotation
62
1
39
211
10
292.312846
20
405.000071
11
292.312846
21
405.531064
0
LINE
8
annotation
62
1
39
211
10
292.312846
20
405.531064
11
292.312846
21
405.531064
0
LINE
8
annotation
62
1
39
211
10
292.312846
20
405.531064
11
292.295647
21
405.722809
0
LINE
8
annotation
62
1
39
211
10
292.295647
20
405.722809
11
292.246069
21
405.903307
0
LINE
8
annotation
62
1
39
211
10
292.246069
20
405.903307
11
292.167143
21
406.069536
0
LINE
8
annotation
62
1
39
211
10
292.167143
20
406.069536
11
292.061898
21
406.218478
0
LINE
8
annotation
62
1
39
211
10
292.061898
20
406.218478
11
291.933365
21
406.347112
0
LINE
8
annotation
62
1
39
211
10
291.933365
20
406.347112
11
291.784574
21
406.452418
0
LINE
8
annotation
62
1
39
211
10
291.784574
20
406.452418
11
291.618554
21
406.531375
0
LINE
8
annotation
62
1
39
211
10
291.618554
20
406.531375
11
291.438336
21
406.580964
0
LINE
8
annotation
62
1
39
211
10
291.438336
20
406.580964
11
291.246948
21
406.598165
0
LINE
8
annotation
62
1
39
211
10
291.246948
20
406.598165
11
291.246948
21
406.598165
0
LINE
8
annotation
62
1
39
211
10
291.246948
20
406.598165
11
291.055561
21
406.580954
0
LINE
8
annotation
62
1
39
211
10
291.055561
20
406.580954
11
290.875343
21
406.531340
0
LINE
8
annotation
62
1
39
211
10
290.875343
20
406.531340
11
290.709323
21
406.452351
0
LINE
8
annotation
62
1
39
211
10
290.709323
20
406.452351
11
290.560531
21
406.347013
0
LINE
8
annotation
62
1
39
211
10
290.560531
20
406.347013
11
290.431998
21
406.218354
0
LINE
8
annotation
62
1
39
211
10
290.431998
20
406.218354
11
290.326754
21
406.069403
0
LINE
8
annotation
62
1
39
211
10
290.326754
20
406.069403
11
290.247828
21
405.903185
0
LINE
8
annotation
62
1
39
211
10
290.247828
20
405.903185
11
290.198250
21
405.722730
0
LINE
8
annotation
62
1
39
211
10
290.198250
20
405.722730
11
290.181051
21
405.531064
0
LINE
8
annotation
62
1
39
211
10
290.181051
20
405.531064
11
290.181051
21
405.000071
0
LINE
8
annotation
62
1
39
211
10
292.312846
20
407.665567
11
292.312846
21
407.665567
0
LINE
8
annotation
62
1
39
211
10
292.312846
20
407.665567
11
292.295647
21
407.856427
0
LINE
8
annotation
62
1
39
211
10
292.295647
20
407.856427
11
292.246069
21
408.036255
0
LINE
8
annotation
62
1
39
211
10
292.246069
20
408.036255
11
292.167143
21
408.202000
0
LINE
8
annotation
62
1
39
211
10
292.167143
20
408.202000
11
292.061898
21
408.350614
0
LINE
8
annotation
62
1
39
211
10
292.061898
20
408.350614
11
291.933365
21
408.479045
0
LINE
8
annotation
62
1
39
211
10
291.933365
20
408.479045
11
291.784574
21
408.584246
0
LINE
8
annotation
62
1
39
211
10
291.784574
20
408.584246
11
291.618554
21
408.663165
0
LINE
8
annotation
62
1
39
211
10
291.618554
20
408.663165
11
291.438336
21
408.712753
0
LINE
8
annotation
62
1
39
211
10
291.438336
20
408.712753
11
291.246948
21
408.729960
0
LINE
8
annotation
62
1
39
211
10
291.246948
20
408.729960
11
291.246948
21
408.729960
0
LINE
8
annotation
62
1
39
211
10
291.246948
20
408.729960
11
291.055561
21
408.712753
0
LINE
8
annotation
62
1
39
211
10
291.055561
20
408.712753
11
290.875343
21
408.663165
0
LINE
8
annotation
62
1
39
211
10
290.875343
20
408.663165
11
290.709323
21
408.584246
0
LINE
8
annotation
62
1
39
211
10
290.709323
20
408.584246
11
290.560531
21
408.479045
0
LINE
8
annotation
62
1
39
211
10
290.560531
20
408.479045
11
290.431998
21
408.350614
0
LINE
8
annotation
62
1
39
211
10
290.431998
20
408.350614
11
290.326754
21
408.202000
0
LINE
8
annotation
62
1
39
211
10
290.326754
20
408.202000
11
290.247828
21
408.036255
0
LINE
8
annotation
62
1
39
211
10
290.247828
20
408.036255
11
290.198250
21
407.856427
0
LINE
8
annotation
62
1
39
211
10
290.198250
20
407.856427
11
290.181051
21
407.665567
0
LINE
8
annotation
62
1
39
211
10
290.181051
20
407.665567
11
290.181051
21
407.665567
0
LINE
8
annotation
62
1
39
211
10
290.181051
20
407.665567
11
290.198260
21
407.473812
0
LINE
8
annotation
62
1
39
211
10
290.198260
20
407.473812
11
290.247863
21
407.293286
0
LINE
8
annotation
62
1
39
211
10
290.247863
20
407.293286
11
290.326821
21
407.127017
0
LINE
8
annotation
62
1
39
211
10
290.326821
20
407.127017
11
290.432097
21
406.978027
0
LINE
8
annotation
62
1
39
211
10
290.432097
20
406.978027
11
290.560655
21
406.849344
0
LINE
8
annotation
62
1
39
211
10
290.560655
20
406.849344
11
290.709457
21
406.743991
0
LINE
8
annotation
62
1
39
211
10
290.709457
20
406.743991
11
290.875464
21
406.664993
0
LINE
8
annotation
62
1
39
211
10
290.875464
20
406.664993
11
291.055641
21
406.615376
0
LINE
8
annotation
62
1
39
211
10
291.055641
20
406.615376
11
291.246948
21
406.598165
0
LINE
8
annotation
62
1
39
211
10
291.246948
20
406.598165
11
291.246948
21
406.598165
0
LINE
8
annotation
62
1
39
211
10
291.246948
20
406.598165
11
291.438256
21
406.615376
0
LINE
8
annotation
62
1
39
211
10
291.438256
20
406.615376
11
291.618433
21
406.664993
0
LINE
8
annotation
62
1
39
211
10
291.618433
20
406.664993
11
291.784440
21
406.743991
0
LINE
8
annotation
62
1
39
211
10
291.784440
20
406.743991
11
291.933242
21
406.849344
0
LINE
8
annotation
62
1
39
211
10
291.933242
20
406.849344
11
292.061799
21
406.978027
0
LINE
8
annotation
62
1
39
211
10
292.061799
20
406.978027
11
292.167076
21
407.127017
0
LINE
8
annotation
62
1
39
211
10
292.167076
20
407.127017
11
292.246034
21
407.293286
0
LINE
8
annotation
62
1
39
211
10
292.246034
20
407.293286
11
292.295637
21
407.473812
0
LINE
8
annotation
62
1
39
211
10
292.295637
20
407.473812
11
292.312846
21
407.665567
0
LINE
8
annotation
62
1
39
211
10
119.219007
20
405.000071
11
119.219007
21
405.000071
0
LINE
8
annotation
62
1
39
211
10
119.219007
20
405.000071
11
119.236216
21
404.808419
0
LINE
8
annotation
62
1
39
211
10
119.236216
20
404.808419
11
119.285818
21
404.628170
0
LINE
8
annotation
62
1
39
211
10
119.285818
20
404.628170
11
119.364776
21
404.462301
0
LINE
8
annotation
62
1
39
211
10
119.364776
20
404.462301
11
119.470053
21
404.313787
0
LINE
8
annotation
62
1
39
211
10
119.470053
20
404.313787
11
119.598611
21
404.185602
0
LINE
8
annotation
62
1
39
211
10
119.598611
20
404.185602
11
119.747412
21
404.080724
0
LINE
8
annotation
62
1
39
211
10
119.747412
20
404.080724
11
119.913420
21
404.002127
0
LINE
8
annotation
62
1
39
211
10
119.913420
20
404.002127
11
120.093596
21
403.952787
0
LINE
8
annotation
62
1
39
211
10
120.093596
20
403.952787
11
120.284904
21
403.935679
0
LINE
8
annotation
62
1
39
211
10
120.284904
20
403.935679
11
120.284904
21
403.935679
0
LINE
8
annotation
62
1
39
211
10
120.284904
20
403.935679
11
120.476212
21
403.952787
0
LINE
8
annotation
62
1
39
211
10
120.476212
20
403.952787
11
120.656388
21
404.002127
0
LINE
8
annotation
62
1
39
211
10
120.656388
20
404.002127
11
120.822396
21
404.080724
0
LINE
8
annotation
62
1
39
211
10
120.822396
20
404.080724
11
120.971197
21
404.185602
0
LINE
8
annotation
62
1
39
211
10
120.971197
20
404.185602
11
121.099755
21
404.313787
0
LINE
8
annotation
62
1
39
211
10
121.099755
20
404.313787
11
121.205032
21
404.462301
0
LINE
8
annotation
62
1
39
211
10
121.205032
20
404.462301
11
121.283990
21
404.628170
0
LINE
8
annotation
62
1
39
211
10
121.283990
20
404.628170
11
121.333592
21
404.808419
0
LINE
8
annotation
62
1
39
211
10
121.333592
20
404.808419
11
121.350802
21
405.000071
0
LINE
8
annotation
62
1
39
211
10
121.350802
20
405.000071
11
121.350802
21
405.531064
0
LINE
8
annotation
62
1
39
211
10
121.350802
20
405.531064
11
121.350802
21
405.531064
0
LINE
8
annotation
62
1
39
211
10
121.350802
20
405.531064
11
121.333602
21
405.722809
0
LINE
8
annotation
62
1
39
211
10
121.333602
20
405.722809
11
121.284025
21
405.903307
0
LINE
8
annotation
62
1
39
211
10
121.284025
20
405.903307
11
121.205099
21
406.069536
0
LINE
8
annotation
62
1
39
211
10
121.205099
20
406.069536
11
121.099854
21
406.218478
0
LINE
8
annotation
62
1
39
211
10
121.099854
20
406.218478
11
120.971321
21
406.347112
0
LINE
8
annotation
62
1
39
211
10
120.971321
20
406.347112
11
120.822530
21
406.452418
0
LINE
8
annotation
62
1
39
211
10
120.822530
20
406.452418
11
120.656510
21
406.531375
0
LINE
8
annotation
62
1
39
211
10
120.656510
20
406.531375
11
120.476291
21
406.580964
0
LINE
8
annotation
62
1
39
211
10
120.476291
20
406.580964
11
120.284904
21
406.598165
0
LINE
8
annotation
62
1
39
211
10
120.284904
20
406.598165
11
120.284904
21
406.598165
0
LINE
8
annotation
62
1
39
211
10
120.284904
20
406.598165
11
120.093517
21
406.580954
0
LINE
8
annotation
62
1
39
211
10
120.093517
20
406.580954
11
119.913299
21
406.531340
0
LINE
8
annotation
62
1
39
211
10
119.913299
20
406.531340
11
119.747279
21
406.452351
0
LINE
8
annotation
62
1
39
211
10
119.747279
20
406.452351
11
119.598487
21
406.347013
0
LINE
8
annotation
62
1
39
211
10
119.598487
20
406.347013
11
119.469954
21
406.218354
0
LINE
8
annotation
62
1
39
211
10
119.469954
20
406.218354
11
119.364710
21
406.069403
0
LINE
8
annotation
62
1
39
211
10
119.364710
20
406.069403
11
119.285784
21
405.903185
0
LINE
8
annotation
62
1
39
211
10
119.285784
20
405.903185
11
119.236206
21
405.722730
0
LINE
8
annotation
62
1
39
211
10
119.236206
20
405.722730
11
119.219007
21
405.531064
0
LINE
8
annotation
62
1
39
211
10
119.219007
20
405.531064
11
119.219007
21
405.000071
0
LINE
8
annotation
62
1
39
211
10
121.350802
20
407.665567
11
121.350802
21
407.665567
0
LINE
8
annotation
62
1
39
211
10
121.350802
20
407.665567
11
121.333602
21
407.856427
0
LINE
8
annotation
62
1
39
211
10
121.333602
20
407.856427
11
121.284025
21
408.036255
0
LINE
8
annotation
62
1
39
211
10
121.284025
20
408.036255
11
121.205099
21
408.202000
0
LINE
8
annotation
62
1
39
211
10
121.205099
20
408.202000
11
121.099854
21
408.350614
0
LINE
8
annotation
62
1
39
211
10
121.099854
20
408.350614
11
120.971321
21
408.479045
0
LINE
8
annotation
62
1
39
211
10
120.971321
20
408.479045
11
120.822530
21
408.584246
0
LINE
8
annotation
62
1
39
211
10
120.822530
20
408.584246
11
120.656510
21
408.663165
0
LINE
8
annotation
62
1
39
211
10
120.656510
20
408.663165
11
120.476291
21
408.712753
0
LINE
8
annotation
62
1
39
211
10
120.476291
20
408.712753
11
120.284904
21
408.729960
0
LINE
8
annotation
62
1
39
211
10
120.284904
20
408.729960
11
120.284904
21
408.729960
0
LINE
8
annotation
62
1
39
211
10
120.284904
20
408.729960
11
120.093517
21
408.712753
0
LINE
8
annotation
62
1
39
211
10
120.093517
20
408.712753
11
119.913299
21
408.663165
0
LINE
8
annotation
62
1
39
211
10
119.913299
20
408.663165
11
119.747279
21
408.584246
0
LINE
8
annotation
62
1
39
211
10
119.747279
20
408.584246
11
119.598487
21
408.479045
0
LINE
8
annotation
62
1
39
211
10
119.598487
20
408.479045
11
119.469954
21
408.350614
0
LINE
8
annotation
62
1
39
211
10
119.469954
20
408.350614
11
119.364710
21
408.202000
0
LINE
8
annotation
62
1
39
211
10
119.364710
20
408.202000
11
119.285784
21
408.036255
0
LINE
8
annotation
62
1
39
211
10
119.285784
20
408.036255
11
119.236206
21
407.856427
0
LINE
8
annotation
62
1
39
211
10
119.236206
20
407.856427
11
119.219007
21
407.665567
0
LINE
8
annotation
62
1
39
211
10
119.219007
20
407.665567
11
119.219007
21
407.665567
0
LINE
8
annotation
62
1
39
211
10
119.219007
20
407.665567
11
119.236216
21
407.473812
0
LINE
8
annotation
62
1
39
211
10
119.236216
20
407.473812
11
119.285818
21
407.293286
0
LINE
8
annotation
62
1
39
211
10
119.285818
20
407.293286
11
119.364776
21
407.127017
0
LINE
8
annotation
62
1
39
211
10
119.364776
20
407.127017
11
119.470053
21
406.978027
0
LINE
8
annotation
62
1
39
211
10
119.470053
20
406.978027
11
119.598611
21
406.849344
0
LINE
8
annotation
62
1
39
211
10
119.598611
20
406.849344
11
119.747412
21
406.743991
0
LINE
8
annotation
62
1
39
211
10
119.747412
20
406.743991
11
119.913420
21
406.664993
0
LINE
8
annotation
62
1
39
211
10
119.913420
20
406.664993
11
120.093596
21
406.615376
0
LINE
8
annotation
62
1
39
211
10
120.093596
20
406.615376
11
120.284904
21
406.598165
0
LINE
8
annotation
62
1
39
211
10
120.284904
20
406.598165
11
120.284904
21
406.598165
0
LINE
8
annotation
62
1
39
211
10
120.284904
20
406.598165
11
120.476212
21
406.615376
0
LINE
8
annotation
62
1
39
211
10
120.476212
20
406.615376
11
120.656388
21
406.664993
0
LINE
8
annotation
62
1
39
211
10
120.656388
20
406.664993
11
120.822396
21
406.743991
0
LINE
8
annotation
62
1
39
211
10
120.822396
20
406.743991
11
120.971197
21
406.849344
0
LINE
8
annotation
62
1
39
211
10
120.971197
20
406.849344
11
121.099755
21
406.978027
0
LINE
8
annotation
62
1
39
211
10
121.099755
20
406.978027
11
121.205032
21
407.127017
0
LINE
8
annotation
62
1
39
211
10
121.205032
20
407.127017
11
121.283990
21
407.293286
0
LINE
8
annotation
62
1
39
211
10
121.283990
20
407.293286
11
121.333592
21
407.473812
0
LINE
8
annotation
62
1
39
211
10
121.333592
20
407.473812
11
121.350802
21
407.665567
0
LINE
8
annotation
62
1
39
211
10
300.435847
20
429.155955
11
300.435847
21
429.155955
0
LINE
8
annotation
62
1
39
211
10
300.435847
20
429.155955
11
300.667477
21
429.242272
0
LINE
8
annotation
62
1
39
211
10
300.667477
20
429.242272
11
300.880086
21
429.358945
0
LINE
8
annotation
62
1
39
211
10
300.880086
20
429.358945
11
301.071475
21
429.503002
0
LINE
8
annotation
62
1
39
211
10
301.071475
20
429.503002
11
301.239447
21
429.671469
0
LINE
8
annotation
62
1
39
211
10
301.239447
20
429.671469
11
301.381806
21
429.861374
0
LINE
8
annotation
62
1
39
211
10
301.381806
20
429.861374
11
301.496353
21
430.069744
0
LINE
8
annotation
62
1
39
211
10
301.496353
20
430.069744
11
301.580894
21
430.293607
0
LINE
8
annotation
62
1
39
211
10
301.580894
20
430.293607
11
301.633229
21
430.529989
0
LINE
8
annotation
62
1
39
211
10
301.633229
20
430.529989
11
301.651162
21
430.775918
0
LINE
8
annotation
62
1
39
211
10
301.651162
20
430.775918
11
301.651162
21
431.992377
0
LINE
8
annotation
62
1
39
211
10
301.651162
20
431.992377
11
301.651162
21
431.992377
0
LINE
8
annotation
62
1
39
211
10
301.651162
20
431.992377
11
301.638122
21
432.138094
0
LINE
8
annotation
62
1
39
211
10
301.638122
20
432.138094
11
301.600523
21
432.275276
0
LINE
8
annotation
62
1
39
211
10
301.600523
20
432.275276
11
301.540645
21
432.401625
0
LINE
8
annotation
62
1
39
211
10
301.540645
20
432.401625
11
301.460767
21
432.514843
0
LINE
8
annotation
62
1
39
211
10
301.460767
20
432.514843
11
301.363169
21
432.612631
0
LINE
8
annotation
62
1
39
211
10
301.363169
20
432.612631
11
301.250132
21
432.692689
0
LINE
8
annotation
62
1
39
211
10
301.250132
20
432.692689
11
301.123935
21
432.752720
0
LINE
8
annotation
62
1
39
211
10
301.123935
20
432.752720
11
300.986858
21
432.790424
0
LINE
8
annotation
62
1
39
211
10
300.986858
20
432.790424
11
300.841180
21
432.803503
0
LINE
8
annotation
62
1
39
211
10
300.841180
20
432.803503
11
300.841180
21
432.803503
0
LINE
8
annotation
62
1
39
211
10
300.841180
20
432.803503
11
300.695805
21
432.790424
0
LINE
8
annotation
62
1
39
211
10
300.695805
20
432.790424
11
300.558887
21
432.752720
0
LINE
8
annotation
62
1
39
211
10
300.558887
20
432.752720
11
300.432737
21
432.692689
0
LINE
8
annotation
62
1
39
211
10
300.432737
20
432.692689
11
300.319662
21
432.612631
0
LINE
8
annotation
62
1
39
211
10
300.319662
20
432.612631
11
300.221971
21
432.514843
0
LINE
8
annotation
62
1
39
211
10
300.221971
20
432.514843
11
300.141970
21
432.401625
0
LINE
8
annotation
62
1
39
211
10
300.141970
20
432.401625
11
300.081969
21
432.275276
0
LINE
8
annotation
62
1
39
211
10
300.081969
20
432.275276
11
300.044276
21
432.138094
0
LINE
8
annotation
62
1
39
211
10
300.044276
20
432.138094
11
300.031199
21
431.992377
0
LINE
8
annotation
62
1
39
211
10
300.031199
20
431.992377
11
300.031199
21
431.586815
0
LINE
8
annotation
62
1
39
211
10
300.031199
20
431.586815
11
300.031199
21
431.586815
0
LINE
8
annotation
62
1
39
211
10
300.031199
20
431.586815
11
300.044276
21
431.441106
0
LINE
8
annotation
62
1
39
211
10
300.044276
20
431.441106
11
300.081969
21
431.303945
0
LINE
8
annotation
62
1
39
211
10
300.081969
20
431.303945
11
300.141970
21
431.177626
0
LINE
8
annotation
62
1
39
211
10
300.141970
20
431.177626
11
300.221971
21
431.064444
0
LINE
8
annotation
62
1
39
211
10
300.221971
20
431.064444
11
300.319662
21
430.966695
0
LINE
8
annotation
62
1
39
211
10
300.319662
20
430.966695
11
300.432737
21
430.886673
0
LINE
8
annotation
62
1
39
211
10
300.432737
20
430.886673
11
300.558887
21
430.826672
0
LINE
8
annotation
62
1
39
211
10
300.558887
20
430.826672
11
300.695805
21
430.788989
0
LINE
8
annotation
62
1
39
211
10
300.695805
20
430.788989
11
300.841180
21
430.775918
0
LINE
8
annotation
62
1
39
211
10
300.841180
20
430.775918
11
301.651162
21
430.775918
0
LINE
8
annotation
62
1
39
211
10
299.929980
20
428.700012
11
301.753754
21
428.700012
0
LINE
8
annotation
62
1
39
211
10
210.684457
20
383.378297
11
203.467026
21
372.938944
0
LINE
8
annotation
62
1
39
211
10
203.467026
20
372.938944
11
196.248237
21
383.378297
0
LINE
8
annotation
62
1
39
211
10
203.467026
20
373.779033
11
203.467026
21
361.735505
0
LINE
8
annotation
62
1
39
211
10
230.635876
20
372.556901
11
218.802709
21
372.556901
0
LINE
8
annotation
62
1
39
211
10
238.749379
20
361.736862
11
243.555118
21
361.736862
0
LINE
8
annotation
62
1
39
211
10
243.555118
20
361.736862
11
243.555118
21
361.736862
0
LINE
8
annotation
62
1
39
211
10
243.555118
20
361.736862
11
244.419442
21
361.814397
0
LINE
8
annotation
62
1
39
211
10
244.419442
20
361.814397
11
245.232741
21
362.037859
0
LINE
8
annotation
62
1
39
211
10
245.232741
20
362.037859
11
245.981487
21
362.393531
0
LINE
8
annotation
62
1
39
211
10
245.981487
20
362.393531
11
246.652154
21
362.867695
0
LINE
8
annotation
62
1
39
211
10
246.652154
20
362.867695
11
247.231215
21
363.446636
0
LINE
8
annotation
62
1
39
211
10
247.231215
20
363.446636
11
247.705143
21
364.116635
0
LINE
8
annotation
62
1
39
211
10
247.705143
20
364.116635
11
248.060411
21
364.863976
0
LINE
8
annotation
62
1
39
211
10
248.060411
20
364.863976
11
248.283492
21
365.674941
0
LINE
8
annotation
62
1
39
211
10
248.283492
20
365.674941
11
248.360858
21
366.535816
0
LINE
8
annotation
62
1
39
211
10
248.360858
20
366.535816
11
248.360858
21
368.942078
0
LINE
8
annotation
62
1
39
211
10
248.360858
20
368.942078
11
248.360858
21
368.942078
0
LINE
8
annotation
62
1
39
211
10
248.360858
20
368.942078
11
248.283492
21
369.802595
0
LINE
8
annotation
62
1
39
211
10
248.283492
20
369.802595
11
248.060411
21
370.613371
0
LINE
8
annotation
62
1
39
211
10
248.060411
20
370.613371
11
247.705143
21
371.360656
0
LINE
8
annotation
62
1
39
211
10
247.705143
20
371.360656
11
247.231215
21
372.030700
0
LINE
8
annotation
62
1
39
211
10
247.231215
20
372.030700
11
246.652154
21
372.609752
0
LINE
8
annotation
62
1
39
211
10
246.652154
20
372.609752
11
245.981487
21
373.084061
0
LINE
8
annotation
62
1
39
211
10
245.981487
20
373.084061
11
245.232741
21
373.439878
0
LINE
8
annotation
62
1
39
211
10
245.232741
20
373.439878
11
244.419442
21
373.663452
0
LINE
8
annotation
62
1
39
211
10
244.419442
20
373.663452
11
243.555118
21
373.741032
0
LINE
8
annotation
62
1
39
211
10
243.555118
20
373.741032
11
241.148855
21
373.741032
0
LINE
8
annotation
62
1
39
211
10
241.148855
20
373.741032
11
243.555118
21
373.741032
0
LINE
8
annotation
62
1
39
211
10
243.555118
20
373.741032
11
243.555118
21
373.741032
0
LINE
8
annotation
62
1
39
211
10
243.555118
20
373.741032
11
244.419442
21
373.818631
0
LINE
8
annotation
62
1
39
211
10
244.419442
20
373.818631
11
245.232741
21
374.042335
0
LINE
8
annotation
62
1
39
211
10
245.232741
20
374.042335
11
245.981487
21
374.398506
0
LINE
8
annotation
62
1
39
211
10
245.981487
20
374.398506
11
246.652154
21
374.873504
0
LINE
8
annotation
62
1
39
211
10
246.652154
20
374.873504
11
247.231215
21
375.453691
0
LINE
8
annotation
62
1
39
211
10
247.231215
20
375.453691
11
247.705143
21
376.125429
0
LINE
8
annotation
62
1
39
211
10
247.705143
20
376.125429
11
248.060411
21
376.875079
0
LINE
8
annotation
62
1
39
211
10
248.060411
20
376.875079
11
248.283492
21
377.689001
0
LINE
8
annotation
62
1
39
211
10
248.283492
20
377.689001
11
248.360858
21
378.553557
0
LINE
8
annotation
62
1
39
211
10
248.360858
20
378.553557
11
248.360858
21
378.553557
0
LINE
8
annotation
62
1
39
211
10
248.360858
20
378.553557
11
248.283492
21
379.414074
0
LINE
8
annotation
62
1
39
211
10
248.283492
20
379.414074
11
248.060411
21
380.224850
0
LINE
8
annotation
62
1
39
211
10
248.060411
20
380.224850
11
247.705143
21
380.972135
0
LINE
8
annotation
62
1
39
211
10
247.705143
20
380.972135
11
247.231215
21
381.642179
0
LINE
8
annotation
62
1
39
211
10
247.231215
20
381.642179
11
246.652154
21
382.221231
0
LINE
8
annotation
62
1
39
211
10
246.652154
20
382.221231
11
245.981487
21
382.695540
0
LINE
8
annotation
62
1
39
211
10
245.981487
20
382.695540
11
245.232741
21
383.051357
0
LINE
8
annotation
62
1
39
211
10
245.232741
20
383.051357
11
244.419442
21
383.274931
0
LINE
8
annotation
62
1
39
211
10
244.419442
20
383.274931
11
243.555118
21
383.352511
0
LINE
8
annotation
62
1
39
211
10
243.555118
20
383.352511
11
238.749379
21
383.352511
0
LINE
8
frame
62
5
39
2
10
0.000000
20
0.000000
11
450.000000
21
0.000000
0
LINE
8
frame
62
5
39
2
10
450.000000
20
0.000000
11
450.000000
21
500.000000
0
LINE
8
frame
62
5
39
2
10
450.000000
20
500.000000
11
0.000000
21
500.000000
0
LINE
8
frame
62
5
39
2
10
0.000000
20
500.000000
11
0.000000
21
0.000000
0
ENDSEC
0
EOF
