0
SECTION
2
HEADER
9
$ACADVER
1
AC1009
0
ENDSEC
0
SECTION
2
TABLES
0
TABLE
2
VPORT
70
1
0
VPORT
2
ACTIVE
70
0
10
0.0
20
0.0
11
0.0
21
0.0
12
0.0
22
0.0
13
0.0
23
0.0
14
0.0
24
0.0
15
0.0
25
0.0
16
0.0
26
0.0
36
0.0
17
0.0
27
0.0
37
0.0
40
0.0
41
0.0
42
0.0
43
0.0
44
0.0
50
0.0
51
0.0
71
0
72
1000
73
1
74
3
75
0
76
0
77
0
78
0
0
ENDTAB
0
ENDSEC
0
SECTION
2
ENTITIES
0
LINE
8
boundary
62
5
39
2
10
213.736251
20
1.587500
11
213.736251
21
27.201608
0
LINE
8
boundary
62
5
39
2
10
213.736251
20
27.201608
11
213.736252
21
27.899597
0
LINE
8
boundary
62
5
39
2
10
213.736252
20
27.899597
11
213.736251
21
28.670841
0
LINE
8
boundary
62
5
39
2
10
213.736251
20
28.670841
11
213.736252
21
29.512738
0
LINE
8
boundary
62
5
39
2
10
213.736252
20
29.512738
11
213.736251
21
30.420984
0
LINE
8
boundary
62
5
39
2
10
213.736251
20
30.420984
11
213.736251
21
32.409338
0
LINE
8
boundary
62
5
39
2
10
213.736251
20
32.409338
11
213.736251
21
34.558290
0
LINE
8
boundary
62
5
39
2
10
213.736251
20
34.558290
11
213.736251
21
36.558315
0
LINE
8
boundary
62
5
39
2
10
213.736251
20
36.558315
11
213.736252
21
38.525008
0
LINE
8
boundary
62
5
39
2
10
213.736252
20
38.525008
11
213.736252
21
40.423080
0
LINE
8
boundary
62
5
39
2
10
213.736252
20
40.423080
11
213.736251
21
42.115273
0
LINE
8
boundary
62
5
39
2
10
213.736251
20
42.115273
11
213.736252
21
43.470232
0
LINE
8
boundary
62
5
39
2
10
213.736252
20
43.470232
11
213.736251
21
58.516407
0
LINE
8
boundary
62
5
39
2
10
213.736251
20
58.516407
11
213.736252
21
102.754668
0
LINE
8
boundary
62
5
39
2
10
213.736252
20
102.754668
11
213.736251
21
104.073057
0
LINE
8
boundary
62
5
39
2
10
213.736251
20
104.073057
11
213.736251
21
105.659334
0
LINE
8
boundary
62
5
39
2
10
213.736251
20
105.659334
11
213.736251
21
107.392660
0
LINE
8
boundary
62
5
39
2
10
213.736251
20
107.392660
11
213.736252
21
108.955321
0
LINE
8
boundary
62
5
39
2
10
213.736252
20
108.955321
11
213.736252
21
110.911752
0
LINE
8
boundary
62
5
39
2
10
213.736252
20
110.911752
11
213.736252
21
112.796894
0
LINE
8
boundary
62
5
39
2
10
213.736252
20
112.796894
11
213.736252
21
114.512804
0
LINE
8
boundary
62
5
39
2
10
213.736252
20
114.512804
11
213.736251
21
115.286433
0
LINE
8
boundary
62
5
39
2
10
213.736251
20
115.286433
11
213.736251
21
115.996847
0
LINE
8
boundary
62
5
39
2
10
213.736251
20
115.996847
11
213.736252
21
116.640967
0
LINE
8
boundary
62
5
39
2
10
213.736252
20
116.640967
11
213.736251
21
117.217178
0
LINE
8
boundary
62
5
39
2
10
213.736251
20
117.217178
11
213.736252
21
138.225702
0
LINE
8
boundary
62
5
39
2
10
213.736252
20
138.225702
11
163.053973
21
138.225702
0
LINE
8
boundary
62
5
39
2
10
163.053973
20
138.225702
11
153.736259
21
138.225702
0
LINE
8
boundary
62
5
39
2
10
153.736259
20
138.225702
11
148.348938
21
137.275772
0
LINE
8
boundary
62
5
39
2
10
148.348938
20
137.275772
11
139.005003
21
135.628185
0
LINE
8
boundary
62
5
39
2
10
139.005003
20
135.628185
11
23.908811
21
115.333619
0
LINE
8
boundary
62
5
39
2
10
23.908811
20
115.333619
11
114.235506
21
115.183619
0
LINE
8
boundary
62
5
39
2
10
114.235506
20
115.183619
11
114.235506
21
112.283619
0
LINE
8
boundary
62
5
39
2
10
114.235506
20
112.283619
11
6.611403
21
112.283619
0
LINE
8
boundary
62
5
39
2
10
6.611403
20
112.283619
11
4.541923
21
111.918714
0
LINE
8
boundary
62
5
39
2
10
4.541923
20
111.918714
11
1.587500
21
108.397772
0
LINE
8
boundary
62
5
39
2
10
1.587500
20
108.397772
11
1.587500
21
106.646508
0
LINE
8
boundary
62
5
39
2
10
1.587500
20
106.646508
11
1.587500
21
101.951235
0
LINE
8
boundary
62
5
39
2
10
1.587500
20
101.951235
11
107.611876
21
101.801235
0
LINE
8
boundary
62
5
39
2
10
107.611876
20
101.801235
11
107.611876
21
98.901235
0
LINE
8
boundary
62
5
39
2
10
107.611876
20
98.901235
11
1.682500
21
98.901235
0
LINE
8
boundary
62
5
39
2
10
1.682500
20
98.901235
11
1.587500
21
91.698688
0
LINE
8
boundary
62
5
39
2
10
1.587500
20
91.698688
11
107.611876
21
91.548689
0
LINE
8
boundary
62
5
39
2
10
107.611876
20
91.548689
11
107.611876
21
88.648689
0
LINE
8
boundary
62
5
39
2
10
107.611876
20
88.648689
11
1.682500
21
88.648689
0
LINE
8
boundary
62
5
39
2
10
1.682500
20
88.648689
11
1.587500
21
75.605745
0
LINE
8
boundary
62
5
39
2
10
1.587500
20
75.605745
11
107.611876
21
75.455745
0
LINE
8
boundary
62
5
39
2
10
107.611876
20
75.455745
11
107.611876
21
72.555745
0
LINE
8
boundary
62
5
39
2
10
107.611876
20
72.555745
11
1.682500
21
72.555745
0
LINE
8
boundary
62
5
39
2
10
1.682500
20
72.555745
11
1.587500
21
59.512802
0
LINE
8
boundary
62
5
39
2
10
1.587500
20
59.512802
11
107.611876
21
59.362802
0
LINE
8
boundary
62
5
39
2
10
107.611876
20
59.362802
11
107.611876
21
56.462802
0
LINE
8
boundary
62
5
39
2
10
107.611876
20
56.462802
11
1.682500
21
56.462802
0
LINE
8
boundary
62
5
39
2
10
1.682500
20
56.462802
11
1.587500
21
43.419858
0
LINE
8
boundary
62
5
39
2
10
1.587500
20
43.419858
11
107.611876
21
43.269858
0
LINE
8
boundary
62
5
39
2
10
107.611876
20
43.269858
11
107.611876
21
40.369858
0
LINE
8
boundary
62
5
39
2
10
107.611876
20
40.369858
11
1.682500
21
40.369859
0
LINE
8
boundary
62
5
39
2
10
1.682500
20
40.369859
11
1.587500
21
27.326915
0
LINE
8
boundary
62
5
39
2
10
1.587500
20
27.326915
11
107.611876
21
27.176915
0
LINE
8
boundary
62
5
39
2
10
107.611876
20
27.176915
11
107.611876
21
24.276915
0
LINE
8
boundary
62
5
39
2
10
107.611876
20
24.276915
11
1.682500
21
24.276915
0
LINE
8
boundary
62
5
39
2
10
1.682500
20
24.276915
11
1.587500
21
11.233972
0
LINE
8
boundary
62
5
39
2
10
1.587500
20
11.233972
11
107.611876
21
11.083972
0
LINE
8
boundary
62
5
39
2
10
107.611876
20
11.083972
11
107.611876
21
8.183972
0
LINE
8
boundary
62
5
39
2
10
107.611876
20
8.183972
11
1.682500
21
8.183972
0
LINE
8
boundary
62
5
39
2
10
1.682500
20
8.183972
11
1.587500
21
6.547830
0
LINE
8
boundary
62
5
39
2
10
1.587500
20
6.547830
11
1.587500
21
5.085573
0
LINE
8
boundary
62
5
39
2
10
1.587500
20
5.085573
11
4.553262
21
1.621749
0
LINE
8
boundary
62
5
39
2
10
4.553262
20
1.621749
11
6.923724
21
1.587500
0
LINE
8
boundary
62
5
39
2
10
6.923724
20
1.587500
11
81.867131
21
1.587500
0
LINE
8
boundary
62
5
39
2
10
81.867131
20
1.587500
11
143.621531
21
1.587501
0
LINE
8
boundary
62
5
39
2
10
143.621531
20
1.587501
11
163.053829
21
1.587501
0
LINE
8
boundary
62
5
39
2
10
163.053829
20
1.587501
11
213.736251
21
1.587500
0
LINE
8
annotation
62
1
39
211
10
114.194975
20
7.233972
11
114.194975
21
12.033972
0
LINE
8
annotation
62
1
39
211
10
114.194975
20
12.033972
11
113.127874
21
10.966569
0
LINE
8
annotation
62
1
39
211
10
114.727171
20
23.326876
11
112.595376
21
23.326876
0
LINE
8
annotation
62
1
39
211
10
112.595376
20
23.326876
11
114.565225
21
26.498079
0
LINE
8
annotation
62
1
39
211
10
114.565225
20
26.498079
11
114.565225
21
26.498079
0
LINE
8
annotation
62
1
39
211
10
114.565225
20
26.498079
11
114.567580
21
26.500993
0
LINE
8
annotation
62
1
39
211
10
114.567580
20
26.500993
11
114.569838
21
26.503932
0
LINE
8
annotation
62
1
39
211
10
114.569838
20
26.503932
11
114.572014
21
26.506920
0
LINE
8
annotation
62
1
39
211
10
114.572014
20
26.506920
11
114.574124
21
26.509983
0
LINE
8
annotation
62
1
39
211
10
114.574124
20
26.509983
11
114.576181
21
26.513144
0
LINE
8
annotation
62
1
39
211
10
114.576181
20
26.513144
11
114.578202
21
26.516430
0
LINE
8
annotation
62
1
39
211
10
114.578202
20
26.516430
11
114.580200
21
26.519864
0
LINE
8
annotation
62
1
39
211
10
114.580200
20
26.519864
11
114.582191
21
26.523472
0
LINE
8
annotation
62
1
39
211
10
114.582191
20
26.523472
11
114.584189
21
26.527278
0
LINE
8
annotation
62
1
39
211
10
114.584189
20
26.527278
11
114.584189
21
26.527278
0
LINE
8
annotation
62
1
39
211
10
114.584189
20
26.527278
11
114.665523
21
26.701910
0
LINE
8
annotation
62
1
39
211
10
114.665523
20
26.701910
11
114.713038
21
26.882931
0
LINE
8
annotation
62
1
39
211
10
114.713038
20
26.882931
11
114.727896
21
27.066252
0
LINE
8
annotation
62
1
39
211
10
114.727896
20
27.066252
11
114.711263
21
27.247782
0
LINE
8
annotation
62
1
39
211
10
114.711263
20
27.247782
11
114.664303
21
27.423430
0
LINE
8
annotation
62
1
39
211
10
114.664303
20
27.423430
11
114.588180
21
27.589106
0
LINE
8
annotation
62
1
39
211
10
114.588180
20
27.589106
11
114.484059
21
27.740719
0
LINE
8
annotation
62
1
39
211
10
114.484059
20
27.740719
11
114.353104
21
27.874181
0
LINE
8
annotation
62
1
39
211
10
114.353104
20
27.874181
11
114.196480
21
27.985399
0
LINE
8
annotation
62
1
39
211
10
114.196480
20
27.985399
11
114.196480
21
27.985399
0
LINE
8
annotation
62
1
39
211
10
114.196480
20
27.985399
11
114.021362
21
28.065578
0
LINE
8
annotation
62
1
39
211
10
114.021362
20
28.065578
11
113.840063
21
28.112360
0
LINE
8
annotation
62
1
39
211
10
113.840063
20
28.112360
11
113.656636
21
28.126798
0
LINE
8
annotation
62
1
39
211
10
113.656636
20
28.126798
11
113.475134
21
28.109946
0
LINE
8
annotation
62
1
39
211
10
113.475134
20
28.109946
11
113.299610
21
28.062856
0
LINE
8
annotation
62
1
39
211
10
113.299610
20
28.062856
11
113.134117
21
27.986580
0
LINE
8
annotation
62
1
39
211
10
113.134117
20
27.986580
11
112.982709
21
27.882173
0
LINE
8
annotation
62
1
39
211
10
112.982709
20
27.882173
11
112.849438
21
27.750687
0
LINE
8
annotation
62
1
39
211
10
112.849438
20
27.750687
11
112.738359
21
27.593175
0
LINE
8
annotation
62
1
39
211
10
112.738359
20
27.593175
11
112.598387
21
27.324669
0
LINE
8
annotation
62
1
39
211
10
112.595377
20
39.420009
11
113.661274
21
39.420009
0
LINE
8
annotation
62
1
39
211
10
113.661274
20
39.420009
11
113.661274
21
39.420009
0
LINE
8
annotation
62
1
39
211
10
113.661274
20
39.420009
11
113.852978
21
39.437206
0
LINE
8
annotation
62
1
39
211
10
113.852978
20
39.437206
11
114.033365
21
39.486769
0
LINE
8
annotation
62
1
39
211
10
114.033365
20
39.486769
11
114.199435
21
39.565656
0
LINE
8
annotation
62
1
39
211
10
114.199435
20
39.565656
11
114.348187
21
39.670824
0
LINE
8
annotation
62
1
39
211
10
114.348187
20
39.670824
11
114.476620
21
39.799231
0
LINE
8
annotation
62
1
39
211
10
114.476620
20
39.799231
11
114.581736
21
39.947835
0
LINE
8
annotation
62
1
39
211
10
114.581736
20
39.947835
11
114.660533
21
40.113593
0
LINE
8
annotation
62
1
39
211
10
114.660533
20
40.113593
11
114.710012
21
40.293462
0
LINE
8
annotation
62
1
39
211
10
114.710012
20
40.293462
11
114.727171
21
40.484401
0
LINE
8
annotation
62
1
39
211
10
114.727171
20
40.484401
11
114.727171
21
41.018103
0
LINE
8
annotation
62
1
39
211
10
114.727171
20
41.018103
11
114.727171
21
41.018103
0
LINE
8
annotation
62
1
39
211
10
114.727171
20
41.018103
11
114.710012
21
41.208962
0
LINE
8
annotation
62
1
39
211
10
114.710012
20
41.208962
11
114.660533
21
41.388790
0
LINE
8
annotation
62
1
39
211
10
114.660533
20
41.388790
11
114.581736
21
41.554535
0
LINE
8
annotation
62
1
39
211
10
114.581736
20
41.554535
11
114.476620
21
41.703149
0
LINE
8
annotation
62
1
39
211
10
114.476620
20
41.703149
11
114.348187
21
41.831581
0
LINE
8
annotation
62
1
39
211
10
114.348187
20
41.831581
11
114.199435
21
41.936781
0
LINE
8
annotation
62
1
39
211
10
114.199435
20
41.936781
11
114.033365
21
42.015700
0
LINE
8
annotation
62
1
39
211
10
114.033365
20
42.015700
11
113.852978
21
42.065288
0
LINE
8
annotation
62
1
39
211
10
113.852978
20
42.065288
11
113.661274
21
42.082495
0
LINE
8
annotation
62
1
39
211
10
113.661274
20
42.082495
11
113.127573
21
42.082495
0
LINE
8
annotation
62
1
39
211
10
113.127573
20
42.082495
11
113.661274
21
42.082495
0
LINE
8
annotation
62
1
39
211
10
113.661274
20
42.082495
11
113.661274
21
42.082495
0
LINE
8
annotation
62
1
39
211
10
113.661274
20
42.082495
11
113.852978
21
42.099706
0
LINE
8
annotation
62
1
39
211
10
113.852978
20
42.099706
11
114.033365
21
42.149323
0
LINE
8
annotation
62
1
39
211
10
114.033365
20
42.149323
11
114.199435
21
42.228320
0
LINE
8
annotation
62
1
39
211
10
114.199435
20
42.228320
11
114.348187
21
42.333674
0
LINE
8
annotation
62
1
39
211
10
114.348187
20
42.333674
11
114.476620
21
42.462357
0
LINE
8
annotation
62
1
39
211
10
114.476620
20
42.462357
11
114.581736
21
42.611347
0
LINE
8
annotation
62
1
39
211
10
114.581736
20
42.611347
11
114.660533
21
42.777616
0
LINE
8
annotation
62
1
39
211
10
114.660533
20
42.777616
11
114.710012
21
42.958142
0
LINE
8
annotation
62
1
39
211
10
114.710012
20
42.958142
11
114.727171
21
43.149897
0
LINE
8
annotation
62
1
39
211
10
114.727171
20
43.149897
11
114.727171
21
43.149897
0
LINE
8
annotation
62
1
39
211
10
114.727171
20
43.149897
11
114.710012
21
43.340757
0
LINE
8
annotation
62
1
39
211
10
114.710012
20
43.340757
11
114.660533
21
43.520585
0
LINE
8
annotation
62
1
39
211
10
114.660533
20
43.520585
11
114.581736
21
43.686330
0
LINE
8
annotation
62
1
39
211
10
114.581736
20
43.686330
11
114.476620
21
43.834944
0
LINE
8
annotation
62
1
39
211
10
114.476620
20
43.834944
11
114.348187
21
43.963375
0
LINE
8
annotation
62
1
39
211
10
114.348187
20
43.963375
11
114.199435
21
44.068576
0
LINE
8
annotation
62
1
39
211
10
114.199435
20
44.068576
11
114.033365
21
44.147495
0
LINE
8
annotation
62
1
39
211
10
114.033365
20
44.147495
11
113.852978
21
44.197083
0
LINE
8
annotation
62
1
39
211
10
113.852978
20
44.197083
11
113.661274
21
44.214290
0
LINE
8
annotation
62
1
39
211
10
113.661274
20
44.214290
11
112.595377
21
44.214290
0
LINE
8
annotation
62
1
39
211
10
114.993871
20
56.579903
11
112.328676
21
56.579903
0
LINE
8
annotation
62
1
39
211
10
112.328676
20
56.579903
11
113.393068
21
60.312802
0
LINE
8
annotation
62
1
39
211
10
114.194975
20
55.512802
11
114.194975
21
57.644597
0
LINE
8
annotation
62
1
39
211
10
112.595376
20
71.605745
11
113.661274
21
71.605745
0
LINE
8
annotation
62
1
39
211
10
113.661274
20
71.605745
11
113.661274
21
71.605745
0
LINE
8
annotation
62
1
39
211
10
113.661274
20
71.605745
11
113.852581
21
71.622946
0
LINE
8
annotation
62
1
39
211
10
113.852581
20
71.622946
11
114.032758
21
71.672535
0
LINE
8
annotation
62
1
39
211
10
114.032758
20
71.672535
11
114.198766
21
71.751493
0
LINE
8
annotation
62
1
39
211
10
114.198766
20
71.751493
11
114.347567
21
71.856798
0
LINE
8
annotation
62
1
39
211
10
114.347567
20
71.856798
11
114.476125
21
71.985432
0
LINE
8
annotation
62
1
39
211
10
114.476125
20
71.985432
11
114.581401
21
72.134374
0
LINE
8
annotation
62
1
39
211
10
114.581401
20
72.134374
11
114.660360
21
72.300604
0
LINE
8
annotation
62
1
39
211
10
114.660360
20
72.300604
11
114.709962
21
72.481101
0
LINE
8
annotation
62
1
39
211
10
114.709962
20
72.481101
11
114.727171
21
72.672847
0
LINE
8
annotation
62
1
39
211
10
114.727171
20
72.672847
11
114.727171
21
73.203839
0
LINE
8
annotation
62
1
39
211
10
114.727171
20
73.203839
11
114.727171
21
73.203839
0
LINE
8
annotation
62
1
39
211
10
114.727171
20
73.203839
11
114.709972
21
73.395491
0
LINE
8
annotation
62
1
39
211
10
114.709972
20
73.395491
11
114.660394
21
73.575740
0
LINE
8
annotation
62
1
39
211
10
114.660394
20
73.575740
11
114.581468
21
73.741609
0
LINE
8
annotation
62
1
39
211
10
114.581468
20
73.741609
11
114.476224
21
73.890124
0
LINE
8
annotation
62
1
39
211
10
114.476224
20
73.890124
11
114.347691
21
74.018308
0
LINE
8
annotation
62
1
39
211
10
114.347691
20
74.018308
11
114.198899
21
74.123186
0
LINE
8
annotation
62
1
39
211
10
114.198899
20
74.123186
11
114.032879
21
74.201783
0
LINE
8
annotation
62
1
39
211
10
114.032879
20
74.201783
11
113.852661
21
74.251123
0
LINE
8
annotation
62
1
39
211
10
113.852661
20
74.251123
11
113.661274
21
74.268231
0
LINE
8
annotation
62
1
39
211
10
113.661274
20
74.268231
11
112.595376
21
74.268231
0
LINE
8
annotation
62
1
39
211
10
112.595376
20
74.268231
11
112.595376
21
76.405745
0
LINE
8
annotation
62
1
39
211
10
112.595376
20
76.405745
11
114.727171
21
76.405745
0
LINE
8
annotation
62
1
39
211
10
114.196480
20
92.498689
11
114.196480
21
92.498689
0
LINE
8
annotation
62
1
39
211
10
114.196480
20
92.498689
11
113.891127
21
92.384200
0
LINE
8
annotation
62
1
39
211
10
113.891127
20
92.384200
11
113.610926
21
92.229940
0
LINE
8
annotation
62
1
39
211
10
113.610926
20
92.229940
11
113.358753
21
92.039773
0
LINE
8
annotation
62
1
39
211
10
113.358753
20
92.039773
11
113.137484
21
91.817565
0
LINE
8
annotation
62
1
39
211
10
113.137484
20
91.817565
11
112.949996
21
91.567181
0
LINE
8
annotation
62
1
39
211
10
112.949996
20
91.567181
11
112.799164
21
91.292484
0
LINE
8
annotation
62
1
39
211
10
112.799164
20
91.292484
11
112.687866
21
90.997341
0
LINE
8
annotation
62
1
39
211
10
112.687866
20
90.997341
11
112.618978
21
90.685616
0
LINE
8
annotation
62
1
39
211
10
112.618978
20
90.685616
11
112.595377
21
90.361174
0
LINE
8
annotation
62
1
39
211
10
112.595377
20
90.361174
11
112.595377
21
88.765790
0
LINE
8
annotation
62
1
39
211
10
112.595377
20
88.765790
11
112.595377
21
88.765790
0
LINE
8
annotation
62
1
39
211
10
112.595377
20
88.765790
11
112.612586
21
88.574045
0
LINE
8
annotation
62
1
39
211
10
112.612586
20
88.574045
11
112.662188
21
88.393547
0
LINE
8
annotation
62
1
39
211
10
112.662188
20
88.393547
11
112.741146
21
88.227317
0
LINE
8
annotation
62
1
39
211
10
112.741146
20
88.227317
11
112.846423
21
88.078375
0
LINE
8
annotation
62
1
39
211
10
112.846423
20
88.078375
11
112.974981
21
87.949742
0
LINE
8
annotation
62
1
39
211
10
112.974981
20
87.949742
11
113.123782
21
87.844436
0
LINE
8
annotation
62
1
39
211
10
113.123782
20
87.844436
11
113.289790
21
87.765479
0
LINE
8
annotation
62
1
39
211
10
113.289790
20
87.765479
11
113.469966
21
87.715889
0
LINE
8
annotation
62
1
39
211
10
113.469966
20
87.715889
11
113.661274
21
87.698689
0
LINE
8
annotation
62
1
39
211
10
113.661274
20
87.698689
11
113.661274
21
87.698689
0
LINE
8
annotation
62
1
39
211
10
113.661274
20
87.698689
11
113.852978
21
87.715889
0
LINE
8
annotation
62
1
39
211
10
113.852978
20
87.715889
11
114.033365
21
87.765479
0
LINE
8
annotation
62
1
39
211
10
114.033365
20
87.765479
11
114.199435
21
87.844436
0
LINE
8
annotation
62
1
39
211
10
114.199435
20
87.844436
11
114.348187
21
87.949742
0
LINE
8
annotation
62
1
39
211
10
114.348187
20
87.949742
11
114.476620
21
88.078375
0
LINE
8
annotation
62
1
39
211
10
114.476620
20
88.078375
11
114.581736
21
88.227317
0
LINE
8
annotation
62
1
39
211
10
114.581736
20
88.227317
11
114.660533
21
88.393547
0
LINE
8
annotation
62
1
39
211
10
114.660533
20
88.393547
11
114.710012
21
88.574045
0
LINE
8
annotation
62
1
39
211
10
114.710012
20
88.574045
11
114.727171
21
88.765790
0
LINE
8
annotation
62
1
39
211
10
114.727171
20
88.765790
11
114.727171
21
89.296782
0
LINE
8
annotation
62
1
39
211
10
114.727171
20
89.296782
11
114.727171
21
89.296782
0
LINE
8
annotation
62
1
39
211
10
114.727171
20
89.296782
11
114.710012
21
89.488435
0
LINE
8
annotation
62
1
39
211
10
114.710012
20
89.488435
11
114.660533
21
89.668683
0
LINE
8
annotation
62
1
39
211
10
114.660533
20
89.668683
11
114.581736
21
89.834553
0
LINE
8
annotation
62
1
39
211
10
114.581736
20
89.834553
11
114.476620
21
89.983067
0
LINE
8
annotation
62
1
39
211
10
114.476620
20
89.983067
11
114.348187
21
90.111251
0
LINE
8
annotation
62
1
39
211
10
114.348187
20
90.111251
11
114.199435
21
90.216129
0
LINE
8
annotation
62
1
39
211
10
114.199435
20
90.216129
11
114.033365
21
90.294726
0
LINE
8
annotation
62
1
39
211
10
114.033365
20
90.294726
11
113.852978
21
90.344067
0
LINE
8
annotation
62
1
39
211
10
113.852978
20
90.344067
11
113.661274
21
90.361174
0
LINE
8
annotation
62
1
39
211
10
113.661274
20
90.361174
11
112.595377
21
90.361174
0
LINE
8
annotation
62
1
39
211
10
112.461876
20
87.098689
11
114.861876
21
87.098689
0
LINE
8
annotation
62
1
39
211
10
113.661274
20
97.951235
11
114.728375
21
102.751235
0
LINE
8
annotation
62
1
39
211
10
114.728375
20
102.751235
11
112.593871
21
102.751235
0
LINE
8
annotation
62
1
39
211
10
114.728375
20
100.613721
11
113.661274
21
100.613721
0
LINE
8
annotation
62
1
39
211
10
119.219007
20
112.397861
11
119.219007
21
112.397861
0
LINE
8
annotation
62
1
39
211
10
119.219007
20
112.397861
11
119.236216
21
112.206209
0
LINE
8
annotation
62
1
39
211
10
119.236216
20
112.206209
11
119.285818
21
112.025960
0
LINE
8
annotation
62
1
39
211
10
119.285818
20
112.025960
11
119.364776
21
111.860091
0
LINE
8
annotation
62
1
39
211
10
119.364776
20
111.860091
11
119.470053
21
111.711576
0
LINE
8
annotation
62
1
39
211
10
119.470053
20
111.711576
11
119.598611
21
111.583392
0
LINE
8
annotation
62
1
39
211
10
119.598611
20
111.583392
11
119.747412
21
111.478514
0
LINE
8
annotation
62
1
39
211
10
119.747412
20
111.478514
11
119.913420
21
111.399917
0
LINE
8
annotation
62
1
39
211
10
119.913420
20
111.399917
11
120.093596
21
111.350577
0
LINE
8
annotation
62
1
39
211
10
120.093596
20
111.350577
11
120.284904
21
111.333469
0
LINE
8
annotation
62
1
39
211
10
120.284904
20
111.333469
11
120.284904
21
111.333469
0
LINE
8
annotation
62
1
39
211
10
120.284904
20
111.333469
11
120.476212
21
111.350577
0
LINE
8
annotation
62
1
39
211
10
120.476212
20
111.350577
11
120.656388
21
111.399917
0
LINE
8
annotation
62
1
39
211
10
120.656388
20
111.399917
11
120.822396
21
111.478514
0
LINE
8
annotation
62
1
39
211
10
120.822396
20
111.478514
11
120.971197
21
111.583392
0
LINE
8
annotation
62
1
39
211
10
120.971197
20
111.583392
11
121.099755
21
111.711576
0
LINE
8
annotation
62
1
39
211
10
121.099755
20
111.711576
11
121.205032
21
111.860091
0
LINE
8
annotation
62
1
39
211
10
121.205032
20
111.860091
11
121.283990
21
112.025960
0
LINE
8
annotation
62
1
39
211
10
121.283990
20
112.025960
11
121.333592
21
112.206209
0
LINE
8
annotation
62
1
39
211
10
121.333592
20
112.206209
11
121.350801
21
112.397861
0
LINE
8
annotation
62
1
39
211
10
121.350801
20
112.397861
11
121.350801
21
112.928853
0
LINE
8
annotation
62
1
39
211
10
121.350801
20
112.928853
11
121.350801
21
112.928853
0
LINE
8
annotation
62
1
39
211
10
121.350801
20
112.928853
11
121.333602
21
113.120599
0
LINE
8
annotation
62
1
39
211
10
121.333602
20
113.120599
11
121.284025
21
113.301096
0
LINE
8
annotation
62
1
39
211
10
121.284025
20
113.301096
11
121.205099
21
113.467326
0
LINE
8
annotation
62
1
39
211
10
121.205099
20
113.467326
11
121.099854
21
113.616268
0
LINE
8
annotation
62
1
39
211
10
121.099854
20
113.616268
11
120.971321
21
113.744902
0
LINE
8
annotation
62
1
39
211
10
120.971321
20
113.744902
11
120.822530
21
113.850207
0
LINE
8
annotation
62
1
39
211
10
120.822530
20
113.850207
11
120.656510
21
113.929165
0
LINE
8
annotation
62
1
39
211
10
120.656510
20
113.929165
11
120.476291
21
113.978754
0
LINE
8
annotation
62
1
39
211
10
120.476291
20
113.978754
11
120.284904
21
113.995955
0
LINE
8
annotation
62
1
39
211
10
120.284904
20
113.995955
11
120.284904
21
113.995955
0
LINE
8
annotation
62
1
39
211
10
120.284904
20
113.995955
11
120.093517
21
113.978744
0
LINE
8
annotation
62
1
39
211
10
120.093517
20
113.978744
11
119.913298
21
113.929130
0
LINE
8
annotation
62
1
39
211
10
119.913298
20
113.929130
11
119.747278
21
113.850140
0
LINE
8
annotation
62
1
39
211
10
119.747278
20
113.850140
11
119.598487
21
113.744803
0
LINE
8
annotation
62
1
39
211
10
119.598487
20
113.744803
11
119.469954
21
113.616144
0
LINE
8
annotation
62
1
39
211
10
119.469954
20
113.616144
11
119.364710
21
113.467192
0
LINE
8
annotation
62
1
39
211
10
119.364710
20
113.467192
11
119.285783
21
113.300975
0
LINE
8
annotation
62
1
39
211
10
119.285783
20
113.300975
11
119.236206
21
113.120519
0
LINE
8
annotation
62
1
39
211
10
119.236206
20
113.120519
11
119.219007
21
112.928853
0
LINE
8
annotation
62
1
39
211
10
119.219007
20
112.928853
11
119.219007
21
112.397861
0
LINE
8
annotation
62
1
39
211
10
121.350801
20
115.063357
11
121.350801
21
115.063357
0
LINE
8
annotation
62
1
39
211
10
121.350801
20
115.063357
11
121.333602
21
115.254217
0
LINE
8
annotation
62
1
39
211
10
121.333602
20
115.254217
11
121.284025
21
115.434044
0
LINE
8
annotation
62
1
39
211
10
121.284025
20
115.434044
11
121.205099
21
115.599790
0
LINE
8
annotation
62
1
39
211
10
121.205099
20
115.599790
11
121.099854
21
115.748403
0
LINE
8
annotation
62
1
39
211
10
121.099854
20
115.748403
11
120.971321
21
115.876835
0
LINE
8
annotation
62
1
39
211
10
120.971321
20
115.876835
11
120.822530
21
115.982035
0
LINE
8
annotation
62
1
39
211
10
120.822530
20
115.982035
11
120.656510
21
116.060955
0
LINE
8
annotation
62
1
39
211
10
120.656510
20
116.060955
11
120.476291
21
116.110542
0
LINE
8
annotation
62
1
39
211
10
120.476291
20
116.110542
11
120.284904
21
116.127749
0
LINE
8
annotation
62
1
39
211
10
120.284904
20
116.127749
11
120.284904
21
116.127749
0
LINE
8
annotation
62
1
39
211
10
120.284904
20
116.127749
11
120.093517
21
116.110542
0
LINE
8
annotation
62
1
39
211
10
120.093517
20
116.110542
11
119.913298
21
116.060955
0
LINE
8
annotation
62
1
39
211
10
119.913298
20
116.060955
11
119.747278
21
115.982035
0
LINE
8
annotation
62
1
39
211
10
119.747278
20
115.982035
11
119.598487
21
115.876835
0
LINE
8
annotation
62
1
39
211
10
119.598487
20
115.876835
11
119.469954
21
115.748403
0
LINE
8
annotation
62
1
39
211
10
119.469954
20
115.748403
11
119.364710
21
115.599790
0
LINE
8
annotation
62
1
39
211
10
119.364710
20
115.599790
11
119.285783
21
115.434044
0
LINE
8
annotation
62
1
39
211
10
119.285783
20
115.434044
11
119.236206
21
115.254217
0
LINE
8
annotation
62
1
39
211
10
119.236206
20
115.254217
11
119.219007
21
115.063357
0
LINE
8
annotation
62
1
39
211
10
119.219007
20
115.063357
11
119.219007
21
115.063357
0
LINE
8
annotation
62
1
39
211
10
119.219007
20
115.063357
11
119.236216
21
114.871601
0
LINE
8
annotation
62
1
39
211
10
119.236216
20
114.871601
11
119.285818
21
114.691076
0
LINE
8
annotation
62
1
39
211
10
119.285818
20
114.691076
11
119.364776
21
114.524806
0
LINE
8
annotation
62
1
39
211
10
119.364776
20
114.524806
11
119.470053
21
114.375817
0
LINE
8
annotation
62
1
39
211
10
119.470053
20
114.375817
11
119.598611
21
114.247133
0
LINE
8
annotation
62
1
39
211
10
119.598611
20
114.247133
11
119.747412
21
114.141780
0
LINE
8
annotation
62
1
39
211
10
119.747412
20
114.141780
11
119.913420
21
114.062783
0
LINE
8
annotation
62
1
39
211
10
119.913420
20
114.062783
11
120.093596
21
114.013166
0
LINE
8
annotation
62
1
39
211
10
120.093596
20
114.013166
11
120.284904
21
113.995955
0
LINE
8
annotation
62
1
39
211
10
120.284904
20
113.995955
11
120.284904
21
113.995955
0
LINE
8
annotation
62
1
39
211
10
120.284904
20
113.995955
11
120.476212
21
114.013166
0
LINE
8
annotation
62
1
39
211
10
120.476212
20
114.013166
11
120.656388
21
114.062783
0
LINE
8
annotation
62
1
39
211
10
120.656388
20
114.062783
11
120.822396
21
114.141780
0
LINE
8
annotation
62
1
39
211
10
120.822396
20
114.141780
11
120.971197
21
114.247133
0
LINE
8
annotation
62
1
39
211
10
120.971197
20
114.247133
11
121.099755
21
114.375817
0
LINE
8
annotation
62
1
39
211
10
121.099755
20
114.375817
11
121.205032
21
114.524806
0
LINE
8
annotation
62
1
39
211
10
121.205032
20
114.524806
11
121.283990
21
114.691076
0
LINE
8
annotation
62
1
39
211
10
121.283990
20
114.691076
11
121.333592
21
114.871601
0
LINE
8
annotation
62
1
39
211
10
121.333592
20
114.871601
11
121.350801
21
115.063357
0
LINE
8
annotation
62
1
39
211
10
142.516582
20
77.545199
11
137.421948
21
70.176278
0
LINE
8
annotation
62
1
39
211
10
137.421948
20
70.176278
11
132.326356
21
77.545199
0
LINE
8
annotation
62
1
39
211
10
137.421948
20
70.769278
11
137.421948
21
62.268003
0
LINE
8
annotation
62
1
39
211
10
156.599872
20
69.906601
11
148.247087
21
69.906601
0
LINE
8
annotation
62
1
39
211
10
162.327024
20
65.655485
11
162.327024
21
65.655485
0
LINE
8
annotation
62
1
39
211
10
162.327024
20
65.655485
11
162.381793
21
65.045541
0
LINE
8
annotation
62
1
39
211
10
162.381793
20
65.045541
11
162.539655
21
64.471890
0
LINE
8
annotation
62
1
39
211
10
162.539655
20
64.471890
11
162.790944
21
63.944003
0
LINE
8
annotation
62
1
39
211
10
162.790944
20
63.944003
11
163.125992
21
63.471349
0
LINE
8
annotation
62
1
39
211
10
163.125992
20
63.471349
11
163.535134
21
63.063397
0
LINE
8
annotation
62
1
39
211
10
163.535134
20
63.063397
11
164.008701
21
62.729616
0
LINE
8
annotation
62
1
39
211
10
164.008701
20
62.729616
11
164.537029
21
62.479478
0
LINE
8
annotation
62
1
39
211
10
164.537029
20
62.479478
11
165.110449
21
62.322450
0
LINE
8
annotation
62
1
39
211
10
165.110449
20
62.322450
11
165.719296
21
62.268003
0
LINE
8
annotation
62
1
39
211
10
165.719296
20
62.268003
11
165.719296
21
62.268003
0
LINE
8
annotation
62
1
39
211
10
165.719296
20
62.268003
11
166.328142
21
62.322450
0
LINE
8
annotation
62
1
39
211
10
166.328142
20
62.322450
11
166.901563
21
62.479478
0
LINE
8
annotation
62
1
39
211
10
166.901563
20
62.479478
11
167.429890
21
62.729616
0
LINE
8
annotation
62
1
39
211
10
167.429890
20
62.729616
11
167.903458
21
63.063397
0
LINE
8
annotation
62
1
39
211
10
167.903458
20
63.063397
11
168.312599
21
63.471349
0
LINE
8
annotation
62
1
39
211
10
168.312599
20
63.471349
11
168.647648
21
63.944003
0
LINE
8
annotation
62
1
39
211
10
168.647648
20
63.944003
11
168.898936
21
64.471890
0
LINE
8
annotation
62
1
39
211
10
168.898936
20
64.471890
11
169.056798
21
65.045541
0
LINE
8
annotation
62
1
39
211
10
169.056798
20
65.045541
11
169.111567
21
65.655485
0
LINE
8
annotation
62
1
39
211
10
169.111567
20
65.655485
11
169.111567
21
67.345393
0
LINE
8
annotation
62
1
39
211
10
169.111567
20
67.345393
11
169.111567
21
67.345393
0
LINE
8
annotation
62
1
39
211
10
169.111567
20
67.345393
11
169.056830
21
67.955633
0
LINE
8
annotation
62
1
39
211
10
169.056830
20
67.955633
11
168.899046
21
68.530075
0
LINE
8
annotation
62
1
39
211
10
168.899046
20
68.530075
11
168.647860
21
69.059110
0
LINE
8
annotation
62
1
39
211
10
168.647860
20
69.059110
11
168.312915
21
69.533124
0
LINE
8
annotation
62
1
39
211
10
168.312915
20
69.533124
11
167.903852
21
69.942508
0
LINE
8
annotation
62
1
39
211
10
167.903852
20
69.942508
11
167.430316
21
70.277648
0
LINE
8
annotation
62
1
39
211
10
167.430316
20
70.277648
11
166.901949
21
70.528934
0
LINE
8
annotation
62
1
39
211
10
166.901949
20
70.528934
11
166.328395
21
70.686754
0
LINE
8
annotation
62
1
39
211
10
166.328395
20
70.686754
11
165.719296
21
70.741496
0
LINE
8
annotation
62
1
39
211
10
165.719296
20
70.741496
11
165.719296
21
70.741496
0
LINE
8
annotation
62
1
39
211
10
165.719296
20
70.741496
11
165.110197
21
70.686722
0
LINE
8
annotation
62
1
39
211
10
165.110197
20
70.686722
11
164.536642
21
70.528823
0
LINE
8
annotation
62
1
39
211
10
164.536642
20
70.528823
11
164.008276
21
70.277435
0
LINE
8
annotation
62
1
39
211
10
164.008276
20
70.277435
11
163.534739
21
69.942192
0
LINE
8
annotation
62
1
39
211
10
163.534739
20
69.942192
11
163.125677
21
69.532730
0
LINE
8
annotation
62
1
39
211
10
163.125677
20
69.532730
11
162.790731
21
69.058684
0
LINE
8
annotation
62
1
39
211
10
162.790731
20
69.058684
11
162.539545
21
68.529689
0
LINE
8
annotation
62
1
39
211
10
162.539545
20
68.529689
11
162.381762
21
67.955380
0
LINE
8
annotation
62
1
39
211
10
162.381762
20
67.955380
11
162.327024
21
67.345393
0
LINE
8
annotation
62
1
39
211
10
162.327024
20
67.345393
11
162.327024
21
65.655485
0
LINE
8
annotation
62
1
39
211
10
169.111567
20
74.138558
11
169.111567
21
74.138558
0
LINE
8
annotation
62
1
39
211
10
169.111567
20
74.138558
11
169.056830
21
74.745978
0
LINE
8
annotation
62
1
39
211
10
169.056830
20
74.745978
11
168.899046
21
75.318288
0
LINE
8
annotation
62
1
39
211
10
168.899046
20
75.318288
11
168.647860
21
75.845781
0
LINE
8
annotation
62
1
39
211
10
168.647860
20
75.845781
11
168.312915
21
76.318751
0
LINE
8
annotation
62
1
39
211
10
168.312915
20
76.318751
11
167.903852
21
76.727492
0
LINE
8
annotation
62
1
39
211
10
167.903852
20
76.727492
11
167.430316
21
77.062297
0
LINE
8
annotation
62
1
39
211
10
167.430316
20
77.062297
11
166.901949
21
77.313461
0
LINE
8
annotation
62
1
39
211
10
166.901949
20
77.313461
11
166.328395
21
77.471277
0
LINE
8
annotation
62
1
39
211
10
166.328395
20
77.471277
11
165.719296
21
77.526039
0
LINE
8
annotation
62
1
39
211
10
165.719296
20
77.526039
11
165.719296
21
77.526039
0
LINE
8
annotation
62
1
39
211
10
165.719296
20
77.526039
11
165.110197
21
77.471277
0
LINE
8
annotation
62
1
39
211
10
165.110197
20
77.471277
11
164.536642
21
77.313461
0
LINE
8
annotation
62
1
39
211
10
164.536642
20
77.313461
11
164.008276
21
77.062297
0
LINE
8
annotation
62
1
39
211
10
164.008276
20
77.062297
11
163.534739
21
76.727492
0
LINE
8
annotation
62
1
39
211
10
163.534739
20
76.727492
11
163.125677
21
76.318751
0
LINE
8
annotation
62
1
39
211
10
163.125677
20
76.318751
11
162.790731
21
75.845781
0
LINE
8
annotation
62
1
39
211
10
162.790731
20
75.845781
11
162.539545
21
75.318288
0
LINE
8
annotation
62
1
39
211
10
162.539545
20
75.318288
11
162.381762
21
74.745978
0
LINE
8
annotation
62
1
39
211
10
162.381762
20
74.745978
11
162.327024
21
74.138558
0
LINE
8
annotation
62
1
39
211
10
162.327024
20
74.138558
11
162.327024
21
74.138558
0
LINE
8
annotation
62
1
39
211
10
162.327024
20
74.138558
11
162.381793
21
73.528285
0
LINE
8
annotation
62
1
39
211
10
162.381793
20
73.528285
11
162.539655
21
72.953754
0
LINE
8
annotation
62
1
39
211
10
162.539655
20
72.953754
11
162.790944
21
72.424593
0
LINE
8
annotation
62
1
39
211
10
162.790944
20
72.424593
11
163.125992
21
71.950427
0
LINE
8
annotation
62
1
39
211
10
163.125992
20
71.950427
11
163.535134
21
71.540885
0
LINE
8
annotation
62
1
39
211
10
163.535134
20
71.540885
11
164.008701
21
71.205593
0
LINE
8
annotation
62
1
39
211
10
164.008701
20
71.205593
11
164.537029
21
70.954180
0
LINE
8
annotation
62
1
39
211
10
164.537029
20
70.954180
11
165.110449
21
70.796272
0
LINE
8
annotation
62
1
39
211
10
165.110449
20
70.796272
11
165.719296
21
70.741496
0
LINE
8
annotation
62
1
39
211
10
165.719296
20
70.741496
11
165.719296
21
70.741496
0
LINE
8
annotation
62
1
39
211
10
165.719296
20
70.741496
11
166.328142
21
70.796272
0
LINE
8
annotation
62
1
39
211
10
166.328142
20
70.796272
11
166.901563
21
70.954180
0
LINE
8
annotation
62
1
39
211
10
166.901563
20
70.954180
11
167.429890
21
71.205593
0
LINE
8
annotation
62
1
39
211
10
167.429890
20
71.205593
11
167.903458
21
71.540885
0
LINE
8
annotation
62
1
39
211
10
167.903458
20
71.540885
11
168.312599
21
71.950427
0
LINE
8
annotation
62
1
39
211
10
168.312599
20
71.950427
11
168.647648
21
72.424593
0
LINE
8
annotation
62
1
39
211
10
168.647648
20
72.424593
11
168.898936
21
72.953754
0
LINE
8
annotation
62
1
39
211
10
168.898936
20
72.953754
11
169.056798
21
73.528285
0
LINE
8
annotation
62
1
39
211
10
169.056798
20
73.528285
11
169.111567
21
74.138558
0
LINE
8
annotation
62
1
39
211
10
183.194378
20
69.906601
11
174.841593
21
69.906601
0
LINE
8
annotation
62
1
39
211
10
195.707226
20
62.268358
11
188.922684
21
62.268358
0
LINE
8
annotation
62
1
39
211
10
188.922684
20
62.268358
11
195.191823
21
72.360868
0
LINE
8
annotation
62
1
39
211
10
195.191823
20
72.360868
11
195.191823
21
72.360868
0
LINE
8
annotation
62
1
39
211
10
195.191823
20
72.360868
11
195.199318
21
72.370142
0
LINE
8
annotation
62
1
39
211
10
195.199318
20
72.370142
11
195.206505
21
72.379494
0
LINE
8
annotation
62
1
39
211
10
195.206505
20
72.379494
11
195.213431
21
72.389005
0
LINE
8
annotation
62
1
39
211
10
195.213431
20
72.389005
11
195.220145
21
72.398752
0
LINE
8
annotation
62
1
39
211
10
195.220145
20
72.398752
11
195.226694
21
72.408814
0
LINE
8
annotation
62
1
39
211
10
195.226694
20
72.408814
11
195.233124
21
72.419270
0
LINE
8
annotation
62
1
39
211
10
195.233124
20
72.419270
11
195.239483
21
72.430200
0
LINE
8
annotation
62
1
39
211
10
195.239483
20
72.430200
11
195.245818
21
72.441682
0
LINE
8
annotation
62
1
39
211
10
195.245818
20
72.441682
11
195.252177
21
72.453794
0
LINE
8
annotation
62
1
39
211
10
195.252177
20
72.453794
11
195.252177
21
72.453794
0
LINE
8
annotation
62
1
39
211
10
195.252177
20
72.453794
11
195.511028
21
73.009569
0
LINE
8
annotation
62
1
39
211
10
195.511028
20
73.009569
11
195.662245
21
73.585680
0
LINE
8
annotation
62
1
39
211
10
195.662245
20
73.585680
11
195.709532
21
74.169107
0
LINE
8
annotation
62
1
39
211
10
195.709532
20
74.169107
11
195.656597
21
74.746834
0
LINE
8
annotation
62
1
39
211
10
195.656597
20
74.746834
11
195.507144
21
75.305842
0
LINE
8
annotation
62
1
39
211
10
195.507144
20
75.305842
11
195.264879
21
75.833114
0
LINE
8
annotation
62
1
39
211
10
195.264879
20
75.833114
11
194.933509
21
76.315633
0
LINE
8
annotation
62
1
39
211
10
194.933509
20
76.315633
11
194.516739
21
76.740379
0
LINE
8
annotation
62
1
39
211
10
194.516739
20
76.740379
11
194.018276
21
77.094337
0
LINE
8
annotation
62
1
39
211
10
194.018276
20
77.094337
11
194.018276
21
77.094337
0
LINE
8
annotation
62
1
39
211
10
194.018276
20
77.094337
11
193.460955
21
77.349510
0
LINE
8
annotation
62
1
39
211
10
193.460955
20
77.349510
11
192.883961
21
77.498396
0
LINE
8
annotation
62
1
39
211
10
192.883961
20
77.498396
11
192.300195
21
77.544347
0
LINE
8
annotation
62
1
39
211
10
192.300195
20
77.544347
11
191.722555
21
77.490714
0
LINE
8
annotation
62
1
39
211
10
191.722555
20
77.490714
11
191.163941
21
77.340847
0
LINE
8
annotation
62
1
39
211
10
191.163941
20
77.340847
11
190.637252
21
77.098098
0
LINE
8
annotation
62
1
39
211
10
190.637252
20
77.098098
11
190.155388
21
76.765817
0
LINE
8
annotation
62
1
39
211
10
190.155388
20
76.765817
11
189.731249
21
76.347356
0
LINE
8
annotation
62
1
39
211
10
189.731249
20
76.347356
11
189.377733
21
75.846065
0
LINE
8
annotation
62
1
39
211
10
189.377733
20
75.846065
11
188.932264
21
74.991531
0
LINE
8
boundary
62
5
39
2
10
352.977000
20
35.518761
11
354.293131
21
36.615175
0
LINE
8
boundary
62
5
39
2
10
354.293131
20
36.615175
11
355.553658
21
37.778331
0
LINE
8
boundary
62
5
39
2
10
355.553658
20
37.778331
11
359.215207
21
41.332929
0
LINE
8
boundary
62
5
39
2
10
359.215207
20
41.332929
11
360.415171
21
42.558471
0
LINE
8
boundary
62
5
39
2
10
360.415171
20
42.558471
11
361.550066
21
43.841566
0
LINE
8
boundary
62
5
39
2
10
361.550066
20
43.841566
11
364.911472
21
47.681230
0
LINE
8
boundary
62
5
39
2
10
364.911472
20
47.681230
11
365.977324
21
49.016624
0
LINE
8
boundary
62
5
39
2
10
365.977324
20
49.016624
11
369.016481
21
53.116090
0
LINE
8
boundary
62
5
39
2
10
369.016481
20
53.116090
11
370.009877
21
54.498186
0
LINE
8
boundary
62
5
39
2
10
370.009877
20
54.498186
11
370.928010
21
55.921116
0
LINE
8
boundary
62
5
39
2
10
370.928010
20
55.921116
11
373.624920
21
60.253413
0
LINE
8
boundary
62
5
39
2
10
373.624920
20
60.253413
11
374.465601
21
61.711119
0
LINE
8
boundary
62
5
39
2
10
374.465601
20
61.711119
11
376.802509
21
66.247741
0
LINE
8
boundary
62
5
39
2
10
376.802509
20
66.247741
11
377.564194
21
67.734058
0
LINE
8
boundary
62
5
39
2
10
377.564194
20
67.734058
11
378.245961
21
69.242789
0
LINE
8
boundary
62
5
39
2
10
378.245961
20
69.242789
11
380.207500
21
73.953887
0
LINE
8
boundary
62
5
39
2
10
380.207500
20
73.953887
11
380.809041
21
75.478885
0
LINE
8
boundary
62
5
39
2
10
380.809041
20
75.478885
11
381.330657
21
77.014121
0
LINE
8
boundary
62
5
39
2
10
381.330657
20
77.014121
11
382.903923
21
81.868699
0
LINE
8
boundary
62
5
39
2
10
382.903923
20
81.868699
11
383.346458
21
83.408331
0
LINE
8
boundary
62
5
39
2
10
383.346458
20
83.408331
11
383.711283
21
84.946760
0
LINE
8
boundary
62
5
39
2
10
383.711283
20
84.946760
11
384.885925
21
89.912877
0
LINE
8
boundary
62
5
39
2
10
384.885925
20
89.912877
11
385.174882
21
91.444799
0
LINE
8
boundary
62
5
39
2
10
385.174882
20
91.444799
11
385.943162
21
96.489781
0
LINE
8
boundary
62
5
39
2
10
385.943162
20
96.489781
11
386.158508
21
98.010226
0
LINE
8
boundary
62
5
39
2
10
386.158508
20
98.010226
11
386.302862
21
99.514591
0
LINE
8
boundary
62
5
39
2
10
386.302862
20
99.514591
11
386.659735
21
104.605242
0
LINE
8
boundary
62
5
39
2
10
386.659735
20
104.605242
11
386.733452
21
106.089393
0
LINE
8
boundary
62
5
39
2
10
386.733452
20
106.089393
11
386.194651
21
106.105132
0
LINE
8
boundary
62
5
39
2
10
386.194651
20
106.105132
11
327.933341
21
107.806957
0
LINE
8
boundary
62
5
39
2
10
327.933341
20
107.806957
11
327.118167
21
107.830768
0
LINE
8
boundary
62
5
39
2
10
327.118167
20
107.830768
11
326.546576
21
106.711761
0
LINE
8
boundary
62
5
39
2
10
326.546576
20
106.711761
11
326.259932
21
103.671737
0
LINE
8
boundary
62
5
39
2
10
326.259932
20
103.671737
11
326.068306
21
102.514283
0
LINE
8
boundary
62
5
39
2
10
326.068306
20
102.514283
11
325.394550
21
99.536029
0
LINE
8
boundary
62
5
39
2
10
325.394550
20
99.536029
11
325.087997
21
98.368868
0
LINE
8
boundary
62
5
39
2
10
325.087997
20
98.368868
11
324.067561
21
95.581548
0
LINE
8
boundary
62
5
39
2
10
324.067561
20
95.581548
11
354.445463
21
95.431548
0
LINE
8
boundary
62
5
39
2
10
354.445463
20
95.431548
11
354.445463
21
92.531548
0
LINE
8
boundary
62
5
39
2
10
354.445463
20
92.531548
11
322.730823
21
92.531548
0
LINE
8
boundary
62
5
39
2
10
322.730823
20
92.531548
11
321.655722
21
90.496237
0
LINE
8
boundary
62
5
39
2
10
321.655722
20
90.496237
11
320.988380
21
89.404064
0
LINE
8
boundary
62
5
39
2
10
320.988380
20
89.404064
11
319.244430
21
86.897553
0
LINE
8
boundary
62
5
39
2
10
319.244430
20
86.897553
11
318.463181
21
85.867286
0
LINE
8
boundary
62
5
39
2
10
318.463181
20
85.867286
11
316.412498
21
83.604852
0
LINE
8
boundary
62
5
39
2
10
316.412498
20
83.604852
11
315.526755
21
82.653821
0
LINE
8
boundary
62
5
39
2
10
315.526755
20
82.653821
11
315.007948
21
82.199164
0
LINE
8
boundary
62
5
39
2
10
315.007948
20
82.199164
11
347.751549
21
82.049164
0
LINE
8
boundary
62
5
39
2
10
347.751549
20
82.049164
11
347.751548
21
79.149164
0
LINE
8
boundary
62
5
39
2
10
347.751548
20
79.149164
11
311.288439
21
79.149164
0
LINE
8
boundary
62
5
39
2
10
311.288439
20
79.149164
11
308.613984
21
77.399437
0
LINE
8
boundary
62
5
39
2
10
308.613984
20
77.399437
11
307.502111
21
76.765460
0
LINE
8
boundary
62
5
39
2
10
307.502111
20
76.765460
11
304.751330
21
75.439891
0
LINE
8
boundary
62
5
39
2
10
304.751330
20
75.439891
11
303.599672
21
74.926752
0
LINE
8
boundary
62
5
39
2
10
303.599672
20
74.926752
11
302.426941
21
74.535760
0
LINE
8
boundary
62
5
39
2
10
302.426941
20
74.535760
11
299.528996
21
73.573526
0
LINE
8
boundary
62
5
39
2
10
299.528996
20
73.573526
11
298.940374
21
73.423261
0
LINE
8
boundary
62
5
39
2
10
298.940374
20
73.423261
11
298.353094
21
73.302439
0
LINE
8
boundary
62
5
39
2
10
298.353094
20
73.302439
11
295.355769
21
72.719397
0
LINE
8
boundary
62
5
39
2
10
295.355769
20
72.719397
11
294.771811
21
72.627260
0
LINE
8
boundary
62
5
39
2
10
294.771811
20
72.627260
11
294.193044
21
72.562893
0
LINE
8
boundary
62
5
39
2
10
294.193044
20
72.562893
11
293.621177
21
72.525253
0
LINE
8
boundary
62
5
39
2
10
293.621177
20
72.525253
11
290.573841
21
72.331014
0
LINE
8
boundary
62
5
39
2
10
290.573841
20
72.331014
11
290.010430
21
72.316356
0
LINE
8
boundary
62
5
39
2
10
290.010430
20
72.316356
11
287.291467
21
72.316356
0
LINE
8
boundary
62
5
39
2
10
287.291467
20
72.316356
11
283.628818
21
72.316356
0
LINE
8
boundary
62
5
39
2
10
283.628818
20
72.316356
11
278.591996
21
72.316356
0
LINE
8
boundary
62
5
39
2
10
278.591996
20
72.316356
11
277.091115
21
72.316628
0
LINE
8
boundary
62
5
39
2
10
277.091115
20
72.316628
11
276.390461
21
72.316755
0
LINE
8
boundary
62
5
39
2
10
276.390461
20
72.316755
11
276.390457
21
84.232127
0
LINE
8
boundary
62
5
39
2
10
276.390457
20
84.232127
11
267.206505
21
84.232127
0
LINE
8
boundary
62
5
39
2
10
267.206505
20
84.232127
11
259.026631
21
84.232127
0
LINE
8
boundary
62
5
39
2
10
259.026631
20
84.232127
11
231.801673
21
84.232127
0
LINE
8
boundary
62
5
39
2
10
231.801673
20
84.232127
11
226.828597
21
84.232127
0
LINE
8
boundary
62
5
39
2
10
226.828597
20
84.232127
11
224.795635
21
82.199164
0
LINE
8
boundary
62
5
39
2
10
224.795635
20
82.199164
11
249.743047
21
82.049164
0
LINE
8
boundary
62
5
39
2
10
249.743047
20
82.049164
11
249.743047
21
79.149164
0
LINE
8
boundary
62
5
39
2
10
249.743047
20
79.149164
11
221.745638
21
79.149164
0
LINE
8
boundary
62
5
39
2
10
221.745638
20
79.149164
11
217.740594
21
75.144117
0
LINE
8
boundary
62
5
39
2
10
217.740594
20
75.144117
11
217.147329
21
74.550851
0
LINE
8
boundary
62
5
39
2
10
217.147329
20
74.550851
11
216.911252
21
71.946618
0
LINE
8
boundary
62
5
39
2
10
216.911252
20
71.946618
11
297.768432
21
71.796618
0
LINE
8
boundary
62
5
39
2
10
297.768432
20
71.796618
11
297.768432
21
68.896618
0
LINE
8
boundary
62
5
39
2
10
297.768432
20
68.896618
11
217.006252
21
68.896618
0
LINE
8
boundary
62
5
39
2
10
217.006252
20
68.896618
11
216.911252
21
55.853674
0
LINE
8
boundary
62
5
39
2
10
216.911252
20
55.853674
11
293.339998
21
55.703674
0
LINE
8
boundary
62
5
39
2
10
293.339998
20
55.703674
11
293.339998
21
52.803674
0
LINE
8
boundary
62
5
39
2
10
293.339998
20
52.803674
11
217.006252
21
52.803674
0
LINE
8
boundary
62
5
39
2
10
217.006252
20
52.803674
11
216.911252
21
39.760731
0
LINE
8
boundary
62
5
39
2
10
216.911252
20
39.760731
11
286.392577
21
39.610731
0
LINE
8
boundary
62
5
39
2
10
286.392577
20
39.610731
11
286.392577
21
36.710731
0
LINE
8
boundary
62
5
39
2
10
286.392577
20
36.710731
11
217.006252
21
36.710731
0
LINE
8
boundary
62
5
39
2
10
217.006252
20
36.710731
11
216.911252
21
23.667788
0
LINE
8
boundary
62
5
39
2
10
216.911252
20
23.667788
11
274.677469
21
23.517788
0
LINE
8
boundary
62
5
39
2
10
274.677469
20
23.517788
11
274.677469
21
20.617787
0
LINE
8
boundary
62
5
39
2
10
274.677469
20
20.617787
11
217.006252
21
20.617788
0
LINE
8
boundary
62
5
39
2
10
217.006252
20
20.617788
11
216.911252
21
18.578783
0
LINE
8
boundary
62
5
39
2
10
216.911252
20
18.578783
11
216.911252
21
11.504849
0
LINE
8
boundary
62
5
39
2
10
216.911252
20
11.504849
11
217.740594
21
10.675505
0
LINE
8
boundary
62
5
39
2
10
217.740594
20
10.675505
11
220.841254
21
7.574844
0
LINE
8
boundary
62
5
39
2
10
220.841254
20
7.574844
11
249.365856
21
7.424844
0
LINE
8
boundary
62
5
39
2
10
249.365856
20
7.424844
11
249.365856
21
4.524844
0
LINE
8
boundary
62
5
39
2
10
249.365856
20
4.524844
11
224.136253
21
4.524844
0
LINE
8
boundary
62
5
39
2
10
224.136253
20
4.524844
11
226.641136
21
1.774961
0
LINE
8
boundary
62
5
39
2
10
226.641136
20
1.774961
11
231.801673
21
1.587500
0
LINE
8
boundary
62
5
39
2
10
231.801673
20
1.587500
11
259.026631
21
1.587500
0
LINE
8
boundary
62
5
39
2
10
259.026631
20
1.587500
11
267.206505
21
1.587500
0
LINE
8
boundary
62
5
39
2
10
267.206505
20
1.587500
11
276.390457
21
1.587500
0
LINE
8
boundary
62
5
39
2
10
276.390457
20
1.587500
11
276.390459
21
11.933187
0
LINE
8
boundary
62
5
39
2
10
276.390459
20
11.933187
11
277.091115
21
12.190206
0
LINE
8
boundary
62
5
39
2
10
277.091115
20
12.190206
11
278.591995
21
12.190478
0
LINE
8
boundary
62
5
39
2
10
278.591995
20
12.190478
11
283.628818
21
12.190478
0
LINE
8
boundary
62
5
39
2
10
283.628818
20
12.190478
11
287.291467
21
12.190478
0
LINE
8
boundary
62
5
39
2
10
287.291467
20
12.190478
11
290.010430
21
12.190478
0
LINE
8
boundary
62
5
39
2
10
290.010430
20
12.190478
11
291.496119
21
12.220227
0
LINE
8
boundary
62
5
39
2
10
291.496119
20
12.220227
11
296.595115
21
12.426084
0
LINE
8
boundary
62
5
39
2
10
296.595115
20
12.426084
11
298.103095
21
12.525843
0
LINE
8
boundary
62
5
39
2
10
298.103095
20
12.525843
11
299.629245
21
12.696082
0
LINE
8
boundary
62
5
39
2
10
299.629245
20
12.696082
11
304.694778
21
13.314516
0
LINE
8
boundary
62
5
39
2
10
304.694778
20
13.314516
11
306.234584
21
13.557995
0
LINE
8
boundary
62
5
39
2
10
306.234584
20
13.557995
11
311.233327
21
14.584952
0
LINE
8
boundary
62
5
39
2
10
311.233327
20
14.584952
11
312.781882
21
14.904076
0
LINE
8
boundary
62
5
39
2
10
312.781882
20
14.904076
11
314.333938
21
15.300838
0
LINE
8
boundary
62
5
39
2
10
314.333938
20
15.300838
11
319.233012
21
16.729548
0
LINE
8
boundary
62
5
39
2
10
319.233012
20
16.729548
11
320.783017
21
17.205485
0
LINE
8
boundary
62
5
39
2
10
320.783017
20
17.205485
11
322.325154
21
17.761621
0
LINE
8
boundary
62
5
39
2
10
322.325154
20
17.761621
11
327.092312
21
19.582686
0
LINE
8
boundary
62
5
39
2
10
327.092312
20
19.582686
11
328.620565
21
20.219489
0
LINE
8
boundary
62
5
39
2
10
328.620565
20
20.219489
11
330.128781
21
20.936840
0
LINE
8
boundary
62
5
39
2
10
330.128781
20
20.936840
11
334.732661
21
23.138284
0
LINE
8
boundary
62
5
39
2
10
334.732661
20
23.138284
11
336.214614
21
23.935444
0
LINE
8
boundary
62
5
39
2
10
336.214614
20
23.935444
11
340.624932
21
26.502778
0
LINE
8
boundary
62
5
39
2
10
340.624932
20
26.502778
11
342.074421
21
27.378383
0
LINE
8
boundary
62
5
39
2
10
342.074421
20
27.378383
11
343.485316
21
28.330429
0
LINE
8
boundary
62
5
39
2
10
343.485316
20
28.330429
11
347.673050
21
31.246765
0
LINE
8
boundary
62
5
39
2
10
347.673050
20
31.246765
11
349.039412
21
32.272617
0
LINE
8
boundary
62
5
39
2
10
349.039412
20
32.272617
11
352.977000
21
35.518761
0
LINE
8
annotation
62
1
39
211
10
256.481151
20
3.574805
11
254.349356
21
3.574805
0
LINE
8
annotation
62
1
39
211
10
254.349356
20
3.574805
11
256.319205
21
6.746008
0
LINE
8
annotation
62
1
39
211
10
256.319205
20
6.746008
11
256.319205
21
6.746008
0
LINE
8
annotation
62
1
39
211
10
256.319205
20
6.746008
11
256.321559
21
6.748922
0
LINE
8
annotation
62
1
39
211
10
256.321559
20
6.748922
11
256.323818
21
6.751861
0
LINE
8
annotation
62
1
39
211
10
256.323818
20
6.751861
11
256.325994
21
6.754849
0
LINE
8
annotation
62
1
39
211
10
256.325994
20
6.754849
11
256.328104
21
6.757912
0
LINE
8
annotation
62
1
39
211
10
256.328104
20
6.757912
11
256.330161
21
6.761073
0
LINE
8
annotation
62
1
39
211
10
256.330161
20
6.761073
11
256.332182
21
6.764359
0
LINE
8
annotation
62
1
39
211
10
256.332182
20
6.764359
11
256.334180
21
6.767793
0
LINE
8
annotation
62
1
39
211
10
256.334180
20
6.767793
11
256.336170
21
6.771401
0
LINE
8
annotation
62
1
39
211
10
256.336170
20
6.771401
11
256.338169
21
6.775207
0
LINE
8
annotation
62
1
39
211
10
256.338169
20
6.775207
11
256.338169
21
6.775207
0
LINE
8
annotation
62
1
39
211
10
256.338169
20
6.775207
11
256.419503
21
6.949839
0
LINE
8
annotation
62
1
39
211
10
256.419503
20
6.949839
11
256.467017
21
7.130860
0
LINE
8
annotation
62
1
39
211
10
256.467017
20
7.130860
11
256.481876
21
7.314181
0
LINE
8
annotation
62
1
39
211
10
256.481876
20
7.314181
11
256.465243
21
7.495711
0
LINE
8
annotation
62
1
39
211
10
256.465243
20
7.495711
11
256.418283
21
7.671359
0
LINE
8
annotation
62
1
39
211
10
256.418283
20
7.671359
11
256.342160
21
7.837035
0
LINE
8
annotation
62
1
39
211
10
256.342160
20
7.837035
11
256.238039
21
7.988648
0
LINE
8
annotation
62
1
39
211
10
256.238039
20
7.988648
11
256.107084
21
8.122110
0
LINE
8
annotation
62
1
39
211
10
256.107084
20
8.122110
11
255.950460
21
8.233328
0
LINE
8
annotation
62
1
39
211
10
255.950460
20
8.233328
11
255.950460
21
8.233328
0
LINE
8
annotation
62
1
39
211
10
255.950460
20
8.233328
11
255.775342
21
8.313507
0
LINE
8
annotation
62
1
39
211
10
255.775342
20
8.313507
11
255.594043
21
8.360289
0
LINE
8
annotation
62
1
39
211
10
255.594043
20
8.360289
11
255.410616
21
8.374727
0
LINE
8
annotation
62
1
39
211
10
255.410616
20
8.374727
11
255.229114
21
8.357875
0
LINE
8
annotation
62
1
39
211
10
255.229114
20
8.357875
11
255.053589
21
8.310785
0
LINE
8
annotation
62
1
39
211
10
255.053589
20
8.310785
11
254.888097
21
8.234510
0
LINE
8
annotation
62
1
39
211
10
254.888097
20
8.234510
11
254.736689
21
8.130102
0
LINE
8
annotation
62
1
39
211
10
254.736689
20
8.130102
11
254.603418
21
7.998616
0
LINE
8
annotation
62
1
39
211
10
254.603418
20
7.998616
11
254.492339
21
7.841104
0
LINE
8
annotation
62
1
39
211
10
254.492339
20
7.841104
11
254.352366
21
7.572598
0
LINE
8
annotation
62
1
39
211
10
279.660969
20
19.667938
11
280.726867
21
19.667938
0
LINE
8
annotation
62
1
39
211
10
280.726867
20
19.667938
11
280.726867
21
19.667938
0
LINE
8
annotation
62
1
39
211
10
280.726867
20
19.667938
11
280.918571
21
19.685135
0
LINE
8
annotation
62
1
39
211
10
280.918571
20
19.685135
11
281.098958
21
19.734698
0
LINE
8
annotation
62
1
39
211
10
281.098958
20
19.734698
11
281.265027
21
19.813585
0
LINE
8
annotation
62
1
39
211
10
281.265027
20
19.813585
11
281.413779
21
19.918753
0
LINE
8
annotation
62
1
39
211
10
281.413779
20
19.918753
11
281.542213
21
20.047160
0
LINE
8
annotation
62
1
39
211
10
281.542213
20
20.047160
11
281.647329
21
20.195764
0
LINE
8
annotation
62
1
39
211
10
281.647329
20
20.195764
11
281.726126
21
20.361522
0
LINE
8
annotation
62
1
39
211
10
281.726126
20
20.361522
11
281.775604
21
20.541391
0
LINE
8
annotation
62
1
39
211
10
281.775604
20
20.541391
11
281.792764
21
20.732330
0
LINE
8
annotation
62
1
39
211
10
281.792764
20
20.732330
11
281.792764
21
21.266032
0
LINE
8
annotation
62
1
39
211
10
281.792764
20
21.266032
11
281.792764
21
21.266032
0
LINE
8
annotation
62
1
39
211
10
281.792764
20
21.266032
11
281.775604
21
21.456891
0
LINE
8
annotation
62
1
39
211
10
281.775604
20
21.456891
11
281.726126
21
21.636719
0
LINE
8
annotation
62
1
39
211
10
281.726126
20
21.636719
11
281.647329
21
21.802464
0
LINE
8
annotation
62
1
39
211
10
281.647329
20
21.802464
11
281.542213
21
21.951078
0
LINE
8
annotation
62
1
39
211
10
281.542213
20
21.951078
11
281.413779
21
22.079510
0
LINE
8
annotation
62
1
39
211
10
281.413779
20
22.079510
11
281.265027
21
22.184710
0
LINE
8
annotation
62
1
39
211
10
281.265027
20
22.184710
11
281.098958
21
22.263629
0
LINE
8
annotation
62
1
39
211
10
281.098958
20
22.263629
11
280.918571
21
22.313217
0
LINE
8
annotation
62
1
39
211
10
280.918571
20
22.313217
11
280.726867
21
22.330424
0
LINE
8
annotation
62
1
39
211
10
280.726867
20
22.330424
11
280.193165
21
22.330424
0
LINE
8
annotation
62
1
39
211
10
280.193165
20
22.330424
11
280.726867
21
22.330424
0
LINE
8
annotation
62
1
39
211
10
280.726867
20
22.330424
11
280.726867
21
22.330424
0
LINE
8
annotation
62
1
39
211
10
280.726867
20
22.330424
11
280.918571
21
22.347635
0
LINE
8
annotation
62
1
39
211
10
280.918571
20
22.347635
11
281.098958
21
22.397252
0
LINE
8
annotation
62
1
39
211
10
281.098958
20
22.397252
11
281.265027
21
22.476250
0
LINE
8
annotation
62
1
39
211
10
281.265027
20
22.476250
11
281.413779
21
22.581603
0
LINE
8
annotation
62
1
39
211
10
281.413779
20
22.581603
11
281.542213
21
22.710286
0
LINE
8
annotation
62
1
39
211
10
281.542213
20
22.710286
11
281.647329
21
22.859276
0
LINE
8
annotation
62
1
39
211
10
281.647329
20
22.859276
11
281.726126
21
23.025545
0
LINE
8
annotation
62
1
39
211
10
281.726126
20
23.025545
11
281.775604
21
23.206071
0
LINE
8
annotation
62
1
39
211
10
281.775604
20
23.206071
11
281.792764
21
23.397826
0
LINE
8
annotation
62
1
39
211
10
281.792764
20
23.397826
11
281.792764
21
23.397826
0
LINE
8
annotation
62
1
39
211
10
281.792764
20
23.397826
11
281.775604
21
23.588686
0
LINE
8
annotation
62
1
39
211
10
281.775604
20
23.588686
11
281.726126
21
23.768514
0
LINE
8
annotation
62
1
39
211
10
281.726126
20
23.768514
11
281.647329
21
23.934259
0
LINE
8
annotation
62
1
39
211
10
281.647329
20
23.934259
11
281.542213
21
24.082873
0
LINE
8
annotation
62
1
39
211
10
281.542213
20
24.082873
11
281.413779
21
24.211304
0
LINE
8
annotation
62
1
39
211
10
281.413779
20
24.211304
11
281.265027
21
24.316505
0
LINE
8
annotation
62
1
39
211
10
281.265027
20
24.316505
11
281.098958
21
24.395424
0
LINE
8
annotation
62
1
39
211
10
281.098958
20
24.395424
11
280.918571
21
24.445012
0
LINE
8
annotation
62
1
39
211
10
280.918571
20
24.445012
11
280.726867
21
24.462219
0
LINE
8
annotation
62
1
39
211
10
280.726867
20
24.462219
11
279.660969
21
24.462219
0
LINE
8
annotation
62
1
39
211
10
293.774573
20
36.827832
11
291.109378
21
36.827832
0
LINE
8
annotation
62
1
39
211
10
291.109378
20
36.827832
11
292.173770
21
40.560731
0
LINE
8
annotation
62
1
39
211
10
292.975676
20
35.760731
11
292.975676
21
37.892526
0
LINE
8
annotation
62
1
39
211
10
298.323499
20
51.853674
11
299.389396
21
51.853674
0
LINE
8
annotation
62
1
39
211
10
299.389396
20
51.853674
11
299.389396
21
51.853674
0
LINE
8
annotation
62
1
39
211
10
299.389396
20
51.853674
11
299.580704
21
51.870875
0
LINE
8
annotation
62
1
39
211
10
299.580704
20
51.870875
11
299.760881
21
51.920464
0
LINE
8
annotation
62
1
39
211
10
299.760881
20
51.920464
11
299.926888
21
51.999422
0
LINE
8
annotation
62
1
39
211
10
299.926888
20
51.999422
11
300.075690
21
52.104727
0
LINE
8
annotation
62
1
39
211
10
300.075690
20
52.104727
11
300.204247
21
52.233361
0
LINE
8
annotation
62
1
39
211
10
300.204247
20
52.233361
11
300.309524
21
52.382303
0
LINE
8
annotation
62
1
39
211
10
300.309524
20
52.382303
11
300.388482
21
52.548533
0
LINE
8
annotation
62
1
39
211
10
300.388482
20
52.548533
11
300.438085
21
52.729030
0
LINE
8
annotation
62
1
39
211
10
300.438085
20
52.729030
11
300.455294
21
52.920776
0
LINE
8
annotation
62
1
39
211
10
300.455294
20
52.920776
11
300.455294
21
53.451768
0
LINE
8
annotation
62
1
39
211
10
300.455294
20
53.451768
11
300.455294
21
53.451768
0
LINE
8
annotation
62
1
39
211
10
300.455294
20
53.451768
11
300.438095
21
53.643420
0
LINE
8
annotation
62
1
39
211
10
300.438095
20
53.643420
11
300.388517
21
53.823669
0
LINE
8
annotation
62
1
39
211
10
300.388517
20
53.823669
11
300.309591
21
53.989538
0
LINE
8
annotation
62
1
39
211
10
300.309591
20
53.989538
11
300.204346
21
54.138053
0
LINE
8
annotation
62
1
39
211
10
300.204346
20
54.138053
11
300.075813
21
54.266237
0
LINE
8
annotation
62
1
39
211
10
300.075813
20
54.266237
11
299.927022
21
54.371115
0
LINE
8
annotation
62
1
39
211
10
299.927022
20
54.371115
11
299.761002
21
54.449712
0
LINE
8
annotation
62
1
39
211
10
299.761002
20
54.449712
11
299.580783
21
54.499052
0
LINE
8
annotation
62
1
39
211
10
299.580783
20
54.499052
11
299.389396
21
54.516160
0
LINE
8
annotation
62
1
39
211
10
299.389396
20
54.516160
11
298.323499
21
54.516160
0
LINE
8
annotation
62
1
39
211
10
298.323499
20
54.516160
11
298.323499
21
56.653674
0
LINE
8
annotation
62
1
39
211
10
298.323499
20
56.653674
11
300.455294
21
56.653674
0
LINE
8
annotation
62
1
39
211
10
303.734465
20
72.519432
11
303.734465
21
72.519432
0
LINE
8
annotation
62
1
39
211
10
303.734465
20
72.519432
11
303.458017
21
72.415780
0
LINE
8
annotation
62
1
39
211
10
303.458017
20
72.415780
11
303.204340
21
72.276123
0
LINE
8
annotation
62
1
39
211
10
303.204340
20
72.276123
11
302.976038
21
72.103957
0
LINE
8
annotation
62
1
39
211
10
302.976038
20
72.103957
11
302.775714
21
71.902784
0
LINE
8
annotation
62
1
39
211
10
302.775714
20
71.902784
11
302.605974
21
71.676101
0
LINE
8
annotation
62
1
39
211
10
302.605974
20
71.676101
11
302.469420
21
71.427408
0
LINE
8
annotation
62
1
39
211
10
302.469420
20
71.427408
11
302.368658
21
71.160203
0
LINE
8
annotation
62
1
39
211
10
302.368658
20
71.160203
11
302.306291
21
70.877986
0
LINE
8
annotation
62
1
39
211
10
302.306291
20
70.877986
11
302.284923
21
70.584256
0
LINE
8
annotation
62
1
39
211
10
302.284923
20
70.584256
11
302.284923
21
69.139892
0
LINE
8
annotation
62
1
39
211
10
302.284923
20
69.139892
11
302.284923
21
69.139892
0
LINE
8
annotation
62
1
39
211
10
302.284923
20
69.139892
11
302.300504
21
68.966298
0
LINE
8
annotation
62
1
39
211
10
302.300504
20
68.966298
11
302.345411
21
68.802886
0
LINE
8
annotation
62
1
39
211
10
302.345411
20
68.802886
11
302.416894
21
68.652392
0
LINE
8
annotation
62
1
39
211
10
302.416894
20
68.652392
11
302.512206
21
68.517549
0
LINE
8
annotation
62
1
39
211
10
302.512206
20
68.517549
11
302.628594
21
68.401092
0
LINE
8
annotation
62
1
39
211
10
302.628594
20
68.401092
11
302.763310
21
68.305755
0
LINE
8
annotation
62
1
39
211
10
302.763310
20
68.305755
11
302.913603
21
68.234271
0
LINE
8
annotation
62
1
39
211
10
302.913603
20
68.234271
11
303.076724
21
68.189376
0
LINE
8
annotation
62
1
39
211
10
303.076724
20
68.189376
11
303.249922
21
68.173804
0
LINE
8
annotation
62
1
39
211
10
303.249922
20
68.173804
11
303.249922
21
68.173804
0
LINE
8
annotation
62
1
39
211
10
303.249922
20
68.173804
11
303.423479
21
68.189376
0
LINE
8
annotation
62
1
39
211
10
303.423479
20
68.189376
11
303.586791
21
68.234271
0
LINE
8
annotation
62
1
39
211
10
303.586791
20
68.234271
11
303.737140
21
68.305755
0
LINE
8
annotation
62
1
39
211
10
303.737140
20
68.305755
11
303.871811
21
68.401092
0
LINE
8
annotation
62
1
39
211
10
303.871811
20
68.401092
11
303.988087
21
68.517549
0
LINE
8
annotation
62
1
39
211
10
303.988087
20
68.517549
11
304.083252
21
68.652392
0
LINE
8
annotation
62
1
39
211
10
304.083252
20
68.652392
11
304.154591
21
68.802886
0
LINE
8
annotation
62
1
39
211
10
304.154591
20
68.802886
11
304.199385
21
68.966298
0
LINE
8
annotation
62
1
39
211
10
304.199385
20
68.966298
11
304.214921
21
69.139892
0
LINE
8
annotation
62
1
39
211
10
304.214921
20
69.139892
11
304.214921
21
69.620620
0
LINE
8
annotation
62
1
39
211
10
304.214921
20
69.620620
11
304.214921
21
69.620620
0
LINE
8
annotation
62
1
39
211
10
304.214921
20
69.620620
11
304.199385
21
69.794131
0
LINE
8
annotation
62
1
39
211
10
304.199385
20
69.794131
11
304.154591
21
69.957317
0
LINE
8
annotation
62
1
39
211
10
304.154591
20
69.957317
11
304.083252
21
70.107485
0
LINE
8
annotation
62
1
39
211
10
304.083252
20
70.107485
11
303.988087
21
70.241941
0
LINE
8
annotation
62
1
39
211
10
303.988087
20
70.241941
11
303.871811
21
70.357991
0
LINE
8
annotation
62
1
39
211
10
303.871811
20
70.357991
11
303.737140
21
70.452941
0
LINE
8
annotation
62
1
39
211
10
303.737140
20
70.452941
11
303.586791
21
70.524098
0
LINE
8
annotation
62
1
39
211
10
303.586791
20
70.524098
11
303.423479
21
70.568768
0
LINE
8
annotation
62
1
39
211
10
303.423479
20
70.568768
11
303.249922
21
70.584256
0
LINE
8
annotation
62
1
39
211
10
303.249922
20
70.584256
11
302.284923
21
70.584256
0
LINE
8
annotation
62
1
39
211
10
302.164060
20
67.630600
11
304.336874
21
67.630600
0
LINE
8
annotation
62
1
39
211
10
255.792445
20
78.199164
11
256.859547
21
82.999164
0
LINE
8
annotation
62
1
39
211
10
256.859547
20
82.999164
11
254.725043
21
82.999164
0
LINE
8
annotation
62
1
39
211
10
256.859547
20
80.861650
11
255.792445
21
80.861650
0
LINE
8
annotation
62
1
39
211
10
353.800946
20
78.199164
11
354.868048
21
82.999164
0
LINE
8
annotation
62
1
39
211
10
354.868048
20
82.999164
11
352.733544
21
82.999164
0
LINE
8
annotation
62
1
39
211
10
354.868048
20
80.861650
11
353.800946
21
80.861650
0
LINE
8
annotation
62
1
39
211
10
359.428964
20
92.645790
11
359.428964
21
92.645790
0
LINE
8
annotation
62
1
39
211
10
359.428964
20
92.645790
11
359.446173
21
92.454138
0
LINE
8
annotation
62
1
39
211
10
359.446173
20
92.454138
11
359.495775
21
92.273889
0
LINE
8
annotation
62
1
39
211
10
359.495775
20
92.273889
11
359.574734
21
92.108020
0
LINE
8
annotation
62
1
39
211
10
359.574734
20
92.108020
11
359.680010
21
91.959505
0
LINE
8
annotation
62
1
39
211
10
359.680010
20
91.959505
11
359.808568
21
91.831321
0
LINE
8
annotation
62
1
39
211
10
359.808568
20
91.831321
11
359.957370
21
91.726443
0
LINE
8
annotation
62
1
39
211
10
359.957370
20
91.726443
11
360.123377
21
91.647846
0
LINE
8
annotation
62
1
39
211
10
360.123377
20
91.647846
11
360.303554
21
91.598506
0
LINE
8
annotation
62
1
39
211
10
360.303554
20
91.598506
11
360.494861
21
91.581398
0
LINE
8
annotation
62
1
39
211
10
360.494861
20
91.581398
11
360.494861
21
91.581398
0
LINE
8
annotation
62
1
39
211
10
360.494861
20
91.581398
11
360.686169
21
91.598506
0
LINE
8
annotation
62
1
39
211
10
360.686169
20
91.598506
11
360.866346
21
91.647846
0
LINE
8
annotation
62
1
39
211
10
360.866346
20
91.647846
11
361.032353
21
91.726443
0
LINE
8
annotation
62
1
39
211
10
361.032353
20
91.726443
11
361.181155
21
91.831321
0
LINE
8
annotation
62
1
39
211
10
361.181155
20
91.831321
11
361.309712
21
91.959505
0
LINE
8
annotation
62
1
39
211
10
361.309712
20
91.959505
11
361.414989
21
92.108020
0
LINE
8
annotation
62
1
39
211
10
361.414989
20
92.108020
11
361.493947
21
92.273889
0
LINE
8
annotation
62
1
39
211
10
361.493947
20
92.273889
11
361.543550
21
92.454138
0
LINE
8
annotation
62
1
39
211
10
361.543550
20
92.454138
11
361.560759
21
92.645790
0
LINE
8
annotation
62
1
39
211
10
361.560759
20
92.645790
11
361.560759
21
93.176782
0
LINE
8
annotation
62
1
39
211
10
361.560759
20
93.176782
11
361.560759
21
93.176782
0
LINE
8
annotation
62
1
39
211
10
361.560759
20
93.176782
11
361.543560
21
93.368528
0
LINE
8
annotation
62
1
39
211
10
361.543560
20
93.368528
11
361.493982
21
93.549025
0
LINE
8
annotation
62
1
39
211
10
361.493982
20
93.549025
11
361.415056
21
93.715255
0
LINE
8
annotation
62
1
39
211
10
361.415056
20
93.715255
11
361.309811
21
93.864197
0
LINE
8
annotation
62
1
39
211
10
361.309811
20
93.864197
11
361.181278
21
93.992831
0
LINE
8
annotation
62
1
39
211
10
361.181278
20
93.992831
11
361.032487
21
94.098136
0
LINE
8
annotation
62
1
39
211
10
361.032487
20
94.098136
11
360.866467
21
94.177094
0
LINE
8
annotation
62
1
39
211
10
360.866467
20
94.177094
11
360.686248
21
94.226683
0
LINE
8
annotation
62
1
39
211
10
360.686248
20
94.226683
11
360.494861
21
94.243884
0
LINE
8
annotation
62
1
39
211
10
360.494861
20
94.243884
11
360.494861
21
94.243884
0
LINE
8
annotation
62
1
39
211
10
360.494861
20
94.243884
11
360.303474
21
94.226673
0
LINE
8
annotation
62
1
39
211
10
360.303474
20
94.226673
11
360.123256
21
94.177059
0
LINE
8
annotation
62
1
39
211
10
360.123256
20
94.177059
11
359.957236
21
94.098069
0
LINE
8
annotation
62
1
39
211
10
359.957236
20
94.098069
11
359.808444
21
93.992732
0
LINE
8
annotation
62
1
39
211
10
359.808444
20
93.992732
11
359.679911
21
93.864073
0
LINE
8
annotation
62
1
39
211
10
359.679911
20
93.864073
11
359.574667
21
93.715121
0
LINE
8
annotation
62
1
39
211
10
359.574667
20
93.715121
11
359.495741
21
93.548904
0
LINE
8
annotation
62
1
39
211
10
359.495741
20
93.548904
11
359.446163
21
93.368448
0
LINE
8
annotation
62
1
39
211
10
359.446163
20
93.368448
11
359.428964
21
93.176782
0
LINE
8
annotation
62
1
39
211
10
359.428964
20
93.176782
11
359.428964
21
92.645790
0
LINE
8
annotation
62
1
39
211
10
361.560759
20
95.311286
11
361.560759
21
95.311286
0
LINE
8
annotation
62
1
39
211
10
361.560759
20
95.311286
11
361.543560
21
95.502146
0
LINE
8
annotation
62
1
39
211
10
361.543560
20
95.502146
11
361.493982
21
95.681974
0
LINE
8
annotation
62
1
39
211
10
361.493982
20
95.681974
11
361.415056
21
95.847719
0
LINE
8
annotation
62
1
39
211
10
361.415056
20
95.847719
11
361.309811
21
95.996332
0
LINE
8
annotation
62
1
39
211
10
361.309811
20
95.996332
11
361.181278
21
96.124764
0
LINE
8
annotation
62
1
39
211
10
361.181278
20
96.124764
11
361.032487
21
96.229965
0
LINE
8
annotation
62
1
39
211
10
361.032487
20
96.229965
11
360.866467
21
96.308884
0
LINE
8
annotation
62
1
39
211
10
360.866467
20
96.308884
11
360.686248
21
96.358472
0
LINE
8
annotation
62
1
39
211
10
360.686248
20
96.358472
11
360.494861
21
96.375679
0
LINE
8
annotation
62
1
39
211
10
360.494861
20
96.375679
11
360.494861
21
96.375679
0
LINE
8
annotation
62
1
39
211
10
360.494861
20
96.375679
11
360.303474
21
96.358472
0
LINE
8
annotation
62
1
39
211
10
360.303474
20
96.358472
11
360.123256
21
96.308884
0
LINE
8
annotation
62
1
39
211
10
360.123256
20
96.308884
11
359.957236
21
96.229965
0
LINE
8
annotation
62
1
39
211
10
359.957236
20
96.229965
11
359.808444
21
96.124764
0
LINE
8
annotation
62
1
39
211
10
359.808444
20
96.124764
11
359.679911
21
95.996332
0
LINE
8
annotation
62
1
39
211
10
359.679911
20
95.996332
11
359.574667
21
95.847719
0
LINE
8
annotation
62
1
39
211
10
359.574667
20
95.847719
11
359.495741
21
95.681974
0
LINE
8
annotation
62
1
39
211
10
359.495741
20
95.681974
11
359.446163
21
95.502146
0
LINE
8
annotation
62
1
39
211
10
359.446163
20
95.502146
11
359.428964
21
95.311286
0
LINE
8
annotation
62
1
39
211
10
359.428964
20
95.311286
11
359.428964
21
95.311286
0
LINE
8
annotation
62
1
39
211
10
359.428964
20
95.311286
11
359.446173
21
95.119530
0
LINE
8
annotation
62
1
39
211
10
359.446173
20
95.119530
11
359.495775
21
94.939005
0
LINE
8
annotation
62
1
39
211
10
359.495775
20
94.939005
11
359.574734
21
94.772735
0
LINE
8
annotation
62
1
39
211
10
359.574734
20
94.772735
11
359.680010
21
94.623746
0
LINE
8
annotation
62
1
39
211
10
359.680010
20
94.623746
11
359.808568
21
94.495062
0
LINE
8
annotation
62
1
39
211
10
359.808568
20
94.495062
11
359.957370
21
94.389709
0
LINE
8
annotation
62
1
39
211
10
359.957370
20
94.389709
11
360.123377
21
94.310712
0
LINE
8
annotation
62
1
39
211
10
360.123377
20
94.310712
11
360.303554
21
94.261095
0
LINE
8
annotation
62
1
39
211
10
360.303554
20
94.261095
11
360.494861
21
94.243884
0
LINE
8
annotation
62
1
39
211
10
360.494861
20
94.243884
11
360.494861
21
94.243884
0
LINE
8
annotation
62
1
39
211
10
360.494861
20
94.243884
11
360.686169
21
94.261095
0
LINE
8
annotation
62
1
39
211
10
360.686169
20
94.261095
11
360.866346
21
94.310712
0
LINE
8
annotation
62
1
39
211
10
360.866346
20
94.310712
11
361.032353
21
94.389709
0
LINE
8
annotation
62
1
39
211
10
361.032353
20
94.389709
11
361.181155
21
94.495062
0
LINE
8
annotation
62
1
39
211
10
361.181155
20
94.495062
11
361.309712
21
94.623746
0
LINE
8
annotation
62
1
39
211
10
361.309712
20
94.623746
11
361.414989
21
94.772735
0
LINE
8
annotation
62
1
39
211
10
361.414989
20
94.772735
11
361.493947
21
94.939005
0
LINE
8
annotation
62
1
39
211
10
361.493947
20
94.939005
11
361.543550
21
95.119530
0
LINE
8
annotation
62
1
39
211
10
361.543550
20
95.119530
11
361.560759
21
95.311286
0
LINE
8
annotation
62
1
39
211
10
313.830893
20
55.523337
11
309.752708
21
49.624615
0
LINE
8
annotation
62
1
39
211
10
309.752708
20
49.624615
11
305.673756
21
55.523337
0
LINE
8
annotation
62
1
39
211
10
309.752708
20
50.099304
11
309.752708
21
43.294149
0
LINE
8
annotation
62
1
39
211
10
325.104377
20
49.408743
11
318.418085
21
49.408743
0
LINE
8
annotation
62
1
39
211
10
331.044701
20
43.294532
11
331.044701
21
43.294532
0
LINE
8
annotation
62
1
39
211
10
331.044701
20
43.294532
11
331.821244
21
43.583911
0
LINE
8
annotation
62
1
39
211
10
331.821244
20
43.583911
11
332.534015
21
43.975058
0
LINE
8
annotation
62
1
39
211
10
332.534015
20
43.975058
11
333.175647
21
44.458008
0
LINE
8
annotation
62
1
39
211
10
333.175647
20
44.458008
11
333.738775
21
45.022795
0
LINE
8
annotation
62
1
39
211
10
333.738775
20
45.022795
11
334.216033
21
45.659452
0
LINE
8
annotation
62
1
39
211
10
334.216033
20
45.659452
11
334.600055
21
46.358014
0
LINE
8
annotation
62
1
39
211
10
334.600055
20
46.358014
11
334.883476
21
47.108514
0
LINE
8
annotation
62
1
39
211
10
334.883476
20
47.108514
11
335.058930
21
47.900987
0
LINE
8
annotation
62
1
39
211
10
335.058930
20
47.900987
11
335.119052
21
48.725467
0
LINE
8
annotation
62
1
39
211
10
335.119052
20
48.725467
11
335.119052
21
52.803652
0
LINE
8
annotation
62
1
39
211
10
335.119052
20
52.803652
11
335.119052
21
52.803652
0
LINE
8
annotation
62
1
39
211
10
335.119052
20
52.803652
11
335.075336
21
53.292167
0
LINE
8
annotation
62
1
39
211
10
335.075336
20
53.292167
11
334.949285
21
53.752071
0
LINE
8
annotation
62
1
39
211
10
334.949285
20
53.752071
11
334.748543
21
54.175658
0
LINE
8
annotation
62
1
39
211
10
334.748543
20
54.175658
11
334.480751
21
54.555221
0
LINE
8
annotation
62
1
39
211
10
334.480751
20
54.555221
11
334.153555
21
54.883054
0
LINE
8
annotation
62
1
39
211
10
334.153555
20
54.883054
11
333.774596
21
55.151450
0
LINE
8
annotation
62
1
39
211
10
333.774596
20
55.151450
11
333.351520
21
55.352703
0
LINE
8
annotation
62
1
39
211
10
333.351520
20
55.352703
11
332.891968
21
55.479107
0
LINE
8
annotation
62
1
39
211
10
332.891968
20
55.479107
11
332.403585
21
55.522954
0
LINE
8
annotation
62
1
39
211
10
332.403585
20
55.522954
11
332.403585
21
55.522954
0
LINE
8
annotation
62
1
39
211
10
332.403585
20
55.522954
11
331.916211
21
55.479107
0
LINE
8
annotation
62
1
39
211
10
331.916211
20
55.479107
11
331.457196
21
55.352703
0
LINE
8
annotation
62
1
39
211
10
331.457196
20
55.352703
11
331.034277
21
55.151450
0
LINE
8
annotation
62
1
39
211
10
331.034277
20
55.151450
11
330.655192
21
54.883054
0
LINE
8
annotation
62
1
39
211
10
330.655192
20
54.883054
11
330.327680
21
54.555221
0
LINE
8
annotation
62
1
39
211
10
330.327680
20
54.555221
11
330.059479
21
54.175658
0
LINE
8
annotation
62
1
39
211
10
330.059479
20
54.175658
11
329.858326
21
53.752071
0
LINE
8
annotation
62
1
39
211
10
329.858326
20
53.752071
11
329.731959
21
53.292167
0
LINE
8
annotation
62
1
39
211
10
329.731959
20
53.292167
11
329.688117
21
52.803652
0
LINE
8
annotation
62
1
39
211
10
329.688117
20
52.803652
11
329.688117
21
51.444001
0
LINE
8
annotation
62
1
39
211
10
329.688117
20
51.444001
11
329.688117
21
51.444001
0
LINE
8
annotation
62
1
39
211
10
329.688117
20
51.444001
11
329.731959
21
50.955513
0
LINE
8
annotation
62
1
39
211
10
329.731959
20
50.955513
11
329.858326
21
50.495679
0
LINE
8
annotation
62
1
39
211
10
329.858326
20
50.495679
11
330.059479
21
50.072194
0
LINE
8
annotation
62
1
39
211
10
330.059479
20
50.072194
11
330.327680
21
49.692752
0
LINE
8
annotation
62
1
39
211
10
330.327680
20
49.692752
11
330.655192
21
49.365046
0
LINE
8
annotation
62
1
39
211
10
330.655192
20
49.365046
11
331.034277
21
49.096771
0
LINE
8
annotation
62
1
39
211
10
331.034277
20
49.096771
11
331.457196
21
48.895620
0
LINE
8
annotation
62
1
39
211
10
331.457196
20
48.895620
11
331.916211
21
48.769287
0
LINE
8
annotation
62
1
39
211
10
331.916211
20
48.769287
11
332.403585
21
48.725467
0
LINE
8
annotation
62
1
39
211
10
332.403585
20
48.725467
11
335.119052
21
48.725467
0
LINE
8
annotation
62
1
39
211
10
329.348780
20
41.765980
11
335.462990
21
41.765980
0
LINE
8
boundary
62
5
39
2
10
138.318331
20
175.946510
11
141.675747
21
179.033601
0
LINE
8
boundary
62
5
39
2
10
141.675747
20
179.033601
11
145.122681
21
182.517018
0
LINE
8
boundary
62
5
39
2
10
145.122681
20
182.517018
11
148.384892
21
186.166171
0
LINE
8
boundary
62
5
39
2
10
148.384892
20
186.166171
11
151.450866
21
189.966152
0
LINE
8
boundary
62
5
39
2
10
151.450866
20
189.966152
11
154.310718
21
193.901053
0
LINE
8
boundary
62
5
39
2
10
154.310718
20
193.901053
11
156.956272
21
197.954175
0
LINE
8
boundary
62
5
39
2
10
156.956272
20
197.954175
11
159.381138
21
202.108258
0
LINE
8
boundary
62
5
39
2
10
159.381138
20
202.108258
11
161.580727
21
206.345714
0
LINE
8
boundary
62
5
39
2
10
161.580727
20
206.345714
11
163.552255
21
210.648848
0
LINE
8
boundary
62
5
39
2
10
163.552255
20
210.648848
11
165.294698
21
215.000087
0
LINE
8
boundary
62
5
39
2
10
165.294698
20
215.000087
11
166.808755
21
219.382178
0
LINE
8
boundary
62
5
39
2
10
166.808755
20
219.382178
11
168.096696
21
223.778386
0
LINE
8
boundary
62
5
39
2
10
168.096696
20
223.778386
11
169.162321
21
228.172664
0
LINE
8
boundary
62
5
39
2
10
169.162321
20
228.172664
11
170.010758
21
232.549776
0
LINE
8
boundary
62
5
39
2
10
170.010758
20
232.549776
11
170.648359
21
236.895453
0
LINE
8
boundary
62
5
39
2
10
170.648359
20
236.895453
11
171.082511
21
241.196463
0
LINE
8
boundary
62
5
39
2
10
171.082511
20
241.196463
11
171.294131
21
244.822023
0
LINE
8
boundary
62
5
39
2
10
171.294131
20
244.822023
11
171.341084
21
245.734736
0
LINE
8
boundary
62
5
39
2
10
171.341084
20
245.734736
11
169.856309
21
245.778106
0
LINE
8
boundary
62
5
39
2
10
169.856309
20
245.778106
11
167.360522
21
245.851009
0
LINE
8
boundary
62
5
39
2
10
167.360522
20
245.851009
11
113.017801
21
247.438374
0
LINE
8
boundary
62
5
39
2
10
113.017801
20
247.438374
11
111.368172
21
247.486562
0
LINE
8
boundary
62
5
39
2
10
111.368172
20
247.486562
11
111.311639
21
246.789867
0
LINE
8
boundary
62
5
39
2
10
111.311639
20
246.789867
11
111.133185
21
244.445885
0
LINE
8
boundary
62
5
39
2
10
111.133185
20
244.445885
11
110.592758
21
241.171787
0
LINE
8
boundary
62
5
39
2
10
110.592758
20
241.171787
11
109.723702
21
237.840447
0
LINE
8
boundary
62
5
39
2
10
109.723702
20
237.840447
11
108.836737
21
235.394751
0
LINE
8
boundary
62
5
39
2
10
108.836737
20
235.394751
11
139.122744
21
235.244750
0
LINE
8
boundary
62
5
39
2
10
139.122744
20
235.244750
11
139.122744
21
232.344750
0
LINE
8
boundary
62
5
39
2
10
139.122744
20
232.344750
11
107.496730
21
232.344750
0
LINE
8
boundary
62
5
39
2
10
107.496730
20
232.344750
11
106.956227
21
231.282046
0
LINE
8
boundary
62
5
39
2
10
106.956227
20
231.282046
11
105.057457
21
228.159280
0
LINE
8
boundary
62
5
39
2
10
105.057457
20
228.159280
11
102.832660
21
225.211346
0
LINE
8
boundary
62
5
39
2
10
102.832660
20
225.211346
11
100.308243
21
222.487900
0
LINE
8
boundary
62
5
39
2
10
100.308243
20
222.487900
11
99.800650
21
222.012366
0
LINE
8
boundary
62
5
39
2
10
99.800650
20
222.012366
11
132.421514
21
221.862366
0
LINE
8
boundary
62
5
39
2
10
132.421514
20
221.862366
11
132.421514
21
218.962366
0
LINE
8
boundary
62
5
39
2
10
132.421514
20
218.962366
11
96.046983
21
218.962367
0
LINE
8
boundary
62
5
39
2
10
96.046983
20
218.962367
11
94.513452
21
217.881719
0
LINE
8
boundary
62
5
39
2
10
94.513452
20
217.881719
11
91.337434
21
216.060576
0
LINE
8
boundary
62
5
39
2
10
91.337434
20
216.060576
11
88.045525
21
214.584469
0
LINE
8
boundary
62
5
39
2
10
88.045525
20
214.584469
11
84.691230
21
213.457649
0
LINE
8
boundary
62
5
39
2
10
84.691230
20
213.457649
11
82.889065
21
212.988190
0
LINE
8
boundary
62
5
39
2
10
82.889065
20
212.988190
11
81.207948
21
212.644648
0
LINE
8
boundary
62
5
39
2
10
81.207948
20
212.644648
11
79.536324
21
212.383233
0
LINE
8
boundary
62
5
39
2
10
79.536324
20
212.383233
11
77.879545
21
212.201342
0
LINE
8
boundary
62
5
39
2
10
77.879545
20
212.201342
11
76.242484
21
212.095985
0
LINE
8
boundary
62
5
39
2
10
76.242484
20
212.095985
11
74.863443
21
212.073270
0
LINE
8
boundary
62
5
39
2
10
74.863443
20
212.073270
11
63.234419
21
212.065870
0
LINE
8
boundary
62
5
39
2
10
63.234419
20
212.065870
11
61.065640
21
212.066270
0
LINE
8
boundary
62
5
39
2
10
61.065640
20
212.066270
11
61.065634
21
212.946560
0
LINE
8
boundary
62
5
39
2
10
61.065634
20
212.946560
11
61.065633
21
224.045329
0
LINE
8
boundary
62
5
39
2
10
61.065633
20
224.045329
11
52.301463
21
224.045329
0
LINE
8
boundary
62
5
39
2
10
52.301463
20
224.045329
11
44.495478
21
224.045329
0
LINE
8
boundary
62
5
39
2
10
44.495478
20
224.045329
11
18.514924
21
224.045329
0
LINE
8
boundary
62
5
39
2
10
18.514924
20
224.045329
11
11.504846
21
224.045329
0
LINE
8
boundary
62
5
39
2
10
11.504846
20
224.045329
11
9.471883
21
222.012366
0
LINE
8
boundary
62
5
39
2
10
9.471883
20
222.012366
11
34.418759
21
221.862366
0
LINE
8
boundary
62
5
39
2
10
34.418759
20
221.862366
11
34.418759
21
218.962366
0
LINE
8
boundary
62
5
39
2
10
34.418759
20
218.962366
11
6.421886
21
218.962366
0
LINE
8
boundary
62
5
39
2
10
6.421886
20
218.962366
11
2.639303
21
215.179780
0
LINE
8
boundary
62
5
39
2
10
2.639303
20
215.179780
11
1.926393
21
214.466868
0
LINE
8
boundary
62
5
39
2
10
1.926393
20
214.466868
11
1.587500
21
211.759820
0
LINE
8
boundary
62
5
39
2
10
1.587500
20
211.759820
11
82.433697
21
211.609820
0
LINE
8
boundary
62
5
39
2
10
82.433697
20
211.609820
11
82.433697
21
208.709820
0
LINE
8
boundary
62
5
39
2
10
82.433697
20
208.709820
11
1.682500
21
208.709820
0
LINE
8
boundary
62
5
39
2
10
1.682500
20
208.709820
11
1.587500
21
204.842646
0
LINE
8
boundary
62
5
39
2
10
1.587500
20
204.842646
11
1.587500
21
195.666876
0
LINE
8
boundary
62
5
39
2
10
1.587500
20
195.666876
11
78.012646
21
195.516876
0
LINE
8
boundary
62
5
39
2
10
78.012646
20
195.516876
11
78.012646
21
192.616876
0
LINE
8
boundary
62
5
39
2
10
78.012646
20
192.616876
11
1.682500
21
192.616876
0
LINE
8
boundary
62
5
39
2
10
1.682500
20
192.616876
11
1.587500
21
179.573933
0
LINE
8
boundary
62
5
39
2
10
1.587500
20
179.573933
11
71.053568
21
179.423933
0
LINE
8
boundary
62
5
39
2
10
71.053568
20
179.423933
11
71.053568
21
176.523933
0
LINE
8
boundary
62
5
39
2
10
71.053568
20
176.523933
11
1.682500
21
176.523933
0
LINE
8
boundary
62
5
39
2
10
1.682500
20
176.523933
11
1.587500
21
163.480989
0
LINE
8
boundary
62
5
39
2
10
1.587500
20
163.480989
11
59.337841
21
163.330990
0
LINE
8
boundary
62
5
39
2
10
59.337841
20
163.330990
11
59.337841
21
160.430990
0
LINE
8
boundary
62
5
39
2
10
59.337841
20
160.430990
11
1.682500
21
160.430990
0
LINE
8
boundary
62
5
39
2
10
1.682500
20
160.430990
11
1.587500
21
151.318050
0
LINE
8
boundary
62
5
39
2
10
1.587500
20
151.318050
11
2.639303
21
150.266246
0
LINE
8
boundary
62
5
39
2
10
2.639303
20
150.266246
11
5.517502
21
147.388046
0
LINE
8
boundary
62
5
39
2
10
5.517502
20
147.388046
11
34.041567
21
147.238046
0
LINE
8
boundary
62
5
39
2
10
34.041567
20
147.238046
11
34.041567
21
144.338046
0
LINE
8
boundary
62
5
39
2
10
34.041567
20
144.338046
11
8.812501
21
144.338046
0
LINE
8
boundary
62
5
39
2
10
8.812501
20
144.338046
11
11.216749
21
141.688797
0
LINE
8
boundary
62
5
39
2
10
11.216749
20
141.688797
11
18.514924
21
141.400702
0
LINE
8
boundary
62
5
39
2
10
18.514924
20
141.400702
11
44.495478
21
141.400702
0
LINE
8
boundary
62
5
39
2
10
44.495478
20
141.400702
11
52.301463
21
141.400702
0
LINE
8
boundary
62
5
39
2
10
52.301463
20
141.400702
11
61.065633
21
141.400702
0
LINE
8
boundary
62
5
39
2
10
61.065633
20
141.400702
11
61.065634
21
151.273511
0
LINE
8
boundary
62
5
39
2
10
61.065634
20
151.273511
11
61.065640
21
152.066969
0
LINE
8
boundary
62
5
39
2
10
61.065640
20
152.066969
11
63.061938
21
152.067361
0
LINE
8
boundary
62
5
39
2
10
63.061938
20
152.067361
11
74.448221
21
152.067369
0
LINE
8
boundary
62
5
39
2
10
74.448221
20
152.067369
11
75.430674
21
152.084051
0
LINE
8
boundary
62
5
39
2
10
75.430674
20
152.084051
11
78.762258
21
152.156174
0
LINE
8
boundary
62
5
39
2
10
78.762258
20
152.156174
11
82.772677
21
152.414366
0
LINE
8
boundary
62
5
39
2
10
82.772677
20
152.414366
11
87.130734
21
152.879133
0
LINE
8
boundary
62
5
39
2
10
87.130734
20
152.879133
11
91.529069
21
153.552563
0
LINE
8
boundary
62
5
39
2
10
91.529069
20
153.552563
11
95.953760
21
154.441618
0
LINE
8
boundary
62
5
39
2
10
95.953760
20
154.441618
11
100.389883
21
155.552102
0
LINE
8
boundary
62
5
39
2
10
100.389883
20
155.552102
11
104.821654
21
156.888524
0
LINE
8
boundary
62
5
39
2
10
104.821654
20
156.888524
11
109.232484
21
158.453939
0
LINE
8
boundary
62
5
39
2
10
109.232484
20
158.453939
11
113.605257
21
160.249825
0
LINE
8
boundary
62
5
39
2
10
113.605257
20
160.249825
11
117.922389
21
162.275992
0
LINE
8
boundary
62
5
39
2
10
117.922389
20
162.275992
11
122.166127
21
164.530488
0
LINE
8
boundary
62
5
39
2
10
122.166127
20
164.530488
11
126.318713
21
167.009562
0
LINE
8
boundary
62
5
39
2
10
126.318713
20
167.009562
11
130.362639
21
169.707647
0
LINE
8
boundary
62
5
39
2
10
130.362639
20
169.707647
11
134.280864
21
172.617368
0
LINE
8
boundary
62
5
39
2
10
134.280864
20
172.617368
11
138.057037
21
175.729612
0
LINE
8
boundary
62
5
39
2
10
138.057037
20
175.729612
11
138.318331
21
175.946510
0
LINE
8
annotation
62
1
39
211
10
41.156863
20
143.388007
11
39.025068
21
143.388007
0
LINE
8
annotation
62
1
39
211
10
39.025068
20
143.388007
11
40.994916
21
146.559210
0
LINE
8
annotation
62
1
39
211
10
40.994916
20
146.559210
11
40.994916
21
146.559210
0
LINE
8
annotation
62
1
39
211
10
40.994916
20
146.559210
11
40.997271
21
146.562124
0
LINE
8
annotation
62
1
39
211
10
40.997271
20
146.562124
11
40.999529
21
146.565063
0
LINE
8
annotation
62
1
39
211
10
40.999529
20
146.565063
11
41.001706
21
146.568051
0
LINE
8
annotation
62
1
39
211
10
41.001706
20
146.568051
11
41.003815
21
146.571114
0
LINE
8
annotation
62
1
39
211
10
41.003815
20
146.571114
11
41.005873
21
146.574275
0
LINE
8
annotation
62
1
39
211
10
41.005873
20
146.574275
11
41.007893
21
146.577561
0
LINE
8
annotation
62
1
39
211
10
41.007893
20
146.577561
11
41.009891
21
146.580995
0
LINE
8
annotation
62
1
39
211
10
41.009891
20
146.580995
11
41.011882
21
146.584603
0
LINE
8
annotation
62
1
39
211
10
41.011882
20
146.584603
11
41.013880
21
146.588409
0
LINE
8
annotation
62
1
39
211
10
41.013880
20
146.588409
11
41.013880
21
146.588409
0
LINE
8
annotation
62
1
39
211
10
41.013880
20
146.588409
11
41.095215
21
146.763041
0
LINE
8
annotation
62
1
39
211
10
41.095215
20
146.763041
11
41.142729
21
146.944063
0
LINE
8
annotation
62
1
39
211
10
41.142729
20
146.944063
11
41.157587
21
147.127383
0
LINE
8
annotation
62
1
39
211
10
41.157587
20
147.127383
11
41.140954
21
147.308913
0
LINE
8
annotation
62
1
39
211
10
41.140954
20
147.308913
11
41.093994
21
147.484561
0
LINE
8
annotation
62
1
39
211
10
41.093994
20
147.484561
11
41.017871
21
147.650237
0
LINE
8
annotation
62
1
39
211
10
41.017871
20
147.650237
11
40.913750
21
147.801851
0
LINE
8
annotation
62
1
39
211
10
40.913750
20
147.801851
11
40.782796
21
147.935312
0
LINE
8
annotation
62
1
39
211
10
40.782796
20
147.935312
11
40.626172
21
148.046530
0
LINE
8
annotation
62
1
39
211
10
40.626172
20
148.046530
11
40.626172
21
148.046530
0
LINE
8
annotation
62
1
39
211
10
40.626172
20
148.046530
11
40.451054
21
148.126709
0
LINE
8
annotation
62
1
39
211
10
40.451054
20
148.126709
11
40.269755
21
148.173491
0
LINE
8
annotation
62
1
39
211
10
40.269755
20
148.173491
11
40.086327
21
148.187929
0
LINE
8
annotation
62
1
39
211
10
40.086327
20
148.187929
11
39.904825
21
148.171077
0
LINE
8
annotation
62
1
39
211
10
39.904825
20
148.171077
11
39.729301
21
148.123987
0
LINE
8
annotation
62
1
39
211
10
39.729301
20
148.123987
11
39.563808
21
148.047712
0
LINE
8
annotation
62
1
39
211
10
39.563808
20
148.047712
11
39.412400
21
147.943305
0
LINE
8
annotation
62
1
39
211
10
39.412400
20
147.943305
11
39.279130
21
147.811818
0
LINE
8
annotation
62
1
39
211
10
39.279130
20
147.811818
11
39.168051
21
147.654306
0
LINE
8
annotation
62
1
39
211
10
39.168051
20
147.654306
11
39.028078
21
147.385800
0
LINE
8
annotation
62
1
39
211
10
64.321342
20
159.481140
11
65.387239
21
159.481140
0
LINE
8
annotation
62
1
39
211
10
65.387239
20
159.481140
11
65.387239
21
159.481140
0
LINE
8
annotation
62
1
39
211
10
65.387239
20
159.481140
11
65.578943
21
159.498337
0
LINE
8
annotation
62
1
39
211
10
65.578943
20
159.498337
11
65.759330
21
159.547901
0
LINE
8
annotation
62
1
39
211
10
65.759330
20
159.547901
11
65.925400
21
159.626787
0
LINE
8
annotation
62
1
39
211
10
65.925400
20
159.626787
11
66.074152
21
159.731955
0
LINE
8
annotation
62
1
39
211
10
66.074152
20
159.731955
11
66.202586
21
159.860363
0
LINE
8
annotation
62
1
39
211
10
66.202586
20
159.860363
11
66.307701
21
160.008966
0
LINE
8
annotation
62
1
39
211
10
66.307701
20
160.008966
11
66.386498
21
160.174724
0
LINE
8
annotation
62
1
39
211
10
66.386498
20
160.174724
11
66.435977
21
160.354593
0
LINE
8
annotation
62
1
39
211
10
66.435977
20
160.354593
11
66.453137
21
160.545533
0
LINE
8
annotation
62
1
39
211
10
66.453137
20
160.545533
11
66.453137
21
161.079234
0
LINE
8
annotation
62
1
39
211
10
66.453137
20
161.079234
11
66.453137
21
161.079234
0
LINE
8
annotation
62
1
39
211
10
66.453137
20
161.079234
11
66.435977
21
161.270094
0
LINE
8
annotation
62
1
39
211
10
66.435977
20
161.270094
11
66.386498
21
161.449921
0
LINE
8
annotation
62
1
39
211
10
66.386498
20
161.449921
11
66.307701
21
161.615666
0
LINE
8
annotation
62
1
39
211
10
66.307701
20
161.615666
11
66.202586
21
161.764280
0
LINE
8
annotation
62
1
39
211
10
66.202586
20
161.764280
11
66.074152
21
161.892712
0
LINE
8
annotation
62
1
39
211
10
66.074152
20
161.892712
11
65.925400
21
161.997912
0
LINE
8
annotation
62
1
39
211
10
65.925400
20
161.997912
11
65.759330
21
162.076831
0
LINE
8
annotation
62
1
39
211
10
65.759330
20
162.076831
11
65.578943
21
162.126419
0
LINE
8
annotation
62
1
39
211
10
65.578943
20
162.126419
11
65.387239
21
162.143626
0
LINE
8
annotation
62
1
39
211
10
65.387239
20
162.143626
11
64.853538
21
162.143626
0
LINE
8
annotation
62
1
39
211
10
64.853538
20
162.143626
11
65.387239
21
162.143626
0
LINE
8
annotation
62
1
39
211
10
65.387239
20
162.143626
11
65.387239
21
162.143626
0
LINE
8
annotation
62
1
39
211
10
65.387239
20
162.143626
11
65.578943
21
162.160837
0
LINE
8
annotation
62
1
39
211
10
65.578943
20
162.160837
11
65.759330
21
162.210454
0
LINE
8
annotation
62
1
39
211
10
65.759330
20
162.210454
11
65.925400
21
162.289452
0
LINE
8
annotation
62
1
39
211
10
65.925400
20
162.289452
11
66.074152
21
162.394805
0
LINE
8
annotation
62
1
39
211
10
66.074152
20
162.394805
11
66.202586
21
162.523488
0
LINE
8
annotation
62
1
39
211
10
66.202586
20
162.523488
11
66.307701
21
162.672478
0
LINE
8
annotation
62
1
39
211
10
66.307701
20
162.672478
11
66.386498
21
162.838747
0
LINE
8
annotation
62
1
39
211
10
66.386498
20
162.838747
11
66.435977
21
163.019273
0
LINE
8
annotation
62
1
39
211
10
66.435977
20
163.019273
11
66.453137
21
163.211029
0
LINE
8
annotation
62
1
39
211
10
66.453137
20
163.211029
11
66.453137
21
163.211029
0
LINE
8
annotation
62
1
39
211
10
66.453137
20
163.211029
11
66.435977
21
163.401888
0
LINE
8
annotation
62
1
39
211
10
66.435977
20
163.401888
11
66.386498
21
163.581716
0
LINE
8
annotation
62
1
39
211
10
66.386498
20
163.581716
11
66.307701
21
163.747461
0
LINE
8
annotation
62
1
39
211
10
66.307701
20
163.747461
11
66.202586
21
163.896075
0
LINE
8
annotation
62
1
39
211
10
66.202586
20
163.896075
11
66.074152
21
164.024507
0
LINE
8
annotation
62
1
39
211
10
66.074152
20
164.024507
11
65.925400
21
164.129707
0
LINE
8
annotation
62
1
39
211
10
65.925400
20
164.129707
11
65.759330
21
164.208626
0
LINE
8
annotation
62
1
39
211
10
65.759330
20
164.208626
11
65.578943
21
164.258214
0
LINE
8
annotation
62
1
39
211
10
65.578943
20
164.258214
11
65.387239
21
164.275421
0
LINE
8
annotation
62
1
39
211
10
65.387239
20
164.275421
11
64.321342
21
164.275421
0
LINE
8
annotation
62
1
39
211
10
78.435563
20
176.641035
11
75.770368
21
176.641035
0
LINE
8
annotation
62
1
39
211
10
75.770368
20
176.641035
11
76.834760
21
180.373933
0
LINE
8
annotation
62
1
39
211
10
77.636667
20
175.573933
11
77.636667
21
177.705728
0
LINE
8
annotation
62
1
39
211
10
82.996147
20
191.666876
11
84.062044
21
191.666876
0
LINE
8
annotation
62
1
39
211
10
84.062044
20
191.666876
11
84.062044
21
191.666876
0
LINE
8
annotation
62
1
39
211
10
84.062044
20
191.666876
11
84.253352
21
191.684077
0
LINE
8
annotation
62
1
39
211
10
84.253352
20
191.684077
11
84.433528
21
191.733666
0
LINE
8
annotation
62
1
39
211
10
84.433528
20
191.733666
11
84.599536
21
191.812624
0
LINE
8
annotation
62
1
39
211
10
84.599536
20
191.812624
11
84.748337
21
191.917929
0
LINE
8
annotation
62
1
39
211
10
84.748337
20
191.917929
11
84.876895
21
192.046563
0
LINE
8
annotation
62
1
39
211
10
84.876895
20
192.046563
11
84.982172
21
192.195505
0
LINE
8
annotation
62
1
39
211
10
84.982172
20
192.195505
11
85.061130
21
192.361735
0
LINE
8
annotation
62
1
39
211
10
85.061130
20
192.361735
11
85.110732
21
192.542232
0
LINE
8
annotation
62
1
39
211
10
85.110732
20
192.542232
11
85.127942
21
192.733978
0
LINE
8
annotation
62
1
39
211
10
85.127942
20
192.733978
11
85.127942
21
193.264970
0
LINE
8
annotation
62
1
39
211
10
85.127942
20
193.264970
11
85.127942
21
193.264970
0
LINE
8
annotation
62
1
39
211
10
85.127942
20
193.264970
11
85.110742
21
193.456623
0
LINE
8
annotation
62
1
39
211
10
85.110742
20
193.456623
11
85.061165
21
193.636871
0
LINE
8
annotation
62
1
39
211
10
85.061165
20
193.636871
11
84.982239
21
193.802740
0
LINE
8
annotation
62
1
39
211
10
84.982239
20
193.802740
11
84.876994
21
193.951255
0
LINE
8
annotation
62
1
39
211
10
84.876994
20
193.951255
11
84.748461
21
194.079439
0
LINE
8
annotation
62
1
39
211
10
84.748461
20
194.079439
11
84.599670
21
194.184317
0
LINE
8
annotation
62
1
39
211
10
84.599670
20
194.184317
11
84.433650
21
194.262914
0
LINE
8
annotation
62
1
39
211
10
84.433650
20
194.262914
11
84.253431
21
194.312254
0
LINE
8
annotation
62
1
39
211
10
84.253431
20
194.312254
11
84.062044
21
194.329362
0
LINE
8
annotation
62
1
39
211
10
84.062044
20
194.329362
11
82.996147
21
194.329362
0
LINE
8
annotation
62
1
39
211
10
82.996147
20
194.329362
11
82.996147
21
196.466876
0
LINE
8
annotation
62
1
39
211
10
82.996147
20
196.466876
11
85.127942
21
196.466876
0
LINE
8
annotation
62
1
39
211
10
88.170045
20
212.248276
11
88.170045
21
212.248276
0
LINE
8
annotation
62
1
39
211
10
88.170045
20
212.248276
11
87.904330
21
212.148649
0
LINE
8
annotation
62
1
39
211
10
87.904330
20
212.148649
11
87.660502
21
212.014413
0
LINE
8
annotation
62
1
39
211
10
87.660502
20
212.014413
11
87.441063
21
211.848932
0
LINE
8
annotation
62
1
39
211
10
87.441063
20
211.848932
11
87.248517
21
211.655569
0
LINE
8
annotation
62
1
39
211
10
87.248517
20
211.655569
11
87.085367
21
211.437687
0
LINE
8
annotation
62
1
39
211
10
87.085367
20
211.437687
11
86.954115
21
211.198649
0
LINE
8
annotation
62
1
39
211
10
86.954115
20
211.198649
11
86.857264
21
210.941818
0
LINE
8
annotation
62
1
39
211
10
86.857264
20
210.941818
11
86.797319
21
210.670558
0
LINE
8
annotation
62
1
39
211
10
86.797319
20
210.670558
11
86.776781
21
210.388232
0
LINE
8
annotation
62
1
39
211
10
86.776781
20
210.388232
11
86.776781
21
208.999945
0
LINE
8
annotation
62
1
39
211
10
86.776781
20
208.999945
11
86.776781
21
208.999945
0
LINE
8
annotation
62
1
39
211
10
86.776781
20
208.999945
11
86.791756
21
208.833090
0
LINE
8
annotation
62
1
39
211
10
86.791756
20
208.833090
11
86.834919
21
208.676022
0
LINE
8
annotation
62
1
39
211
10
86.834919
20
208.676022
11
86.903628
21
208.531371
0
LINE
8
annotation
62
1
39
211
10
86.903628
20
208.531371
11
86.995239
21
208.401763
0
LINE
8
annotation
62
1
39
211
10
86.995239
20
208.401763
11
87.107108
21
208.289827
0
LINE
8
annotation
62
1
39
211
10
87.107108
20
208.289827
11
87.236594
21
208.198191
0
LINE
8
annotation
62
1
39
211
10
87.236594
20
208.198191
11
87.381052
21
208.129483
0
LINE
8
annotation
62
1
39
211
10
87.381052
20
208.129483
11
87.537840
21
208.086331
0
LINE
8
annotation
62
1
39
211
10
87.537840
20
208.086331
11
87.704314
21
208.071363
0
LINE
8
annotation
62
1
39
211
10
87.704314
20
208.071363
11
87.704314
21
208.071363
0
LINE
8
annotation
62
1
39
211
10
87.704314
20
208.071363
11
87.871133
21
208.086331
0
LINE
8
annotation
62
1
39
211
10
87.871133
20
208.086331
11
88.028104
21
208.129483
0
LINE
8
annotation
62
1
39
211
10
88.028104
20
208.129483
11
88.172616
21
208.198191
0
LINE
8
annotation
62
1
39
211
10
88.172616
20
208.198191
11
88.302058
21
208.289827
0
LINE
8
annotation
62
1
39
211
10
88.302058
20
208.289827
11
88.413820
21
208.401763
0
LINE
8
annotation
62
1
39
211
10
88.413820
20
208.401763
11
88.505291
21
208.531371
0
LINE
8
annotation
62
1
39
211
10
88.505291
20
208.531371
11
88.573860
21
208.676022
0
LINE
8
annotation
62
1
39
211
10
88.573860
20
208.676022
11
88.616915
21
208.833090
0
LINE
8
annotation
62
1
39
211
10
88.616915
20
208.833090
11
88.631847
21
208.999945
0
LINE
8
annotation
62
1
39
211
10
88.631847
20
208.999945
11
88.631847
21
209.462009
0
LINE
8
annotation
62
1
39
211
10
88.631847
20
209.462009
11
88.631847
21
209.462009
0
LINE
8
annotation
62
1
39
211
10
88.631847
20
209.462009
11
88.616915
21
209.628783
0
LINE
8
annotation
62
1
39
211
10
88.616915
20
209.628783
11
88.573860
21
209.785633
0
LINE
8
annotation
62
1
39
211
10
88.573860
20
209.785633
11
88.505291
21
209.929971
0
LINE
8
annotation
62
1
39
211
10
88.505291
20
209.929971
11
88.413820
21
210.059207
0
LINE
8
annotation
62
1
39
211
10
88.413820
20
210.059207
11
88.302058
21
210.170752
0
LINE
8
annotation
62
1
39
211
10
88.302058
20
210.170752
11
88.172616
21
210.262016
0
LINE
8
annotation
62
1
39
211
10
88.172616
20
210.262016
11
88.028104
21
210.330410
0
LINE
8
annotation
62
1
39
211
10
88.028104
20
210.330410
11
87.871133
21
210.373345
0
LINE
8
annotation
62
1
39
211
10
87.871133
20
210.373345
11
87.704314
21
210.388232
0
LINE
8
annotation
62
1
39
211
10
87.704314
20
210.388232
11
86.776781
21
210.388232
0
LINE
8
annotation
62
1
39
211
10
86.660610
20
207.549249
11
88.749066
21
207.549249
0
LINE
8
annotation
62
1
39
211
10
40.468157
20
218.012366
11
41.535258
21
222.812366
0
LINE
8
annotation
62
1
39
211
10
41.535258
20
222.812366
11
39.400754
21
222.812366
0
LINE
8
annotation
62
1
39
211
10
41.535258
20
220.674852
11
40.468157
21
220.674852
0
LINE
8
annotation
62
1
39
211
10
138.470912
20
218.012366
11
139.538013
21
222.812366
0
LINE
8
annotation
62
1
39
211
10
139.538013
20
222.812366
11
137.403509
21
222.812366
0
LINE
8
annotation
62
1
39
211
10
139.538013
20
220.674852
11
138.470912
21
220.674852
0
LINE
8
annotation
62
1
39
211
10
144.106245
20
232.458992
11
144.106245
21
232.458992
0
LINE
8
annotation
62
1
39
211
10
144.106245
20
232.458992
11
144.123454
21
232.267340
0
LINE
8
annotation
62
1
39
211
10
144.123454
20
232.267340
11
144.173056
21
232.087091
0
LINE
8
annotation
62
1
39
211
10
144.173056
20
232.087091
11
144.252014
21
231.921222
0
LINE
8
annotation
62
1
39
211
10
144.252014
20
231.921222
11
144.357291
21
231.772707
0
LINE
8
annotation
62
1
39
211
10
144.357291
20
231.772707
11
144.485849
21
231.644523
0
LINE
8
annotation
62
1
39
211
10
144.485849
20
231.644523
11
144.634650
21
231.539645
0
LINE
8
annotation
62
1
39
211
10
144.634650
20
231.539645
11
144.800658
21
231.461048
0
LINE
8
annotation
62
1
39
211
10
144.800658
20
231.461048
11
144.980834
21
231.411708
0
LINE
8
annotation
62
1
39
211
10
144.980834
20
231.411708
11
145.172142
21
231.394600
0
LINE
8
annotation
62
1
39
211
10
145.172142
20
231.394600
11
145.172142
21
231.394600
0
LINE
8
annotation
62
1
39
211
10
145.172142
20
231.394600
11
145.363450
21
231.411708
0
LINE
8
annotation
62
1
39
211
10
145.363450
20
231.411708
11
145.543626
21
231.461048
0
LINE
8
annotation
62
1
39
211
10
145.543626
20
231.461048
11
145.709634
21
231.539645
0
LINE
8
annotation
62
1
39
211
10
145.709634
20
231.539645
11
145.858435
21
231.644523
0
LINE
8
annotation
62
1
39
211
10
145.858435
20
231.644523
11
145.986993
21
231.772707
0
LINE
8
annotation
62
1
39
211
10
145.986993
20
231.772707
11
146.092270
21
231.921222
0
LINE
8
annotation
62
1
39
211
10
146.092270
20
231.921222
11
146.171228
21
232.087091
0
LINE
8
annotation
62
1
39
211
10
146.171228
20
232.087091
11
146.220830
21
232.267340
0
LINE
8
annotation
62
1
39
211
10
146.220830
20
232.267340
11
146.238039
21
232.458992
0
LINE
8
annotation
62
1
39
211
10
146.238039
20
232.458992
11
146.238039
21
232.989984
0
LINE
8
annotation
62
1
39
211
10
146.238039
20
232.989984
11
146.238039
21
232.989984
0
LINE
8
annotation
62
1
39
211
10
146.238039
20
232.989984
11
146.220840
21
233.181730
0
LINE
8
annotation
62
1
39
211
10
146.220840
20
233.181730
11
146.171263
21
233.362228
0
LINE
8
annotation
62
1
39
211
10
146.171263
20
233.362228
11
146.092337
21
233.528457
0
LINE
8
annotation
62
1
39
211
10
146.092337
20
233.528457
11
145.987092
21
233.677399
0
LINE
8
annotation
62
1
39
211
10
145.987092
20
233.677399
11
145.858559
21
233.806033
0
LINE
8
annotation
62
1
39
211
10
145.858559
20
233.806033
11
145.709768
21
233.911338
0
LINE
8
annotation
62
1
39
211
10
145.709768
20
233.911338
11
145.543748
21
233.990296
0
LINE
8
annotation
62
1
39
211
10
145.543748
20
233.990296
11
145.363529
21
234.039885
0
LINE
8
annotation
62
1
39
211
10
145.363529
20
234.039885
11
145.172142
21
234.057086
0
LINE
8
annotation
62
1
39
211
10
145.172142
20
234.057086
11
145.172142
21
234.057086
0
LINE
8
annotation
62
1
39
211
10
145.172142
20
234.057086
11
144.980755
21
234.039875
0
LINE
8
annotation
62
1
39
211
10
144.980755
20
234.039875
11
144.800536
21
233.990261
0
LINE
8
annotation
62
1
39
211
10
144.800536
20
233.990261
11
144.634516
21
233.911272
0
LINE
8
annotation
62
1
39
211
10
144.634516
20
233.911272
11
144.485725
21
233.805934
0
LINE
8
annotation
62
1
39
211
10
144.485725
20
233.805934
11
144.357192
21
233.677275
0
LINE
8
annotation
62
1
39
211
10
144.357192
20
233.677275
11
144.251948
21
233.528324
0
LINE
8
annotation
62
1
39
211
10
144.251948
20
233.528324
11
144.173021
21
233.362106
0
LINE
8
annotation
62
1
39
211
10
144.173021
20
233.362106
11
144.123444
21
233.181651
0
LINE
8
annotation
62
1
39
211
10
144.123444
20
233.181651
11
144.106245
21
232.989984
0
LINE
8
annotation
62
1
39
211
10
144.106245
20
232.989984
11
144.106245
21
232.458992
0
LINE
8
annotation
62
1
39
211
10
146.238039
20
235.124488
11
146.238039
21
235.124488
0
LINE
8
annotation
62
1
39
211
10
146.238039
20
235.124488
11
146.220840
21
235.315348
0
LINE
8
annotation
62
1
39
211
10
146.220840
20
235.315348
11
146.171263
21
235.495176
0
LINE
8
annotation
62
1
39
211
10
146.171263
20
235.495176
11
146.092337
21
235.660921
0
LINE
8
annotation
62
1
39
211
10
146.092337
20
235.660921
11
145.987092
21
235.809535
0
LINE
8
annotation
62
1
39
211
10
145.987092
20
235.809535
11
145.858559
21
235.937966
0
LINE
8
annotation
62
1
39
211
10
145.858559
20
235.937966
11
145.709768
21
236.043167
0
LINE
8
annotation
62
1
39
211
10
145.709768
20
236.043167
11
145.543748
21
236.122086
0
LINE
8
annotation
62
1
39
211
10
145.543748
20
236.122086
11
145.363529
21
236.171674
0
LINE
8
annotation
62
1
39
211
10
145.363529
20
236.171674
11
145.172142
21
236.188881
0
LINE
8
annotation
62
1
39
211
10
145.172142
20
236.188881
11
145.172142
21
236.188881
0
LINE
8
annotation
62
1
39
211
10
145.172142
20
236.188881
11
144.980755
21
236.171674
0
LINE
8
annotation
62
1
39
211
10
144.980755
20
236.171674
11
144.800536
21
236.122086
0
LINE
8
annotation
62
1
39
211
10
144.800536
20
236.122086
11
144.634516
21
236.043167
0
LINE
8
annotation
62
1
39
211
10
144.634516
20
236.043167
11
144.485725
21
235.937966
0
LINE
8
annotation
62
1
39
211
10
144.485725
20
235.937966
11
144.357192
21
235.809535
0
LINE
8
annotation
62
1
39
211
10
144.357192
20
235.809535
11
144.251948
21
235.660921
0
LINE
8
annotation
62
1
39
211
10
144.251948
20
235.660921
11
144.173021
21
235.495176
0
LINE
8
annotation
62
1
39
211
10
144.173021
20
235.495176
11
144.123444
21
235.315348
0
LINE
8
annotation
62
1
39
211
10
144.123444
20
235.315348
11
144.106245
21
235.124488
0
LINE
8
annotation
62
1
39
211
10
144.106245
20
235.124488
11
144.106245
21
235.124488
0
LINE
8
annotation
62
1
39
211
10
144.106245
20
235.124488
11
144.123454
21
234.932733
0
LINE
8
annotation
62
1
39
211
10
144.123454
20
234.932733
11
144.173056
21
234.752207
0
LINE
8
annotation
62
1
39
211
10
144.173056
20
234.752207
11
144.252014
21
234.585937
0
LINE
8
annotation
62
1
39
211
10
144.252014
20
234.585937
11
144.357291
21
234.436948
0
LINE
8
annotation
62
1
39
211
10
144.357291
20
234.436948
11
144.485849
21
234.308264
0
LINE
8
annotation
62
1
39
211
10
144.485849
20
234.308264
11
144.634650
21
234.202911
0
LINE
8
annotation
62
1
39
211
10
144.634650
20
234.202911
11
144.800658
21
234.123914
0
LINE
8
annotation
62
1
39
211
10
144.800658
20
234.123914
11
144.980834
21
234.074297
0
LINE
8
annotation
62
1
39
211
10
144.980834
20
234.074297
11
145.172142
21
234.057086
0
LINE
8
annotation
62
1
39
211
10
145.172142
20
234.057086
11
145.172142
21
234.057086
0
LINE
8
annotation
62
1
39
211
10
145.172142
20
234.057086
11
145.363450
21
234.074297
0
LINE
8
annotation
62
1
39
211
10
145.363450
20
234.074297
11
145.543626
21
234.123914
0
LINE
8
annotation
62
1
39
211
10
145.543626
20
234.123914
11
145.709634
21
234.202911
0
LINE
8
annotation
62
1
39
211
10
145.709634
20
234.202911
11
145.858435
21
234.308264
0
LINE
8
annotation
62
1
39
211
10
145.858435
20
234.308264
11
145.986993
21
234.436948
0
LINE
8
annotation
62
1
39
211
10
145.986993
20
234.436948
11
146.092270
21
234.585937
0
LINE
8
annotation
62
1
39
211
10
146.092270
20
234.585937
11
146.171228
21
234.752207
0
LINE
8
annotation
62
1
39
211
10
146.171228
20
234.752207
11
146.220830
21
234.932733
0
LINE
8
annotation
62
1
39
211
10
146.220830
20
234.932733
11
146.238039
21
235.124488
0
LINE
8
annotation
62
1
39
211
10
95.184115
20
200.959152
11
89.069308
21
192.114645
0
LINE
8
annotation
62
1
39
211
10
89.069308
20
192.114645
11
82.953352
21
200.959152
0
LINE
8
annotation
62
1
39
211
10
89.069308
20
192.826391
11
89.069308
21
182.622782
0
LINE
8
annotation
62
1
39
211
10
112.087507
20
191.790967
11
102.062122
21
191.790967
0
LINE
8
annotation
62
1
39
211
10
127.105984
20
182.623208
11
118.962874
21
182.623208
0
LINE
8
annotation
62
1
39
211
10
118.962874
20
182.623208
11
126.487374
21
194.736687
0
LINE
8
annotation
62
1
39
211
10
126.487374
20
194.736687
11
126.487374
21
194.736687
0
LINE
8
annotation
62
1
39
211
10
126.487374
20
194.736687
11
126.496369
21
194.747818
0
LINE
8
annotation
62
1
39
211
10
126.496369
20
194.747818
11
126.504996
21
194.759044
0
LINE
8
annotation
62
1
39
211
10
126.504996
20
194.759044
11
126.513309
21
194.770458
0
LINE
8
annotation
62
1
39
211
10
126.513309
20
194.770458
11
126.521368
21
194.782157
0
LINE
8
annotation
62
1
39
211
10
126.521368
20
194.782157
11
126.529227
21
194.794234
0
LINE
8
annotation
62
1
39
211
10
126.529227
20
194.794234
11
126.536945
21
194.806785
0
LINE
8
annotation
62
1
39
211
10
126.536945
20
194.806785
11
126.544577
21
194.819903
0
LINE
8
annotation
62
1
39
211
10
126.544577
20
194.819903
11
126.552181
21
194.833683
0
LINE
8
annotation
62
1
39
211
10
126.552181
20
194.833683
11
126.559814
21
194.848221
0
LINE
8
annotation
62
1
39
211
10
126.559814
20
194.848221
11
126.559814
21
194.848221
0
LINE
8
annotation
62
1
39
211
10
126.559814
20
194.848221
11
126.870499
21
195.515288
0
LINE
8
annotation
62
1
39
211
10
126.870499
20
195.515288
11
127.051995
21
196.206761
0
LINE
8
annotation
62
1
39
211
10
127.051995
20
196.206761
11
127.108752
21
196.907017
0
LINE
8
annotation
62
1
39
211
10
127.108752
20
196.907017
11
127.045216
21
197.600430
0
LINE
8
annotation
62
1
39
211
10
127.045216
20
197.600430
11
126.865836
21
198.271377
0
LINE
8
annotation
62
1
39
211
10
126.865836
20
198.271377
11
126.575060
21
198.904232
0
LINE
8
annotation
62
1
39
211
10
126.575060
20
198.904232
11
126.177334
21
199.483372
0
LINE
8
annotation
62
1
39
211
10
126.177334
20
199.483372
11
125.677109
21
199.993172
0
LINE
8
annotation
62
1
39
211
10
125.677109
20
199.993172
11
125.078830
21
200.418007
0
LINE
8
annotation
62
1
39
211
10
125.078830
20
200.418007
11
125.078830
21
200.418007
0
LINE
8
annotation
62
1
39
211
10
125.078830
20
200.418007
11
124.409909
21
200.724277
0
LINE
8
annotation
62
1
39
211
10
124.409909
20
200.724277
11
123.717375
21
200.902978
0
LINE
8
annotation
62
1
39
211
10
123.717375
20
200.902978
11
123.016713
21
200.958130
0
LINE
8
annotation
62
1
39
211
10
123.016713
20
200.958130
11
122.323404
21
200.893757
0
LINE
8
annotation
62
1
39
211
10
122.323404
20
200.893757
11
121.652930
21
200.713880
0
LINE
8
annotation
62
1
39
211
10
121.652930
20
200.713880
11
121.020775
21
200.422521
0
LINE
8
annotation
62
1
39
211
10
121.020775
20
200.422521
11
120.442421
21
200.023703
0
LINE
8
annotation
62
1
39
211
10
120.442421
20
200.023703
11
119.933349
21
199.521447
0
LINE
8
annotation
62
1
39
211
10
119.933349
20
199.521447
11
119.509044
21
198.919776
0
LINE
8
annotation
62
1
39
211
10
119.509044
20
198.919776
11
118.974372
21
197.894126
0
LINE
8
boundary
62
5
39
2
10
308.253309
20
174.570045
11
310.225284
21
176.206537
0
LINE
8
boundary
62
5
39
2
10
310.225284
20
176.206537
11
312.114264
21
177.943025
0
LINE
8
boundary
62
5
39
2
10
312.114264
20
177.943025
11
314.803194
21
180.543772
0
LINE
8
boundary
62
5
39
2
10
314.803194
20
180.543772
11
316.601750
21
182.373763
0
LINE
8
boundary
62
5
39
2
10
316.601750
20
182.373763
11
318.303132
21
184.290032
0
LINE
8
boundary
62
5
39
2
10
318.303132
20
184.290032
11
320.772428
21
187.100154
0
LINE
8
boundary
62
5
39
2
10
320.772428
20
187.100154
11
322.370663
21
189.094855
0
LINE
8
boundary
62
5
39
2
10
322.370663
20
189.094855
11
324.604086
21
192.095864
0
LINE
8
boundary
62
5
39
2
10
324.604086
20
192.095864
11
326.094064
21
194.160634
0
LINE
8
boundary
62
5
39
2
10
326.094064
20
194.160634
11
327.471568
21
196.286702
0
LINE
8
boundary
62
5
39
2
10
327.471568
20
196.286702
11
329.454418
21
199.458851
0
LINE
8
boundary
62
5
39
2
10
329.454418
20
199.458851
11
330.716159
21
201.637162
0
LINE
8
boundary
62
5
39
2
10
330.716159
20
201.637162
11
332.435393
21
204.959581
0
LINE
8
boundary
62
5
39
2
10
332.435393
20
204.959581
11
333.579029
21
207.180914
0
LINE
8
boundary
62
5
39
2
10
333.579029
20
207.180914
11
334.603176
21
209.436003
0
LINE
8
boundary
62
5
39
2
10
334.603176
20
209.436003
11
336.047478
21
212.886832
0
LINE
8
boundary
62
5
39
2
10
336.047478
20
212.886832
11
336.951660
21
215.166481
0
LINE
8
boundary
62
5
39
2
10
336.951660
20
215.166481
11
337.736302
21
217.461672
0
LINE
8
boundary
62
5
39
2
10
337.736302
20
217.461672
11
338.896173
21
221.018206
0
LINE
8
boundary
62
5
39
2
10
338.896173
20
221.018206
11
339.562527
21
223.320196
0
LINE
8
boundary
62
5
39
2
10
339.562527
20
223.320196
11
340.112625
21
225.620604
0
LINE
8
boundary
62
5
39
2
10
340.112625
20
225.620604
11
340.980431
21
229.259442
0
LINE
8
boundary
62
5
39
2
10
340.980431
20
229.259442
11
341.417015
21
231.550328
0
LINE
8
boundary
62
5
39
2
10
341.417015
20
231.550328
11
341.987050
21
235.247531
0
LINE
8
boundary
62
5
39
2
10
341.987050
20
235.247531
11
342.313480
21
237.521457
0
LINE
8
boundary
62
5
39
2
10
342.313480
20
237.521457
11
342.533670
21
239.771530
0
LINE
8
boundary
62
5
39
2
10
342.533670
20
239.771530
11
342.802178
21
243.502766
0
LINE
8
boundary
62
5
39
2
10
342.802178
20
243.502766
11
342.916638
21
245.722789
0
LINE
8
boundary
62
5
39
2
10
342.916638
20
245.722789
11
342.022546
21
245.748905
0
LINE
8
boundary
62
5
39
2
10
342.022546
20
245.748905
11
284.690221
21
247.423598
0
LINE
8
boundary
62
5
39
2
10
284.690221
20
247.423598
11
283.741115
21
247.451321
0
LINE
8
boundary
62
5
39
2
10
283.741115
20
247.451321
11
282.847024
21
247.477437
0
LINE
8
boundary
62
5
39
2
10
282.847024
20
247.477437
11
282.709006
21
245.782870
0
LINE
8
boundary
62
5
39
2
10
282.709006
20
245.782870
11
282.487974
21
243.555390
0
LINE
8
boundary
62
5
39
2
10
282.487974
20
243.555390
11
282.192715
21
241.825299
0
LINE
8
boundary
62
5
39
2
10
282.192715
20
241.825299
11
281.688138
21
239.644490
0
LINE
8
boundary
62
5
39
2
10
281.688138
20
239.644490
11
281.220868
21
237.900730
0
LINE
8
boundary
62
5
39
2
10
281.220868
20
237.900730
11
280.441056
21
235.802536
0
LINE
8
boundary
62
5
39
2
10
280.441056
20
235.802536
11
280.383936
21
235.244750
0
LINE
8
boundary
62
5
39
2
10
280.383936
20
235.244750
11
310.650838
21
235.244751
0
LINE
8
boundary
62
5
39
2
10
310.650838
20
235.244751
11
310.650837
21
232.344751
0
LINE
8
boundary
62
5
39
2
10
310.650837
20
232.344751
11
278.966952
21
232.344751
0
LINE
8
boundary
62
5
39
2
10
278.966952
20
232.344751
11
277.924629
21
230.394086
0
LINE
8
boundary
62
5
39
2
10
277.924629
20
230.394086
11
276.918198
21
228.765186
0
LINE
8
boundary
62
5
39
2
10
276.918198
20
228.765186
11
275.630810
21
226.934029
0
LINE
8
boundary
62
5
39
2
10
275.630810
20
226.934029
11
274.454431
21
225.398585
0
LINE
8
boundary
62
5
39
2
10
274.454431
20
225.398585
11
272.943043
21
223.747450
0
LINE
8
boundary
62
5
39
2
10
272.943043
20
223.747450
11
271.610935
21
222.331315
0
LINE
8
boundary
62
5
39
2
10
271.610935
20
222.331315
11
271.338319
21
221.862366
0
LINE
8
boundary
62
5
39
2
10
271.338319
20
221.862366
11
303.949537
21
221.862367
0
LINE
8
boundary
62
5
39
2
10
303.949537
20
221.862367
11
303.949537
21
218.962366
0
LINE
8
boundary
62
5
39
2
10
303.949537
20
218.962366
11
267.507618
21
218.962366
0
LINE
8
boundary
62
5
39
2
10
267.507618
20
218.962366
11
266.850467
21
218.499587
0
LINE
8
boundary
62
5
39
2
10
266.850467
20
218.499587
11
264.969119
21
217.286717
0
LINE
8
boundary
62
5
39
2
10
264.969119
20
217.286717
11
263.301084
21
216.346565
0
LINE
8
boundary
62
5
39
2
10
263.301084
20
216.346565
11
261.279856
21
215.384714
0
LINE
8
boundary
62
5
39
2
10
261.279856
20
215.384714
11
259.553196
21
214.625628
0
LINE
8
boundary
62
5
39
2
10
259.553196
20
214.625628
11
257.795928
21
214.049425
0
LINE
8
boundary
62
5
39
2
10
257.795928
20
214.049425
11
255.668124
21
213.354447
0
LINE
8
boundary
62
5
39
2
10
255.668124
20
213.354447
11
254.786445
21
213.134027
0
LINE
8
boundary
62
5
39
2
10
254.786445
20
213.134027
11
253.906995
21
212.957643
0
LINE
8
boundary
62
5
39
2
10
253.906995
20
212.957643
11
251.707696
21
212.540990
0
LINE
8
boundary
62
5
39
2
10
251.707696
20
212.540990
11
250.833431
21
212.407492
0
LINE
8
boundary
62
5
39
2
10
250.833431
20
212.407492
11
249.967132
21
212.315501
0
LINE
8
boundary
62
5
39
2
10
249.967132
20
212.315501
11
249.111355
21
212.263439
0
LINE
8
boundary
62
5
39
2
10
249.111355
20
212.263439
11
246.876794
21
212.131980
0
LINE
8
boundary
62
5
39
2
10
246.876794
20
212.131980
11
246.033869
21
212.114237
0
LINE
8
boundary
62
5
39
2
10
246.033869
20
212.114237
11
244.040619
21
212.114237
0
LINE
8
boundary
62
5
39
2
10
244.040619
20
212.114237
11
238.561426
21
212.114237
0
LINE
8
boundary
62
5
39
2
10
238.561426
20
212.114237
11
234.615435
21
212.114237
0
LINE
8
boundary
62
5
39
2
10
234.615435
20
212.114237
11
233.580217
21
212.117011
0
LINE
8
boundary
62
5
39
2
10
233.580217
20
212.117011
11
232.603454
21
212.116830
0
LINE
8
boundary
62
5
39
2
10
232.603454
20
212.116830
11
232.603456
21
212.727150
0
LINE
8
boundary
62
5
39
2
10
232.603456
20
212.727150
11
232.603451
21
216.406098
0
LINE
8
boundary
62
5
39
2
10
232.603451
20
216.406098
11
232.603450
21
224.045329
0
LINE
8
boundary
62
5
39
2
10
232.603450
20
224.045329
11
219.808326
21
224.045329
0
LINE
8
boundary
62
5
39
2
10
219.808326
20
224.045329
11
208.412089
21
224.045329
0
LINE
8
boundary
62
5
39
2
10
208.412089
20
224.045329
11
187.440000
21
224.045329
0
LINE
8
boundary
62
5
39
2
10
187.440000
20
224.045329
11
184.629837
21
224.045329
0
LINE
8
boundary
62
5
39
2
10
184.629837
20
224.045329
11
182.556613
21
222.012367
0
LINE
8
boundary
62
5
39
2
10
182.556613
20
222.012367
11
206.543601
21
221.862366
0
LINE
8
boundary
62
5
39
2
10
206.543601
20
221.862366
11
206.543601
21
218.962367
0
LINE
8
boundary
62
5
39
2
10
206.543601
20
218.962367
11
179.446211
21
218.962367
0
LINE
8
boundary
62
5
39
2
10
179.446211
20
218.962367
11
174.516084
21
214.127976
0
LINE
8
boundary
62
5
39
2
10
174.516084
20
214.127976
11
174.516085
21
211.759820
0
LINE
8
boundary
62
5
39
2
10
174.516085
20
211.759820
11
254.668640
21
211.609820
0
LINE
8
boundary
62
5
39
2
10
254.668640
20
211.609820
11
254.668640
21
208.709820
0
LINE
8
boundary
62
5
39
2
10
254.668640
20
208.709820
11
174.611084
21
208.709820
0
LINE
8
boundary
62
5
39
2
10
174.611084
20
208.709820
11
174.516084
21
195.666876
0
LINE
8
boundary
62
5
39
2
10
174.516084
20
195.666876
11
250.246946
21
195.516876
0
LINE
8
boundary
62
5
39
2
10
250.246946
20
195.516876
11
250.246946
21
192.616876
0
LINE
8
boundary
62
5
39
2
10
250.246946
20
192.616876
11
174.611084
21
192.616877
0
LINE
8
boundary
62
5
39
2
10
174.611084
20
192.616877
11
174.516084
21
179.573933
0
LINE
8
boundary
62
5
39
2
10
174.516084
20
179.573933
11
243.290779
21
179.423933
0
LINE
8
boundary
62
5
39
2
10
243.290779
20
179.423933
11
243.290778
21
176.523933
0
LINE
8
boundary
62
5
39
2
10
243.290778
20
176.523933
11
174.611084
21
176.523933
0
LINE
8
boundary
62
5
39
2
10
174.611084
20
176.523933
11
174.516084
21
175.124624
0
LINE
8
boundary
62
5
39
2
10
174.516084
20
175.124624
11
174.516084
21
163.480990
0
LINE
8
boundary
62
5
39
2
10
174.516084
20
163.480990
11
231.579889
21
163.330990
0
LINE
8
boundary
62
5
39
2
10
231.579889
20
163.330990
11
231.579889
21
160.430990
0
LINE
8
boundary
62
5
39
2
10
231.579889
20
160.430990
11
174.611084
21
160.430990
0
LINE
8
boundary
62
5
39
2
10
174.611084
20
160.430990
11
174.516084
21
151.318051
0
LINE
8
boundary
62
5
39
2
10
174.516084
20
151.318051
11
178.676887
21
147.238047
0
LINE
8
boundary
62
5
39
2
10
178.676887
20
147.238047
11
206.158939
21
147.238046
0
LINE
8
boundary
62
5
39
2
10
206.158939
20
147.238046
11
206.158939
21
144.338047
0
LINE
8
boundary
62
5
39
2
10
206.158939
20
144.338047
11
181.882290
21
144.338047
0
LINE
8
boundary
62
5
39
2
10
181.882290
20
144.338047
11
184.629837
21
141.400702
0
LINE
8
boundary
62
5
39
2
10
184.629837
20
141.400702
11
187.440000
21
141.400702
0
LINE
8
boundary
62
5
39
2
10
187.440000
20
141.400702
11
208.412089
21
141.400702
0
LINE
8
boundary
62
5
39
2
10
208.412089
20
141.400702
11
219.808326
21
141.400702
0
LINE
8
boundary
62
5
39
2
10
219.808326
20
141.400702
11
232.603451
21
141.400702
0
LINE
8
boundary
62
5
39
2
10
232.603451
20
141.400702
11
232.603452
21
148.196111
0
LINE
8
boundary
62
5
39
2
10
232.603452
20
148.196111
11
232.603457
21
151.468686
0
LINE
8
boundary
62
5
39
2
10
232.603457
20
151.468686
11
232.603455
21
152.016410
0
LINE
8
boundary
62
5
39
2
10
232.603455
20
152.016410
11
233.580217
21
152.016228
0
LINE
8
boundary
62
5
39
2
10
233.580217
20
152.016228
11
234.615435
21
152.019002
0
LINE
8
boundary
62
5
39
2
10
234.615435
20
152.019002
11
238.561425
21
152.019002
0
LINE
8
boundary
62
5
39
2
10
238.561425
20
152.019002
11
244.040618
21
152.019002
0
LINE
8
boundary
62
5
39
2
10
244.040618
20
152.019002
11
246.033869
21
152.019002
0
LINE
8
boundary
62
5
39
2
10
246.033869
20
152.019002
11
248.256494
21
152.059321
0
LINE
8
boundary
62
5
39
2
10
248.256494
20
152.059321
11
251.994614
21
152.203310
0
LINE
8
boundary
62
5
39
2
10
251.994614
20
152.203310
11
254.250779
21
152.348300
0
LINE
8
boundary
62
5
39
2
10
254.250779
20
152.348300
11
256.534328
21
152.598672
0
LINE
8
boundary
62
5
39
2
10
256.534328
20
152.598672
11
260.248470
21
153.045151
0
LINE
8
boundary
62
5
39
2
10
260.248470
20
153.045151
11
262.552651
21
153.405050
0
LINE
8
boundary
62
5
39
2
10
262.552651
20
153.405050
11
266.218397
21
154.151088
0
LINE
8
boundary
62
5
39
2
10
266.218397
20
154.151088
11
268.535879
21
154.624123
0
LINE
8
boundary
62
5
39
2
10
268.535879
20
154.624123
11
270.858821
21
155.213296
0
LINE
8
boundary
62
5
39
2
10
270.858821
20
155.213296
11
274.452036
21
156.253974
0
LINE
8
boundary
62
5
39
2
10
274.452036
20
156.253974
11
276.772130
21
156.961592
0
LINE
8
boundary
62
5
39
2
10
276.772130
20
156.961592
11
279.080679
21
157.789210
0
LINE
8
boundary
62
5
39
2
10
279.080679
20
157.789210
11
282.577735
21
159.117685
0
LINE
8
boundary
62
5
39
2
10
282.577735
20
159.117685
11
284.865742
21
160.066016
0
LINE
8
boundary
62
5
39
2
10
284.865742
20
160.066016
11
287.123999
21
161.134898
0
LINE
8
boundary
62
5
39
2
10
287.123999
20
161.134898
11
290.501877
21
162.742432
0
LINE
8
boundary
62
5
39
2
10
290.501877
20
162.742432
11
292.721075
21
163.930783
0
LINE
8
boundary
62
5
39
2
10
292.721075
20
163.930783
11
295.957557
21
165.806797
0
LINE
8
boundary
62
5
39
2
10
295.957557
20
165.806797
11
298.128402
21
167.112589
0
LINE
8
boundary
62
5
39
2
10
298.128402
20
167.112589
11
300.241738
21
168.532842
0
LINE
8
boundary
62
5
39
2
10
300.241738
20
168.532842
11
303.315524
21
170.664995
0
LINE
8
boundary
62
5
39
2
10
303.315524
20
170.664995
11
305.362440
21
172.195786
0
LINE
8
boundary
62
5
39
2
10
305.362440
20
172.195786
11
308.253309
21
174.570045
0
LINE
8
annotation
62
1
39
211
10
213.274235
20
143.388007
11
211.142440
21
143.388007
0
LINE
8
annotation
62
1
39
211
10
211.142440
20
143.388007
11
213.112288
21
146.559210
0
LINE
8
annotation
62
1
39
211
10
213.112288
20
146.559210
11
213.112288
21
146.559210
0
LINE
8
annotation
62
1
39
211
10
213.112288
20
146.559210
11
213.114643
21
146.562124
0
LINE
8
annotation
62
1
39
211
10
213.114643
20
146.562124
11
213.116901
21
146.565063
0
LINE
8
annotation
62
1
39
211
10
213.116901
20
146.565063
11
213.119078
21
146.568051
0
LINE
8
annotation
62
1
39
211
10
213.119078
20
146.568051
11
213.121187
21
146.571114
0
LINE
8
annotation
62
1
39
211
10
213.121187
20
146.571114
11
213.123245
21
146.574276
0
LINE
8
annotation
62
1
39
211
10
213.123245
20
146.574276
11
213.125265
21
146.577561
0
LINE
8
annotation
62
1
39
211
10
213.125265
20
146.577561
11
213.127263
21
146.580995
0
LINE
8
annotation
62
1
39
211
10
213.127263
20
146.580995
11
213.129254
21
146.584603
0
LINE
8
annotation
62
1
39
211
10
213.129254
20
146.584603
11
213.131252
21
146.588409
0
LINE
8
annotation
62
1
39
211
10
213.131252
20
146.588409
11
213.131252
21
146.588409
0
LINE
8
annotation
62
1
39
211
10
213.131252
20
146.588409
11
213.212587
21
146.763041
0
LINE
8
annotation
62
1
39
211
10
213.212587
20
146.763041
11
213.260101
21
146.944063
0
LINE
8
annotation
62
1
39
211
10
213.260101
20
146.944063
11
213.274959
21
147.127383
0
LINE
8
annotation
62
1
39
211
10
213.274959
20
147.127383
11
213.258326
21
147.308913
0
LINE
8
annotation
62
1
39
211
10
213.258326
20
147.308913
11
213.211366
21
147.484561
0
LINE
8
annotation
62
1
39
211
10
213.211366
20
147.484561
11
213.135243
21
147.650237
0
LINE
8
annotation
62
1
39
211
10
213.135243
20
147.650237
11
213.031122
21
147.801851
0
LINE
8
annotation
62
1
39
211
10
213.031122
20
147.801851
11
212.900168
21
147.935312
0
LINE
8
annotation
62
1
39
211
10
212.900168
20
147.935312
11
212.743544
21
148.046530
0
LINE
8
annotation
62
1
39
211
10
212.743544
20
148.046530
11
212.743544
21
148.046530
0
LINE
8
annotation
62
1
39
211
10
212.743544
20
148.046530
11
212.568426
21
148.126709
0
LINE
8
annotation
62
1
39
211
10
212.568426
20
148.126709
11
212.387127
21
148.173491
0
LINE
8
annotation
62
1
39
211
10
212.387127
20
148.173491
11
212.203699
21
148.187929
0
LINE
8
annotation
62
1
39
211
10
212.203699
20
148.187929
11
212.022197
21
148.171077
0
LINE
8
annotation
62
1
39
211
10
212.022197
20
148.171077
11
211.846673
21
148.123987
0
LINE
8
annotation
62
1
39
211
10
211.846673
20
148.123987
11
211.681180
21
148.047712
0
LINE
8
annotation
62
1
39
211
10
211.681180
20
148.047712
11
211.529772
21
147.943305
0
LINE
8
annotation
62
1
39
211
10
211.529772
20
147.943305
11
211.396502
21
147.811819
0
LINE
8
annotation
62
1
39
211
10
211.396502
20
147.811819
11
211.285422
21
147.654306
0
LINE
8
annotation
62
1
39
211
10
211.285422
20
147.654306
11
211.145450
21
147.385800
0
LINE
8
annotation
62
1
39
211
10
236.563390
20
159.481140
11
237.629287
21
159.481140
0
LINE
8
annotation
62
1
39
211
10
237.629287
20
159.481140
11
237.629287
21
159.481140
0
LINE
8
annotation
62
1
39
211
10
237.629287
20
159.481140
11
237.820991
21
159.498337
0
LINE
8
annotation
62
1
39
211
10
237.820991
20
159.498337
11
238.001378
21
159.547901
0
LINE
8
annotation
62
1
39
211
10
238.001378
20
159.547901
11
238.167448
21
159.626787
0
LINE
8
annotation
62
1
39
211
10
238.167448
20
159.626787
11
238.316200
21
159.731956
0
LINE
8
annotation
62
1
39
211
10
238.316200
20
159.731956
11
238.444633
21
159.860363
0
LINE
8
annotation
62
1
39
211
10
238.444633
20
159.860363
11
238.549749
21
160.008966
0
LINE
8
annotation
62
1
39
211
10
238.549749
20
160.008966
11
238.628546
21
160.174724
0
LINE
8
annotation
62
1
39
211
10
238.628546
20
160.174724
11
238.678025
21
160.354594
0
LINE
8
annotation
62
1
39
211
10
238.678025
20
160.354594
11
238.695184
21
160.545533
0
LINE
8
annotation
62
1
39
211
10
238.695184
20
160.545533
11
238.695184
21
161.079234
0
LINE
8
annotation
62
1
39
211
10
238.695184
20
161.079234
11
238.695184
21
161.079234
0
LINE
8
annotation
62
1
39
211
10
238.695184
20
161.079234
11
238.678025
21
161.270094
0
LINE
8
annotation
62
1
39
211
10
238.678025
20
161.270094
11
238.628546
21
161.449921
0
LINE
8
annotation
62
1
39
211
10
238.628546
20
161.449921
11
238.549749
21
161.615667
0
LINE
8
annotation
62
1
39
211
10
238.549749
20
161.615667
11
238.444633
21
161.764280
0
LINE
8
annotation
62
1
39
211
10
238.444633
20
161.764280
11
238.316200
21
161.892712
0
LINE
8
annotation
62
1
39
211
10
238.316200
20
161.892712
11
238.167448
21
161.997912
0
LINE
8
annotation
62
1
39
211
10
238.167448
20
161.997912
11
238.001378
21
162.076831
0
LINE
8
annotation
62
1
39
211
10
238.001378
20
162.076831
11
237.820991
21
162.126419
0
LINE
8
annotation
62
1
39
211
10
237.820991
20
162.126419
11
237.629287
21
162.143626
0
LINE
8
annotation
62
1
39
211
10
237.629287
20
162.143626
11
237.095586
21
162.143626
0
LINE
8
annotation
62
1
39
211
10
237.095586
20
162.143626
11
237.629287
21
162.143626
0
LINE
8
annotation
62
1
39
211
10
237.629287
20
162.143626
11
237.629287
21
162.143626
0
LINE
8
annotation
62
1
39
211
10
237.629287
20
162.143626
11
237.820991
21
162.160837
0
LINE
8
annotation
62
1
39
211
10
237.820991
20
162.160837
11
238.001378
21
162.210454
0
LINE
8
annotation
62
1
39
211
10
238.001378
20
162.210454
11
238.167448
21
162.289452
0
LINE
8
annotation
62
1
39
211
10
238.167448
20
162.289452
11
238.316200
21
162.394805
0
LINE
8
annotation
62
1
39
211
10
238.316200
20
162.394805
11
238.444633
21
162.523489
0
LINE
8
annotation
62
1
39
211
10
238.444633
20
162.523489
11
238.549749
21
162.672478
0
LINE
8
annotation
62
1
39
211
10
238.549749
20
162.672478
11
238.628546
21
162.838748
0
LINE
8
annotation
62
1
39
211
10
238.628546
20
162.838748
11
238.678025
21
163.019273
0
LINE
8
annotation
62
1
39
211
10
238.678025
20
163.019273
11
238.695184
21
163.211029
0
LINE
8
annotation
62
1
39
211
10
238.695184
20
163.211029
11
238.695184
21
163.211029
0
LINE
8
annotation
62
1
39
211
10
238.695184
20
163.211029
11
238.678025
21
163.401889
0
LINE
8
annotation
62
1
39
211
10
238.678025
20
163.401889
11
238.628546
21
163.581716
0
LINE
8
annotation
62
1
39
211
10
238.628546
20
163.581716
11
238.549749
21
163.747461
0
LINE
8
annotation
62
1
39
211
10
238.549749
20
163.747461
11
238.444633
21
163.896075
0
LINE
8
annotation
62
1
39
211
10
238.444633
20
163.896075
11
238.316200
21
164.024507
0
LINE
8
annotation
62
1
39
211
10
238.316200
20
164.024507
11
238.167448
21
164.129707
0
LINE
8
annotation
62
1
39
211
10
238.167448
20
164.129707
11
238.001378
21
164.208626
0
LINE
8
annotation
62
1
39
211
10
238.001378
20
164.208626
11
237.820991
21
164.258214
0
LINE
8
annotation
62
1
39
211
10
237.820991
20
164.258214
11
237.629287
21
164.275421
0
LINE
8
annotation
62
1
39
211
10
237.629287
20
164.275421
11
236.563390
21
164.275421
0
LINE
8
annotation
62
1
39
211
10
250.672774
20
176.641035
11
248.007579
21
176.641035
0
LINE
8
annotation
62
1
39
211
10
248.007579
20
176.641035
11
249.071971
21
180.373933
0
LINE
8
annotation
62
1
39
211
10
249.873878
20
175.573933
11
249.873878
21
177.705728
0
LINE
8
annotation
62
1
39
211
10
255.230447
20
191.666877
11
256.296344
21
191.666877
0
LINE
8
annotation
62
1
39
211
10
256.296344
20
191.666877
11
256.296344
21
191.666877
0
LINE
8
annotation
62
1
39
211
10
256.296344
20
191.666877
11
256.487652
21
191.684077
0
LINE
8
annotation
62
1
39
211
10
256.487652
20
191.684077
11
256.667828
21
191.733667
0
LINE
8
annotation
62
1
39
211
10
256.667828
20
191.733667
11
256.833836
21
191.812624
0
LINE
8
annotation
62
1
39
211
10
256.833836
20
191.812624
11
256.982637
21
191.917930
0
LINE
8
annotation
62
1
39
211
10
256.982637
20
191.917930
11
257.111195
21
192.046563
0
LINE
8
annotation
62
1
39
211
10
257.111195
20
192.046563
11
257.216472
21
192.195505
0
LINE
8
annotation
62
1
39
211
10
257.216472
20
192.195505
11
257.295430
21
192.361735
0
LINE
8
annotation
62
1
39
211
10
257.295430
20
192.361735
11
257.345032
21
192.542232
0
LINE
8
annotation
62
1
39
211
10
257.345032
20
192.542232
11
257.362241
21
192.733978
0
LINE
8
annotation
62
1
39
211
10
257.362241
20
192.733978
11
257.362241
21
193.264970
0
LINE
8
annotation
62
1
39
211
10
257.362241
20
193.264970
11
257.362241
21
193.264970
0
LINE
8
annotation
62
1
39
211
10
257.362241
20
193.264970
11
257.345042
21
193.456623
0
LINE
8
annotation
62
1
39
211
10
257.345042
20
193.456623
11
257.295465
21
193.636871
0
LINE
8
annotation
62
1
39
211
10
257.295465
20
193.636871
11
257.216539
21
193.802741
0
LINE
8
annotation
62
1
39
211
10
257.216539
20
193.802741
11
257.111294
21
193.951255
0
LINE
8
annotation
62
1
39
211
10
257.111294
20
193.951255
11
256.982761
21
194.079439
0
LINE
8
annotation
62
1
39
211
10
256.982761
20
194.079439
11
256.833970
21
194.184317
0
LINE
8
annotation
62
1
39
211
10
256.833970
20
194.184317
11
256.667950
21
194.262914
0
LINE
8
annotation
62
1
39
211
10
256.667950
20
194.262914
11
256.487731
21
194.312254
0
LINE
8
annotation
62
1
39
211
10
256.487731
20
194.312254
11
256.296344
21
194.329362
0
LINE
8
annotation
62
1
39
211
10
256.296344
20
194.329362
11
255.230447
21
194.329362
0
LINE
8
annotation
62
1
39
211
10
255.230447
20
194.329362
11
255.230447
21
196.466877
0
LINE
8
annotation
62
1
39
211
10
255.230447
20
196.466877
11
257.362241
21
196.466877
0
LINE
8
annotation
62
1
39
211
10
260.860356
20
212.415521
11
260.860356
21
212.415521
0
LINE
8
annotation
62
1
39
211
10
260.860356
20
212.415521
11
260.573362
21
212.307916
0
LINE
8
annotation
62
1
39
211
10
260.573362
20
212.307916
11
260.310008
21
212.162931
0
LINE
8
annotation
62
1
39
211
10
260.310008
20
212.162931
11
260.072996
21
211.984198
0
LINE
8
annotation
62
1
39
211
10
260.072996
20
211.984198
11
259.865031
21
211.775350
0
LINE
8
annotation
62
1
39
211
10
259.865031
20
211.775350
11
259.688815
21
211.540020
0
LINE
8
annotation
62
1
39
211
10
259.688815
20
211.540020
11
259.547052
21
211.281839
0
LINE
8
annotation
62
1
39
211
10
259.547052
20
211.281839
11
259.442446
21
211.004442
0
LINE
8
annotation
62
1
39
211
10
259.442446
20
211.004442
11
259.377700
21
210.711459
0
LINE
8
annotation
62
1
39
211
10
259.377700
20
210.711459
11
259.355517
21
210.406524
0
LINE
8
annotation
62
1
39
211
10
259.355517
20
210.406524
11
259.355517
21
208.907061
0
LINE
8
annotation
62
1
39
211
10
259.355517
20
208.907061
11
259.355517
21
208.907061
0
LINE
8
annotation
62
1
39
211
10
259.355517
20
208.907061
11
259.371692
21
208.726844
0
LINE
8
annotation
62
1
39
211
10
259.371692
20
208.726844
11
259.418312
21
208.557199
0
LINE
8
annotation
62
1
39
211
10
259.418312
20
208.557199
11
259.492523
21
208.400963
0
LINE
8
annotation
62
1
39
211
10
259.492523
20
208.400963
11
259.591470
21
208.260977
0
LINE
8
annotation
62
1
39
211
10
259.591470
20
208.260977
11
259.712298
21
208.140077
0
LINE
8
annotation
62
1
39
211
10
259.712298
20
208.140077
11
259.852153
21
208.041103
0
LINE
8
annotation
62
1
39
211
10
259.852153
20
208.041103
11
260.008179
21
207.966893
0
LINE
8
annotation
62
1
39
211
10
260.008179
20
207.966893
11
260.177523
21
207.920285
0
LINE
8
annotation
62
1
39
211
10
260.177523
20
207.920285
11
260.357328
21
207.904118
0
LINE
8
annotation
62
1
39
211
10
260.357328
20
207.904118
11
260.357328
21
207.904118
0
LINE
8
annotation
62
1
39
211
10
260.357328
20
207.904118
11
260.537506
21
207.920285
0
LINE
8
annotation
62
1
39
211
10
260.537506
20
207.920285
11
260.707048
21
207.966893
0
LINE
8
annotation
62
1
39
211
10
260.707048
20
207.966893
11
260.863132
21
208.041103
0
LINE
8
annotation
62
1
39
211
10
260.863132
20
208.041103
11
261.002941
21
208.140077
0
LINE
8
annotation
62
1
39
211
10
261.002941
20
208.140077
11
261.123653
21
208.260977
0
LINE
8
annotation
62
1
39
211
10
261.123653
20
208.260977
11
261.222448
21
208.400963
0
LINE
8
annotation
62
1
39
211
10
261.222448
20
208.400963
11
261.296508
21
208.557199
0
LINE
8
annotation
62
1
39
211
10
261.296508
20
208.557199
11
261.343011
21
208.726844
0
LINE
8
annotation
62
1
39
211
10
261.343011
20
208.726844
11
261.359139
21
208.907061
0
LINE
8
annotation
62
1
39
211
10
261.359139
20
208.907061
11
261.359139
21
209.406128
0
LINE
8
annotation
62
1
39
211
10
261.359139
20
209.406128
11
261.359139
21
209.406128
0
LINE
8
annotation
62
1
39
211
10
261.359139
20
209.406128
11
261.343011
21
209.586257
0
LINE
8
annotation
62
1
39
211
10
261.343011
20
209.586257
11
261.296508
21
209.755668
0
LINE
8
annotation
62
1
39
211
10
261.296508
20
209.755668
11
261.222448
21
209.911565
0
LINE
8
annotation
62
1
39
211
10
261.222448
20
209.911565
11
261.123653
21
210.051150
0
LINE
8
annotation
62
1
39
211
10
261.123653
20
210.051150
11
261.002941
21
210.171627
0
LINE
8
annotation
62
1
39
211
10
261.002941
20
210.171627
11
260.863132
21
210.270200
0
LINE
8
annotation
62
1
39
211
10
260.863132
20
210.270200
11
260.707048
21
210.344071
0
LINE
8
annotation
62
1
39
211
10
260.707048
20
210.344071
11
260.537506
21
210.390445
0
LINE
8
annotation
62
1
39
211
10
260.537506
20
210.390445
11
260.357328
21
210.406524
0
LINE
8
annotation
62
1
39
211
10
260.357328
20
210.406524
11
259.355517
21
210.406524
0
LINE
8
annotation
62
1
39
211
10
259.230043
20
207.340193
11
261.485745
21
207.340193
0
LINE
8
annotation
62
1
39
211
10
212.592999
20
218.012367
11
213.660100
21
222.812367
0
LINE
8
annotation
62
1
39
211
10
213.660100
20
222.812367
11
211.525596
21
222.812367
0
LINE
8
annotation
62
1
39
211
10
213.660100
20
220.674852
11
212.592999
21
220.674852
0
LINE
8
annotation
62
1
39
211
10
309.998935
20
218.012367
11
311.066037
21
222.812367
0
LINE
8
annotation
62
1
39
211
10
311.066037
20
222.812367
11
308.931533
21
222.812367
0
LINE
8
annotation
62
1
39
211
10
311.066037
20
220.674852
11
309.998935
21
220.674852
0
LINE
8
annotation
62
1
39
211
10
315.634338
20
232.458992
11
315.634338
21
232.458992
0
LINE
8
annotation
62
1
39
211
10
315.634338
20
232.458992
11
315.651547
21
232.267340
0
LINE
8
annotation
62
1
39
211
10
315.651547
20
232.267340
11
315.701150
21
232.087091
0
LINE
8
annotation
62
1
39
211
10
315.701150
20
232.087091
11
315.780108
21
231.921222
0
LINE
8
annotation
62
1
39
211
10
315.780108
20
231.921222
11
315.885385
21
231.772707
0
LINE
8
annotation
62
1
39
211
10
315.885385
20
231.772707
11
316.013942
21
231.644523
0
LINE
8
annotation
62
1
39
211
10
316.013942
20
231.644523
11
316.162744
21
231.539645
0
LINE
8
annotation
62
1
39
211
10
316.162744
20
231.539645
11
316.328751
21
231.461048
0
LINE
8
annotation
62
1
39
211
10
316.328751
20
231.461048
11
316.508928
21
231.411708
0
LINE
8
annotation
62
1
39
211
10
316.508928
20
231.411708
11
316.700235
21
231.394600
0
LINE
8
annotation
62
1
39
211
10
316.700235
20
231.394600
11
316.700235
21
231.394600
0
LINE
8
annotation
62
1
39
211
10
316.700235
20
231.394600
11
316.891543
21
231.411708
0
LINE
8
annotation
62
1
39
211
10
316.891543
20
231.411708
11
317.071720
21
231.461048
0
LINE
8
annotation
62
1
39
211
10
317.071720
20
231.461048
11
317.237727
21
231.539645
0
LINE
8
annotation
62
1
39
211
10
317.237727
20
231.539645
11
317.386529
21
231.644523
0
LINE
8
annotation
62
1
39
211
10
317.386529
20
231.644523
11
317.515086
21
231.772707
0
LINE
8
annotation
62
1
39
211
10
317.515086
20
231.772707
11
317.620363
21
231.921222
0
LINE
8
annotation
62
1
39
211
10
317.620363
20
231.921222
11
317.699321
21
232.087091
0
LINE
8
annotation
62
1
39
211
10
317.699321
20
232.087091
11
317.748924
21
232.267340
0
LINE
8
annotation
62
1
39
211
10
317.748924
20
232.267340
11
317.766133
21
232.458992
0
LINE
8
annotation
62
1
39
211
10
317.766133
20
232.458992
11
317.766133
21
232.989985
0
LINE
8
annotation
62
1
39
211
10
317.766133
20
232.989985
11
317.766133
21
232.989985
0
LINE
8
annotation
62
1
39
211
10
317.766133
20
232.989985
11
317.748934
21
233.181730
0
LINE
8
annotation
62
1
39
211
10
317.748934
20
233.181730
11
317.699356
21
233.362228
0
LINE
8
annotation
62
1
39
211
10
317.699356
20
233.362228
11
317.620430
21
233.528457
0
LINE
8
annotation
62
1
39
211
10
317.620430
20
233.528457
11
317.515186
21
233.677399
0
LINE
8
annotation
62
1
39
211
10
317.515186
20
233.677399
11
317.386653
21
233.806033
0
LINE
8
annotation
62
1
39
211
10
317.386653
20
233.806033
11
317.237861
21
233.911339
0
LINE
8
annotation
62
1
39
211
10
317.237861
20
233.911339
11
317.071841
21
233.990296
0
LINE
8
annotation
62
1
39
211
10
317.071841
20
233.990296
11
316.891623
21
234.039885
0
LINE
8
annotation
62
1
39
211
10
316.891623
20
234.039885
11
316.700235
21
234.057086
0
LINE
8
annotation
62
1
39
211
10
316.700235
20
234.057086
11
316.700235
21
234.057086
0
LINE
8
annotation
62
1
39
211
10
316.700235
20
234.057086
11
316.508848
21
234.039875
0
LINE
8
annotation
62
1
39
211
10
316.508848
20
234.039875
11
316.328630
21
233.990261
0
LINE
8
annotation
62
1
39
211
10
316.328630
20
233.990261
11
316.162610
21
233.911272
0
LINE
8
annotation
62
1
39
211
10
316.162610
20
233.911272
11
316.013818
21
233.805934
0
LINE
8
annotation
62
1
39
211
10
316.013818
20
233.805934
11
315.885285
21
233.677275
0
LINE
8
annotation
62
1
39
211
10
315.885285
20
233.677275
11
315.780041
21
233.528324
0
LINE
8
annotation
62
1
39
211
10
315.780041
20
233.528324
11
315.701115
21
233.362106
0
LINE
8
annotation
62
1
39
211
10
315.701115
20
233.362106
11
315.651537
21
233.181651
0
LINE
8
annotation
62
1
39
211
10
315.651537
20
233.181651
11
315.634338
21
232.989985
0
LINE
8
annotation
62
1
39
211
10
315.634338
20
232.989985
11
315.634338
21
232.458992
0
LINE
8
annotation
62
1
39
211
10
317.766133
20
235.124488
11
317.766133
21
235.124488
0
LINE
8
annotation
62
1
39
211
10
317.766133
20
235.124488
11
317.748934
21
235.315348
0
LINE
8
annotation
62
1
39
211
10
317.748934
20
235.315348
11
317.699356
21
235.495176
0
LINE
8
annotation
62
1
39
211
10
317.699356
20
235.495176
11
317.620430
21
235.660921
0
LINE
8
annotation
62
1
39
211
10
317.620430
20
235.660921
11
317.515186
21
235.809535
0
LINE
8
annotation
62
1
39
211
10
317.515186
20
235.809535
11
317.386653
21
235.937966
0
LINE
8
annotation
62
1
39
211
10
317.386653
20
235.937966
11
317.237861
21
236.043167
0
LINE
8
annotation
62
1
39
211
10
317.237861
20
236.043167
11
317.071841
21
236.122086
0
LINE
8
annotation
62
1
39
211
10
317.071841
20
236.122086
11
316.891623
21
236.171674
0
LINE
8
annotation
62
1
39
211
10
316.891623
20
236.171674
11
316.700235
21
236.188881
0
LINE
8
annotation
62
1
39
211
10
316.700235
20
236.188881
11
316.700235
21
236.188881
0
LINE
8
annotation
62
1
39
211
10
316.700235
20
236.188881
11
316.508848
21
236.171674
0
LINE
8
annotation
62
1
39
211
10
316.508848
20
236.171674
11
316.328630
21
236.122086
0
LINE
8
annotation
62
1
39
211
10
316.328630
20
236.122086
11
316.162610
21
236.043167
0
LINE
8
annotation
62
1
39
211
10
316.162610
20
236.043167
11
316.013818
21
235.937966
0
LINE
8
annotation
62
1
39
211
10
316.013818
20
235.937966
11
315.885285
21
235.809535
0
LINE
8
annotation
62
1
39
211
10
315.885285
20
235.809535
11
315.780041
21
235.660921
0
LINE
8
annotation
62
1
39
211
10
315.780041
20
235.660921
11
315.701115
21
235.495176
0
LINE
8
annotation
62
1
39
211
10
315.701115
20
235.495176
11
315.651537
21
235.315348
0
LINE
8
annotation
62
1
39
211
10
315.651537
20
235.315348
11
315.634338
21
235.124488
0
LINE
8
annotation
62
1
39
211
10
315.634338
20
235.124488
11
315.634338
21
235.124488
0
LINE
8
annotation
62
1
39
211
10
315.634338
20
235.124488
11
315.651547
21
234.932733
0
LINE
8
annotation
62
1
39
211
10
315.651547
20
234.932733
11
315.701150
21
234.752207
0
LINE
8
annotation
62
1
39
211
10
315.701150
20
234.752207
11
315.780108
21
234.585938
0
LINE
8
annotation
62
1
39
211
10
315.780108
20
234.585938
11
315.885385
21
234.436948
0
LINE
8
annotation
62
1
39
211
10
315.885385
20
234.436948
11
316.013942
21
234.308265
0
LINE
8
annotation
62
1
39
211
10
316.013942
20
234.308265
11
316.162744
21
234.202911
0
LINE
8
annotation
62
1
39
211
10
316.162744
20
234.202911
11
316.328751
21
234.123914
0
LINE
8
annotation
62
1
39
211
10
316.328751
20
234.123914
11
316.508928
21
234.074297
0
LINE
8
annotation
62
1
39
211
10
316.508928
20
234.074297
11
316.700235
21
234.057086
0
LINE
8
annotation
62
1
39
211
10
316.700235
20
234.057086
11
316.700235
21
234.057086
0
LINE
8
annotation
62
1
39
211
10
316.700235
20
234.057086
11
316.891543
21
234.074297
0
LINE
8
annotation
62
1
39
211
10
316.891543
20
234.074297
11
317.071720
21
234.123914
0
LINE
8
annotation
62
1
39
211
10
317.071720
20
234.123914
11
317.237727
21
234.202911
0
LINE
8
annotation
62
1
39
211
10
317.237727
20
234.202911
11
317.386529
21
234.308265
0
LINE
8
annotation
62
1
39
211
10
317.386529
20
234.308265
11
317.515086
21
234.436948
0
LINE
8
annotation
62
1
39
211
10
317.515086
20
234.436948
11
317.620363
21
234.585938
0
LINE
8
annotation
62
1
39
211
10
317.620363
20
234.585938
11
317.699321
21
234.752207
0
LINE
8
annotation
62
1
39
211
10
317.699321
20
234.752207
11
317.748924
21
234.932733
0
LINE
8
annotation
62
1
39
211
10
317.748924
20
234.932733
11
317.766133
21
235.124488
0
LINE
8
annotation
62
1
39
211
10
274.648368
20
203.534179
11
268.582300
21
194.760168
0
LINE
8
annotation
62
1
39
211
10
268.582300
20
194.760168
11
262.515092
21
203.534179
0
LINE
8
annotation
62
1
39
211
10
268.582300
20
195.466241
11
268.582300
21
185.343960
0
LINE
8
annotation
62
1
39
211
10
291.417031
20
194.439070
11
281.471554
21
194.439070
0
LINE
8
annotation
62
1
39
211
10
302.280460
20
185.344531
11
302.280460
21
203.533609
0
LINE
8
annotation
62
1
39
211
10
302.280460
20
203.533609
11
298.236795
21
199.488803
0
LINE
8
boundary
62
5
39
2
10
140.420848
20
288.556831
11
143.904136
21
292.106648
0
LINE
8
boundary
62
5
39
2
10
143.904136
20
292.106648
11
147.069244
21
295.684237
0
LINE
8
boundary
62
5
39
2
10
147.069244
20
295.684237
11
150.167379
21
299.551066
0
LINE
8
boundary
62
5
39
2
10
150.167379
20
299.551066
11
153.051447
21
303.557852
0
LINE
8
boundary
62
5
39
2
10
153.051447
20
303.557852
11
155.612155
21
307.525447
0
LINE
8
boundary
62
5
39
2
10
155.612155
20
307.525447
11
158.057624
21
311.751820
0
LINE
8
boundary
62
5
39
2
10
158.057624
20
311.751820
11
160.269369
21
316.065631
0
LINE
8
boundary
62
5
39
2
10
160.269369
20
316.065631
11
162.170984
21
320.272561
0
LINE
8
boundary
62
5
39
2
10
162.170984
20
320.272561
11
163.922164
21
324.700806
0
LINE
8
boundary
62
5
39
2
10
163.922164
20
324.700806
11
165.377198
21
328.981696
0
LINE
8
boundary
62
5
39
2
10
165.377198
20
328.981696
11
166.670488
21
333.456158
0
LINE
8
boundary
62
5
39
2
10
166.670488
20
333.456158
11
167.688310
21
337.746002
0
LINE
8
boundary
62
5
39
2
10
167.688310
20
337.746002
11
168.538449
21
342.203180
0
LINE
8
boundary
62
5
39
2
10
168.538449
20
342.203180
11
169.168136
21
346.631323
0
LINE
8
boundary
62
5
39
2
10
169.168136
20
346.631323
11
169.571164
21
350.826252
0
LINE
8
boundary
62
5
39
2
10
169.571164
20
350.826252
11
169.790555
21
355.154941
0
LINE
8
boundary
62
5
39
2
10
169.790555
20
355.154941
11
168.123935
21
355.203626
0
LINE
8
boundary
62
5
39
2
10
168.123935
20
355.203626
11
166.354766
21
355.255303
0
LINE
8
boundary
62
5
39
2
10
166.354766
20
355.255303
11
111.467394
21
356.858575
0
LINE
8
boundary
62
5
39
2
10
111.467394
20
356.858575
11
109.800765
21
356.907259
0
LINE
8
boundary
62
5
39
2
10
109.800765
20
356.907259
11
109.558223
21
353.747434
0
LINE
8
boundary
62
5
39
2
10
109.558223
20
353.747434
11
109.012159
21
350.406468
0
LINE
8
boundary
62
5
39
2
10
109.012159
20
350.406468
11
108.131138
21
347.040847
0
LINE
8
boundary
62
5
39
2
10
108.131138
20
347.040847
11
107.254140
21
344.655610
0
LINE
8
boundary
62
5
39
2
10
107.254140
20
344.655610
11
137.551404
21
344.505610
0
LINE
8
boundary
62
5
39
2
10
137.551404
20
344.505610
11
137.551404
21
341.605610
0
LINE
8
boundary
62
5
39
2
10
137.551404
20
341.605610
11
105.914469
21
341.605610
0
LINE
8
boundary
62
5
39
2
10
105.914469
20
341.605610
11
105.373728
21
340.532236
0
LINE
8
boundary
62
5
39
2
10
105.373728
20
340.532236
11
103.459280
21
337.386074
0
LINE
8
boundary
62
5
39
2
10
103.459280
20
337.386074
11
101.214716
21
334.420211
0
LINE
8
boundary
62
5
39
2
10
101.214716
20
334.420211
11
98.667380
21
331.684506
0
LINE
8
boundary
62
5
39
2
10
98.667380
20
331.684506
11
98.197784
21
331.273226
0
LINE
8
boundary
62
5
39
2
10
98.197784
20
331.273226
11
130.849150
21
331.123226
0
LINE
8
boundary
62
5
39
2
10
130.849150
20
331.123226
11
130.849150
21
328.223226
0
LINE
8
boundary
62
5
39
2
10
130.849150
20
328.223226
11
94.448823
21
328.223226
0
LINE
8
boundary
62
5
39
2
10
94.448823
20
328.223226
11
92.916146
21
327.133161
0
LINE
8
boundary
62
5
39
2
10
92.916146
20
327.133161
11
89.719556
21
325.304003
0
LINE
8
boundary
62
5
39
2
10
89.719556
20
325.304003
11
86.404947
21
323.824595
0
LINE
8
boundary
62
5
39
2
10
86.404947
20
323.824595
11
83.134410
21
322.735294
0
LINE
8
boundary
62
5
39
2
10
83.134410
20
322.735294
11
81.384652
21
322.280865
0
LINE
8
boundary
62
5
39
2
10
81.384652
20
322.280865
11
79.746890
21
321.944446
0
LINE
8
boundary
62
5
39
2
10
79.746890
20
321.944446
11
78.006510
21
321.666264
0
LINE
8
boundary
62
5
39
2
10
78.006510
20
321.666264
11
76.392533
21
321.487268
0
LINE
8
boundary
62
5
39
2
10
76.392533
20
321.487268
11
74.797815
21
321.382791
0
LINE
8
boundary
62
5
39
2
10
74.797815
20
321.382791
11
73.112939
21
321.335168
0
LINE
8
boundary
62
5
39
2
10
73.112939
20
321.335168
11
62.477059
21
321.335168
0
LINE
8
boundary
62
5
39
2
10
62.477059
20
321.335168
11
61.694492
21
321.335167
0
LINE
8
boundary
62
5
39
2
10
61.694492
20
321.335167
11
59.600795
21
321.340339
0
LINE
8
boundary
62
5
39
2
10
59.600795
20
321.340339
11
59.512989
21
322.473454
0
LINE
8
boundary
62
5
39
2
10
59.512989
20
322.473454
11
59.512984
21
325.994611
0
LINE
8
boundary
62
5
39
2
10
59.512984
20
325.994611
11
59.512983
21
333.306189
0
LINE
8
boundary
62
5
39
2
10
59.512983
20
333.306189
11
46.454676
21
333.306189
0
LINE
8
boundary
62
5
39
2
10
46.454676
20
333.306189
11
34.824031
21
333.306189
0
LINE
8
boundary
62
5
39
2
10
34.824031
20
333.306189
11
14.797376
21
333.306189
0
LINE
8
boundary
62
5
39
2
10
14.797376
20
333.306189
11
11.701255
21
333.306189
0
LINE
8
boundary
62
5
39
2
10
11.701255
20
333.306189
11
9.628030
21
331.273226
0
LINE
8
boundary
62
5
39
2
10
9.628030
20
331.273226
11
33.534075
21
331.123226
0
LINE
8
boundary
62
5
39
2
10
33.534075
20
331.123226
11
33.534075
21
328.223226
0
LINE
8
boundary
62
5
39
2
10
33.534075
20
328.223226
11
6.517627
21
328.223226
0
LINE
8
boundary
62
5
39
2
10
6.517627
20
328.223226
11
1.587500
21
323.388835
0
LINE
8
boundary
62
5
39
2
10
1.587500
20
323.388835
11
1.587500
21
321.020680
0
LINE
8
boundary
62
5
39
2
10
1.587500
20
321.020680
11
81.653243
21
320.870680
0
LINE
8
boundary
62
5
39
2
10
81.653243
20
320.870680
11
81.653243
21
317.970680
0
LINE
8
boundary
62
5
39
2
10
81.653243
20
317.970680
11
1.682500
21
317.970680
0
LINE
8
boundary
62
5
39
2
10
1.682500
20
317.970680
11
1.587500
21
304.927736
0
LINE
8
boundary
62
5
39
2
10
1.587500
20
304.927736
11
77.231482
21
304.777736
0
LINE
8
boundary
62
5
39
2
10
77.231482
20
304.777736
11
77.231482
21
301.877736
0
LINE
8
boundary
62
5
39
2
10
77.231482
20
301.877736
11
1.682500
21
301.877736
0
LINE
8
boundary
62
5
39
2
10
1.682500
20
301.877736
11
1.587500
21
296.820166
0
LINE
8
boundary
62
5
39
2
10
1.587500
20
296.820166
11
1.587500
21
288.834793
0
LINE
8
boundary
62
5
39
2
10
1.587500
20
288.834793
11
70.274023
21
288.684793
0
LINE
8
boundary
62
5
39
2
10
70.274023
20
288.684793
11
70.274023
21
285.784793
0
LINE
8
boundary
62
5
39
2
10
70.274023
20
285.784793
11
1.682500
21
285.784793
0
LINE
8
boundary
62
5
39
2
10
1.682500
20
285.784793
11
1.587500
21
272.741850
0
LINE
8
boundary
62
5
39
2
10
1.587500
20
272.741850
11
58.556860
21
272.591850
0
LINE
8
boundary
62
5
39
2
10
58.556860
20
272.591850
11
58.556861
21
269.691850
0
LINE
8
boundary
62
5
39
2
10
58.556861
20
269.691850
11
1.682500
21
269.691850
0
LINE
8
boundary
62
5
39
2
10
1.682500
20
269.691850
11
1.587500
21
260.578910
0
LINE
8
boundary
62
5
39
2
10
1.587500
20
260.578910
11
5.748302
21
256.498906
0
LINE
8
boundary
62
5
39
2
10
5.748302
20
256.498906
11
33.149413
21
256.498906
0
LINE
8
boundary
62
5
39
2
10
33.149413
20
256.498906
11
33.149414
21
253.598906
0
LINE
8
boundary
62
5
39
2
10
33.149414
20
253.598906
11
8.953706
21
253.598906
0
LINE
8
boundary
62
5
39
2
10
8.953706
20
253.598906
11
11.701255
21
250.661562
0
LINE
8
boundary
62
5
39
2
10
11.701255
20
250.661562
11
14.797376
21
250.661562
0
LINE
8
boundary
62
5
39
2
10
14.797376
20
250.661562
11
34.824031
21
250.661562
0
LINE
8
boundary
62
5
39
2
10
34.824031
20
250.661562
11
46.454677
21
250.661562
0
LINE
8
boundary
62
5
39
2
10
46.454677
20
250.661562
11
59.512983
21
250.661562
0
LINE
8
boundary
62
5
39
2
10
59.512983
20
250.661562
11
59.512984
21
257.165510
0
LINE
8
boundary
62
5
39
2
10
59.512984
20
257.165510
11
59.512989
21
260.297723
0
LINE
8
boundary
62
5
39
2
10
59.512989
20
260.297723
11
59.512985
21
261.314636
0
LINE
8
boundary
62
5
39
2
10
59.512985
20
261.314636
11
61.694492
21
261.319791
0
LINE
8
boundary
62
5
39
2
10
61.694492
20
261.319791
11
62.477059
21
261.319791
0
LINE
8
boundary
62
5
39
2
10
62.477059
20
261.319791
11
72.690493
21
261.319791
0
LINE
8
boundary
62
5
39
2
10
72.690493
20
261.319791
11
77.255827
21
261.402274
0
LINE
8
boundary
62
5
39
2
10
77.255827
20
261.402274
11
81.651325
21
261.687639
0
LINE
8
boundary
62
5
39
2
10
81.651325
20
261.687639
11
85.907114
21
262.161869
0
LINE
8
boundary
62
5
39
2
10
85.907114
20
262.161869
11
90.390167
21
262.863395
0
LINE
8
boundary
62
5
39
2
10
90.390167
20
262.863395
11
94.895143
21
263.791125
0
LINE
8
boundary
62
5
39
2
10
94.895143
20
263.791125
11
99.223240
21
264.897006
0
LINE
8
boundary
62
5
39
2
10
99.223240
20
264.897006
11
103.728584
21
266.277015
0
LINE
8
boundary
62
5
39
2
10
103.728584
20
266.277015
11
108.029076
21
267.827325
0
LINE
8
boundary
62
5
39
2
10
108.029076
20
267.827325
11
112.468901
21
269.670566
0
LINE
8
boundary
62
5
39
2
10
112.468901
20
269.670566
11
116.674834
21
271.670436
0
LINE
8
boundary
62
5
39
2
10
116.674834
20
271.670436
11
120.979507
21
273.975071
0
LINE
8
boundary
62
5
39
2
10
120.979507
20
273.975071
11
125.186449
21
276.512123
0
LINE
8
boundary
62
5
39
2
10
125.186449
20
276.512123
11
129.121089
21
279.166479
0
LINE
8
boundary
62
5
39
2
10
129.121089
20
279.166479
11
133.087961
21
282.135559
0
LINE
8
boundary
62
5
39
2
10
133.087961
20
282.135559
11
136.905445
21
285.313737
0
LINE
8
boundary
62
5
39
2
10
136.905445
20
285.313737
11
140.420848
21
288.556831
0
LINE
8
annotation
62
1
39
211
10
40.264709
20
252.648867
11
38.132914
21
252.648867
0
LINE
8
annotation
62
1
39
211
10
38.132914
20
252.648867
11
40.102762
21
255.820070
0
LINE
8
annotation
62
1
39
211
10
40.102762
20
255.820070
11
40.102762
21
255.820070
0
LINE
8
annotation
62
1
39
211
10
40.102762
20
255.820070
11
40.105117
21
255.822984
0
LINE
8
annotation
62
1
39
211
10
40.105117
20
255.822984
11
40.107375
21
255.825923
0
LINE
8
annotation
62
1
39
211
10
40.107375
20
255.825923
11
40.109552
21
255.828911
0
LINE
8
annotation
62
1
39
211
10
40.109552
20
255.828911
11
40.111662
21
255.831974
0
LINE
8
annotation
62
1
39
211
10
40.111662
20
255.831974
11
40.113719
21
255.835135
0
LINE
8
annotation
62
1
39
211
10
40.113719
20
255.835135
11
40.115740
21
255.838421
0
LINE
8
annotation
62
1
39
211
10
40.115740
20
255.838421
11
40.117738
21
255.841855
0
LINE
8
annotation
62
1
39
211
10
40.117738
20
255.841855
11
40.119728
21
255.845463
0
LINE
8
annotation
62
1
39
211
10
40.119728
20
255.845463
11
40.121726
21
255.849269
0
LINE
8
annotation
62
1
39
211
10
40.121726
20
255.849269
11
40.121726
21
255.849269
0
LINE
8
annotation
62
1
39
211
10
40.121726
20
255.849269
11
40.203061
21
256.023901
0
LINE
8
annotation
62
1
39
211
10
40.203061
20
256.023901
11
40.250575
21
256.204922
0
LINE
8
annotation
62
1
39
211
10
40.250575
20
256.204922
11
40.265434
21
256.388243
0
LINE
8
annotation
62
1
39
211
10
40.265434
20
256.388243
11
40.248801
21
256.569773
0
LINE
8
annotation
62
1
39
211
10
40.248801
20
256.569773
11
40.201840
21
256.745421
0
LINE
8
annotation
62
1
39
211
10
40.201840
20
256.745421
11
40.125718
21
256.911097
0
LINE
8
annotation
62
1
39
211
10
40.125718
20
256.911097
11
40.021597
21
257.062711
0
LINE
8
annotation
62
1
39
211
10
40.021597
20
257.062711
11
39.890642
21
257.196172
0
LINE
8
annotation
62
1
39
211
10
39.890642
20
257.196172
11
39.734018
21
257.307390
0
LINE
8
annotation
62
1
39
211
10
39.734018
20
257.307390
11
39.734018
21
257.307390
0
LINE
8
annotation
62
1
39
211
10
39.734018
20
257.307390
11
39.558900
21
257.387569
0
LINE
8
annotation
62
1
39
211
10
39.558900
20
257.387569
11
39.377601
21
257.434351
0
LINE
8
annotation
62
1
39
211
10
39.377601
20
257.434351
11
39.194174
21
257.448789
0
LINE
8
annotation
62
1
39
211
10
39.194174
20
257.448789
11
39.012671
21
257.431937
0
LINE
8
annotation
62
1
39
211
10
39.012671
20
257.431937
11
38.837147
21
257.384847
0
LINE
8
annotation
62
1
39
211
10
38.837147
20
257.384847
11
38.671655
21
257.308572
0
LINE
8
annotation
62
1
39
211
10
38.671655
20
257.308572
11
38.520247
21
257.204164
0
LINE
8
annotation
62
1
39
211
10
38.520247
20
257.204164
11
38.386976
21
257.072678
0
LINE
8
annotation
62
1
39
211
10
38.386976
20
257.072678
11
38.275897
21
256.915166
0
LINE
8
annotation
62
1
39
211
10
38.275897
20
256.915166
11
38.135924
21
256.646660
0
LINE
8
annotation
62
1
39
211
10
63.540361
20
268.742000
11
64.606258
21
268.742000
0
LINE
8
annotation
62
1
39
211
10
64.606258
20
268.742000
11
64.606258
21
268.742000
0
LINE
8
annotation
62
1
39
211
10
64.606258
20
268.742000
11
64.797963
21
268.759197
0
LINE
8
annotation
62
1
39
211
10
64.797963
20
268.759197
11
64.978350
21
268.808760
0
LINE
8
annotation
62
1
39
211
10
64.978350
20
268.808760
11
65.144419
21
268.887647
0
LINE
8
annotation
62
1
39
211
10
65.144419
20
268.887647
11
65.293171
21
268.992815
0
LINE
8
annotation
62
1
39
211
10
65.293171
20
268.992815
11
65.421605
21
269.121222
0
LINE
8
annotation
62
1
39
211
10
65.421605
20
269.121222
11
65.526720
21
269.269826
0
LINE
8
annotation
62
1
39
211
10
65.526720
20
269.269826
11
65.605518
21
269.435584
0
LINE
8
annotation
62
1
39
211
10
65.605518
20
269.435584
11
65.654996
21
269.615453
0
LINE
8
annotation
62
1
39
211
10
65.654996
20
269.615453
11
65.672156
21
269.806393
0
LINE
8
annotation
62
1
39
211
10
65.672156
20
269.806393
11
65.672156
21
270.340094
0
LINE
8
annotation
62
1
39
211
10
65.672156
20
270.340094
11
65.672156
21
270.340094
0
LINE
8
annotation
62
1
39
211
10
65.672156
20
270.340094
11
65.654996
21
270.530954
0
LINE
8
annotation
62
1
39
211
10
65.654996
20
270.530954
11
65.605518
21
270.710781
0
LINE
8
annotation
62
1
39
211
10
65.605518
20
270.710781
11
65.526720
21
270.876526
0
LINE
8
annotation
62
1
39
211
10
65.526720
20
270.876526
11
65.421605
21
271.025140
0
LINE
8
annotation
62
1
39
211
10
65.421605
20
271.025140
11
65.293171
21
271.153572
0
LINE
8
annotation
62
1
39
211
10
65.293171
20
271.153572
11
65.144419
21
271.258772
0
LINE
8
annotation
62
1
39
211
10
65.144419
20
271.258772
11
64.978350
21
271.337691
0
LINE
8
annotation
62
1
39
211
10
64.978350
20
271.337691
11
64.797963
21
271.387279
0
LINE
8
annotation
62
1
39
211
10
64.797963
20
271.387279
11
64.606258
21
271.404486
0
LINE
8
annotation
62
1
39
211
10
64.606258
20
271.404486
11
64.072557
21
271.404486
0
LINE
8
annotation
62
1
39
211
10
64.072557
20
271.404486
11
64.606258
21
271.404486
0
LINE
8
annotation
62
1
39
211
10
64.606258
20
271.404486
11
64.606258
21
271.404486
0
LINE
8
annotation
62
1
39
211
10
64.606258
20
271.404486
11
64.797963
21
271.421697
0
LINE
8
annotation
62
1
39
211
10
64.797963
20
271.421697
11
64.978350
21
271.471314
0
LINE
8
annotation
62
1
39
211
10
64.978350
20
271.471314
11
65.144419
21
271.550312
0
LINE
8
annotation
62
1
39
211
10
65.144419
20
271.550312
11
65.293171
21
271.655665
0
LINE
8
annotation
62
1
39
211
10
65.293171
20
271.655665
11
65.421605
21
271.784348
0
LINE
8
annotation
62
1
39
211
10
65.421605
20
271.784348
11
65.526720
21
271.933338
0
LINE
8
annotation
62
1
39
211
10
65.526720
20
271.933338
11
65.605518
21
272.099607
0
LINE
8
annotation
62
1
39
211
10
65.605518
20
272.099607
11
65.654996
21
272.280133
0
LINE
8
annotation
62
1
39
211
10
65.654996
20
272.280133
11
65.672156
21
272.471889
0
LINE
8
annotation
62
1
39
211
10
65.672156
20
272.471889
11
65.672156
21
272.471889
0
LINE
8
annotation
62
1
39
211
10
65.672156
20
272.471889
11
65.654996
21
272.662748
0
LINE
8
annotation
62
1
39
211
10
65.654996
20
272.662748
11
65.605518
21
272.842576
0
LINE
8
annotation
62
1
39
211
10
65.605518
20
272.842576
11
65.526720
21
273.008321
0
LINE
8
annotation
62
1
39
211
10
65.526720
20
273.008321
11
65.421605
21
273.156935
0
LINE
8
annotation
62
1
39
211
10
65.421605
20
273.156935
11
65.293171
21
273.285367
0
LINE
8
annotation
62
1
39
211
10
65.293171
20
273.285367
11
65.144419
21
273.390567
0
LINE
8
annotation
62
1
39
211
10
65.144419
20
273.390567
11
64.978350
21
273.469486
0
LINE
8
annotation
62
1
39
211
10
64.978350
20
273.469486
11
64.797963
21
273.519074
0
LINE
8
annotation
62
1
39
211
10
64.797963
20
273.519074
11
64.606258
21
273.536281
0
LINE
8
annotation
62
1
39
211
10
64.606258
20
273.536281
11
63.540361
21
273.536281
0
LINE
8
annotation
62
1
39
211
10
77.656018
20
285.901894
11
74.990823
21
285.901894
0
LINE
8
annotation
62
1
39
211
10
74.990823
20
285.901894
11
76.055216
21
289.634793
0
LINE
8
annotation
62
1
39
211
10
76.857122
20
284.834793
11
76.857122
21
286.966588
0
LINE
8
annotation
62
1
39
211
10
82.214983
20
300.927736
11
83.280880
21
300.927736
0
LINE
8
annotation
62
1
39
211
10
83.280880
20
300.927736
11
83.280880
21
300.927736
0
LINE
8
annotation
62
1
39
211
10
83.280880
20
300.927736
11
83.472188
21
300.944937
0
LINE
8
annotation
62
1
39
211
10
83.472188
20
300.944937
11
83.652364
21
300.994526
0
LINE
8
annotation
62
1
39
211
10
83.652364
20
300.994526
11
83.818372
21
301.073484
0
LINE
8
annotation
62
1
39
211
10
83.818372
20
301.073484
11
83.967173
21
301.178789
0
LINE
8
annotation
62
1
39
211
10
83.967173
20
301.178789
11
84.095731
21
301.307423
0
LINE
8
annotation
62
1
39
211
10
84.095731
20
301.307423
11
84.201008
21
301.456365
0
LINE
8
annotation
62
1
39
211
10
84.201008
20
301.456365
11
84.279966
21
301.622595
0
LINE
8
annotation
62
1
39
211
10
84.279966
20
301.622595
11
84.329569
21
301.803092
0
LINE
8
annotation
62
1
39
211
10
84.329569
20
301.803092
11
84.346778
21
301.994838
0
LINE
8
annotation
62
1
39
211
10
84.346778
20
301.994838
11
84.346778
21
302.525830
0
LINE
8
annotation
62
1
39
211
10
84.346778
20
302.525830
11
84.346778
21
302.525830
0
LINE
8
annotation
62
1
39
211
10
84.346778
20
302.525830
11
84.329578
21
302.717482
0
LINE
8
annotation
62
1
39
211
10
84.329578
20
302.717482
11
84.280001
21
302.897731
0
LINE
8
annotation
62
1
39
211
10
84.280001
20
302.897731
11
84.201075
21
303.063600
0
LINE
8
annotation
62
1
39
211
10
84.201075
20
303.063600
11
84.095830
21
303.212115
0
LINE
8
annotation
62
1
39
211
10
84.095830
20
303.212115
11
83.967297
21
303.340299
0
LINE
8
annotation
62
1
39
211
10
83.967297
20
303.340299
11
83.818506
21
303.445177
0
LINE
8
annotation
62
1
39
211
10
83.818506
20
303.445177
11
83.652486
21
303.523774
0
LINE
8
annotation
62
1
39
211
10
83.652486
20
303.523774
11
83.472267
21
303.573114
0
LINE
8
annotation
62
1
39
211
10
83.472267
20
303.573114
11
83.280880
21
303.590222
0
LINE
8
annotation
62
1
39
211
10
83.280880
20
303.590222
11
82.214983
21
303.590222
0
LINE
8
annotation
62
1
39
211
10
82.214983
20
303.590222
11
82.214983
21
305.727736
0
LINE
8
annotation
62
1
39
211
10
82.214983
20
305.727736
11
84.346778
21
305.727736
0
LINE
8
annotation
62
1
39
211
10
87.805137
20
321.661756
11
87.805137
21
321.661756
0
LINE
8
annotation
62
1
39
211
10
87.805137
20
321.661756
11
87.520004
21
321.554848
0
LINE
8
annotation
62
1
39
211
10
87.520004
20
321.554848
11
87.258357
21
321.410803
0
LINE
8
annotation
62
1
39
211
10
87.258357
20
321.410803
11
87.022883
21
321.233229
0
LINE
8
annotation
62
1
39
211
10
87.022883
20
321.233229
11
86.816266
21
321.025735
0
LINE
8
annotation
62
1
39
211
10
86.816266
20
321.025735
11
86.641193
21
320.791931
0
LINE
8
annotation
62
1
39
211
10
86.641193
20
320.791931
11
86.500349
21
320.535424
0
LINE
8
annotation
62
1
39
211
10
86.500349
20
320.535424
11
86.396421
21
320.259825
0
LINE
8
annotation
62
1
39
211
10
86.396421
20
320.259825
11
86.332095
21
319.968742
0
LINE
8
annotation
62
1
39
211
10
86.332095
20
319.968742
11
86.310056
21
319.665784
0
LINE
8
annotation
62
1
39
211
10
86.310056
20
319.665784
11
86.310056
21
318.176043
0
LINE
8
annotation
62
1
39
211
10
86.310056
20
318.176043
11
86.310056
21
318.176043
0
LINE
8
annotation
62
1
39
211
10
86.310056
20
318.176043
11
86.326125
21
317.996995
0
LINE
8
annotation
62
1
39
211
10
86.326125
20
317.996995
11
86.372443
21
317.828450
0
LINE
8
annotation
62
1
39
211
10
86.372443
20
317.828450
11
86.446173
21
317.673227
0
LINE
8
annotation
62
1
39
211
10
86.446173
20
317.673227
11
86.544478
21
317.534148
0
LINE
8
annotation
62
1
39
211
10
86.544478
20
317.534148
11
86.664523
21
317.414032
0
LINE
8
annotation
62
1
39
211
10
86.664523
20
317.414032
11
86.803471
21
317.315700
0
LINE
8
annotation
62
1
39
211
10
86.803471
20
317.315700
11
86.958486
21
317.241971
0
LINE
8
annotation
62
1
39
211
10
86.958486
20
317.241971
11
87.126732
21
317.195665
0
LINE
8
annotation
62
1
39
211
10
87.126732
20
317.195665
11
87.305371
21
317.179604
0
LINE
8
annotation
62
1
39
211
10
87.305371
20
317.179604
11
87.305371
21
317.179604
0
LINE
8
annotation
62
1
39
211
10
87.305371
20
317.179604
11
87.484381
21
317.195665
0
LINE
8
annotation
62
1
39
211
10
87.484381
20
317.195665
11
87.652823
21
317.241971
0
LINE
8
annotation
62
1
39
211
10
87.652823
20
317.241971
11
87.807896
21
317.315700
0
LINE
8
annotation
62
1
39
211
10
87.807896
20
317.315700
11
87.946798
21
317.414032
0
LINE
8
annotation
62
1
39
211
10
87.946798
20
317.414032
11
88.066727
21
317.534148
0
LINE
8
annotation
62
1
39
211
10
88.066727
20
317.534148
11
88.164882
21
317.673227
0
LINE
8
annotation
62
1
39
211
10
88.164882
20
317.673227
11
88.238461
21
317.828450
0
LINE
8
annotation
62
1
39
211
10
88.238461
20
317.828450
11
88.284663
21
317.996995
0
LINE
8
annotation
62
1
39
211
10
88.284663
20
317.996995
11
88.300687
21
318.176043
0
LINE
8
annotation
62
1
39
211
10
88.300687
20
318.176043
11
88.300687
21
318.671874
0
LINE
8
annotation
62
1
39
211
10
88.300687
20
318.671874
11
88.300687
21
318.671874
0
LINE
8
annotation
62
1
39
211
10
88.300687
20
318.671874
11
88.284663
21
318.850836
0
LINE
8
annotation
62
1
39
211
10
88.284663
20
318.850836
11
88.238461
21
319.019149
0
LINE
8
annotation
62
1
39
211
10
88.238461
20
319.019149
11
88.164882
21
319.174034
0
LINE
8
annotation
62
1
39
211
10
88.164882
20
319.174034
11
88.066727
21
319.312714
0
LINE
8
annotation
62
1
39
211
10
88.066727
20
319.312714
11
87.946798
21
319.432410
0
LINE
8
annotation
62
1
39
211
10
87.946798
20
319.432410
11
87.807896
21
319.530344
0
LINE
8
annotation
62
1
39
211
10
87.807896
20
319.530344
11
87.652823
21
319.603736
0
LINE
8
annotation
62
1
39
211
10
87.652823
20
319.603736
11
87.484381
21
319.649809
0
LINE
8
annotation
62
1
39
211
10
87.484381
20
319.649809
11
87.305371
21
319.665784
0
LINE
8
annotation
62
1
39
211
10
87.305371
20
319.665784
11
86.310056
21
319.665784
0
LINE
8
annotation
62
1
39
211
10
86.185395
20
316.619335
11
88.426471
21
316.619335
0
LINE
8
annotation
62
1
39
211
10
39.583473
20
327.273226
11
40.650574
21
332.073226
0
LINE
8
annotation
62
1
39
211
10
40.650574
20
332.073226
11
38.516070
21
332.073226
0
LINE
8
annotation
62
1
39
211
10
40.650574
20
329.935712
11
39.583473
21
329.935712
0
LINE
8
annotation
62
1
39
211
10
136.898548
20
327.273226
11
137.965649
21
332.073226
0
LINE
8
annotation
62
1
39
211
10
137.965649
20
332.073226
11
135.831145
21
332.073226
0
LINE
8
annotation
62
1
39
211
10
137.965649
20
329.935712
11
136.898548
21
329.935712
0
LINE
8
annotation
62
1
39
211
10
142.534904
20
341.719852
11
142.534904
21
341.719852
0
LINE
8
annotation
62
1
39
211
10
142.534904
20
341.719852
11
142.552113
21
341.528200
0
LINE
8
annotation
62
1
39
211
10
142.552113
20
341.528200
11
142.601716
21
341.347951
0
LINE
8
annotation
62
1
39
211
10
142.601716
20
341.347951
11
142.680674
21
341.182082
0
LINE
8
annotation
62
1
39
211
10
142.680674
20
341.182082
11
142.785951
21
341.033567
0
LINE
8
annotation
62
1
39
211
10
142.785951
20
341.033567
11
142.914509
21
340.905383
0
LINE
8
annotation
62
1
39
211
10
142.914509
20
340.905383
11
143.063310
21
340.800505
0
LINE
8
annotation
62
1
39
211
10
143.063310
20
340.800505
11
143.229317
21
340.721908
0
LINE
8
annotation
62
1
39
211
10
143.229317
20
340.721908
11
143.409494
21
340.672568
0
LINE
8
annotation
62
1
39
211
10
143.409494
20
340.672568
11
143.600802
21
340.655460
0
LINE
8
annotation
62
1
39
211
10
143.600802
20
340.655460
11
143.600802
21
340.655460
0
LINE
8
annotation
62
1
39
211
10
143.600802
20
340.655460
11
143.792110
21
340.672568
0
LINE
8
annotation
62
1
39
211
10
143.792110
20
340.672568
11
143.972286
21
340.721908
0
LINE
8
annotation
62
1
39
211
10
143.972286
20
340.721908
11
144.138294
21
340.800505
0
LINE
8
annotation
62
1
39
211
10
144.138294
20
340.800505
11
144.287095
21
340.905383
0
LINE
8
annotation
62
1
39
211
10
144.287095
20
340.905383
11
144.415653
21
341.033567
0
LINE
8
annotation
62
1
39
211
10
144.415653
20
341.033567
11
144.520929
21
341.182082
0
LINE
8
annotation
62
1
39
211
10
144.520929
20
341.182082
11
144.599888
21
341.347951
0
LINE
8
annotation
62
1
39
211
10
144.599888
20
341.347951
11
144.649490
21
341.528200
0
LINE
8
annotation
62
1
39
211
10
144.649490
20
341.528200
11
144.666699
21
341.719852
0
LINE
8
annotation
62
1
39
211
10
144.666699
20
341.719852
11
144.666699
21
342.250844
0
LINE
8
annotation
62
1
39
211
10
144.666699
20
342.250844
11
144.666699
21
342.250844
0
LINE
8
annotation
62
1
39
211
10
144.666699
20
342.250844
11
144.649500
21
342.442590
0
LINE
8
annotation
62
1
39
211
10
144.649500
20
342.442590
11
144.599922
21
342.623087
0
LINE
8
annotation
62
1
39
211
10
144.599922
20
342.623087
11
144.520996
21
342.789317
0
LINE
8
annotation
62
1
39
211
10
144.520996
20
342.789317
11
144.415752
21
342.938259
0
LINE
8
annotation
62
1
39
211
10
144.415752
20
342.938259
11
144.287219
21
343.066893
0
LINE
8
annotation
62
1
39
211
10
144.287219
20
343.066893
11
144.138427
21
343.172198
0
LINE
8
annotation
62
1
39
211
10
144.138427
20
343.172198
11
143.972407
21
343.251156
0
LINE
8
annotation
62
1
39
211
10
143.972407
20
343.251156
11
143.792189
21
343.300745
0
LINE
8
annotation
62
1
39
211
10
143.792189
20
343.300745
11
143.600802
21
343.317946
0
LINE
8
annotation
62
1
39
211
10
143.600802
20
343.317946
11
143.600802
21
343.317946
0
LINE
8
annotation
62
1
39
211
10
143.600802
20
343.317946
11
143.409415
21
343.300735
0
LINE
8
annotation
62
1
39
211
10
143.409415
20
343.300735
11
143.229196
21
343.251121
0
LINE
8
annotation
62
1
39
211
10
143.229196
20
343.251121
11
143.063176
21
343.172131
0
LINE
8
annotation
62
1
39
211
10
143.063176
20
343.172131
11
142.914385
21
343.066794
0
LINE
8
annotation
62
1
39
211
10
142.914385
20
343.066794
11
142.785852
21
342.938135
0
LINE
8
annotation
62
1
39
211
10
142.785852
20
342.938135
11
142.680607
21
342.789183
0
LINE
8
annotation
62
1
39
211
10
142.680607
20
342.789183
11
142.601681
21
342.622966
0
LINE
8
annotation
62
1
39
211
10
142.601681
20
342.622966
11
142.552104
21
342.442511
0
LINE
8
annotation
62
1
39
211
10
142.552104
20
342.442511
11
142.534904
21
342.250844
0
LINE
8
annotation
62
1
39
211
10
142.534904
20
342.250844
11
142.534904
21
341.719852
0
LINE
8
annotation
62
1
39
211
10
144.666699
20
344.385348
11
144.666699
21
344.385348
0
LINE
8
annotation
62
1
39
211
10
144.666699
20
344.385348
11
144.649500
21
344.576208
0
LINE
8
annotation
62
1
39
211
10
144.649500
20
344.576208
11
144.599922
21
344.756036
0
LINE
8
annotation
62
1
39
211
10
144.599922
20
344.756036
11
144.520996
21
344.921781
0
LINE
8
annotation
62
1
39
211
10
144.520996
20
344.921781
11
144.415752
21
345.070394
0
LINE
8
annotation
62
1
39
211
10
144.415752
20
345.070394
11
144.287219
21
345.198826
0
LINE
8
annotation
62
1
39
211
10
144.287219
20
345.198826
11
144.138427
21
345.304027
0
LINE
8
annotation
62
1
39
211
10
144.138427
20
345.304027
11
143.972407
21
345.382946
0
LINE
8
annotation
62
1
39
211
10
143.972407
20
345.382946
11
143.792189
21
345.432534
0
LINE
8
annotation
62
1
39
211
10
143.792189
20
345.432534
11
143.600802
21
345.449741
0
LINE
8
annotation
62
1
39
211
10
143.600802
20
345.449741
11
143.600802
21
345.449741
0
LINE
8
annotation
62
1
39
211
10
143.600802
20
345.449741
11
143.409415
21
345.432534
0
LINE
8
annotation
62
1
39
211
10
143.409415
20
345.432534
11
143.229196
21
345.382946
0
LINE
8
annotation
62
1
39
211
10
143.229196
20
345.382946
11
143.063176
21
345.304027
0
LINE
8
annotation
62
1
39
211
10
143.063176
20
345.304027
11
142.914385
21
345.198826
0
LINE
8
annotation
62
1
39
211
10
142.914385
20
345.198826
11
142.785852
21
345.070394
0
LINE
8
annotation
62
1
39
211
10
142.785852
20
345.070394
11
142.680607
21
344.921781
0
LINE
8
annotation
62
1
39
211
10
142.680607
20
344.921781
11
142.601681
21
344.756036
0
LINE
8
annotation
62
1
39
211
10
142.601681
20
344.756036
11
142.552104
21
344.576208
0
LINE
8
annotation
62
1
39
211
10
142.552104
20
344.576208
11
142.534904
21
344.385348
0
LINE
8
annotation
62
1
39
211
10
142.534904
20
344.385348
11
142.534904
21
344.385348
0
LINE
8
annotation
62
1
39
211
10
142.534904
20
344.385348
11
142.552113
21
344.193592
0
LINE
8
annotation
62
1
39
211
10
142.552113
20
344.193592
11
142.601716
21
344.013067
0
LINE
8
annotation
62
1
39
211
10
142.601716
20
344.013067
11
142.680674
21
343.846797
0
LINE
8
annotation
62
1
39
211
10
142.680674
20
343.846797
11
142.785951
21
343.697808
0
LINE
8
annotation
62
1
39
211
10
142.785951
20
343.697808
11
142.914509
21
343.569124
0
LINE
8
annotation
62
1
39
211
10
142.914509
20
343.569124
11
143.063310
21
343.463771
0
LINE
8
annotation
62
1
39
211
10
143.063310
20
343.463771
11
143.229317
21
343.384774
0
LINE
8
annotation
62
1
39
211
10
143.229317
20
343.384774
11
143.409494
21
343.335157
0
LINE
8
annotation
62
1
39
211
10
143.409494
20
343.335157
11
143.600802
21
343.317946
0
LINE
8
annotation
62
1
39
211
10
143.600802
20
343.317946
11
143.600802
21
343.317946
0
LINE
8
annotation
62
1
39
211
10
143.600802
20
343.317946
11
143.792110
21
343.335157
0
LINE
8
annotation
62
1
39
211
10
143.792110
20
343.335157
11
143.972286
21
343.384774
0
LINE
8
annotation
62
1
39
211
10
143.972286
20
343.384774
11
144.138294
21
343.463771
0
LINE
8
annotation
62
1
39
211
10
144.138294
20
343.463771
11
144.287095
21
343.569124
0
LINE
8
annotation
62
1
39
211
10
144.287095
20
343.569124
11
144.415653
21
343.697808
0
LINE
8
annotation
62
1
39
211
10
144.415653
20
343.697808
11
144.520929
21
343.846797
0
LINE
8
annotation
62
1
39
211
10
144.520929
20
343.846797
11
144.599888
21
344.013067
0
LINE
8
annotation
62
1
39
211
10
144.599888
20
344.013067
11
144.649490
21
344.193592
0
LINE
8
annotation
62
1
39
211
10
144.649490
20
344.193592
11
144.666699
21
344.385348
0
LINE
8
annotation
62
1
39
211
10
93.977685
20
304.583835
11
89.938383
21
298.741354
0
LINE
8
annotation
62
1
39
211
10
89.938383
20
298.741354
11
85.898321
21
304.583835
0
LINE
8
annotation
62
1
39
211
10
89.938383
20
299.211517
11
89.938383
21
292.471244
0
LINE
8
annotation
62
1
39
211
10
105.143683
20
298.527540
11
98.521141
21
298.527540
0
LINE
8
annotation
62
1
39
211
10
112.377475
20
292.471624
11
112.377475
21
304.583455
0
LINE
8
annotation
62
1
39
211
10
112.377475
20
304.583455
11
109.684860
21
301.890080
0
LINE
8
annotation
62
1
39
211
10
118.864514
20
292.631383
11
118.864514
21
292.631383
0
LINE
8
annotation
62
1
39
211
10
118.864514
20
292.631383
11
119.146008
21
292.526154
0
LINE
8
annotation
62
1
39
211
10
119.146008
20
292.526154
11
119.434704
21
292.473874
0
LINE
8
annotation
62
1
39
211
10
119.434704
20
292.473874
11
119.724075
21
292.472412
0
LINE
8
annotation
62
1
39
211
10
119.724075
20
292.472412
11
120.007595
21
292.519636
0
LINE
8
annotation
62
1
39
211
10
120.007595
20
292.519636
11
120.278736
21
292.613416
0
LINE
8
annotation
62
1
39
211
10
120.278736
20
292.613416
11
120.530973
21
292.751618
0
LINE
8
annotation
62
1
39
211
10
120.530973
20
292.751618
11
120.757780
21
292.932111
0
LINE
8
annotation
62
1
39
211
10
120.757780
20
292.932111
11
120.952628
21
293.152764
0
LINE
8
annotation
62
1
39
211
10
120.952628
20
293.152764
11
121.108993
21
293.411444
0
LINE
8
annotation
62
1
39
211
10
121.108993
20
293.411444
11
121.108993
21
293.411444
0
LINE
8
annotation
62
1
39
211
10
121.108993
20
293.411444
11
121.575527
21
294.503482
0
LINE
8
annotation
62
1
39
211
10
121.575527
20
294.503482
11
121.925428
21
295.627128
0
LINE
8
annotation
62
1
39
211
10
121.925428
20
295.627128
11
122.158695
21
296.773422
0
LINE
8
annotation
62
1
39
211
10
122.158695
20
296.773422
11
122.275329
21
297.933408
0
LINE
8
annotation
62
1
39
211
10
122.275329
20
297.933408
11
122.275329
21
299.098125
0
LINE
8
annotation
62
1
39
211
10
122.275329
20
299.098125
11
122.158695
21
300.258617
0
LINE
8
annotation
62
1
39
211
10
122.158695
20
300.258617
11
121.925428
21
301.405924
0
LINE
8
annotation
62
1
39
211
10
121.925428
20
301.405924
11
121.575527
21
302.531089
0
LINE
8
annotation
62
1
39
211
10
121.575527
20
302.531089
11
121.108993
21
303.625153
0
LINE
8
annotation
62
1
39
211
10
121.108993
20
303.625153
11
121.108993
21
303.625153
0
LINE
8
annotation
62
1
39
211
10
121.108993
20
303.625153
11
121.049664
21
303.735567
0
LINE
8
annotation
62
1
39
211
10
121.049664
20
303.735567
11
120.982401
21
303.841130
0
LINE
8
annotation
62
1
39
211
10
120.982401
20
303.841130
11
120.907712
21
303.941323
0
LINE
8
annotation
62
1
39
211
10
120.907712
20
303.941323
11
120.826102
21
304.035628
0
LINE
8
annotation
62
1
39
211
10
120.826102
20
304.035628
11
120.738078
21
304.123525
0
LINE
8
annotation
62
1
39
211
10
120.738078
20
304.123525
11
120.644147
21
304.204495
0
LINE
8
annotation
62
1
39
211
10
120.644147
20
304.204495
11
120.544814
21
304.278019
0
LINE
8
annotation
62
1
39
211
10
120.544814
20
304.278019
11
120.440587
21
304.343579
0
LINE
8
annotation
62
1
39
211
10
120.440587
20
304.343579
11
120.331971
21
304.400656
0
LINE
8
annotation
62
1
39
211
10
120.331971
20
304.400656
11
120.331971
21
304.400656
0
LINE
8
annotation
62
1
39
211
10
120.331971
20
304.400656
11
120.048242
21
304.508167
0
LINE
8
annotation
62
1
39
211
10
120.048242
20
304.508167
11
119.757855
21
304.562234
0
LINE
8
annotation
62
1
39
211
10
119.757855
20
304.562234
11
119.467262
21
304.565001
0
LINE
8
annotation
62
1
39
211
10
119.467262
20
304.565001
11
119.182914
21
304.518613
0
LINE
8
annotation
62
1
39
211
10
119.182914
20
304.518613
11
118.911263
21
304.425214
0
LINE
8
annotation
62
1
39
211
10
118.911263
20
304.425214
11
118.658760
21
304.286948
0
LINE
8
annotation
62
1
39
211
10
118.658760
20
304.286948
11
118.431857
21
304.105960
0
LINE
8
annotation
62
1
39
211
10
118.431857
20
304.105960
11
118.237005
21
303.884393
0
LINE
8
annotation
62
1
39
211
10
118.237005
20
303.884393
11
118.080656
21
303.624393
0
LINE
8
annotation
62
1
39
211
10
118.080656
20
303.624393
11
118.080656
21
303.624393
0
LINE
8
annotation
62
1
39
211
10
118.080656
20
303.624393
11
117.616372
21
302.532580
0
LINE
8
annotation
62
1
39
211
10
117.616372
20
302.532580
11
117.268159
21
301.409103
0
LINE
8
annotation
62
1
39
211
10
117.268159
20
301.409103
11
117.036017
21
300.262921
0
LINE
8
annotation
62
1
39
211
10
117.036017
20
300.262921
11
116.919946
21
299.102992
0
LINE
8
annotation
62
1
39
211
10
116.919946
20
299.102992
11
116.919946
21
297.938275
0
LINE
8
annotation
62
1
39
211
10
116.919946
20
297.938275
11
117.036017
21
296.777727
0
LINE
8
annotation
62
1
39
211
10
117.036017
20
296.777727
11
117.268159
21
295.630307
0
LINE
8
annotation
62
1
39
211
10
117.268159
20
295.630307
11
117.616372
21
294.504973
0
LINE
8
annotation
62
1
39
211
10
117.616372
20
294.504973
11
118.080656
21
293.410685
0
LINE
8
annotation
62
1
39
211
10
118.080656
20
293.410685
11
118.080656
21
293.410685
0
LINE
8
annotation
62
1
39
211
10
118.080656
20
293.410685
11
118.139770
21
293.300490
0
LINE
8
annotation
62
1
39
211
10
118.139770
20
293.300490
11
118.206535
21
293.195453
0
LINE
8
annotation
62
1
39
211
10
118.206535
20
293.195453
11
118.280671
21
293.095892
0
LINE
8
annotation
62
1
39
211
10
118.280671
20
293.095892
11
118.361897
21
293.002127
0
LINE
8
annotation
62
1
39
211
10
118.361897
20
293.002127
11
118.449930
21
292.914475
0
LINE
8
annotation
62
1
39
211
10
118.449930
20
292.914475
11
118.544489
21
292.833256
0
LINE
8
annotation
62
1
39
211
10
118.544489
20
292.833256
11
118.645294
21
292.758788
0
LINE
8
annotation
62
1
39
211
10
118.645294
20
292.758788
11
118.752063
21
292.691391
0
LINE
8
annotation
62
1
39
211
10
118.752063
20
292.691391
11
118.864514
21
292.631383
0
LINE
8
frame
62
5
39
2
10
0.000000
20
0.000000
11
450.000000
21
0.000000
0
LINE
8
frame
62
5
39
2
10
450.000000
20
0.000000
11
450.000000
21
500.000000
0
LINE
8
frame
62
5
39
2
10
450.000000
20
500.000000
11
0.000000
21
500.000000
0
LINE
8
frame
62
5
39
2
10
0.000000
20
500.000000
11
0.000000
21
0.000000
0
ENDSEC
0
EOF
