0
SECTION
2
HEADER
9
$ACADVER
1
AC1009
0
ENDSEC
0
SECTION
2
TABLES
0
TABLE
2
VPORT
70
1
0
VPORT
2
ACTIVE
70
0
10
0.0
20
0.0
11
0.0
21
0.0
12
0.0
22
0.0
13
0.0
23
0.0
14
0.0
24
0.0
15
0.0
25
0.0
16
0.0
26
0.0
36
0.0
17
0.0
27
0.0
37
0.0
40
0.0
41
0.0
42
0.0
43
0.0
44
0.0
50
0.0
51
0.0
71
0
72
1000
73
1
74
3
75
0
76
0
77
0
78
0
0
ENDTAB
0
ENDSEC
0
SECTION
2
ENTITIES
0
LINE
8
boundary
62
5
39
2
10
301.354372
20
63.408581
11
309.911094
21
59.917438
0
LINE
8
boundary
62
5
39
2
10
309.911094
20
59.917438
11
314.048582
21
58.229343
0
LINE
8
boundary
62
5
39
2
10
314.048582
20
58.229343
11
314.048582
21
59.655292
0
LINE
8
boundary
62
5
39
2
10
314.048582
20
59.655292
11
314.048582
21
67.002568
0
LINE
8
boundary
62
5
39
2
10
314.048582
20
67.002568
11
283.245704
21
67.152568
0
LINE
8
boundary
62
5
39
2
10
283.245704
20
67.152568
11
284.225294
21
66.749246
0
LINE
8
boundary
62
5
39
2
10
284.225294
20
66.749246
11
286.465155
21
65.884797
0
LINE
8
boundary
62
5
39
2
10
286.465155
20
65.884797
11
287.284313
21
65.614159
0
LINE
8
boundary
62
5
39
2
10
287.284313
20
65.614159
11
289.645787
21
64.924677
0
LINE
8
boundary
62
5
39
2
10
289.645787
20
64.924677
11
290.474815
21
64.704455
0
LINE
8
boundary
62
5
39
2
10
290.474815
20
64.704455
11
292.930962
21
64.202427
0
LINE
8
boundary
62
5
39
2
10
292.930962
20
64.202427
11
293.766231
21
64.032329
0
LINE
8
boundary
62
5
39
2
10
293.766231
20
64.032329
11
294.591674
21
63.913348
0
LINE
8
boundary
62
5
39
2
10
294.591674
20
63.913348
11
297.126763
21
63.606495
0
LINE
8
boundary
62
5
39
2
10
297.126763
20
63.606495
11
297.956512
21
63.535195
0
LINE
8
boundary
62
5
39
2
10
297.956512
20
63.535195
11
300.523723
21
63.432284
0
LINE
8
boundary
62
5
39
2
10
300.523723
20
63.432284
11
301.354372
21
63.408581
0
LINE
8
hole
62
5
39
2
10
109.090554
20
203.949076
11
146.816101
21
203.949075
0
LINE
8
hole
62
5
39
2
10
146.816101
20
203.949075
11
146.816101
21
196.061222
0
LINE
8
hole
62
5
39
2
10
146.816101
20
196.061222
11
146.816101
21
78.949075
0
LINE
8
hole
62
5
39
2
10
146.816101
20
78.949075
11
109.090554
21
78.949075
0
LINE
8
hole
62
5
39
2
10
109.090554
20
78.949075
11
109.090554
21
91.885797
0
LINE
8
hole
62
5
39
2
10
109.090554
20
91.885797
11
61.346849
21
92.035797
0
LINE
8
hole
62
5
39
2
10
61.346849
20
92.035797
11
61.346848
21
94.935797
0
LINE
8
hole
62
5
39
2
10
61.346848
20
94.935797
11
108.995553
21
94.935797
0
LINE
8
hole
62
5
39
2
10
108.995553
20
94.935797
11
109.090553
21
104.292427
0
LINE
8
hole
62
5
39
2
10
109.090553
20
104.292427
11
109.090553
21
107.282007
0
LINE
8
hole
62
5
39
2
10
109.090553
20
107.282007
11
55.389027
21
107.432007
0
LINE
8
hole
62
5
39
2
10
55.389027
20
107.432007
11
55.389027
21
110.332007
0
LINE
8
hole
62
5
39
2
10
55.389027
20
110.332007
11
108.995553
21
110.332007
0
LINE
8
hole
62
5
39
2
10
108.995553
20
110.332007
11
109.090552
21
116.045369
0
LINE
8
hole
62
5
39
2
10
109.090552
20
116.045369
11
95.484439
21
116.045369
0
LINE
8
hole
62
5
39
2
10
95.484439
20
116.045369
11
91.051440
21
116.045369
0
LINE
8
hole
62
5
39
2
10
91.051440
20
116.045369
11
91.051440
21
160.772791
0
LINE
8
hole
62
5
39
2
10
91.051440
20
160.772791
11
91.051440
21
165.617865
0
LINE
8
hole
62
5
39
2
10
91.051440
20
165.617865
11
109.090552
21
166.045371
0
LINE
8
hole
62
5
39
2
10
109.090552
20
166.045371
11
109.090553
21
171.775050
0
LINE
8
hole
62
5
39
2
10
109.090553
20
171.775050
11
55.389027
21
171.925050
0
LINE
8
hole
62
5
39
2
10
55.389027
20
171.925050
11
55.389027
21
174.825050
0
LINE
8
hole
62
5
39
2
10
55.389027
20
174.825050
11
108.995553
21
174.825050
0
LINE
8
hole
62
5
39
2
10
108.995553
20
174.825050
11
109.090553
21
178.054119
0
LINE
8
hole
62
5
39
2
10
109.090553
20
178.054119
11
109.090553
21
187.791615
0
LINE
8
hole
62
5
39
2
10
109.090553
20
187.791615
11
61.346848
21
187.941615
0
LINE
8
hole
62
5
39
2
10
61.346848
20
187.941615
11
61.346848
21
190.841615
0
LINE
8
hole
62
5
39
2
10
61.346848
20
190.841615
11
108.995554
21
190.841614
0
LINE
8
hole
62
5
39
2
10
108.995554
20
190.841614
11
109.090554
21
203.949076
0
LINE
8
boundary
62
5
39
2
10
314.048582
20
70.202568
11
314.048582
21
91.885798
0
LINE
8
boundary
62
5
39
2
10
314.048582
20
91.885798
11
230.482342
21
92.035797
0
LINE
8
boundary
62
5
39
2
10
230.482342
20
92.035797
11
230.482341
21
94.935797
0
LINE
8
boundary
62
5
39
2
10
230.482341
20
94.935797
11
313.953582
21
94.935797
0
LINE
8
boundary
62
5
39
2
10
313.953582
20
94.935797
11
314.048582
21
107.282007
0
LINE
8
boundary
62
5
39
2
10
314.048582
20
107.282007
11
230.482341
21
107.432007
0
LINE
8
boundary
62
5
39
2
10
230.482341
20
107.432007
11
230.482341
21
110.332007
0
LINE
8
boundary
62
5
39
2
10
230.482341
20
110.332007
11
313.953582
21
110.332007
0
LINE
8
boundary
62
5
39
2
10
313.953582
20
110.332007
11
314.048582
21
118.855791
0
LINE
8
boundary
62
5
39
2
10
314.048582
20
118.855791
11
314.048582
21
129.312750
0
LINE
8
boundary
62
5
39
2
10
314.048582
20
129.312750
11
314.048582
21
130.738699
0
LINE
8
boundary
62
5
39
2
10
314.048582
20
130.738699
11
309.911093
21
129.050603
0
LINE
8
boundary
62
5
39
2
10
309.911093
20
129.050603
11
301.354371
21
125.559460
0
LINE
8
boundary
62
5
39
2
10
301.354371
20
125.559460
11
300.523723
21
125.535757
0
LINE
8
boundary
62
5
39
2
10
300.523723
20
125.535757
11
297.956513
21
125.432844
0
LINE
8
boundary
62
5
39
2
10
297.956513
20
125.432844
11
297.126763
21
125.361543
0
LINE
8
boundary
62
5
39
2
10
297.126763
20
125.361543
11
294.591674
21
125.054692
0
LINE
8
boundary
62
5
39
2
10
294.591674
20
125.054692
11
293.766231
21
124.935713
0
LINE
8
boundary
62
5
39
2
10
293.766231
20
124.935713
11
292.930962
21
124.765614
0
LINE
8
boundary
62
5
39
2
10
292.930962
20
124.765614
11
290.474815
21
124.263581
0
LINE
8
boundary
62
5
39
2
10
290.474815
20
124.263581
11
289.645787
21
124.043360
0
LINE
8
boundary
62
5
39
2
10
289.645787
20
124.043360
11
287.284313
21
123.353881
0
LINE
8
boundary
62
5
39
2
10
287.284313
20
123.353881
11
286.465155
21
123.083241
0
LINE
8
boundary
62
5
39
2
10
286.465155
20
123.083241
11
284.225295
21
122.218795
0
LINE
8
boundary
62
5
39
2
10
284.225295
20
122.218795
11
283.419749
21
121.897694
0
LINE
8
boundary
62
5
39
2
10
283.419749
20
121.897694
11
282.592599
21
121.507323
0
LINE
8
boundary
62
5
39
2
10
282.592599
20
121.507323
11
281.413623
21
120.949979
0
LINE
8
boundary
62
5
39
2
10
281.413623
20
120.949979
11
280.915632
21
120.705079
0
LINE
8
boundary
62
5
39
2
10
280.915632
20
120.705079
11
270.928278
21
120.639101
0
LINE
8
boundary
62
5
39
2
10
270.928278
20
120.639101
11
259.812006
21
120.634005
0
LINE
8
boundary
62
5
39
2
10
259.812006
20
120.634005
11
251.332565
21
120.634005
0
LINE
8
boundary
62
5
39
2
10
251.332565
20
120.634005
11
238.475748
21
120.634005
0
LINE
8
boundary
62
5
39
2
10
238.475748
20
120.634005
11
232.635557
21
120.637533
0
LINE
8
boundary
62
5
39
2
10
232.635557
20
120.637533
11
225.651894
21
120.629018
0
LINE
8
boundary
62
5
39
2
10
225.651894
20
120.629018
11
225.651894
21
121.142990
0
LINE
8
boundary
62
5
39
2
10
225.651894
20
121.142990
11
225.651894
21
124.839608
0
LINE
8
boundary
62
5
39
2
10
225.651894
20
124.839608
11
225.651894
21
127.774296
0
LINE
8
boundary
62
5
39
2
10
225.651894
20
127.774296
11
182.283179
21
134.260733
0
LINE
8
boundary
62
5
39
2
10
182.283179
20
134.260733
11
165.651902
21
136.748188
0
LINE
8
boundary
62
5
39
2
10
165.651902
20
136.748188
11
165.651902
21
142.892090
0
LINE
8
boundary
62
5
39
2
10
165.651902
20
142.892090
11
165.651902
21
145.248188
0
LINE
8
boundary
62
5
39
2
10
165.651902
20
145.248188
11
209.020617
21
151.734626
0
LINE
8
boundary
62
5
39
2
10
209.020617
20
151.734626
11
225.651894
21
154.222081
0
LINE
8
boundary
62
5
39
2
10
225.651894
20
154.222081
11
225.651894
21
156.192174
0
LINE
8
boundary
62
5
39
2
10
225.651894
20
156.192174
11
225.651895
21
158.673760
0
LINE
8
boundary
62
5
39
2
10
225.651895
20
158.673760
11
232.635634
21
159.074546
0
LINE
8
boundary
62
5
39
2
10
232.635634
20
159.074546
11
238.475760
21
159.078075
0
LINE
8
boundary
62
5
39
2
10
238.475760
20
159.078075
11
246.955074
21
159.078075
0
LINE
8
boundary
62
5
39
2
10
246.955074
20
159.078075
11
259.812019
21
159.078075
0
LINE
8
boundary
62
5
39
2
10
259.812019
20
159.078075
11
270.924546
21
159.073106
0
LINE
8
boundary
62
5
39
2
10
270.924546
20
159.073106
11
280.765879
21
159.086170
0
LINE
8
boundary
62
5
39
2
10
280.765879
20
159.086170
11
281.413624
21
158.762098
0
LINE
8
boundary
62
5
39
2
10
281.413624
20
158.762098
11
283.419749
21
157.814384
0
LINE
8
boundary
62
5
39
2
10
283.419749
20
157.814384
11
284.225295
21
157.493283
0
LINE
8
boundary
62
5
39
2
10
284.225295
20
157.493283
11
286.465155
21
156.628836
0
LINE
8
boundary
62
5
39
2
10
286.465155
20
156.628836
11
287.284313
21
156.358194
0
LINE
8
boundary
62
5
39
2
10
287.284313
20
156.358194
11
289.645787
21
155.668716
0
LINE
8
boundary
62
5
39
2
10
289.645787
20
155.668716
11
290.474815
21
155.448496
0
LINE
8
boundary
62
5
39
2
10
290.474815
20
155.448496
11
292.930962
21
154.946464
0
LINE
8
boundary
62
5
39
2
10
292.930962
20
154.946464
11
293.766231
21
154.776364
0
LINE
8
boundary
62
5
39
2
10
293.766231
20
154.776364
11
294.591675
21
154.657385
0
LINE
8
boundary
62
5
39
2
10
294.591675
20
154.657385
11
297.126764
21
154.350536
0
LINE
8
boundary
62
5
39
2
10
297.126764
20
154.350536
11
297.956513
21
154.279234
0
LINE
8
boundary
62
5
39
2
10
297.956513
20
154.279234
11
300.523723
21
154.176320
0
LINE
8
boundary
62
5
39
2
10
300.523723
20
154.176320
11
301.354371
21
154.152617
0
LINE
8
boundary
62
5
39
2
10
301.354371
20
154.152617
11
309.911093
21
150.661473
0
LINE
8
boundary
62
5
39
2
10
309.911093
20
150.661473
11
314.048582
21
148.973377
0
LINE
8
boundary
62
5
39
2
10
314.048582
20
148.973377
11
314.048582
21
150.399326
0
LINE
8
boundary
62
5
39
2
10
314.048582
20
150.399326
11
314.048582
21
171.775050
0
LINE
8
boundary
62
5
39
2
10
314.048582
20
171.775050
11
230.482342
21
171.925050
0
LINE
8
boundary
62
5
39
2
10
230.482342
20
171.925050
11
230.482341
21
174.825050
0
LINE
8
boundary
62
5
39
2
10
230.482341
20
174.825050
11
313.953582
21
174.825050
0
LINE
8
boundary
62
5
39
2
10
313.953582
20
174.825050
11
314.048582
21
187.791614
0
LINE
8
boundary
62
5
39
2
10
314.048582
20
187.791614
11
230.482342
21
187.941615
0
LINE
8
boundary
62
5
39
2
10
230.482342
20
187.941615
11
230.482342
21
190.841614
0
LINE
8
boundary
62
5
39
2
10
230.482342
20
190.841614
11
313.953582
21
190.841615
0
LINE
8
boundary
62
5
39
2
10
313.953582
20
190.841615
11
314.048582
21
209.599829
0
LINE
8
boundary
62
5
39
2
10
314.048582
20
209.599829
11
314.048582
21
211.716173
0
LINE
8
boundary
62
5
39
2
10
314.048582
20
211.716173
11
299.643187
21
211.866173
0
LINE
8
boundary
62
5
39
2
10
299.643187
20
211.866173
11
299.643187
21
214.766173
0
LINE
8
boundary
62
5
39
2
10
299.643187
20
214.766173
11
313.953582
21
214.766173
0
LINE
8
boundary
62
5
39
2
10
313.953582
20
214.766173
11
314.048582
21
220.056788
0
LINE
8
boundary
62
5
39
2
10
314.048582
20
220.056788
11
314.048582
21
221.482737
0
LINE
8
boundary
62
5
39
2
10
314.048582
20
221.482737
11
309.911093
21
219.794641
0
LINE
8
boundary
62
5
39
2
10
309.911093
20
219.794641
11
301.354371
21
216.303494
0
LINE
8
boundary
62
5
39
2
10
301.354371
20
216.303494
11
300.523722
21
216.279792
0
LINE
8
boundary
62
5
39
2
10
300.523722
20
216.279792
11
297.956512
21
216.176881
0
LINE
8
boundary
62
5
39
2
10
297.956512
20
216.176881
11
297.126763
21
216.105580
0
LINE
8
boundary
62
5
39
2
10
297.126763
20
216.105580
11
294.591674
21
215.798731
0
LINE
8
boundary
62
5
39
2
10
294.591674
20
215.798731
11
293.766231
21
215.679751
0
LINE
8
boundary
62
5
39
2
10
293.766231
20
215.679751
11
292.930962
21
215.509651
0
LINE
8
boundary
62
5
39
2
10
292.930962
20
215.509651
11
290.474815
21
215.007620
0
LINE
8
boundary
62
5
39
2
10
290.474815
20
215.007620
11
289.645787
21
214.787400
0
LINE
8
boundary
62
5
39
2
10
289.645787
20
214.787400
11
287.284314
21
214.097914
0
LINE
8
boundary
62
5
39
2
10
287.284314
20
214.097914
11
286.465155
21
213.827273
0
LINE
8
boundary
62
5
39
2
10
286.465155
20
213.827273
11
284.225295
21
212.962829
0
LINE
8
boundary
62
5
39
2
10
284.225295
20
212.962829
11
283.419748
21
212.641727
0
LINE
8
boundary
62
5
39
2
10
283.419748
20
212.641727
11
282.592599
21
212.251355
0
LINE
8
boundary
62
5
39
2
10
282.592599
20
212.251355
11
281.413624
21
211.694011
0
LINE
8
boundary
62
5
39
2
10
281.413624
20
211.694011
11
280.915632
21
211.449114
0
LINE
8
boundary
62
5
39
2
10
280.915632
20
211.449114
11
270.928132
21
211.383134
0
LINE
8
boundary
62
5
39
2
10
270.928132
20
211.383134
11
259.812018
21
211.378037
0
LINE
8
boundary
62
5
39
2
10
259.812018
20
211.378037
11
251.332705
21
211.378037
0
LINE
8
boundary
62
5
39
2
10
251.332705
20
211.378037
11
238.475760
21
211.378037
0
LINE
8
boundary
62
5
39
2
10
238.475760
20
211.378037
11
232.635634
21
211.381566
0
LINE
8
boundary
62
5
39
2
10
232.635634
20
211.381566
11
225.651894
21
211.373050
0
LINE
8
boundary
62
5
39
2
10
225.651894
20
211.373050
11
119.627519
21
211.866173
0
LINE
8
boundary
62
5
39
2
10
119.627519
20
211.866173
11
119.627519
21
214.766173
0
LINE
8
boundary
62
5
39
2
10
119.627519
20
214.766173
11
225.556895
21
214.766173
0
LINE
8
boundary
62
5
39
2
10
225.556895
20
214.766173
11
225.651894
21
220.639776
0
LINE
8
boundary
62
5
39
2
10
225.651894
20
220.639776
11
225.651894
21
226.736838
0
LINE
8
boundary
62
5
39
2
10
225.651894
20
226.736838
11
181.653669
21
226.736838
0
LINE
8
boundary
62
5
39
2
10
181.653669
20
226.736838
11
165.651902
21
226.736838
0
LINE
8
boundary
62
5
39
2
10
165.651902
20
226.736838
11
80.819248
21
221.516794
0
LINE
8
boundary
62
5
39
2
10
80.819248
20
221.516794
11
79.568618
21
221.439839
0
LINE
8
boundary
62
5
39
2
10
79.568618
20
221.439839
11
79.569143
21
221.979944
0
LINE
8
boundary
62
5
39
2
10
79.569143
20
221.979944
11
79.572250
21
225.169364
0
LINE
8
boundary
62
5
39
2
10
79.572250
20
225.169364
11
79.572977
21
225.915955
0
LINE
8
boundary
62
5
39
2
10
79.572977
20
225.915955
11
79.573984
21
226.950579
0
LINE
8
boundary
62
5
39
2
10
79.573984
20
226.950579
11
79.574590
21
227.571713
0
LINE
8
boundary
62
5
39
2
10
79.574590
20
227.571713
11
79.575246
21
228.245679
0
LINE
8
boundary
62
5
39
2
10
79.575246
20
228.245679
11
79.575930
21
228.948247
0
LINE
8
boundary
62
5
39
2
10
79.575930
20
228.948247
11
79.576608
21
229.645705
0
LINE
8
boundary
62
5
39
2
10
79.576608
20
229.645705
11
79.577246
21
230.297837
0
LINE
8
boundary
62
5
39
2
10
79.577246
20
230.297837
11
79.577795
21
230.863628
0
LINE
8
boundary
62
5
39
2
10
79.577795
20
230.863628
11
79.592379
21
245.841378
0
LINE
8
boundary
62
5
39
2
10
79.592379
20
245.841378
11
53.046526
21
245.991378
0
LINE
8
boundary
62
5
39
2
10
53.046526
20
245.991378
11
53.046526
21
248.891378
0
LINE
8
boundary
62
5
39
2
10
53.046526
20
248.891378
11
79.500495
21
248.891378
0
LINE
8
boundary
62
5
39
2
10
79.500495
20
248.891378
11
79.602282
21
256.011815
0
LINE
8
boundary
62
5
39
2
10
79.602282
20
256.011815
11
53.724931
21
256.161814
0
LINE
8
boundary
62
5
39
2
10
53.724931
20
256.161814
11
53.724931
21
259.061815
0
LINE
8
boundary
62
5
39
2
10
53.724931
20
259.061815
11
79.510398
21
259.061814
0
LINE
8
boundary
62
5
39
2
10
79.510398
20
259.061814
11
79.611392
21
265.368218
0
LINE
8
boundary
62
5
39
2
10
79.611392
20
265.368218
11
79.613818
21
267.858131
0
LINE
8
boundary
62
5
39
2
10
79.613818
20
267.858131
11
79.614313
21
268.368003
0
LINE
8
boundary
62
5
39
2
10
79.614313
20
268.368003
11
79.614857
21
268.923987
0
LINE
8
boundary
62
5
39
2
10
79.614857
20
268.923987
11
79.615415
21
269.496805
0
LINE
8
boundary
62
5
39
2
10
79.615415
20
269.496805
11
79.615959
21
270.058985
0
LINE
8
boundary
62
5
39
2
10
79.615959
20
270.058985
11
79.616477
21
270.588139
0
LINE
8
boundary
62
5
39
2
10
79.616477
20
270.588139
11
79.617708
21
271.853536
0
LINE
8
boundary
62
5
39
2
10
79.617708
20
271.853536
11
79.618243
21
272.402763
0
LINE
8
boundary
62
5
39
2
10
79.618243
20
272.402763
11
79.618770
21
272.945801
0
LINE
8
boundary
62
5
39
2
10
79.618770
20
272.945801
11
79.618851
21
276.730671
0
LINE
8
boundary
62
5
39
2
10
79.618851
20
276.730671
11
79.618851
21
280.331248
0
LINE
8
boundary
62
5
39
2
10
79.618851
20
280.331248
11
66.607799
21
280.331248
0
LINE
8
boundary
62
5
39
2
10
66.607799
20
280.331248
11
58.386553
21
280.331248
0
LINE
8
boundary
62
5
39
2
10
58.386553
20
280.331248
11
51.660637
21
278.044438
0
LINE
8
boundary
62
5
39
2
10
51.660637
20
278.044438
11
42.347328
21
274.877916
0
LINE
8
boundary
62
5
39
2
10
42.347328
20
274.877916
11
36.850832
21
270.205899
0
LINE
8
boundary
62
5
39
2
10
36.850832
20
270.205899
11
29.600429
21
264.043053
0
LINE
8
boundary
62
5
39
2
10
29.600429
20
264.043053
11
27.753233
21
256.192464
0
LINE
8
boundary
62
5
39
2
10
27.753233
20
256.192464
11
26.399116
21
250.437437
0
LINE
8
boundary
62
5
39
2
10
26.399116
20
250.437437
11
26.399110
21
224.255561
0
LINE
8
boundary
62
5
39
2
10
26.399110
20
224.255561
11
26.399111
21
218.168138
0
LINE
8
boundary
62
5
39
2
10
26.399111
20
218.168138
11
20.443397
21
217.801661
0
LINE
8
boundary
62
5
39
2
10
20.443397
20
217.801661
11
17.118376
21
217.597061
0
LINE
8
boundary
62
5
39
2
10
17.118376
20
217.597061
11
16.495317
21
217.558722
0
LINE
8
boundary
62
5
39
2
10
16.495317
20
217.558722
11
13.735072
21
215.036532
0
LINE
8
boundary
62
5
39
2
10
13.735072
20
215.036532
11
13.503143
21
213.091529
0
LINE
8
boundary
62
5
39
2
10
13.503143
20
213.091529
11
13.503143
21
207.893806
0
LINE
8
boundary
62
5
39
2
10
13.503143
20
207.893806
11
13.503143
21
186.955907
0
LINE
8
boundary
62
5
39
2
10
13.503143
20
186.955907
11
9.920041
21
186.955907
0
LINE
8
boundary
62
5
39
2
10
9.920041
20
186.955907
11
1.587500
21
186.955907
0
LINE
8
boundary
62
5
39
2
10
1.587500
20
186.955907
11
1.587500
21
171.393245
0
LINE
8
boundary
62
5
39
2
10
1.587500
20
171.393245
11
1.587500
21
95.358382
0
LINE
8
boundary
62
5
39
2
10
1.587500
20
95.358382
11
9.920041
21
95.358382
0
LINE
8
boundary
62
5
39
2
10
9.920041
20
95.358382
11
13.503143
21
95.358382
0
LINE
8
boundary
62
5
39
2
10
13.503143
20
95.358382
11
13.503144
21
74.299162
0
LINE
8
boundary
62
5
39
2
10
13.503144
20
74.299162
11
13.503143
21
69.041603
0
LINE
8
boundary
62
5
39
2
10
13.503143
20
69.041603
11
13.503143
21
67.288577
0
LINE
8
boundary
62
5
39
2
10
13.503143
20
67.288577
11
16.495136
21
64.552176
0
LINE
8
boundary
62
5
39
2
10
16.495136
20
64.552176
11
17.139934
21
64.512004
0
LINE
8
boundary
62
5
39
2
10
17.139934
20
64.512004
11
20.665044
21
64.292383
0
LINE
8
boundary
62
5
39
2
10
20.665044
20
64.292383
11
26.399110
21
63.935132
0
LINE
8
boundary
62
5
39
2
10
26.399110
20
63.935132
11
26.399109
21
58.597781
0
LINE
8
boundary
62
5
39
2
10
26.399109
20
58.597781
11
26.399116
21
31.481317
0
LINE
8
boundary
62
5
39
2
10
26.399116
20
31.481317
11
27.753234
21
25.726293
0
LINE
8
boundary
62
5
39
2
10
27.753234
20
25.726293
11
29.600430
21
17.875704
0
LINE
8
boundary
62
5
39
2
10
29.600430
20
17.875704
11
36.850833
21
11.712858
0
LINE
8
boundary
62
5
39
2
10
36.850833
20
11.712858
11
42.347329
21
7.040833
0
LINE
8
boundary
62
5
39
2
10
42.347329
20
7.040833
11
51.660637
21
3.874311
0
LINE
8
boundary
62
5
39
2
10
51.660637
20
3.874311
11
58.386553
21
1.587500
0
LINE
8
boundary
62
5
39
2
10
58.386553
20
1.587500
11
66.607799
21
1.587500
0
LINE
8
boundary
62
5
39
2
10
66.607799
20
1.587500
11
79.618851
21
1.587500
0
LINE
8
boundary
62
5
39
2
10
79.618851
20
1.587500
11
79.618851
21
4.254426
0
LINE
8
boundary
62
5
39
2
10
79.618851
20
4.254426
11
79.618850
21
5.145950
0
LINE
8
boundary
62
5
39
2
10
79.618850
20
5.145950
11
79.618851
21
8.890391
0
LINE
8
boundary
62
5
39
2
10
79.618851
20
8.890391
11
79.618243
21
9.515992
0
LINE
8
boundary
62
5
39
2
10
79.618243
20
9.515992
11
79.617708
21
10.065220
0
LINE
8
boundary
62
5
39
2
10
79.617708
20
10.065220
11
79.616945
21
10.850168
0
LINE
8
boundary
62
5
39
2
10
79.616945
20
10.850168
11
79.615959
21
11.859768
0
LINE
8
boundary
62
5
39
2
10
79.615959
20
11.859768
11
79.615415
21
12.421952
0
LINE
8
boundary
62
5
39
2
10
79.615415
20
12.421952
11
79.614857
21
12.994770
0
LINE
8
boundary
62
5
39
2
10
79.614857
20
12.994770
11
79.614314
21
13.550750
0
LINE
8
boundary
62
5
39
2
10
79.614314
20
13.550750
11
79.613819
21
14.060626
0
LINE
8
boundary
62
5
39
2
10
79.613819
20
14.060626
11
79.611393
21
16.550539
0
LINE
8
boundary
62
5
39
2
10
79.611393
20
16.550539
11
79.604725
21
23.397808
0
LINE
8
boundary
62
5
39
2
10
79.604725
20
23.397808
11
53.643317
21
23.547807
0
LINE
8
boundary
62
5
39
2
10
53.643317
20
23.547807
11
53.643317
21
26.447808
0
LINE
8
boundary
62
5
39
2
10
53.643317
20
26.447808
11
79.506609
21
26.447808
0
LINE
8
boundary
62
5
39
2
10
79.506609
20
26.447808
11
79.594422
21
33.979331
0
LINE
8
boundary
62
5
39
2
10
79.594422
20
33.979331
11
53.045989
21
34.129331
0
LINE
8
boundary
62
5
39
2
10
53.045989
20
34.129331
11
53.045990
21
37.029332
0
LINE
8
boundary
62
5
39
2
10
53.045990
20
37.029332
11
79.496306
21
37.029331
0
LINE
8
boundary
62
5
39
2
10
79.496306
20
37.029331
11
79.577795
21
51.055125
0
LINE
8
boundary
62
5
39
2
10
79.577795
20
51.055125
11
79.577246
21
51.620915
0
LINE
8
boundary
62
5
39
2
10
79.577246
20
51.620915
11
79.576608
21
52.273045
0
LINE
8
boundary
62
5
39
2
10
79.576608
20
52.273045
11
79.575930
21
52.970502
0
LINE
8
boundary
62
5
39
2
10
79.575930
20
52.970502
11
79.575247
21
53.673070
0
LINE
8
boundary
62
5
39
2
10
79.575247
20
53.673070
11
79.574591
21
54.347035
0
LINE
8
boundary
62
5
39
2
10
79.574591
20
54.347035
11
79.573984
21
54.968169
0
LINE
8
boundary
62
5
39
2
10
79.573984
20
54.968169
11
79.573446
21
55.522086
0
LINE
8
boundary
62
5
39
2
10
79.573446
20
55.522086
11
79.572580
21
56.410499
0
LINE
8
boundary
62
5
39
2
10
79.572580
20
56.410499
11
79.569307
21
59.774677
0
LINE
8
boundary
62
5
39
2
10
79.569307
20
59.774677
11
79.568481
21
60.622565
0
LINE
8
boundary
62
5
39
2
10
79.568481
20
60.622565
11
80.671720
21
60.553831
0
LINE
8
boundary
62
5
39
2
10
80.671720
20
60.553831
11
165.651902
21
55.259381
0
LINE
8
boundary
62
5
39
2
10
165.651902
20
55.259381
11
209.650127
21
55.259381
0
LINE
8
boundary
62
5
39
2
10
209.650127
20
55.259381
11
225.651894
21
55.259381
0
LINE
8
boundary
62
5
39
2
10
225.651894
20
55.259381
11
225.651894
21
60.438303
0
LINE
8
boundary
62
5
39
2
10
225.651894
20
60.438303
11
225.651895
21
67.152568
0
LINE
8
boundary
62
5
39
2
10
225.651895
20
67.152568
11
163.825863
21
67.152568
0
LINE
8
boundary
62
5
39
2
10
163.825863
20
67.152568
11
163.825863
21
70.052568
0
LINE
8
boundary
62
5
39
2
10
163.825863
20
70.052568
11
313.953582
21
70.052568
0
LINE
8
boundary
62
5
39
2
10
313.953582
20
70.052568
11
314.048582
21
70.202568
0
LINE
8
annotation
62
1
39
211
10
48.126416
20
22.597808
11
48.126416
21
27.397808
0
LINE
8
annotation
62
1
39
211
10
48.126416
20
27.397808
11
47.059315
21
26.330405
0
LINE
8
annotation
62
1
39
211
10
48.061285
20
33.179293
11
45.929490
21
33.179293
0
LINE
8
annotation
62
1
39
211
10
45.929490
20
33.179293
11
47.899338
21
36.350495
0
LINE
8
annotation
62
1
39
211
10
47.899338
20
36.350495
11
47.899338
21
36.350495
0
LINE
8
annotation
62
1
39
211
10
47.899338
20
36.350495
11
47.901693
21
36.353409
0
LINE
8
annotation
62
1
39
211
10
47.901693
20
36.353409
11
47.903951
21
36.356348
0
LINE
8
annotation
62
1
39
211
10
47.903951
20
36.356348
11
47.906128
21
36.359336
0
LINE
8
annotation
62
1
39
211
10
47.906128
20
36.359336
11
47.908237
21
36.362399
0
LINE
8
annotation
62
1
39
211
10
47.908237
20
36.362399
11
47.910295
21
36.365561
0
LINE
8
annotation
62
1
39
211
10
47.910295
20
36.365561
11
47.912315
21
36.368846
0
LINE
8
annotation
62
1
39
211
10
47.912315
20
36.368846
11
47.914313
21
36.372280
0
LINE
8
annotation
62
1
39
211
10
47.914313
20
36.372280
11
47.916304
21
36.375888
0
LINE
8
annotation
62
1
39
211
10
47.916304
20
36.375888
11
47.918302
21
36.379694
0
LINE
8
annotation
62
1
39
211
10
47.918302
20
36.379694
11
47.918302
21
36.379694
0
LINE
8
annotation
62
1
39
211
10
47.918302
20
36.379694
11
47.999637
21
36.554326
0
LINE
8
annotation
62
1
39
211
10
47.999637
20
36.554326
11
48.047151
21
36.735348
0
LINE
8
annotation
62
1
39
211
10
48.047151
20
36.735348
11
48.062009
21
36.918668
0
LINE
8
annotation
62
1
39
211
10
48.062009
20
36.918668
11
48.045376
21
37.100198
0
LINE
8
annotation
62
1
39
211
10
48.045376
20
37.100198
11
47.998416
21
37.275846
0
LINE
8
annotation
62
1
39
211
10
47.998416
20
37.275846
11
47.922293
21
37.441522
0
LINE
8
annotation
62
1
39
211
10
47.922293
20
37.441522
11
47.818173
21
37.593136
0
LINE
8
annotation
62
1
39
211
10
47.818173
20
37.593136
11
47.687218
21
37.726597
0
LINE
8
annotation
62
1
39
211
10
47.687218
20
37.726597
11
47.530594
21
37.837815
0
LINE
8
annotation
62
1
39
211
10
47.530594
20
37.837815
11
47.530594
21
37.837815
0
LINE
8
annotation
62
1
39
211
10
47.530594
20
37.837815
11
47.355476
21
37.917994
0
LINE
8
annotation
62
1
39
211
10
47.355476
20
37.917994
11
47.174177
21
37.964776
0
LINE
8
annotation
62
1
39
211
10
47.174177
20
37.964776
11
46.990750
21
37.979214
0
LINE
8
annotation
62
1
39
211
10
46.990750
20
37.979214
11
46.809247
21
37.962362
0
LINE
8
annotation
62
1
39
211
10
46.809247
20
37.962362
11
46.633723
21
37.915272
0
LINE
8
annotation
62
1
39
211
10
46.633723
20
37.915272
11
46.468230
21
37.838997
0
LINE
8
annotation
62
1
39
211
10
46.468230
20
37.838997
11
46.316822
21
37.734590
0
LINE
8
annotation
62
1
39
211
10
46.316822
20
37.734590
11
46.183552
21
37.603104
0
LINE
8
annotation
62
1
39
211
10
46.183552
20
37.603104
11
46.072473
21
37.445591
0
LINE
8
annotation
62
1
39
211
10
46.072473
20
37.445591
11
45.932500
21
37.177085
0
LINE
8
annotation
62
1
39
211
10
156.709363
20
66.202718
11
157.775261
21
66.202718
0
LINE
8
annotation
62
1
39
211
10
157.775261
20
66.202718
11
157.775261
21
66.202718
0
LINE
8
annotation
62
1
39
211
10
157.775261
20
66.202718
11
157.966965
21
66.219916
0
LINE
8
annotation
62
1
39
211
10
157.966965
20
66.219916
11
158.147352
21
66.269479
0
LINE
8
annotation
62
1
39
211
10
158.147352
20
66.269479
11
158.313421
21
66.348366
0
LINE
8
annotation
62
1
39
211
10
158.313421
20
66.348366
11
158.462173
21
66.453534
0
LINE
8
annotation
62
1
39
211
10
158.462173
20
66.453534
11
158.590607
21
66.581941
0
LINE
8
annotation
62
1
39
211
10
158.590607
20
66.581941
11
158.695723
21
66.730544
0
LINE
8
annotation
62
1
39
211
10
158.695723
20
66.730544
11
158.774520
21
66.896302
0
LINE
8
annotation
62
1
39
211
10
158.774520
20
66.896302
11
158.823998
21
67.076172
0
LINE
8
annotation
62
1
39
211
10
158.823998
20
67.076172
11
158.841158
21
67.267111
0
LINE
8
annotation
62
1
39
211
10
158.841158
20
67.267111
11
158.841158
21
67.800812
0
LINE
8
annotation
62
1
39
211
10
158.841158
20
67.800812
11
158.841158
21
67.800812
0
LINE
8
annotation
62
1
39
211
10
158.841158
20
67.800812
11
158.823998
21
67.991672
0
LINE
8
annotation
62
1
39
211
10
158.823998
20
67.991672
11
158.774520
21
68.171499
0
LINE
8
annotation
62
1
39
211
10
158.774520
20
68.171499
11
158.695723
21
68.337245
0
LINE
8
annotation
62
1
39
211
10
158.695723
20
68.337245
11
158.590607
21
68.485858
0
LINE
8
annotation
62
1
39
211
10
158.590607
20
68.485858
11
158.462173
21
68.614290
0
LINE
8
annotation
62
1
39
211
10
158.462173
20
68.614290
11
158.313421
21
68.719490
0
LINE
8
annotation
62
1
39
211
10
158.313421
20
68.719490
11
158.147352
21
68.798409
0
LINE
8
annotation
62
1
39
211
10
158.147352
20
68.798409
11
157.966965
21
68.847997
0
LINE
8
annotation
62
1
39
211
10
157.966965
20
68.847997
11
157.775261
21
68.865204
0
LINE
8
annotation
62
1
39
211
10
157.775261
20
68.865204
11
157.241559
21
68.865204
0
LINE
8
annotation
62
1
39
211
10
157.241559
20
68.865204
11
157.775261
21
68.865204
0
LINE
8
annotation
62
1
39
211
10
157.775261
20
68.865204
11
157.775261
21
68.865204
0
LINE
8
annotation
62
1
39
211
10
157.775261
20
68.865204
11
157.966965
21
68.882416
0
LINE
8
annotation
62
1
39
211
10
157.966965
20
68.882416
11
158.147352
21
68.932032
0
LINE
8
annotation
62
1
39
211
10
158.147352
20
68.932032
11
158.313421
21
69.011030
0
LINE
8
annotation
62
1
39
211
10
158.313421
20
69.011030
11
158.462173
21
69.116383
0
LINE
8
annotation
62
1
39
211
10
158.462173
20
69.116383
11
158.590607
21
69.245067
0
LINE
8
annotation
62
1
39
211
10
158.590607
20
69.245067
11
158.695723
21
69.394056
0
LINE
8
annotation
62
1
39
211
10
158.695723
20
69.394056
11
158.774520
21
69.560326
0
LINE
8
annotation
62
1
39
211
10
158.774520
20
69.560326
11
158.823998
21
69.740851
0
LINE
8
annotation
62
1
39
211
10
158.823998
20
69.740851
11
158.841158
21
69.932607
0
LINE
8
annotation
62
1
39
211
10
158.841158
20
69.932607
11
158.841158
21
69.932607
0
LINE
8
annotation
62
1
39
211
10
158.841158
20
69.932607
11
158.823998
21
70.123467
0
LINE
8
annotation
62
1
39
211
10
158.823998
20
70.123467
11
158.774520
21
70.303294
0
LINE
8
annotation
62
1
39
211
10
158.774520
20
70.303294
11
158.695723
21
70.469040
0
LINE
8
annotation
62
1
39
211
10
158.695723
20
70.469040
11
158.590607
21
70.617653
0
LINE
8
annotation
62
1
39
211
10
158.590607
20
70.617653
11
158.462173
21
70.746085
0
LINE
8
annotation
62
1
39
211
10
158.462173
20
70.746085
11
158.313421
21
70.851285
0
LINE
8
annotation
62
1
39
211
10
158.313421
20
70.851285
11
158.147352
21
70.930204
0
LINE
8
annotation
62
1
39
211
10
158.147352
20
70.930204
11
157.966965
21
70.979792
0
LINE
8
annotation
62
1
39
211
10
157.966965
20
70.979792
11
157.775261
21
70.996999
0
LINE
8
annotation
62
1
39
211
10
157.775261
20
70.996999
11
156.709363
21
70.996999
0
LINE
8
annotation
62
1
39
211
10
56.628844
20
92.152899
11
53.963649
21
92.152899
0
LINE
8
annotation
62
1
39
211
10
53.963649
20
92.152899
11
55.028041
21
95.885797
0
LINE
8
annotation
62
1
39
211
10
55.829947
20
91.085797
11
55.829947
21
93.217592
0
LINE
8
annotation
62
1
39
211
10
225.764337
20
92.152899
11
223.099142
21
92.152899
0
LINE
8
annotation
62
1
39
211
10
223.099142
20
92.152899
11
224.163534
21
95.885797
0
LINE
8
annotation
62
1
39
211
10
224.965441
20
91.085797
11
224.965441
21
93.217592
0
LINE
8
annotation
62
1
39
211
10
48.272527
20
106.482007
11
49.338424
21
106.482007
0
LINE
8
annotation
62
1
39
211
10
49.338424
20
106.482007
11
49.338424
21
106.482007
0
LINE
8
annotation
62
1
39
211
10
49.338424
20
106.482007
11
49.529732
21
106.499208
0
LINE
8
annotation
62
1
39
211
10
49.529732
20
106.499208
11
49.709909
21
106.548797
0
LINE
8
annotation
62
1
39
211
10
49.709909
20
106.548797
11
49.875916
21
106.627754
0
LINE
8
annotation
62
1
39
211
10
49.875916
20
106.627754
11
50.024718
21
106.733060
0
LINE
8
annotation
62
1
39
211
10
50.024718
20
106.733060
11
50.153275
21
106.861694
0
LINE
8
annotation
62
1
39
211
10
50.153275
20
106.861694
11
50.258552
21
107.010635
0
LINE
8
annotation
62
1
39
211
10
50.258552
20
107.010635
11
50.337510
21
107.176865
0
LINE
8
annotation
62
1
39
211
10
50.337510
20
107.176865
11
50.387113
21
107.357363
0
LINE
8
annotation
62
1
39
211
10
50.387113
20
107.357363
11
50.404322
21
107.549108
0
LINE
8
annotation
62
1
39
211
10
50.404322
20
107.549108
11
50.404322
21
108.080100
0
LINE
8
annotation
62
1
39
211
10
50.404322
20
108.080100
11
50.404322
21
108.080100
0
LINE
8
annotation
62
1
39
211
10
50.404322
20
108.080100
11
50.387123
21
108.271753
0
LINE
8
annotation
62
1
39
211
10
50.387123
20
108.271753
11
50.337545
21
108.452002
0
LINE
8
annotation
62
1
39
211
10
50.337545
20
108.452002
11
50.258619
21
108.617871
0
LINE
8
annotation
62
1
39
211
10
50.258619
20
108.617871
11
50.153374
21
108.766385
0
LINE
8
annotation
62
1
39
211
10
50.153374
20
108.766385
11
50.024841
21
108.894569
0
LINE
8
annotation
62
1
39
211
10
50.024841
20
108.894569
11
49.876050
21
108.999448
0
LINE
8
annotation
62
1
39
211
10
49.876050
20
108.999448
11
49.710030
21
109.078045
0
LINE
8
annotation
62
1
39
211
10
49.710030
20
109.078045
11
49.529811
21
109.127385
0
LINE
8
annotation
62
1
39
211
10
49.529811
20
109.127385
11
49.338424
21
109.144493
0
LINE
8
annotation
62
1
39
211
10
49.338424
20
109.144493
11
48.272527
21
109.144493
0
LINE
8
annotation
62
1
39
211
10
48.272527
20
109.144493
11
48.272527
21
111.282007
0
LINE
8
annotation
62
1
39
211
10
48.272527
20
111.282007
11
50.404322
21
111.282007
0
LINE
8
annotation
62
1
39
211
10
223.365842
20
106.482007
11
224.431740
21
106.482007
0
LINE
8
annotation
62
1
39
211
10
224.431740
20
106.482007
11
224.431740
21
106.482007
0
LINE
8
annotation
62
1
39
211
10
224.431740
20
106.482007
11
224.623047
21
106.499208
0
LINE
8
annotation
62
1
39
211
10
224.623047
20
106.499208
11
224.803224
21
106.548797
0
LINE
8
annotation
62
1
39
211
10
224.803224
20
106.548797
11
224.969231
21
106.627754
0
LINE
8
annotation
62
1
39
211
10
224.969231
20
106.627754
11
225.118033
21
106.733060
0
LINE
8
annotation
62
1
39
211
10
225.118033
20
106.733060
11
225.246590
21
106.861694
0
LINE
8
annotation
62
1
39
211
10
225.246590
20
106.861694
11
225.351867
21
107.010635
0
LINE
8
annotation
62
1
39
211
10
225.351867
20
107.010635
11
225.430825
21
107.176865
0
LINE
8
annotation
62
1
39
211
10
225.430825
20
107.176865
11
225.480428
21
107.357363
0
LINE
8
annotation
62
1
39
211
10
225.480428
20
107.357363
11
225.497637
21
107.549108
0
LINE
8
annotation
62
1
39
211
10
225.497637
20
107.549108
11
225.497637
21
108.080100
0
LINE
8
annotation
62
1
39
211
10
225.497637
20
108.080100
11
225.497637
21
108.080100
0
LINE
8
annotation
62
1
39
211
10
225.497637
20
108.080100
11
225.480438
21
108.271753
0
LINE
8
annotation
62
1
39
211
10
225.480438
20
108.271753
11
225.430860
21
108.452002
0
LINE
8
annotation
62
1
39
211
10
225.430860
20
108.452002
11
225.351934
21
108.617871
0
LINE
8
annotation
62
1
39
211
10
225.351934
20
108.617871
11
225.246690
21
108.766385
0
LINE
8
annotation
62
1
39
211
10
225.246690
20
108.766385
11
225.118157
21
108.894569
0
LINE
8
annotation
62
1
39
211
10
225.118157
20
108.894569
11
224.969365
21
108.999448
0
LINE
8
annotation
62
1
39
211
10
224.969365
20
108.999448
11
224.803345
21
109.078045
0
LINE
8
annotation
62
1
39
211
10
224.803345
20
109.078045
11
224.623127
21
109.127385
0
LINE
8
annotation
62
1
39
211
10
224.623127
20
109.127385
11
224.431740
21
109.144493
0
LINE
8
annotation
62
1
39
211
10
224.431740
20
109.144493
11
223.365842
21
109.144493
0
LINE
8
annotation
62
1
39
211
10
223.365842
20
109.144493
11
223.365842
21
111.282007
0
LINE
8
annotation
62
1
39
211
10
223.365842
20
111.282007
11
225.497637
21
111.282007
0
LINE
8
annotation
62
1
39
211
10
49.873631
20
175.775050
11
49.873631
21
175.775050
0
LINE
8
annotation
62
1
39
211
10
49.873631
20
175.775050
11
49.568278
21
175.660561
0
LINE
8
annotation
62
1
39
211
10
49.568278
20
175.660561
11
49.288077
21
175.506301
0
LINE
8
annotation
62
1
39
211
10
49.288077
20
175.506301
11
49.035903
21
175.316134
0
LINE
8
annotation
62
1
39
211
10
49.035903
20
175.316134
11
48.814634
21
175.093926
0
LINE
8
annotation
62
1
39
211
10
48.814634
20
175.093926
11
48.627146
21
174.843542
0
LINE
8
annotation
62
1
39
211
10
48.627146
20
174.843542
11
48.476315
21
174.568845
0
LINE
8
annotation
62
1
39
211
10
48.476315
20
174.568845
11
48.365017
21
174.273702
0
LINE
8
annotation
62
1
39
211
10
48.365017
20
174.273702
11
48.296129
21
173.961978
0
LINE
8
annotation
62
1
39
211
10
48.296129
20
173.961978
11
48.272527
21
173.637536
0
LINE
8
annotation
62
1
39
211
10
48.272527
20
173.637536
11
48.272527
21
172.042151
0
LINE
8
annotation
62
1
39
211
10
48.272527
20
172.042151
11
48.272527
21
172.042151
0
LINE
8
annotation
62
1
39
211
10
48.272527
20
172.042151
11
48.289736
21
171.850406
0
LINE
8
annotation
62
1
39
211
10
48.289736
20
171.850406
11
48.339339
21
171.669908
0
LINE
8
annotation
62
1
39
211
10
48.339339
20
171.669908
11
48.418297
21
171.503678
0
LINE
8
annotation
62
1
39
211
10
48.418297
20
171.503678
11
48.523574
21
171.354736
0
LINE
8
annotation
62
1
39
211
10
48.523574
20
171.354736
11
48.652131
21
171.226103
0
LINE
8
annotation
62
1
39
211
10
48.652131
20
171.226103
11
48.800933
21
171.120797
0
LINE
8
annotation
62
1
39
211
10
48.800933
20
171.120797
11
48.966940
21
171.041840
0
LINE
8
annotation
62
1
39
211
10
48.966940
20
171.041840
11
49.147117
21
170.992251
0
LINE
8
annotation
62
1
39
211
10
49.147117
20
170.992251
11
49.338424
21
170.975050
0
LINE
8
annotation
62
1
39
211
10
49.338424
20
170.975050
11
49.338424
21
170.975050
0
LINE
8
annotation
62
1
39
211
10
49.338424
20
170.975050
11
49.530129
21
170.992251
0
LINE
8
annotation
62
1
39
211
10
49.530129
20
170.992251
11
49.710516
21
171.041840
0
LINE
8
annotation
62
1
39
211
10
49.710516
20
171.041840
11
49.876585
21
171.120797
0
LINE
8
annotation
62
1
39
211
10
49.876585
20
171.120797
11
50.025337
21
171.226103
0
LINE
8
annotation
62
1
39
211
10
50.025337
20
171.226103
11
50.153771
21
171.354736
0
LINE
8
annotation
62
1
39
211
10
50.153771
20
171.354736
11
50.258887
21
171.503678
0
LINE
8
annotation
62
1
39
211
10
50.258887
20
171.503678
11
50.337684
21
171.669908
0
LINE
8
annotation
62
1
39
211
10
50.337684
20
171.669908
11
50.387162
21
171.850406
0
LINE
8
annotation
62
1
39
211
10
50.387162
20
171.850406
11
50.404322
21
172.042151
0
LINE
8
annotation
62
1
39
211
10
50.404322
20
172.042151
11
50.404322
21
172.573143
0
LINE
8
annotation
62
1
39
211
10
50.404322
20
172.573143
11
50.404322
21
172.573143
0
LINE
8
annotation
62
1
39
211
10
50.404322
20
172.573143
11
50.387162
21
172.764796
0
LINE
8
annotation
62
1
39
211
10
50.387162
20
172.764796
11
50.337684
21
172.945045
0
LINE
8
annotation
62
1
39
211
10
50.337684
20
172.945045
11
50.258887
21
173.110914
0
LINE
8
annotation
62
1
39
211
10
50.258887
20
173.110914
11
50.153771
21
173.259428
0
LINE
8
annotation
62
1
39
211
10
50.153771
20
173.259428
11
50.025337
21
173.387612
0
LINE
8
annotation
62
1
39
211
10
50.025337
20
173.387612
11
49.876585
21
173.492491
0
LINE
8
annotation
62
1
39
211
10
49.876585
20
173.492491
11
49.710516
21
173.571087
0
LINE
8
annotation
62
1
39
211
10
49.710516
20
173.571087
11
49.530129
21
173.620428
0
LINE
8
annotation
62
1
39
211
10
49.530129
20
173.620428
11
49.338424
21
173.637536
0
LINE
8
annotation
62
1
39
211
10
49.338424
20
173.637536
11
48.272527
21
173.637536
0
LINE
8
annotation
62
1
39
211
10
48.139026
20
170.375050
11
50.539026
21
170.375050
0
LINE
8
annotation
62
1
39
211
10
224.966946
20
175.775050
11
224.966946
21
175.775050
0
LINE
8
annotation
62
1
39
211
10
224.966946
20
175.775050
11
224.661593
21
175.660561
0
LINE
8
annotation
62
1
39
211
10
224.661593
20
175.660561
11
224.381392
21
175.506301
0
LINE
8
annotation
62
1
39
211
10
224.381392
20
175.506301
11
224.129219
21
175.316134
0
LINE
8
annotation
62
1
39
211
10
224.129219
20
175.316134
11
223.907950
21
175.093926
0
LINE
8
annotation
62
1
39
211
10
223.907950
20
175.093926
11
223.720461
21
174.843542
0
LINE
8
annotation
62
1
39
211
10
223.720461
20
174.843542
11
223.569630
21
174.568845
0
LINE
8
annotation
62
1
39
211
10
223.569630
20
174.568845
11
223.458332
21
174.273702
0
LINE
8
annotation
62
1
39
211
10
223.458332
20
174.273702
11
223.389444
21
173.961978
0
LINE
8
annotation
62
1
39
211
10
223.389444
20
173.961978
11
223.365842
21
173.637536
0
LINE
8
annotation
62
1
39
211
10
223.365842
20
173.637536
11
223.365842
21
172.042151
0
LINE
8
annotation
62
1
39
211
10
223.365842
20
172.042151
11
223.365842
21
172.042151
0
LINE
8
annotation
62
1
39
211
10
223.365842
20
172.042151
11
223.383051
21
171.850406
0
LINE
8
annotation
62
1
39
211
10
223.383051
20
171.850406
11
223.432654
21
171.669908
0
LINE
8
annotation
62
1
39
211
10
223.432654
20
171.669908
11
223.511612
21
171.503678
0
LINE
8
annotation
62
1
39
211
10
223.511612
20
171.503678
11
223.616889
21
171.354736
0
LINE
8
annotation
62
1
39
211
10
223.616889
20
171.354736
11
223.745446
21
171.226103
0
LINE
8
annotation
62
1
39
211
10
223.745446
20
171.226103
11
223.894248
21
171.120797
0
LINE
8
annotation
62
1
39
211
10
223.894248
20
171.120797
11
224.060255
21
171.041840
0
LINE
8
annotation
62
1
39
211
10
224.060255
20
171.041840
11
224.240432
21
170.992251
0
LINE
8
annotation
62
1
39
211
10
224.240432
20
170.992251
11
224.431740
21
170.975050
0
LINE
8
annotation
62
1
39
211
10
224.431740
20
170.975050
11
224.431740
21
170.975050
0
LINE
8
annotation
62
1
39
211
10
224.431740
20
170.975050
11
224.623444
21
170.992251
0
LINE
8
annotation
62
1
39
211
10
224.623444
20
170.992251
11
224.803831
21
171.041840
0
LINE
8
annotation
62
1
39
211
10
224.803831
20
171.041840
11
224.969900
21
171.120797
0
LINE
8
annotation
62
1
39
211
10
224.969900
20
171.120797
11
225.118652
21
171.226103
0
LINE
8
annotation
62
1
39
211
10
225.118652
20
171.226103
11
225.247086
21
171.354736
0
LINE
8
annotation
62
1
39
211
10
225.247086
20
171.354736
11
225.352202
21
171.503678
0
LINE
8
annotation
62
1
39
211
10
225.352202
20
171.503678
11
225.430999
21
171.669908
0
LINE
8
annotation
62
1
39
211
10
225.430999
20
171.669908
11
225.480477
21
171.850406
0
LINE
8
annotation
62
1
39
211
10
225.480477
20
171.850406
11
225.497637
21
172.042151
0
LINE
8
annotation
62
1
39
211
10
225.497637
20
172.042151
11
225.497637
21
172.573143
0
LINE
8
annotation
62
1
39
211
10
225.497637
20
172.573143
11
225.497637
21
172.573143
0
LINE
8
annotation
62
1
39
211
10
225.497637
20
172.573143
11
225.480477
21
172.764796
0
LINE
8
annotation
62
1
39
211
10
225.480477
20
172.764796
11
225.430999
21
172.945045
0
LINE
8
annotation
62
1
39
211
10
225.430999
20
172.945045
11
225.352202
21
173.110914
0
LINE
8
annotation
62
1
39
211
10
225.352202
20
173.110914
11
225.247086
21
173.259428
0
LINE
8
annotation
62
1
39
211
10
225.247086
20
173.259428
11
225.118652
21
173.387612
0
LINE
8
annotation
62
1
39
211
10
225.118652
20
173.387612
11
224.969900
21
173.492491
0
LINE
8
annotation
62
1
39
211
10
224.969900
20
173.492491
11
224.803831
21
173.571087
0
LINE
8
annotation
62
1
39
211
10
224.803831
20
173.571087
11
224.623444
21
173.620428
0
LINE
8
annotation
62
1
39
211
10
224.623444
20
173.620428
11
224.431740
21
173.637536
0
LINE
8
annotation
62
1
39
211
10
224.431740
20
173.637536
11
223.365842
21
173.637536
0
LINE
8
annotation
62
1
39
211
10
223.232342
20
170.375050
11
225.632342
21
170.375050
0
LINE
8
annotation
62
1
39
211
10
55.296246
20
186.991615
11
56.363348
21
191.791615
0
LINE
8
annotation
62
1
39
211
10
56.363348
20
191.791615
11
54.228844
21
191.791615
0
LINE
8
annotation
62
1
39
211
10
56.363348
20
189.654100
11
55.296246
21
189.654100
0
LINE
8
annotation
62
1
39
211
10
224.431740
20
186.991615
11
225.498841
21
191.791615
0
LINE
8
annotation
62
1
39
211
10
225.498841
20
191.791615
11
223.364337
21
191.791615
0
LINE
8
annotation
62
1
39
211
10
225.498841
20
189.654100
11
224.431740
21
189.654100
0
LINE
8
annotation
62
1
39
211
10
294.278920
20
212.311634
11
294.278920
21
212.311634
0
LINE
8
annotation
62
1
39
211
10
294.278920
20
212.311634
11
294.291862
21
212.167504
0
LINE
8
annotation
62
1
39
211
10
294.291862
20
212.167504
11
294.329164
21
212.031950
0
LINE
8
annotation
62
1
39
211
10
294.329164
20
212.031950
11
294.388544
21
211.907211
0
LINE
8
annotation
62
1
39
211
10
294.388544
20
211.907211
11
294.467716
21
211.795522
0
LINE
8
annotation
62
1
39
211
10
294.467716
20
211.795522
11
294.564396
21
211.699123
0
LINE
8
annotation
62
1
39
211
10
294.564396
20
211.699123
11
294.676300
21
211.620251
0
LINE
8
annotation
62
1
39
211
10
294.676300
20
211.620251
11
294.801144
21
211.561143
0
LINE
8
annotation
62
1
39
211
10
294.801144
20
211.561143
11
294.936643
21
211.524037
0
LINE
8
annotation
62
1
39
211
10
294.936643
20
211.524037
11
295.080514
21
211.511172
0
LINE
8
annotation
62
1
39
211
10
295.080514
20
211.511172
11
295.080514
21
211.511172
0
LINE
8
annotation
62
1
39
211
10
295.080514
20
211.511172
11
295.224384
21
211.524037
0
LINE
8
annotation
62
1
39
211
10
295.224384
20
211.524037
11
295.359883
21
211.561143
0
LINE
8
annotation
62
1
39
211
10
295.359883
20
211.561143
11
295.484727
21
211.620251
0
LINE
8
annotation
62
1
39
211
10
295.484727
20
211.620251
11
295.596631
21
211.699123
0
LINE
8
annotation
62
1
39
211
10
295.596631
20
211.699123
11
295.693312
21
211.795522
0
LINE
8
annotation
62
1
39
211
10
295.693312
20
211.795522
11
295.772484
21
211.907211
0
LINE
8
annotation
62
1
39
211
10
295.772484
20
211.907211
11
295.831863
21
212.031950
0
LINE
8
annotation
62
1
39
211
10
295.831863
20
212.031950
11
295.869166
21
212.167504
0
LINE
8
annotation
62
1
39
211
10
295.869166
20
212.167504
11
295.882108
21
212.311634
0
LINE
8
annotation
62
1
39
211
10
295.882108
20
212.311634
11
295.882108
21
212.710959
0
LINE
8
annotation
62
1
39
211
10
295.882108
20
212.710959
11
295.882108
21
212.710959
0
LINE
8
annotation
62
1
39
211
10
295.882108
20
212.710959
11
295.869173
21
212.855159
0
LINE
8
annotation
62
1
39
211
10
295.869173
20
212.855159
11
295.831889
21
212.990900
0
LINE
8
annotation
62
1
39
211
10
295.831889
20
212.990900
11
295.772534
21
213.115911
0
LINE
8
annotation
62
1
39
211
10
295.772534
20
213.115911
11
295.693386
21
213.227920
0
LINE
8
annotation
62
1
39
211
10
295.693386
20
213.227920
11
295.596725
21
213.324658
0
LINE
8
annotation
62
1
39
211
10
295.596725
20
213.324658
11
295.484828
21
213.403851
0
LINE
8
annotation
62
1
39
211
10
295.484828
20
213.403851
11
295.359975
21
213.463230
0
LINE
8
annotation
62
1
39
211
10
295.359975
20
213.463230
11
295.224444
21
213.500523
0
LINE
8
annotation
62
1
39
211
10
295.224444
20
213.500523
11
295.080514
21
213.513459
0
LINE
8
annotation
62
1
39
211
10
295.080514
20
213.513459
11
295.080514
21
213.513459
0
LINE
8
annotation
62
1
39
211
10
295.080514
20
213.513459
11
294.936584
21
213.500516
0
LINE
8
annotation
62
1
39
211
10
294.936584
20
213.500516
11
294.801053
21
213.463204
0
LINE
8
annotation
62
1
39
211
10
294.801053
20
213.463204
11
294.676199
21
213.403801
0
LINE
8
annotation
62
1
39
211
10
294.676199
20
213.403801
11
294.564303
21
213.324583
0
LINE
8
annotation
62
1
39
211
10
294.564303
20
213.324583
11
294.467641
21
213.227827
0
LINE
8
annotation
62
1
39
211
10
294.467641
20
213.227827
11
294.388494
21
213.115810
0
LINE
8
annotation
62
1
39
211
10
294.388494
20
213.115810
11
294.329138
21
212.990809
0
LINE
8
annotation
62
1
39
211
10
294.329138
20
212.990809
11
294.291854
21
212.855099
0
LINE
8
annotation
62
1
39
211
10
294.291854
20
212.855099
11
294.278920
21
212.710959
0
LINE
8
annotation
62
1
39
211
10
294.278920
20
212.710959
11
294.278920
21
212.311634
0
LINE
8
annotation
62
1
39
211
10
295.882108
20
214.316185
11
295.882108
21
214.316185
0
LINE
8
annotation
62
1
39
211
10
295.882108
20
214.316185
11
295.869173
21
214.459718
0
LINE
8
annotation
62
1
39
211
10
295.869173
20
214.459718
11
295.831889
21
214.594955
0
LINE
8
annotation
62
1
39
211
10
295.831889
20
214.594955
11
295.772534
21
214.719602
0
LINE
8
annotation
62
1
39
211
10
295.772534
20
214.719602
11
295.693386
21
214.831365
0
LINE
8
annotation
62
1
39
211
10
295.693386
20
214.831365
11
295.596725
21
214.927950
0
LINE
8
annotation
62
1
39
211
10
295.596725
20
214.927950
11
295.484828
21
215.007065
0
LINE
8
annotation
62
1
39
211
10
295.484828
20
215.007065
11
295.359975
21
215.066415
0
LINE
8
annotation
62
1
39
211
10
295.359975
20
215.066415
11
295.224444
21
215.103707
0
LINE
8
annotation
62
1
39
211
10
295.224444
20
215.103707
11
295.080514
21
215.116647
0
LINE
8
annotation
62
1
39
211
10
295.080514
20
215.116647
11
295.080514
21
215.116647
0
LINE
8
annotation
62
1
39
211
10
295.080514
20
215.116647
11
294.936584
21
215.103707
0
LINE
8
annotation
62
1
39
211
10
294.936584
20
215.103707
11
294.801053
21
215.066415
0
LINE
8
annotation
62
1
39
211
10
294.801053
20
215.066415
11
294.676199
21
215.007065
0
LINE
8
annotation
62
1
39
211
10
294.676199
20
215.007065
11
294.564303
21
214.927950
0
LINE
8
annotation
62
1
39
211
10
294.564303
20
214.927950
11
294.467641
21
214.831365
0
LINE
8
annotation
62
1
39
211
10
294.467641
20
214.831365
11
294.388494
21
214.719602
0
LINE
8
annotation
62
1
39
211
10
294.388494
20
214.719602
11
294.329138
21
214.594955
0
LINE
8
annotation
62
1
39
211
10
294.329138
20
214.594955
11
294.291854
21
214.459718
0
LINE
8
annotation
62
1
39
211
10
294.291854
20
214.459718
11
294.278920
21
214.316185
0
LINE
8
annotation
62
1
39
211
10
294.278920
20
214.316185
11
294.278920
21
214.316185
0
LINE
8
annotation
62
1
39
211
10
294.278920
20
214.316185
11
294.291862
21
214.171977
0
LINE
8
annotation
62
1
39
211
10
294.291862
20
214.171977
11
294.329164
21
214.036216
0
LINE
8
annotation
62
1
39
211
10
294.329164
20
214.036216
11
294.388544
21
213.911175
0
LINE
8
annotation
62
1
39
211
10
294.388544
20
213.911175
11
294.467716
21
213.799129
0
LINE
8
annotation
62
1
39
211
10
294.467716
20
213.799129
11
294.564396
21
213.702354
0
LINE
8
annotation
62
1
39
211
10
294.564396
20
213.702354
11
294.676300
21
213.623125
0
LINE
8
annotation
62
1
39
211
10
294.676300
20
213.623125
11
294.801144
21
213.563716
0
LINE
8
annotation
62
1
39
211
10
294.801144
20
213.563716
11
294.936643
21
213.526402
0
LINE
8
annotation
62
1
39
211
10
294.936643
20
213.526402
11
295.080514
21
213.513459
0
LINE
8
annotation
62
1
39
211
10
295.080514
20
213.513459
11
295.080514
21
213.513459
0
LINE
8
annotation
62
1
39
211
10
295.080514
20
213.513459
11
295.224384
21
213.526402
0
LINE
8
annotation
62
1
39
211
10
295.224384
20
213.526402
11
295.359883
21
213.563716
0
LINE
8
annotation
62
1
39
211
10
295.359883
20
213.563716
11
295.484727
21
213.623125
0
LINE
8
annotation
62
1
39
211
10
295.484727
20
213.623125
11
295.596631
21
213.702354
0
LINE
8
annotation
62
1
39
211
10
295.596631
20
213.702354
11
295.693312
21
213.799129
0
LINE
8
annotation
62
1
39
211
10
295.693312
20
213.799129
11
295.772484
21
213.911175
0
LINE
8
annotation
62
1
39
211
10
295.772484
20
213.911175
11
295.831863
21
214.036216
0
LINE
8
annotation
62
1
39
211
10
295.831863
20
214.036216
11
295.869166
21
214.171977
0
LINE
8
annotation
62
1
39
211
10
295.869166
20
214.171977
11
295.882108
21
214.316185
0
LINE
8
annotation
62
1
39
211
10
112.511019
20
211.980415
11
112.511019
21
211.980415
0
LINE
8
annotation
62
1
39
211
10
112.511019
20
211.980415
11
112.528228
21
211.788762
0
LINE
8
annotation
62
1
39
211
10
112.528228
20
211.788762
11
112.577831
21
211.608514
0
LINE
8
annotation
62
1
39
211
10
112.577831
20
211.608514
11
112.656789
21
211.442644
0
LINE
8
annotation
62
1
39
211
10
112.656789
20
211.442644
11
112.762066
21
211.294130
0
LINE
8
annotation
62
1
39
211
10
112.762066
20
211.294130
11
112.890624
21
211.165946
0
LINE
8
annotation
62
1
39
211
10
112.890624
20
211.165946
11
113.039425
21
211.061068
0
LINE
8
annotation
62
1
39
211
10
113.039425
20
211.061068
11
113.205433
21
210.982471
0
LINE
8
annotation
62
1
39
211
10
113.205433
20
210.982471
11
113.385609
21
210.933130
0
LINE
8
annotation
62
1
39
211
10
113.385609
20
210.933130
11
113.576917
21
210.916023
0
LINE
8
annotation
62
1
39
211
10
113.576917
20
210.916023
11
113.576917
21
210.916023
0
LINE
8
annotation
62
1
39
211
10
113.576917
20
210.916023
11
113.768225
21
210.933130
0
LINE
8
annotation
62
1
39
211
10
113.768225
20
210.933130
11
113.948401
21
210.982471
0
LINE
8
annotation
62
1
39
211
10
113.948401
20
210.982471
11
114.114409
21
211.061068
0
LINE
8
annotation
62
1
39
211
10
114.114409
20
211.061068
11
114.263210
21
211.165946
0
LINE
8
annotation
62
1
39
211
10
114.263210
20
211.165946
11
114.391768
21
211.294130
0
LINE
8
annotation
62
1
39
211
10
114.391768
20
211.294130
11
114.497044
21
211.442644
0
LINE
8
annotation
62
1
39
211
10
114.497044
20
211.442644
11
114.576003
21
211.608514
0
LINE
8
annotation
62
1
39
211
10
114.576003
20
211.608514
11
114.625605
21
211.788762
0
LINE
8
annotation
62
1
39
211
10
114.625605
20
211.788762
11
114.642814
21
211.980415
0
LINE
8
annotation
62
1
39
211
10
114.642814
20
211.980415
11
114.642814
21
212.511407
0
LINE
8
annotation
62
1
39
211
10
114.642814
20
212.511407
11
114.642814
21
212.511407
0
LINE
8
annotation
62
1
39
211
10
114.642814
20
212.511407
11
114.625615
21
212.703152
0
LINE
8
annotation
62
1
39
211
10
114.625615
20
212.703152
11
114.576037
21
212.883650
0
LINE
8
annotation
62
1
39
211
10
114.576037
20
212.883650
11
114.497111
21
213.049880
0
LINE
8
annotation
62
1
39
211
10
114.497111
20
213.049880
11
114.391867
21
213.198822
0
LINE
8
annotation
62
1
39
211
10
114.391867
20
213.198822
11
114.263334
21
213.327455
0
LINE
8
annotation
62
1
39
211
10
114.263334
20
213.327455
11
114.114542
21
213.432761
0
LINE
8
annotation
62
1
39
211
10
114.114542
20
213.432761
11
113.948522
21
213.511718
0
LINE
8
annotation
62
1
39
211
10
113.948522
20
213.511718
11
113.768304
21
213.561308
0
LINE
8
annotation
62
1
39
211
10
113.768304
20
213.561308
11
113.576917
21
213.578508
0
LINE
8
annotation
62
1
39
211
10
113.576917
20
213.578508
11
113.576917
21
213.578508
0
LINE
8
annotation
62
1
39
211
10
113.576917
20
213.578508
11
113.385530
21
213.561298
0
LINE
8
annotation
62
1
39
211
10
113.385530
20
213.561298
11
113.205311
21
213.511684
0
LINE
8
annotation
62
1
39
211
10
113.205311
20
213.511684
11
113.039291
21
213.432694
0
LINE
8
annotation
62
1
39
211
10
113.039291
20
213.432694
11
112.890500
21
213.327356
0
LINE
8
annotation
62
1
39
211
10
112.890500
20
213.327356
11
112.761967
21
213.198698
0
LINE
8
annotation
62
1
39
211
10
112.761967
20
213.198698
11
112.656722
21
213.049746
0
LINE
8
annotation
62
1
39
211
10
112.656722
20
213.049746
11
112.577796
21
212.883529
0
LINE
8
annotation
62
1
39
211
10
112.577796
20
212.883529
11
112.528219
21
212.703073
0
LINE
8
annotation
62
1
39
211
10
112.528219
20
212.703073
11
112.511019
21
212.511407
0
LINE
8
annotation
62
1
39
211
10
112.511019
20
212.511407
11
112.511019
21
211.980415
0
LINE
8
annotation
62
1
39
211
10
114.642814
20
214.645911
11
114.642814
21
214.645911
0
LINE
8
annotation
62
1
39
211
10
114.642814
20
214.645911
11
114.625615
21
214.836771
0
LINE
8
annotation
62
1
39
211
10
114.625615
20
214.836771
11
114.576037
21
215.016598
0
LINE
8
annotation
62
1
39
211
10
114.576037
20
215.016598
11
114.497111
21
215.182344
0
LINE
8
annotation
62
1
39
211
10
114.497111
20
215.182344
11
114.391867
21
215.330957
0
LINE
8
annotation
62
1
39
211
10
114.391867
20
215.330957
11
114.263334
21
215.459389
0
LINE
8
annotation
62
1
39
211
10
114.263334
20
215.459389
11
114.114542
21
215.564589
0
LINE
8
annotation
62
1
39
211
10
114.114542
20
215.564589
11
113.948522
21
215.643508
0
LINE
8
annotation
62
1
39
211
10
113.948522
20
215.643508
11
113.768304
21
215.693096
0
LINE
8
annotation
62
1
39
211
10
113.768304
20
215.693096
11
113.576917
21
215.710303
0
LINE
8
annotation
62
1
39
211
10
113.576917
20
215.710303
11
113.576917
21
215.710303
0
LINE
8
annotation
62
1
39
211
10
113.576917
20
215.710303
11
113.385530
21
215.693096
0
LINE
8
annotation
62
1
39
211
10
113.385530
20
215.693096
11
113.205311
21
215.643508
0
LINE
8
annotation
62
1
39
211
10
113.205311
20
215.643508
11
113.039291
21
215.564589
0
LINE
8
annotation
62
1
39
211
10
113.039291
20
215.564589
11
112.890500
21
215.459389
0
LINE
8
annotation
62
1
39
211
10
112.890500
20
215.459389
11
112.761967
21
215.330957
0
LINE
8
annotation
62
1
39
211
10
112.761967
20
215.330957
11
112.656722
21
215.182344
0
LINE
8
annotation
62
1
39
211
10
112.656722
20
215.182344
11
112.577796
21
215.016598
0
LINE
8
annotation
62
1
39
211
10
112.577796
20
215.016598
11
112.528219
21
214.836771
0
LINE
8
annotation
62
1
39
211
10
112.528219
20
214.836771
11
112.511019
21
214.645911
0
LINE
8
annotation
62
1
39
211
10
112.511019
20
214.645911
11
112.511019
21
214.645911
0
LINE
8
annotation
62
1
39
211
10
112.511019
20
214.645911
11
112.528228
21
214.454155
0
LINE
8
annotation
62
1
39
211
10
112.528228
20
214.454155
11
112.577831
21
214.273630
0
LINE
8
annotation
62
1
39
211
10
112.577831
20
214.273630
11
112.656789
21
214.107360
0
LINE
8
annotation
62
1
39
211
10
112.656789
20
214.107360
11
112.762066
21
213.958371
0
LINE
8
annotation
62
1
39
211
10
112.762066
20
213.958371
11
112.890624
21
213.829687
0
LINE
8
annotation
62
1
39
211
10
112.890624
20
213.829687
11
113.039425
21
213.724334
0
LINE
8
annotation
62
1
39
211
10
113.039425
20
213.724334
11
113.205433
21
213.645336
0
LINE
8
annotation
62
1
39
211
10
113.205433
20
213.645336
11
113.385609
21
213.595720
0
LINE
8
annotation
62
1
39
211
10
113.385609
20
213.595720
11
113.576917
21
213.578508
0
LINE
8
annotation
62
1
39
211
10
113.576917
20
213.578508
11
113.576917
21
213.578508
0
LINE
8
annotation
62
1
39
211
10
113.576917
20
213.578508
11
113.768225
21
213.595720
0
LINE
8
annotation
62
1
39
211
10
113.768225
20
213.595720
11
113.948401
21
213.645336
0
LINE
8
annotation
62
1
39
211
10
113.948401
20
213.645336
11
114.114409
21
213.724334
0
LINE
8
annotation
62
1
39
211
10
114.114409
20
213.724334
11
114.263210
21
213.829687
0
LINE
8
annotation
62
1
39
211
10
114.263210
20
213.829687
11
114.391768
21
213.958371
0
LINE
8
annotation
62
1
39
211
10
114.391768
20
213.958371
11
114.497044
21
214.107360
0
LINE
8
annotation
62
1
39
211
10
114.497044
20
214.107360
11
114.576003
21
214.273630
0
LINE
8
annotation
62
1
39
211
10
114.576003
20
214.273630
11
114.625605
21
214.454155
0
LINE
8
annotation
62
1
39
211
10
114.625605
20
214.454155
11
114.642814
21
214.645911
0
LINE
8
annotation
62
1
39
211
10
46.462223
20
245.041378
11
46.462223
21
245.041378
0
LINE
8
annotation
62
1
39
211
10
46.462223
20
245.041378
11
46.767038
21
245.154967
0
LINE
8
annotation
62
1
39
211
10
46.767038
20
245.154967
11
47.046820
21
245.308503
0
LINE
8
annotation
62
1
39
211
10
47.046820
20
245.308503
11
47.298679
21
245.498075
0
LINE
8
annotation
62
1
39
211
10
47.298679
20
245.498075
11
47.519723
21
245.719769
0
LINE
8
annotation
62
1
39
211
10
47.519723
20
245.719769
11
47.707060
21
245.969675
0
LINE
8
annotation
62
1
39
211
10
47.707060
20
245.969675
11
47.857799
21
246.243881
0
LINE
8
annotation
62
1
39
211
10
47.857799
20
246.243881
11
47.969050
21
246.538473
0
LINE
8
annotation
62
1
39
211
10
47.969050
20
246.538473
11
48.037921
21
246.849541
0
LINE
8
annotation
62
1
39
211
10
48.037921
20
246.849541
11
48.061520
21
247.173173
0
LINE
8
annotation
62
1
39
211
10
48.061520
20
247.173173
11
48.061520
21
248.773975
0
LINE
8
annotation
62
1
39
211
10
48.061520
20
248.773975
11
48.061520
21
248.773975
0
LINE
8
annotation
62
1
39
211
10
48.061520
20
248.773975
11
48.044361
21
248.965731
0
LINE
8
annotation
62
1
39
211
10
48.044361
20
248.965731
11
47.994882
21
249.146256
0
LINE
8
annotation
62
1
39
211
10
47.994882
20
249.146256
11
47.916085
21
249.312526
0
LINE
8
annotation
62
1
39
211
10
47.916085
20
249.312526
11
47.810969
21
249.461515
0
LINE
8
annotation
62
1
39
211
10
47.810969
20
249.461515
11
47.682536
21
249.590199
0
LINE
8
annotation
62
1
39
211
10
47.682536
20
249.590199
11
47.533784
21
249.695552
0
LINE
8
annotation
62
1
39
211
10
47.533784
20
249.695552
11
47.367714
21
249.774550
0
LINE
8
annotation
62
1
39
211
10
47.367714
20
249.774550
11
47.187327
21
249.824167
0
LINE
8
annotation
62
1
39
211
10
47.187327
20
249.824167
11
46.995623
21
249.841378
0
LINE
8
annotation
62
1
39
211
10
46.995623
20
249.841378
11
46.995623
21
249.841378
0
LINE
8
annotation
62
1
39
211
10
46.995623
20
249.841378
11
46.804315
21
249.824167
0
LINE
8
annotation
62
1
39
211
10
46.804315
20
249.824167
11
46.624139
21
249.774550
0
LINE
8
annotation
62
1
39
211
10
46.624139
20
249.774550
11
46.458131
21
249.695552
0
LINE
8
annotation
62
1
39
211
10
46.458131
20
249.695552
11
46.309330
21
249.590199
0
LINE
8
annotation
62
1
39
211
10
46.309330
20
249.590199
11
46.180772
21
249.461515
0
LINE
8
annotation
62
1
39
211
10
46.180772
20
249.461515
11
46.075495
21
249.312526
0
LINE
8
annotation
62
1
39
211
10
46.075495
20
249.312526
11
45.996537
21
249.146256
0
LINE
8
annotation
62
1
39
211
10
45.996537
20
249.146256
11
45.946935
21
248.965731
0
LINE
8
annotation
62
1
39
211
10
45.946935
20
248.965731
11
45.929726
21
248.773975
0
LINE
8
annotation
62
1
39
211
10
45.929726
20
248.773975
11
45.929726
21
248.240274
0
LINE
8
annotation
62
1
39
211
10
45.929726
20
248.240274
11
45.929726
21
248.240274
0
LINE
8
annotation
62
1
39
211
10
45.929726
20
248.240274
11
45.946935
21
248.048528
0
LINE
8
annotation
62
1
39
211
10
45.946935
20
248.048528
11
45.996537
21
247.868031
0
LINE
8
annotation
62
1
39
211
10
45.996537
20
247.868031
11
46.075495
21
247.701801
0
LINE
8
annotation
62
1
39
211
10
46.075495
20
247.701801
11
46.180772
21
247.552859
0
LINE
8
annotation
62
1
39
211
10
46.180772
20
247.552859
11
46.309330
21
247.424226
0
LINE
8
annotation
62
1
39
211
10
46.309330
20
247.424226
11
46.458131
21
247.318920
0
LINE
8
annotation
62
1
39
211
10
46.458131
20
247.318920
11
46.624139
21
247.239963
0
LINE
8
annotation
62
1
39
211
10
46.624139
20
247.239963
11
46.804315
21
247.190373
0
LINE
8
annotation
62
1
39
211
10
46.804315
20
247.190373
11
46.995623
21
247.173173
0
LINE
8
annotation
62
1
39
211
10
46.995623
20
247.173173
11
48.061520
21
247.173173
0
LINE
8
annotation
62
1
39
211
10
45.796526
20
244.441378
11
48.196526
21
244.441378
0
LINE
8
annotation
62
1
39
211
10
46.301075
20
255.302954
11
46.301075
21
259.920674
0
LINE
8
annotation
62
1
39
211
10
46.301075
20
259.920674
11
45.274497
21
258.893806
0
LINE
8
annotation
62
1
39
211
10
48.774304
20
255.363864
11
48.774304
21
255.363864
0
LINE
8
annotation
62
1
39
211
10
48.774304
20
255.363864
11
48.881625
21
255.323744
0
LINE
8
annotation
62
1
39
211
10
48.881625
20
255.323744
11
48.991692
21
255.303812
0
LINE
8
annotation
62
1
39
211
10
48.991692
20
255.303812
11
49.102017
21
255.303255
0
LINE
8
annotation
62
1
39
211
10
49.102017
20
255.303255
11
49.210111
21
255.321259
0
LINE
8
annotation
62
1
39
211
10
49.210111
20
255.321259
11
49.313486
21
255.357013
0
LINE
8
annotation
62
1
39
211
10
49.313486
20
255.357013
11
49.409653
21
255.409704
0
LINE
8
annotation
62
1
39
211
10
49.409653
20
255.409704
11
49.496124
21
255.478518
0
LINE
8
annotation
62
1
39
211
10
49.496124
20
255.478518
11
49.570412
21
255.562644
0
LINE
8
annotation
62
1
39
211
10
49.570412
20
255.562644
11
49.630027
21
255.661267
0
LINE
8
annotation
62
1
39
211
10
49.630027
20
255.661267
11
49.630027
21
255.661267
0
LINE
8
annotation
62
1
39
211
10
49.630027
20
255.661267
11
49.807896
21
256.077614
0
LINE
8
annotation
62
1
39
211
10
49.807896
20
256.077614
11
49.941298
21
256.506012
0
LINE
8
annotation
62
1
39
211
10
49.941298
20
256.506012
11
50.030233
21
256.943045
0
LINE
8
annotation
62
1
39
211
10
50.030233
20
256.943045
11
50.074700
21
257.385297
0
LINE
8
annotation
62
1
39
211
10
50.074700
20
257.385297
11
50.074700
21
257.829354
0
LINE
8
annotation
62
1
39
211
10
50.074700
20
257.829354
11
50.030233
21
258.271800
0
LINE
8
annotation
62
1
39
211
10
50.030233
20
258.271800
11
49.941298
21
258.709218
0
LINE
8
annotation
62
1
39
211
10
49.941298
20
258.709218
11
49.807896
21
259.138195
0
LINE
8
annotation
62
1
39
211
10
49.807896
20
259.138195
11
49.630027
21
259.555315
0
LINE
8
annotation
62
1
39
211
10
49.630027
20
259.555315
11
49.630027
21
259.555315
0
LINE
8
annotation
62
1
39
211
10
49.630027
20
259.555315
11
49.607407
21
259.597411
0
LINE
8
annotation
62
1
39
211
10
49.607407
20
259.597411
11
49.581763
21
259.637658
0
LINE
8
annotation
62
1
39
211
10
49.581763
20
259.637658
11
49.553287
21
259.675857
0
LINE
8
annotation
62
1
39
211
10
49.553287
20
259.675857
11
49.522173
21
259.711811
0
LINE
8
annotation
62
1
39
211
10
49.522173
20
259.711811
11
49.488613
21
259.745322
0
LINE
8
annotation
62
1
39
211
10
49.488613
20
259.745322
11
49.452801
21
259.776193
0
LINE
8
annotation
62
1
39
211
10
49.452801
20
259.776193
11
49.414930
21
259.804224
0
LINE
8
annotation
62
1
39
211
10
49.414930
20
259.804224
11
49.375192
21
259.829220
0
LINE
8
annotation
62
1
39
211
10
49.375192
20
259.829220
11
49.333782
21
259.850981
0
LINE
8
annotation
62
1
39
211
10
49.333782
20
259.850981
11
49.333782
21
259.850981
0
LINE
8
annotation
62
1
39
211
10
49.333782
20
259.850981
11
49.225608
21
259.891970
0
LINE
8
annotation
62
1
39
211
10
49.225608
20
259.891970
11
49.114896
21
259.912583
0
LINE
8
annotation
62
1
39
211
10
49.114896
20
259.912583
11
49.004105
21
259.913638
0
LINE
8
annotation
62
1
39
211
10
49.004105
20
259.913638
11
48.895696
21
259.895953
0
LINE
8
annotation
62
1
39
211
10
48.895696
20
259.895953
11
48.792127
21
259.860344
0
LINE
8
annotation
62
1
39
211
10
48.792127
20
259.860344
11
48.695858
21
259.807629
0
LINE
8
annotation
62
1
39
211
10
48.695858
20
259.807629
11
48.609350
21
259.738626
0
LINE
8
annotation
62
1
39
211
10
48.609350
20
259.738626
11
48.535061
21
259.654152
0
LINE
8
annotation
62
1
39
211
10
48.535061
20
259.654152
11
48.475452
21
259.555025
0
LINE
8
annotation
62
1
39
211
10
48.475452
20
259.555025
11
48.475452
21
259.555025
0
LINE
8
annotation
62
1
39
211
10
48.475452
20
259.555025
11
48.298441
21
259.138764
0
LINE
8
annotation
62
1
39
211
10
48.298441
20
259.138764
11
48.165682
21
258.710430
0
LINE
8
annotation
62
1
39
211
10
48.165682
20
258.710430
11
48.077176
21
258.273441
0
LINE
8
annotation
62
1
39
211
10
48.077176
20
258.273441
11
48.032924
21
257.831210
0
LINE
8
annotation
62
1
39
211
10
48.032924
20
257.831210
11
48.032924
21
257.387153
0
LINE
8
annotation
62
1
39
211
10
48.032924
20
257.387153
11
48.077176
21
256.944686
0
LINE
8
annotation
62
1
39
211
10
48.077176
20
256.944686
11
48.165682
21
256.507224
0
LINE
8
annotation
62
1
39
211
10
48.165682
20
256.507224
11
48.298441
21
256.078183
0
LINE
8
annotation
62
1
39
211
10
48.298441
20
256.078183
11
48.475452
21
255.660978
0
LINE
8
annotation
62
1
39
211
10
48.475452
20
255.660978
11
48.475452
21
255.660978
0
LINE
8
annotation
62
1
39
211
10
48.475452
20
255.660978
11
48.497990
21
255.618965
0
LINE
8
annotation
62
1
39
211
10
48.497990
20
255.618965
11
48.523445
21
255.578919
0
LINE
8
annotation
62
1
39
211
10
48.523445
20
255.578919
11
48.551709
21
255.540961
0
LINE
8
annotation
62
1
39
211
10
48.551709
20
255.540961
11
48.582677
21
255.505212
0
LINE
8
annotation
62
1
39
211
10
48.582677
20
255.505212
11
48.616240
21
255.471794
0
LINE
8
annotation
62
1
39
211
10
48.616240
20
255.471794
11
48.652292
21
255.440829
0
LINE
8
annotation
62
1
39
211
10
48.652292
20
255.440829
11
48.690724
21
255.412438
0
LINE
8
annotation
62
1
39
211
10
48.690724
20
255.412438
11
48.731431
21
255.386742
0
LINE
8
annotation
62
1
39
211
10
48.731431
20
255.386742
11
48.774304
21
255.363864
0
LINE
8
annotation
62
1
39
211
10
30.297660
20
135.334512
11
24.051262
21
135.334512
0
LINE
8
annotation
62
1
39
211
10
24.051262
20
135.334512
11
30.297660
21
146.584236
0
LINE
8
annotation
62
1
39
211
10
30.297660
20
146.584236
11
24.051262
21
146.584236
0
LINE
8
annotation
62
1
39
211
10
40.668521
20
140.959374
11
34.517364
21
140.959374
0
LINE
8
annotation
62
1
39
211
10
47.387420
20
135.334512
11
49.888377
21
146.584236
0
LINE
8
annotation
62
1
39
211
10
49.888377
20
146.584236
11
44.885756
21
146.584236
0
LINE
8
annotation
62
1
39
211
10
49.888377
20
141.574560
11
47.387420
21
141.574560
0
LINE
8
annotation
62
1
39
211
10
60.259591
20
140.959374
11
54.108435
21
140.959374
0
LINE
8
annotation
62
1
39
211
10
66.978490
20
135.334512
11
66.978490
21
146.584236
0
LINE
8
annotation
62
1
39
211
10
66.978490
20
146.584236
11
64.477532
21
144.082573
0
LINE
8
boundary
62
5
39
2
10
362.988130
20
322.138607
11
364.718798
21
321.273273
0
LINE
8
boundary
62
5
39
2
10
364.718798
20
321.273273
11
372.278271
21
317.493537
0
LINE
8
boundary
62
5
39
2
10
372.278271
20
317.493537
11
372.278271
21
357.505020
0
LINE
8
boundary
62
5
39
2
10
372.278271
20
357.505020
11
372.278270
21
396.832368
0
LINE
8
boundary
62
5
39
2
10
372.278270
20
396.832368
11
372.278270
21
429.605170
0
LINE
8
boundary
62
5
39
2
10
372.278270
20
429.605170
11
372.278270
21
444.435682
0
LINE
8
boundary
62
5
39
2
10
372.278270
20
444.435682
11
368.151765
21
442.372428
0
LINE
8
boundary
62
5
39
2
10
368.151765
20
442.372428
11
359.584061
21
438.088572
0
LINE
8
boundary
62
5
39
2
10
359.584061
20
438.088572
11
359.036667
21
438.088571
0
LINE
8
boundary
62
5
39
2
10
359.036667
20
438.088571
11
357.504366
21
438.088571
0
LINE
8
boundary
62
5
39
2
10
357.504366
20
438.088571
11
356.977146
21
438.088571
0
LINE
8
boundary
62
5
39
2
10
356.977146
20
438.088571
11
355.504585
21
438.088571
0
LINE
8
boundary
62
5
39
2
10
355.504585
20
438.088571
11
353.661590
21
438.088570
0
LINE
8
boundary
62
5
39
2
10
353.661590
20
438.088570
11
352.046185
21
438.088571
0
LINE
8
boundary
62
5
39
2
10
352.046185
20
438.088571
11
350.720442
21
438.088571
0
LINE
8
boundary
62
5
39
2
10
350.720442
20
438.088571
11
350.123934
21
437.989211
0
LINE
8
boundary
62
5
39
2
10
350.123934
20
437.989211
11
359.595963
21
437.839211
0
LINE
8
boundary
62
5
39
2
10
359.595963
20
437.839211
11
359.595963
21
434.939210
0
LINE
8
boundary
62
5
39
2
10
359.595963
20
434.939210
11
345.425545
21
434.939211
0
LINE
8
boundary
62
5
39
2
10
345.425545
20
434.939211
11
340.845794
21
431.817339
0
LINE
8
boundary
62
5
39
2
10
340.845794
20
431.817339
11
333.932573
21
427.021536
0
LINE
8
boundary
62
5
39
2
10
333.932573
20
427.021536
11
330.601086
21
424.664820
0
LINE
8
boundary
62
5
39
2
10
330.601086
20
424.664820
11
329.762442
21
421.896267
0
LINE
8
boundary
62
5
39
2
10
329.762442
20
421.896267
11
350.596228
21
421.746267
0
LINE
8
boundary
62
5
39
2
10
350.596228
20
421.746267
11
350.596228
21
418.846267
0
LINE
8
boundary
62
5
39
2
10
350.596228
20
418.846267
11
328.888105
21
418.846267
0
LINE
8
boundary
62
5
39
2
10
328.888105
20
418.846267
11
327.815408
21
415.468670
0
LINE
8
boundary
62
5
39
2
10
327.815408
20
415.468670
11
322.297374
21
397.252368
0
LINE
8
boundary
62
5
39
2
10
322.297374
20
397.252368
11
347.032854
21
397.102368
0
LINE
8
boundary
62
5
39
2
10
347.032854
20
397.102368
11
347.032854
21
394.202368
0
LINE
8
boundary
62
5
39
2
10
347.032854
20
394.202368
11
321.982392
21
394.202368
0
LINE
8
boundary
62
5
39
2
10
321.982392
20
394.202368
11
321.886936
21
392.577169
0
LINE
8
boundary
62
5
39
2
10
321.886936
20
392.577169
11
321.887799
21
387.062667
0
LINE
8
boundary
62
5
39
2
10
321.887799
20
387.062667
11
319.391992
21
387.062667
0
LINE
8
boundary
62
5
39
2
10
319.391992
20
387.062667
11
314.331127
21
387.062667
0
LINE
8
boundary
62
5
39
2
10
314.331127
20
387.062667
11
283.881582
21
387.062667
0
LINE
8
boundary
62
5
39
2
10
283.881582
20
387.062667
11
283.881583
21
398.130122
0
LINE
8
boundary
62
5
39
2
10
283.881583
20
398.130122
11
283.881583
21
420.144450
0
LINE
8
boundary
62
5
39
2
10
283.881583
20
420.144450
11
253.718296
21
420.144450
0
LINE
8
boundary
62
5
39
2
10
253.718296
20
420.144450
11
223.881591
21
420.144451
0
LINE
8
boundary
62
5
39
2
10
223.881591
20
420.144451
11
206.630590
21
417.102634
0
LINE
8
boundary
62
5
39
2
10
206.630590
20
417.102634
11
176.709924
21
411.826815
0
LINE
8
boundary
62
5
39
2
10
176.709924
20
411.826815
11
111.496195
21
400.327874
0
LINE
8
boundary
62
5
39
2
10
111.496195
20
400.327874
11
108.873356
21
399.865395
0
LINE
8
boundary
62
5
39
2
10
108.873356
20
399.865395
11
94.054142
21
397.252368
0
LINE
8
boundary
62
5
39
2
10
94.054142
20
397.252368
11
184.380837
21
397.102368
0
LINE
8
boundary
62
5
39
2
10
184.380837
20
397.102368
11
184.380837
21
394.202368
0
LINE
8
boundary
62
5
39
2
10
184.380837
20
394.202368
11
76.756740
21
394.202368
0
LINE
8
boundary
62
5
39
2
10
76.756740
20
394.202368
11
74.687254
21
393.837462
0
LINE
8
boundary
62
5
39
2
10
74.687254
20
393.837462
11
74.175054
21
393.227046
0
LINE
8
boundary
62
5
39
2
10
74.175054
20
393.227046
11
71.732831
21
390.316520
0
LINE
8
boundary
62
5
39
2
10
71.732831
20
390.316520
11
71.732832
21
388.803269
0
LINE
8
boundary
62
5
39
2
10
71.732832
20
388.803269
11
71.732832
21
384.063690
0
LINE
8
boundary
62
5
39
2
10
71.732832
20
384.063690
11
119.476537
21
383.719984
0
LINE
8
boundary
62
5
39
2
10
119.476537
20
383.719984
11
119.476537
21
380.819984
0
LINE
8
boundary
62
5
39
2
10
119.476537
20
380.819984
11
71.827832
21
380.819984
0
LINE
8
boundary
62
5
39
2
10
71.827832
20
380.819984
11
71.732832
21
379.404445
0
LINE
8
boundary
62
5
39
2
10
71.732832
20
379.404445
11
68.988936
21
379.404445
0
LINE
8
boundary
62
5
39
2
10
68.988936
20
379.404445
11
36.497349
21
379.404443
0
LINE
8
boundary
62
5
39
2
10
36.497349
20
379.404443
11
15.764894
21
376.856838
0
LINE
8
boundary
62
5
39
2
10
15.764894
20
376.856838
11
12.637011
21
376.472485
0
LINE
8
boundary
62
5
39
2
10
12.637011
20
376.472485
11
11.078188
21
373.666611
0
LINE
8
boundary
62
5
39
2
10
11.078188
20
373.666611
11
59.215795
21
373.467437
0
LINE
8
boundary
62
5
39
2
10
59.215795
20
373.467437
11
59.215795
21
370.567437
0
LINE
8
boundary
62
5
39
2
10
59.215795
20
370.567437
11
9.368087
21
370.567437
0
LINE
8
boundary
62
5
39
2
10
9.368087
20
370.567437
11
6.411143
21
365.265952
0
LINE
8
boundary
62
5
39
2
10
6.411143
20
365.265952
11
2.110323
21
357.524494
0
LINE
8
boundary
62
5
39
2
10
2.110323
20
357.524494
11
45.766653
21
357.374494
0
LINE
8
boundary
62
5
39
2
10
45.766653
20
357.374494
11
45.766653
21
354.474494
0
LINE
8
boundary
62
5
39
2
10
45.766653
20
354.474494
11
1.682500
21
354.474494
0
LINE
8
boundary
62
5
39
2
10
1.682500
20
354.474494
11
1.587500
21
341.431551
0
LINE
8
boundary
62
5
39
2
10
1.587500
20
341.431551
11
45.766653
21
341.281550
0
LINE
8
boundary
62
5
39
2
10
45.766653
20
341.281550
11
45.766653
21
338.381550
0
LINE
8
boundary
62
5
39
2
10
45.766653
20
338.381550
11
1.682500
21
338.381550
0
LINE
8
boundary
62
5
39
2
10
1.682500
20
338.381550
11
1.587500
21
325.338607
0
LINE
8
boundary
62
5
39
2
10
1.587500
20
325.338607
11
45.766653
21
325.188607
0
LINE
8
boundary
62
5
39
2
10
45.766653
20
325.188607
11
45.766653
21
322.288607
0
LINE
8
boundary
62
5
39
2
10
45.766653
20
322.288607
11
1.682512
21
322.288607
0
LINE
8
boundary
62
5
39
2
10
1.682512
20
322.288607
11
6.201843
21
313.825777
0
LINE
8
boundary
62
5
39
2
10
6.201843
20
313.825777
11
8.746348
21
309.245664
0
LINE
8
boundary
62
5
39
2
10
8.746348
20
309.245664
11
49.387744
21
309.095664
0
LINE
8
boundary
62
5
39
2
10
49.387744
20
309.095664
11
49.387744
21
306.195664
0
LINE
8
boundary
62
5
39
2
10
49.387744
20
306.195664
11
10.619124
21
306.195664
0
LINE
8
boundary
62
5
39
2
10
10.619124
20
306.195664
11
13.972008
21
299.839468
0
LINE
8
boundary
62
5
39
2
10
13.972008
20
299.839468
11
56.505215
21
299.839467
0
LINE
8
boundary
62
5
39
2
10
56.505215
20
299.839467
11
71.732832
21
299.839467
0
LINE
8
boundary
62
5
39
2
10
71.732832
20
299.839467
11
71.732832
21
294.903960
0
LINE
8
boundary
62
5
39
2
10
71.732832
20
294.903960
11
71.732832
21
293.152720
0
LINE
8
boundary
62
5
39
2
10
71.732832
20
293.152720
11
80.839319
21
293.002721
0
LINE
8
boundary
62
5
39
2
10
80.839319
20
293.002721
11
80.839319
21
290.102721
0
LINE
8
boundary
62
5
39
2
10
80.839319
20
290.102721
11
71.827832
21
290.102720
0
LINE
8
boundary
62
5
39
2
10
71.827832
20
290.102720
11
71.732832
21
288.538587
0
LINE
8
boundary
62
5
39
2
10
71.732832
20
288.538587
11
71.732831
21
286.506253
0
LINE
8
boundary
62
5
39
2
10
71.732831
20
286.506253
11
74.212694
21
284.026395
0
LINE
8
boundary
62
5
39
2
10
74.212694
20
284.026395
11
74.732842
21
283.506249
0
LINE
8
boundary
62
5
39
2
10
74.732842
20
283.506249
11
77.615379
21
283.506249
0
LINE
8
boundary
62
5
39
2
10
77.615379
20
283.506249
11
90.045807
21
283.506249
0
LINE
8
boundary
62
5
39
2
10
90.045807
20
283.506249
11
90.045807
21
293.421413
0
LINE
8
boundary
62
5
39
2
10
90.045807
20
293.421413
11
90.045807
21
368.644414
0
LINE
8
boundary
62
5
39
2
10
90.045807
20
368.644414
11
113.004892
21
372.692720
0
LINE
8
boundary
62
5
39
2
10
113.004892
20
372.692720
11
183.837483
21
385.182419
0
LINE
8
boundary
62
5
39
2
10
183.837483
20
385.182419
11
203.040694
21
388.568465
0
LINE
8
boundary
62
5
39
2
10
203.040694
20
388.568465
11
205.045789
21
388.922017
0
LINE
8
boundary
62
5
39
2
10
205.045789
20
388.922017
11
205.045789
21
383.869984
0
LINE
8
boundary
62
5
39
2
10
205.045789
20
383.869984
11
288.612030
21
383.719984
0
LINE
8
boundary
62
5
39
2
10
288.612030
20
383.719984
11
288.612030
21
380.819984
0
LINE
8
boundary
62
5
39
2
10
288.612030
20
380.819984
11
205.140789
21
380.819984
0
LINE
8
boundary
62
5
39
2
10
205.140789
20
380.819984
11
205.045790
21
376.645329
0
LINE
8
boundary
62
5
39
2
10
205.045790
20
376.645329
11
205.045790
21
373.617437
0
LINE
8
boundary
62
5
39
2
10
205.045790
20
373.617437
11
288.612030
21
373.467437
0
LINE
8
boundary
62
5
39
2
10
288.612030
20
373.467437
11
288.612030
21
370.567437
0
LINE
8
boundary
62
5
39
2
10
288.612030
20
370.567437
11
205.140790
21
370.567437
0
LINE
8
boundary
62
5
39
2
10
205.140790
20
370.567437
11
205.045790
21
357.524493
0
LINE
8
boundary
62
5
39
2
10
205.045790
20
357.524493
11
288.612030
21
357.374494
0
LINE
8
boundary
62
5
39
2
10
288.612030
20
357.374494
11
288.612030
21
354.474494
0
LINE
8
boundary
62
5
39
2
10
288.612030
20
354.474494
11
205.140790
21
354.474494
0
LINE
8
boundary
62
5
39
2
10
205.140790
20
354.474494
11
205.045790
21
341.431550
0
LINE
8
boundary
62
5
39
2
10
205.045790
20
341.431550
11
288.612030
21
341.281551
0
LINE
8
boundary
62
5
39
2
10
288.612030
20
341.281551
11
288.612030
21
338.381551
0
LINE
8
boundary
62
5
39
2
10
288.612030
20
338.381551
11
205.140789
21
338.381550
0
LINE
8
boundary
62
5
39
2
10
205.140789
20
338.381550
11
205.045790
21
325.338607
0
LINE
8
boundary
62
5
39
2
10
205.045790
20
325.338607
11
244.413686
21
325.188607
0
LINE
8
boundary
62
5
39
2
10
244.413686
20
325.188607
11
244.413686
21
322.288607
0
LINE
8
boundary
62
5
39
2
10
244.413686
20
322.288607
11
205.140789
21
322.288607
0
LINE
8
boundary
62
5
39
2
10
205.140789
20
322.288607
11
205.045790
21
309.245664
0
LINE
8
boundary
62
5
39
2
10
205.045790
20
309.245664
11
244.413686
21
309.095664
0
LINE
8
boundary
62
5
39
2
10
244.413686
20
309.095664
11
244.413686
21
306.195664
0
LINE
8
boundary
62
5
39
2
10
244.413686
20
306.195664
11
205.140789
21
306.195664
0
LINE
8
boundary
62
5
39
2
10
205.140789
20
306.195664
11
205.045790
21
293.152721
0
LINE
8
boundary
62
5
39
2
10
205.045790
20
293.152721
11
244.413687
21
293.002721
0
LINE
8
boundary
62
5
39
2
10
244.413687
20
293.002721
11
244.413686
21
290.102720
0
LINE
8
boundary
62
5
39
2
10
244.413686
20
290.102720
11
205.140790
21
290.102720
0
LINE
8
boundary
62
5
39
2
10
205.140790
20
290.102720
11
205.045790
21
283.506249
0
LINE
8
boundary
62
5
39
2
10
205.045790
20
283.506249
11
209.716953
21
283.506249
0
LINE
8
boundary
62
5
39
2
10
209.716953
20
283.506249
11
228.124784
21
283.506249
0
LINE
8
boundary
62
5
39
2
10
228.124784
20
283.506249
11
253.718210
21
283.506249
0
LINE
8
boundary
62
5
39
2
10
253.718210
20
283.506249
11
283.881583
21
283.506249
0
LINE
8
boundary
62
5
39
2
10
283.881583
20
283.506249
11
283.881583
21
310.346840
0
LINE
8
boundary
62
5
39
2
10
283.881583
20
310.346840
11
283.881583
21
323.840642
0
LINE
8
boundary
62
5
39
2
10
283.881583
20
323.840642
11
283.881583
21
325.338607
0
LINE
8
boundary
62
5
39
2
10
283.881583
20
325.338607
11
365.888200
21
325.338607
0
LINE
8
boundary
62
5
39
2
10
365.888200
20
325.338607
11
365.983200
21
322.288607
0
LINE
8
boundary
62
5
39
2
10
365.983200
20
322.288607
11
363.083130
21
322.288607
0
LINE
8
boundary
62
5
39
2
10
363.083130
20
322.288607
11
362.988130
21
322.138607
0
LINE
8
annotation
62
1
39
211
10
250.996785
20
289.152721
11
250.996785
21
293.952721
0
LINE
8
annotation
62
1
39
211
10
250.996785
20
293.952721
11
249.929684
21
292.885318
0
LINE
8
annotation
62
1
39
211
10
87.422418
20
289.152721
11
87.422418
21
293.952721
0
LINE
8
annotation
62
1
39
211
10
87.422418
20
293.952721
11
86.355317
21
292.885318
0
LINE
8
annotation
62
1
39
211
10
251.528982
20
305.245625
11
249.397187
21
305.245625
0
LINE
8
annotation
62
1
39
211
10
249.397187
20
305.245625
11
251.367035
21
308.416828
0
LINE
8
annotation
62
1
39
211
10
251.367035
20
308.416828
11
251.367035
21
308.416828
0
LINE
8
annotation
62
1
39
211
10
251.367035
20
308.416828
11
251.369390
21
308.419742
0
LINE
8
annotation
62
1
39
211
10
251.369390
20
308.419742
11
251.371648
21
308.422680
0
LINE
8
annotation
62
1
39
211
10
251.371648
20
308.422680
11
251.373825
21
308.425669
0
LINE
8
annotation
62
1
39
211
10
251.373825
20
308.425669
11
251.375934
21
308.428731
0
LINE
8
annotation
62
1
39
211
10
251.375934
20
308.428731
11
251.377992
21
308.431893
0
LINE
8
annotation
62
1
39
211
10
251.377992
20
308.431893
11
251.380012
21
308.435178
0
LINE
8
annotation
62
1
39
211
10
251.380012
20
308.435178
11
251.382010
21
308.438613
0
LINE
8
annotation
62
1
39
211
10
251.382010
20
308.438613
11
251.384001
21
308.442220
0
LINE
8
annotation
62
1
39
211
10
251.384001
20
308.442220
11
251.385999
21
308.446026
0
LINE
8
annotation
62
1
39
211
10
251.385999
20
308.446026
11
251.385999
21
308.446026
0
LINE
8
annotation
62
1
39
211
10
251.385999
20
308.446026
11
251.467334
21
308.620658
0
LINE
8
annotation
62
1
39
211
10
251.467334
20
308.620658
11
251.514848
21
308.801680
0
LINE
8
annotation
62
1
39
211
10
251.514848
20
308.801680
11
251.529706
21
308.985001
0
LINE
8
annotation
62
1
39
211
10
251.529706
20
308.985001
11
251.513073
21
309.166530
0
LINE
8
annotation
62
1
39
211
10
251.513073
20
309.166530
11
251.466113
21
309.342178
0
LINE
8
annotation
62
1
39
211
10
251.466113
20
309.342178
11
251.389990
21
309.507854
0
LINE
8
annotation
62
1
39
211
10
251.389990
20
309.507854
11
251.285869
21
309.659468
0
LINE
8
annotation
62
1
39
211
10
251.285869
20
309.659468
11
251.154915
21
309.792929
0
LINE
8
annotation
62
1
39
211
10
251.154915
20
309.792929
11
250.998291
21
309.904147
0
LINE
8
annotation
62
1
39
211
10
250.998291
20
309.904147
11
250.998291
21
309.904147
0
LINE
8
annotation
62
1
39
211
10
250.998291
20
309.904147
11
250.823173
21
309.984326
0
LINE
8
annotation
62
1
39
211
10
250.823173
20
309.984326
11
250.641874
21
310.031108
0
LINE
8
annotation
62
1
39
211
10
250.641874
20
310.031108
11
250.458446
21
310.045547
0
LINE
8
annotation
62
1
39
211
10
250.458446
20
310.045547
11
250.276944
21
310.028694
0
LINE
8
annotation
62
1
39
211
10
250.276944
20
310.028694
11
250.101420
21
309.981604
0
LINE
8
annotation
62
1
39
211
10
250.101420
20
309.981604
11
249.935927
21
309.905329
0
LINE
8
annotation
62
1
39
211
10
249.935927
20
309.905329
11
249.784519
21
309.800922
0
LINE
8
annotation
62
1
39
211
10
249.784519
20
309.800922
11
249.651249
21
309.669436
0
LINE
8
annotation
62
1
39
211
10
249.651249
20
309.669436
11
249.540169
21
309.511924
0
LINE
8
annotation
62
1
39
211
10
249.540169
20
309.511924
11
249.400197
21
309.243417
0
LINE
8
annotation
62
1
39
211
10
56.503039
20
305.245625
11
54.371244
21
305.245625
0
LINE
8
annotation
62
1
39
211
10
54.371244
20
305.245625
11
56.341093
21
308.416828
0
LINE
8
annotation
62
1
39
211
10
56.341093
20
308.416828
11
56.341093
21
308.416828
0
LINE
8
annotation
62
1
39
211
10
56.341093
20
308.416828
11
56.343447
21
308.419742
0
LINE
8
annotation
62
1
39
211
10
56.343447
20
308.419742
11
56.345706
21
308.422680
0
LINE
8
annotation
62
1
39
211
10
56.345706
20
308.422680
11
56.347882
21
308.425669
0
LINE
8
annotation
62
1
39
211
10
56.347882
20
308.425669
11
56.349992
21
308.428731
0
LINE
8
annotation
62
1
39
211
10
56.349992
20
308.428731
11
56.352049
21
308.431893
0
LINE
8
annotation
62
1
39
211
10
56.352049
20
308.431893
11
56.354070
21
308.435178
0
LINE
8
annotation
62
1
39
211
10
56.354070
20
308.435178
11
56.356068
21
308.438613
0
LINE
8
annotation
62
1
39
211
10
56.356068
20
308.438613
11
56.358059
21
308.442220
0
LINE
8
annotation
62
1
39
211
10
56.358059
20
308.442220
11
56.360057
21
308.446026
0
LINE
8
annotation
62
1
39
211
10
56.360057
20
308.446026
11
56.360057
21
308.446026
0
LINE
8
annotation
62
1
39
211
10
56.360057
20
308.446026
11
56.441391
21
308.620658
0
LINE
8
annotation
62
1
39
211
10
56.441391
20
308.620658
11
56.488905
21
308.801680
0
LINE
8
annotation
62
1
39
211
10
56.488905
20
308.801680
11
56.503764
21
308.985001
0
LINE
8
annotation
62
1
39
211
10
56.503764
20
308.985001
11
56.487131
21
309.166530
0
LINE
8
annotation
62
1
39
211
10
56.487131
20
309.166530
11
56.440171
21
309.342178
0
LINE
8
annotation
62
1
39
211
10
56.440171
20
309.342178
11
56.364048
21
309.507854
0
LINE
8
annotation
62
1
39
211
10
56.364048
20
309.507854
11
56.259927
21
309.659468
0
LINE
8
annotation
62
1
39
211
10
56.259927
20
309.659468
11
56.128972
21
309.792929
0
LINE
8
annotation
62
1
39
211
10
56.128972
20
309.792929
11
55.972348
21
309.904147
0
LINE
8
annotation
62
1
39
211
10
55.972348
20
309.904147
11
55.972348
21
309.904147
0
LINE
8
annotation
62
1
39
211
10
55.972348
20
309.904147
11
55.797230
21
309.984326
0
LINE
8
annotation
62
1
39
211
10
55.797230
20
309.984326
11
55.615931
21
310.031108
0
LINE
8
annotation
62
1
39
211
10
55.615931
20
310.031108
11
55.432504
21
310.045547
0
LINE
8
annotation
62
1
39
211
10
55.432504
20
310.045547
11
55.251002
21
310.028694
0
LINE
8
annotation
62
1
39
211
10
55.251002
20
310.028694
11
55.075478
21
309.981604
0
LINE
8
annotation
62
1
39
211
10
55.075478
20
309.981604
11
54.909985
21
309.905329
0
LINE
8
annotation
62
1
39
211
10
54.909985
20
309.905329
11
54.758577
21
309.800922
0
LINE
8
annotation
62
1
39
211
10
54.758577
20
309.800922
11
54.625306
21
309.669436
0
LINE
8
annotation
62
1
39
211
10
54.625306
20
309.669436
11
54.514227
21
309.511924
0
LINE
8
annotation
62
1
39
211
10
54.514227
20
309.511924
11
54.374255
21
309.243417
0
LINE
8
annotation
62
1
39
211
10
249.397187
20
321.338758
11
250.463084
21
321.338758
0
LINE
8
annotation
62
1
39
211
10
250.463084
20
321.338758
11
250.463084
21
321.338758
0
LINE
8
annotation
62
1
39
211
10
250.463084
20
321.338758
11
250.654789
21
321.355955
0
LINE
8
annotation
62
1
39
211
10
250.654789
20
321.355955
11
250.835176
21
321.405518
0
LINE
8
annotation
62
1
39
211
10
250.835176
20
321.405518
11
251.001245
21
321.484405
0
LINE
8
annotation
62
1
39
211
10
251.001245
20
321.484405
11
251.149997
21
321.589573
0
LINE
8
annotation
62
1
39
211
10
251.149997
20
321.589573
11
251.278431
21
321.717980
0
LINE
8
annotation
62
1
39
211
10
251.278431
20
321.717980
11
251.383546
21
321.866584
0
LINE
8
annotation
62
1
39
211
10
251.383546
20
321.866584
11
251.462344
21
322.032341
0
LINE
8
annotation
62
1
39
211
10
251.462344
20
322.032341
11
251.511822
21
322.212211
0
LINE
8
annotation
62
1
39
211
10
251.511822
20
322.212211
11
251.528982
21
322.403150
0
LINE
8
annotation
62
1
39
211
10
251.528982
20
322.403150
11
251.528982
21
322.936851
0
LINE
8
annotation
62
1
39
211
10
251.528982
20
322.936851
11
251.528982
21
322.936851
0
LINE
8
annotation
62
1
39
211
10
251.528982
20
322.936851
11
251.511822
21
323.127711
0
LINE
8
annotation
62
1
39
211
10
251.511822
20
323.127711
11
251.462344
21
323.307539
0
LINE
8
annotation
62
1
39
211
10
251.462344
20
323.307539
11
251.383546
21
323.473284
0
LINE
8
annotation
62
1
39
211
10
251.383546
20
323.473284
11
251.278431
21
323.621897
0
LINE
8
annotation
62
1
39
211
10
251.278431
20
323.621897
11
251.149997
21
323.750329
0
LINE
8
annotation
62
1
39
211
10
251.149997
20
323.750329
11
251.001245
21
323.855530
0
LINE
8
annotation
62
1
39
211
10
251.001245
20
323.855530
11
250.835176
21
323.934449
0
LINE
8
annotation
62
1
39
211
10
250.835176
20
323.934449
11
250.654789
21
323.984037
0
LINE
8
annotation
62
1
39
211
10
250.654789
20
323.984037
11
250.463084
21
324.001244
0
LINE
8
annotation
62
1
39
211
10
250.463084
20
324.001244
11
249.929383
21
324.001244
0
LINE
8
annotation
62
1
39
211
10
249.929383
20
324.001244
11
250.463084
21
324.001244
0
LINE
8
annotation
62
1
39
211
10
250.463084
20
324.001244
11
250.463084
21
324.001244
0
LINE
8
annotation
62
1
39
211
10
250.463084
20
324.001244
11
250.654789
21
324.018455
0
LINE
8
annotation
62
1
39
211
10
250.654789
20
324.018455
11
250.835176
21
324.068072
0
LINE
8
annotation
62
1
39
211
10
250.835176
20
324.068072
11
251.001245
21
324.147069
0
LINE
8
annotation
62
1
39
211
10
251.001245
20
324.147069
11
251.149997
21
324.252422
0
LINE
8
annotation
62
1
39
211
10
251.149997
20
324.252422
11
251.278431
21
324.381106
0
LINE
8
annotation
62
1
39
211
10
251.278431
20
324.381106
11
251.383546
21
324.530095
0
LINE
8
annotation
62
1
39
211
10
251.383546
20
324.530095
11
251.462344
21
324.696365
0
LINE
8
annotation
62
1
39
211
10
251.462344
20
324.696365
11
251.511822
21
324.876890
0
LINE
8
annotation
62
1
39
211
10
251.511822
20
324.876890
11
251.528982
21
325.068646
0
LINE
8
annotation
62
1
39
211
10
251.528982
20
325.068646
11
251.528982
21
325.068646
0
LINE
8
annotation
62
1
39
211
10
251.528982
20
325.068646
11
251.511822
21
325.259506
0
LINE
8
annotation
62
1
39
211
10
251.511822
20
325.259506
11
251.462344
21
325.439333
0
LINE
8
annotation
62
1
39
211
10
251.462344
20
325.439333
11
251.383546
21
325.605079
0
LINE
8
annotation
62
1
39
211
10
251.383546
20
325.605079
11
251.278431
21
325.753692
0
LINE
8
annotation
62
1
39
211
10
251.278431
20
325.753692
11
251.149997
21
325.882124
0
LINE
8
annotation
62
1
39
211
10
251.149997
20
325.882124
11
251.001245
21
325.987324
0
LINE
8
annotation
62
1
39
211
10
251.001245
20
325.987324
11
250.835176
21
326.066243
0
LINE
8
annotation
62
1
39
211
10
250.835176
20
326.066243
11
250.654789
21
326.115831
0
LINE
8
annotation
62
1
39
211
10
250.654789
20
326.115831
11
250.463084
21
326.133038
0
LINE
8
annotation
62
1
39
211
10
250.463084
20
326.133038
11
249.397187
21
326.133038
0
LINE
8
annotation
62
1
39
211
10
50.750154
20
321.338758
11
51.816051
21
321.338758
0
LINE
8
annotation
62
1
39
211
10
51.816051
20
321.338758
11
51.816051
21
321.338758
0
LINE
8
annotation
62
1
39
211
10
51.816051
20
321.338758
11
52.007756
21
321.355955
0
LINE
8
annotation
62
1
39
211
10
52.007756
20
321.355955
11
52.188143
21
321.405518
0
LINE
8
annotation
62
1
39
211
10
52.188143
20
321.405518
11
52.354212
21
321.484405
0
LINE
8
annotation
62
1
39
211
10
52.354212
20
321.484405
11
52.502964
21
321.589573
0
LINE
8
annotation
62
1
39
211
10
52.502964
20
321.589573
11
52.631398
21
321.717980
0
LINE
8
annotation
62
1
39
211
10
52.631398
20
321.717980
11
52.736513
21
321.866584
0
LINE
8
annotation
62
1
39
211
10
52.736513
20
321.866584
11
52.815311
21
322.032341
0
LINE
8
annotation
62
1
39
211
10
52.815311
20
322.032341
11
52.864789
21
322.212211
0
LINE
8
annotation
62
1
39
211
10
52.864789
20
322.212211
11
52.881949
21
322.403150
0
LINE
8
annotation
62
1
39
211
10
52.881949
20
322.403150
11
52.881949
21
322.936851
0
LINE
8
annotation
62
1
39
211
10
52.881949
20
322.936851
11
52.881949
21
322.936851
0
LINE
8
annotation
62
1
39
211
10
52.881949
20
322.936851
11
52.864789
21
323.127711
0
LINE
8
annotation
62
1
39
211
10
52.864789
20
323.127711
11
52.815311
21
323.307539
0
LINE
8
annotation
62
1
39
211
10
52.815311
20
323.307539
11
52.736513
21
323.473284
0
LINE
8
annotation
62
1
39
211
10
52.736513
20
323.473284
11
52.631398
21
323.621897
0
LINE
8
annotation
62
1
39
211
10
52.631398
20
323.621897
11
52.502964
21
323.750329
0
LINE
8
annotation
62
1
39
211
10
52.502964
20
323.750329
11
52.354212
21
323.855530
0
LINE
8
annotation
62
1
39
211
10
52.354212
20
323.855530
11
52.188143
21
323.934449
0
LINE
8
annotation
62
1
39
211
10
52.188143
20
323.934449
11
52.007756
21
323.984037
0
LINE
8
annotation
62
1
39
211
10
52.007756
20
323.984037
11
51.816051
21
324.001244
0
LINE
8
annotation
62
1
39
211
10
51.816051
20
324.001244
11
51.282350
21
324.001244
0
LINE
8
annotation
62
1
39
211
10
51.282350
20
324.001244
11
51.816051
21
324.001244
0
LINE
8
annotation
62
1
39
211
10
51.816051
20
324.001244
11
51.816051
21
324.001244
0
LINE
8
annotation
62
1
39
211
10
51.816051
20
324.001244
11
52.007756
21
324.018455
0
LINE
8
annotation
62
1
39
211
10
52.007756
20
324.018455
11
52.188143
21
324.068072
0
LINE
8
annotation
62
1
39
211
10
52.188143
20
324.068072
11
52.354212
21
324.147069
0
LINE
8
annotation
62
1
39
211
10
52.354212
20
324.147069
11
52.502964
21
324.252422
0
LINE
8
annotation
62
1
39
211
10
52.502964
20
324.252422
11
52.631398
21
324.381106
0
LINE
8
annotation
62
1
39
211
10
52.631398
20
324.381106
11
52.736513
21
324.530095
0
LINE
8
annotation
62
1
39
211
10
52.736513
20
324.530095
11
52.815311
21
324.696365
0
LINE
8
annotation
62
1
39
211
10
52.815311
20
324.696365
11
52.864789
21
324.876890
0
LINE
8
annotation
62
1
39
211
10
52.864789
20
324.876890
11
52.881949
21
325.068646
0
LINE
8
annotation
62
1
39
211
10
52.881949
20
325.068646
11
52.881949
21
325.068646
0
LINE
8
annotation
62
1
39
211
10
52.881949
20
325.068646
11
52.864789
21
325.259506
0
LINE
8
annotation
62
1
39
211
10
52.864789
20
325.259506
11
52.815311
21
325.439333
0
LINE
8
annotation
62
1
39
211
10
52.815311
20
325.439333
11
52.736513
21
325.605079
0
LINE
8
annotation
62
1
39
211
10
52.736513
20
325.605079
11
52.631398
21
325.753692
0
LINE
8
annotation
62
1
39
211
10
52.631398
20
325.753692
11
52.502964
21
325.882124
0
LINE
8
annotation
62
1
39
211
10
52.502964
20
325.882124
11
52.354212
21
325.987324
0
LINE
8
annotation
62
1
39
211
10
52.354212
20
325.987324
11
52.188143
21
326.066243
0
LINE
8
annotation
62
1
39
211
10
52.188143
20
326.066243
11
52.007756
21
326.115831
0
LINE
8
annotation
62
1
39
211
10
52.007756
20
326.115831
11
51.816051
21
326.133038
0
LINE
8
annotation
62
1
39
211
10
51.816051
20
326.133038
11
50.750154
21
326.133038
0
LINE
8
annotation
62
1
39
211
10
370.035031
20
321.791959
11
370.899638
21
321.791959
0
LINE
8
annotation
62
1
39
211
10
370.899638
20
321.791959
11
370.899638
21
321.791959
0
LINE
8
annotation
62
1
39
211
10
370.899638
20
321.791959
11
371.055140
21
321.805908
0
LINE
8
annotation
62
1
39
211
10
371.055140
20
321.805908
11
371.201462
21
321.846111
0
LINE
8
annotation
62
1
39
211
10
371.201462
20
321.846111
11
371.336170
21
321.910101
0
LINE
8
annotation
62
1
39
211
10
371.336170
20
321.910101
11
371.456831
21
321.995408
0
LINE
8
annotation
62
1
39
211
10
371.456831
20
321.995408
11
371.561010
21
322.099566
0
LINE
8
annotation
62
1
39
211
10
371.561010
20
322.099566
11
371.646275
21
322.220107
0
LINE
8
annotation
62
1
39
211
10
371.646275
20
322.220107
11
371.710192
21
322.354562
0
LINE
8
annotation
62
1
39
211
10
371.710192
20
322.354562
11
371.750327
21
322.500464
0
LINE
8
annotation
62
1
39
211
10
371.750327
20
322.500464
11
371.764246
21
322.655345
0
LINE
8
annotation
62
1
39
211
10
371.764246
20
322.655345
11
371.764246
21
323.088259
0
LINE
8
annotation
62
1
39
211
10
371.764246
20
323.088259
11
371.764246
21
323.088259
0
LINE
8
annotation
62
1
39
211
10
371.764246
20
323.088259
11
371.750327
21
323.243076
0
LINE
8
annotation
62
1
39
211
10
371.750327
20
323.243076
11
371.710192
21
323.388944
0
LINE
8
annotation
62
1
39
211
10
371.710192
20
323.388944
11
371.646275
21
323.523389
0
LINE
8
annotation
62
1
39
211
10
371.646275
20
323.523389
11
371.561010
21
323.643938
0
LINE
8
annotation
62
1
39
211
10
371.561010
20
323.643938
11
371.456831
21
323.748116
0
LINE
8
annotation
62
1
39
211
10
371.456831
20
323.748116
11
371.336170
21
323.833449
0
LINE
8
annotation
62
1
39
211
10
371.336170
20
323.833449
11
371.201462
21
323.897465
0
LINE
8
annotation
62
1
39
211
10
371.201462
20
323.897465
11
371.055140
21
323.937688
0
LINE
8
annotation
62
1
39
211
10
371.055140
20
323.937688
11
370.899638
21
323.951646
0
LINE
8
annotation
62
1
39
211
10
370.899638
20
323.951646
11
370.466724
21
323.951646
0
LINE
8
annotation
62
1
39
211
10
370.466724
20
323.951646
11
370.899638
21
323.951646
0
LINE
8
annotation
62
1
39
211
10
370.899638
20
323.951646
11
370.899638
21
323.951646
0
LINE
8
annotation
62
1
39
211
10
370.899638
20
323.951646
11
371.055140
21
323.965607
0
LINE
8
annotation
62
1
39
211
10
371.055140
20
323.965607
11
371.201462
21
324.005854
0
LINE
8
annotation
62
1
39
211
10
371.201462
20
324.005854
11
371.336170
21
324.069933
0
LINE
8
annotation
62
1
39
211
10
371.336170
20
324.069933
11
371.456831
21
324.155391
0
LINE
8
annotation
62
1
39
211
10
371.456831
20
324.155391
11
371.561010
21
324.259773
0
LINE
8
annotation
62
1
39
211
10
371.561010
20
324.259773
11
371.646275
21
324.380626
0
LINE
8
annotation
62
1
39
211
10
371.646275
20
324.380626
11
371.710192
21
324.515497
0
LINE
8
annotation
62
1
39
211
10
371.710192
20
324.515497
11
371.750327
21
324.661931
0
LINE
8
annotation
62
1
39
211
10
371.750327
20
324.661931
11
371.764246
21
324.817474
0
LINE
8
annotation
62
1
39
211
10
371.764246
20
324.817474
11
371.764246
21
324.817474
0
LINE
8
annotation
62
1
39
211
10
371.764246
20
324.817474
11
371.750327
21
324.972291
0
LINE
8
annotation
62
1
39
211
10
371.750327
20
324.972291
11
371.710192
21
325.118159
0
LINE
8
annotation
62
1
39
211
10
371.710192
20
325.118159
11
371.646275
21
325.252604
0
LINE
8
annotation
62
1
39
211
10
371.646275
20
325.252604
11
371.561010
21
325.373153
0
LINE
8
annotation
62
1
39
211
10
371.561010
20
325.373153
11
371.456831
21
325.477331
0
LINE
8
annotation
62
1
39
211
10
371.456831
20
325.477331
11
371.336170
21
325.562664
0
LINE
8
annotation
62
1
39
211
10
371.336170
20
325.562664
11
371.201462
21
325.626680
0
LINE
8
annotation
62
1
39
211
10
371.201462
20
325.626680
11
371.055140
21
325.666903
0
LINE
8
annotation
62
1
39
211
10
371.055140
20
325.666903
11
370.899638
21
325.680861
0
LINE
8
annotation
62
1
39
211
10
370.899638
20
325.680861
11
370.035031
21
325.680861
0
LINE
8
annotation
62
1
39
211
10
295.994026
20
338.498652
11
293.328830
21
338.498652
0
LINE
8
annotation
62
1
39
211
10
293.328830
20
338.498652
11
294.393223
21
342.231551
0
LINE
8
annotation
62
1
39
211
10
295.195129
20
337.431551
11
295.195129
21
339.563345
0
LINE
8
annotation
62
1
39
211
10
53.148649
20
338.498652
11
50.483454
21
338.498652
0
LINE
8
annotation
62
1
39
211
10
50.483454
20
338.498652
11
51.547846
21
342.231551
0
LINE
8
annotation
62
1
39
211
10
52.349753
20
337.431551
11
52.349753
21
339.563345
0
LINE
8
annotation
62
1
39
211
10
293.595531
20
353.524494
11
294.661428
21
353.524494
0
LINE
8
annotation
62
1
39
211
10
294.661428
20
353.524494
11
294.661428
21
353.524494
0
LINE
8
annotation
62
1
39
211
10
294.661428
20
353.524494
11
294.852736
21
353.541695
0
LINE
8
annotation
62
1
39
211
10
294.852736
20
353.541695
11
295.032912
21
353.591284
0
LINE
8
annotation
62
1
39
211
10
295.032912
20
353.591284
11
295.198920
21
353.670241
0
LINE
8
annotation
62
1
39
211
10
295.198920
20
353.670241
11
295.347721
21
353.775547
0
LINE
8
annotation
62
1
39
211
10
295.347721
20
353.775547
11
295.476279
21
353.904181
0
LINE
8
annotation
62
1
39
211
10
295.476279
20
353.904181
11
295.581556
21
354.053122
0
LINE
8
annotation
62
1
39
211
10
295.581556
20
354.053122
11
295.660514
21
354.219352
0
LINE
8
annotation
62
1
39
211
10
295.660514
20
354.219352
11
295.710116
21
354.399850
0
LINE
8
annotation
62
1
39
211
10
295.710116
20
354.399850
11
295.727325
21
354.591595
0
LINE
8
annotation
62
1
39
211
10
295.727325
20
354.591595
11
295.727325
21
355.122587
0
LINE
8
annotation
62
1
39
211
10
295.727325
20
355.122587
11
295.727325
21
355.122587
0
LINE
8
annotation
62
1
39
211
10
295.727325
20
355.122587
11
295.710126
21
355.314240
0
LINE
8
annotation
62
1
39
211
10
295.710126
20
355.314240
11
295.660549
21
355.494489
0
LINE
8
annotation
62
1
39
211
10
295.660549
20
355.494489
11
295.581623
21
355.660358
0
LINE
8
annotation
62
1
39
211
10
295.581623
20
355.660358
11
295.476378
21
355.808872
0
LINE
8
annotation
62
1
39
211
10
295.476378
20
355.808872
11
295.347845
21
355.937056
0
LINE
8
annotation
62
1
39
211
10
295.347845
20
355.937056
11
295.199054
21
356.041935
0
LINE
8
annotation
62
1
39
211
10
295.199054
20
356.041935
11
295.033034
21
356.120532
0
LINE
8
annotation
62
1
39
211
10
295.033034
20
356.120532
11
294.852815
21
356.169872
0
LINE
8
annotation
62
1
39
211
10
294.852815
20
356.169872
11
294.661428
21
356.186980
0
LINE
8
annotation
62
1
39
211
10
294.661428
20
356.186980
11
293.595531
21
356.186980
0
LINE
8
annotation
62
1
39
211
10
293.595531
20
356.186980
11
293.595531
21
358.324494
0
LINE
8
annotation
62
1
39
211
10
293.595531
20
358.324494
11
295.727325
21
358.324494
0
LINE
8
annotation
62
1
39
211
10
50.750154
20
353.524494
11
51.816051
21
353.524494
0
LINE
8
annotation
62
1
39
211
10
51.816051
20
353.524494
11
51.816051
21
353.524494
0
LINE
8
annotation
62
1
39
211
10
51.816051
20
353.524494
11
52.007359
21
353.541695
0
LINE
8
annotation
62
1
39
211
10
52.007359
20
353.541695
11
52.187536
21
353.591284
0
LINE
8
annotation
62
1
39
211
10
52.187536
20
353.591284
11
52.353543
21
353.670241
0
LINE
8
annotation
62
1
39
211
10
52.353543
20
353.670241
11
52.502345
21
353.775547
0
LINE
8
annotation
62
1
39
211
10
52.502345
20
353.775547
11
52.630902
21
353.904181
0
LINE
8
annotation
62
1
39
211
10
52.630902
20
353.904181
11
52.736179
21
354.053122
0
LINE
8
annotation
62
1
39
211
10
52.736179
20
354.053122
11
52.815137
21
354.219352
0
LINE
8
annotation
62
1
39
211
10
52.815137
20
354.219352
11
52.864740
21
354.399850
0
LINE
8
annotation
62
1
39
211
10
52.864740
20
354.399850
11
52.881949
21
354.591595
0
LINE
8
annotation
62
1
39
211
10
52.881949
20
354.591595
11
52.881949
21
355.122587
0
LINE
8
annotation
62
1
39
211
10
52.881949
20
355.122587
11
52.881949
21
355.122587
0
LINE
8
annotation
62
1
39
211
10
52.881949
20
355.122587
11
52.864750
21
355.314240
0
LINE
8
annotation
62
1
39
211
10
52.864750
20
355.314240
11
52.815172
21
355.494489
0
LINE
8
annotation
62
1
39
211
10
52.815172
20
355.494489
11
52.736246
21
355.660358
0
LINE
8
annotation
62
1
39
211
10
52.736246
20
355.660358
11
52.631001
21
355.808872
0
LINE
8
annotation
62
1
39
211
10
52.631001
20
355.808872
11
52.502468
21
355.937056
0
LINE
8
annotation
62
1
39
211
10
52.502468
20
355.937056
11
52.353677
21
356.041935
0
LINE
8
annotation
62
1
39
211
10
52.353677
20
356.041935
11
52.187657
21
356.120532
0
LINE
8
annotation
62
1
39
211
10
52.187657
20
356.120532
11
52.007438
21
356.169872
0
LINE
8
annotation
62
1
39
211
10
52.007438
20
356.169872
11
51.816051
21
356.186980
0
LINE
8
annotation
62
1
39
211
10
51.816051
20
356.186980
11
50.750154
21
356.186980
0
LINE
8
annotation
62
1
39
211
10
50.750154
20
356.186980
11
50.750154
21
358.324494
0
LINE
8
annotation
62
1
39
211
10
50.750154
20
358.324494
11
52.881949
21
358.324494
0
LINE
8
annotation
62
1
39
211
10
295.196634
20
374.417437
11
295.196634
21
374.417437
0
LINE
8
annotation
62
1
39
211
10
295.196634
20
374.417437
11
294.891282
21
374.302948
0
LINE
8
annotation
62
1
39
211
10
294.891282
20
374.302948
11
294.611080
21
374.148688
0
LINE
8
annotation
62
1
39
211
10
294.611080
20
374.148688
11
294.358907
21
373.958522
0
LINE
8
annotation
62
1
39
211
10
294.358907
20
373.958522
11
294.137638
21
373.736314
0
LINE
8
annotation
62
1
39
211
10
294.137638
20
373.736314
11
293.950150
21
373.485929
0
LINE
8
annotation
62
1
39
211
10
293.950150
20
373.485929
11
293.799319
21
373.211233
0
LINE
8
annotation
62
1
39
211
10
293.799319
20
373.211233
11
293.688021
21
372.916090
0
LINE
8
annotation
62
1
39
211
10
293.688021
20
372.916090
11
293.619133
21
372.604365
0
LINE
8
annotation
62
1
39
211
10
293.619133
20
372.604365
11
293.595531
21
372.279923
0
LINE
8
annotation
62
1
39
211
10
293.595531
20
372.279923
11
293.595531
21
370.684539
0
LINE
8
annotation
62
1
39
211
10
293.595531
20
370.684539
11
293.595531
21
370.684539
0
LINE
8
annotation
62
1
39
211
10
293.595531
20
370.684539
11
293.612740
21
370.492793
0
LINE
8
annotation
62
1
39
211
10
293.612740
20
370.492793
11
293.662342
21
370.312296
0
LINE
8
annotation
62
1
39
211
10
293.662342
20
370.312296
11
293.741300
21
370.146066
0
LINE
8
annotation
62
1
39
211
10
293.741300
20
370.146066
11
293.846577
21
369.997124
0
LINE
8
annotation
62
1
39
211
10
293.846577
20
369.997124
11
293.975135
21
369.868490
0
LINE
8
annotation
62
1
39
211
10
293.975135
20
369.868490
11
294.123936
21
369.763185
0
LINE
8
annotation
62
1
39
211
10
294.123936
20
369.763185
11
294.289944
21
369.684227
0
LINE
8
annotation
62
1
39
211
10
294.289944
20
369.684227
11
294.470120
21
369.634638
0
LINE
8
annotation
62
1
39
211
10
294.470120
20
369.634638
11
294.661428
21
369.617437
0
LINE
8
annotation
62
1
39
211
10
294.661428
20
369.617437
11
294.661428
21
369.617437
0
LINE
8
annotation
62
1
39
211
10
294.661428
20
369.617437
11
294.853132
21
369.634638
0
LINE
8
annotation
62
1
39
211
10
294.853132
20
369.634638
11
295.033519
21
369.684227
0
LINE
8
annotation
62
1
39
211
10
295.033519
20
369.684227
11
295.199589
21
369.763185
0
LINE
8
annotation
62
1
39
211
10
295.199589
20
369.763185
11
295.348341
21
369.868490
0
LINE
8
annotation
62
1
39
211
10
295.348341
20
369.868490
11
295.476775
21
369.997124
0
LINE
8
annotation
62
1
39
211
10
295.476775
20
369.997124
11
295.581890
21
370.146066
0
LINE
8
annotation
62
1
39
211
10
295.581890
20
370.146066
11
295.660687
21
370.312296
0
LINE
8
annotation
62
1
39
211
10
295.660687
20
370.312296
11
295.710166
21
370.492793
0
LINE
8
annotation
62
1
39
211
10
295.710166
20
370.492793
11
295.727326
21
370.684539
0
LINE
8
annotation
62
1
39
211
10
295.727326
20
370.684539
11
295.727326
21
371.215531
0
LINE
8
annotation
62
1
39
211
10
295.727326
20
371.215531
11
295.727326
21
371.215531
0
LINE
8
annotation
62
1
39
211
10
295.727326
20
371.215531
11
295.710166
21
371.407183
0
LINE
8
annotation
62
1
39
211
10
295.710166
20
371.407183
11
295.660687
21
371.587432
0
LINE
8
annotation
62
1
39
211
10
295.660687
20
371.587432
11
295.581890
21
371.753301
0
LINE
8
annotation
62
1
39
211
10
295.581890
20
371.753301
11
295.476775
21
371.901816
0
LINE
8
annotation
62
1
39
211
10
295.476775
20
371.901816
11
295.348341
21
372.030000
0
LINE
8
annotation
62
1
39
211
10
295.348341
20
372.030000
11
295.199589
21
372.134878
0
LINE
8
annotation
62
1
39
211
10
295.199589
20
372.134878
11
295.033519
21
372.213475
0
LINE
8
annotation
62
1
39
211
10
295.033519
20
372.213475
11
294.853132
21
372.262815
0
LINE
8
annotation
62
1
39
211
10
294.853132
20
372.262815
11
294.661428
21
372.279923
0
LINE
8
annotation
62
1
39
211
10
294.661428
20
372.279923
11
293.595531
21
372.279923
0
LINE
8
annotation
62
1
39
211
10
293.462030
20
369.017437
11
295.862030
21
369.017437
0
LINE
8
annotation
62
1
39
211
10
65.800399
20
374.417437
11
65.800399
21
374.417437
0
LINE
8
annotation
62
1
39
211
10
65.800399
20
374.417437
11
65.495046
21
374.302948
0
LINE
8
annotation
62
1
39
211
10
65.495046
20
374.302948
11
65.214845
21
374.148688
0
LINE
8
annotation
62
1
39
211
10
65.214845
20
374.148688
11
64.962671
21
373.958522
0
LINE
8
annotation
62
1
39
211
10
64.962671
20
373.958522
11
64.741402
21
373.736314
0
LINE
8
annotation
62
1
39
211
10
64.741402
20
373.736314
11
64.553914
21
373.485929
0
LINE
8
annotation
62
1
39
211
10
64.553914
20
373.485929
11
64.403083
21
373.211233
0
LINE
8
annotation
62
1
39
211
10
64.403083
20
373.211233
11
64.291785
21
372.916090
0
LINE
8
annotation
62
1
39
211
10
64.291785
20
372.916090
11
64.222897
21
372.604365
0
LINE
8
annotation
62
1
39
211
10
64.222897
20
372.604365
11
64.199295
21
372.279923
0
LINE
8
annotation
62
1
39
211
10
64.199295
20
372.279923
11
64.199295
21
370.684539
0
LINE
8
annotation
62
1
39
211
10
64.199295
20
370.684539
11
64.199295
21
370.684539
0
LINE
8
annotation
62
1
39
211
10
64.199295
20
370.684539
11
64.216504
21
370.492793
0
LINE
8
annotation
62
1
39
211
10
64.216504
20
370.492793
11
64.266107
21
370.312296
0
LINE
8
annotation
62
1
39
211
10
64.266107
20
370.312296
11
64.345065
21
370.146066
0
LINE
8
annotation
62
1
39
211
10
64.345065
20
370.146066
11
64.450342
21
369.997124
0
LINE
8
annotation
62
1
39
211
10
64.450342
20
369.997124
11
64.578899
21
369.868490
0
LINE
8
annotation
62
1
39
211
10
64.578899
20
369.868490
11
64.727701
21
369.763185
0
LINE
8
annotation
62
1
39
211
10
64.727701
20
369.763185
11
64.893708
21
369.684227
0
LINE
8
annotation
62
1
39
211
10
64.893708
20
369.684227
11
65.073885
21
369.634638
0
LINE
8
annotation
62
1
39
211
10
65.073885
20
369.634638
11
65.265192
21
369.617437
0
LINE
8
annotation
62
1
39
211
10
65.265192
20
369.617437
11
65.265192
21
369.617437
0
LINE
8
annotation
62
1
39
211
10
65.265192
20
369.617437
11
65.456897
21
369.634638
0
LINE
8
annotation
62
1
39
211
10
65.456897
20
369.634638
11
65.637284
21
369.684227
0
LINE
8
annotation
62
1
39
211
10
65.637284
20
369.684227
11
65.803353
21
369.763185
0
LINE
8
annotation
62
1
39
211
10
65.803353
20
369.763185
11
65.952105
21
369.868490
0
LINE
8
annotation
62
1
39
211
10
65.952105
20
369.868490
11
66.080539
21
369.997124
0
LINE
8
annotation
62
1
39
211
10
66.080539
20
369.997124
11
66.185655
21
370.146066
0
LINE
8
annotation
62
1
39
211
10
66.185655
20
370.146066
11
66.264452
21
370.312296
0
LINE
8
annotation
62
1
39
211
10
66.264452
20
370.312296
11
66.313930
21
370.492793
0
LINE
8
annotation
62
1
39
211
10
66.313930
20
370.492793
11
66.331090
21
370.684539
0
LINE
8
annotation
62
1
39
211
10
66.331090
20
370.684539
11
66.331090
21
371.215531
0
LINE
8
annotation
62
1
39
211
10
66.331090
20
371.215531
11
66.331090
21
371.215531
0
LINE
8
annotation
62
1
39
211
10
66.331090
20
371.215531
11
66.313930
21
371.407183
0
LINE
8
annotation
62
1
39
211
10
66.313930
20
371.407183
11
66.264452
21
371.587432
0
LINE
8
annotation
62
1
39
211
10
66.264452
20
371.587432
11
66.185655
21
371.753301
0
LINE
8
annotation
62
1
39
211
10
66.185655
20
371.753301
11
66.080539
21
371.901816
0
LINE
8
annotation
62
1
39
211
10
66.080539
20
371.901816
11
65.952105
21
372.030000
0
LINE
8
annotation
62
1
39
211
10
65.952105
20
372.030000
11
65.803353
21
372.134878
0
LINE
8
annotation
62
1
39
211
10
65.803353
20
372.134878
11
65.637284
21
372.213475
0
LINE
8
annotation
62
1
39
211
10
65.637284
20
372.213475
11
65.456897
21
372.262815
0
LINE
8
annotation
62
1
39
211
10
65.456897
20
372.262815
11
65.265192
21
372.279923
0
LINE
8
annotation
62
1
39
211
10
65.265192
20
372.279923
11
64.199295
21
372.279923
0
LINE
8
annotation
62
1
39
211
10
64.065794
20
369.017437
11
66.465794
21
369.017437
0
LINE
8
annotation
62
1
39
211
10
294.661428
20
379.869984
11
295.728530
21
384.669984
0
LINE
8
annotation
62
1
39
211
10
295.728530
20
384.669984
11
293.594026
21
384.669984
0
LINE
8
annotation
62
1
39
211
10
295.728530
20
382.532470
11
294.661428
21
382.532470
0
LINE
8
annotation
62
1
39
211
10
125.525935
20
379.869984
11
126.593036
21
384.669984
0
LINE
8
annotation
62
1
39
211
10
126.593036
20
384.669984
11
124.458532
21
384.669984
0
LINE
8
annotation
62
1
39
211
10
126.593036
20
382.532470
11
125.525935
21
382.532470
0
LINE
8
annotation
62
1
39
211
10
189.364338
20
394.316610
11
189.364338
21
394.316610
0
LINE
8
annotation
62
1
39
211
10
189.364338
20
394.316610
11
189.381547
21
394.124957
0
LINE
8
annotation
62
1
39
211
10
189.381547
20
394.124957
11
189.431149
21
393.944709
0
LINE
8
annotation
62
1
39
211
10
189.431149
20
393.944709
11
189.510107
21
393.778839
0
LINE
8
annotation
62
1
39
211
10
189.510107
20
393.778839
11
189.615384
21
393.630325
0
LINE
8
annotation
62
1
39
211
10
189.615384
20
393.630325
11
189.743942
21
393.502141
0
LINE
8
annotation
62
1
39
211
10
189.743942
20
393.502141
11
189.892743
21
393.397263
0
LINE
8
annotation
62
1
39
211
10
189.892743
20
393.397263
11
190.058751
21
393.318666
0
LINE
8
annotation
62
1
39
211
10
190.058751
20
393.318666
11
190.238927
21
393.269325
0
LINE
8
annotation
62
1
39
211
10
190.238927
20
393.269325
11
190.430235
21
393.252217
0
LINE
8
annotation
62
1
39
211
10
190.430235
20
393.252217
11
190.430235
21
393.252217
0
LINE
8
annotation
62
1
39
211
10
190.430235
20
393.252217
11
190.621543
21
393.269325
0
LINE
8
annotation
62
1
39
211
10
190.621543
20
393.269325
11
190.801719
21
393.318666
0
LINE
8
annotation
62
1
39
211
10
190.801719
20
393.318666
11
190.967727
21
393.397263
0
LINE
8
annotation
62
1
39
211
10
190.967727
20
393.397263
11
191.116528
21
393.502141
0
LINE
8
annotation
62
1
39
211
10
191.116528
20
393.502141
11
191.245086
21
393.630325
0
LINE
8
annotation
62
1
39
211
10
191.245086
20
393.630325
11
191.350363
21
393.778839
0
LINE
8
annotation
62
1
39
211
10
191.350363
20
393.778839
11
191.429321
21
393.944709
0
LINE
8
annotation
62
1
39
211
10
191.429321
20
393.944709
11
191.478923
21
394.124957
0
LINE
8
annotation
62
1
39
211
10
191.478923
20
394.124957
11
191.496132
21
394.316610
0
LINE
8
annotation
62
1
39
211
10
191.496132
20
394.316610
11
191.496132
21
394.847602
0
LINE
8
annotation
62
1
39
211
10
191.496132
20
394.847602
11
191.496132
21
394.847602
0
LINE
8
annotation
62
1
39
211
10
191.496132
20
394.847602
11
191.478933
21
395.039347
0
LINE
8
annotation
62
1
39
211
10
191.478933
20
395.039347
11
191.429356
21
395.219845
0
LINE
8
annotation
62
1
39
211
10
191.429356
20
395.219845
11
191.350430
21
395.386075
0
LINE
8
annotation
62
1
39
211
10
191.350430
20
395.386075
11
191.245185
21
395.535017
0
LINE
8
annotation
62
1
39
211
10
191.245185
20
395.535017
11
191.116652
21
395.663650
0
LINE
8
annotation
62
1
39
211
10
191.116652
20
395.663650
11
190.967861
21
395.768956
0
LINE
8
annotation
62
1
39
211
10
190.967861
20
395.768956
11
190.801841
21
395.847913
0
LINE
8
annotation
62
1
39
211
10
190.801841
20
395.847913
11
190.621622
21
395.897502
0
LINE
8
annotation
62
1
39
211
10
190.621622
20
395.897502
11
190.430235
21
395.914703
0
LINE
8
annotation
62
1
39
211
10
190.430235
20
395.914703
11
190.430235
21
395.914703
0
LINE
8
annotation
62
1
39
211
10
190.430235
20
395.914703
11
190.238848
21
395.897493
0
LINE
8
annotation
62
1
39
211
10
190.238848
20
395.897493
11
190.058629
21
395.847879
0
LINE
8
annotation
62
1
39
211
10
190.058629
20
395.847879
11
189.892609
21
395.768889
0
LINE
8
annotation
62
1
39
211
10
189.892609
20
395.768889
11
189.743818
21
395.663551
0
LINE
8
annotation
62
1
39
211
10
189.743818
20
395.663551
11
189.615285
21
395.534893
0
LINE
8
annotation
62
1
39
211
10
189.615285
20
395.534893
11
189.510041
21
395.385941
0
LINE
8
annotation
62
1
39
211
10
189.510041
20
395.385941
11
189.431114
21
395.219724
0
LINE
8
annotation
62
1
39
211
10
189.431114
20
395.219724
11
189.381537
21
395.039268
0
LINE
8
annotation
62
1
39
211
10
189.381537
20
395.039268
11
189.364338
21
394.847602
0
LINE
8
annotation
62
1
39
211
10
189.364338
20
394.847602
11
189.364338
21
394.316610
0
LINE
8
annotation
62
1
39
211
10
191.496132
20
396.982106
11
191.496132
21
396.982106
0
LINE
8
annotation
62
1
39
211
10
191.496132
20
396.982106
11
191.478933
21
397.172966
0
LINE
8
annotation
62
1
39
211
10
191.478933
20
397.172966
11
191.429356
21
397.352793
0
LINE
8
annotation
62
1
39
211
10
191.429356
20
397.352793
11
191.350430
21
397.518539
0
LINE
8
annotation
62
1
39
211
10
191.350430
20
397.518539
11
191.245185
21
397.667152
0
LINE
8
annotation
62
1
39
211
10
191.245185
20
397.667152
11
191.116652
21
397.795584
0
LINE
8
annotation
62
1
39
211
10
191.116652
20
397.795584
11
190.967861
21
397.900784
0
LINE
8
annotation
62
1
39
211
10
190.967861
20
397.900784
11
190.801841
21
397.979703
0
LINE
8
annotation
62
1
39
211
10
190.801841
20
397.979703
11
190.621622
21
398.029291
0
LINE
8
annotation
62
1
39
211
10
190.621622
20
398.029291
11
190.430235
21
398.046498
0
LINE
8
annotation
62
1
39
211
10
190.430235
20
398.046498
11
190.430235
21
398.046498
0
LINE
8
annotation
62
1
39
211
10
190.430235
20
398.046498
11
190.238848
21
398.029291
0
LINE
8
annotation
62
1
39
211
10
190.238848
20
398.029291
11
190.058629
21
397.979703
0
LINE
8
annotation
62
1
39
211
10
190.058629
20
397.979703
11
189.892609
21
397.900784
0
LINE
8
annotation
62
1
39
211
10
189.892609
20
397.900784
11
189.743818
21
397.795584
0
LINE
8
annotation
62
1
39
211
10
189.743818
20
397.795584
11
189.615285
21
397.667152
0
LINE
8
annotation
62
1
39
211
10
189.615285
20
397.667152
11
189.510041
21
397.518539
0
LINE
8
annotation
62
1
39
211
10
189.510041
20
397.518539
11
189.431114
21
397.352793
0
LINE
8
annotation
62
1
39
211
10
189.431114
20
397.352793
11
189.381537
21
397.172966
0
LINE
8
annotation
62
1
39
211
10
189.381537
20
397.172966
11
189.364338
21
396.982106
0
LINE
8
annotation
62
1
39
211
10
189.364338
20
396.982106
11
189.364338
21
396.982106
0
LINE
8
annotation
62
1
39
211
10
189.364338
20
396.982106
11
189.381547
21
396.790350
0
LINE
8
annotation
62
1
39
211
10
189.381547
20
396.790350
11
189.431149
21
396.609825
0
LINE
8
annotation
62
1
39
211
10
189.431149
20
396.609825
11
189.510107
21
396.443555
0
LINE
8
annotation
62
1
39
211
10
189.510107
20
396.443555
11
189.615384
21
396.294566
0
LINE
8
annotation
62
1
39
211
10
189.615384
20
396.294566
11
189.743942
21
396.165882
0
LINE
8
annotation
62
1
39
211
10
189.743942
20
396.165882
11
189.892743
21
396.060529
0
LINE
8
annotation
62
1
39
211
10
189.892743
20
396.060529
11
190.058751
21
395.981531
0
LINE
8
annotation
62
1
39
211
10
190.058751
20
395.981531
11
190.238927
21
395.931915
0
LINE
8
annotation
62
1
39
211
10
190.238927
20
395.931915
11
190.430235
21
395.914703
0
LINE
8
annotation
62
1
39
211
10
190.430235
20
395.914703
11
190.430235
21
395.914703
0
LINE
8
annotation
62
1
39
211
10
190.430235
20
395.914703
11
190.621543
21
395.931915
0
LINE
8
annotation
62
1
39
211
10
190.621543
20
395.931915
11
190.801719
21
395.981531
0
LINE
8
annotation
62
1
39
211
10
190.801719
20
395.981531
11
190.967727
21
396.060529
0
LINE
8
annotation
62
1
39
211
10
190.967727
20
396.060529
11
191.116528
21
396.165882
0
LINE
8
annotation
62
1
39
211
10
191.116528
20
396.165882
11
191.245086
21
396.294566
0
LINE
8
annotation
62
1
39
211
10
191.245086
20
396.294566
11
191.350363
21
396.443555
0
LINE
8
annotation
62
1
39
211
10
191.350363
20
396.443555
11
191.429321
21
396.609825
0
LINE
8
annotation
62
1
39
211
10
191.429321
20
396.609825
11
191.478923
21
396.790350
0
LINE
8
annotation
62
1
39
211
10
191.478923
20
396.790350
11
191.496132
21
396.982106
0
LINE
8
annotation
62
1
39
211
10
352.016355
20
394.316610
11
352.016355
21
394.316610
0
LINE
8
annotation
62
1
39
211
10
352.016355
20
394.316610
11
352.033564
21
394.124957
0
LINE
8
annotation
62
1
39
211
10
352.033564
20
394.124957
11
352.083166
21
393.944709
0
LINE
8
annotation
62
1
39
211
10
352.083166
20
393.944709
11
352.162125
21
393.778839
0
LINE
8
annotation
62
1
39
211
10
352.162125
20
393.778839
11
352.267401
21
393.630325
0
LINE
8
annotation
62
1
39
211
10
352.267401
20
393.630325
11
352.395959
21
393.502141
0
LINE
8
annotation
62
1
39
211
10
352.395959
20
393.502141
11
352.544760
21
393.397263
0
LINE
8
annotation
62
1
39
211
10
352.544760
20
393.397263
11
352.710768
21
393.318666
0
LINE
8
annotation
62
1
39
211
10
352.710768
20
393.318666
11
352.890945
21
393.269325
0
LINE
8
annotation
62
1
39
211
10
352.890945
20
393.269325
11
353.082252
21
393.252217
0
LINE
8
annotation
62
1
39
211
10
353.082252
20
393.252217
11
353.082252
21
393.252217
0
LINE
8
annotation
62
1
39
211
10
353.082252
20
393.252217
11
353.273560
21
393.269325
0
LINE
8
annotation
62
1
39
211
10
353.273560
20
393.269325
11
353.453737
21
393.318666
0
LINE
8
annotation
62
1
39
211
10
353.453737
20
393.318666
11
353.619744
21
393.397263
0
LINE
8
annotation
62
1
39
211
10
353.619744
20
393.397263
11
353.768545
21
393.502141
0
LINE
8
annotation
62
1
39
211
10
353.768545
20
393.502141
11
353.897103
21
393.630325
0
LINE
8
annotation
62
1
39
211
10
353.897103
20
393.630325
11
354.002380
21
393.778839
0
LINE
8
annotation
62
1
39
211
10
354.002380
20
393.778839
11
354.081338
21
393.944709
0
LINE
8
annotation
62
1
39
211
10
354.081338
20
393.944709
11
354.130941
21
394.124957
0
LINE
8
annotation
62
1
39
211
10
354.130941
20
394.124957
11
354.148150
21
394.316610
0
LINE
8
annotation
62
1
39
211
10
354.148150
20
394.316610
11
354.148150
21
394.847602
0
LINE
8
annotation
62
1
39
211
10
354.148150
20
394.847602
11
354.148150
21
394.847602
0
LINE
8
annotation
62
1
39
211
10
354.148150
20
394.847602
11
354.130951
21
395.039347
0
LINE
8
annotation
62
1
39
211
10
354.130951
20
395.039347
11
354.081373
21
395.219845
0
LINE
8
annotation
62
1
39
211
10
354.081373
20
395.219845
11
354.002447
21
395.386075
0
LINE
8
annotation
62
1
39
211
10
354.002447
20
395.386075
11
353.897202
21
395.535017
0
LINE
8
annotation
62
1
39
211
10
353.897202
20
395.535017
11
353.768669
21
395.663650
0
LINE
8
annotation
62
1
39
211
10
353.768669
20
395.663650
11
353.619878
21
395.768956
0
LINE
8
annotation
62
1
39
211
10
353.619878
20
395.768956
11
353.453858
21
395.847913
0
LINE
8
annotation
62
1
39
211
10
353.453858
20
395.847913
11
353.273639
21
395.897502
0
LINE
8
annotation
62
1
39
211
10
353.273639
20
395.897502
11
353.082252
21
395.914703
0
LINE
8
annotation
62
1
39
211
10
353.082252
20
395.914703
11
353.082252
21
395.914703
0
LINE
8
annotation
62
1
39
211
10
353.082252
20
395.914703
11
352.890865
21
395.897493
0
LINE
8
annotation
62
1
39
211
10
352.890865
20
395.897493
11
352.710647
21
395.847879
0
LINE
8
annotation
62
1
39
211
10
352.710647
20
395.847879
11
352.544627
21
395.768889
0
LINE
8
annotation
62
1
39
211
10
352.544627
20
395.768889
11
352.395835
21
395.663551
0
LINE
8
annotation
62
1
39
211
10
352.395835
20
395.663551
11
352.267302
21
395.534893
0
LINE
8
annotation
62
1
39
211
10
352.267302
20
395.534893
11
352.162058
21
395.385941
0
LINE
8
annotation
62
1
39
211
10
352.162058
20
395.385941
11
352.083132
21
395.219724
0
LINE
8
annotation
62
1
39
211
10
352.083132
20
395.219724
11
352.033554
21
395.039268
0
LINE
8
annotation
62
1
39
211
10
352.033554
20
395.039268
11
352.016355
21
394.847602
0
LINE
8
annotation
62
1
39
211
10
352.016355
20
394.847602
11
352.016355
21
394.316610
0
LINE
8
annotation
62
1
39
211
10
354.148150
20
396.982106
11
354.148150
21
396.982106
0
LINE
8
annotation
62
1
39
211
10
354.148150
20
396.982106
11
354.130951
21
397.172966
0
LINE
8
annotation
62
1
39
211
10
354.130951
20
397.172966
11
354.081373
21
397.352793
0
LINE
8
annotation
62
1
39
211
10
354.081373
20
397.352793
11
354.002447
21
397.518539
0
LINE
8
annotation
62
1
39
211
10
354.002447
20
397.518539
11
353.897202
21
397.667152
0
LINE
8
annotation
62
1
39
211
10
353.897202
20
397.667152
11
353.768669
21
397.795584
0
LINE
8
annotation
62
1
39
211
10
353.768669
20
397.795584
11
353.619878
21
397.900784
0
LINE
8
annotation
62
1
39
211
10
353.619878
20
397.900784
11
353.453858
21
397.979703
0
LINE
8
annotation
62
1
39
211
10
353.453858
20
397.979703
11
353.273639
21
398.029291
0
LINE
8
annotation
62
1
39
211
10
353.273639
20
398.029291
11
353.082252
21
398.046498
0
LINE
8
annotation
62
1
39
211
10
353.082252
20
398.046498
11
353.082252
21
398.046498
0
LINE
8
annotation
62
1
39
211
10
353.082252
20
398.046498
11
352.890865
21
398.029291
0
LINE
8
annotation
62
1
39
211
10
352.890865
20
398.029291
11
352.710647
21
397.979703
0
LINE
8
annotation
62
1
39
211
10
352.710647
20
397.979703
11
352.544627
21
397.900784
0
LINE
8
annotation
62
1
39
211
10
352.544627
20
397.900784
11
352.395835
21
397.795584
0
LINE
8
annotation
62
1
39
211
10
352.395835
20
397.795584
11
352.267302
21
397.667152
0
LINE
8
annotation
62
1
39
211
10
352.267302
20
397.667152
11
352.162058
21
397.518539
0
LINE
8
annotation
62
1
39
211
10
352.162058
20
397.518539
11
352.083132
21
397.352793
0
LINE
8
annotation
62
1
39
211
10
352.083132
20
397.352793
11
352.033554
21
397.172966
0
LINE
8
annotation
62
1
39
211
10
352.033554
20
397.172966
11
352.016355
21
396.982106
0
LINE
8
annotation
62
1
39
211
10
352.016355
20
396.982106
11
352.016355
21
396.982106
0
LINE
8
annotation
62
1
39
211
10
352.016355
20
396.982106
11
352.033564
21
396.790350
0
LINE
8
annotation
62
1
39
211
10
352.033564
20
396.790350
11
352.083166
21
396.609825
0
LINE
8
annotation
62
1
39
211
10
352.083166
20
396.609825
11
352.162125
21
396.443555
0
LINE
8
annotation
62
1
39
211
10
352.162125
20
396.443555
11
352.267401
21
396.294566
0
LINE
8
annotation
62
1
39
211
10
352.267401
20
396.294566
11
352.395959
21
396.165882
0
LINE
8
annotation
62
1
39
211
10
352.395959
20
396.165882
11
352.544760
21
396.060529
0
LINE
8
annotation
62
1
39
211
10
352.544760
20
396.060529
11
352.710768
21
395.981531
0
LINE
8
annotation
62
1
39
211
10
352.710768
20
395.981531
11
352.890945
21
395.931915
0
LINE
8
annotation
62
1
39
211
10
352.890945
20
395.931915
11
353.082252
21
395.914703
0
LINE
8
annotation
62
1
39
211
10
353.082252
20
395.914703
11
353.082252
21
395.914703
0
LINE
8
annotation
62
1
39
211
10
353.082252
20
395.914703
11
353.273560
21
395.931915
0
LINE
8
annotation
62
1
39
211
10
353.273560
20
395.931915
11
353.453737
21
395.981531
0
LINE
8
annotation
62
1
39
211
10
353.453737
20
395.981531
11
353.619744
21
396.060529
0
LINE
8
annotation
62
1
39
211
10
353.619744
20
396.060529
11
353.768545
21
396.165882
0
LINE
8
annotation
62
1
39
211
10
353.768545
20
396.165882
11
353.897103
21
396.294566
0
LINE
8
annotation
62
1
39
211
10
353.897103
20
396.294566
11
354.002380
21
396.443555
0
LINE
8
annotation
62
1
39
211
10
354.002380
20
396.443555
11
354.081338
21
396.609825
0
LINE
8
annotation
62
1
39
211
10
354.081338
20
396.609825
11
354.130941
21
396.790350
0
LINE
8
annotation
62
1
39
211
10
354.130941
20
396.790350
11
354.148150
21
396.982106
0
LINE
8
annotation
62
1
39
211
10
356.111925
20
417.896267
11
356.111925
21
417.896267
0
LINE
8
annotation
62
1
39
211
10
356.111925
20
417.896267
11
356.416740
21
418.009856
0
LINE
8
annotation
62
1
39
211
10
356.416740
20
418.009856
11
356.696522
21
418.163393
0
LINE
8
annotation
62
1
39
211
10
356.696522
20
418.163393
11
356.948381
21
418.352964
0
LINE
8
annotation
62
1
39
211
10
356.948381
20
418.352964
11
357.169425
21
418.574659
0
LINE
8
annotation
62
1
39
211
10
357.169425
20
418.574659
11
357.356762
21
418.824565
0
LINE
8
annotation
62
1
39
211
10
357.356762
20
418.824565
11
357.507501
21
419.098770
0
LINE
8
annotation
62
1
39
211
10
357.507501
20
419.098770
11
357.618752
21
419.393363
0
LINE
8
annotation
62
1
39
211
10
357.618752
20
419.393363
11
357.687623
21
419.704431
0
LINE
8
annotation
62
1
39
211
10
357.687623
20
419.704431
11
357.711222
21
420.028062
0
LINE
8
annotation
62
1
39
211
10
357.711222
20
420.028062
11
357.711222
21
421.628865
0
LINE
8
annotation
62
1
39
211
10
357.711222
20
421.628865
11
357.711222
21
421.628865
0
LINE
8
annotation
62
1
39
211
10
357.711222
20
421.628865
11
357.694063
21
421.820621
0
LINE
8
annotation
62
1
39
211
10
357.694063
20
421.820621
11
357.644584
21
422.001146
0
LINE
8
annotation
62
1
39
211
10
357.644584
20
422.001146
11
357.565787
21
422.167416
0
LINE
8
annotation
62
1
39
211
10
357.565787
20
422.167416
11
357.460671
21
422.316405
0
LINE
8
annotation
62
1
39
211
10
357.460671
20
422.316405
11
357.332237
21
422.445089
0
LINE
8
annotation
62
1
39
211
10
357.332237
20
422.445089
11
357.183486
21
422.550442
0
LINE
8
annotation
62
1
39
211
10
357.183486
20
422.550442
11
357.017416
21
422.629439
0
LINE
8
annotation
62
1
39
211
10
357.017416
20
422.629439
11
356.837029
21
422.679056
0
LINE
8
annotation
62
1
39
211
10
356.837029
20
422.679056
11
356.645325
21
422.696267
0
LINE
8
annotation
62
1
39
211
10
356.645325
20
422.696267
11
356.645325
21
422.696267
0
LINE
8
annotation
62
1
39
211
10
356.645325
20
422.696267
11
356.454017
21
422.679056
0
LINE
8
annotation
62
1
39
211
10
356.454017
20
422.679056
11
356.273841
21
422.629439
0
LINE
8
annotation
62
1
39
211
10
356.273841
20
422.629439
11
356.107833
21
422.550442
0
LINE
8
annotation
62
1
39
211
10
356.107833
20
422.550442
11
355.959032
21
422.445089
0
LINE
8
annotation
62
1
39
211
10
355.959032
20
422.445089
11
355.830474
21
422.316405
0
LINE
8
annotation
62
1
39
211
10
355.830474
20
422.316405
11
355.725197
21
422.167416
0
LINE
8
annotation
62
1
39
211
10
355.725197
20
422.167416
11
355.646239
21
422.001146
0
LINE
8
annotation
62
1
39
211
10
355.646239
20
422.001146
11
355.596637
21
421.820621
0
LINE
8
annotation
62
1
39
211
10
355.596637
20
421.820621
11
355.579427
21
421.628865
0
LINE
8
annotation
62
1
39
211
10
355.579427
20
421.628865
11
355.579427
21
421.095163
0
LINE
8
annotation
62
1
39
211
10
355.579427
20
421.095163
11
355.579427
21
421.095163
0
LINE
8
annotation
62
1
39
211
10
355.579427
20
421.095163
11
355.596637
21
420.903418
0
LINE
8
annotation
62
1
39
211
10
355.596637
20
420.903418
11
355.646239
21
420.722920
0
LINE
8
annotation
62
1
39
211
10
355.646239
20
420.722920
11
355.725197
21
420.556691
0
LINE
8
annotation
62
1
39
211
10
355.725197
20
420.556691
11
355.830474
21
420.407749
0
LINE
8
annotation
62
1
39
211
10
355.830474
20
420.407749
11
355.959032
21
420.279115
0
LINE
8
annotation
62
1
39
211
10
355.959032
20
420.279115
11
356.107833
21
420.173809
0
LINE
8
annotation
62
1
39
211
10
356.107833
20
420.173809
11
356.273841
21
420.094852
0
LINE
8
annotation
62
1
39
211
10
356.273841
20
420.094852
11
356.454017
21
420.045263
0
LINE
8
annotation
62
1
39
211
10
356.454017
20
420.045263
11
356.645325
21
420.028062
0
LINE
8
annotation
62
1
39
211
10
356.645325
20
420.028062
11
357.711222
21
420.028062
0
LINE
8
annotation
62
1
39
211
10
355.446228
20
417.296267
11
357.846228
21
417.296267
0
LINE
8
annotation
62
1
39
211
10
362.287439
20
435.070878
11
362.287439
21
437.707543
0
LINE
8
annotation
62
1
39
211
10
362.287439
20
437.707543
11
361.701274
21
437.121214
0
LINE
8
annotation
62
1
39
211
10
363.699625
20
435.105656
11
363.699625
21
435.105656
0
LINE
8
annotation
62
1
39
211
10
363.699625
20
435.105656
11
363.760904
21
435.082748
0
LINE
8
annotation
62
1
39
211
10
363.760904
20
435.082748
11
363.823751
21
435.071367
0
LINE
8
annotation
62
1
39
211
10
363.823751
20
435.071367
11
363.886745
21
435.071049
0
LINE
8
annotation
62
1
39
211
10
363.886745
20
435.071049
11
363.948466
21
435.081330
0
LINE
8
annotation
62
1
39
211
10
363.948466
20
435.081330
11
364.007491
21
435.101745
0
LINE
8
annotation
62
1
39
211
10
364.007491
20
435.101745
11
364.062402
21
435.131830
0
LINE
8
annotation
62
1
39
211
10
364.062402
20
435.131830
11
364.111776
21
435.171123
0
LINE
8
annotation
62
1
39
211
10
364.111776
20
435.171123
11
364.154193
21
435.219157
0
LINE
8
annotation
62
1
39
211
10
364.154193
20
435.219157
11
364.188233
21
435.275470
0
LINE
8
annotation
62
1
39
211
10
364.188233
20
435.275470
11
364.188233
21
435.275470
0
LINE
8
annotation
62
1
39
211
10
364.188233
20
435.275470
11
364.289794
21
435.513200
0
LINE
8
annotation
62
1
39
211
10
364.289794
20
435.513200
11
364.365965
21
435.757810
0
LINE
8
annotation
62
1
39
211
10
364.365965
20
435.757810
11
364.416746
21
436.007351
0
LINE
8
annotation
62
1
39
211
10
364.416746
20
436.007351
11
364.442136
21
436.259872
0
LINE
8
annotation
62
1
39
211
10
364.442136
20
436.259872
11
364.442136
21
436.513423
0
LINE
8
annotation
62
1
39
211
10
364.442136
20
436.513423
11
364.416746
21
436.766055
0
LINE
8
annotation
62
1
39
211
10
364.416746
20
436.766055
11
364.365965
21
437.015816
0
LINE
8
annotation
62
1
39
211
10
364.365965
20
437.015816
11
364.289794
21
437.260757
0
LINE
8
annotation
62
1
39
211
10
364.289794
20
437.260757
11
364.188233
21
437.498927
0
LINE
8
annotation
62
1
39
211
10
364.188233
20
437.498927
11
364.188233
21
437.498927
0
LINE
8
annotation
62
1
39
211
10
364.188233
20
437.498927
11
364.175317
21
437.522964
0
LINE
8
annotation
62
1
39
211
10
364.175317
20
437.522964
11
364.160675
21
437.545944
0
LINE
8
annotation
62
1
39
211
10
364.160675
20
437.545944
11
364.144415
21
437.567756
0
LINE
8
annotation
62
1
39
211
10
364.144415
20
437.567756
11
364.126649
21
437.588285
0
LINE
8
annotation
62
1
39
211
10
364.126649
20
437.588285
11
364.107487
21
437.607420
0
LINE
8
annotation
62
1
39
211
10
364.107487
20
437.607420
11
364.087039
21
437.625046
0
LINE
8
annotation
62
1
39
211
10
364.087039
20
437.625046
11
364.065415
21
437.641052
0
LINE
8
annotation
62
1
39
211
10
364.065415
20
437.641052
11
364.042725
21
437.655324
0
LINE
8
annotation
62
1
39
211
10
364.042725
20
437.655324
11
364.019080
21
437.667749
0
LINE
8
annotation
62
1
39
211
10
364.019080
20
437.667749
11
364.019080
21
437.667749
0
LINE
8
annotation
62
1
39
211
10
364.019080
20
437.667749
11
363.957314
21
437.691154
0
LINE
8
annotation
62
1
39
211
10
363.957314
20
437.691154
11
363.894099
21
437.702924
0
LINE
8
annotation
62
1
39
211
10
363.894099
20
437.702924
11
363.830839
21
437.703526
0
LINE
8
annotation
62
1
39
211
10
363.830839
20
437.703526
11
363.768938
21
437.693428
0
LINE
8
annotation
62
1
39
211
10
363.768938
20
437.693428
11
363.709801
21
437.673095
0
LINE
8
annotation
62
1
39
211
10
363.709801
20
437.673095
11
363.654833
21
437.642996
0
LINE
8
annotation
62
1
39
211
10
363.654833
20
437.642996
11
363.605438
21
437.603596
0
LINE
8
annotation
62
1
39
211
10
363.605438
20
437.603596
11
363.563020
21
437.555362
0
LINE
8
annotation
62
1
39
211
10
363.563020
20
437.555362
11
363.528984
21
437.498762
0
LINE
8
annotation
62
1
39
211
10
363.528984
20
437.498762
11
363.528984
21
437.498762
0
LINE
8
annotation
62
1
39
211
10
363.528984
20
437.498762
11
363.427912
21
437.261081
0
LINE
8
annotation
62
1
39
211
10
363.427912
20
437.261081
11
363.352109
21
437.016508
0
LINE
8
annotation
62
1
39
211
10
363.352109
20
437.016508
11
363.301573
21
436.766992
0
LINE
8
annotation
62
1
39
211
10
363.301573
20
436.766992
11
363.276305
21
436.514483
0
LINE
8
annotation
62
1
39
211
10
363.276305
20
436.514483
11
363.276305
21
436.260931
0
LINE
8
annotation
62
1
39
211
10
363.276305
20
436.260931
11
363.301573
21
436.008288
0
LINE
8
annotation
62
1
39
211
10
363.301573
20
436.008288
11
363.352109
21
435.758502
0
LINE
8
annotation
62
1
39
211
10
363.352109
20
435.758502
11
363.427912
21
435.513524
0
LINE
8
annotation
62
1
39
211
10
363.427912
20
435.513524
11
363.528984
21
435.275305
0
LINE
8
annotation
62
1
39
211
10
363.528984
20
435.275305
11
363.528984
21
435.275305
0
LINE
8
annotation
62
1
39
211
10
363.528984
20
435.275305
11
363.541852
21
435.251316
0
LINE
8
annotation
62
1
39
211
10
363.541852
20
435.251316
11
363.556387
21
435.228450
0
LINE
8
annotation
62
1
39
211
10
363.556387
20
435.228450
11
363.572526
21
435.206777
0
LINE
8
annotation
62
1
39
211
10
363.572526
20
435.206777
11
363.590208
21
435.186364
0
LINE
8
annotation
62
1
39
211
10
363.590208
20
435.186364
11
363.609372
21
435.167283
0
LINE
8
annotation
62
1
39
211
10
363.609372
20
435.167283
11
363.629957
21
435.149602
0
LINE
8
annotation
62
1
39
211
10
363.629957
20
435.149602
11
363.651902
21
435.133391
0
LINE
8
annotation
62
1
39
211
10
363.651902
20
435.133391
11
363.675145
21
435.118719
0
LINE
8
annotation
62
1
39
211
10
363.675145
20
435.118719
11
363.699625
21
435.105656
0
LINE
8
annotation
62
1
39
211
10
324.576726
20
364.851862
11
320.125761
21
358.413948
0
LINE
8
annotation
62
1
39
211
10
320.125761
20
358.413948
11
315.673958
21
364.851862
0
LINE
8
annotation
62
1
39
211
10
320.125761
20
358.932027
11
320.125761
21
351.504823
0
LINE
8
annotation
62
1
39
211
10
336.880701
20
358.178343
11
329.583226
21
358.178343
0
LINE
8
annotation
62
1
39
211
10
344.851722
20
351.505242
11
347.818754
21
364.851444
0
LINE
8
annotation
62
1
39
211
10
347.818754
20
364.851444
11
341.883853
21
364.851444
0
LINE
8
annotation
62
1
39
211
10
347.818754
20
358.908174
11
344.851722
21
358.908174
0
LINE
8
frame
62
5
39
2
10
0.000000
20
0.000000
11
450.000000
21
0.000000
0
LINE
8
frame
62
5
39
2
10
450.000000
20
0.000000
11
450.000000
21
500.000000
0
LINE
8
frame
62
5
39
2
10
450.000000
20
500.000000
11
0.000000
21
500.000000
0
LINE
8
frame
62
5
39
2
10
0.000000
20
500.000000
11
0.000000
21
0.000000
0
ENDSEC
0
EOF
