0
SECTION
2
HEADER
9
$ACADVER
1
AC1009
0
ENDSEC
0
SECTION
2
TABLES
0
TABLE
2
VPORT
70
1
0
VPORT
2
ACTIVE
70
0
10
0.0
20
0.0
11
0.0
21
0.0
12
0.0
22
0.0
13
0.0
23
0.0
14
0.0
24
0.0
15
0.0
25
0.0
16
0.0
26
0.0
36
0.0
17
0.0
27
0.0
37
0.0
40
0.0
41
0.0
42
0.0
43
0.0
44
0.0
50
0.0
51
0.0
71
0
72
1000
73
1
74
3
75
0
76
0
77
0
78
0
0
ENDTAB
0
ENDSEC
0
SECTION
2
ENTITIES
0
LINE
8
boundary
62
5
39
2
10
363.939844
20
68.750316
11
369.583596
21
66.447665
0
LINE
8
boundary
62
5
39
2
10
369.583596
20
66.447665
11
376.634055
21
63.571078
0
LINE
8
boundary
62
5
39
2
10
376.634055
20
63.571078
11
376.634055
21
66.000956
0
LINE
8
boundary
62
5
39
2
10
376.634055
20
66.000956
11
376.634055
21
72.344303
0
LINE
8
boundary
62
5
39
2
10
376.634055
20
72.344303
11
345.832205
21
72.494303
0
LINE
8
boundary
62
5
39
2
10
345.832205
20
72.494303
11
347.429768
21
71.843758
0
LINE
8
boundary
62
5
39
2
10
347.429768
20
71.843758
11
348.813227
21
71.309828
0
LINE
8
boundary
62
5
39
2
10
348.813227
20
71.309828
11
350.248522
21
70.835626
0
LINE
8
boundary
62
5
39
2
10
350.248522
20
70.835626
11
351.739510
21
70.400301
0
LINE
8
boundary
62
5
39
2
10
351.739510
20
70.400301
11
353.192100
21
70.014436
0
LINE
8
boundary
62
5
39
2
10
353.192100
20
70.014436
11
354.768903
21
69.692143
0
LINE
8
boundary
62
5
39
2
10
354.768903
20
69.692143
11
356.232426
21
69.394105
0
LINE
8
boundary
62
5
39
2
10
356.232426
20
69.394105
11
357.678734
21
69.185630
0
LINE
8
boundary
62
5
39
2
10
357.678734
20
69.185630
11
359.340018
21
68.984544
0
LINE
8
boundary
62
5
39
2
10
359.340018
20
68.984544
11
360.793871
21
68.859615
0
LINE
8
boundary
62
5
39
2
10
360.793871
20
68.859615
11
362.484416
21
68.791846
0
LINE
8
boundary
62
5
39
2
10
362.484416
20
68.791846
11
363.939844
21
68.750316
0
LINE
8
hole
62
5
39
2
10
113.530953
20
209.290811
11
209.401574
21
209.290810
0
LINE
8
hole
62
5
39
2
10
209.401574
20
209.290810
11
209.401574
21
189.245683
0
LINE
8
hole
62
5
39
2
10
209.401574
20
189.245683
11
209.401574
21
84.290810
0
LINE
8
hole
62
5
39
2
10
209.401574
20
84.290810
11
113.530953
21
84.290810
0
LINE
8
hole
62
5
39
2
10
113.530953
20
84.290810
11
113.530953
21
96.161621
0
LINE
8
hole
62
5
39
2
10
113.530953
20
96.161621
11
113.530952
21
97.227532
0
LINE
8
hole
62
5
39
2
10
113.530952
20
97.227532
11
63.292641
21
97.377532
0
LINE
8
hole
62
5
39
2
10
63.292641
20
97.377532
11
63.292642
21
100.277532
0
LINE
8
hole
62
5
39
2
10
63.292642
20
100.277532
11
113.435953
21
100.277532
0
LINE
8
hole
62
5
39
2
10
113.435953
20
100.277532
11
113.530953
21
112.161618
0
LINE
8
hole
62
5
39
2
10
113.530953
20
112.161618
11
113.435952
21
112.773741
0
LINE
8
hole
62
5
39
2
10
113.435952
20
112.773741
11
57.609227
21
112.773741
0
LINE
8
hole
62
5
39
2
10
57.609227
20
112.773741
11
57.609226
21
115.673741
0
LINE
8
hole
62
5
39
2
10
57.609226
20
115.673741
11
113.435953
21
115.673742
0
LINE
8
hole
62
5
39
2
10
113.435953
20
115.673742
11
113.530953
21
177.116785
0
LINE
8
hole
62
5
39
2
10
113.530953
20
177.116785
11
57.609226
21
177.266784
0
LINE
8
hole
62
5
39
2
10
57.609226
20
177.266784
11
57.609227
21
180.166784
0
LINE
8
hole
62
5
39
2
10
57.609227
20
180.166784
11
113.435953
21
180.166785
0
LINE
8
hole
62
5
39
2
10
113.435953
20
180.166785
11
113.530953
21
193.133350
0
LINE
8
hole
62
5
39
2
10
113.530953
20
193.133350
11
63.671579
21
193.283349
0
LINE
8
hole
62
5
39
2
10
63.671579
20
193.283349
11
63.671579
21
196.183350
0
LINE
8
hole
62
5
39
2
10
63.671579
20
196.183350
11
113.435952
21
196.183350
0
LINE
8
hole
62
5
39
2
10
113.435952
20
196.183350
11
113.530953
21
197.161628
0
LINE
8
hole
62
5
39
2
10
113.530953
20
197.161628
11
113.530953
21
209.290811
0
LINE
8
boundary
62
5
39
2
10
376.634055
20
75.544302
11
376.634055
21
97.227532
0
LINE
8
boundary
62
5
39
2
10
376.634055
20
97.227532
11
293.067814
21
97.377532
0
LINE
8
boundary
62
5
39
2
10
293.067814
20
97.377532
11
293.067814
21
100.277532
0
LINE
8
boundary
62
5
39
2
10
293.067814
20
100.277532
11
376.539055
21
100.277532
0
LINE
8
boundary
62
5
39
2
10
376.539055
20
100.277532
11
376.634055
21
112.623741
0
LINE
8
boundary
62
5
39
2
10
376.634055
20
112.623741
11
293.067814
21
112.773741
0
LINE
8
boundary
62
5
39
2
10
293.067814
20
112.773741
11
293.067815
21
115.673742
0
LINE
8
boundary
62
5
39
2
10
293.067815
20
115.673742
11
376.539055
21
115.673741
0
LINE
8
boundary
62
5
39
2
10
376.539055
20
115.673741
11
376.634055
21
133.650555
0
LINE
8
boundary
62
5
39
2
10
376.634055
20
133.650555
11
376.634055
21
136.080434
0
LINE
8
boundary
62
5
39
2
10
376.634055
20
136.080434
11
369.583595
21
133.203845
0
LINE
8
boundary
62
5
39
2
10
369.583595
20
133.203845
11
363.939844
21
130.901195
0
LINE
8
boundary
62
5
39
2
10
363.939844
20
130.901195
11
362.484416
21
130.859664
0
LINE
8
boundary
62
5
39
2
10
362.484416
20
130.859664
11
360.793871
21
130.791894
0
LINE
8
boundary
62
5
39
2
10
360.793871
20
130.791894
11
359.340018
21
130.666963
0
LINE
8
boundary
62
5
39
2
10
359.340018
20
130.666963
11
357.678735
21
130.465878
0
LINE
8
boundary
62
5
39
2
10
357.678735
20
130.465878
11
356.232427
21
130.257408
0
LINE
8
boundary
62
5
39
2
10
356.232427
20
130.257408
11
354.768904
21
129.959368
0
LINE
8
boundary
62
5
39
2
10
354.768904
20
129.959368
11
353.192100
21
129.637072
0
LINE
8
boundary
62
5
39
2
10
353.192100
20
129.637072
11
351.739509
21
129.251209
0
LINE
8
boundary
62
5
39
2
10
351.739509
20
129.251209
11
350.248522
21
128.815886
0
LINE
8
boundary
62
5
39
2
10
350.248522
20
128.815886
11
348.813227
21
128.341680
0
LINE
8
boundary
62
5
39
2
10
348.813227
20
128.341680
11
347.429768
21
127.807752
0
LINE
8
boundary
62
5
39
2
10
347.429768
20
127.807752
11
346.018323
21
127.245132
0
LINE
8
boundary
62
5
39
2
10
346.018323
20
127.245132
11
344.569026
21
126.561140
0
LINE
8
boundary
62
5
39
2
10
344.569026
20
126.561140
11
343.733725
21
126.166264
0
LINE
8
boundary
62
5
39
2
10
343.733725
20
126.166264
11
338.221372
21
126.166263
0
LINE
8
boundary
62
5
39
2
10
338.221372
20
126.166263
11
303.531397
21
126.166264
0
LINE
8
boundary
62
5
39
2
10
303.531397
20
126.166264
11
298.665865
21
126.166264
0
LINE
8
boundary
62
5
39
2
10
298.665865
20
126.166264
11
288.237367
21
126.166264
0
LINE
8
boundary
62
5
39
2
10
288.237367
20
126.166264
11
288.237368
21
129.386928
0
LINE
8
boundary
62
5
39
2
10
288.237368
20
129.386928
11
288.237367
21
133.116030
0
LINE
8
boundary
62
5
39
2
10
288.237367
20
133.116030
11
249.370706
21
138.929118
0
LINE
8
boundary
62
5
39
2
10
249.370706
20
138.929118
11
228.237374
21
142.089923
0
LINE
8
boundary
62
5
39
2
10
228.237374
20
142.089923
11
228.237374
21
147.596034
0
LINE
8
boundary
62
5
39
2
10
228.237374
20
147.596034
11
228.237374
21
150.589922
0
LINE
8
boundary
62
5
39
2
10
228.237374
20
150.589922
11
267.104035
21
156.403011
0
LINE
8
boundary
62
5
39
2
10
267.104035
20
156.403011
11
288.237367
21
159.563816
0
LINE
8
boundary
62
5
39
2
10
288.237367
20
159.563816
11
288.237367
21
162.067210
0
LINE
8
boundary
62
5
39
2
10
288.237367
20
162.067210
11
288.237367
21
164.229284
0
LINE
8
boundary
62
5
39
2
10
288.237367
20
164.229284
11
298.665859
21
164.229284
0
LINE
8
boundary
62
5
39
2
10
298.665859
20
164.229284
11
303.531389
21
164.229284
0
LINE
8
boundary
62
5
39
2
10
303.531389
20
164.229284
11
338.221375
21
164.229284
0
LINE
8
boundary
62
5
39
2
10
338.221375
20
164.229284
11
343.733725
21
164.229284
0
LINE
8
boundary
62
5
39
2
10
343.733725
20
164.229284
11
344.549311
21
163.844392
0
LINE
8
boundary
62
5
39
2
10
344.549311
20
163.844392
11
346.018322
21
163.150415
0
LINE
8
boundary
62
5
39
2
10
346.018322
20
163.150415
11
347.429768
21
162.587795
0
LINE
8
boundary
62
5
39
2
10
347.429768
20
162.587795
11
348.813227
21
162.053866
0
LINE
8
boundary
62
5
39
2
10
348.813227
20
162.053866
11
350.248522
21
161.579658
0
LINE
8
boundary
62
5
39
2
10
350.248522
20
161.579658
11
351.739509
21
161.144336
0
LINE
8
boundary
62
5
39
2
10
351.739509
20
161.144336
11
353.192099
21
160.758475
0
LINE
8
boundary
62
5
39
2
10
353.192099
20
160.758475
11
354.768903
21
160.436179
0
LINE
8
boundary
62
5
39
2
10
354.768903
20
160.436179
11
356.232426
21
160.138139
0
LINE
8
boundary
62
5
39
2
10
356.232426
20
160.138139
11
357.678735
21
159.929669
0
LINE
8
boundary
62
5
39
2
10
357.678735
20
159.929669
11
359.340018
21
159.728586
0
LINE
8
boundary
62
5
39
2
10
359.340018
20
159.728586
11
360.793871
21
159.603654
0
LINE
8
boundary
62
5
39
2
10
360.793871
20
159.603654
11
362.484416
21
159.535883
0
LINE
8
boundary
62
5
39
2
10
362.484416
20
159.535883
11
363.939844
21
159.494352
0
LINE
8
boundary
62
5
39
2
10
363.939844
20
159.494352
11
369.583595
21
157.191700
0
LINE
8
boundary
62
5
39
2
10
369.583595
20
157.191700
11
376.634055
21
154.315112
0
LINE
8
boundary
62
5
39
2
10
376.634055
20
154.315112
11
376.634055
21
156.744990
0
LINE
8
boundary
62
5
39
2
10
376.634055
20
156.744990
11
376.634055
21
177.116784
0
LINE
8
boundary
62
5
39
2
10
376.634055
20
177.116784
11
293.067814
21
177.266785
0
LINE
8
boundary
62
5
39
2
10
293.067814
20
177.266785
11
293.067815
21
180.166784
0
LINE
8
boundary
62
5
39
2
10
293.067815
20
180.166784
11
376.539055
21
180.166784
0
LINE
8
boundary
62
5
39
2
10
376.539055
20
180.166784
11
376.634055
21
193.133349
0
LINE
8
boundary
62
5
39
2
10
376.634055
20
193.133349
11
293.067814
21
193.283349
0
LINE
8
boundary
62
5
39
2
10
293.067814
20
193.283349
11
293.067815
21
196.183350
0
LINE
8
boundary
62
5
39
2
10
293.067815
20
196.183350
11
376.539055
21
196.183349
0
LINE
8
boundary
62
5
39
2
10
376.539055
20
196.183349
11
376.634055
21
206.575484
0
LINE
8
boundary
62
5
39
2
10
376.634055
20
206.575484
11
376.634055
21
217.057908
0
LINE
8
boundary
62
5
39
2
10
376.634055
20
217.057908
11
362.217870
21
217.207908
0
LINE
8
boundary
62
5
39
2
10
362.217870
20
217.207908
11
362.217870
21
220.107908
0
LINE
8
boundary
62
5
39
2
10
362.217870
20
220.107908
11
376.539055
21
220.107908
0
LINE
8
boundary
62
5
39
2
10
376.539055
20
220.107908
11
376.634055
21
224.394594
0
LINE
8
boundary
62
5
39
2
10
376.634055
20
224.394594
11
376.634055
21
226.824473
0
LINE
8
boundary
62
5
39
2
10
376.634055
20
226.824473
11
369.583596
21
223.947882
0
LINE
8
boundary
62
5
39
2
10
369.583596
20
223.947882
11
363.939844
21
221.645229
0
LINE
8
boundary
62
5
39
2
10
363.939844
20
221.645229
11
362.484416
21
221.603699
0
LINE
8
boundary
62
5
39
2
10
362.484416
20
221.603699
11
360.793871
21
221.535930
0
LINE
8
boundary
62
5
39
2
10
360.793871
20
221.535930
11
359.340019
21
221.411000
0
LINE
8
boundary
62
5
39
2
10
359.340019
20
221.411000
11
357.678735
21
221.209917
0
LINE
8
boundary
62
5
39
2
10
357.678735
20
221.209917
11
356.232426
21
221.001446
0
LINE
8
boundary
62
5
39
2
10
356.232426
20
221.001446
11
354.768903
21
220.703403
0
LINE
8
boundary
62
5
39
2
10
354.768903
20
220.703403
11
353.192099
21
220.381108
0
LINE
8
boundary
62
5
39
2
10
353.192099
20
220.381108
11
351.739509
21
219.995247
0
LINE
8
boundary
62
5
39
2
10
351.739509
20
219.995247
11
350.248522
21
219.559920
0
LINE
8
boundary
62
5
39
2
10
350.248522
20
219.559920
11
348.813226
21
219.085714
0
LINE
8
boundary
62
5
39
2
10
348.813226
20
219.085714
11
347.429767
21
218.551786
0
LINE
8
boundary
62
5
39
2
10
347.429767
20
218.551786
11
346.018322
21
217.989164
0
LINE
8
boundary
62
5
39
2
10
346.018322
20
217.989164
11
344.569025
21
217.305171
0
LINE
8
boundary
62
5
39
2
10
344.569025
20
217.305171
11
343.733726
21
216.910295
0
LINE
8
boundary
62
5
39
2
10
343.733726
20
216.910295
11
338.221374
21
216.910295
0
LINE
8
boundary
62
5
39
2
10
338.221374
20
216.910295
11
303.531389
21
216.910295
0
LINE
8
boundary
62
5
39
2
10
303.531389
20
216.910295
11
298.665859
21
216.910295
0
LINE
8
boundary
62
5
39
2
10
298.665859
20
216.910295
11
288.237367
21
216.910295
0
LINE
8
boundary
62
5
39
2
10
288.237367
20
216.910295
11
182.212992
21
217.207908
0
LINE
8
boundary
62
5
39
2
10
182.212992
20
217.207908
11
182.212992
21
220.107908
0
LINE
8
boundary
62
5
39
2
10
182.212992
20
220.107908
11
288.142367
21
220.107908
0
LINE
8
boundary
62
5
39
2
10
288.142367
20
220.107908
11
288.237367
21
224.186700
0
LINE
8
boundary
62
5
39
2
10
288.237367
20
224.186700
11
288.237367
21
232.078573
0
LINE
8
boundary
62
5
39
2
10
288.237367
20
232.078573
11
248.949630
21
232.078573
0
LINE
8
boundary
62
5
39
2
10
248.949630
20
232.078573
11
228.237375
21
232.078573
0
LINE
8
boundary
62
5
39
2
10
228.237375
20
232.078573
11
152.486978
21
227.417392
0
LINE
8
boundary
62
5
39
2
10
152.486978
20
227.417392
11
142.154091
21
226.781573
0
LINE
8
boundary
62
5
39
2
10
142.154091
20
226.781573
11
142.157740
21
230.528588
0
LINE
8
boundary
62
5
39
2
10
142.157740
20
230.528588
11
142.158436
21
231.243998
0
LINE
8
boundary
62
5
39
2
10
142.158436
20
231.243998
11
142.158979
21
231.798288
0
LINE
8
boundary
62
5
39
2
10
142.158979
20
231.798288
11
142.159678
21
232.517348
0
LINE
8
boundary
62
5
39
2
10
142.159678
20
232.517348
11
142.160567
21
233.431413
0
LINE
8
boundary
62
5
39
2
10
142.160567
20
233.431413
11
142.161678
21
234.574079
0
LINE
8
boundary
62
5
39
2
10
142.161678
20
234.574079
11
142.162769
21
235.693789
0
LINE
8
boundary
62
5
39
2
10
142.162769
20
235.693789
11
142.164032
21
236.989039
0
LINE
8
boundary
62
5
39
2
10
142.164032
20
236.989039
11
142.165550
21
238.547328
0
LINE
8
boundary
62
5
39
2
10
142.165550
20
238.547328
11
142.167341
21
240.384643
0
LINE
8
boundary
62
5
39
2
10
142.167341
20
240.384643
11
142.169397
21
242.501754
0
LINE
8
boundary
62
5
39
2
10
142.169397
20
242.501754
11
142.171714
21
244.875783
0
LINE
8
boundary
62
5
39
2
10
142.171714
20
244.875783
11
142.172756
21
245.945606
0
LINE
8
boundary
62
5
39
2
10
142.172756
20
245.945606
11
143.435762
21
245.949551
0
LINE
8
boundary
62
5
39
2
10
143.435762
20
245.949551
11
144.387757
21
245.952528
0
LINE
8
boundary
62
5
39
2
10
144.387757
20
245.952528
11
149.299105
21
245.952528
0
LINE
8
boundary
62
5
39
2
10
149.299105
20
245.952528
11
155.806189
21
245.952528
0
LINE
8
boundary
62
5
39
2
10
155.806189
20
245.952528
11
157.013919
21
245.889344
0
LINE
8
boundary
62
5
39
2
10
157.013919
20
245.889344
11
157.857638
21
245.833926
0
LINE
8
boundary
62
5
39
2
10
157.857638
20
245.833926
11
159.234169
21
245.664526
0
LINE
8
boundary
62
5
39
2
10
159.234169
20
245.664526
11
159.983197
21
245.509597
0
LINE
8
boundary
62
5
39
2
10
159.983197
20
245.509597
11
160.839476
21
245.371432
0
LINE
8
boundary
62
5
39
2
10
160.839476
20
245.371432
11
162.267481
21
245.057823
0
LINE
8
boundary
62
5
39
2
10
162.267481
20
245.057823
11
162.831573
21
244.929497
0
LINE
8
boundary
62
5
39
2
10
162.831573
20
244.929497
11
163.659578
21
244.686110
0
LINE
8
boundary
62
5
39
2
10
163.659578
20
244.686110
11
164.712575
21
244.376491
0
LINE
8
boundary
62
5
39
2
10
164.712575
20
244.376491
11
165.714352
21
244.015036
0
LINE
8
boundary
62
5
39
2
10
165.714352
20
244.015036
11
166.384163
21
243.821858
0
LINE
8
boundary
62
5
39
2
10
166.384163
20
243.821858
11
168.235640
21
243.160878
0
LINE
8
boundary
62
5
39
2
10
168.235640
20
243.160878
11
169.748281
21
242.602537
0
LINE
8
boundary
62
5
39
2
10
169.748281
20
242.602537
11
170.273367
21
242.445649
0
LINE
8
boundary
62
5
39
2
10
170.273367
20
242.445649
11
170.800059
21
242.288245
0
LINE
8
boundary
62
5
39
2
10
170.800059
20
242.288245
11
172.244708
21
241.732911
0
LINE
8
boundary
62
5
39
2
10
172.244708
20
241.732911
11
173.379013
21
241.296785
0
LINE
8
boundary
62
5
39
2
10
173.379013
20
241.296785
11
174.244250
21
241.026423
0
LINE
8
boundary
62
5
39
2
10
174.244250
20
241.026423
11
175.355950
21
240.678990
0
LINE
8
boundary
62
5
39
2
10
175.355950
20
240.678990
11
176.246055
21
240.340533
0
LINE
8
boundary
62
5
39
2
10
176.246055
20
240.340533
11
176.827019
21
240.119591
0
LINE
8
boundary
62
5
39
2
10
176.827019
20
240.119591
11
178.222379
21
239.690033
0
LINE
8
boundary
62
5
39
2
10
178.222379
20
239.690033
11
180.175540
21
239.088677
0
LINE
8
boundary
62
5
39
2
10
180.175540
20
239.088677
11
182.255674
21
238.501952
0
LINE
8
boundary
62
5
39
2
10
182.255674
20
238.501952
11
183.245665
21
238.216770
0
LINE
8
boundary
62
5
39
2
10
183.245665
20
238.216770
11
184.276405
21
237.985164
0
LINE
8
boundary
62
5
39
2
10
184.276405
20
237.985164
11
186.350941
21
237.518979
0
LINE
8
boundary
62
5
39
2
10
186.350941
20
237.518979
11
188.322733
21
237.140633
0
LINE
8
boundary
62
5
39
2
10
188.322733
20
237.140633
11
189.196597
21
236.973817
0
LINE
8
boundary
62
5
39
2
10
189.196597
20
236.973817
11
190.319866
21
236.825637
0
LINE
8
boundary
62
5
39
2
10
190.319866
20
236.825637
11
192.019565
21
236.601407
0
LINE
8
boundary
62
5
39
2
10
192.019565
20
236.601407
11
193.291269
21
236.503393
0
LINE
8
boundary
62
5
39
2
10
193.291269
20
236.503393
11
194.314533
21
236.415836
0
LINE
8
boundary
62
5
39
2
10
194.314533
20
236.415836
11
196.982554
21
236.323723
0
LINE
8
boundary
62
5
39
2
10
196.982554
20
236.323723
11
206.223892
21
236.317601
0
LINE
8
boundary
62
5
39
2
10
206.223892
20
236.317601
11
212.531613
21
236.317600
0
LINE
8
boundary
62
5
39
2
10
212.531613
20
236.317600
11
216.358429
21
236.317600
0
LINE
8
boundary
62
5
39
2
10
216.358429
20
236.317600
11
222.101788
21
236.317601
0
LINE
8
boundary
62
5
39
2
10
222.101788
20
236.317601
11
223.304394
21
236.355999
0
LINE
8
boundary
62
5
39
2
10
223.304394
20
236.355999
11
224.239938
21
236.386371
0
LINE
8
boundary
62
5
39
2
10
224.239938
20
236.386371
11
224.753307
21
236.438302
0
LINE
8
boundary
62
5
39
2
10
224.753307
20
236.438302
11
226.365672
21
236.601407
0
LINE
8
boundary
62
5
39
2
10
226.365672
20
236.601407
11
228.128616
21
236.913067
0
LINE
8
boundary
62
5
39
2
10
228.128616
20
236.913067
11
229.811479
21
237.319073
0
LINE
8
boundary
62
5
39
2
10
229.811479
20
237.319073
11
230.557933
21
237.511205
0
LINE
8
boundary
62
5
39
2
10
230.557933
20
237.511205
11
231.493615
21
237.833439
0
LINE
8
boundary
62
5
39
2
10
231.493615
20
237.833439
11
232.606730
21
238.216771
0
LINE
8
boundary
62
5
39
2
10
232.606730
20
238.216771
11
233.160458
21
238.461228
0
LINE
8
boundary
62
5
39
2
10
233.160458
20
238.461228
11
234.581749
21
239.088677
0
LINE
8
boundary
62
5
39
2
10
234.581749
20
239.088677
11
235.955116
21
239.847180
0
LINE
8
boundary
62
5
39
2
10
235.955116
20
239.847180
11
236.436802
21
240.119591
0
LINE
8
boundary
62
5
39
2
10
236.436802
20
240.119591
11
237.811160
21
241.079695
0
LINE
8
boundary
62
5
39
2
10
237.811160
20
241.079695
11
239.164766
21
242.193100
0
LINE
8
boundary
62
5
39
2
10
239.164766
20
242.193100
11
239.641156
21
242.602537
0
LINE
8
boundary
62
5
39
2
10
239.641156
20
242.602537
11
240.402165
21
243.410483
0
LINE
8
boundary
62
5
39
2
10
240.402165
20
243.410483
11
240.971630
21
244.015035
0
LINE
8
boundary
62
5
39
2
10
240.971630
20
244.015035
11
241.503658
21
244.721692
0
LINE
8
boundary
62
5
39
2
10
241.503658
20
244.721692
11
242.096899
21
245.509597
0
LINE
8
boundary
62
5
39
2
10
242.096899
20
245.509597
11
242.451424
21
246.113237
0
LINE
8
boundary
62
5
39
2
10
242.451424
20
246.113237
11
243.007514
21
247.059993
0
LINE
8
boundary
62
5
39
2
10
243.007514
20
247.059993
11
243.230748
21
247.568556
0
LINE
8
boundary
62
5
39
2
10
243.230748
20
247.568556
11
243.701076
21
248.639911
0
LINE
8
boundary
62
5
39
2
10
243.701076
20
248.639911
11
244.181729
21
250.224213
0
LINE
8
boundary
62
5
39
2
10
244.181729
20
250.224213
11
244.351695
21
251.183113
0
LINE
8
boundary
62
5
39
2
10
244.351695
20
251.183113
11
163.657384
21
251.333112
0
LINE
8
boundary
62
5
39
2
10
163.657384
20
251.333112
11
163.657384
21
254.233113
0
LINE
8
boundary
62
5
39
2
10
163.657384
20
254.233113
11
244.422684
21
254.233112
0
LINE
8
boundary
62
5
39
2
10
244.422684
20
254.233112
11
244.555619
21
256.207481
0
LINE
8
boundary
62
5
39
2
10
244.555619
20
256.207481
11
244.548128
21
257.390358
0
LINE
8
boundary
62
5
39
2
10
244.548128
20
257.390358
11
244.555575
21
258.570435
0
LINE
8
boundary
62
5
39
2
10
244.555575
20
258.570435
11
244.497672
21
261.353550
0
LINE
8
boundary
62
5
39
2
10
244.497672
20
261.353550
11
164.429572
21
261.503549
0
LINE
8
boundary
62
5
39
2
10
164.429572
20
261.503549
11
164.429572
21
264.403549
0
LINE
8
boundary
62
5
39
2
10
164.429572
20
264.403549
11
244.087451
21
264.403549
0
LINE
8
boundary
62
5
39
2
10
244.087451
20
264.403549
11
244.062081
21
264.951468
0
LINE
8
boundary
62
5
39
2
10
244.062081
20
264.951468
11
243.701281
21
266.140780
0
LINE
8
boundary
62
5
39
2
10
243.701281
20
266.140780
11
243.494609
21
266.611521
0
LINE
8
boundary
62
5
39
2
10
243.494609
20
266.611521
11
243.007699
21
267.720711
0
LINE
8
boundary
62
5
39
2
10
243.007699
20
267.720711
11
242.671181
21
268.293580
0
LINE
8
boundary
62
5
39
2
10
242.671181
20
268.293580
11
242.097009
21
269.271113
0
LINE
8
boundary
62
5
39
2
10
242.097009
20
269.271113
11
241.571740
21
269.968649
0
LINE
8
boundary
62
5
39
2
10
241.571740
20
269.968649
11
240.971607
21
270.765667
0
LINE
8
boundary
62
5
39
2
10
240.971607
20
270.765667
11
240.183655
21
271.602055
0
LINE
8
boundary
62
5
39
2
10
240.183655
20
271.602055
11
239.640944
21
272.178167
0
LINE
8
boundary
62
5
39
2
10
239.640944
20
272.178167
11
238.504775
21
273.154493
0
LINE
8
boundary
62
5
39
2
10
238.504775
20
273.154493
11
236.546267
21
274.584077
0
LINE
8
boundary
62
5
39
2
10
236.546267
20
274.584077
11
235.874444
21
274.978613
0
LINE
8
boundary
62
5
39
2
10
235.874444
20
274.978613
11
234.582506
21
275.692027
0
LINE
8
boundary
62
5
39
2
10
234.582506
20
275.692027
11
232.607083
21
276.563920
0
LINE
8
boundary
62
5
39
2
10
232.607083
20
276.563920
11
231.718119
21
276.869987
0
LINE
8
boundary
62
5
39
2
10
231.718119
20
276.869987
11
230.557820
21
277.269486
0
LINE
8
boundary
62
5
39
2
10
230.557820
20
277.269486
11
229.032703
21
277.661935
0
LINE
8
boundary
62
5
39
2
10
229.032703
20
277.661935
11
228.469489
21
277.806868
0
LINE
8
boundary
62
5
39
2
10
228.469489
20
277.806868
11
226.687647
21
278.123745
0
LINE
8
boundary
62
5
39
2
10
226.687647
20
278.123745
11
224.240423
21
278.394333
0
LINE
8
boundary
62
5
39
2
10
224.240423
20
278.394333
11
223.290039
21
278.425172
0
LINE
8
boundary
62
5
39
2
10
223.290039
20
278.425172
11
222.101855
21
278.463091
0
LINE
8
boundary
62
5
39
2
10
222.101855
20
278.463091
11
216.290049
21
278.463090
0
LINE
8
boundary
62
5
39
2
10
216.290049
20
278.463090
11
212.419842
21
278.463090
0
LINE
8
boundary
62
5
39
2
10
212.419842
20
278.463090
11
206.159968
21
278.463090
0
LINE
8
boundary
62
5
39
2
10
206.159968
20
278.463090
11
197.331827
21
278.463090
0
LINE
8
boundary
62
5
39
2
10
197.331827
20
278.463090
11
194.657071
21
278.394333
0
LINE
8
boundary
62
5
39
2
10
194.657071
20
278.394333
11
193.233269
21
278.272590
0
LINE
8
boundary
62
5
39
2
10
193.233269
20
278.272590
11
192.021715
21
278.179290
0
LINE
8
boundary
62
5
39
2
10
192.021715
20
278.179290
11
191.239600
21
278.076204
0
LINE
8
boundary
62
5
39
2
10
191.239600
20
278.076204
11
189.196227
21
277.806868
0
LINE
8
boundary
62
5
39
2
10
189.196227
20
277.806868
11
186.436675
21
277.280594
0
LINE
8
boundary
62
5
39
2
10
186.436675
20
277.280594
11
183.245652
21
276.563921
0
LINE
8
boundary
62
5
39
2
10
183.245652
20
276.563921
11
180.428469
21
275.753361
0
LINE
8
boundary
62
5
39
2
10
180.428469
20
275.753361
11
179.725306
21
275.552576
0
LINE
8
boundary
62
5
39
2
10
179.725306
20
275.552576
11
176.825700
21
274.661106
0
LINE
8
boundary
62
5
39
2
10
176.825700
20
274.661106
11
175.318652
21
274.088790
0
LINE
8
boundary
62
5
39
2
10
175.318652
20
274.088790
11
173.379685
21
273.483913
0
LINE
8
boundary
62
5
39
2
10
173.379685
20
273.483913
11
170.767794
21
272.481441
0
LINE
8
boundary
62
5
39
2
10
170.767794
20
272.481441
11
169.750635
21
272.178166
0
LINE
8
boundary
62
5
39
2
10
169.750635
20
272.178166
11
166.632134
21
271.029621
0
LINE
8
boundary
62
5
39
2
10
166.632134
20
271.029621
11
165.714547
21
270.765667
0
LINE
8
boundary
62
5
39
2
10
165.714547
20
270.765667
11
164.685980
21
270.395500
0
LINE
8
boundary
62
5
39
2
10
164.685980
20
270.395500
11
163.960317
21
270.182822
0
LINE
8
boundary
62
5
39
2
10
163.960317
20
270.182822
11
162.806340
21
269.844627
0
LINE
8
boundary
62
5
39
2
10
162.806340
20
269.844627
11
161.260725
21
269.494492
0
LINE
8
boundary
62
5
39
2
10
161.260725
20
269.494492
11
159.982661
21
269.271113
0
LINE
8
boundary
62
5
39
2
10
159.982661
20
269.271113
11
159.210730
21
269.112307
0
LINE
8
boundary
62
5
39
2
10
159.210730
20
269.112307
11
157.479384
21
268.901210
0
LINE
8
boundary
62
5
39
2
10
157.479384
20
268.901210
11
155.783403
21
268.828170
0
LINE
8
boundary
62
5
39
2
10
155.783403
20
268.828170
11
150.872060
21
268.828170
0
LINE
8
boundary
62
5
39
2
10
150.872060
20
268.828170
11
144.364974
21
268.828169
0
LINE
8
boundary
62
5
39
2
10
144.364974
20
268.828169
11
142.482841
21
268.858376
0
LINE
8
boundary
62
5
39
2
10
142.482841
20
268.858376
11
142.197040
21
270.879665
0
LINE
8
boundary
62
5
39
2
10
142.197040
20
270.879665
11
142.199956
21
273.879805
0
LINE
8
boundary
62
5
39
2
10
142.199956
20
273.879805
11
142.202001
21
275.979000
0
LINE
8
boundary
62
5
39
2
10
142.202001
20
275.979000
11
142.203299
21
277.310981
0
LINE
8
boundary
62
5
39
2
10
142.203299
20
277.310981
11
142.204017
21
278.054543
0
LINE
8
boundary
62
5
39
2
10
142.204017
20
278.054543
11
142.204324
21
280.625908
0
LINE
8
boundary
62
5
39
2
10
142.204324
20
280.625908
11
142.204324
21
288.746176
0
LINE
8
boundary
62
5
39
2
10
142.204324
20
288.746176
11
142.204323
21
289.832552
0
LINE
8
boundary
62
5
39
2
10
142.204323
20
289.832552
11
142.204323
21
290.554766
0
LINE
8
boundary
62
5
39
2
10
142.204323
20
290.554766
11
121.179615
21
291.014710
0
LINE
8
boundary
62
5
39
2
10
121.179615
20
291.014710
11
119.761756
21
291.014710
0
LINE
8
boundary
62
5
39
2
10
119.761756
20
291.014710
11
102.561152
21
285.166506
0
LINE
8
boundary
62
5
39
2
10
102.561152
20
285.166506
11
101.401182
21
284.772117
0
LINE
8
boundary
62
5
39
2
10
101.401182
20
284.772117
11
87.344649
21
272.824078
0
LINE
8
boundary
62
5
39
2
10
87.344649
20
272.824078
11
86.396708
21
272.018329
0
LINE
8
boundary
62
5
39
2
10
86.396708
20
272.018329
11
82.933739
21
257.300636
0
LINE
8
boundary
62
5
39
2
10
82.933739
20
257.300636
11
82.700204
21
256.308108
0
LINE
8
boundary
62
5
39
2
10
82.700204
20
256.308108
11
82.700203
21
226.986805
0
LINE
8
boundary
62
5
39
2
10
82.700203
20
226.986805
11
82.700203
21
225.009443
0
LINE
8
boundary
62
5
39
2
10
82.700203
20
225.009443
11
84.703141
21
223.425741
0
LINE
8
boundary
62
5
39
2
10
84.703141
20
223.425741
11
80.452895
21
222.984888
0
LINE
8
boundary
62
5
39
2
10
80.452895
20
222.984888
11
79.080790
21
222.900457
0
LINE
8
boundary
62
5
39
2
10
79.080790
20
222.900457
11
76.616060
21
220.648295
0
LINE
8
boundary
62
5
39
2
10
76.616060
20
220.648295
11
76.088616
21
220.166340
0
LINE
8
boundary
62
5
39
2
10
76.088616
20
220.166340
11
76.088616
21
216.225056
0
LINE
8
boundary
62
5
39
2
10
76.088616
20
216.225056
11
76.088616
21
204.404618
0
LINE
8
boundary
62
5
39
2
10
76.088616
20
204.404618
11
76.088616
21
201.012303
0
LINE
8
boundary
62
5
39
2
10
76.088616
20
201.012303
11
75.508089
21
201.012303
0
LINE
8
boundary
62
5
39
2
10
75.508089
20
201.012303
11
59.825286
21
201.012302
0
LINE
8
boundary
62
5
39
2
10
59.825286
20
201.012302
11
22.968191
21
201.012302
0
LINE
8
boundary
62
5
39
2
10
22.968191
20
201.012302
11
13.011203
21
193.613925
0
LINE
8
boundary
62
5
39
2
10
13.011203
20
193.613925
11
1.587500
21
185.125734
0
LINE
8
boundary
62
5
39
2
10
1.587500
20
185.125734
11
1.587500
21
121.797406
0
LINE
8
boundary
62
5
39
2
10
1.587500
20
121.797406
11
1.587501
21
107.872019
0
LINE
8
boundary
62
5
39
2
10
1.587501
20
107.872019
11
13.011203
21
99.383831
0
LINE
8
boundary
62
5
39
2
10
13.011203
20
99.383831
11
22.968191
21
91.985453
0
LINE
8
boundary
62
5
39
2
10
22.968191
20
91.985453
11
59.825286
21
91.985452
0
LINE
8
boundary
62
5
39
2
10
59.825286
20
91.985452
11
75.508089
21
91.985452
0
LINE
8
boundary
62
5
39
2
10
75.508089
20
91.985452
11
76.088616
21
91.985452
0
LINE
8
boundary
62
5
39
2
10
76.088616
20
91.985452
11
76.088616
21
88.573480
0
LINE
8
boundary
62
5
39
2
10
76.088616
20
88.573480
11
76.088616
21
76.616967
0
LINE
8
boundary
62
5
39
2
10
76.088616
20
76.616967
11
76.088616
21
72.630311
0
LINE
8
boundary
62
5
39
2
10
76.088616
20
72.630311
11
76.616027
21
72.147954
0
LINE
8
boundary
62
5
39
2
10
76.616027
20
72.147954
11
79.080609
21
69.893911
0
LINE
8
boundary
62
5
39
2
10
79.080609
20
69.893911
11
80.500592
21
69.805444
0
LINE
8
boundary
62
5
39
2
10
80.500592
20
69.805444
11
85.133539
21
69.516802
0
LINE
8
boundary
62
5
39
2
10
85.133539
20
69.516802
11
82.848201
21
67.709806
0
LINE
8
boundary
62
5
39
2
10
82.848201
20
67.709806
11
82.700204
21
38.271477
0
LINE
8
boundary
62
5
39
2
10
82.700204
20
38.271477
11
82.700204
21
36.294115
0
LINE
8
boundary
62
5
39
2
10
82.700204
20
36.294115
11
86.163173
21
21.576433
0
LINE
8
boundary
62
5
39
2
10
86.163173
20
21.576433
11
86.396707
21
20.583906
0
LINE
8
boundary
62
5
39
2
10
86.396707
20
20.583906
11
100.453241
21
8.635845
0
LINE
8
boundary
62
5
39
2
10
100.453241
20
8.635845
11
101.401182
21
7.830094
0
LINE
8
boundary
62
5
39
2
10
101.401182
20
7.830094
11
118.601786
21
1.981890
0
LINE
8
boundary
62
5
39
2
10
118.601786
20
1.981890
11
119.761756
21
1.587500
0
LINE
8
boundary
62
5
39
2
10
119.761756
20
1.587500
11
140.786465
21
1.587500
0
LINE
8
boundary
62
5
39
2
10
140.786465
20
1.587500
11
142.204323
21
1.587500
0
LINE
8
boundary
62
5
39
2
10
142.204323
20
1.587500
11
142.204323
21
8.407798
0
LINE
8
boundary
62
5
39
2
10
142.204323
20
8.407798
11
142.204324
21
11.815282
0
LINE
8
boundary
62
5
39
2
10
142.204324
20
11.815282
11
142.204323
21
14.232125
0
LINE
8
boundary
62
5
39
2
10
142.204323
20
14.232125
11
142.203299
21
15.291242
0
LINE
8
boundary
62
5
39
2
10
142.203299
20
15.291242
11
142.202001
21
16.623230
0
LINE
8
boundary
62
5
39
2
10
142.202001
20
16.623230
11
142.199956
21
18.722427
0
LINE
8
boundary
62
5
39
2
10
142.199956
20
18.722427
11
142.197041
21
21.722569
0
LINE
8
boundary
62
5
39
2
10
142.197041
20
21.722569
11
142.195252
21
23.558879
0
LINE
8
boundary
62
5
39
2
10
142.195252
20
23.558879
11
144.194081
21
23.774053
0
LINE
8
boundary
62
5
39
2
10
144.194081
20
23.774053
11
150.701175
21
23.774054
0
LINE
8
boundary
62
5
39
2
10
150.701175
20
23.774054
11
155.612523
21
23.774053
0
LINE
8
boundary
62
5
39
2
10
155.612523
20
23.774053
11
156.805162
21
23.722401
0
LINE
8
boundary
62
5
39
2
10
156.805162
20
23.722401
11
157.682350
21
23.672576
0
LINE
8
boundary
62
5
39
2
10
157.682350
20
23.672576
11
159.039195
21
23.518273
0
LINE
8
boundary
62
5
39
2
10
159.039195
20
23.518273
11
159.986661
21
23.331122
0
LINE
8
boundary
62
5
39
2
10
159.986661
20
23.331122
11
160.680989
21
23.224133
0
LINE
8
boundary
62
5
39
2
10
160.680989
20
23.224133
11
162.115718
21
22.916840
0
LINE
8
boundary
62
5
39
2
10
162.115718
20
22.916840
11
162.632696
21
22.802915
0
LINE
8
boundary
62
5
39
2
10
162.632696
20
22.802915
11
163.513098
21
22.550437
0
LINE
8
boundary
62
5
39
2
10
163.513098
20
22.550437
11
164.510653
21
22.264166
0
LINE
8
boundary
62
5
39
2
10
164.510653
20
22.264166
11
165.719293
21
21.836555
0
LINE
8
boundary
62
5
39
2
10
165.719293
20
21.836555
11
166.243051
21
21.688442
0
LINE
8
boundary
62
5
39
2
10
166.243051
20
21.688442
11
168.131991
21
21.018880
0
LINE
8
boundary
62
5
39
2
10
168.131991
20
21.018880
11
169.767167
21
20.424068
0
LINE
8
boundary
62
5
39
2
10
169.767167
20
20.424068
11
170.584530
21
20.183360
0
LINE
8
boundary
62
5
39
2
10
170.584530
20
20.183360
11
172.145702
21
19.589887
0
LINE
8
boundary
62
5
39
2
10
172.145702
20
19.589887
11
173.385335
21
19.118310
0
LINE
8
boundary
62
5
39
2
10
173.385335
20
19.118310
11
174.152769
21
18.881120
0
LINE
8
boundary
62
5
39
2
10
174.152769
20
18.881120
11
175.127166
21
18.579737
0
LINE
8
boundary
62
5
39
2
10
175.127166
20
18.579737
11
176.148355
21
18.194752
0
LINE
8
boundary
62
5
39
2
10
176.148355
20
18.194752
11
176.820681
21
17.941117
0
LINE
8
boundary
62
5
39
2
10
176.820681
20
17.941117
11
178.131745
21
17.540883
0
LINE
8
boundary
62
5
39
2
10
178.131745
20
17.540883
11
180.196242
21
16.910209
0
LINE
8
boundary
62
5
39
2
10
180.196242
20
16.910209
11
182.164123
21
16.348342
0
LINE
8
boundary
62
5
39
2
10
182.164123
20
16.348342
11
183.246931
21
16.038301
0
LINE
8
boundary
62
5
39
2
10
183.246931
20
16.038301
11
184.192704
21
15.827138
0
LINE
8
boundary
62
5
39
2
10
184.192704
20
15.827138
11
186.082617
21
15.404913
0
LINE
8
boundary
62
5
39
2
10
186.082617
20
15.404913
11
188.236529
21
14.977615
0
LINE
8
boundary
62
5
39
2
10
188.236529
20
14.977615
11
189.195733
21
14.795343
0
LINE
8
boundary
62
5
39
2
10
189.195733
20
14.795343
11
190.242101
21
14.657986
0
LINE
8
boundary
62
5
39
2
10
190.242101
20
14.657986
11
192.031688
21
14.422933
0
LINE
8
boundary
62
5
39
2
10
192.031688
20
14.422933
11
192.995076
21
14.349004
0
LINE
8
boundary
62
5
39
2
10
192.995076
20
14.349004
11
194.232594
21
14.243528
0
LINE
8
boundary
62
5
39
2
10
194.232594
20
14.243528
11
197.143361
21
14.140936
0
LINE
8
boundary
62
5
39
2
10
197.143361
20
14.140936
11
205.899767
21
14.139132
0
LINE
8
boundary
62
5
39
2
10
205.899767
20
14.139132
11
211.965063
21
14.139133
0
LINE
8
boundary
62
5
39
2
10
211.965063
20
14.139133
11
216.011716
21
14.139132
0
LINE
8
boundary
62
5
39
2
10
216.011716
20
14.139132
11
222.102677
21
14.139132
0
LINE
8
boundary
62
5
39
2
10
222.102677
20
14.139132
11
223.231878
21
14.175120
0
LINE
8
boundary
62
5
39
2
10
223.231878
20
14.175120
11
224.242941
21
14.207890
0
LINE
8
boundary
62
5
39
2
10
224.242941
20
14.207890
11
226.329805
21
14.418686
0
LINE
8
boundary
62
5
39
2
10
226.329805
20
14.418686
11
228.036691
21
14.718853
0
LINE
8
boundary
62
5
39
2
10
228.036691
20
14.718853
11
229.723540
21
15.118256
0
LINE
8
boundary
62
5
39
2
10
229.723540
20
15.118256
11
230.557789
21
15.332724
0
LINE
8
boundary
62
5
39
2
10
230.557789
20
15.332724
11
231.410687
21
15.626055
0
LINE
8
boundary
62
5
39
2
10
231.410687
20
15.626055
11
232.609143
21
16.038302
0
LINE
8
boundary
62
5
39
2
10
232.609143
20
16.038302
11
233.083561
21
16.247466
0
LINE
8
boundary
62
5
39
2
10
233.083561
20
16.247466
11
234.586491
21
16.910208
0
LINE
8
boundary
62
5
39
2
10
234.586491
20
16.910208
11
235.479989
21
17.403126
0
LINE
8
boundary
62
5
39
2
10
235.479989
20
17.403126
11
236.284217
21
17.857421
0
LINE
8
boundary
62
5
39
2
10
236.284217
20
17.857421
11
237.741458
21
18.854606
0
LINE
8
boundary
62
5
39
2
10
237.741458
20
18.854606
11
239.103593
21
19.963371
0
LINE
8
boundary
62
5
39
2
10
239.103593
20
19.963371
11
239.640094
21
20.424069
0
LINE
8
boundary
62
5
39
2
10
239.640094
20
20.424069
11
240.350000
21
21.176935
0
LINE
8
boundary
62
5
39
2
10
240.350000
20
21.176935
11
240.971868
21
21.836555
0
LINE
8
boundary
62
5
39
2
10
240.971868
20
21.836555
11
241.460776
21
22.485242
0
LINE
8
boundary
62
5
39
2
10
241.460776
20
22.485242
11
242.098174
21
23.331122
0
LINE
8
boundary
62
5
39
2
10
242.098174
20
23.331122
11
242.417856
21
23.874854
0
LINE
8
boundary
62
5
39
2
10
242.417856
20
23.874854
11
243.009585
21
24.881512
0
LINE
8
boundary
62
5
39
2
10
243.009585
20
24.881512
11
243.703713
21
26.461442
0
LINE
8
boundary
62
5
39
2
10
243.703713
20
26.461442
11
244.184730
21
28.045756
0
LINE
8
boundary
62
5
39
2
10
244.184730
20
28.045756
11
244.307802
21
28.739542
0
LINE
8
boundary
62
5
39
2
10
244.307802
20
28.739542
11
164.353830
21
28.889543
0
LINE
8
boundary
62
5
39
2
10
164.353830
20
28.889543
11
164.353829
21
31.789543
0
LINE
8
boundary
62
5
39
2
10
164.353829
20
31.789543
11
244.414508
21
31.789543
0
LINE
8
boundary
62
5
39
2
10
244.414508
20
31.789543
11
244.557336
21
34.237041
0
LINE
8
boundary
62
5
39
2
10
244.557336
20
34.237041
11
244.551177
21
35.211877
0
LINE
8
boundary
62
5
39
2
10
244.551177
20
35.211877
11
244.557370
21
36.189025
0
LINE
8
boundary
62
5
39
2
10
244.557370
20
36.189025
11
244.492955
21
39.284630
0
LINE
8
boundary
62
5
39
2
10
244.492955
20
39.284630
11
163.646401
21
39.471066
0
LINE
8
boundary
62
5
39
2
10
163.646401
20
39.471066
11
163.646400
21
42.371066
0
LINE
8
boundary
62
5
39
2
10
163.646400
20
42.371066
11
244.046035
21
42.371066
0
LINE
8
boundary
62
5
39
2
10
244.046035
20
42.371066
11
243.703433
21
43.962312
0
LINE
8
boundary
62
5
39
2
10
243.703433
20
43.962312
11
243.009324
21
45.542230
0
LINE
8
boundary
62
5
39
2
10
243.009324
20
45.542230
11
242.704533
21
46.060745
0
LINE
8
boundary
62
5
39
2
10
242.704533
20
46.060745
11
242.097971
21
47.092638
0
LINE
8
boundary
62
5
39
2
10
242.097971
20
47.092638
11
241.612113
21
47.737403
0
LINE
8
boundary
62
5
39
2
10
241.612113
20
47.737403
11
240.971781
21
48.587187
0
LINE
8
boundary
62
5
39
2
10
240.971781
20
48.587187
11
240.230727
21
49.373264
0
LINE
8
boundary
62
5
39
2
10
240.230727
20
49.373264
11
239.640192
21
49.999698
0
LINE
8
boundary
62
5
39
2
10
239.640192
20
49.999698
11
238.557989
21
50.929015
0
LINE
8
boundary
62
5
39
2
10
238.557989
20
50.929015
11
238.119651
21
51.305444
0
LINE
8
boundary
62
5
39
2
10
238.119651
20
51.305444
11
236.604838
21
52.362707
0
LINE
8
boundary
62
5
39
2
10
236.604838
20
52.362707
11
235.561669
21
52.974970
0
LINE
8
boundary
62
5
39
2
10
235.561669
20
52.974970
11
234.585573
21
53.513552
0
LINE
8
boundary
62
5
39
2
10
234.585573
20
53.513552
11
232.608620
21
54.385452
0
LINE
8
boundary
62
5
39
2
10
232.608620
20
54.385452
11
231.802169
21
54.662888
0
LINE
8
boundary
62
5
39
2
10
231.802169
20
54.662888
11
230.557724
21
55.091030
0
LINE
8
boundary
62
5
39
2
10
230.557724
20
55.091030
11
229.117400
21
55.461351
0
LINE
8
boundary
62
5
39
2
10
229.117400
20
55.461351
11
228.467700
21
55.628406
0
LINE
8
boundary
62
5
39
2
10
228.467700
20
55.628406
11
226.416490
21
55.992868
0
LINE
8
boundary
62
5
39
2
10
226.416490
20
55.992868
11
224.242246
21
56.215858
0
LINE
8
boundary
62
5
39
2
10
224.242246
20
56.215858
11
223.246081
21
56.248158
0
LINE
8
boundary
62
5
39
2
10
223.246081
20
56.248158
11
222.102396
21
56.284622
0
LINE
8
boundary
62
5
39
2
10
222.102396
20
56.284622
11
216.080094
21
56.284622
0
LINE
8
boundary
62
5
39
2
10
216.080094
20
56.284622
11
212.076763
21
56.284622
0
LINE
8
boundary
62
5
39
2
10
212.076763
20
56.284622
11
205.963690
21
56.284622
0
LINE
8
boundary
62
5
39
2
10
205.963690
20
56.284622
11
197.205020
21
56.284622
0
LINE
8
boundary
62
5
39
2
10
197.205020
20
56.284622
11
194.651980
21
56.215858
0
LINE
8
boundary
62
5
39
2
10
194.651980
20
56.215858
11
193.053019
21
56.079457
0
LINE
8
boundary
62
5
39
2
10
193.053019
20
56.079457
11
192.029106
21
56.000816
0
LINE
8
boundary
62
5
39
2
10
192.029106
20
56.000816
11
191.365074
21
55.913553
0
LINE
8
boundary
62
5
39
2
10
191.365074
20
55.913553
11
189.195698
21
55.628407
0
LINE
8
boundary
62
5
39
2
10
189.195698
20
55.628407
11
186.546523
21
55.124737
0
LINE
8
boundary
62
5
39
2
10
186.546523
20
55.124737
11
183.246460
21
54.385452
0
LINE
8
boundary
62
5
39
2
10
183.246460
20
54.385452
11
180.269023
21
53.532314
0
LINE
8
boundary
62
5
39
2
10
180.269023
20
53.532314
11
176.821478
21
52.482631
0
LINE
8
boundary
62
5
39
2
10
176.821478
20
52.482631
11
175.164322
21
51.856880
0
LINE
8
boundary
62
5
39
2
10
175.164322
20
51.856880
11
173.384007
21
51.305444
0
LINE
8
boundary
62
5
39
2
10
173.384007
20
51.305444
11
170.616661
21
50.251375
0
LINE
8
boundary
62
5
39
2
10
170.616661
20
50.251375
11
169.763961
21
49.999698
0
LINE
8
boundary
62
5
39
2
10
169.763961
20
49.999698
11
166.482794
21
48.804055
0
LINE
8
boundary
62
5
39
2
10
166.482794
20
48.804055
11
165.718150
21
48.587187
0
LINE
8
boundary
62
5
39
2
10
165.718150
20
48.587187
11
164.537141
21
48.168257
0
LINE
8
boundary
62
5
39
2
10
164.537141
20
48.168257
11
163.723793
21
47.934245
0
LINE
8
boundary
62
5
39
2
10
163.723793
20
47.934245
11
162.657826
21
47.627397
0
LINE
8
boundary
62
5
39
2
10
162.657826
20
47.627397
11
161.060895
21
47.274298
0
LINE
8
boundary
62
5
39
2
10
161.060895
20
47.274298
11
159.985244
21
47.092638
0
LINE
8
boundary
62
5
39
2
10
159.985244
20
47.092638
11
159.062589
21
46.909349
0
LINE
8
boundary
62
5
39
2
10
159.062589
20
46.909349
11
157.331271
21
46.710587
0
LINE
8
boundary
62
5
39
2
10
157.331271
20
46.710587
11
155.635309
21
46.649688
0
LINE
8
boundary
62
5
39
2
10
155.635309
20
46.649688
11
149.128217
21
46.649688
0
LINE
8
boundary
62
5
39
2
10
149.128217
20
46.649688
11
144.216869
21
46.649689
0
LINE
8
boundary
62
5
39
2
10
144.216869
20
46.649689
11
143.338375
21
46.652665
0
LINE
8
boundary
62
5
39
2
10
143.338375
20
46.652665
11
142.172757
21
46.656617
0
LINE
8
boundary
62
5
39
2
10
142.172757
20
46.656617
11
142.171715
21
47.726440
0
LINE
8
boundary
62
5
39
2
10
142.171715
20
47.726440
11
142.169398
21
50.100469
0
LINE
8
boundary
62
5
39
2
10
142.169398
20
50.100469
11
142.167341
21
52.217589
0
LINE
8
boundary
62
5
39
2
10
142.167341
20
52.217589
11
142.165551
21
54.054898
0
LINE
8
boundary
62
5
39
2
10
142.165551
20
54.054898
11
142.164031
21
55.613182
0
LINE
8
boundary
62
5
39
2
10
142.164031
20
55.613182
11
142.162769
21
56.908431
0
LINE
8
boundary
62
5
39
2
10
142.162769
20
56.908431
11
142.161587
21
58.124154
0
LINE
8
boundary
62
5
39
2
10
142.161587
20
58.124154
11
142.160470
21
59.273211
0
LINE
8
boundary
62
5
39
2
10
142.160470
20
59.273211
11
142.159575
21
60.192183
0
LINE
8
boundary
62
5
39
2
10
142.159575
20
60.192183
11
142.158872
21
60.915192
0
LINE
8
boundary
62
5
39
2
10
142.158872
20
60.915192
11
142.158326
21
61.472870
0
LINE
8
boundary
62
5
39
2
10
142.158326
20
61.472870
11
142.157624
21
62.194338
0
LINE
8
boundary
62
5
39
2
10
142.157624
20
62.194338
11
142.153954
21
65.964300
0
LINE
8
boundary
62
5
39
2
10
142.153954
20
65.964300
11
152.355244
21
65.328737
0
LINE
8
boundary
62
5
39
2
10
152.355244
20
65.328737
11
228.237375
21
60.601115
0
LINE
8
boundary
62
5
39
2
10
228.237375
20
60.601115
11
267.525113
21
60.601116
0
LINE
8
boundary
62
5
39
2
10
267.525113
20
60.601116
11
288.237367
21
60.601116
0
LINE
8
boundary
62
5
39
2
10
288.237367
20
60.601116
11
288.237368
21
67.304573
0
LINE
8
boundary
62
5
39
2
10
288.237368
20
67.304573
11
288.237368
21
72.494303
0
LINE
8
boundary
62
5
39
2
10
288.237368
20
72.494303
11
226.411336
21
72.494303
0
LINE
8
boundary
62
5
39
2
10
226.411336
20
72.494303
11
226.411335
21
75.394303
0
LINE
8
boundary
62
5
39
2
10
226.411335
20
75.394303
11
376.539055
21
75.394303
0
LINE
8
boundary
62
5
39
2
10
376.539055
20
75.394303
11
376.634055
21
75.544302
0
LINE
8
annotation
62
1
39
211
10
158.836929
20
27.939543
11
158.836929
21
32.739543
0
LINE
8
annotation
62
1
39
211
10
158.836929
20
32.739543
11
157.769827
21
31.672140
0
LINE
8
annotation
62
1
39
211
10
158.661696
20
38.521027
11
156.529901
21
38.521027
0
LINE
8
annotation
62
1
39
211
10
156.529901
20
38.521027
11
158.499749
21
41.692230
0
LINE
8
annotation
62
1
39
211
10
158.499749
20
41.692230
11
158.499749
21
41.692230
0
LINE
8
annotation
62
1
39
211
10
158.499749
20
41.692230
11
158.502104
21
41.695144
0
LINE
8
annotation
62
1
39
211
10
158.502104
20
41.695144
11
158.504363
21
41.698083
0
LINE
8
annotation
62
1
39
211
10
158.504363
20
41.698083
11
158.506539
21
41.701071
0
LINE
8
annotation
62
1
39
211
10
158.506539
20
41.701071
11
158.508649
21
41.704134
0
LINE
8
annotation
62
1
39
211
10
158.508649
20
41.704134
11
158.510706
21
41.707295
0
LINE
8
annotation
62
1
39
211
10
158.510706
20
41.707295
11
158.512727
21
41.710581
0
LINE
8
annotation
62
1
39
211
10
158.512727
20
41.710581
11
158.514725
21
41.714015
0
LINE
8
annotation
62
1
39
211
10
158.514725
20
41.714015
11
158.516715
21
41.717623
0
LINE
8
annotation
62
1
39
211
10
158.516715
20
41.717623
11
158.518713
21
41.721429
0
LINE
8
annotation
62
1
39
211
10
158.518713
20
41.721429
11
158.518713
21
41.721429
0
LINE
8
annotation
62
1
39
211
10
158.518713
20
41.721429
11
158.600048
21
41.896061
0
LINE
8
annotation
62
1
39
211
10
158.600048
20
41.896061
11
158.647562
21
42.077082
0
LINE
8
annotation
62
1
39
211
10
158.647562
20
42.077082
11
158.662421
21
42.260403
0
LINE
8
annotation
62
1
39
211
10
158.662421
20
42.260403
11
158.645788
21
42.441933
0
LINE
8
annotation
62
1
39
211
10
158.645788
20
42.441933
11
158.598827
21
42.617581
0
LINE
8
annotation
62
1
39
211
10
158.598827
20
42.617581
11
158.522705
21
42.783257
0
LINE
8
annotation
62
1
39
211
10
158.522705
20
42.783257
11
158.418584
21
42.934871
0
LINE
8
annotation
62
1
39
211
10
158.418584
20
42.934871
11
158.287629
21
43.068332
0
LINE
8
annotation
62
1
39
211
10
158.287629
20
43.068332
11
158.131005
21
43.179550
0
LINE
8
annotation
62
1
39
211
10
158.131005
20
43.179550
11
158.131005
21
43.179550
0
LINE
8
annotation
62
1
39
211
10
158.131005
20
43.179550
11
157.955887
21
43.259729
0
LINE
8
annotation
62
1
39
211
10
157.955887
20
43.259729
11
157.774588
21
43.306511
0
LINE
8
annotation
62
1
39
211
10
157.774588
20
43.306511
11
157.591161
21
43.320949
0
LINE
8
annotation
62
1
39
211
10
157.591161
20
43.320949
11
157.409658
21
43.304097
0
LINE
8
annotation
62
1
39
211
10
157.409658
20
43.304097
11
157.234134
21
43.257007
0
LINE
8
annotation
62
1
39
211
10
157.234134
20
43.257007
11
157.068642
21
43.180732
0
LINE
8
annotation
62
1
39
211
10
157.068642
20
43.180732
11
156.917234
21
43.076324
0
LINE
8
annotation
62
1
39
211
10
156.917234
20
43.076324
11
156.783963
21
42.944838
0
LINE
8
annotation
62
1
39
211
10
156.783963
20
42.944838
11
156.672884
21
42.787326
0
LINE
8
annotation
62
1
39
211
10
156.672884
20
42.787326
11
156.532911
21
42.518820
0
LINE
8
annotation
62
1
39
211
10
219.294836
20
71.544453
11
220.360733
21
71.544453
0
LINE
8
annotation
62
1
39
211
10
220.360733
20
71.544453
11
220.360733
21
71.544453
0
LINE
8
annotation
62
1
39
211
10
220.360733
20
71.544453
11
220.552438
21
71.561650
0
LINE
8
annotation
62
1
39
211
10
220.552438
20
71.561650
11
220.732825
21
71.611214
0
LINE
8
annotation
62
1
39
211
10
220.732825
20
71.611214
11
220.898894
21
71.690100
0
LINE
8
annotation
62
1
39
211
10
220.898894
20
71.690100
11
221.047646
21
71.795269
0
LINE
8
annotation
62
1
39
211
10
221.047646
20
71.795269
11
221.176080
21
71.923676
0
LINE
8
annotation
62
1
39
211
10
221.176080
20
71.923676
11
221.281196
21
72.072279
0
LINE
8
annotation
62
1
39
211
10
221.281196
20
72.072279
11
221.359993
21
72.238037
0
LINE
8
annotation
62
1
39
211
10
221.359993
20
72.238037
11
221.409471
21
72.417907
0
LINE
8
annotation
62
1
39
211
10
221.409471
20
72.417907
11
221.426631
21
72.608846
0
LINE
8
annotation
62
1
39
211
10
221.426631
20
72.608846
11
221.426631
21
73.142547
0
LINE
8
annotation
62
1
39
211
10
221.426631
20
73.142547
11
221.426631
21
73.142547
0
LINE
8
annotation
62
1
39
211
10
221.426631
20
73.142547
11
221.409471
21
73.333407
0
LINE
8
annotation
62
1
39
211
10
221.409471
20
73.333407
11
221.359993
21
73.513234
0
LINE
8
annotation
62
1
39
211
10
221.359993
20
73.513234
11
221.281196
21
73.678980
0
LINE
8
annotation
62
1
39
211
10
221.281196
20
73.678980
11
221.176080
21
73.827593
0
LINE
8
annotation
62
1
39
211
10
221.176080
20
73.827593
11
221.047646
21
73.956025
0
LINE
8
annotation
62
1
39
211
10
221.047646
20
73.956025
11
220.898894
21
74.061225
0
LINE
8
annotation
62
1
39
211
10
220.898894
20
74.061225
11
220.732825
21
74.140144
0
LINE
8
annotation
62
1
39
211
10
220.732825
20
74.140144
11
220.552438
21
74.189732
0
LINE
8
annotation
62
1
39
211
10
220.552438
20
74.189732
11
220.360733
21
74.206939
0
LINE
8
annotation
62
1
39
211
10
220.360733
20
74.206939
11
219.827032
21
74.206939
0
LINE
8
annotation
62
1
39
211
10
219.827032
20
74.206939
11
220.360733
21
74.206939
0
LINE
8
annotation
62
1
39
211
10
220.360733
20
74.206939
11
220.360733
21
74.206939
0
LINE
8
annotation
62
1
39
211
10
220.360733
20
74.206939
11
220.552438
21
74.224150
0
LINE
8
annotation
62
1
39
211
10
220.552438
20
74.224150
11
220.732825
21
74.273767
0
LINE
8
annotation
62
1
39
211
10
220.732825
20
74.273767
11
220.898894
21
74.352765
0
LINE
8
annotation
62
1
39
211
10
220.898894
20
74.352765
11
221.047646
21
74.458118
0
LINE
8
annotation
62
1
39
211
10
221.047646
20
74.458118
11
221.176080
21
74.586801
0
LINE
8
annotation
62
1
39
211
10
221.176080
20
74.586801
11
221.281196
21
74.735791
0
LINE
8
annotation
62
1
39
211
10
221.281196
20
74.735791
11
221.359993
21
74.902061
0
LINE
8
annotation
62
1
39
211
10
221.359993
20
74.902061
11
221.409471
21
75.082586
0
LINE
8
annotation
62
1
39
211
10
221.409471
20
75.082586
11
221.426631
21
75.274342
0
LINE
8
annotation
62
1
39
211
10
221.426631
20
75.274342
11
221.426631
21
75.274342
0
LINE
8
annotation
62
1
39
211
10
221.426631
20
75.274342
11
221.409471
21
75.465201
0
LINE
8
annotation
62
1
39
211
10
221.409471
20
75.465201
11
221.359993
21
75.645029
0
LINE
8
annotation
62
1
39
211
10
221.359993
20
75.645029
11
221.281196
21
75.810774
0
LINE
8
annotation
62
1
39
211
10
221.281196
20
75.810774
11
221.176080
21
75.959388
0
LINE
8
annotation
62
1
39
211
10
221.176080
20
75.959388
11
221.047646
21
76.087820
0
LINE
8
annotation
62
1
39
211
10
221.047646
20
76.087820
11
220.898894
21
76.193020
0
LINE
8
annotation
62
1
39
211
10
220.898894
20
76.193020
11
220.732825
21
76.271939
0
LINE
8
annotation
62
1
39
211
10
220.732825
20
76.271939
11
220.552438
21
76.321527
0
LINE
8
annotation
62
1
39
211
10
220.552438
20
76.321527
11
220.360733
21
76.338734
0
LINE
8
annotation
62
1
39
211
10
220.360733
20
76.338734
11
219.294836
21
76.338734
0
LINE
8
annotation
62
1
39
211
10
58.574637
20
97.494634
11
55.909442
21
97.494634
0
LINE
8
annotation
62
1
39
211
10
55.909442
20
97.494634
11
56.973834
21
101.227532
0
LINE
8
annotation
62
1
39
211
10
57.775741
20
96.427532
11
57.775741
21
98.559327
0
LINE
8
annotation
62
1
39
211
10
288.349810
20
97.494634
11
285.684615
21
97.494634
0
LINE
8
annotation
62
1
39
211
10
285.684615
20
97.494634
11
286.749007
21
101.227532
0
LINE
8
annotation
62
1
39
211
10
287.550914
20
96.427532
11
287.550914
21
98.559327
0
LINE
8
annotation
62
1
39
211
10
50.492727
20
111.823742
11
51.558624
21
111.823742
0
LINE
8
annotation
62
1
39
211
10
51.558624
20
111.823742
11
51.558624
21
111.823742
0
LINE
8
annotation
62
1
39
211
10
51.558624
20
111.823742
11
51.749932
21
111.840942
0
LINE
8
annotation
62
1
39
211
10
51.749932
20
111.840942
11
51.930109
21
111.890532
0
LINE
8
annotation
62
1
39
211
10
51.930109
20
111.890532
11
52.096116
21
111.969489
0
LINE
8
annotation
62
1
39
211
10
52.096116
20
111.969489
11
52.244918
21
112.074795
0
LINE
8
annotation
62
1
39
211
10
52.244918
20
112.074795
11
52.373475
21
112.203428
0
LINE
8
annotation
62
1
39
211
10
52.373475
20
112.203428
11
52.478752
21
112.352370
0
LINE
8
annotation
62
1
39
211
10
52.478752
20
112.352370
11
52.557710
21
112.518600
0
LINE
8
annotation
62
1
39
211
10
52.557710
20
112.518600
11
52.607313
21
112.699098
0
LINE
8
annotation
62
1
39
211
10
52.607313
20
112.699098
11
52.624522
21
112.890843
0
LINE
8
annotation
62
1
39
211
10
52.624522
20
112.890843
11
52.624522
21
113.421835
0
LINE
8
annotation
62
1
39
211
10
52.624522
20
113.421835
11
52.624522
21
113.421835
0
LINE
8
annotation
62
1
39
211
10
52.624522
20
113.421835
11
52.607323
21
113.613488
0
LINE
8
annotation
62
1
39
211
10
52.607323
20
113.613488
11
52.557745
21
113.793736
0
LINE
8
annotation
62
1
39
211
10
52.557745
20
113.793736
11
52.478819
21
113.959606
0
LINE
8
annotation
62
1
39
211
10
52.478819
20
113.959606
11
52.373574
21
114.108120
0
LINE
8
annotation
62
1
39
211
10
52.373574
20
114.108120
11
52.245041
21
114.236304
0
LINE
8
annotation
62
1
39
211
10
52.245041
20
114.236304
11
52.096250
21
114.341182
0
LINE
8
annotation
62
1
39
211
10
52.096250
20
114.341182
11
51.930230
21
114.419779
0
LINE
8
annotation
62
1
39
211
10
51.930230
20
114.419779
11
51.750011
21
114.469120
0
LINE
8
annotation
62
1
39
211
10
51.750011
20
114.469120
11
51.558624
21
114.486227
0
LINE
8
annotation
62
1
39
211
10
51.558624
20
114.486227
11
50.492727
21
114.486227
0
LINE
8
annotation
62
1
39
211
10
50.492727
20
114.486227
11
50.492727
21
116.623742
0
LINE
8
annotation
62
1
39
211
10
50.492727
20
116.623742
11
52.624522
21
116.623742
0
LINE
8
annotation
62
1
39
211
10
285.951315
20
111.823742
11
287.017212
21
111.823742
0
LINE
8
annotation
62
1
39
211
10
287.017212
20
111.823742
11
287.017212
21
111.823742
0
LINE
8
annotation
62
1
39
211
10
287.017212
20
111.823742
11
287.208520
21
111.840942
0
LINE
8
annotation
62
1
39
211
10
287.208520
20
111.840942
11
287.388697
21
111.890532
0
LINE
8
annotation
62
1
39
211
10
287.388697
20
111.890532
11
287.554704
21
111.969489
0
LINE
8
annotation
62
1
39
211
10
287.554704
20
111.969489
11
287.703506
21
112.074795
0
LINE
8
annotation
62
1
39
211
10
287.703506
20
112.074795
11
287.832063
21
112.203428
0
LINE
8
annotation
62
1
39
211
10
287.832063
20
112.203428
11
287.937340
21
112.352370
0
LINE
8
annotation
62
1
39
211
10
287.937340
20
112.352370
11
288.016298
21
112.518600
0
LINE
8
annotation
62
1
39
211
10
288.016298
20
112.518600
11
288.065901
21
112.699098
0
LINE
8
annotation
62
1
39
211
10
288.065901
20
112.699098
11
288.083110
21
112.890843
0
LINE
8
annotation
62
1
39
211
10
288.083110
20
112.890843
11
288.083110
21
113.421835
0
LINE
8
annotation
62
1
39
211
10
288.083110
20
113.421835
11
288.083110
21
113.421835
0
LINE
8
annotation
62
1
39
211
10
288.083110
20
113.421835
11
288.065911
21
113.613488
0
LINE
8
annotation
62
1
39
211
10
288.065911
20
113.613488
11
288.016333
21
113.793736
0
LINE
8
annotation
62
1
39
211
10
288.016333
20
113.793736
11
287.937407
21
113.959606
0
LINE
8
annotation
62
1
39
211
10
287.937407
20
113.959606
11
287.832162
21
114.108120
0
LINE
8
annotation
62
1
39
211
10
287.832162
20
114.108120
11
287.703629
21
114.236304
0
LINE
8
annotation
62
1
39
211
10
287.703629
20
114.236304
11
287.554838
21
114.341182
0
LINE
8
annotation
62
1
39
211
10
287.554838
20
114.341182
11
287.388818
21
114.419779
0
LINE
8
annotation
62
1
39
211
10
287.388818
20
114.419779
11
287.208599
21
114.469120
0
LINE
8
annotation
62
1
39
211
10
287.208599
20
114.469120
11
287.017212
21
114.486227
0
LINE
8
annotation
62
1
39
211
10
287.017212
20
114.486227
11
285.951315
21
114.486227
0
LINE
8
annotation
62
1
39
211
10
285.951315
20
114.486227
11
285.951315
21
116.623742
0
LINE
8
annotation
62
1
39
211
10
285.951315
20
116.623742
11
288.083110
21
116.623742
0
LINE
8
annotation
62
1
39
211
10
52.093831
20
181.116784
11
52.093831
21
181.116784
0
LINE
8
annotation
62
1
39
211
10
52.093831
20
181.116784
11
51.788478
21
181.002296
0
LINE
8
annotation
62
1
39
211
10
51.788478
20
181.002296
11
51.508277
21
180.848035
0
LINE
8
annotation
62
1
39
211
10
51.508277
20
180.848035
11
51.256103
21
180.657869
0
LINE
8
annotation
62
1
39
211
10
51.256103
20
180.657869
11
51.034834
21
180.435661
0
LINE
8
annotation
62
1
39
211
10
51.034834
20
180.435661
11
50.847346
21
180.185276
0
LINE
8
annotation
62
1
39
211
10
50.847346
20
180.185276
11
50.696515
21
179.910580
0
LINE
8
annotation
62
1
39
211
10
50.696515
20
179.910580
11
50.585217
21
179.615437
0
LINE
8
annotation
62
1
39
211
10
50.585217
20
179.615437
11
50.516329
21
179.303712
0
LINE
8
annotation
62
1
39
211
10
50.516329
20
179.303712
11
50.492727
21
178.979270
0
LINE
8
annotation
62
1
39
211
10
50.492727
20
178.979270
11
50.492727
21
177.383886
0
LINE
8
annotation
62
1
39
211
10
50.492727
20
177.383886
11
50.492727
21
177.383886
0
LINE
8
annotation
62
1
39
211
10
50.492727
20
177.383886
11
50.509936
21
177.192140
0
LINE
8
annotation
62
1
39
211
10
50.509936
20
177.192140
11
50.559538
21
177.011643
0
LINE
8
annotation
62
1
39
211
10
50.559538
20
177.011643
11
50.638497
21
176.845413
0
LINE
8
annotation
62
1
39
211
10
50.638497
20
176.845413
11
50.743773
21
176.696471
0
LINE
8
annotation
62
1
39
211
10
50.743773
20
176.696471
11
50.872331
21
176.567838
0
LINE
8
annotation
62
1
39
211
10
50.872331
20
176.567838
11
51.021133
21
176.462532
0
LINE
8
annotation
62
1
39
211
10
51.021133
20
176.462532
11
51.187140
21
176.383575
0
LINE
8
annotation
62
1
39
211
10
51.187140
20
176.383575
11
51.367317
21
176.333985
0
LINE
8
annotation
62
1
39
211
10
51.367317
20
176.333985
11
51.558624
21
176.316784
0
LINE
8
annotation
62
1
39
211
10
51.558624
20
176.316784
11
51.558624
21
176.316784
0
LINE
8
annotation
62
1
39
211
10
51.558624
20
176.316784
11
51.750329
21
176.333985
0
LINE
8
annotation
62
1
39
211
10
51.750329
20
176.333985
11
51.930716
21
176.383575
0
LINE
8
annotation
62
1
39
211
10
51.930716
20
176.383575
11
52.096785
21
176.462532
0
LINE
8
annotation
62
1
39
211
10
52.096785
20
176.462532
11
52.245537
21
176.567838
0
LINE
8
annotation
62
1
39
211
10
52.245537
20
176.567838
11
52.373971
21
176.696471
0
LINE
8
annotation
62
1
39
211
10
52.373971
20
176.696471
11
52.479086
21
176.845413
0
LINE
8
annotation
62
1
39
211
10
52.479086
20
176.845413
11
52.557884
21
177.011643
0
LINE
8
annotation
62
1
39
211
10
52.557884
20
177.011643
11
52.607362
21
177.192140
0
LINE
8
annotation
62
1
39
211
10
52.607362
20
177.192140
11
52.624522
21
177.383886
0
LINE
8
annotation
62
1
39
211
10
52.624522
20
177.383886
11
52.624522
21
177.914878
0
LINE
8
annotation
62
1
39
211
10
52.624522
20
177.914878
11
52.624522
21
177.914878
0
LINE
8
annotation
62
1
39
211
10
52.624522
20
177.914878
11
52.607362
21
178.106531
0
LINE
8
annotation
62
1
39
211
10
52.607362
20
178.106531
11
52.557884
21
178.286779
0
LINE
8
annotation
62
1
39
211
10
52.557884
20
178.286779
11
52.479086
21
178.452649
0
LINE
8
annotation
62
1
39
211
10
52.479086
20
178.452649
11
52.373971
21
178.601163
0
LINE
8
annotation
62
1
39
211
10
52.373971
20
178.601163
11
52.245537
21
178.729347
0
LINE
8
annotation
62
1
39
211
10
52.245537
20
178.729347
11
52.096785
21
178.834225
0
LINE
8
annotation
62
1
39
211
10
52.096785
20
178.834225
11
51.930716
21
178.912822
0
LINE
8
annotation
62
1
39
211
10
51.930716
20
178.912822
11
51.750329
21
178.962162
0
LINE
8
annotation
62
1
39
211
10
51.750329
20
178.962162
11
51.558624
21
178.979270
0
LINE
8
annotation
62
1
39
211
10
51.558624
20
178.979270
11
50.492727
21
178.979270
0
LINE
8
annotation
62
1
39
211
10
50.359226
20
175.716784
11
52.759226
21
175.716784
0
LINE
8
annotation
62
1
39
211
10
287.552419
20
181.116784
11
287.552419
21
181.116784
0
LINE
8
annotation
62
1
39
211
10
287.552419
20
181.116784
11
287.247066
21
181.002296
0
LINE
8
annotation
62
1
39
211
10
287.247066
20
181.002296
11
286.966865
21
180.848035
0
LINE
8
annotation
62
1
39
211
10
286.966865
20
180.848035
11
286.714692
21
180.657869
0
LINE
8
annotation
62
1
39
211
10
286.714692
20
180.657869
11
286.493423
21
180.435661
0
LINE
8
annotation
62
1
39
211
10
286.493423
20
180.435661
11
286.305934
21
180.185276
0
LINE
8
annotation
62
1
39
211
10
286.305934
20
180.185276
11
286.155103
21
179.910580
0
LINE
8
annotation
62
1
39
211
10
286.155103
20
179.910580
11
286.043805
21
179.615437
0
LINE
8
annotation
62
1
39
211
10
286.043805
20
179.615437
11
285.974917
21
179.303712
0
LINE
8
annotation
62
1
39
211
10
285.974917
20
179.303712
11
285.951315
21
178.979270
0
LINE
8
annotation
62
1
39
211
10
285.951315
20
178.979270
11
285.951315
21
177.383886
0
LINE
8
annotation
62
1
39
211
10
285.951315
20
177.383886
11
285.951315
21
177.383886
0
LINE
8
annotation
62
1
39
211
10
285.951315
20
177.383886
11
285.968524
21
177.192140
0
LINE
8
annotation
62
1
39
211
10
285.968524
20
177.192140
11
286.018127
21
177.011643
0
LINE
8
annotation
62
1
39
211
10
286.018127
20
177.011643
11
286.097085
21
176.845413
0
LINE
8
annotation
62
1
39
211
10
286.097085
20
176.845413
11
286.202362
21
176.696471
0
LINE
8
annotation
62
1
39
211
10
286.202362
20
176.696471
11
286.330919
21
176.567838
0
LINE
8
annotation
62
1
39
211
10
286.330919
20
176.567838
11
286.479721
21
176.462532
0
LINE
8
annotation
62
1
39
211
10
286.479721
20
176.462532
11
286.645728
21
176.383575
0
LINE
8
annotation
62
1
39
211
10
286.645728
20
176.383575
11
286.825905
21
176.333985
0
LINE
8
annotation
62
1
39
211
10
286.825905
20
176.333985
11
287.017213
21
176.316784
0
LINE
8
annotation
62
1
39
211
10
287.017213
20
176.316784
11
287.017213
21
176.316784
0
LINE
8
annotation
62
1
39
211
10
287.017213
20
176.316784
11
287.208917
21
176.333985
0
LINE
8
annotation
62
1
39
211
10
287.208917
20
176.333985
11
287.389304
21
176.383575
0
LINE
8
annotation
62
1
39
211
10
287.389304
20
176.383575
11
287.555373
21
176.462532
0
LINE
8
annotation
62
1
39
211
10
287.555373
20
176.462532
11
287.704125
21
176.567838
0
LINE
8
annotation
62
1
39
211
10
287.704125
20
176.567838
11
287.832559
21
176.696471
0
LINE
8
annotation
62
1
39
211
10
287.832559
20
176.696471
11
287.937675
21
176.845413
0
LINE
8
annotation
62
1
39
211
10
287.937675
20
176.845413
11
288.016472
21
177.011643
0
LINE
8
annotation
62
1
39
211
10
288.016472
20
177.011643
11
288.065950
21
177.192140
0
LINE
8
annotation
62
1
39
211
10
288.065950
20
177.192140
11
288.083110
21
177.383886
0
LINE
8
annotation
62
1
39
211
10
288.083110
20
177.383886
11
288.083110
21
177.914878
0
LINE
8
annotation
62
1
39
211
10
288.083110
20
177.914878
11
288.083110
21
177.914878
0
LINE
8
annotation
62
1
39
211
10
288.083110
20
177.914878
11
288.065950
21
178.106531
0
LINE
8
annotation
62
1
39
211
10
288.065950
20
178.106531
11
288.016472
21
178.286779
0
LINE
8
annotation
62
1
39
211
10
288.016472
20
178.286779
11
287.937675
21
178.452649
0
LINE
8
annotation
62
1
39
211
10
287.937675
20
178.452649
11
287.832559
21
178.601163
0
LINE
8
annotation
62
1
39
211
10
287.832559
20
178.601163
11
287.704125
21
178.729347
0
LINE
8
annotation
62
1
39
211
10
287.704125
20
178.729347
11
287.555373
21
178.834225
0
LINE
8
annotation
62
1
39
211
10
287.555373
20
178.834225
11
287.389304
21
178.912822
0
LINE
8
annotation
62
1
39
211
10
287.389304
20
178.912822
11
287.208917
21
178.962162
0
LINE
8
annotation
62
1
39
211
10
287.208917
20
178.962162
11
287.017213
21
178.979270
0
LINE
8
annotation
62
1
39
211
10
287.017213
20
178.979270
11
285.951315
21
178.979270
0
LINE
8
annotation
62
1
39
211
10
285.817815
20
175.716784
11
288.217815
21
175.716784
0
LINE
8
annotation
62
1
39
211
10
57.620977
20
192.333349
11
58.688078
21
197.133349
0
LINE
8
annotation
62
1
39
211
10
58.688078
20
197.133349
11
56.553574
21
197.133349
0
LINE
8
annotation
62
1
39
211
10
58.688078
20
194.995835
11
57.620977
21
194.995835
0
LINE
8
annotation
62
1
39
211
10
287.017212
20
192.333349
11
288.084314
21
197.133349
0
LINE
8
annotation
62
1
39
211
10
288.084314
20
197.133349
11
285.949810
21
197.133349
0
LINE
8
annotation
62
1
39
211
10
288.084314
20
194.995835
11
287.017212
21
194.995835
0
LINE
8
annotation
62
1
39
211
10
356.860906
20
217.654749
11
356.860906
21
217.654749
0
LINE
8
annotation
62
1
39
211
10
356.860906
20
217.654749
11
356.873830
21
217.510817
0
LINE
8
annotation
62
1
39
211
10
356.873830
20
217.510817
11
356.911082
21
217.375450
0
LINE
8
annotation
62
1
39
211
10
356.911082
20
217.375450
11
356.970380
21
217.250882
0
LINE
8
annotation
62
1
39
211
10
356.970380
20
217.250882
11
357.049443
21
217.139347
0
LINE
8
annotation
62
1
39
211
10
357.049443
20
217.139347
11
357.145990
21
217.043080
0
LINE
8
annotation
62
1
39
211
10
357.145990
20
217.043080
11
357.257741
21
216.964316
0
LINE
8
annotation
62
1
39
211
10
357.257741
20
216.964316
11
357.382413
21
216.905290
0
LINE
8
annotation
62
1
39
211
10
357.382413
20
216.905290
11
357.517726
21
216.868235
0
LINE
8
annotation
62
1
39
211
10
357.517726
20
216.868235
11
357.661399
21
216.855387
0
LINE
8
annotation
62
1
39
211
10
357.661399
20
216.855387
11
357.661399
21
216.855387
0
LINE
8
annotation
62
1
39
211
10
357.661399
20
216.855387
11
357.805072
21
216.868235
0
LINE
8
annotation
62
1
39
211
10
357.805072
20
216.868235
11
357.940385
21
216.905290
0
LINE
8
annotation
62
1
39
211
10
357.940385
20
216.905290
11
358.065057
21
216.964316
0
LINE
8
annotation
62
1
39
211
10
358.065057
20
216.964316
11
358.176807
21
217.043080
0
LINE
8
annotation
62
1
39
211
10
358.176807
20
217.043080
11
358.273355
21
217.139347
0
LINE
8
annotation
62
1
39
211
10
358.273355
20
217.139347
11
358.352418
21
217.250882
0
LINE
8
annotation
62
1
39
211
10
358.352418
20
217.250882
11
358.411716
21
217.375450
0
LINE
8
annotation
62
1
39
211
10
358.411716
20
217.375450
11
358.448967
21
217.510817
0
LINE
8
annotation
62
1
39
211
10
358.448967
20
217.510817
11
358.461891
21
217.654749
0
LINE
8
annotation
62
1
39
211
10
358.461891
20
217.654749
11
358.461891
21
218.053526
0
LINE
8
annotation
62
1
39
211
10
358.461891
20
218.053526
11
358.461891
21
218.053526
0
LINE
8
annotation
62
1
39
211
10
358.461891
20
218.053526
11
358.448975
21
218.197527
0
LINE
8
annotation
62
1
39
211
10
358.448975
20
218.197527
11
358.411742
21
218.333082
0
LINE
8
annotation
62
1
39
211
10
358.411742
20
218.333082
11
358.352468
21
218.457921
0
LINE
8
annotation
62
1
39
211
10
358.352468
20
218.457921
11
358.273429
21
218.569777
0
LINE
8
annotation
62
1
39
211
10
358.273429
20
218.569777
11
358.176900
21
218.666381
0
LINE
8
annotation
62
1
39
211
10
358.176900
20
218.666381
11
358.065157
21
218.745466
0
LINE
8
annotation
62
1
39
211
10
358.065157
20
218.745466
11
357.940476
21
218.804763
0
LINE
8
annotation
62
1
39
211
10
357.940476
20
218.804763
11
357.805131
21
218.842005
0
LINE
8
annotation
62
1
39
211
10
357.805131
20
218.842005
11
357.661399
21
218.854923
0
LINE
8
annotation
62
1
39
211
10
357.661399
20
218.854923
11
357.661399
21
218.854923
0
LINE
8
annotation
62
1
39
211
10
357.661399
20
218.854923
11
357.517666
21
218.841997
0
LINE
8
annotation
62
1
39
211
10
357.517666
20
218.841997
11
357.382322
21
218.804737
0
LINE
8
annotation
62
1
39
211
10
357.382322
20
218.804737
11
357.257640
21
218.745416
0
LINE
8
annotation
62
1
39
211
10
357.257640
20
218.745416
11
357.145897
21
218.666306
0
LINE
8
annotation
62
1
39
211
10
357.145897
20
218.666306
11
357.049369
21
218.569684
0
LINE
8
annotation
62
1
39
211
10
357.049369
20
218.569684
11
356.970330
21
218.457820
0
LINE
8
annotation
62
1
39
211
10
356.970330
20
218.457820
11
356.911056
21
218.332991
0
LINE
8
annotation
62
1
39
211
10
356.911056
20
218.332991
11
356.873823
21
218.197468
0
LINE
8
annotation
62
1
39
211
10
356.873823
20
218.197468
11
356.860906
21
218.053526
0
LINE
8
annotation
62
1
39
211
10
356.860906
20
218.053526
11
356.860906
21
217.654749
0
LINE
8
annotation
62
1
39
211
10
358.461891
20
219.656545
11
358.461891
21
219.656545
0
LINE
8
annotation
62
1
39
211
10
358.461891
20
219.656545
11
358.448975
21
219.799882
0
LINE
8
annotation
62
1
39
211
10
358.448975
20
219.799882
11
358.411742
21
219.934933
0
LINE
8
annotation
62
1
39
211
10
358.411742
20
219.934933
11
358.352468
21
220.059408
0
LINE
8
annotation
62
1
39
211
10
358.352468
20
220.059408
11
358.273429
21
220.171017
0
LINE
8
annotation
62
1
39
211
10
358.273429
20
220.171017
11
358.176900
21
220.267470
0
LINE
8
annotation
62
1
39
211
10
358.176900
20
220.267470
11
358.065157
21
220.346476
0
LINE
8
annotation
62
1
39
211
10
358.065157
20
220.346476
11
357.940476
21
220.405744
0
LINE
8
annotation
62
1
39
211
10
357.940476
20
220.405744
11
357.805131
21
220.442985
0
LINE
8
annotation
62
1
39
211
10
357.805131
20
220.442985
11
357.661399
21
220.455907
0
LINE
8
annotation
62
1
39
211
10
357.661399
20
220.455907
11
357.661399
21
220.455907
0
LINE
8
annotation
62
1
39
211
10
357.661399
20
220.455907
11
357.517666
21
220.442985
0
LINE
8
annotation
62
1
39
211
10
357.517666
20
220.442985
11
357.382322
21
220.405744
0
LINE
8
annotation
62
1
39
211
10
357.382322
20
220.405744
11
357.257640
21
220.346476
0
LINE
8
annotation
62
1
39
211
10
357.257640
20
220.346476
11
357.145897
21
220.267470
0
LINE
8
annotation
62
1
39
211
10
357.145897
20
220.267470
11
357.049369
21
220.171017
0
LINE
8
annotation
62
1
39
211
10
357.049369
20
220.171017
11
356.970330
21
220.059408
0
LINE
8
annotation
62
1
39
211
10
356.970330
20
220.059408
11
356.911056
21
219.934933
0
LINE
8
annotation
62
1
39
211
10
356.911056
20
219.934933
11
356.873823
21
219.799882
0
LINE
8
annotation
62
1
39
211
10
356.873823
20
219.799882
11
356.860906
21
219.656545
0
LINE
8
annotation
62
1
39
211
10
356.860906
20
219.656545
11
356.860906
21
219.656545
0
LINE
8
annotation
62
1
39
211
10
356.860906
20
219.656545
11
356.873830
21
219.512536
0
LINE
8
annotation
62
1
39
211
10
356.873830
20
219.512536
11
356.911082
21
219.376961
0
LINE
8
annotation
62
1
39
211
10
356.911082
20
219.376961
11
356.970380
21
219.252092
0
LINE
8
annotation
62
1
39
211
10
356.970380
20
219.252092
11
357.049443
21
219.140200
0
LINE
8
annotation
62
1
39
211
10
357.049443
20
219.140200
11
357.145990
21
219.043559
0
LINE
8
annotation
62
1
39
211
10
357.145990
20
219.043559
11
357.257741
21
218.964438
0
LINE
8
annotation
62
1
39
211
10
357.257741
20
218.964438
11
357.382413
21
218.905111
0
LINE
8
annotation
62
1
39
211
10
357.382413
20
218.905111
11
357.517726
21
218.867848
0
LINE
8
annotation
62
1
39
211
10
357.517726
20
218.867848
11
357.661399
21
218.854923
0
LINE
8
annotation
62
1
39
211
10
357.661399
20
218.854923
11
357.661399
21
218.854923
0
LINE
8
annotation
62
1
39
211
10
357.661399
20
218.854923
11
357.805072
21
218.867848
0
LINE
8
annotation
62
1
39
211
10
357.805072
20
218.867848
11
357.940385
21
218.905111
0
LINE
8
annotation
62
1
39
211
10
357.940385
20
218.905111
11
358.065057
21
218.964438
0
LINE
8
annotation
62
1
39
211
10
358.065057
20
218.964438
11
358.176807
21
219.043559
0
LINE
8
annotation
62
1
39
211
10
358.176807
20
219.043559
11
358.273355
21
219.140200
0
LINE
8
annotation
62
1
39
211
10
358.273355
20
219.140200
11
358.352418
21
219.252092
0
LINE
8
annotation
62
1
39
211
10
358.352418
20
219.252092
11
358.411716
21
219.376961
0
LINE
8
annotation
62
1
39
211
10
358.411716
20
219.376961
11
358.448967
21
219.512536
0
LINE
8
annotation
62
1
39
211
10
358.448967
20
219.512536
11
358.461891
21
219.656545
0
LINE
8
annotation
62
1
39
211
10
175.096492
20
217.322150
11
175.096492
21
217.322150
0
LINE
8
annotation
62
1
39
211
10
175.096492
20
217.322150
11
175.113701
21
217.130497
0
LINE
8
annotation
62
1
39
211
10
175.113701
20
217.130497
11
175.163304
21
216.950248
0
LINE
8
annotation
62
1
39
211
10
175.163304
20
216.950248
11
175.242262
21
216.784379
0
LINE
8
annotation
62
1
39
211
10
175.242262
20
216.784379
11
175.347539
21
216.635865
0
LINE
8
annotation
62
1
39
211
10
175.347539
20
216.635865
11
175.476096
21
216.507681
0
LINE
8
annotation
62
1
39
211
10
175.476096
20
216.507681
11
175.624898
21
216.402802
0
LINE
8
annotation
62
1
39
211
10
175.624898
20
216.402802
11
175.790905
21
216.324205
0
LINE
8
annotation
62
1
39
211
10
175.790905
20
216.324205
11
175.971082
21
216.274865
0
LINE
8
annotation
62
1
39
211
10
175.971082
20
216.274865
11
176.162390
21
216.257757
0
LINE
8
annotation
62
1
39
211
10
176.162390
20
216.257757
11
176.162390
21
216.257757
0
LINE
8
annotation
62
1
39
211
10
176.162390
20
216.257757
11
176.353697
21
216.274865
0
LINE
8
annotation
62
1
39
211
10
176.353697
20
216.274865
11
176.533874
21
216.324205
0
LINE
8
annotation
62
1
39
211
10
176.533874
20
216.324205
11
176.699881
21
216.402802
0
LINE
8
annotation
62
1
39
211
10
176.699881
20
216.402802
11
176.848683
21
216.507681
0
LINE
8
annotation
62
1
39
211
10
176.848683
20
216.507681
11
176.977241
21
216.635865
0
LINE
8
annotation
62
1
39
211
10
176.977241
20
216.635865
11
177.082517
21
216.784379
0
LINE
8
annotation
62
1
39
211
10
177.082517
20
216.784379
11
177.161476
21
216.950248
0
LINE
8
annotation
62
1
39
211
10
177.161476
20
216.950248
11
177.211078
21
217.130497
0
LINE
8
annotation
62
1
39
211
10
177.211078
20
217.130497
11
177.228287
21
217.322150
0
LINE
8
annotation
62
1
39
211
10
177.228287
20
217.322150
11
177.228287
21
217.853142
0
LINE
8
annotation
62
1
39
211
10
177.228287
20
217.853142
11
177.228287
21
217.853142
0
LINE
8
annotation
62
1
39
211
10
177.228287
20
217.853142
11
177.211088
21
218.044887
0
LINE
8
annotation
62
1
39
211
10
177.211088
20
218.044887
11
177.161510
21
218.225385
0
LINE
8
annotation
62
1
39
211
10
177.161510
20
218.225385
11
177.082584
21
218.391615
0
LINE
8
annotation
62
1
39
211
10
177.082584
20
218.391615
11
176.977340
21
218.540556
0
LINE
8
annotation
62
1
39
211
10
176.977340
20
218.540556
11
176.848807
21
218.669190
0
LINE
8
annotation
62
1
39
211
10
176.848807
20
218.669190
11
176.700015
21
218.774496
0
LINE
8
annotation
62
1
39
211
10
176.700015
20
218.774496
11
176.533995
21
218.853453
0
LINE
8
annotation
62
1
39
211
10
176.533995
20
218.853453
11
176.353777
21
218.903042
0
LINE
8
annotation
62
1
39
211
10
176.353777
20
218.903042
11
176.162390
21
218.920243
0
LINE
8
annotation
62
1
39
211
10
176.162390
20
218.920243
11
176.162390
21
218.920243
0
LINE
8
annotation
62
1
39
211
10
176.162390
20
218.920243
11
175.971003
21
218.903032
0
LINE
8
annotation
62
1
39
211
10
175.971003
20
218.903032
11
175.790784
21
218.853419
0
LINE
8
annotation
62
1
39
211
10
175.790784
20
218.853419
11
175.624764
21
218.774429
0
LINE
8
annotation
62
1
39
211
10
175.624764
20
218.774429
11
175.475973
21
218.669091
0
LINE
8
annotation
62
1
39
211
10
175.475973
20
218.669091
11
175.347440
21
218.540433
0
LINE
8
annotation
62
1
39
211
10
175.347440
20
218.540433
11
175.242195
21
218.391481
0
LINE
8
annotation
62
1
39
211
10
175.242195
20
218.391481
11
175.163269
21
218.225264
0
LINE
8
annotation
62
1
39
211
10
175.163269
20
218.225264
11
175.113691
21
218.044808
0
LINE
8
annotation
62
1
39
211
10
175.113691
20
218.044808
11
175.096492
21
217.853142
0
LINE
8
annotation
62
1
39
211
10
175.096492
20
217.853142
11
175.096492
21
217.322150
0
LINE
8
annotation
62
1
39
211
10
177.228287
20
219.987646
11
177.228287
21
219.987646
0
LINE
8
annotation
62
1
39
211
10
177.228287
20
219.987646
11
177.211088
21
220.178505
0
LINE
8
annotation
62
1
39
211
10
177.211088
20
220.178505
11
177.161510
21
220.358333
0
LINE
8
annotation
62
1
39
211
10
177.161510
20
220.358333
11
177.082584
21
220.524078
0
LINE
8
annotation
62
1
39
211
10
177.082584
20
220.524078
11
176.977340
21
220.672692
0
LINE
8
annotation
62
1
39
211
10
176.977340
20
220.672692
11
176.848807
21
220.801124
0
LINE
8
annotation
62
1
39
211
10
176.848807
20
220.801124
11
176.700015
21
220.906324
0
LINE
8
annotation
62
1
39
211
10
176.700015
20
220.906324
11
176.533995
21
220.985243
0
LINE
8
annotation
62
1
39
211
10
176.533995
20
220.985243
11
176.353777
21
221.034831
0
LINE
8
annotation
62
1
39
211
10
176.353777
20
221.034831
11
176.162390
21
221.052038
0
LINE
8
annotation
62
1
39
211
10
176.162390
20
221.052038
11
176.162390
21
221.052038
0
LINE
8
annotation
62
1
39
211
10
176.162390
20
221.052038
11
175.971003
21
221.034831
0
LINE
8
annotation
62
1
39
211
10
175.971003
20
221.034831
11
175.790784
21
220.985243
0
LINE
8
annotation
62
1
39
211
10
175.790784
20
220.985243
11
175.624764
21
220.906324
0
LINE
8
annotation
62
1
39
211
10
175.624764
20
220.906324
11
175.475973
21
220.801124
0
LINE
8
annotation
62
1
39
211
10
175.475973
20
220.801124
11
175.347440
21
220.672692
0
LINE
8
annotation
62
1
39
211
10
175.347440
20
220.672692
11
175.242195
21
220.524078
0
LINE
8
annotation
62
1
39
211
10
175.242195
20
220.524078
11
175.163269
21
220.358333
0
LINE
8
annotation
62
1
39
211
10
175.163269
20
220.358333
11
175.113691
21
220.178505
0
LINE
8
annotation
62
1
39
211
10
175.113691
20
220.178505
11
175.096492
21
219.987646
0
LINE
8
annotation
62
1
39
211
10
175.096492
20
219.987646
11
175.096492
21
219.987646
0
LINE
8
annotation
62
1
39
211
10
175.096492
20
219.987646
11
175.113701
21
219.795890
0
LINE
8
annotation
62
1
39
211
10
175.113701
20
219.795890
11
175.163304
21
219.615365
0
LINE
8
annotation
62
1
39
211
10
175.163304
20
219.615365
11
175.242262
21
219.449095
0
LINE
8
annotation
62
1
39
211
10
175.242262
20
219.449095
11
175.347539
21
219.300106
0
LINE
8
annotation
62
1
39
211
10
175.347539
20
219.300106
11
175.476096
21
219.171422
0
LINE
8
annotation
62
1
39
211
10
175.476096
20
219.171422
11
175.624898
21
219.066069
0
LINE
8
annotation
62
1
39
211
10
175.624898
20
219.066069
11
175.790905
21
218.987071
0
LINE
8
annotation
62
1
39
211
10
175.790905
20
218.987071
11
175.971082
21
218.937454
0
LINE
8
annotation
62
1
39
211
10
175.971082
20
218.937454
11
176.162390
21
218.920243
0
LINE
8
annotation
62
1
39
211
10
176.162390
20
218.920243
11
176.162390
21
218.920243
0
LINE
8
annotation
62
1
39
211
10
176.162390
20
218.920243
11
176.353697
21
218.937454
0
LINE
8
annotation
62
1
39
211
10
176.353697
20
218.937454
11
176.533874
21
218.987071
0
LINE
8
annotation
62
1
39
211
10
176.533874
20
218.987071
11
176.699881
21
219.066069
0
LINE
8
annotation
62
1
39
211
10
176.699881
20
219.066069
11
176.848683
21
219.171422
0
LINE
8
annotation
62
1
39
211
10
176.848683
20
219.171422
11
176.977241
21
219.300106
0
LINE
8
annotation
62
1
39
211
10
176.977241
20
219.300106
11
177.082517
21
219.449095
0
LINE
8
annotation
62
1
39
211
10
177.082517
20
219.449095
11
177.161476
21
219.615365
0
LINE
8
annotation
62
1
39
211
10
177.161476
20
219.615365
11
177.211078
21
219.795890
0
LINE
8
annotation
62
1
39
211
10
177.211078
20
219.795890
11
177.228287
21
219.987646
0
LINE
8
annotation
62
1
39
211
10
157.073081
20
250.383112
11
157.073081
21
250.383112
0
LINE
8
annotation
62
1
39
211
10
157.073081
20
250.383112
11
157.377896
21
250.496702
0
LINE
8
annotation
62
1
39
211
10
157.377896
20
250.496702
11
157.657679
21
250.650238
0
LINE
8
annotation
62
1
39
211
10
157.657679
20
250.650238
11
157.909537
21
250.839809
0
LINE
8
annotation
62
1
39
211
10
157.909537
20
250.839809
11
158.130581
21
251.061504
0
LINE
8
annotation
62
1
39
211
10
158.130581
20
251.061504
11
158.317918
21
251.311410
0
LINE
8
annotation
62
1
39
211
10
158.317918
20
251.311410
11
158.468658
21
251.585615
0
LINE
8
annotation
62
1
39
211
10
158.468658
20
251.585615
11
158.579908
21
251.880208
0
LINE
8
annotation
62
1
39
211
10
158.579908
20
251.880208
11
158.648779
21
252.191276
0
LINE
8
annotation
62
1
39
211
10
158.648779
20
252.191276
11
158.672379
21
252.514907
0
LINE
8
annotation
62
1
39
211
10
158.672379
20
252.514907
11
158.672379
21
254.115710
0
LINE
8
annotation
62
1
39
211
10
158.672379
20
254.115710
11
158.672379
21
254.115710
0
LINE
8
annotation
62
1
39
211
10
158.672379
20
254.115710
11
158.655219
21
254.307466
0
LINE
8
annotation
62
1
39
211
10
158.655219
20
254.307466
11
158.605740
21
254.487991
0
LINE
8
annotation
62
1
39
211
10
158.605740
20
254.487991
11
158.526943
21
254.654261
0
LINE
8
annotation
62
1
39
211
10
158.526943
20
254.654261
11
158.421828
21
254.803250
0
LINE
8
annotation
62
1
39
211
10
158.421828
20
254.803250
11
158.293394
21
254.931934
0
LINE
8
annotation
62
1
39
211
10
158.293394
20
254.931934
11
158.144642
21
255.037287
0
LINE
8
annotation
62
1
39
211
10
158.144642
20
255.037287
11
157.978572
21
255.116284
0
LINE
8
annotation
62
1
39
211
10
157.978572
20
255.116284
11
157.798185
21
255.165901
0
LINE
8
annotation
62
1
39
211
10
157.798185
20
255.165901
11
157.606481
21
255.183112
0
LINE
8
annotation
62
1
39
211
10
157.606481
20
255.183112
11
157.606481
21
255.183112
0
LINE
8
annotation
62
1
39
211
10
157.606481
20
255.183112
11
157.415173
21
255.165901
0
LINE
8
annotation
62
1
39
211
10
157.415173
20
255.165901
11
157.234997
21
255.116284
0
LINE
8
annotation
62
1
39
211
10
157.234997
20
255.116284
11
157.068989
21
255.037287
0
LINE
8
annotation
62
1
39
211
10
157.068989
20
255.037287
11
156.920188
21
254.931934
0
LINE
8
annotation
62
1
39
211
10
156.920188
20
254.931934
11
156.791630
21
254.803250
0
LINE
8
annotation
62
1
39
211
10
156.791630
20
254.803250
11
156.686353
21
254.654261
0
LINE
8
annotation
62
1
39
211
10
156.686353
20
254.654261
11
156.607395
21
254.487991
0
LINE
8
annotation
62
1
39
211
10
156.607395
20
254.487991
11
156.557793
21
254.307466
0
LINE
8
annotation
62
1
39
211
10
156.557793
20
254.307466
11
156.540584
21
254.115710
0
LINE
8
annotation
62
1
39
211
10
156.540584
20
254.115710
11
156.540584
21
253.582009
0
LINE
8
annotation
62
1
39
211
10
156.540584
20
253.582009
11
156.540584
21
253.582009
0
LINE
8
annotation
62
1
39
211
10
156.540584
20
253.582009
11
156.557793
21
253.390263
0
LINE
8
annotation
62
1
39
211
10
156.557793
20
253.390263
11
156.607395
21
253.209766
0
LINE
8
annotation
62
1
39
211
10
156.607395
20
253.209766
11
156.686353
21
253.043536
0
LINE
8
annotation
62
1
39
211
10
156.686353
20
253.043536
11
156.791630
21
252.894594
0
LINE
8
annotation
62
1
39
211
10
156.791630
20
252.894594
11
156.920188
21
252.765960
0
LINE
8
annotation
62
1
39
211
10
156.920188
20
252.765960
11
157.068989
21
252.660655
0
LINE
8
annotation
62
1
39
211
10
157.068989
20
252.660655
11
157.234997
21
252.581697
0
LINE
8
annotation
62
1
39
211
10
157.234997
20
252.581697
11
157.415173
21
252.532108
0
LINE
8
annotation
62
1
39
211
10
157.415173
20
252.532108
11
157.606481
21
252.514907
0
LINE
8
annotation
62
1
39
211
10
157.606481
20
252.514907
11
158.672379
21
252.514907
0
LINE
8
annotation
62
1
39
211
10
156.407384
20
249.783112
11
158.807384
21
249.783112
0
LINE
8
annotation
62
1
39
211
10
157.005716
20
260.644689
11
157.005716
21
265.262409
0
LINE
8
annotation
62
1
39
211
10
157.005716
20
265.262409
11
155.979138
21
264.235541
0
LINE
8
annotation
62
1
39
211
10
159.478945
20
260.705599
11
159.478945
21
260.705599
0
LINE
8
annotation
62
1
39
211
10
159.478945
20
260.705599
11
159.586266
21
260.665479
0
LINE
8
annotation
62
1
39
211
10
159.586266
20
260.665479
11
159.696333
21
260.645547
0
LINE
8
annotation
62
1
39
211
10
159.696333
20
260.645547
11
159.806658
21
260.644989
0
LINE
8
annotation
62
1
39
211
10
159.806658
20
260.644989
11
159.914752
21
260.662994
0
LINE
8
annotation
62
1
39
211
10
159.914752
20
260.662994
11
160.018127
21
260.698748
0
LINE
8
annotation
62
1
39
211
10
160.018127
20
260.698748
11
160.114294
21
260.751439
0
LINE
8
annotation
62
1
39
211
10
160.114294
20
260.751439
11
160.200765
21
260.820253
0
LINE
8
annotation
62
1
39
211
10
160.200765
20
260.820253
11
160.275053
21
260.904378
0
LINE
8
annotation
62
1
39
211
10
160.275053
20
260.904378
11
160.334668
21
261.003002
0
LINE
8
annotation
62
1
39
211
10
160.334668
20
261.003002
11
160.334668
21
261.003002
0
LINE
8
annotation
62
1
39
211
10
160.334668
20
261.003002
11
160.512537
21
261.419349
0
LINE
8
annotation
62
1
39
211
10
160.512537
20
261.419349
11
160.645939
21
261.847747
0
LINE
8
annotation
62
1
39
211
10
160.645939
20
261.847747
11
160.734874
21
262.284780
0
LINE
8
annotation
62
1
39
211
10
160.734874
20
262.284780
11
160.779341
21
262.727032
0
LINE
8
annotation
62
1
39
211
10
160.779341
20
262.727032
11
160.779341
21
263.171089
0
LINE
8
annotation
62
1
39
211
10
160.779341
20
263.171089
11
160.734874
21
263.613534
0
LINE
8
annotation
62
1
39
211
10
160.734874
20
263.613534
11
160.645939
21
264.050953
0
LINE
8
annotation
62
1
39
211
10
160.645939
20
264.050953
11
160.512537
21
264.479930
0
LINE
8
annotation
62
1
39
211
10
160.512537
20
264.479930
11
160.334668
21
264.897049
0
LINE
8
annotation
62
1
39
211
10
160.334668
20
264.897049
11
160.334668
21
264.897049
0
LINE
8
annotation
62
1
39
211
10
160.334668
20
264.897049
11
160.312048
21
264.939146
0
LINE
8
annotation
62
1
39
211
10
160.312048
20
264.939146
11
160.286404
21
264.979392
0
LINE
8
annotation
62
1
39
211
10
160.286404
20
264.979392
11
160.257928
21
265.017592
0
LINE
8
annotation
62
1
39
211
10
160.257928
20
265.017592
11
160.226814
21
265.053546
0
LINE
8
annotation
62
1
39
211
10
160.226814
20
265.053546
11
160.193254
21
265.087057
0
LINE
8
annotation
62
1
39
211
10
160.193254
20
265.087057
11
160.157442
21
265.117928
0
LINE
8
annotation
62
1
39
211
10
160.157442
20
265.117928
11
160.119571
21
265.145959
0
LINE
8
annotation
62
1
39
211
10
160.119571
20
265.145959
11
160.079833
21
265.170955
0
LINE
8
annotation
62
1
39
211
10
160.079833
20
265.170955
11
160.038423
21
265.192716
0
LINE
8
annotation
62
1
39
211
10
160.038423
20
265.192716
11
160.038423
21
265.192716
0
LINE
8
annotation
62
1
39
211
10
160.038423
20
265.192716
11
159.930249
21
265.233705
0
LINE
8
annotation
62
1
39
211
10
159.930249
20
265.233705
11
159.819537
21
265.254318
0
LINE
8
annotation
62
1
39
211
10
159.819537
20
265.254318
11
159.708746
21
265.255373
0
LINE
8
annotation
62
1
39
211
10
159.708746
20
265.255373
11
159.600337
21
265.237687
0
LINE
8
annotation
62
1
39
211
10
159.600337
20
265.237687
11
159.496768
21
265.202078
0
LINE
8
annotation
62
1
39
211
10
159.496768
20
265.202078
11
159.400499
21
265.149364
0
LINE
8
annotation
62
1
39
211
10
159.400499
20
265.149364
11
159.313991
21
265.080361
0
LINE
8
annotation
62
1
39
211
10
159.313991
20
265.080361
11
159.239702
21
264.995887
0
LINE
8
annotation
62
1
39
211
10
159.239702
20
264.995887
11
159.180093
21
264.896760
0
LINE
8
annotation
62
1
39
211
10
159.180093
20
264.896760
11
159.180093
21
264.896760
0
LINE
8
annotation
62
1
39
211
10
159.180093
20
264.896760
11
159.003082
21
264.480498
0
LINE
8
annotation
62
1
39
211
10
159.003082
20
264.480498
11
158.870323
21
264.052165
0
LINE
8
annotation
62
1
39
211
10
158.870323
20
264.052165
11
158.781817
21
263.615175
0
LINE
8
annotation
62
1
39
211
10
158.781817
20
263.615175
11
158.737565
21
263.172944
0
LINE
8
annotation
62
1
39
211
10
158.737565
20
263.172944
11
158.737565
21
262.728888
0
LINE
8
annotation
62
1
39
211
10
158.737565
20
262.728888
11
158.781817
21
262.286421
0
LINE
8
annotation
62
1
39
211
10
158.781817
20
262.286421
11
158.870323
21
261.848959
0
LINE
8
annotation
62
1
39
211
10
158.870323
20
261.848959
11
159.003082
21
261.419918
0
LINE
8
annotation
62
1
39
211
10
159.003082
20
261.419918
11
159.180093
21
261.002713
0
LINE
8
annotation
62
1
39
211
10
159.180093
20
261.002713
11
159.180093
21
261.002713
0
LINE
8
annotation
62
1
39
211
10
159.180093
20
261.002713
11
159.202631
21
260.960700
0
LINE
8
annotation
62
1
39
211
10
159.202631
20
260.960700
11
159.228086
21
260.920654
0
LINE
8
annotation
62
1
39
211
10
159.228086
20
260.920654
11
159.256350
21
260.882696
0
LINE
8
annotation
62
1
39
211
10
159.256350
20
260.882696
11
159.287318
21
260.846947
0
LINE
8
annotation
62
1
39
211
10
159.287318
20
260.846947
11
159.320881
21
260.813529
0
LINE
8
annotation
62
1
39
211
10
159.320881
20
260.813529
11
159.356933
21
260.782564
0
LINE
8
annotation
62
1
39
211
10
159.356933
20
260.782564
11
159.395365
21
260.754172
0
LINE
8
annotation
62
1
39
211
10
159.395365
20
260.754172
11
159.436072
21
260.728477
0
LINE
8
annotation
62
1
39
211
10
159.436072
20
260.728477
11
159.478945
21
260.705599
0
LINE
8
annotation
62
1
39
211
10
38.301588
20
132.798079
11
23.306505
21
132.798079
0
LINE
8
annotation
62
1
39
211
10
23.306505
20
132.798079
11
38.301588
21
159.804131
0
LINE
8
annotation
62
1
39
211
10
38.301588
20
159.804131
11
23.306505
21
159.804131
0
LINE
8
annotation
62
1
39
211
10
63.197845
20
146.301105
11
48.431398
21
146.301105
0
LINE
8
annotation
62
1
39
211
10
82.330801
20
159.804131
11
82.330801
21
159.804131
0
LINE
8
annotation
62
1
39
211
10
82.330801
20
159.804131
11
80.612807
21
159.159987
0
LINE
8
annotation
62
1
39
211
10
80.612807
20
159.159987
11
79.036322
21
158.292079
0
LINE
8
annotation
62
1
39
211
10
79.036322
20
158.292079
11
77.617529
21
157.222153
0
LINE
8
annotation
62
1
39
211
10
77.617529
20
157.222153
11
76.372612
21
155.971953
0
LINE
8
annotation
62
1
39
211
10
76.372612
20
155.971953
11
75.317753
21
154.563224
0
LINE
8
annotation
62
1
39
211
10
75.317753
20
154.563224
11
74.469137
21
153.017711
0
LINE
8
annotation
62
1
39
211
10
74.469137
20
153.017711
11
73.842947
21
151.357160
0
LINE
8
annotation
62
1
39
211
10
73.842947
20
151.357160
11
73.455364
21
149.603314
0
LINE
8
annotation
62
1
39
211
10
73.455364
20
149.603314
11
73.322574
21
147.777919
0
LINE
8
annotation
62
1
39
211
10
73.322574
20
147.777919
11
73.322574
21
138.801870
0
LINE
8
annotation
62
1
39
211
10
73.322574
20
138.801870
11
73.322574
21
138.801870
0
LINE
8
annotation
62
1
39
211
10
73.322574
20
138.801870
11
73.419397
21
137.723060
0
LINE
8
annotation
62
1
39
211
10
73.419397
20
137.723060
11
73.698473
21
136.707533
0
LINE
8
annotation
62
1
39
211
10
73.698473
20
136.707533
11
74.142713
21
135.772281
0
LINE
8
annotation
62
1
39
211
10
74.142713
20
135.772281
11
74.735027
21
134.934296
0
LINE
8
annotation
62
1
39
211
10
74.735027
20
134.934296
11
75.458326
21
134.210569
0
LINE
8
annotation
62
1
39
211
10
75.458326
20
134.210569
11
76.295522
21
133.618092
0
LINE
8
annotation
62
1
39
211
10
76.295522
20
133.618092
11
77.229524
21
133.173857
0
LINE
8
annotation
62
1
39
211
10
77.229524
20
133.173857
11
78.243243
21
132.894856
0
LINE
8
annotation
62
1
39
211
10
78.243243
20
132.894856
11
79.319591
21
132.798079
0
LINE
8
annotation
62
1
39
211
10
79.319591
20
132.798079
11
79.319591
21
132.798079
0
LINE
8
annotation
62
1
39
211
10
79.319591
20
132.798079
11
80.398169
21
132.894856
0
LINE
8
annotation
62
1
39
211
10
80.398169
20
132.894856
11
81.413073
21
133.173857
0
LINE
8
annotation
62
1
39
211
10
81.413073
20
133.173857
11
82.347424
21
133.618092
0
LINE
8
annotation
62
1
39
211
10
82.347424
20
133.618092
11
83.184340
21
134.210569
0
LINE
8
annotation
62
1
39
211
10
83.184340
20
134.210569
11
83.906943
21
134.934296
0
LINE
8
annotation
62
1
39
211
10
83.906943
20
134.934296
11
84.498351
21
135.772281
0
LINE
8
annotation
62
1
39
211
10
84.498351
20
135.772281
11
84.941685
21
136.707533
0
LINE
8
annotation
62
1
39
211
10
84.941685
20
136.707533
11
85.220064
21
137.723060
0
LINE
8
annotation
62
1
39
211
10
85.220064
20
137.723060
11
85.316608
21
138.801870
0
LINE
8
annotation
62
1
39
211
10
85.316608
20
138.801870
11
85.316608
21
141.789370
0
LINE
8
annotation
62
1
39
211
10
85.316608
20
141.789370
11
85.316608
21
141.789370
0
LINE
8
annotation
62
1
39
211
10
85.316608
20
141.789370
11
85.220064
21
142.867658
0
LINE
8
annotation
62
1
39
211
10
85.220064
20
142.867658
11
84.941685
21
143.881784
0
LINE
8
annotation
62
1
39
211
10
84.941685
20
143.881784
11
84.498351
21
144.815008
0
LINE
8
annotation
62
1
39
211
10
84.498351
20
144.815008
11
83.906943
21
145.650589
0
LINE
8
annotation
62
1
39
211
10
83.906943
20
145.650589
11
83.184340
21
146.371786
0
LINE
8
annotation
62
1
39
211
10
83.184340
20
146.371786
11
82.347424
21
146.961858
0
LINE
8
annotation
62
1
39
211
10
82.347424
20
146.961858
11
81.413073
21
147.404065
0
LINE
8
annotation
62
1
39
211
10
81.413073
20
147.404065
11
80.398169
21
147.681666
0
LINE
8
annotation
62
1
39
211
10
80.398169
20
147.681666
11
79.319591
21
147.777919
0
LINE
8
annotation
62
1
39
211
10
79.319591
20
147.777919
11
73.322574
21
147.777919
0
LINE
8
annotation
62
1
39
211
10
72.571465
20
129.422323
11
86.074491
21
129.422323
0
LINE
8
boundary
62
5
39
2
10
363.650633
20
332.822070
11
366.576436
21
331.359168
0
LINE
8
boundary
62
5
39
2
10
366.576436
20
331.359168
11
372.940776
21
328.176999
0
LINE
8
boundary
62
5
39
2
10
372.940776
20
328.176999
11
372.940775
21
361.862773
0
LINE
8
boundary
62
5
39
2
10
372.940775
20
361.862773
11
372.940775
21
407.515830
0
LINE
8
boundary
62
5
39
2
10
372.940775
20
407.515830
11
372.940776
21
445.560061
0
LINE
8
boundary
62
5
39
2
10
372.940776
20
445.560061
11
372.940775
21
455.119144
0
LINE
8
boundary
62
5
39
2
10
372.940775
20
455.119144
11
365.375947
21
451.336726
0
LINE
8
boundary
62
5
39
2
10
365.375947
20
451.336726
11
360.246565
21
448.772033
0
LINE
8
boundary
62
5
39
2
10
360.246565
20
448.772033
11
359.076146
21
448.772033
0
LINE
8
boundary
62
5
39
2
10
359.076146
20
448.772033
11
358.166871
21
448.772033
0
LINE
8
boundary
62
5
39
2
10
358.166871
20
448.772033
11
357.016620
21
448.772033
0
LINE
8
boundary
62
5
39
2
10
357.016620
20
448.772033
11
356.167090
21
448.772033
0
LINE
8
boundary
62
5
39
2
10
356.167090
20
448.772033
11
355.076595
21
448.772033
0
LINE
8
boundary
62
5
39
2
10
355.076595
20
448.772033
11
354.324094
21
448.772033
0
LINE
8
boundary
62
5
39
2
10
354.324094
20
448.772033
11
353.330620
21
448.772032
0
LINE
8
boundary
62
5
39
2
10
353.330620
20
448.772032
11
352.708688
21
448.772032
0
LINE
8
boundary
62
5
39
2
10
352.708688
20
448.772032
11
351.845778
21
448.772032
0
LINE
8
boundary
62
5
39
2
10
351.845778
20
448.772032
11
350.679142
21
448.772033
0
LINE
8
boundary
62
5
39
2
10
350.679142
20
448.772033
11
349.875564
21
448.772033
0
LINE
8
boundary
62
5
39
2
10
349.875564
20
448.772033
11
360.042268
21
448.522673
0
LINE
8
boundary
62
5
39
2
10
360.042268
20
448.522673
11
360.042268
21
445.622672
0
LINE
8
boundary
62
5
39
2
10
360.042268
20
445.622672
11
345.264326
21
445.622673
0
LINE
8
boundary
62
5
39
2
10
345.264326
20
445.622673
11
341.683046
21
443.083869
0
LINE
8
boundary
62
5
39
2
10
341.683046
20
443.083869
11
330.853228
21
435.348282
0
LINE
8
boundary
62
5
39
2
10
330.853228
20
435.348282
11
330.022661
21
432.579729
0
LINE
8
boundary
62
5
39
2
10
330.022661
20
432.579729
11
351.175268
21
432.429729
0
LINE
8
boundary
62
5
39
2
10
351.175268
20
432.429729
11
351.175268
21
429.529729
0
LINE
8
boundary
62
5
39
2
10
351.175268
20
429.529729
11
329.157661
21
429.529729
0
LINE
8
boundary
62
5
39
2
10
329.157661
20
429.529729
11
325.880550
21
418.772699
0
LINE
8
boundary
62
5
39
2
10
325.880550
20
418.772699
11
322.629484
21
407.935830
0
LINE
8
boundary
62
5
39
2
10
322.629484
20
407.935830
11
347.532267
21
407.785830
0
LINE
8
boundary
62
5
39
2
10
347.532267
20
407.785830
11
347.532266
21
404.885830
0
LINE
8
boundary
62
5
39
2
10
347.532266
20
404.885830
11
322.318735
21
404.885830
0
LINE
8
boundary
62
5
39
2
10
322.318735
20
404.885830
11
322.223573
21
403.666128
0
LINE
8
boundary
62
5
39
2
10
322.223573
20
403.666128
11
322.223574
21
397.746135
0
LINE
8
boundary
62
5
39
2
10
322.223574
20
397.746135
11
320.444834
21
397.746135
0
LINE
8
boundary
62
5
39
2
10
320.444834
20
397.746135
11
284.544088
21
397.746136
0
LINE
8
boundary
62
5
39
2
10
284.544088
20
397.746136
11
284.544087
21
410.254298
0
LINE
8
boundary
62
5
39
2
10
284.544087
20
410.254298
11
284.544088
21
430.827913
0
LINE
8
boundary
62
5
39
2
10
284.544088
20
430.827913
11
255.136423
21
430.827912
0
LINE
8
boundary
62
5
39
2
10
255.136423
20
430.827912
11
224.544094
21
430.827913
0
LINE
8
boundary
62
5
39
2
10
224.544094
20
430.827913
11
206.884872
21
427.714115
0
LINE
8
boundary
62
5
39
2
10
206.884872
20
427.714115
11
176.256173
21
422.313451
0
LINE
8
boundary
62
5
39
2
10
176.256173
20
422.313451
11
113.275973
21
411.208342
0
LINE
8
boundary
62
5
39
2
10
113.275973
20
411.208342
11
110.572480
21
410.731642
0
LINE
8
boundary
62
5
39
2
10
110.572480
20
410.731642
11
94.845444
21
407.958541
0
LINE
8
boundary
62
5
39
2
10
94.845444
20
407.958541
11
185.043342
21
407.785830
0
LINE
8
boundary
62
5
39
2
10
185.043342
20
407.785830
11
185.043341
21
404.885830
0
LINE
8
boundary
62
5
39
2
10
185.043341
20
404.885830
11
77.419238
21
404.885830
0
LINE
8
boundary
62
5
39
2
10
77.419238
20
404.885830
11
75.349759
21
404.520925
0
LINE
8
boundary
62
5
39
2
10
75.349759
20
404.520925
11
72.919315
21
401.624436
0
LINE
8
boundary
62
5
39
2
10
72.919315
20
401.624436
11
72.395336
21
400.999982
0
LINE
8
boundary
62
5
39
2
10
72.395336
20
400.999982
11
72.395336
21
394.604065
0
LINE
8
boundary
62
5
39
2
10
72.395336
20
394.604065
11
120.139042
21
394.403445
0
LINE
8
boundary
62
5
39
2
10
120.139042
20
394.403445
11
120.139041
21
391.503446
0
LINE
8
boundary
62
5
39
2
10
120.139041
20
391.503446
11
72.490336
21
391.503446
0
LINE
8
boundary
62
5
39
2
10
72.490336
20
391.503446
11
72.395336
21
390.750405
0
LINE
8
boundary
62
5
39
2
10
72.395336
20
390.750405
11
69.457420
21
390.750405
0
LINE
8
boundary
62
5
39
2
10
69.457420
20
390.750405
11
42.551286
21
390.750403
0
LINE
8
boundary
62
5
39
2
10
42.551286
20
390.750403
11
17.918053
21
387.723472
0
LINE
8
boundary
62
5
39
2
10
17.918053
20
387.723472
11
16.427398
21
387.540301
0
LINE
8
boundary
62
5
39
2
10
16.427398
20
387.540301
11
12.486113
21
387.055997
0
LINE
8
boundary
62
5
39
2
10
12.486113
20
387.055997
11
10.955501
21
384.300899
0
LINE
8
boundary
62
5
39
2
10
10.955501
20
384.300899
11
59.499362
21
384.150899
0
LINE
8
boundary
62
5
39
2
10
59.499362
20
384.150899
11
59.499362
21
381.250899
0
LINE
8
boundary
62
5
39
2
10
59.499362
20
381.250899
11
9.272718
21
381.250899
0
LINE
8
boundary
62
5
39
2
10
9.272718
20
381.250899
11
6.128419
21
375.612180
0
LINE
8
boundary
62
5
39
2
10
6.128419
20
375.612180
11
2.014951
21
368.207956
0
LINE
8
boundary
62
5
39
2
10
2.014951
20
368.207956
11
46.097905
21
368.057956
0
LINE
8
boundary
62
5
39
2
10
46.097905
20
368.057956
11
46.097905
21
365.157956
0
LINE
8
boundary
62
5
39
2
10
46.097905
20
365.157956
11
1.682501
21
365.157956
0
LINE
8
boundary
62
5
39
2
10
1.682501
20
365.157956
11
1.587500
21
352.115013
0
LINE
8
boundary
62
5
39
2
10
1.587500
20
352.115013
11
46.097905
21
351.965012
0
LINE
8
boundary
62
5
39
2
10
46.097905
20
351.965012
11
46.097905
21
349.065012
0
LINE
8
boundary
62
5
39
2
10
46.097905
20
349.065012
11
1.682500
21
349.065012
0
LINE
8
boundary
62
5
39
2
10
1.682500
20
349.065012
11
1.587500
21
348.185896
0
LINE
8
boundary
62
5
39
2
10
1.587500
20
348.185896
11
1.587500
21
336.022069
0
LINE
8
boundary
62
5
39
2
10
1.587500
20
336.022069
11
46.097905
21
335.872069
0
LINE
8
boundary
62
5
39
2
10
46.097905
20
335.872069
11
46.097906
21
332.972069
0
LINE
8
boundary
62
5
39
2
10
46.097906
20
332.972069
11
1.682507
21
332.972069
0
LINE
8
boundary
62
5
39
2
10
1.682507
20
332.972069
11
5.925101
21
324.835710
0
LINE
8
boundary
62
5
39
2
10
5.925101
20
324.835710
11
8.650980
21
319.929125
0
LINE
8
boundary
62
5
39
2
10
8.650980
20
319.929125
11
49.671312
21
319.779126
0
LINE
8
boundary
62
5
39
2
10
49.671312
20
319.779126
11
49.671312
21
316.879126
0
LINE
8
boundary
62
5
39
2
10
49.671312
20
316.879126
11
10.523756
21
316.879126
0
LINE
8
boundary
62
5
39
2
10
10.523756
20
316.879126
11
14.244696
21
309.860431
0
LINE
8
boundary
62
5
39
2
10
14.244696
20
309.860431
11
59.785415
21
309.860430
0
LINE
8
boundary
62
5
39
2
10
59.785415
20
309.860430
11
72.395336
21
309.860430
0
LINE
8
boundary
62
5
39
2
10
72.395336
20
309.860430
11
72.395336
21
305.779590
0
LINE
8
boundary
62
5
39
2
10
72.395336
20
305.779590
11
72.395336
21
303.836183
0
LINE
8
boundary
62
5
39
2
10
72.395336
20
303.836183
11
81.501824
21
303.686183
0
LINE
8
boundary
62
5
39
2
10
81.501824
20
303.686183
11
81.501824
21
300.786183
0
LINE
8
boundary
62
5
39
2
10
81.501824
20
300.786183
11
72.490336
21
300.786182
0
LINE
8
boundary
62
5
39
2
10
72.490336
20
300.786182
11
72.395336
21
297.189716
0
LINE
8
boundary
62
5
39
2
10
72.395336
20
297.189716
11
72.927391
21
296.657662
0
LINE
8
boundary
62
5
39
2
10
72.927391
20
296.657662
11
75.395347
21
294.189711
0
LINE
8
boundary
62
5
39
2
10
75.395347
20
294.189711
11
89.072188
21
294.189711
0
LINE
8
boundary
62
5
39
2
10
89.072188
20
294.189711
11
90.708311
21
294.189710
0
LINE
8
boundary
62
5
39
2
10
90.708311
20
294.189710
11
90.708311
21
369.426837
0
LINE
8
boundary
62
5
39
2
10
90.708311
20
369.426837
11
90.708311
21
379.327876
0
LINE
8
boundary
62
5
39
2
10
90.708311
20
379.327876
11
100.685712
21
381.087162
0
LINE
8
boundary
62
5
39
2
10
100.685712
20
381.087162
11
114.133688
21
383.458403
0
LINE
8
boundary
62
5
39
2
10
114.133688
20
383.458403
11
184.069255
21
395.789931
0
LINE
8
boundary
62
5
39
2
10
184.069255
20
395.789931
11
203.662476
21
399.244745
0
LINE
8
boundary
62
5
39
2
10
203.662476
20
399.244745
11
204.836933
21
399.451833
0
LINE
8
boundary
62
5
39
2
10
204.836933
20
399.451833
11
205.708295
21
399.605478
0
LINE
8
boundary
62
5
39
2
10
205.708295
20
399.605478
11
205.708295
21
394.553445
0
LINE
8
boundary
62
5
39
2
10
205.708295
20
394.553445
11
289.274535
21
394.403446
0
LINE
8
boundary
62
5
39
2
10
289.274535
20
394.403446
11
289.274535
21
391.503446
0
LINE
8
boundary
62
5
39
2
10
289.274535
20
391.503446
11
205.803294
21
391.503446
0
LINE
8
boundary
62
5
39
2
10
205.803294
20
391.503446
11
205.708295
21
384.300899
0
LINE
8
boundary
62
5
39
2
10
205.708295
20
384.300899
11
289.274535
21
384.150899
0
LINE
8
boundary
62
5
39
2
10
289.274535
20
384.150899
11
289.274534
21
381.250899
0
LINE
8
boundary
62
5
39
2
10
289.274534
20
381.250899
11
205.803294
21
381.250899
0
LINE
8
boundary
62
5
39
2
10
205.803294
20
381.250899
11
205.708294
21
368.207955
0
LINE
8
boundary
62
5
39
2
10
205.708294
20
368.207955
11
289.274535
21
368.057956
0
LINE
8
boundary
62
5
39
2
10
289.274535
20
368.057956
11
289.274535
21
365.157956
0
LINE
8
boundary
62
5
39
2
10
289.274535
20
365.157956
11
205.803294
21
365.157956
0
LINE
8
boundary
62
5
39
2
10
205.803294
20
365.157956
11
205.708294
21
352.115012
0
LINE
8
boundary
62
5
39
2
10
205.708294
20
352.115012
11
289.274535
21
351.965013
0
LINE
8
boundary
62
5
39
2
10
289.274535
20
351.965013
11
289.274534
21
349.065013
0
LINE
8
boundary
62
5
39
2
10
289.274534
20
349.065013
11
205.803294
21
349.065012
0
LINE
8
boundary
62
5
39
2
10
205.803294
20
349.065012
11
205.708294
21
336.022069
0
LINE
8
boundary
62
5
39
2
10
205.708294
20
336.022069
11
245.076191
21
335.872069
0
LINE
8
boundary
62
5
39
2
10
245.076191
20
335.872069
11
245.076191
21
332.972069
0
LINE
8
boundary
62
5
39
2
10
245.076191
20
332.972069
11
205.803294
21
332.972069
0
LINE
8
boundary
62
5
39
2
10
205.803294
20
332.972069
11
205.708294
21
319.929126
0
LINE
8
boundary
62
5
39
2
10
205.708294
20
319.929126
11
245.076191
21
319.779126
0
LINE
8
boundary
62
5
39
2
10
245.076191
20
319.779126
11
245.076190
21
316.879126
0
LINE
8
boundary
62
5
39
2
10
245.076190
20
316.879126
11
205.803294
21
316.879126
0
LINE
8
boundary
62
5
39
2
10
205.803294
20
316.879126
11
205.708294
21
306.448909
0
LINE
8
boundary
62
5
39
2
10
205.708294
20
306.448909
11
205.708294
21
303.836183
0
LINE
8
boundary
62
5
39
2
10
205.708294
20
303.836183
11
245.076191
21
303.686183
0
LINE
8
boundary
62
5
39
2
10
245.076191
20
303.686183
11
245.076190
21
300.786182
0
LINE
8
boundary
62
5
39
2
10
245.076190
20
300.786182
11
205.803294
21
300.786182
0
LINE
8
boundary
62
5
39
2
10
205.803294
20
300.786182
11
205.708294
21
294.189711
0
LINE
8
boundary
62
5
39
2
10
205.708294
20
294.189711
11
209.838226
21
294.189712
0
LINE
8
boundary
62
5
39
2
10
209.838226
20
294.189712
11
210.445578
21
294.189711
0
LINE
8
boundary
62
5
39
2
10
210.445578
20
294.189711
11
229.180058
21
294.189712
0
LINE
8
boundary
62
5
39
2
10
229.180058
20
294.189712
11
255.136337
21
294.189711
0
LINE
8
boundary
62
5
39
2
10
255.136337
20
294.189711
11
284.544088
21
294.189711
0
LINE
8
boundary
62
5
39
2
10
284.544088
20
294.189711
11
284.544087
21
319.273740
0
LINE
8
boundary
62
5
39
2
10
284.544087
20
319.273740
11
284.544087
21
332.822069
0
LINE
8
boundary
62
5
39
2
10
284.544087
20
332.822069
11
284.544087
21
336.022070
0
LINE
8
boundary
62
5
39
2
10
284.544087
20
336.022070
11
366.550705
21
336.022069
0
LINE
8
boundary
62
5
39
2
10
366.550705
20
336.022069
11
366.645704
21
332.972069
0
LINE
8
boundary
62
5
39
2
10
366.645704
20
332.972069
11
363.745634
21
332.972069
0
LINE
8
boundary
62
5
39
2
10
363.745634
20
332.972069
11
363.650633
21
332.822070
0
LINE
8
annotation
62
1
39
211
10
251.659290
20
299.836182
11
251.659290
21
304.636182
0
LINE
8
annotation
62
1
39
211
10
251.659290
20
304.636182
11
250.592189
21
303.568780
0
LINE
8
annotation
62
1
39
211
10
88.084923
20
299.836182
11
88.084923
21
304.636182
0
LINE
8
annotation
62
1
39
211
10
88.084923
20
304.636182
11
87.017821
21
303.568780
0
LINE
8
annotation
62
1
39
211
10
252.191486
20
315.929087
11
250.059691
21
315.929087
0
LINE
8
annotation
62
1
39
211
10
250.059691
20
315.929087
11
252.029540
21
319.100290
0
LINE
8
annotation
62
1
39
211
10
252.029540
20
319.100290
11
252.029540
21
319.100290
0
LINE
8
annotation
62
1
39
211
10
252.029540
20
319.100290
11
252.031894
21
319.103204
0
LINE
8
annotation
62
1
39
211
10
252.031894
20
319.103204
11
252.034153
21
319.106142
0
LINE
8
annotation
62
1
39
211
10
252.034153
20
319.106142
11
252.036329
21
319.109131
0
LINE
8
annotation
62
1
39
211
10
252.036329
20
319.109131
11
252.038439
21
319.112193
0
LINE
8
annotation
62
1
39
211
10
252.038439
20
319.112193
11
252.040496
21
319.115355
0
LINE
8
annotation
62
1
39
211
10
252.040496
20
319.115355
11
252.042517
21
319.118640
0
LINE
8
annotation
62
1
39
211
10
252.042517
20
319.118640
11
252.044515
21
319.122075
0
LINE
8
annotation
62
1
39
211
10
252.044515
20
319.122075
11
252.046505
21
319.125682
0
LINE
8
annotation
62
1
39
211
10
252.046505
20
319.125682
11
252.048504
21
319.129488
0
LINE
8
annotation
62
1
39
211
10
252.048504
20
319.129488
11
252.048504
21
319.129488
0
LINE
8
annotation
62
1
39
211
10
252.048504
20
319.129488
11
252.129838
21
319.304120
0
LINE
8
annotation
62
1
39
211
10
252.129838
20
319.304120
11
252.177352
21
319.485142
0
LINE
8
annotation
62
1
39
211
10
252.177352
20
319.485142
11
252.192211
21
319.668463
0
LINE
8
annotation
62
1
39
211
10
252.192211
20
319.668463
11
252.175578
21
319.849992
0
LINE
8
annotation
62
1
39
211
10
252.175578
20
319.849992
11
252.128618
21
320.025640
0
LINE
8
annotation
62
1
39
211
10
252.128618
20
320.025640
11
252.052495
21
320.191316
0
LINE
8
annotation
62
1
39
211
10
252.052495
20
320.191316
11
251.948374
21
320.342930
0
LINE
8
annotation
62
1
39
211
10
251.948374
20
320.342930
11
251.817419
21
320.476391
0
LINE
8
annotation
62
1
39
211
10
251.817419
20
320.476391
11
251.660795
21
320.587609
0
LINE
8
annotation
62
1
39
211
10
251.660795
20
320.587609
11
251.660795
21
320.587609
0
LINE
8
annotation
62
1
39
211
10
251.660795
20
320.587609
11
251.485677
21
320.667788
0
LINE
8
annotation
62
1
39
211
10
251.485677
20
320.667788
11
251.304378
21
320.714570
0
LINE
8
annotation
62
1
39
211
10
251.304378
20
320.714570
11
251.120951
21
320.729009
0
LINE
8
annotation
62
1
39
211
10
251.120951
20
320.729009
11
250.939449
21
320.712156
0
LINE
8
annotation
62
1
39
211
10
250.939449
20
320.712156
11
250.763924
21
320.665066
0
LINE
8
annotation
62
1
39
211
10
250.763924
20
320.665066
11
250.598432
21
320.588791
0
LINE
8
annotation
62
1
39
211
10
250.598432
20
320.588791
11
250.447024
21
320.484384
0
LINE
8
annotation
62
1
39
211
10
250.447024
20
320.484384
11
250.313753
21
320.352898
0
LINE
8
annotation
62
1
39
211
10
250.313753
20
320.352898
11
250.202674
21
320.195386
0
LINE
8
annotation
62
1
39
211
10
250.202674
20
320.195386
11
250.062701
21
319.926879
0
LINE
8
annotation
62
1
39
211
10
56.786607
20
315.929087
11
54.654812
21
315.929087
0
LINE
8
annotation
62
1
39
211
10
54.654812
20
315.929087
11
56.624661
21
319.100290
0
LINE
8
annotation
62
1
39
211
10
56.624661
20
319.100290
11
56.624661
21
319.100290
0
LINE
8
annotation
62
1
39
211
10
56.624661
20
319.100290
11
56.627016
21
319.103204
0
LINE
8
annotation
62
1
39
211
10
56.627016
20
319.103204
11
56.629274
21
319.106142
0
LINE
8
annotation
62
1
39
211
10
56.629274
20
319.106142
11
56.631450
21
319.109131
0
LINE
8
annotation
62
1
39
211
10
56.631450
20
319.109131
11
56.633560
21
319.112193
0
LINE
8
annotation
62
1
39
211
10
56.633560
20
319.112193
11
56.635617
21
319.115355
0
LINE
8
annotation
62
1
39
211
10
56.635617
20
319.115355
11
56.637638
21
319.118640
0
LINE
8
annotation
62
1
39
211
10
56.637638
20
319.118640
11
56.639636
21
319.122075
0
LINE
8
annotation
62
1
39
211
10
56.639636
20
319.122075
11
56.641627
21
319.125682
0
LINE
8
annotation
62
1
39
211
10
56.641627
20
319.125682
11
56.643625
21
319.129488
0
LINE
8
annotation
62
1
39
211
10
56.643625
20
319.129488
11
56.643625
21
319.129488
0
LINE
8
annotation
62
1
39
211
10
56.643625
20
319.129488
11
56.724959
21
319.304120
0
LINE
8
annotation
62
1
39
211
10
56.724959
20
319.304120
11
56.772474
21
319.485142
0
LINE
8
annotation
62
1
39
211
10
56.772474
20
319.485142
11
56.787332
21
319.668463
0
LINE
8
annotation
62
1
39
211
10
56.787332
20
319.668463
11
56.770699
21
319.849992
0
LINE
8
annotation
62
1
39
211
10
56.770699
20
319.849992
11
56.723739
21
320.025640
0
LINE
8
annotation
62
1
39
211
10
56.723739
20
320.025640
11
56.647616
21
320.191316
0
LINE
8
annotation
62
1
39
211
10
56.647616
20
320.191316
11
56.543495
21
320.342930
0
LINE
8
annotation
62
1
39
211
10
56.543495
20
320.342930
11
56.412540
21
320.476391
0
LINE
8
annotation
62
1
39
211
10
56.412540
20
320.476391
11
56.255916
21
320.587609
0
LINE
8
annotation
62
1
39
211
10
56.255916
20
320.587609
11
56.255916
21
320.587609
0
LINE
8
annotation
62
1
39
211
10
56.255916
20
320.587609
11
56.080798
21
320.667788
0
LINE
8
annotation
62
1
39
211
10
56.080798
20
320.667788
11
55.899499
21
320.714570
0
LINE
8
annotation
62
1
39
211
10
55.899499
20
320.714570
11
55.716072
21
320.729009
0
LINE
8
annotation
62
1
39
211
10
55.716072
20
320.729009
11
55.534570
21
320.712156
0
LINE
8
annotation
62
1
39
211
10
55.534570
20
320.712156
11
55.359046
21
320.665066
0
LINE
8
annotation
62
1
39
211
10
55.359046
20
320.665066
11
55.193553
21
320.588791
0
LINE
8
annotation
62
1
39
211
10
55.193553
20
320.588791
11
55.042145
21
320.484384
0
LINE
8
annotation
62
1
39
211
10
55.042145
20
320.484384
11
54.908874
21
320.352898
0
LINE
8
annotation
62
1
39
211
10
54.908874
20
320.352898
11
54.797795
21
320.195386
0
LINE
8
annotation
62
1
39
211
10
54.797795
20
320.195386
11
54.657823
21
319.926879
0
LINE
8
annotation
62
1
39
211
10
370.697536
20
332.475420
11
371.562143
21
332.475420
0
LINE
8
annotation
62
1
39
211
10
371.562143
20
332.475420
11
371.562143
21
332.475420
0
LINE
8
annotation
62
1
39
211
10
371.562143
20
332.475420
11
371.717645
21
332.489370
0
LINE
8
annotation
62
1
39
211
10
371.717645
20
332.489370
11
371.863967
21
332.529573
0
LINE
8
annotation
62
1
39
211
10
371.863967
20
332.529573
11
371.998675
21
332.593563
0
LINE
8
annotation
62
1
39
211
10
371.998675
20
332.593563
11
372.119335
21
332.678870
0
LINE
8
annotation
62
1
39
211
10
372.119335
20
332.678870
11
372.223515
21
332.783028
0
LINE
8
annotation
62
1
39
211
10
372.223515
20
332.783028
11
372.308780
21
332.903569
0
LINE
8
annotation
62
1
39
211
10
372.308780
20
332.903569
11
372.372697
21
333.038024
0
LINE
8
annotation
62
1
39
211
10
372.372697
20
333.038024
11
372.412832
21
333.183926
0
LINE
8
annotation
62
1
39
211
10
372.412832
20
333.183926
11
372.426751
21
333.338807
0
LINE
8
annotation
62
1
39
211
10
372.426751
20
333.338807
11
372.426751
21
333.771721
0
LINE
8
annotation
62
1
39
211
10
372.426751
20
333.771721
11
372.426751
21
333.771721
0
LINE
8
annotation
62
1
39
211
10
372.426751
20
333.771721
11
372.412832
21
333.926538
0
LINE
8
annotation
62
1
39
211
10
372.412832
20
333.926538
11
372.372697
21
334.072406
0
LINE
8
annotation
62
1
39
211
10
372.372697
20
334.072406
11
372.308780
21
334.206851
0
LINE
8
annotation
62
1
39
211
10
372.308780
20
334.206851
11
372.223515
21
334.327400
0
LINE
8
annotation
62
1
39
211
10
372.223515
20
334.327400
11
372.119335
21
334.431578
0
LINE
8
annotation
62
1
39
211
10
372.119335
20
334.431578
11
371.998675
21
334.516911
0
LINE
8
annotation
62
1
39
211
10
371.998675
20
334.516911
11
371.863967
21
334.580927
0
LINE
8
annotation
62
1
39
211
10
371.863967
20
334.580927
11
371.717645
21
334.621150
0
LINE
8
annotation
62
1
39
211
10
371.717645
20
334.621150
11
371.562143
21
334.635108
0
LINE
8
annotation
62
1
39
211
10
371.562143
20
334.635108
11
371.129229
21
334.635108
0
LINE
8
annotation
62
1
39
211
10
371.129229
20
334.635108
11
371.562143
21
334.635108
0
LINE
8
annotation
62
1
39
211
10
371.562143
20
334.635108
11
371.562143
21
334.635108
0
LINE
8
annotation
62
1
39
211
10
371.562143
20
334.635108
11
371.717645
21
334.649069
0
LINE
8
annotation
62
1
39
211
10
371.717645
20
334.649069
11
371.863967
21
334.689316
0
LINE
8
annotation
62
1
39
211
10
371.863967
20
334.689316
11
371.998675
21
334.753395
0
LINE
8
annotation
62
1
39
211
10
371.998675
20
334.753395
11
372.119335
21
334.838853
0
LINE
8
annotation
62
1
39
211
10
372.119335
20
334.838853
11
372.223515
21
334.943235
0
LINE
8
annotation
62
1
39
211
10
372.223515
20
334.943235
11
372.308780
21
335.064088
0
LINE
8
annotation
62
1
39
211
10
372.308780
20
335.064088
11
372.372697
21
335.198959
0
LINE
8
annotation
62
1
39
211
10
372.372697
20
335.198959
11
372.412832
21
335.345393
0
LINE
8
annotation
62
1
39
211
10
372.412832
20
335.345393
11
372.426751
21
335.500936
0
LINE
8
annotation
62
1
39
211
10
372.426751
20
335.500936
11
372.426751
21
335.500936
0
LINE
8
annotation
62
1
39
211
10
372.426751
20
335.500936
11
372.412832
21
335.655753
0
LINE
8
annotation
62
1
39
211
10
372.412832
20
335.655753
11
372.372697
21
335.801621
0
LINE
8
annotation
62
1
39
211
10
372.372697
20
335.801621
11
372.308780
21
335.936066
0
LINE
8
annotation
62
1
39
211
10
372.308780
20
335.936066
11
372.223515
21
336.056615
0
LINE
8
annotation
62
1
39
211
10
372.223515
20
336.056615
11
372.119335
21
336.160793
0
LINE
8
annotation
62
1
39
211
10
372.119335
20
336.160793
11
371.998675
21
336.246126
0
LINE
8
annotation
62
1
39
211
10
371.998675
20
336.246126
11
371.863967
21
336.310142
0
LINE
8
annotation
62
1
39
211
10
371.863967
20
336.310142
11
371.717645
21
336.350365
0
LINE
8
annotation
62
1
39
211
10
371.717645
20
336.350365
11
371.562143
21
336.364323
0
LINE
8
annotation
62
1
39
211
10
371.562143
20
336.364323
11
370.697536
21
336.364323
0
LINE
8
annotation
62
1
39
211
10
250.059691
20
332.022220
11
251.125589
21
332.022220
0
LINE
8
annotation
62
1
39
211
10
251.125589
20
332.022220
11
251.125589
21
332.022220
0
LINE
8
annotation
62
1
39
211
10
251.125589
20
332.022220
11
251.317293
21
332.039417
0
LINE
8
annotation
62
1
39
211
10
251.317293
20
332.039417
11
251.497680
21
332.088980
0
LINE
8
annotation
62
1
39
211
10
251.497680
20
332.088980
11
251.663750
21
332.167867
0
LINE
8
annotation
62
1
39
211
10
251.663750
20
332.167867
11
251.812501
21
332.273035
0
LINE
8
annotation
62
1
39
211
10
251.812501
20
332.273035
11
251.940935
21
332.401442
0
LINE
8
annotation
62
1
39
211
10
251.940935
20
332.401442
11
252.046051
21
332.550046
0
LINE
8
annotation
62
1
39
211
10
252.046051
20
332.550046
11
252.124848
21
332.715803
0
LINE
8
annotation
62
1
39
211
10
252.124848
20
332.715803
11
252.174327
21
332.895673
0
LINE
8
annotation
62
1
39
211
10
252.174327
20
332.895673
11
252.191486
21
333.086612
0
LINE
8
annotation
62
1
39
211
10
252.191486
20
333.086612
11
252.191486
21
333.620313
0
LINE
8
annotation
62
1
39
211
10
252.191486
20
333.620313
11
252.191486
21
333.620313
0
LINE
8
annotation
62
1
39
211
10
252.191486
20
333.620313
11
252.174327
21
333.811173
0
LINE
8
annotation
62
1
39
211
10
252.174327
20
333.811173
11
252.124848
21
333.991001
0
LINE
8
annotation
62
1
39
211
10
252.124848
20
333.991001
11
252.046051
21
334.156746
0
LINE
8
annotation
62
1
39
211
10
252.046051
20
334.156746
11
251.940935
21
334.305359
0
LINE
8
annotation
62
1
39
211
10
251.940935
20
334.305359
11
251.812501
21
334.433791
0
LINE
8
annotation
62
1
39
211
10
251.812501
20
334.433791
11
251.663750
21
334.538992
0
LINE
8
annotation
62
1
39
211
10
251.663750
20
334.538992
11
251.497680
21
334.617911
0
LINE
8
annotation
62
1
39
211
10
251.497680
20
334.617911
11
251.317293
21
334.667499
0
LINE
8
annotation
62
1
39
211
10
251.317293
20
334.667499
11
251.125589
21
334.684706
0
LINE
8
annotation
62
1
39
211
10
251.125589
20
334.684706
11
250.591888
21
334.684706
0
LINE
8
annotation
62
1
39
211
10
250.591888
20
334.684706
11
251.125589
21
334.684706
0
LINE
8
annotation
62
1
39
211
10
251.125589
20
334.684706
11
251.125589
21
334.684706
0
LINE
8
annotation
62
1
39
211
10
251.125589
20
334.684706
11
251.317293
21
334.701917
0
LINE
8
annotation
62
1
39
211
10
251.317293
20
334.701917
11
251.497680
21
334.751534
0
LINE
8
annotation
62
1
39
211
10
251.497680
20
334.751534
11
251.663750
21
334.830531
0
LINE
8
annotation
62
1
39
211
10
251.663750
20
334.830531
11
251.812501
21
334.935884
0
LINE
8
annotation
62
1
39
211
10
251.812501
20
334.935884
11
251.940935
21
335.064568
0
LINE
8
annotation
62
1
39
211
10
251.940935
20
335.064568
11
252.046051
21
335.213557
0
LINE
8
annotation
62
1
39
211
10
252.046051
20
335.213557
11
252.124848
21
335.379827
0
LINE
8
annotation
62
1
39
211
10
252.124848
20
335.379827
11
252.174327
21
335.560352
0
LINE
8
annotation
62
1
39
211
10
252.174327
20
335.560352
11
252.191486
21
335.752108
0
LINE
8
annotation
62
1
39
211
10
252.191486
20
335.752108
11
252.191486
21
335.752108
0
LINE
8
annotation
62
1
39
211
10
252.191486
20
335.752108
11
252.174327
21
335.942968
0
LINE
8
annotation
62
1
39
211
10
252.174327
20
335.942968
11
252.124848
21
336.122795
0
LINE
8
annotation
62
1
39
211
10
252.124848
20
336.122795
11
252.046051
21
336.288541
0
LINE
8
annotation
62
1
39
211
10
252.046051
20
336.288541
11
251.940935
21
336.437154
0
LINE
8
annotation
62
1
39
211
10
251.940935
20
336.437154
11
251.812501
21
336.565586
0
LINE
8
annotation
62
1
39
211
10
251.812501
20
336.565586
11
251.663750
21
336.670786
0
LINE
8
annotation
62
1
39
211
10
251.663750
20
336.670786
11
251.497680
21
336.749705
0
LINE
8
annotation
62
1
39
211
10
251.497680
20
336.749705
11
251.317293
21
336.799293
0
LINE
8
annotation
62
1
39
211
10
251.317293
20
336.799293
11
251.125589
21
336.816500
0
LINE
8
annotation
62
1
39
211
10
251.125589
20
336.816500
11
250.059691
21
336.816500
0
LINE
8
annotation
62
1
39
211
10
51.081406
20
332.022220
11
52.147304
21
332.022220
0
LINE
8
annotation
62
1
39
211
10
52.147304
20
332.022220
11
52.147304
21
332.022220
0
LINE
8
annotation
62
1
39
211
10
52.147304
20
332.022220
11
52.339008
21
332.039417
0
LINE
8
annotation
62
1
39
211
10
52.339008
20
332.039417
11
52.519395
21
332.088980
0
LINE
8
annotation
62
1
39
211
10
52.519395
20
332.088980
11
52.685464
21
332.167867
0
LINE
8
annotation
62
1
39
211
10
52.685464
20
332.167867
11
52.834216
21
332.273035
0
LINE
8
annotation
62
1
39
211
10
52.834216
20
332.273035
11
52.962650
21
332.401442
0
LINE
8
annotation
62
1
39
211
10
52.962650
20
332.401442
11
53.067766
21
332.550046
0
LINE
8
annotation
62
1
39
211
10
53.067766
20
332.550046
11
53.146563
21
332.715803
0
LINE
8
annotation
62
1
39
211
10
53.146563
20
332.715803
11
53.196041
21
332.895673
0
LINE
8
annotation
62
1
39
211
10
53.196041
20
332.895673
11
53.213201
21
333.086612
0
LINE
8
annotation
62
1
39
211
10
53.213201
20
333.086612
11
53.213201
21
333.620313
0
LINE
8
annotation
62
1
39
211
10
53.213201
20
333.620313
11
53.213201
21
333.620313
0
LINE
8
annotation
62
1
39
211
10
53.213201
20
333.620313
11
53.196041
21
333.811173
0
LINE
8
annotation
62
1
39
211
10
53.196041
20
333.811173
11
53.146563
21
333.991001
0
LINE
8
annotation
62
1
39
211
10
53.146563
20
333.991001
11
53.067766
21
334.156746
0
LINE
8
annotation
62
1
39
211
10
53.067766
20
334.156746
11
52.962650
21
334.305359
0
LINE
8
annotation
62
1
39
211
10
52.962650
20
334.305359
11
52.834216
21
334.433791
0
LINE
8
annotation
62
1
39
211
10
52.834216
20
334.433791
11
52.685464
21
334.538992
0
LINE
8
annotation
62
1
39
211
10
52.685464
20
334.538992
11
52.519395
21
334.617911
0
LINE
8
annotation
62
1
39
211
10
52.519395
20
334.617911
11
52.339008
21
334.667499
0
LINE
8
annotation
62
1
39
211
10
52.339008
20
334.667499
11
52.147304
21
334.684706
0
LINE
8
annotation
62
1
39
211
10
52.147304
20
334.684706
11
51.613602
21
334.684706
0
LINE
8
annotation
62
1
39
211
10
51.613602
20
334.684706
11
52.147304
21
334.684706
0
LINE
8
annotation
62
1
39
211
10
52.147304
20
334.684706
11
52.147304
21
334.684706
0
LINE
8
annotation
62
1
39
211
10
52.147304
20
334.684706
11
52.339008
21
334.701917
0
LINE
8
annotation
62
1
39
211
10
52.339008
20
334.701917
11
52.519395
21
334.751534
0
LINE
8
annotation
62
1
39
211
10
52.519395
20
334.751534
11
52.685464
21
334.830531
0
LINE
8
annotation
62
1
39
211
10
52.685464
20
334.830531
11
52.834216
21
334.935884
0
LINE
8
annotation
62
1
39
211
10
52.834216
20
334.935884
11
52.962650
21
335.064568
0
LINE
8
annotation
62
1
39
211
10
52.962650
20
335.064568
11
53.067766
21
335.213557
0
LINE
8
annotation
62
1
39
211
10
53.067766
20
335.213557
11
53.146563
21
335.379827
0
LINE
8
annotation
62
1
39
211
10
53.146563
20
335.379827
11
53.196041
21
335.560352
0
LINE
8
annotation
62
1
39
211
10
53.196041
20
335.560352
11
53.213201
21
335.752108
0
LINE
8
annotation
62
1
39
211
10
53.213201
20
335.752108
11
53.213201
21
335.752108
0
LINE
8
annotation
62
1
39
211
10
53.213201
20
335.752108
11
53.196041
21
335.942968
0
LINE
8
annotation
62
1
39
211
10
53.196041
20
335.942968
11
53.146563
21
336.122795
0
LINE
8
annotation
62
1
39
211
10
53.146563
20
336.122795
11
53.067766
21
336.288541
0
LINE
8
annotation
62
1
39
211
10
53.067766
20
336.288541
11
52.962650
21
336.437154
0
LINE
8
annotation
62
1
39
211
10
52.962650
20
336.437154
11
52.834216
21
336.565586
0
LINE
8
annotation
62
1
39
211
10
52.834216
20
336.565586
11
52.685464
21
336.670786
0
LINE
8
annotation
62
1
39
211
10
52.685464
20
336.670786
11
52.519395
21
336.749705
0
LINE
8
annotation
62
1
39
211
10
52.519395
20
336.749705
11
52.339008
21
336.799293
0
LINE
8
annotation
62
1
39
211
10
52.339008
20
336.799293
11
52.147304
21
336.816500
0
LINE
8
annotation
62
1
39
211
10
52.147304
20
336.816500
11
51.081406
21
336.816500
0
LINE
8
annotation
62
1
39
211
10
296.656530
20
349.182114
11
293.991335
21
349.182114
0
LINE
8
annotation
62
1
39
211
10
293.991335
20
349.182114
11
295.055727
21
352.915012
0
LINE
8
annotation
62
1
39
211
10
295.857634
20
348.115012
11
295.857634
21
350.246807
0
LINE
8
annotation
62
1
39
211
10
53.479901
20
349.182114
11
50.814706
21
349.182114
0
LINE
8
annotation
62
1
39
211
10
50.814706
20
349.182114
11
51.879098
21
352.915012
0
LINE
8
annotation
62
1
39
211
10
52.681005
20
348.115012
11
52.681005
21
350.246807
0
LINE
8
annotation
62
1
39
211
10
294.258035
20
364.207956
11
295.323933
21
364.207956
0
LINE
8
annotation
62
1
39
211
10
295.323933
20
364.207956
11
295.323933
21
364.207956
0
LINE
8
annotation
62
1
39
211
10
295.323933
20
364.207956
11
295.515240
21
364.225157
0
LINE
8
annotation
62
1
39
211
10
295.515240
20
364.225157
11
295.695417
21
364.274746
0
LINE
8
annotation
62
1
39
211
10
295.695417
20
364.274746
11
295.861424
21
364.353703
0
LINE
8
annotation
62
1
39
211
10
295.861424
20
364.353703
11
296.010226
21
364.459009
0
LINE
8
annotation
62
1
39
211
10
296.010226
20
364.459009
11
296.138784
21
364.587643
0
LINE
8
annotation
62
1
39
211
10
296.138784
20
364.587643
11
296.244060
21
364.736584
0
LINE
8
annotation
62
1
39
211
10
296.244060
20
364.736584
11
296.323018
21
364.902814
0
LINE
8
annotation
62
1
39
211
10
296.323018
20
364.902814
11
296.372621
21
365.083312
0
LINE
8
annotation
62
1
39
211
10
296.372621
20
365.083312
11
296.389830
21
365.275057
0
LINE
8
annotation
62
1
39
211
10
296.389830
20
365.275057
11
296.389830
21
365.806049
0
LINE
8
annotation
62
1
39
211
10
296.389830
20
365.806049
11
296.389830
21
365.806049
0
LINE
8
annotation
62
1
39
211
10
296.389830
20
365.806049
11
296.372631
21
365.997702
0
LINE
8
annotation
62
1
39
211
10
296.372631
20
365.997702
11
296.323053
21
366.177951
0
LINE
8
annotation
62
1
39
211
10
296.323053
20
366.177951
11
296.244127
21
366.343820
0
LINE
8
annotation
62
1
39
211
10
296.244127
20
366.343820
11
296.138883
21
366.492334
0
LINE
8
annotation
62
1
39
211
10
296.138883
20
366.492334
11
296.010350
21
366.620518
0
LINE
8
annotation
62
1
39
211
10
296.010350
20
366.620518
11
295.861558
21
366.725397
0
LINE
8
annotation
62
1
39
211
10
295.861558
20
366.725397
11
295.695538
21
366.803994
0
LINE
8
annotation
62
1
39
211
10
295.695538
20
366.803994
11
295.515320
21
366.853334
0
LINE
8
annotation
62
1
39
211
10
295.515320
20
366.853334
11
295.323933
21
366.870442
0
LINE
8
annotation
62
1
39
211
10
295.323933
20
366.870442
11
294.258035
21
366.870442
0
LINE
8
annotation
62
1
39
211
10
294.258035
20
366.870442
11
294.258035
21
369.007956
0
LINE
8
annotation
62
1
39
211
10
294.258035
20
369.007956
11
296.389830
21
369.007956
0
LINE
8
annotation
62
1
39
211
10
51.081406
20
364.207956
11
52.147304
21
364.207956
0
LINE
8
annotation
62
1
39
211
10
52.147304
20
364.207956
11
52.147304
21
364.207956
0
LINE
8
annotation
62
1
39
211
10
52.147304
20
364.207956
11
52.338611
21
364.225157
0
LINE
8
annotation
62
1
39
211
10
52.338611
20
364.225157
11
52.518788
21
364.274746
0
LINE
8
annotation
62
1
39
211
10
52.518788
20
364.274746
11
52.684795
21
364.353703
0
LINE
8
annotation
62
1
39
211
10
52.684795
20
364.353703
11
52.833597
21
364.459009
0
LINE
8
annotation
62
1
39
211
10
52.833597
20
364.459009
11
52.962155
21
364.587643
0
LINE
8
annotation
62
1
39
211
10
52.962155
20
364.587643
11
53.067431
21
364.736584
0
LINE
8
annotation
62
1
39
211
10
53.067431
20
364.736584
11
53.146390
21
364.902814
0
LINE
8
annotation
62
1
39
211
10
53.146390
20
364.902814
11
53.195992
21
365.083312
0
LINE
8
annotation
62
1
39
211
10
53.195992
20
365.083312
11
53.213201
21
365.275057
0
LINE
8
annotation
62
1
39
211
10
53.213201
20
365.275057
11
53.213201
21
365.806049
0
LINE
8
annotation
62
1
39
211
10
53.213201
20
365.806049
11
53.213201
21
365.806049
0
LINE
8
annotation
62
1
39
211
10
53.213201
20
365.806049
11
53.196002
21
365.997702
0
LINE
8
annotation
62
1
39
211
10
53.196002
20
365.997702
11
53.146424
21
366.177951
0
LINE
8
annotation
62
1
39
211
10
53.146424
20
366.177951
11
53.067498
21
366.343820
0
LINE
8
annotation
62
1
39
211
10
53.067498
20
366.343820
11
52.962254
21
366.492334
0
LINE
8
annotation
62
1
39
211
10
52.962254
20
366.492334
11
52.833721
21
366.620518
0
LINE
8
annotation
62
1
39
211
10
52.833721
20
366.620518
11
52.684929
21
366.725397
0
LINE
8
annotation
62
1
39
211
10
52.684929
20
366.725397
11
52.518909
21
366.803994
0
LINE
8
annotation
62
1
39
211
10
52.518909
20
366.803994
11
52.338691
21
366.853334
0
LINE
8
annotation
62
1
39
211
10
52.338691
20
366.853334
11
52.147304
21
366.870442
0
LINE
8
annotation
62
1
39
211
10
52.147304
20
366.870442
11
51.081406
21
366.870442
0
LINE
8
annotation
62
1
39
211
10
51.081406
20
366.870442
11
51.081406
21
369.007956
0
LINE
8
annotation
62
1
39
211
10
51.081406
20
369.007956
11
53.213201
21
369.007956
0
LINE
8
annotation
62
1
39
211
10
295.859139
20
385.100899
11
295.859139
21
385.100899
0
LINE
8
annotation
62
1
39
211
10
295.859139
20
385.100899
11
295.553786
21
384.986410
0
LINE
8
annotation
62
1
39
211
10
295.553786
20
384.986410
11
295.273585
21
384.832150
0
LINE
8
annotation
62
1
39
211
10
295.273585
20
384.832150
11
295.021412
21
384.641984
0
LINE
8
annotation
62
1
39
211
10
295.021412
20
384.641984
11
294.800143
21
384.419776
0
LINE
8
annotation
62
1
39
211
10
294.800143
20
384.419776
11
294.612654
21
384.169391
0
LINE
8
annotation
62
1
39
211
10
294.612654
20
384.169391
11
294.461823
21
383.894695
0
LINE
8
annotation
62
1
39
211
10
294.461823
20
383.894695
11
294.350525
21
383.599552
0
LINE
8
annotation
62
1
39
211
10
294.350525
20
383.599552
11
294.281637
21
383.287827
0
LINE
8
annotation
62
1
39
211
10
294.281637
20
383.287827
11
294.258035
21
382.963385
0
LINE
8
annotation
62
1
39
211
10
294.258035
20
382.963385
11
294.258035
21
381.368001
0
LINE
8
annotation
62
1
39
211
10
294.258035
20
381.368001
11
294.258035
21
381.368001
0
LINE
8
annotation
62
1
39
211
10
294.258035
20
381.368001
11
294.275244
21
381.176255
0
LINE
8
annotation
62
1
39
211
10
294.275244
20
381.176255
11
294.324847
21
380.995757
0
LINE
8
annotation
62
1
39
211
10
294.324847
20
380.995757
11
294.403805
21
380.829528
0
LINE
8
annotation
62
1
39
211
10
294.403805
20
380.829528
11
294.509082
21
380.680586
0
LINE
8
annotation
62
1
39
211
10
294.509082
20
380.680586
11
294.637639
21
380.551952
0
LINE
8
annotation
62
1
39
211
10
294.637639
20
380.551952
11
294.786441
21
380.446647
0
LINE
8
annotation
62
1
39
211
10
294.786441
20
380.446647
11
294.952448
21
380.367689
0
LINE
8
annotation
62
1
39
211
10
294.952448
20
380.367689
11
295.132625
21
380.318100
0
LINE
8
annotation
62
1
39
211
10
295.132625
20
380.318100
11
295.323933
21
380.300899
0
LINE
8
annotation
62
1
39
211
10
295.323933
20
380.300899
11
295.323933
21
380.300899
0
LINE
8
annotation
62
1
39
211
10
295.323933
20
380.300899
11
295.515637
21
380.318100
0
LINE
8
annotation
62
1
39
211
10
295.515637
20
380.318100
11
295.696024
21
380.367689
0
LINE
8
annotation
62
1
39
211
10
295.696024
20
380.367689
11
295.862093
21
380.446647
0
LINE
8
annotation
62
1
39
211
10
295.862093
20
380.446647
11
296.010845
21
380.551952
0
LINE
8
annotation
62
1
39
211
10
296.010845
20
380.551952
11
296.139279
21
380.680586
0
LINE
8
annotation
62
1
39
211
10
296.139279
20
380.680586
11
296.244395
21
380.829528
0
LINE
8
annotation
62
1
39
211
10
296.244395
20
380.829528
11
296.323192
21
380.995757
0
LINE
8
annotation
62
1
39
211
10
296.323192
20
380.995757
11
296.372671
21
381.176255
0
LINE
8
annotation
62
1
39
211
10
296.372671
20
381.176255
11
296.389830
21
381.368001
0
LINE
8
annotation
62
1
39
211
10
296.389830
20
381.368001
11
296.389830
21
381.898993
0
LINE
8
annotation
62
1
39
211
10
296.389830
20
381.898993
11
296.389830
21
381.898993
0
LINE
8
annotation
62
1
39
211
10
296.389830
20
381.898993
11
296.372671
21
382.090645
0
LINE
8
annotation
62
1
39
211
10
296.372671
20
382.090645
11
296.323192
21
382.270894
0
LINE
8
annotation
62
1
39
211
10
296.323192
20
382.270894
11
296.244395
21
382.436763
0
LINE
8
annotation
62
1
39
211
10
296.244395
20
382.436763
11
296.139279
21
382.585278
0
LINE
8
annotation
62
1
39
211
10
296.139279
20
382.585278
11
296.010845
21
382.713462
0
LINE
8
annotation
62
1
39
211
10
296.010845
20
382.713462
11
295.862093
21
382.818340
0
LINE
8
annotation
62
1
39
211
10
295.862093
20
382.818340
11
295.696024
21
382.896937
0
LINE
8
annotation
62
1
39
211
10
295.696024
20
382.896937
11
295.515637
21
382.946277
0
LINE
8
annotation
62
1
39
211
10
295.515637
20
382.946277
11
295.323933
21
382.963385
0
LINE
8
annotation
62
1
39
211
10
295.323933
20
382.963385
11
294.258035
21
382.963385
0
LINE
8
annotation
62
1
39
211
10
294.124535
20
379.700899
11
296.524535
21
379.700899
0
LINE
8
annotation
62
1
39
211
10
66.083966
20
385.100899
11
66.083966
21
385.100899
0
LINE
8
annotation
62
1
39
211
10
66.083966
20
385.100899
11
65.778613
21
384.986410
0
LINE
8
annotation
62
1
39
211
10
65.778613
20
384.986410
11
65.498412
21
384.832150
0
LINE
8
annotation
62
1
39
211
10
65.498412
20
384.832150
11
65.246239
21
384.641984
0
LINE
8
annotation
62
1
39
211
10
65.246239
20
384.641984
11
65.024970
21
384.419776
0
LINE
8
annotation
62
1
39
211
10
65.024970
20
384.419776
11
64.837481
21
384.169391
0
LINE
8
annotation
62
1
39
211
10
64.837481
20
384.169391
11
64.686650
21
383.894695
0
LINE
8
annotation
62
1
39
211
10
64.686650
20
383.894695
11
64.575352
21
383.599552
0
LINE
8
annotation
62
1
39
211
10
64.575352
20
383.599552
11
64.506464
21
383.287827
0
LINE
8
annotation
62
1
39
211
10
64.506464
20
383.287827
11
64.482862
21
382.963385
0
LINE
8
annotation
62
1
39
211
10
64.482862
20
382.963385
11
64.482862
21
381.368001
0
LINE
8
annotation
62
1
39
211
10
64.482862
20
381.368001
11
64.482862
21
381.368001
0
LINE
8
annotation
62
1
39
211
10
64.482862
20
381.368001
11
64.500071
21
381.176255
0
LINE
8
annotation
62
1
39
211
10
64.500071
20
381.176255
11
64.549674
21
380.995757
0
LINE
8
annotation
62
1
39
211
10
64.549674
20
380.995757
11
64.628632
21
380.829528
0
LINE
8
annotation
62
1
39
211
10
64.628632
20
380.829528
11
64.733909
21
380.680586
0
LINE
8
annotation
62
1
39
211
10
64.733909
20
380.680586
11
64.862467
21
380.551952
0
LINE
8
annotation
62
1
39
211
10
64.862467
20
380.551952
11
65.011268
21
380.446647
0
LINE
8
annotation
62
1
39
211
10
65.011268
20
380.446647
11
65.177276
21
380.367689
0
LINE
8
annotation
62
1
39
211
10
65.177276
20
380.367689
11
65.357452
21
380.318100
0
LINE
8
annotation
62
1
39
211
10
65.357452
20
380.318100
11
65.548760
21
380.300899
0
LINE
8
annotation
62
1
39
211
10
65.548760
20
380.300899
11
65.548760
21
380.300899
0
LINE
8
annotation
62
1
39
211
10
65.548760
20
380.300899
11
65.740464
21
380.318100
0
LINE
8
annotation
62
1
39
211
10
65.740464
20
380.318100
11
65.920851
21
380.367689
0
LINE
8
annotation
62
1
39
211
10
65.920851
20
380.367689
11
66.086921
21
380.446647
0
LINE
8
annotation
62
1
39
211
10
66.086921
20
380.446647
11
66.235672
21
380.551952
0
LINE
8
annotation
62
1
39
211
10
66.235672
20
380.551952
11
66.364106
21
380.680586
0
LINE
8
annotation
62
1
39
211
10
66.364106
20
380.680586
11
66.469222
21
380.829528
0
LINE
8
annotation
62
1
39
211
10
66.469222
20
380.829528
11
66.548019
21
380.995757
0
LINE
8
annotation
62
1
39
211
10
66.548019
20
380.995757
11
66.597498
21
381.176255
0
LINE
8
annotation
62
1
39
211
10
66.597498
20
381.176255
11
66.614657
21
381.368001
0
LINE
8
annotation
62
1
39
211
10
66.614657
20
381.368001
11
66.614657
21
381.898993
0
LINE
8
annotation
62
1
39
211
10
66.614657
20
381.898993
11
66.614657
21
381.898993
0
LINE
8
annotation
62
1
39
211
10
66.614657
20
381.898993
11
66.597498
21
382.090645
0
LINE
8
annotation
62
1
39
211
10
66.597498
20
382.090645
11
66.548019
21
382.270894
0
LINE
8
annotation
62
1
39
211
10
66.548019
20
382.270894
11
66.469222
21
382.436763
0
LINE
8
annotation
62
1
39
211
10
66.469222
20
382.436763
11
66.364106
21
382.585278
0
LINE
8
annotation
62
1
39
211
10
66.364106
20
382.585278
11
66.235672
21
382.713462
0
LINE
8
annotation
62
1
39
211
10
66.235672
20
382.713462
11
66.086921
21
382.818340
0
LINE
8
annotation
62
1
39
211
10
66.086921
20
382.818340
11
65.920851
21
382.896937
0
LINE
8
annotation
62
1
39
211
10
65.920851
20
382.896937
11
65.740464
21
382.946277
0
LINE
8
annotation
62
1
39
211
10
65.740464
20
382.946277
11
65.548760
21
382.963385
0
LINE
8
annotation
62
1
39
211
10
65.548760
20
382.963385
11
64.482862
21
382.963385
0
LINE
8
annotation
62
1
39
211
10
64.349362
20
379.700899
11
66.749362
21
379.700899
0
LINE
8
annotation
62
1
39
211
10
295.323933
20
390.553446
11
296.391034
21
395.353446
0
LINE
8
annotation
62
1
39
211
10
296.391034
20
395.353446
11
294.256530
21
395.353446
0
LINE
8
annotation
62
1
39
211
10
296.391034
20
393.215932
11
295.323933
21
393.215932
0
LINE
8
annotation
62
1
39
211
10
126.188439
20
390.553446
11
127.255541
21
395.353446
0
LINE
8
annotation
62
1
39
211
10
127.255541
20
395.353446
11
125.121037
21
395.353446
0
LINE
8
annotation
62
1
39
211
10
127.255541
20
393.215932
11
126.188439
21
393.215932
0
LINE
8
annotation
62
1
39
211
10
352.515767
20
405.000072
11
352.515767
21
405.000072
0
LINE
8
annotation
62
1
39
211
10
352.515767
20
405.000072
11
352.532976
21
404.808419
0
LINE
8
annotation
62
1
39
211
10
352.532976
20
404.808419
11
352.582579
21
404.628170
0
LINE
8
annotation
62
1
39
211
10
352.582579
20
404.628170
11
352.661537
21
404.462301
0
LINE
8
annotation
62
1
39
211
10
352.661537
20
404.462301
11
352.766813
21
404.313787
0
LINE
8
annotation
62
1
39
211
10
352.766813
20
404.313787
11
352.895371
21
404.185603
0
LINE
8
annotation
62
1
39
211
10
352.895371
20
404.185603
11
353.044173
21
404.080724
0
LINE
8
annotation
62
1
39
211
10
353.044173
20
404.080724
11
353.210180
21
404.002128
0
LINE
8
annotation
62
1
39
211
10
353.210180
20
404.002128
11
353.390357
21
403.952787
0
LINE
8
annotation
62
1
39
211
10
353.390357
20
403.952787
11
353.581664
21
403.935679
0
LINE
8
annotation
62
1
39
211
10
353.581664
20
403.935679
11
353.581664
21
403.935679
0
LINE
8
annotation
62
1
39
211
10
353.581664
20
403.935679
11
353.772972
21
403.952787
0
LINE
8
annotation
62
1
39
211
10
353.772972
20
403.952787
11
353.953149
21
404.002128
0
LINE
8
annotation
62
1
39
211
10
353.953149
20
404.002128
11
354.119156
21
404.080724
0
LINE
8
annotation
62
1
39
211
10
354.119156
20
404.080724
11
354.267958
21
404.185603
0
LINE
8
annotation
62
1
39
211
10
354.267958
20
404.185603
11
354.396515
21
404.313787
0
LINE
8
annotation
62
1
39
211
10
354.396515
20
404.313787
11
354.501792
21
404.462301
0
LINE
8
annotation
62
1
39
211
10
354.501792
20
404.462301
11
354.580750
21
404.628170
0
LINE
8
annotation
62
1
39
211
10
354.580750
20
404.628170
11
354.630353
21
404.808419
0
LINE
8
annotation
62
1
39
211
10
354.630353
20
404.808419
11
354.647562
21
405.000072
0
LINE
8
annotation
62
1
39
211
10
354.647562
20
405.000072
11
354.647562
21
405.531064
0
LINE
8
annotation
62
1
39
211
10
354.647562
20
405.531064
11
354.647562
21
405.531064
0
LINE
8
annotation
62
1
39
211
10
354.647562
20
405.531064
11
354.630363
21
405.722809
0
LINE
8
annotation
62
1
39
211
10
354.630363
20
405.722809
11
354.580785
21
405.903307
0
LINE
8
annotation
62
1
39
211
10
354.580785
20
405.903307
11
354.501859
21
406.069537
0
LINE
8
annotation
62
1
39
211
10
354.501859
20
406.069537
11
354.396614
21
406.218478
0
LINE
8
annotation
62
1
39
211
10
354.396614
20
406.218478
11
354.268081
21
406.347112
0
LINE
8
annotation
62
1
39
211
10
354.268081
20
406.347112
11
354.119290
21
406.452418
0
LINE
8
annotation
62
1
39
211
10
354.119290
20
406.452418
11
353.953270
21
406.531375
0
LINE
8
annotation
62
1
39
211
10
353.953270
20
406.531375
11
353.773052
21
406.580964
0
LINE
8
annotation
62
1
39
211
10
353.773052
20
406.580964
11
353.581664
21
406.598165
0
LINE
8
annotation
62
1
39
211
10
353.581664
20
406.598165
11
353.581664
21
406.598165
0
LINE
8
annotation
62
1
39
211
10
353.581664
20
406.598165
11
353.390277
21
406.580955
0
LINE
8
annotation
62
1
39
211
10
353.390277
20
406.580955
11
353.210059
21
406.531341
0
LINE
8
annotation
62
1
39
211
10
353.210059
20
406.531341
11
353.044039
21
406.452351
0
LINE
8
annotation
62
1
39
211
10
353.044039
20
406.452351
11
352.895247
21
406.347013
0
LINE
8
annotation
62
1
39
211
10
352.895247
20
406.347013
11
352.766714
21
406.218355
0
LINE
8
annotation
62
1
39
211
10
352.766714
20
406.218355
11
352.661470
21
406.069403
0
LINE
8
annotation
62
1
39
211
10
352.661470
20
406.069403
11
352.582544
21
405.903186
0
LINE
8
annotation
62
1
39
211
10
352.582544
20
405.903186
11
352.532966
21
405.722730
0
LINE
8
annotation
62
1
39
211
10
352.532966
20
405.722730
11
352.515767
21
405.531064
0
LINE
8
annotation
62
1
39
211
10
352.515767
20
405.531064
11
352.515767
21
405.000072
0
LINE
8
annotation
62
1
39
211
10
354.647562
20
407.665568
11
354.647562
21
407.665568
0
LINE
8
annotation
62
1
39
211
10
354.647562
20
407.665568
11
354.630363
21
407.856428
0
LINE
8
annotation
62
1
39
211
10
354.630363
20
407.856428
11
354.580785
21
408.036255
0
LINE
8
annotation
62
1
39
211
10
354.580785
20
408.036255
11
354.501859
21
408.202000
0
LINE
8
annotation
62
1
39
211
10
354.501859
20
408.202000
11
354.396614
21
408.350614
0
LINE
8
annotation
62
1
39
211
10
354.396614
20
408.350614
11
354.268081
21
408.479046
0
LINE
8
annotation
62
1
39
211
10
354.268081
20
408.479046
11
354.119290
21
408.584246
0
LINE
8
annotation
62
1
39
211
10
354.119290
20
408.584246
11
353.953270
21
408.663165
0
LINE
8
annotation
62
1
39
211
10
353.953270
20
408.663165
11
353.773052
21
408.712753
0
LINE
8
annotation
62
1
39
211
10
353.773052
20
408.712753
11
353.581664
21
408.729960
0
LINE
8
annotation
62
1
39
211
10
353.581664
20
408.729960
11
353.581664
21
408.729960
0
LINE
8
annotation
62
1
39
211
10
353.581664
20
408.729960
11
353.390277
21
408.712753
0
LINE
8
annotation
62
1
39
211
10
353.390277
20
408.712753
11
353.210059
21
408.663165
0
LINE
8
annotation
62
1
39
211
10
353.210059
20
408.663165
11
353.044039
21
408.584246
0
LINE
8
annotation
62
1
39
211
10
353.044039
20
408.584246
11
352.895247
21
408.479046
0
LINE
8
annotation
62
1
39
211
10
352.895247
20
408.479046
11
352.766714
21
408.350614
0
LINE
8
annotation
62
1
39
211
10
352.766714
20
408.350614
11
352.661470
21
408.202000
0
LINE
8
annotation
62
1
39
211
10
352.661470
20
408.202000
11
352.582544
21
408.036255
0
LINE
8
annotation
62
1
39
211
10
352.582544
20
408.036255
11
352.532966
21
407.856428
0
LINE
8
annotation
62
1
39
211
10
352.532966
20
407.856428
11
352.515767
21
407.665568
0
LINE
8
annotation
62
1
39
211
10
352.515767
20
407.665568
11
352.515767
21
407.665568
0
LINE
8
annotation
62
1
39
211
10
352.515767
20
407.665568
11
352.532976
21
407.473812
0
LINE
8
annotation
62
1
39
211
10
352.532976
20
407.473812
11
352.582579
21
407.293287
0
LINE
8
annotation
62
1
39
211
10
352.582579
20
407.293287
11
352.661537
21
407.127017
0
LINE
8
annotation
62
1
39
211
10
352.661537
20
407.127017
11
352.766813
21
406.978028
0
LINE
8
annotation
62
1
39
211
10
352.766813
20
406.978028
11
352.895371
21
406.849344
0
LINE
8
annotation
62
1
39
211
10
352.895371
20
406.849344
11
353.044173
21
406.743991
0
LINE
8
annotation
62
1
39
211
10
353.044173
20
406.743991
11
353.210180
21
406.664993
0
LINE
8
annotation
62
1
39
211
10
353.210180
20
406.664993
11
353.390357
21
406.615376
0
LINE
8
annotation
62
1
39
211
10
353.390357
20
406.615376
11
353.581664
21
406.598165
0
LINE
8
annotation
62
1
39
211
10
353.581664
20
406.598165
11
353.581664
21
406.598165
0
LINE
8
annotation
62
1
39
211
10
353.581664
20
406.598165
11
353.772972
21
406.615376
0
LINE
8
annotation
62
1
39
211
10
353.772972
20
406.615376
11
353.953149
21
406.664993
0
LINE
8
annotation
62
1
39
211
10
353.953149
20
406.664993
11
354.119156
21
406.743991
0
LINE
8
annotation
62
1
39
211
10
354.119156
20
406.743991
11
354.267958
21
406.849344
0
LINE
8
annotation
62
1
39
211
10
354.267958
20
406.849344
11
354.396515
21
406.978028
0
LINE
8
annotation
62
1
39
211
10
354.396515
20
406.978028
11
354.501792
21
407.127017
0
LINE
8
annotation
62
1
39
211
10
354.501792
20
407.127017
11
354.580750
21
407.293287
0
LINE
8
annotation
62
1
39
211
10
354.580750
20
407.293287
11
354.630353
21
407.473812
0
LINE
8
annotation
62
1
39
211
10
354.630353
20
407.473812
11
354.647562
21
407.665568
0
LINE
8
annotation
62
1
39
211
10
190.026842
20
405.000072
11
190.026842
21
405.000072
0
LINE
8
annotation
62
1
39
211
10
190.026842
20
405.000072
11
190.044051
21
404.808419
0
LINE
8
annotation
62
1
39
211
10
190.044051
20
404.808419
11
190.093654
21
404.628170
0
LINE
8
annotation
62
1
39
211
10
190.093654
20
404.628170
11
190.172612
21
404.462301
0
LINE
8
annotation
62
1
39
211
10
190.172612
20
404.462301
11
190.277889
21
404.313787
0
LINE
8
annotation
62
1
39
211
10
190.277889
20
404.313787
11
190.406446
21
404.185603
0
LINE
8
annotation
62
1
39
211
10
190.406446
20
404.185603
11
190.555248
21
404.080724
0
LINE
8
annotation
62
1
39
211
10
190.555248
20
404.080724
11
190.721255
21
404.002128
0
LINE
8
annotation
62
1
39
211
10
190.721255
20
404.002128
11
190.901432
21
403.952787
0
LINE
8
annotation
62
1
39
211
10
190.901432
20
403.952787
11
191.092740
21
403.935679
0
LINE
8
annotation
62
1
39
211
10
191.092740
20
403.935679
11
191.092740
21
403.935679
0
LINE
8
annotation
62
1
39
211
10
191.092740
20
403.935679
11
191.284047
21
403.952787
0
LINE
8
annotation
62
1
39
211
10
191.284047
20
403.952787
11
191.464224
21
404.002128
0
LINE
8
annotation
62
1
39
211
10
191.464224
20
404.002128
11
191.630231
21
404.080724
0
LINE
8
annotation
62
1
39
211
10
191.630231
20
404.080724
11
191.779033
21
404.185603
0
LINE
8
annotation
62
1
39
211
10
191.779033
20
404.185603
11
191.907591
21
404.313787
0
LINE
8
annotation
62
1
39
211
10
191.907591
20
404.313787
11
192.012867
21
404.462301
0
LINE
8
annotation
62
1
39
211
10
192.012867
20
404.462301
11
192.091826
21
404.628170
0
LINE
8
annotation
62
1
39
211
10
192.091826
20
404.628170
11
192.141428
21
404.808419
0
LINE
8
annotation
62
1
39
211
10
192.141428
20
404.808419
11
192.158637
21
405.000072
0
LINE
8
annotation
62
1
39
211
10
192.158637
20
405.000072
11
192.158637
21
405.531064
0
LINE
8
annotation
62
1
39
211
10
192.158637
20
405.531064
11
192.158637
21
405.531064
0
LINE
8
annotation
62
1
39
211
10
192.158637
20
405.531064
11
192.141438
21
405.722809
0
LINE
8
annotation
62
1
39
211
10
192.141438
20
405.722809
11
192.091860
21
405.903307
0
LINE
8
annotation
62
1
39
211
10
192.091860
20
405.903307
11
192.012934
21
406.069537
0
LINE
8
annotation
62
1
39
211
10
192.012934
20
406.069537
11
191.907690
21
406.218478
0
LINE
8
annotation
62
1
39
211
10
191.907690
20
406.218478
11
191.779157
21
406.347112
0
LINE
8
annotation
62
1
39
211
10
191.779157
20
406.347112
11
191.630365
21
406.452418
0
LINE
8
annotation
62
1
39
211
10
191.630365
20
406.452418
11
191.464345
21
406.531375
0
LINE
8
annotation
62
1
39
211
10
191.464345
20
406.531375
11
191.284127
21
406.580964
0
LINE
8
annotation
62
1
39
211
10
191.284127
20
406.580964
11
191.092740
21
406.598165
0
LINE
8
annotation
62
1
39
211
10
191.092740
20
406.598165
11
191.092740
21
406.598165
0
LINE
8
annotation
62
1
39
211
10
191.092740
20
406.598165
11
190.901353
21
406.580955
0
LINE
8
annotation
62
1
39
211
10
190.901353
20
406.580955
11
190.721134
21
406.531341
0
LINE
8
annotation
62
1
39
211
10
190.721134
20
406.531341
11
190.555114
21
406.452351
0
LINE
8
annotation
62
1
39
211
10
190.555114
20
406.452351
11
190.406323
21
406.347013
0
LINE
8
annotation
62
1
39
211
10
190.406323
20
406.347013
11
190.277790
21
406.218355
0
LINE
8
annotation
62
1
39
211
10
190.277790
20
406.218355
11
190.172545
21
406.069403
0
LINE
8
annotation
62
1
39
211
10
190.172545
20
406.069403
11
190.093619
21
405.903186
0
LINE
8
annotation
62
1
39
211
10
190.093619
20
405.903186
11
190.044041
21
405.722730
0
LINE
8
annotation
62
1
39
211
10
190.044041
20
405.722730
11
190.026842
21
405.531064
0
LINE
8
annotation
62
1
39
211
10
190.026842
20
405.531064
11
190.026842
21
405.000072
0
LINE
8
annotation
62
1
39
211
10
192.158637
20
407.665568
11
192.158637
21
407.665568
0
LINE
8
annotation
62
1
39
211
10
192.158637
20
407.665568
11
192.141438
21
407.856428
0
LINE
8
annotation
62
1
39
211
10
192.141438
20
407.856428
11
192.091860
21
408.036255
0
LINE
8
annotation
62
1
39
211
10
192.091860
20
408.036255
11
192.012934
21
408.202000
0
LINE
8
annotation
62
1
39
211
10
192.012934
20
408.202000
11
191.907690
21
408.350614
0
LINE
8
annotation
62
1
39
211
10
191.907690
20
408.350614
11
191.779157
21
408.479046
0
LINE
8
annotation
62
1
39
211
10
191.779157
20
408.479046
11
191.630365
21
408.584246
0
LINE
8
annotation
62
1
39
211
10
191.630365
20
408.584246
11
191.464345
21
408.663165
0
LINE
8
annotation
62
1
39
211
10
191.464345
20
408.663165
11
191.284127
21
408.712753
0
LINE
8
annotation
62
1
39
211
10
191.284127
20
408.712753
11
191.092740
21
408.729960
0
LINE
8
annotation
62
1
39
211
10
191.092740
20
408.729960
11
191.092740
21
408.729960
0
LINE
8
annotation
62
1
39
211
10
191.092740
20
408.729960
11
190.901353
21
408.712753
0
LINE
8
annotation
62
1
39
211
10
190.901353
20
408.712753
11
190.721134
21
408.663165
0
LINE
8
annotation
62
1
39
211
10
190.721134
20
408.663165
11
190.555114
21
408.584246
0
LINE
8
annotation
62
1
39
211
10
190.555114
20
408.584246
11
190.406323
21
408.479046
0
LINE
8
annotation
62
1
39
211
10
190.406323
20
408.479046
11
190.277790
21
408.350614
0
LINE
8
annotation
62
1
39
211
10
190.277790
20
408.350614
11
190.172545
21
408.202000
0
LINE
8
annotation
62
1
39
211
10
190.172545
20
408.202000
11
190.093619
21
408.036255
0
LINE
8
annotation
62
1
39
211
10
190.093619
20
408.036255
11
190.044041
21
407.856428
0
LINE
8
annotation
62
1
39
211
10
190.044041
20
407.856428
11
190.026842
21
407.665568
0
LINE
8
annotation
62
1
39
211
10
190.026842
20
407.665568
11
190.026842
21
407.665568
0
LINE
8
annotation
62
1
39
211
10
190.026842
20
407.665568
11
190.044051
21
407.473812
0
LINE
8
annotation
62
1
39
211
10
190.044051
20
407.473812
11
190.093654
21
407.293287
0
LINE
8
annotation
62
1
39
211
10
190.093654
20
407.293287
11
190.172612
21
407.127017
0
LINE
8
annotation
62
1
39
211
10
190.172612
20
407.127017
11
190.277889
21
406.978028
0
LINE
8
annotation
62
1
39
211
10
190.277889
20
406.978028
11
190.406446
21
406.849344
0
LINE
8
annotation
62
1
39
211
10
190.406446
20
406.849344
11
190.555248
21
406.743991
0
LINE
8
annotation
62
1
39
211
10
190.555248
20
406.743991
11
190.721255
21
406.664993
0
LINE
8
annotation
62
1
39
211
10
190.721255
20
406.664993
11
190.901432
21
406.615376
0
LINE
8
annotation
62
1
39
211
10
190.901432
20
406.615376
11
191.092740
21
406.598165
0
LINE
8
annotation
62
1
39
211
10
191.092740
20
406.598165
11
191.092740
21
406.598165
0
LINE
8
annotation
62
1
39
211
10
191.092740
20
406.598165
11
191.284047
21
406.615376
0
LINE
8
annotation
62
1
39
211
10
191.284047
20
406.615376
11
191.464224
21
406.664993
0
LINE
8
annotation
62
1
39
211
10
191.464224
20
406.664993
11
191.630231
21
406.743991
0
LINE
8
annotation
62
1
39
211
10
191.630231
20
406.743991
11
191.779033
21
406.849344
0
LINE
8
annotation
62
1
39
211
10
191.779033
20
406.849344
11
191.907591
21
406.978028
0
LINE
8
annotation
62
1
39
211
10
191.907591
20
406.978028
11
192.012867
21
407.127017
0
LINE
8
annotation
62
1
39
211
10
192.012867
20
407.127017
11
192.091826
21
407.293287
0
LINE
8
annotation
62
1
39
211
10
192.091826
20
407.293287
11
192.141428
21
407.473812
0
LINE
8
annotation
62
1
39
211
10
192.141428
20
407.473812
11
192.158637
21
407.665568
0
LINE
8
annotation
62
1
39
211
10
356.690965
20
428.579729
11
356.690965
21
428.579729
0
LINE
8
annotation
62
1
39
211
10
356.690965
20
428.579729
11
356.995780
21
428.693318
0
LINE
8
annotation
62
1
39
211
10
356.995780
20
428.693318
11
357.275562
21
428.846855
0
LINE
8
annotation
62
1
39
211
10
357.275562
20
428.846855
11
357.527421
21
429.036426
0
LINE
8
annotation
62
1
39
211
10
357.527421
20
429.036426
11
357.748465
21
429.258121
0
LINE
8
annotation
62
1
39
211
10
357.748465
20
429.258121
11
357.935802
21
429.508027
0
LINE
8
annotation
62
1
39
211
10
357.935802
20
429.508027
11
358.086541
21
429.782232
0
LINE
8
annotation
62
1
39
211
10
358.086541
20
429.782232
11
358.197792
21
430.076825
0
LINE
8
annotation
62
1
39
211
10
358.197792
20
430.076825
11
358.266663
21
430.387893
0
LINE
8
annotation
62
1
39
211
10
358.266663
20
430.387893
11
358.290262
21
430.711524
0
LINE
8
annotation
62
1
39
211
10
358.290262
20
430.711524
11
358.290262
21
432.312327
0
LINE
8
annotation
62
1
39
211
10
358.290262
20
432.312327
11
358.290262
21
432.312327
0
LINE
8
annotation
62
1
39
211
10
358.290262
20
432.312327
11
358.273103
21
432.504082
0
LINE
8
annotation
62
1
39
211
10
358.273103
20
432.504082
11
358.223624
21
432.684608
0
LINE
8
annotation
62
1
39
211
10
358.223624
20
432.684608
11
358.144827
21
432.850878
0
LINE
8
annotation
62
1
39
211
10
358.144827
20
432.850878
11
358.039711
21
432.999867
0
LINE
8
annotation
62
1
39
211
10
358.039711
20
432.999867
11
357.911278
21
433.128551
0
LINE
8
annotation
62
1
39
211
10
357.911278
20
433.128551
11
357.762526
21
433.233904
0
LINE
8
annotation
62
1
39
211
10
357.762526
20
433.233904
11
357.596456
21
433.312901
0
LINE
8
annotation
62
1
39
211
10
357.596456
20
433.312901
11
357.416069
21
433.362518
0
LINE
8
annotation
62
1
39
211
10
357.416069
20
433.362518
11
357.224365
21
433.379729
0
LINE
8
annotation
62
1
39
211
10
357.224365
20
433.379729
11
357.224365
21
433.379729
0
LINE
8
annotation
62
1
39
211
10
357.224365
20
433.379729
11
357.033057
21
433.362518
0
LINE
8
annotation
62
1
39
211
10
357.033057
20
433.362518
11
356.852881
21
433.312901
0
LINE
8
annotation
62
1
39
211
10
356.852881
20
433.312901
11
356.686873
21
433.233904
0
LINE
8
annotation
62
1
39
211
10
356.686873
20
433.233904
11
356.538072
21
433.128551
0
LINE
8
annotation
62
1
39
211
10
356.538072
20
433.128551
11
356.409514
21
432.999867
0
LINE
8
annotation
62
1
39
211
10
356.409514
20
432.999867
11
356.304237
21
432.850878
0
LINE
8
annotation
62
1
39
211
10
356.304237
20
432.850878
11
356.225279
21
432.684608
0
LINE
8
annotation
62
1
39
211
10
356.225279
20
432.684608
11
356.175677
21
432.504082
0
LINE
8
annotation
62
1
39
211
10
356.175677
20
432.504082
11
356.158468
21
432.312327
0
LINE
8
annotation
62
1
39
211
10
356.158468
20
432.312327
11
356.158468
21
431.778625
0
LINE
8
annotation
62
1
39
211
10
356.158468
20
431.778625
11
356.158468
21
431.778625
0
LINE
8
annotation
62
1
39
211
10
356.158468
20
431.778625
11
356.175677
21
431.586880
0
LINE
8
annotation
62
1
39
211
10
356.175677
20
431.586880
11
356.225279
21
431.406382
0
LINE
8
annotation
62
1
39
211
10
356.225279
20
431.406382
11
356.304237
21
431.240153
0
LINE
8
annotation
62
1
39
211
10
356.304237
20
431.240153
11
356.409514
21
431.091211
0
LINE
8
annotation
62
1
39
211
10
356.409514
20
431.091211
11
356.538072
21
430.962577
0
LINE
8
annotation
62
1
39
211
10
356.538072
20
430.962577
11
356.686873
21
430.857271
0
LINE
8
annotation
62
1
39
211
10
356.686873
20
430.857271
11
356.852881
21
430.778314
0
LINE
8
annotation
62
1
39
211
10
356.852881
20
430.778314
11
357.033057
21
430.728725
0
LINE
8
annotation
62
1
39
211
10
357.033057
20
430.728725
11
357.224365
21
430.711524
0
LINE
8
annotation
62
1
39
211
10
357.224365
20
430.711524
11
358.290262
21
430.711524
0
LINE
8
annotation
62
1
39
211
10
356.025268
20
427.979729
11
358.425268
21
427.979729
0
LINE
8
annotation
62
1
39
211
10
362.686494
20
445.777922
11
362.686494
21
448.367423
0
LINE
8
annotation
62
1
39
211
10
362.686494
20
448.367423
11
362.110814
21
447.791582
0
LINE
8
annotation
62
1
39
211
10
364.073418
20
445.812078
11
364.073418
21
445.812078
0
LINE
8
annotation
62
1
39
211
10
364.073418
20
445.812078
11
364.133602
21
445.789580
0
LINE
8
annotation
62
1
39
211
10
364.133602
20
445.789580
11
364.195325
21
445.778403
0
LINE
8
annotation
62
1
39
211
10
364.195325
20
445.778403
11
364.257192
21
445.778090
0
LINE
8
annotation
62
1
39
211
10
364.257192
20
445.778090
11
364.317808
21
445.788187
0
LINE
8
annotation
62
1
39
211
10
364.317808
20
445.788187
11
364.375778
21
445.808237
0
LINE
8
annotation
62
1
39
211
10
364.375778
20
445.808237
11
364.429706
21
445.837784
0
LINE
8
annotation
62
1
39
211
10
364.429706
20
445.837784
11
364.478197
21
445.876374
0
LINE
8
annotation
62
1
39
211
10
364.478197
20
445.876374
11
364.519856
21
445.923549
0
LINE
8
annotation
62
1
39
211
10
364.519856
20
445.923549
11
364.553287
21
445.978855
0
LINE
8
annotation
62
1
39
211
10
364.553287
20
445.978855
11
364.553287
21
445.978855
0
LINE
8
annotation
62
1
39
211
10
364.553287
20
445.978855
11
364.653031
21
446.212332
0
LINE
8
annotation
62
1
39
211
10
364.653031
20
446.212332
11
364.727840
21
446.452566
0
LINE
8
annotation
62
1
39
211
10
364.727840
20
446.452566
11
364.777712
21
446.697643
0
LINE
8
annotation
62
1
39
211
10
364.777712
20
446.697643
11
364.802648
21
446.945647
0
LINE
8
annotation
62
1
39
211
10
364.802648
20
446.945647
11
364.802648
21
447.194663
0
LINE
8
annotation
62
1
39
211
10
364.802648
20
447.194663
11
364.777712
21
447.442776
0
LINE
8
annotation
62
1
39
211
10
364.777712
20
447.442776
11
364.727840
21
447.688069
0
LINE
8
annotation
62
1
39
211
10
364.727840
20
447.688069
11
364.653031
21
447.928629
0
LINE
8
annotation
62
1
39
211
10
364.653031
20
447.928629
11
364.553287
21
448.162539
0
LINE
8
annotation
62
1
39
211
10
364.553287
20
448.162539
11
364.553287
21
448.162539
0
LINE
8
annotation
62
1
39
211
10
364.553287
20
448.162539
11
364.540602
21
448.186145
0
LINE
8
annotation
62
1
39
211
10
364.540602
20
448.186145
11
364.526221
21
448.208715
0
LINE
8
annotation
62
1
39
211
10
364.526221
20
448.208715
11
364.510253
21
448.230136
0
LINE
8
annotation
62
1
39
211
10
364.510253
20
448.230136
11
364.492805
21
448.250298
0
LINE
8
annotation
62
1
39
211
10
364.492805
20
448.250298
11
364.473985
21
448.269090
0
LINE
8
annotation
62
1
39
211
10
364.473985
20
448.269090
11
364.453903
21
448.286402
0
LINE
8
annotation
62
1
39
211
10
364.453903
20
448.286402
11
364.432666
21
448.302121
0
LINE
8
annotation
62
1
39
211
10
364.432666
20
448.302121
11
364.410382
21
448.316138
0
LINE
8
annotation
62
1
39
211
10
364.410382
20
448.316138
11
364.387160
21
448.328341
0
LINE
8
annotation
62
1
39
211
10
364.387160
20
448.328341
11
364.387160
21
448.328341
0
LINE
8
annotation
62
1
39
211
10
364.387160
20
448.328341
11
364.326499
21
448.351327
0
LINE
8
annotation
62
1
39
211
10
364.326499
20
448.351327
11
364.264414
21
448.362886
0
LINE
8
annotation
62
1
39
211
10
364.264414
20
448.362886
11
364.202286
21
448.363478
0
LINE
8
annotation
62
1
39
211
10
364.202286
20
448.363478
11
364.141492
21
448.353560
0
LINE
8
annotation
62
1
39
211
10
364.141492
20
448.353560
11
364.083413
21
448.333591
0
LINE
8
annotation
62
1
39
211
10
364.083413
20
448.333591
11
364.029428
21
448.304030
0
LINE
8
annotation
62
1
39
211
10
364.029428
20
448.304030
11
363.980917
21
448.265335
0
LINE
8
annotation
62
1
39
211
10
363.980917
20
448.265335
11
363.939257
21
448.217964
0
LINE
8
annotation
62
1
39
211
10
363.939257
20
448.217964
11
363.905830
21
448.162376
0
LINE
8
annotation
62
1
39
211
10
363.905830
20
448.162376
11
363.905830
21
448.162376
0
LINE
8
annotation
62
1
39
211
10
363.905830
20
448.162376
11
363.806566
21
447.928948
0
LINE
8
annotation
62
1
39
211
10
363.806566
20
447.928948
11
363.732119
21
447.688749
0
LINE
8
annotation
62
1
39
211
10
363.732119
20
447.688749
11
363.682487
21
447.443696
0
LINE
8
annotation
62
1
39
211
10
363.682487
20
447.443696
11
363.657671
21
447.195704
0
LINE
8
annotation
62
1
39
211
10
363.657671
20
447.195704
11
363.657671
21
446.946688
0
LINE
8
annotation
62
1
39
211
10
363.657671
20
446.946688
11
363.682487
21
446.698564
0
LINE
8
annotation
62
1
39
211
10
363.682487
20
446.698564
11
363.732119
21
446.453246
0
LINE
8
annotation
62
1
39
211
10
363.732119
20
446.453246
11
363.806566
21
446.212650
0
LINE
8
annotation
62
1
39
211
10
363.806566
20
446.212650
11
363.905830
21
445.978692
0
LINE
8
annotation
62
1
39
211
10
363.905830
20
445.978692
11
363.905830
21
445.978692
0
LINE
8
annotation
62
1
39
211
10
363.905830
20
445.978692
11
363.918469
21
445.955133
0
LINE
8
annotation
62
1
39
211
10
363.918469
20
445.955133
11
363.932743
21
445.932676
0
LINE
8
annotation
62
1
39
211
10
363.932743
20
445.932676
11
363.948593
21
445.911390
0
LINE
8
annotation
62
1
39
211
10
363.948593
20
445.911390
11
363.965959
21
445.891343
0
LINE
8
annotation
62
1
39
211
10
363.965959
20
445.891343
11
363.984781
21
445.872603
0
LINE
8
annotation
62
1
39
211
10
363.984781
20
445.872603
11
364.004997
21
445.855238
0
LINE
8
annotation
62
1
39
211
10
364.004997
20
445.855238
11
364.026549
21
445.839317
0
LINE
8
annotation
62
1
39
211
10
364.026549
20
445.839317
11
364.049376
21
445.824908
0
LINE
8
annotation
62
1
39
211
10
364.049376
20
445.824908
11
364.073418
21
445.812078
0
LINE
8
annotation
62
1
39
211
10
324.414877
20
375.536899
11
319.955956
21
369.087478
0
LINE
8
annotation
62
1
39
211
10
319.955956
20
369.087478
11
315.496197
21
375.536899
0
LINE
8
annotation
62
1
39
211
10
319.955956
20
369.606484
11
319.955956
21
362.166006
0
LINE
8
annotation
62
1
39
211
10
336.740842
20
368.851452
11
329.430325
21
368.851452
0
LINE
8
annotation
62
1
39
211
10
349.177064
20
365.138759
11
341.753355
21
365.138759
0
LINE
8
annotation
62
1
39
211
10
341.753355
20
365.138759
11
344.718143
21
375.536480
0
LINE
8
annotation
62
1
39
211
10
346.951796
20
362.166425
11
346.951796
21
368.104386
0
LINE
8
frame
62
5
39
2
10
0.000000
20
0.000000
11
450.000000
21
0.000000
0
LINE
8
frame
62
5
39
2
10
450.000000
20
0.000000
11
450.000000
21
500.000000
0
LINE
8
frame
62
5
39
2
10
450.000000
20
500.000000
11
0.000000
21
500.000000
0
LINE
8
frame
62
5
39
2
10
0.000000
20
500.000000
11
0.000000
21
0.000000
0
ENDSEC
0
EOF
