0
SECTION
2
HEADER
9
$ACADVER
1
AC1009
0
ENDSEC
0
SECTION
2
TABLES
0
TABLE
2
VPORT
70
1
0
VPORT
2
ACTIVE
70
0
10
0.0
20
0.0
11
0.0
21
0.0
12
0.0
22
0.0
13
0.0
23
0.0
14
0.0
24
0.0
15
0.0
25
0.0
16
0.0
26
0.0
36
0.0
17
0.0
27
0.0
37
0.0
40
0.0
41
0.0
42
0.0
43
0.0
44
0.0
50
0.0
51
0.0
71
0
72
1000
73
1
74
3
75
0
76
0
77
0
78
0
0
ENDTAB
0
ENDSEC
0
SECTION
2
ENTITIES
0
LINE
8
hole
62
5
39
2
10
177.028253
20
204.590302
11
209.634456
21
204.590302
0
LINE
8
hole
62
5
39
2
10
209.634456
20
204.590302
11
209.634456
21
108.214358
0
LINE
8
hole
62
5
39
2
10
209.634456
20
108.214358
11
209.634456
21
79.590301
0
LINE
8
hole
62
5
39
2
10
209.634456
20
79.590301
11
177.028253
21
79.590301
0
LINE
8
hole
62
5
39
2
10
177.028253
20
79.590301
11
94.634473
21
79.590301
0
LINE
8
hole
62
5
39
2
10
94.634473
20
79.590301
11
94.634473
21
92.527024
0
LINE
8
hole
62
5
39
2
10
94.634473
20
92.527024
11
53.697474
21
92.677024
0
LINE
8
hole
62
5
39
2
10
53.697474
20
92.677024
11
53.697474
21
95.577024
0
LINE
8
hole
62
5
39
2
10
53.697474
20
95.577024
11
94.539473
21
95.577024
0
LINE
8
hole
62
5
39
2
10
94.539473
20
95.577024
11
94.634473
21
107.923233
0
LINE
8
hole
62
5
39
2
10
94.634473
20
107.923233
11
48.160987
21
108.073233
0
LINE
8
hole
62
5
39
2
10
48.160987
20
108.073233
11
48.160987
21
110.973233
0
LINE
8
hole
62
5
39
2
10
48.160987
20
110.973233
11
94.539473
21
110.973233
0
LINE
8
hole
62
5
39
2
10
94.539473
20
110.973233
11
94.634473
21
169.148772
0
LINE
8
hole
62
5
39
2
10
94.634473
20
169.148772
11
94.634473
21
172.416276
0
LINE
8
hole
62
5
39
2
10
94.634473
20
172.416276
11
48.160987
21
172.566276
0
LINE
8
hole
62
5
39
2
10
48.160987
20
172.566276
11
48.160986
21
175.466276
0
LINE
8
hole
62
5
39
2
10
48.160986
20
175.466276
11
94.539473
21
175.466276
0
LINE
8
hole
62
5
39
2
10
94.539473
20
175.466276
11
94.634473
21
188.432842
0
LINE
8
hole
62
5
39
2
10
94.634473
20
188.432842
11
54.076411
21
188.582841
0
LINE
8
hole
62
5
39
2
10
54.076411
20
188.582841
11
54.076410
21
191.482841
0
LINE
8
hole
62
5
39
2
10
54.076410
20
191.482841
11
94.539473
21
191.482841
0
LINE
8
hole
62
5
39
2
10
94.539473
20
191.482841
11
94.634473
21
204.590303
0
LINE
8
hole
62
5
39
2
10
94.634473
20
204.590303
11
177.028253
21
204.590302
0
LINE
8
boundary
62
5
39
2
10
288.470250
20
64.082994
11
288.470250
21
65.635673
0
LINE
8
boundary
62
5
39
2
10
288.470250
20
65.635673
11
288.470250
21
66.202521
0
LINE
8
boundary
62
5
39
2
10
288.470250
20
66.202521
11
288.470249
21
66.777709
0
LINE
8
boundary
62
5
39
2
10
288.470249
20
66.777709
11
288.470249
21
67.328845
0
LINE
8
boundary
62
5
39
2
10
288.470249
20
67.328845
11
182.445874
21
67.793794
0
LINE
8
boundary
62
5
39
2
10
182.445874
20
67.793794
11
182.445874
21
70.693795
0
LINE
8
boundary
62
5
39
2
10
182.445874
20
70.693795
11
288.375250
21
70.693794
0
LINE
8
boundary
62
5
39
2
10
288.375250
20
70.693794
11
288.470249
21
92.527024
0
LINE
8
boundary
62
5
39
2
10
288.470249
20
92.527024
11
249.102353
21
92.677024
0
LINE
8
boundary
62
5
39
2
10
249.102353
20
92.677024
11
249.102353
21
95.577024
0
LINE
8
boundary
62
5
39
2
10
249.102353
20
95.577024
11
288.375249
21
95.577024
0
LINE
8
boundary
62
5
39
2
10
288.375249
20
95.577024
11
288.470249
21
107.923233
0
LINE
8
boundary
62
5
39
2
10
288.470249
20
107.923233
11
249.102353
21
108.073233
0
LINE
8
boundary
62
5
39
2
10
249.102353
20
108.073233
11
249.102353
21
110.973234
0
LINE
8
boundary
62
5
39
2
10
249.102353
20
110.973234
11
288.375249
21
110.973233
0
LINE
8
boundary
62
5
39
2
10
288.375249
20
110.973233
11
288.470249
21
121.565513
0
LINE
8
boundary
62
5
39
2
10
288.470249
20
121.565513
11
288.470250
21
122.110304
0
LINE
8
boundary
62
5
39
2
10
288.470250
20
122.110304
11
288.470250
21
122.666928
0
LINE
8
boundary
62
5
39
2
10
288.470250
20
122.666928
11
288.470250
21
123.204344
0
LINE
8
boundary
62
5
39
2
10
288.470250
20
123.204344
11
288.470250
21
124.115971
0
LINE
8
boundary
62
5
39
2
10
288.470250
20
124.115971
11
288.470249
21
124.695349
0
LINE
8
boundary
62
5
39
2
10
288.470249
20
124.695349
11
288.470249
21
128.415522
0
LINE
8
boundary
62
5
39
2
10
288.470249
20
128.415522
11
277.870251
21
130.000909
0
LINE
8
boundary
62
5
39
2
10
277.870251
20
130.000909
11
228.470257
21
137.389415
0
LINE
8
boundary
62
5
39
2
10
228.470257
20
137.389415
11
228.470257
21
138.891081
0
LINE
8
boundary
62
5
39
2
10
228.470257
20
138.891081
11
228.470257
21
145.889414
0
LINE
8
boundary
62
5
39
2
10
228.470257
20
145.889414
11
239.070256
21
147.474802
0
LINE
8
boundary
62
5
39
2
10
239.070256
20
147.474802
11
288.470250
21
154.863308
0
LINE
8
boundary
62
5
39
2
10
288.470250
20
154.863308
11
288.470250
21
157.262271
0
LINE
8
boundary
62
5
39
2
10
288.470250
20
157.262271
11
288.470249
21
157.888578
0
LINE
8
boundary
62
5
39
2
10
288.470249
20
157.888578
11
288.470249
21
158.744123
0
LINE
8
boundary
62
5
39
2
10
288.470249
20
158.744123
11
288.470249
21
159.261637
0
LINE
8
boundary
62
5
39
2
10
288.470249
20
159.261637
11
288.470249
21
159.805708
0
LINE
8
boundary
62
5
39
2
10
288.470249
20
159.805708
11
288.470250
21
160.346204
0
LINE
8
boundary
62
5
39
2
10
288.470250
20
160.346204
11
288.470249
21
172.416276
0
LINE
8
boundary
62
5
39
2
10
288.470249
20
172.416276
11
249.102353
21
172.566276
0
LINE
8
boundary
62
5
39
2
10
249.102353
20
172.566276
11
249.102353
21
175.466276
0
LINE
8
boundary
62
5
39
2
10
249.102353
20
175.466276
11
288.375249
21
175.466276
0
LINE
8
boundary
62
5
39
2
10
288.375249
20
175.466276
11
288.470250
21
186.493459
0
LINE
8
boundary
62
5
39
2
10
288.470250
20
186.493459
11
288.470250
21
188.432841
0
LINE
8
boundary
62
5
39
2
10
288.470250
20
188.432841
11
249.102353
21
188.582841
0
LINE
8
boundary
62
5
39
2
10
249.102353
20
188.582841
11
249.102353
21
191.482841
0
LINE
8
boundary
62
5
39
2
10
249.102353
20
191.482841
11
288.375249
21
191.482841
0
LINE
8
boundary
62
5
39
2
10
288.375249
20
191.482841
11
288.470250
21
212.357400
0
LINE
8
boundary
62
5
39
2
10
288.470250
20
212.357400
11
182.445874
21
212.507400
0
LINE
8
boundary
62
5
39
2
10
182.445874
20
212.507400
11
182.445874
21
215.407400
0
LINE
8
boundary
62
5
39
2
10
182.445874
20
215.407400
11
288.375250
21
215.407399
0
LINE
8
boundary
62
5
39
2
10
288.375250
20
215.407399
11
288.470249
21
216.312800
0
LINE
8
boundary
62
5
39
2
10
288.470249
20
216.312800
11
288.470249
21
216.867368
0
LINE
8
boundary
62
5
39
2
10
288.470249
20
216.867368
11
288.470249
21
218.504190
0
LINE
8
boundary
62
5
39
2
10
288.470249
20
218.504190
11
288.470249
21
219.018436
0
LINE
8
boundary
62
5
39
2
10
288.470249
20
219.018436
11
288.470250
21
219.818198
0
LINE
8
boundary
62
5
39
2
10
288.470250
20
219.818198
11
288.470249
21
227.378065
0
LINE
8
boundary
62
5
39
2
10
288.470249
20
227.378065
11
278.757840
21
227.378065
0
LINE
8
boundary
62
5
39
2
10
278.757840
20
227.378065
11
228.470257
21
227.378064
0
LINE
8
boundary
62
5
39
2
10
228.470257
20
227.378064
11
209.743833
21
226.225764
0
LINE
8
boundary
62
5
39
2
10
209.743833
20
226.225764
11
142.386973
21
222.081065
0
LINE
8
boundary
62
5
39
2
10
142.386973
20
222.081065
11
142.387681
21
222.809138
0
LINE
8
boundary
62
5
39
2
10
142.387681
20
222.809138
11
142.388259
21
223.401669
0
LINE
8
boundary
62
5
39
2
10
142.388259
20
223.401669
11
142.391122
21
226.341543
0
LINE
8
boundary
62
5
39
2
10
142.391122
20
226.341543
11
142.392098
21
227.342802
0
LINE
8
boundary
62
5
39
2
10
142.392098
20
227.342802
11
142.392734
21
227.995502
0
LINE
8
boundary
62
5
39
2
10
142.392734
20
227.995502
11
142.393471
21
228.754372
0
LINE
8
boundary
62
5
39
2
10
142.393471
20
228.754372
11
142.394308
21
229.612716
0
LINE
8
boundary
62
5
39
2
10
142.394308
20
229.612716
11
142.395222
21
230.551030
0
LINE
8
boundary
62
5
39
2
10
142.395222
20
230.551030
11
142.396179
21
231.534149
0
LINE
8
boundary
62
5
39
2
10
142.396179
20
231.534149
11
142.397129
21
232.511248
0
LINE
8
boundary
62
5
39
2
10
142.397129
20
232.511248
11
142.398017
21
233.420364
0
LINE
8
boundary
62
5
39
2
10
142.398017
20
233.420364
11
142.398773
21
234.197917
0
LINE
8
boundary
62
5
39
2
10
142.398773
20
234.197917
11
142.410734
21
246.482604
0
LINE
8
boundary
62
5
39
2
10
142.410734
20
246.482604
11
115.487690
21
246.632604
0
LINE
8
boundary
62
5
39
2
10
115.487690
20
246.632604
11
115.487690
21
249.532604
0
LINE
8
boundary
62
5
39
2
10
115.487690
20
249.532604
11
142.318850
21
249.532604
0
LINE
8
boundary
62
5
39
2
10
142.318850
20
249.532604
11
142.420637
21
256.653041
0
LINE
8
boundary
62
5
39
2
10
142.420637
20
256.653041
11
116.158625
21
256.803041
0
LINE
8
boundary
62
5
39
2
10
116.158625
20
256.803041
11
116.158625
21
259.703041
0
LINE
8
boundary
62
5
39
2
10
116.158625
20
259.703041
11
142.328753
21
259.703041
0
LINE
8
boundary
62
5
39
2
10
142.328753
20
259.703041
11
142.427080
21
263.270104
0
LINE
8
boundary
62
5
39
2
10
142.427080
20
263.270104
11
142.430374
21
266.650434
0
LINE
8
boundary
62
5
39
2
10
142.430374
20
266.650434
11
142.431051
21
267.348175
0
LINE
8
boundary
62
5
39
2
10
142.431051
20
267.348175
11
142.431803
21
268.116452
0
LINE
8
boundary
62
5
39
2
10
142.431803
20
268.116452
11
142.432575
21
268.910414
0
LINE
8
boundary
62
5
39
2
10
142.432575
20
268.910414
11
142.433329
21
269.688280
0
LINE
8
boundary
62
5
39
2
10
142.433329
20
269.688280
11
142.434041
21
270.416726
0
LINE
8
boundary
62
5
39
2
10
142.434041
20
270.416726
11
142.434681
21
271.073317
0
LINE
8
boundary
62
5
39
2
10
142.434681
20
271.073317
11
142.435711
21
272.132449
0
LINE
8
boundary
62
5
39
2
10
142.435711
20
272.132449
11
142.436420
21
272.860289
0
LINE
8
boundary
62
5
39
2
10
142.436420
20
272.860289
11
142.437104
21
273.564640
0
LINE
8
boundary
62
5
39
2
10
142.437104
20
273.564640
11
142.437206
21
277.237013
0
LINE
8
boundary
62
5
39
2
10
142.437206
20
277.237013
11
142.437206
21
278.392992
0
LINE
8
boundary
62
5
39
2
10
142.437206
20
278.392992
11
142.437206
21
281.613701
0
LINE
8
boundary
62
5
39
2
10
142.437206
20
281.613701
11
130.988013
21
281.613701
0
LINE
8
boundary
62
5
39
2
10
130.988013
20
281.613701
11
121.059626
21
281.613701
0
LINE
8
boundary
62
5
39
2
10
121.059626
20
281.613701
11
112.937076
21
278.852034
0
LINE
8
boundary
62
5
39
2
10
112.937076
20
278.852034
11
104.741745
21
276.065624
0
LINE
8
boundary
62
5
39
2
10
104.741745
20
276.065624
11
98.103903
21
270.423466
0
LINE
8
boundary
62
5
39
2
10
98.103903
20
270.423466
11
91.723845
21
265.000412
0
LINE
8
boundary
62
5
39
2
10
91.723845
20
265.000412
11
90.098388
21
258.092215
0
LINE
8
boundary
62
5
39
2
10
90.098388
20
258.092215
11
88.463088
21
251.142156
0
LINE
8
boundary
62
5
39
2
10
88.463088
20
251.142156
11
88.463083
21
228.103173
0
LINE
8
boundary
62
5
39
2
10
88.463083
20
228.103173
11
88.463086
21
218.762945
0
LINE
8
boundary
62
5
39
2
10
88.463086
20
218.762945
11
84.355416
21
218.510186
0
LINE
8
boundary
62
5
39
2
10
84.355416
20
218.510186
11
79.313673
21
218.199949
0
LINE
8
boundary
62
5
39
2
10
79.313673
20
218.199949
11
78.704361
21
217.643187
0
LINE
8
boundary
62
5
39
2
10
78.704361
20
217.643187
11
76.321498
21
215.465831
0
LINE
8
boundary
62
5
39
2
10
76.321498
20
215.465831
11
76.321498
21
199.199463
0
LINE
8
boundary
62
5
39
2
10
76.321498
20
199.199463
11
76.321498
21
196.668105
0
LINE
8
boundary
62
5
39
2
10
76.321498
20
196.668105
11
30.249654
21
196.668105
0
LINE
8
boundary
62
5
39
2
10
30.249654
20
196.668105
11
23.153870
21
196.668106
0
LINE
8
boundary
62
5
39
2
10
23.153870
20
196.668106
11
5.694904
21
183.695511
0
LINE
8
boundary
62
5
39
2
10
5.694904
20
183.695511
11
1.587500
21
180.643566
0
LINE
8
boundary
62
5
39
2
10
1.587500
20
180.643566
11
1.587500
21
141.859330
0
LINE
8
boundary
62
5
39
2
10
1.587500
20
141.859330
11
1.587500
21
102.953177
0
LINE
8
boundary
62
5
39
2
10
1.587500
20
102.953177
11
5.694904
21
99.901232
0
LINE
8
boundary
62
5
39
2
10
5.694904
20
99.901232
11
23.153871
21
86.928632
0
LINE
8
boundary
62
5
39
2
10
23.153871
20
86.928632
11
30.249655
21
86.928632
0
LINE
8
boundary
62
5
39
2
10
30.249655
20
86.928632
11
76.321498
21
86.928632
0
LINE
8
boundary
62
5
39
2
10
76.321498
20
86.928632
11
76.321498
21
84.383428
0
LINE
8
boundary
62
5
39
2
10
76.321498
20
84.383428
11
76.321499
21
67.929803
0
LINE
8
boundary
62
5
39
2
10
76.321499
20
67.929803
11
78.704216
21
65.750630
0
LINE
8
boundary
62
5
39
2
10
78.704216
20
65.750630
11
79.313491
21
65.193403
0
LINE
8
boundary
62
5
39
2
10
79.313491
20
65.193403
11
84.593031
21
64.864478
0
LINE
8
boundary
62
5
39
2
10
84.593031
20
64.864478
11
88.463088
21
64.623359
0
LINE
8
boundary
62
5
39
2
10
88.463088
20
64.623359
11
88.463083
21
55.920432
0
LINE
8
boundary
62
5
39
2
10
88.463083
20
55.920432
11
88.463088
21
32.059050
0
LINE
8
boundary
62
5
39
2
10
88.463088
20
32.059050
11
90.098388
21
25.108997
0
LINE
8
boundary
62
5
39
2
10
90.098388
20
25.108997
11
91.723845
21
18.200799
0
LINE
8
boundary
62
5
39
2
10
91.723845
20
18.200799
11
98.103903
21
12.777746
0
LINE
8
boundary
62
5
39
2
10
98.103903
20
12.777746
11
104.741745
21
7.135577
0
LINE
8
boundary
62
5
39
2
10
104.741745
20
7.135577
11
112.937076
21
4.349166
0
LINE
8
boundary
62
5
39
2
10
112.937076
20
4.349166
11
121.059626
21
1.587500
0
LINE
8
boundary
62
5
39
2
10
121.059626
20
1.587500
11
130.988013
21
1.587500
0
LINE
8
boundary
62
5
39
2
10
130.988013
20
1.587500
11
142.437206
21
1.587500
0
LINE
8
boundary
62
5
39
2
10
142.437206
20
1.587500
11
142.437206
21
5.909257
0
LINE
8
boundary
62
5
39
2
10
142.437206
20
5.909257
11
142.437206
21
9.531617
0
LINE
8
boundary
62
5
39
2
10
142.437206
20
9.531617
11
142.436420
21
10.340920
0
LINE
8
boundary
62
5
39
2
10
142.436420
20
10.340920
11
142.435710
21
11.068760
0
LINE
8
boundary
62
5
39
2
10
142.435710
20
11.068760
11
142.434681
21
12.127893
0
LINE
8
boundary
62
5
39
2
10
142.434681
20
12.127893
11
142.434042
21
12.784481
0
LINE
8
boundary
62
5
39
2
10
142.434042
20
12.784481
11
142.433329
21
13.512926
0
LINE
8
boundary
62
5
39
2
10
142.433329
20
13.512926
11
142.432576
21
14.290797
0
LINE
8
boundary
62
5
39
2
10
142.432576
20
14.290797
11
142.431802
21
15.084760
0
LINE
8
boundary
62
5
39
2
10
142.431802
20
15.084760
11
142.431051
21
15.853031
0
LINE
8
boundary
62
5
39
2
10
142.431051
20
15.853031
11
142.430373
21
16.550777
0
LINE
8
boundary
62
5
39
2
10
142.430373
20
16.550777
11
142.427080
21
19.931106
0
LINE
8
boundary
62
5
39
2
10
142.427080
20
19.931106
11
142.423080
21
24.039034
0
LINE
8
boundary
62
5
39
2
10
142.423080
20
24.039034
11
116.077011
21
24.189034
0
LINE
8
boundary
62
5
39
2
10
116.077011
20
24.189034
11
116.077011
21
27.089035
0
LINE
8
boundary
62
5
39
2
10
116.077011
20
27.089035
11
142.324964
21
27.089034
0
LINE
8
boundary
62
5
39
2
10
142.324964
20
27.089034
11
142.412777
21
34.620559
0
LINE
8
boundary
62
5
39
2
10
142.412777
20
34.620559
11
115.487153
21
34.770558
0
LINE
8
boundary
62
5
39
2
10
115.487153
20
34.770558
11
115.487153
21
37.670558
0
LINE
8
boundary
62
5
39
2
10
115.487153
20
37.670558
11
142.314661
21
37.670558
0
LINE
8
boundary
62
5
39
2
10
142.314661
20
37.670558
11
142.398772
21
49.003291
0
LINE
8
boundary
62
5
39
2
10
142.398772
20
49.003291
11
142.398017
21
49.780843
0
LINE
8
boundary
62
5
39
2
10
142.398017
20
49.780843
11
142.397128
21
50.689955
0
LINE
8
boundary
62
5
39
2
10
142.397128
20
50.689955
11
142.396178
21
51.667054
0
LINE
8
boundary
62
5
39
2
10
142.396178
20
51.667054
11
142.395222
21
52.650173
0
LINE
8
boundary
62
5
39
2
10
142.395222
20
52.650173
11
142.394309
21
53.588486
0
LINE
8
boundary
62
5
39
2
10
142.394309
20
53.588486
11
142.393471
21
54.446830
0
LINE
8
boundary
62
5
39
2
10
142.393471
20
54.446830
11
142.392734
21
55.205704
0
LINE
8
boundary
62
5
39
2
10
142.392734
20
55.205704
11
142.392098
21
55.858401
0
LINE
8
boundary
62
5
39
2
10
142.392098
20
55.858401
11
142.391562
21
56.407175
0
LINE
8
boundary
62
5
39
2
10
142.391562
20
56.407175
11
142.388265
21
59.796640
0
LINE
8
boundary
62
5
39
2
10
142.388265
20
59.796640
11
142.387741
21
60.334934
0
LINE
8
boundary
62
5
39
2
10
142.387741
20
60.334934
11
142.387225
21
60.864320
0
LINE
8
boundary
62
5
39
2
10
142.387225
20
60.864320
11
209.711266
21
57.069334
0
LINE
8
boundary
62
5
39
2
10
209.711266
20
57.069334
11
228.470257
21
55.900608
0
LINE
8
boundary
62
5
39
2
10
228.470257
20
55.900608
11
238.182666
21
55.900608
0
LINE
8
boundary
62
5
39
2
10
238.182666
20
55.900608
11
288.470249
21
55.900608
0
LINE
8
boundary
62
5
39
2
10
288.470249
20
55.900608
11
288.470249
21
62.098284
0
LINE
8
boundary
62
5
39
2
10
288.470249
20
62.098284
11
288.470249
21
62.651589
0
LINE
8
boundary
62
5
39
2
10
288.470249
20
62.651589
11
288.470249
21
63.544936
0
LINE
8
boundary
62
5
39
2
10
288.470249
20
63.544936
11
288.470250
21
64.082994
0
LINE
8
annotation
62
1
39
211
10
110.560110
20
23.239034
11
110.560110
21
28.039034
0
LINE
8
annotation
62
1
39
211
10
110.560110
20
28.039034
11
109.493008
21
26.971632
0
LINE
8
annotation
62
1
39
211
10
110.502449
20
33.820519
11
108.370654
21
33.820519
0
LINE
8
annotation
62
1
39
211
10
108.370654
20
33.820519
11
110.340502
21
36.991722
0
LINE
8
annotation
62
1
39
211
10
110.340502
20
36.991722
11
110.340502
21
36.991722
0
LINE
8
annotation
62
1
39
211
10
110.340502
20
36.991722
11
110.342857
21
36.994636
0
LINE
8
annotation
62
1
39
211
10
110.342857
20
36.994636
11
110.345115
21
36.997574
0
LINE
8
annotation
62
1
39
211
10
110.345115
20
36.997574
11
110.347292
21
37.000563
0
LINE
8
annotation
62
1
39
211
10
110.347292
20
37.000563
11
110.349401
21
37.003625
0
LINE
8
annotation
62
1
39
211
10
110.349401
20
37.003625
11
110.351459
21
37.006787
0
LINE
8
annotation
62
1
39
211
10
110.351459
20
37.006787
11
110.353479
21
37.010073
0
LINE
8
annotation
62
1
39
211
10
110.353479
20
37.010073
11
110.355477
21
37.013507
0
LINE
8
annotation
62
1
39
211
10
110.355477
20
37.013507
11
110.357468
21
37.017115
0
LINE
8
annotation
62
1
39
211
10
110.357468
20
37.017115
11
110.359466
21
37.020920
0
LINE
8
annotation
62
1
39
211
10
110.359466
20
37.020920
11
110.359466
21
37.020920
0
LINE
8
annotation
62
1
39
211
10
110.359466
20
37.020920
11
110.440801
21
37.195553
0
LINE
8
annotation
62
1
39
211
10
110.440801
20
37.195553
11
110.488315
21
37.376574
0
LINE
8
annotation
62
1
39
211
10
110.488315
20
37.376574
11
110.503173
21
37.559895
0
LINE
8
annotation
62
1
39
211
10
110.503173
20
37.559895
11
110.486540
21
37.741424
0
LINE
8
annotation
62
1
39
211
10
110.486540
20
37.741424
11
110.439580
21
37.917072
0
LINE
8
annotation
62
1
39
211
10
110.439580
20
37.917072
11
110.363457
21
38.082748
0
LINE
8
annotation
62
1
39
211
10
110.363457
20
38.082748
11
110.259336
21
38.234362
0
LINE
8
annotation
62
1
39
211
10
110.259336
20
38.234362
11
110.128382
21
38.367823
0
LINE
8
annotation
62
1
39
211
10
110.128382
20
38.367823
11
109.971757
21
38.479042
0
LINE
8
annotation
62
1
39
211
10
109.971757
20
38.479042
11
109.971757
21
38.479042
0
LINE
8
annotation
62
1
39
211
10
109.971757
20
38.479042
11
109.796640
21
38.559220
0
LINE
8
annotation
62
1
39
211
10
109.796640
20
38.559220
11
109.615341
21
38.606003
0
LINE
8
annotation
62
1
39
211
10
109.615341
20
38.606003
11
109.431913
21
38.620441
0
LINE
8
annotation
62
1
39
211
10
109.431913
20
38.620441
11
109.250411
21
38.603589
0
LINE
8
annotation
62
1
39
211
10
109.250411
20
38.603589
11
109.074887
21
38.556498
0
LINE
8
annotation
62
1
39
211
10
109.074887
20
38.556498
11
108.909394
21
38.480223
0
LINE
8
annotation
62
1
39
211
10
108.909394
20
38.480223
11
108.757986
21
38.375816
0
LINE
8
annotation
62
1
39
211
10
108.757986
20
38.375816
11
108.624716
21
38.244330
0
LINE
8
annotation
62
1
39
211
10
108.624716
20
38.244330
11
108.513636
21
38.086818
0
LINE
8
annotation
62
1
39
211
10
108.513636
20
38.086818
11
108.373664
21
37.818312
0
LINE
8
annotation
62
1
39
211
10
175.329375
20
66.843945
11
176.395272
21
66.843945
0
LINE
8
annotation
62
1
39
211
10
176.395272
20
66.843945
11
176.395272
21
66.843945
0
LINE
8
annotation
62
1
39
211
10
176.395272
20
66.843945
11
176.586976
21
66.861142
0
LINE
8
annotation
62
1
39
211
10
176.586976
20
66.861142
11
176.767363
21
66.910705
0
LINE
8
annotation
62
1
39
211
10
176.767363
20
66.910705
11
176.933433
21
66.989592
0
LINE
8
annotation
62
1
39
211
10
176.933433
20
66.989592
11
177.082185
21
67.094760
0
LINE
8
annotation
62
1
39
211
10
177.082185
20
67.094760
11
177.210618
21
67.223167
0
LINE
8
annotation
62
1
39
211
10
177.210618
20
67.223167
11
177.315734
21
67.371771
0
LINE
8
annotation
62
1
39
211
10
177.315734
20
67.371771
11
177.394531
21
67.537529
0
LINE
8
annotation
62
1
39
211
10
177.394531
20
67.537529
11
177.444010
21
67.717398
0
LINE
8
annotation
62
1
39
211
10
177.444010
20
67.717398
11
177.461169
21
67.908337
0
LINE
8
annotation
62
1
39
211
10
177.461169
20
67.908337
11
177.461169
21
68.442039
0
LINE
8
annotation
62
1
39
211
10
177.461169
20
68.442039
11
177.461169
21
68.442039
0
LINE
8
annotation
62
1
39
211
10
177.461169
20
68.442039
11
177.444010
21
68.632898
0
LINE
8
annotation
62
1
39
211
10
177.444010
20
68.632898
11
177.394531
21
68.812726
0
LINE
8
annotation
62
1
39
211
10
177.394531
20
68.812726
11
177.315734
21
68.978471
0
LINE
8
annotation
62
1
39
211
10
177.315734
20
68.978471
11
177.210618
21
69.127085
0
LINE
8
annotation
62
1
39
211
10
177.210618
20
69.127085
11
177.082185
21
69.255517
0
LINE
8
annotation
62
1
39
211
10
177.082185
20
69.255517
11
176.933433
21
69.360717
0
LINE
8
annotation
62
1
39
211
10
176.933433
20
69.360717
11
176.767363
21
69.439636
0
LINE
8
annotation
62
1
39
211
10
176.767363
20
69.439636
11
176.586976
21
69.489224
0
LINE
8
annotation
62
1
39
211
10
176.586976
20
69.489224
11
176.395272
21
69.506431
0
LINE
8
annotation
62
1
39
211
10
176.395272
20
69.506431
11
175.861571
21
69.506431
0
LINE
8
annotation
62
1
39
211
10
175.861571
20
69.506431
11
176.395272
21
69.506431
0
LINE
8
annotation
62
1
39
211
10
176.395272
20
69.506431
11
176.395272
21
69.506431
0
LINE
8
annotation
62
1
39
211
10
176.395272
20
69.506431
11
176.586976
21
69.523642
0
LINE
8
annotation
62
1
39
211
10
176.586976
20
69.523642
11
176.767363
21
69.573259
0
LINE
8
annotation
62
1
39
211
10
176.767363
20
69.573259
11
176.933433
21
69.652256
0
LINE
8
annotation
62
1
39
211
10
176.933433
20
69.652256
11
177.082185
21
69.757609
0
LINE
8
annotation
62
1
39
211
10
177.082185
20
69.757609
11
177.210618
21
69.886293
0
LINE
8
annotation
62
1
39
211
10
177.210618
20
69.886293
11
177.315734
21
70.035282
0
LINE
8
annotation
62
1
39
211
10
177.315734
20
70.035282
11
177.394531
21
70.201552
0
LINE
8
annotation
62
1
39
211
10
177.394531
20
70.201552
11
177.444010
21
70.382078
0
LINE
8
annotation
62
1
39
211
10
177.444010
20
70.382078
11
177.461169
21
70.573833
0
LINE
8
annotation
62
1
39
211
10
177.461169
20
70.573833
11
177.461169
21
70.573833
0
LINE
8
annotation
62
1
39
211
10
177.461169
20
70.573833
11
177.444010
21
70.764693
0
LINE
8
annotation
62
1
39
211
10
177.444010
20
70.764693
11
177.394531
21
70.944521
0
LINE
8
annotation
62
1
39
211
10
177.394531
20
70.944521
11
177.315734
21
71.110266
0
LINE
8
annotation
62
1
39
211
10
177.315734
20
71.110266
11
177.210618
21
71.258880
0
LINE
8
annotation
62
1
39
211
10
177.210618
20
71.258880
11
177.082185
21
71.387311
0
LINE
8
annotation
62
1
39
211
10
177.082185
20
71.387311
11
176.933433
21
71.492512
0
LINE
8
annotation
62
1
39
211
10
176.933433
20
71.492512
11
176.767363
21
71.571431
0
LINE
8
annotation
62
1
39
211
10
176.767363
20
71.571431
11
176.586976
21
71.621019
0
LINE
8
annotation
62
1
39
211
10
176.586976
20
71.621019
11
176.395272
21
71.638226
0
LINE
8
annotation
62
1
39
211
10
176.395272
20
71.638226
11
175.329375
21
71.638226
0
LINE
8
annotation
62
1
39
211
10
48.979469
20
92.794125
11
46.314274
21
92.794125
0
LINE
8
annotation
62
1
39
211
10
46.314274
20
92.794125
11
47.378667
21
96.527024
0
LINE
8
annotation
62
1
39
211
10
48.180573
20
91.727024
11
48.180573
21
93.858819
0
LINE
8
annotation
62
1
39
211
10
244.384348
20
92.794125
11
241.719153
21
92.794125
0
LINE
8
annotation
62
1
39
211
10
241.719153
20
92.794125
11
242.783546
21
96.527024
0
LINE
8
annotation
62
1
39
211
10
243.585452
20
91.727024
11
243.585452
21
93.858819
0
LINE
8
annotation
62
1
39
211
10
41.044487
20
107.123233
11
42.110385
21
107.123233
0
LINE
8
annotation
62
1
39
211
10
42.110385
20
107.123233
11
42.110385
21
107.123233
0
LINE
8
annotation
62
1
39
211
10
42.110385
20
107.123233
11
42.301692
21
107.140434
0
LINE
8
annotation
62
1
39
211
10
42.301692
20
107.140434
11
42.481869
21
107.190023
0
LINE
8
annotation
62
1
39
211
10
42.481869
20
107.190023
11
42.647876
21
107.268981
0
LINE
8
annotation
62
1
39
211
10
42.647876
20
107.268981
11
42.796678
21
107.374286
0
LINE
8
annotation
62
1
39
211
10
42.796678
20
107.374286
11
42.925236
21
107.502920
0
LINE
8
annotation
62
1
39
211
10
42.925236
20
107.502920
11
43.030512
21
107.651862
0
LINE
8
annotation
62
1
39
211
10
43.030512
20
107.651862
11
43.109471
21
107.818092
0
LINE
8
annotation
62
1
39
211
10
43.109471
20
107.818092
11
43.159073
21
107.998589
0
LINE
8
annotation
62
1
39
211
10
43.159073
20
107.998589
11
43.176282
21
108.190335
0
LINE
8
annotation
62
1
39
211
10
43.176282
20
108.190335
11
43.176282
21
108.721327
0
LINE
8
annotation
62
1
39
211
10
43.176282
20
108.721327
11
43.176282
21
108.721327
0
LINE
8
annotation
62
1
39
211
10
43.176282
20
108.721327
11
43.159083
21
108.912979
0
LINE
8
annotation
62
1
39
211
10
43.159083
20
108.912979
11
43.109505
21
109.093228
0
LINE
8
annotation
62
1
39
211
10
43.109505
20
109.093228
11
43.030579
21
109.259097
0
LINE
8
annotation
62
1
39
211
10
43.030579
20
109.259097
11
42.925335
21
109.407612
0
LINE
8
annotation
62
1
39
211
10
42.925335
20
109.407612
11
42.796802
21
109.535796
0
LINE
8
annotation
62
1
39
211
10
42.796802
20
109.535796
11
42.648010
21
109.640674
0
LINE
8
annotation
62
1
39
211
10
42.648010
20
109.640674
11
42.481990
21
109.719271
0
LINE
8
annotation
62
1
39
211
10
42.481990
20
109.719271
11
42.301772
21
109.768611
0
LINE
8
annotation
62
1
39
211
10
42.301772
20
109.768611
11
42.110385
21
109.785719
0
LINE
8
annotation
62
1
39
211
10
42.110385
20
109.785719
11
41.044487
21
109.785719
0
LINE
8
annotation
62
1
39
211
10
41.044487
20
109.785719
11
41.044487
21
111.923233
0
LINE
8
annotation
62
1
39
211
10
41.044487
20
111.923233
11
43.176282
21
111.923233
0
LINE
8
annotation
62
1
39
211
10
241.985853
20
107.123233
11
243.051751
21
107.123233
0
LINE
8
annotation
62
1
39
211
10
243.051751
20
107.123233
11
243.051751
21
107.123233
0
LINE
8
annotation
62
1
39
211
10
243.051751
20
107.123233
11
243.243059
21
107.140434
0
LINE
8
annotation
62
1
39
211
10
243.243059
20
107.140434
11
243.423235
21
107.190023
0
LINE
8
annotation
62
1
39
211
10
243.423235
20
107.190023
11
243.589243
21
107.268981
0
LINE
8
annotation
62
1
39
211
10
243.589243
20
107.268981
11
243.738044
21
107.374286
0
LINE
8
annotation
62
1
39
211
10
243.738044
20
107.374286
11
243.866602
21
107.502920
0
LINE
8
annotation
62
1
39
211
10
243.866602
20
107.502920
11
243.971878
21
107.651862
0
LINE
8
annotation
62
1
39
211
10
243.971878
20
107.651862
11
244.050837
21
107.818092
0
LINE
8
annotation
62
1
39
211
10
244.050837
20
107.818092
11
244.100439
21
107.998589
0
LINE
8
annotation
62
1
39
211
10
244.100439
20
107.998589
11
244.117648
21
108.190335
0
LINE
8
annotation
62
1
39
211
10
244.117648
20
108.190335
11
244.117648
21
108.721327
0
LINE
8
annotation
62
1
39
211
10
244.117648
20
108.721327
11
244.117648
21
108.721327
0
LINE
8
annotation
62
1
39
211
10
244.117648
20
108.721327
11
244.100449
21
108.912979
0
LINE
8
annotation
62
1
39
211
10
244.100449
20
108.912979
11
244.050871
21
109.093228
0
LINE
8
annotation
62
1
39
211
10
244.050871
20
109.093228
11
243.971945
21
109.259097
0
LINE
8
annotation
62
1
39
211
10
243.971945
20
109.259097
11
243.866701
21
109.407612
0
LINE
8
annotation
62
1
39
211
10
243.866701
20
109.407612
11
243.738168
21
109.535796
0
LINE
8
annotation
62
1
39
211
10
243.738168
20
109.535796
11
243.589376
21
109.640674
0
LINE
8
annotation
62
1
39
211
10
243.589376
20
109.640674
11
243.423356
21
109.719271
0
LINE
8
annotation
62
1
39
211
10
243.423356
20
109.719271
11
243.243138
21
109.768611
0
LINE
8
annotation
62
1
39
211
10
243.243138
20
109.768611
11
243.051751
21
109.785719
0
LINE
8
annotation
62
1
39
211
10
243.051751
20
109.785719
11
241.985853
21
109.785719
0
LINE
8
annotation
62
1
39
211
10
241.985853
20
109.785719
11
241.985853
21
111.923233
0
LINE
8
annotation
62
1
39
211
10
241.985853
20
111.923233
11
244.117648
21
111.923233
0
LINE
8
annotation
62
1
39
211
10
42.645591
20
176.416276
11
42.645591
21
176.416276
0
LINE
8
annotation
62
1
39
211
10
42.645591
20
176.416276
11
42.340238
21
176.301787
0
LINE
8
annotation
62
1
39
211
10
42.340238
20
176.301787
11
42.060037
21
176.147527
0
LINE
8
annotation
62
1
39
211
10
42.060037
20
176.147527
11
41.807864
21
175.957361
0
LINE
8
annotation
62
1
39
211
10
41.807864
20
175.957361
11
41.586595
21
175.735153
0
LINE
8
annotation
62
1
39
211
10
41.586595
20
175.735153
11
41.399106
21
175.484768
0
LINE
8
annotation
62
1
39
211
10
41.399106
20
175.484768
11
41.248275
21
175.210072
0
LINE
8
annotation
62
1
39
211
10
41.248275
20
175.210072
11
41.136977
21
174.914929
0
LINE
8
annotation
62
1
39
211
10
41.136977
20
174.914929
11
41.068089
21
174.603204
0
LINE
8
annotation
62
1
39
211
10
41.068089
20
174.603204
11
41.044487
21
174.278762
0
LINE
8
annotation
62
1
39
211
10
41.044487
20
174.278762
11
41.044487
21
172.683378
0
LINE
8
annotation
62
1
39
211
10
41.044487
20
172.683378
11
41.044487
21
172.683378
0
LINE
8
annotation
62
1
39
211
10
41.044487
20
172.683378
11
41.061696
21
172.491632
0
LINE
8
annotation
62
1
39
211
10
41.061696
20
172.491632
11
41.111299
21
172.311135
0
LINE
8
annotation
62
1
39
211
10
41.111299
20
172.311135
11
41.190257
21
172.144905
0
LINE
8
annotation
62
1
39
211
10
41.190257
20
172.144905
11
41.295534
21
171.995963
0
LINE
8
annotation
62
1
39
211
10
41.295534
20
171.995963
11
41.424091
21
171.867329
0
LINE
8
annotation
62
1
39
211
10
41.424091
20
171.867329
11
41.572893
21
171.762024
0
LINE
8
annotation
62
1
39
211
10
41.572893
20
171.762024
11
41.738900
21
171.683066
0
LINE
8
annotation
62
1
39
211
10
41.738900
20
171.683066
11
41.919077
21
171.633477
0
LINE
8
annotation
62
1
39
211
10
41.919077
20
171.633477
11
42.110385
21
171.616276
0
LINE
8
annotation
62
1
39
211
10
42.110385
20
171.616276
11
42.110385
21
171.616276
0
LINE
8
annotation
62
1
39
211
10
42.110385
20
171.616276
11
42.302089
21
171.633477
0
LINE
8
annotation
62
1
39
211
10
42.302089
20
171.633477
11
42.482476
21
171.683066
0
LINE
8
annotation
62
1
39
211
10
42.482476
20
171.683066
11
42.648545
21
171.762024
0
LINE
8
annotation
62
1
39
211
10
42.648545
20
171.762024
11
42.797297
21
171.867329
0
LINE
8
annotation
62
1
39
211
10
42.797297
20
171.867329
11
42.925731
21
171.995963
0
LINE
8
annotation
62
1
39
211
10
42.925731
20
171.995963
11
43.030847
21
172.144905
0
LINE
8
annotation
62
1
39
211
10
43.030847
20
172.144905
11
43.109644
21
172.311135
0
LINE
8
annotation
62
1
39
211
10
43.109644
20
172.311135
11
43.159122
21
172.491632
0
LINE
8
annotation
62
1
39
211
10
43.159122
20
172.491632
11
43.176282
21
172.683378
0
LINE
8
annotation
62
1
39
211
10
43.176282
20
172.683378
11
43.176282
21
173.214370
0
LINE
8
annotation
62
1
39
211
10
43.176282
20
173.214370
11
43.176282
21
173.214370
0
LINE
8
annotation
62
1
39
211
10
43.176282
20
173.214370
11
43.159122
21
173.406022
0
LINE
8
annotation
62
1
39
211
10
43.159122
20
173.406022
11
43.109644
21
173.586271
0
LINE
8
annotation
62
1
39
211
10
43.109644
20
173.586271
11
43.030847
21
173.752140
0
LINE
8
annotation
62
1
39
211
10
43.030847
20
173.752140
11
42.925731
21
173.900655
0
LINE
8
annotation
62
1
39
211
10
42.925731
20
173.900655
11
42.797297
21
174.028839
0
LINE
8
annotation
62
1
39
211
10
42.797297
20
174.028839
11
42.648545
21
174.133717
0
LINE
8
annotation
62
1
39
211
10
42.648545
20
174.133717
11
42.482476
21
174.212314
0
LINE
8
annotation
62
1
39
211
10
42.482476
20
174.212314
11
42.302089
21
174.261654
0
LINE
8
annotation
62
1
39
211
10
42.302089
20
174.261654
11
42.110385
21
174.278762
0
LINE
8
annotation
62
1
39
211
10
42.110385
20
174.278762
11
41.044487
21
174.278762
0
LINE
8
annotation
62
1
39
211
10
40.910987
20
171.016276
11
43.310987
21
171.016276
0
LINE
8
annotation
62
1
39
211
10
243.586957
20
176.416276
11
243.586957
21
176.416276
0
LINE
8
annotation
62
1
39
211
10
243.586957
20
176.416276
11
243.281604
21
176.301787
0
LINE
8
annotation
62
1
39
211
10
243.281604
20
176.301787
11
243.001403
21
176.147527
0
LINE
8
annotation
62
1
39
211
10
243.001403
20
176.147527
11
242.749230
21
175.957361
0
LINE
8
annotation
62
1
39
211
10
242.749230
20
175.957361
11
242.527961
21
175.735153
0
LINE
8
annotation
62
1
39
211
10
242.527961
20
175.735153
11
242.340472
21
175.484768
0
LINE
8
annotation
62
1
39
211
10
242.340472
20
175.484768
11
242.189641
21
175.210072
0
LINE
8
annotation
62
1
39
211
10
242.189641
20
175.210072
11
242.078343
21
174.914929
0
LINE
8
annotation
62
1
39
211
10
242.078343
20
174.914929
11
242.009455
21
174.603204
0
LINE
8
annotation
62
1
39
211
10
242.009455
20
174.603204
11
241.985853
21
174.278762
0
LINE
8
annotation
62
1
39
211
10
241.985853
20
174.278762
11
241.985853
21
172.683378
0
LINE
8
annotation
62
1
39
211
10
241.985853
20
172.683378
11
241.985853
21
172.683378
0
LINE
8
annotation
62
1
39
211
10
241.985853
20
172.683378
11
242.003062
21
172.491632
0
LINE
8
annotation
62
1
39
211
10
242.003062
20
172.491632
11
242.052665
21
172.311135
0
LINE
8
annotation
62
1
39
211
10
242.052665
20
172.311135
11
242.131623
21
172.144905
0
LINE
8
annotation
62
1
39
211
10
242.131623
20
172.144905
11
242.236900
21
171.995963
0
LINE
8
annotation
62
1
39
211
10
242.236900
20
171.995963
11
242.365457
21
171.867329
0
LINE
8
annotation
62
1
39
211
10
242.365457
20
171.867329
11
242.514259
21
171.762024
0
LINE
8
annotation
62
1
39
211
10
242.514259
20
171.762024
11
242.680266
21
171.683066
0
LINE
8
annotation
62
1
39
211
10
242.680266
20
171.683066
11
242.860443
21
171.633477
0
LINE
8
annotation
62
1
39
211
10
242.860443
20
171.633477
11
243.051751
21
171.616276
0
LINE
8
annotation
62
1
39
211
10
243.051751
20
171.616276
11
243.051751
21
171.616276
0
LINE
8
annotation
62
1
39
211
10
243.051751
20
171.616276
11
243.243455
21
171.633477
0
LINE
8
annotation
62
1
39
211
10
243.243455
20
171.633477
11
243.423842
21
171.683066
0
LINE
8
annotation
62
1
39
211
10
243.423842
20
171.683066
11
243.589911
21
171.762024
0
LINE
8
annotation
62
1
39
211
10
243.589911
20
171.762024
11
243.738663
21
171.867329
0
LINE
8
annotation
62
1
39
211
10
243.738663
20
171.867329
11
243.867097
21
171.995963
0
LINE
8
annotation
62
1
39
211
10
243.867097
20
171.995963
11
243.972213
21
172.144905
0
LINE
8
annotation
62
1
39
211
10
243.972213
20
172.144905
11
244.051010
21
172.311135
0
LINE
8
annotation
62
1
39
211
10
244.051010
20
172.311135
11
244.100489
21
172.491632
0
LINE
8
annotation
62
1
39
211
10
244.100489
20
172.491632
11
244.117648
21
172.683378
0
LINE
8
annotation
62
1
39
211
10
244.117648
20
172.683378
11
244.117648
21
173.214370
0
LINE
8
annotation
62
1
39
211
10
244.117648
20
173.214370
11
244.117648
21
173.214370
0
LINE
8
annotation
62
1
39
211
10
244.117648
20
173.214370
11
244.100489
21
173.406022
0
LINE
8
annotation
62
1
39
211
10
244.100489
20
173.406022
11
244.051010
21
173.586271
0
LINE
8
annotation
62
1
39
211
10
244.051010
20
173.586271
11
243.972213
21
173.752140
0
LINE
8
annotation
62
1
39
211
10
243.972213
20
173.752140
11
243.867097
21
173.900655
0
LINE
8
annotation
62
1
39
211
10
243.867097
20
173.900655
11
243.738663
21
174.028839
0
LINE
8
annotation
62
1
39
211
10
243.738663
20
174.028839
11
243.589911
21
174.133717
0
LINE
8
annotation
62
1
39
211
10
243.589911
20
174.133717
11
243.423842
21
174.212314
0
LINE
8
annotation
62
1
39
211
10
243.423842
20
174.212314
11
243.243455
21
174.261654
0
LINE
8
annotation
62
1
39
211
10
243.243455
20
174.261654
11
243.051751
21
174.278762
0
LINE
8
annotation
62
1
39
211
10
243.051751
20
174.278762
11
241.985853
21
174.278762
0
LINE
8
annotation
62
1
39
211
10
241.852353
20
171.016276
11
244.252353
21
171.016276
0
LINE
8
annotation
62
1
39
211
10
48.025808
20
187.632841
11
49.092910
21
192.432841
0
LINE
8
annotation
62
1
39
211
10
49.092910
20
192.432841
11
46.958406
21
192.432841
0
LINE
8
annotation
62
1
39
211
10
49.092910
20
190.295327
11
48.025808
21
190.295327
0
LINE
8
annotation
62
1
39
211
10
243.051751
20
187.632841
11
244.118852
21
192.432841
0
LINE
8
annotation
62
1
39
211
10
244.118852
20
192.432841
11
241.984348
21
192.432841
0
LINE
8
annotation
62
1
39
211
10
244.118852
20
190.295327
11
243.051751
21
190.295327
0
LINE
8
annotation
62
1
39
211
10
175.329374
20
212.621641
11
175.329374
21
212.621641
0
LINE
8
annotation
62
1
39
211
10
175.329374
20
212.621641
11
175.346584
21
212.429989
0
LINE
8
annotation
62
1
39
211
10
175.346584
20
212.429989
11
175.396186
21
212.249740
0
LINE
8
annotation
62
1
39
211
10
175.396186
20
212.249740
11
175.475144
21
212.083871
0
LINE
8
annotation
62
1
39
211
10
175.475144
20
212.083871
11
175.580421
21
211.935356
0
LINE
8
annotation
62
1
39
211
10
175.580421
20
211.935356
11
175.708979
21
211.807172
0
LINE
8
annotation
62
1
39
211
10
175.708979
20
211.807172
11
175.857780
21
211.702294
0
LINE
8
annotation
62
1
39
211
10
175.857780
20
211.702294
11
176.023788
21
211.623697
0
LINE
8
annotation
62
1
39
211
10
176.023788
20
211.623697
11
176.203964
21
211.574357
0
LINE
8
annotation
62
1
39
211
10
176.203964
20
211.574357
11
176.395272
21
211.557249
0
LINE
8
annotation
62
1
39
211
10
176.395272
20
211.557249
11
176.395272
21
211.557249
0
LINE
8
annotation
62
1
39
211
10
176.395272
20
211.557249
11
176.586580
21
211.574357
0
LINE
8
annotation
62
1
39
211
10
176.586580
20
211.574357
11
176.766756
21
211.623697
0
LINE
8
annotation
62
1
39
211
10
176.766756
20
211.623697
11
176.932764
21
211.702294
0
LINE
8
annotation
62
1
39
211
10
176.932764
20
211.702294
11
177.081565
21
211.807172
0
LINE
8
annotation
62
1
39
211
10
177.081565
20
211.807172
11
177.210123
21
211.935356
0
LINE
8
annotation
62
1
39
211
10
177.210123
20
211.935356
11
177.315399
21
212.083871
0
LINE
8
annotation
62
1
39
211
10
177.315399
20
212.083871
11
177.394358
21
212.249740
0
LINE
8
annotation
62
1
39
211
10
177.394358
20
212.249740
11
177.443960
21
212.429989
0
LINE
8
annotation
62
1
39
211
10
177.443960
20
212.429989
11
177.461169
21
212.621641
0
LINE
8
annotation
62
1
39
211
10
177.461169
20
212.621641
11
177.461169
21
213.152633
0
LINE
8
annotation
62
1
39
211
10
177.461169
20
213.152633
11
177.461169
21
213.152633
0
LINE
8
annotation
62
1
39
211
10
177.461169
20
213.152633
11
177.443970
21
213.344379
0
LINE
8
annotation
62
1
39
211
10
177.443970
20
213.344379
11
177.394392
21
213.524877
0
LINE
8
annotation
62
1
39
211
10
177.394392
20
213.524877
11
177.315466
21
213.691106
0
LINE
8
annotation
62
1
39
211
10
177.315466
20
213.691106
11
177.210222
21
213.840048
0
LINE
8
annotation
62
1
39
211
10
177.210222
20
213.840048
11
177.081689
21
213.968682
0
LINE
8
annotation
62
1
39
211
10
177.081689
20
213.968682
11
176.932897
21
214.073987
0
LINE
8
annotation
62
1
39
211
10
176.932897
20
214.073987
11
176.766877
21
214.152945
0
LINE
8
annotation
62
1
39
211
10
176.766877
20
214.152945
11
176.586659
21
214.202534
0
LINE
8
annotation
62
1
39
211
10
176.586659
20
214.202534
11
176.395272
21
214.219735
0
LINE
8
annotation
62
1
39
211
10
176.395272
20
214.219735
11
176.395272
21
214.219735
0
LINE
8
annotation
62
1
39
211
10
176.395272
20
214.219735
11
176.203885
21
214.202524
0
LINE
8
annotation
62
1
39
211
10
176.203885
20
214.202524
11
176.023666
21
214.152910
0
LINE
8
annotation
62
1
39
211
10
176.023666
20
214.152910
11
175.857646
21
214.073921
0
LINE
8
annotation
62
1
39
211
10
175.857646
20
214.073921
11
175.708855
21
213.968583
0
LINE
8
annotation
62
1
39
211
10
175.708855
20
213.968583
11
175.580322
21
213.839924
0
LINE
8
annotation
62
1
39
211
10
175.580322
20
213.839924
11
175.475077
21
213.690973
0
LINE
8
annotation
62
1
39
211
10
175.475077
20
213.690973
11
175.396151
21
213.524755
0
LINE
8
annotation
62
1
39
211
10
175.396151
20
213.524755
11
175.346574
21
213.344300
0
LINE
8
annotation
62
1
39
211
10
175.346574
20
213.344300
11
175.329374
21
213.152633
0
LINE
8
annotation
62
1
39
211
10
175.329374
20
213.152633
11
175.329374
21
212.621641
0
LINE
8
annotation
62
1
39
211
10
177.461169
20
215.287137
11
177.461169
21
215.287137
0
LINE
8
annotation
62
1
39
211
10
177.461169
20
215.287137
11
177.443970
21
215.477997
0
LINE
8
annotation
62
1
39
211
10
177.443970
20
215.477997
11
177.394392
21
215.657825
0
LINE
8
annotation
62
1
39
211
10
177.394392
20
215.657825
11
177.315466
21
215.823570
0
LINE
8
annotation
62
1
39
211
10
177.315466
20
215.823570
11
177.210222
21
215.972184
0
LINE
8
annotation
62
1
39
211
10
177.210222
20
215.972184
11
177.081689
21
216.100615
0
LINE
8
annotation
62
1
39
211
10
177.081689
20
216.100615
11
176.932897
21
216.205816
0
LINE
8
annotation
62
1
39
211
10
176.932897
20
216.205816
11
176.766877
21
216.284735
0
LINE
8
annotation
62
1
39
211
10
176.766877
20
216.284735
11
176.586659
21
216.334323
0
LINE
8
annotation
62
1
39
211
10
176.586659
20
216.334323
11
176.395272
21
216.351530
0
LINE
8
annotation
62
1
39
211
10
176.395272
20
216.351530
11
176.395272
21
216.351530
0
LINE
8
annotation
62
1
39
211
10
176.395272
20
216.351530
11
176.203885
21
216.334323
0
LINE
8
annotation
62
1
39
211
10
176.203885
20
216.334323
11
176.023666
21
216.284735
0
LINE
8
annotation
62
1
39
211
10
176.023666
20
216.284735
11
175.857646
21
216.205816
0
LINE
8
annotation
62
1
39
211
10
175.857646
20
216.205816
11
175.708855
21
216.100615
0
LINE
8
annotation
62
1
39
211
10
175.708855
20
216.100615
11
175.580322
21
215.972184
0
LINE
8
annotation
62
1
39
211
10
175.580322
20
215.972184
11
175.475077
21
215.823570
0
LINE
8
annotation
62
1
39
211
10
175.475077
20
215.823570
11
175.396151
21
215.657825
0
LINE
8
annotation
62
1
39
211
10
175.396151
20
215.657825
11
175.346574
21
215.477997
0
LINE
8
annotation
62
1
39
211
10
175.346574
20
215.477997
11
175.329374
21
215.287137
0
LINE
8
annotation
62
1
39
211
10
175.329374
20
215.287137
11
175.329374
21
215.287137
0
LINE
8
annotation
62
1
39
211
10
175.329374
20
215.287137
11
175.346584
21
215.095382
0
LINE
8
annotation
62
1
39
211
10
175.346584
20
215.095382
11
175.396186
21
214.914856
0
LINE
8
annotation
62
1
39
211
10
175.396186
20
214.914856
11
175.475144
21
214.748586
0
LINE
8
annotation
62
1
39
211
10
175.475144
20
214.748586
11
175.580421
21
214.599597
0
LINE
8
annotation
62
1
39
211
10
175.580421
20
214.599597
11
175.708979
21
214.470914
0
LINE
8
annotation
62
1
39
211
10
175.708979
20
214.470914
11
175.857780
21
214.365560
0
LINE
8
annotation
62
1
39
211
10
175.857780
20
214.365560
11
176.023788
21
214.286563
0
LINE
8
annotation
62
1
39
211
10
176.023788
20
214.286563
11
176.203964
21
214.236946
0
LINE
8
annotation
62
1
39
211
10
176.203964
20
214.236946
11
176.395272
21
214.219735
0
LINE
8
annotation
62
1
39
211
10
176.395272
20
214.219735
11
176.395272
21
214.219735
0
LINE
8
annotation
62
1
39
211
10
176.395272
20
214.219735
11
176.586580
21
214.236946
0
LINE
8
annotation
62
1
39
211
10
176.586580
20
214.236946
11
176.766756
21
214.286563
0
LINE
8
annotation
62
1
39
211
10
176.766756
20
214.286563
11
176.932764
21
214.365560
0
LINE
8
annotation
62
1
39
211
10
176.932764
20
214.365560
11
177.081565
21
214.470914
0
LINE
8
annotation
62
1
39
211
10
177.081565
20
214.470914
11
177.210123
21
214.599597
0
LINE
8
annotation
62
1
39
211
10
177.210123
20
214.599597
11
177.315399
21
214.748586
0
LINE
8
annotation
62
1
39
211
10
177.315399
20
214.748586
11
177.394358
21
214.914856
0
LINE
8
annotation
62
1
39
211
10
177.394358
20
214.914856
11
177.443960
21
215.095382
0
LINE
8
annotation
62
1
39
211
10
177.443960
20
215.095382
11
177.461169
21
215.287137
0
LINE
8
annotation
62
1
39
211
10
108.903387
20
245.682604
11
108.903387
21
245.682604
0
LINE
8
annotation
62
1
39
211
10
108.903387
20
245.682604
11
109.208202
21
245.796193
0
LINE
8
annotation
62
1
39
211
10
109.208202
20
245.796193
11
109.487984
21
245.949730
0
LINE
8
annotation
62
1
39
211
10
109.487984
20
245.949730
11
109.739843
21
246.139301
0
LINE
8
annotation
62
1
39
211
10
109.739843
20
246.139301
11
109.960886
21
246.360996
0
LINE
8
annotation
62
1
39
211
10
109.960886
20
246.360996
11
110.148224
21
246.610902
0
LINE
8
annotation
62
1
39
211
10
110.148224
20
246.610902
11
110.298963
21
246.885107
0
LINE
8
annotation
62
1
39
211
10
110.298963
20
246.885107
11
110.410214
21
247.179700
0
LINE
8
annotation
62
1
39
211
10
110.410214
20
247.179700
11
110.479085
21
247.490768
0
LINE
8
annotation
62
1
39
211
10
110.479085
20
247.490768
11
110.502684
21
247.814399
0
LINE
8
annotation
62
1
39
211
10
110.502684
20
247.814399
11
110.502684
21
249.415202
0
LINE
8
annotation
62
1
39
211
10
110.502684
20
249.415202
11
110.502684
21
249.415202
0
LINE
8
annotation
62
1
39
211
10
110.502684
20
249.415202
11
110.485525
21
249.606958
0
LINE
8
annotation
62
1
39
211
10
110.485525
20
249.606958
11
110.436046
21
249.787483
0
LINE
8
annotation
62
1
39
211
10
110.436046
20
249.787483
11
110.357249
21
249.953753
0
LINE
8
annotation
62
1
39
211
10
110.357249
20
249.953753
11
110.252133
21
250.102742
0
LINE
8
annotation
62
1
39
211
10
110.252133
20
250.102742
11
110.123699
21
250.231426
0
LINE
8
annotation
62
1
39
211
10
110.123699
20
250.231426
11
109.974948
21
250.336779
0
LINE
8
annotation
62
1
39
211
10
109.974948
20
250.336779
11
109.808878
21
250.415776
0
LINE
8
annotation
62
1
39
211
10
109.808878
20
250.415776
11
109.628491
21
250.465393
0
LINE
8
annotation
62
1
39
211
10
109.628491
20
250.465393
11
109.436787
21
250.482604
0
LINE
8
annotation
62
1
39
211
10
109.436787
20
250.482604
11
109.436787
21
250.482604
0
LINE
8
annotation
62
1
39
211
10
109.436787
20
250.482604
11
109.245479
21
250.465393
0
LINE
8
annotation
62
1
39
211
10
109.245479
20
250.465393
11
109.065303
21
250.415776
0
LINE
8
annotation
62
1
39
211
10
109.065303
20
250.415776
11
108.899295
21
250.336779
0
LINE
8
annotation
62
1
39
211
10
108.899295
20
250.336779
11
108.750494
21
250.231426
0
LINE
8
annotation
62
1
39
211
10
108.750494
20
250.231426
11
108.621936
21
250.102742
0
LINE
8
annotation
62
1
39
211
10
108.621936
20
250.102742
11
108.516659
21
249.953753
0
LINE
8
annotation
62
1
39
211
10
108.516659
20
249.953753
11
108.437701
21
249.787483
0
LINE
8
annotation
62
1
39
211
10
108.437701
20
249.787483
11
108.388098
21
249.606958
0
LINE
8
annotation
62
1
39
211
10
108.388098
20
249.606958
11
108.370889
21
249.415202
0
LINE
8
annotation
62
1
39
211
10
108.370889
20
249.415202
11
108.370889
21
248.881500
0
LINE
8
annotation
62
1
39
211
10
108.370889
20
248.881500
11
108.370889
21
248.881500
0
LINE
8
annotation
62
1
39
211
10
108.370889
20
248.881500
11
108.388098
21
248.689755
0
LINE
8
annotation
62
1
39
211
10
108.388098
20
248.689755
11
108.437701
21
248.509257
0
LINE
8
annotation
62
1
39
211
10
108.437701
20
248.509257
11
108.516659
21
248.343028
0
LINE
8
annotation
62
1
39
211
10
108.516659
20
248.343028
11
108.621936
21
248.194086
0
LINE
8
annotation
62
1
39
211
10
108.621936
20
248.194086
11
108.750494
21
248.065452
0
LINE
8
annotation
62
1
39
211
10
108.750494
20
248.065452
11
108.899295
21
247.960146
0
LINE
8
annotation
62
1
39
211
10
108.899295
20
247.960146
11
109.065303
21
247.881189
0
LINE
8
annotation
62
1
39
211
10
109.065303
20
247.881189
11
109.245479
21
247.831600
0
LINE
8
annotation
62
1
39
211
10
109.245479
20
247.831600
11
109.436787
21
247.814399
0
LINE
8
annotation
62
1
39
211
10
109.436787
20
247.814399
11
110.502684
21
247.814399
0
LINE
8
annotation
62
1
39
211
10
108.237690
20
245.082604
11
110.637690
21
245.082604
0
LINE
8
annotation
62
1
39
211
10
108.734769
20
255.944181
11
108.734769
21
260.561901
0
LINE
8
annotation
62
1
39
211
10
108.734769
20
260.561901
11
107.708190
21
259.535033
0
LINE
8
annotation
62
1
39
211
10
111.207997
20
256.005090
11
111.207997
21
256.005090
0
LINE
8
annotation
62
1
39
211
10
111.207997
20
256.005090
11
111.315319
21
255.964971
0
LINE
8
annotation
62
1
39
211
10
111.315319
20
255.964971
11
111.425386
21
255.945039
0
LINE
8
annotation
62
1
39
211
10
111.425386
20
255.945039
11
111.535711
21
255.944481
0
LINE
8
annotation
62
1
39
211
10
111.535711
20
255.944481
11
111.643805
21
255.962486
0
LINE
8
annotation
62
1
39
211
10
111.643805
20
255.962486
11
111.747179
21
255.998240
0
LINE
8
annotation
62
1
39
211
10
111.747179
20
255.998240
11
111.843347
21
256.050930
0
LINE
8
annotation
62
1
39
211
10
111.843347
20
256.050930
11
111.929818
21
256.119745
0
LINE
8
annotation
62
1
39
211
10
111.929818
20
256.119745
11
112.004106
21
256.203870
0
LINE
8
annotation
62
1
39
211
10
112.004106
20
256.203870
11
112.063721
21
256.302494
0
LINE
8
annotation
62
1
39
211
10
112.063721
20
256.302494
11
112.063721
21
256.302494
0
LINE
8
annotation
62
1
39
211
10
112.063721
20
256.302494
11
112.241590
21
256.718841
0
LINE
8
annotation
62
1
39
211
10
112.241590
20
256.718841
11
112.374992
21
257.147239
0
LINE
8
annotation
62
1
39
211
10
112.374992
20
257.147239
11
112.463927
21
257.584271
0
LINE
8
annotation
62
1
39
211
10
112.463927
20
257.584271
11
112.508394
21
258.026524
0
LINE
8
annotation
62
1
39
211
10
112.508394
20
258.026524
11
112.508394
21
258.470581
0
LINE
8
annotation
62
1
39
211
10
112.508394
20
258.470581
11
112.463927
21
258.913026
0
LINE
8
annotation
62
1
39
211
10
112.463927
20
258.913026
11
112.374992
21
259.350445
0
LINE
8
annotation
62
1
39
211
10
112.374992
20
259.350445
11
112.241590
21
259.779422
0
LINE
8
annotation
62
1
39
211
10
112.241590
20
259.779422
11
112.063721
21
260.196541
0
LINE
8
annotation
62
1
39
211
10
112.063721
20
260.196541
11
112.063721
21
260.196541
0
LINE
8
annotation
62
1
39
211
10
112.063721
20
260.196541
11
112.041101
21
260.238637
0
LINE
8
annotation
62
1
39
211
10
112.041101
20
260.238637
11
112.015457
21
260.278884
0
LINE
8
annotation
62
1
39
211
10
112.015457
20
260.278884
11
111.986981
21
260.317083
0
LINE
8
annotation
62
1
39
211
10
111.986981
20
260.317083
11
111.955866
21
260.353038
0
LINE
8
annotation
62
1
39
211
10
111.955866
20
260.353038
11
111.922307
21
260.386549
0
LINE
8
annotation
62
1
39
211
10
111.922307
20
260.386549
11
111.886495
21
260.417419
0
LINE
8
annotation
62
1
39
211
10
111.886495
20
260.417419
11
111.848623
21
260.445451
0
LINE
8
annotation
62
1
39
211
10
111.848623
20
260.445451
11
111.808886
21
260.470446
0
LINE
8
annotation
62
1
39
211
10
111.808886
20
260.470446
11
111.767475
21
260.492207
0
LINE
8
annotation
62
1
39
211
10
111.767475
20
260.492207
11
111.767475
21
260.492207
0
LINE
8
annotation
62
1
39
211
10
111.767475
20
260.492207
11
111.659302
21
260.533196
0
LINE
8
annotation
62
1
39
211
10
111.659302
20
260.533196
11
111.548590
21
260.553810
0
LINE
8
annotation
62
1
39
211
10
111.548590
20
260.553810
11
111.437799
21
260.554865
0
LINE
8
annotation
62
1
39
211
10
111.437799
20
260.554865
11
111.329390
21
260.537179
0
LINE
8
annotation
62
1
39
211
10
111.329390
20
260.537179
11
111.225821
21
260.501570
0
LINE
8
annotation
62
1
39
211
10
111.225821
20
260.501570
11
111.129552
21
260.448855
0
LINE
8
annotation
62
1
39
211
10
111.129552
20
260.448855
11
111.043044
21
260.379852
0
LINE
8
annotation
62
1
39
211
10
111.043044
20
260.379852
11
110.968755
21
260.295379
0
LINE
8
annotation
62
1
39
211
10
110.968755
20
260.295379
11
110.909146
21
260.196252
0
LINE
8
annotation
62
1
39
211
10
110.909146
20
260.196252
11
110.909146
21
260.196252
0
LINE
8
annotation
62
1
39
211
10
110.909146
20
260.196252
11
110.732135
21
259.779990
0
LINE
8
annotation
62
1
39
211
10
110.732135
20
259.779990
11
110.599376
21
259.351657
0
LINE
8
annotation
62
1
39
211
10
110.599376
20
259.351657
11
110.510870
21
258.914667
0
LINE
8
annotation
62
1
39
211
10
110.510870
20
258.914667
11
110.466617
21
258.472436
0
LINE
8
annotation
62
1
39
211
10
110.466617
20
258.472436
11
110.466617
21
258.028379
0
LINE
8
annotation
62
1
39
211
10
110.466617
20
258.028379
11
110.510870
21
257.585912
0
LINE
8
annotation
62
1
39
211
10
110.510870
20
257.585912
11
110.599376
21
257.148451
0
LINE
8
annotation
62
1
39
211
10
110.599376
20
257.148451
11
110.732135
21
256.719409
0
LINE
8
annotation
62
1
39
211
10
110.732135
20
256.719409
11
110.909146
21
256.302204
0
LINE
8
annotation
62
1
39
211
10
110.909146
20
256.302204
11
110.909146
21
256.302204
0
LINE
8
annotation
62
1
39
211
10
110.909146
20
256.302204
11
110.931683
21
256.260192
0
LINE
8
annotation
62
1
39
211
10
110.931683
20
256.260192
11
110.957138
21
256.220146
0
LINE
8
annotation
62
1
39
211
10
110.957138
20
256.220146
11
110.985403
21
256.182187
0
LINE
8
annotation
62
1
39
211
10
110.985403
20
256.182187
11
111.016371
21
256.146439
0
LINE
8
annotation
62
1
39
211
10
111.016371
20
256.146439
11
111.049934
21
256.113021
0
LINE
8
annotation
62
1
39
211
10
111.049934
20
256.113021
11
111.085986
21
256.082055
0
LINE
8
annotation
62
1
39
211
10
111.085986
20
256.082055
11
111.124418
21
256.053664
0
LINE
8
annotation
62
1
39
211
10
111.124418
20
256.053664
11
111.165125
21
256.027969
0
LINE
8
annotation
62
1
39
211
10
111.165125
20
256.027969
11
111.207997
21
256.005090
0
LINE
8
annotation
62
1
39
211
10
29.669490
20
135.754780
11
18.199366
21
135.754780
0
LINE
8
annotation
62
1
39
211
10
18.199366
20
135.754780
11
29.669490
21
156.412403
0
LINE
8
annotation
62
1
39
211
10
29.669490
20
156.412403
11
18.199366
21
156.412403
0
LINE
8
annotation
62
1
39
211
10
48.713277
20
146.083592
11
37.418042
21
146.083592
0
LINE
8
annotation
62
1
39
211
10
65.634047
20
135.754612
11
56.459502
21
135.754612
0
LINE
8
annotation
62
1
39
211
10
56.459502
20
135.754612
11
64.937082
21
149.402427
0
LINE
8
annotation
62
1
39
211
10
64.937082
20
149.402427
11
64.937082
21
149.402427
0
LINE
8
annotation
62
1
39
211
10
64.937082
20
149.402427
11
64.947216
21
149.414968
0
LINE
8
annotation
62
1
39
211
10
64.947216
20
149.414968
11
64.956935
21
149.427615
0
LINE
8
annotation
62
1
39
211
10
64.956935
20
149.427615
11
64.966302
21
149.440476
0
LINE
8
annotation
62
1
39
211
10
64.966302
20
149.440476
11
64.975381
21
149.453656
0
LINE
8
annotation
62
1
39
211
10
64.975381
20
149.453656
11
64.984236
21
149.467263
0
LINE
8
annotation
62
1
39
211
10
64.984236
20
149.467263
11
64.992931
21
149.481403
0
LINE
8
annotation
62
1
39
211
10
64.992931
20
149.481403
11
65.001530
21
149.496183
0
LINE
8
annotation
62
1
39
211
10
65.001530
20
149.496183
11
65.010098
21
149.511709
0
LINE
8
annotation
62
1
39
211
10
65.010098
20
149.511709
11
65.018697
21
149.528088
0
LINE
8
annotation
62
1
39
211
10
65.018697
20
149.528088
11
65.018697
21
149.528088
0
LINE
8
annotation
62
1
39
211
10
65.018697
20
149.528088
11
65.368734
21
150.279648
0
LINE
8
annotation
62
1
39
211
10
65.368734
20
150.279648
11
65.573220
21
151.058706
0
LINE
8
annotation
62
1
39
211
10
65.573220
20
151.058706
11
65.637165
21
151.847658
0
LINE
8
annotation
62
1
39
211
10
65.637165
20
151.847658
11
65.565582
21
152.628901
0
LINE
8
annotation
62
1
39
211
10
65.565582
20
152.628901
11
65.363481
21
153.384832
0
LINE
8
annotation
62
1
39
211
10
65.363481
20
153.384832
11
65.035874
21
154.097848
0
LINE
8
annotation
62
1
39
211
10
65.035874
20
154.097848
11
64.587771
21
154.750344
0
LINE
8
annotation
62
1
39
211
10
64.587771
20
154.750344
11
64.024185
21
155.324716
0
LINE
8
annotation
62
1
39
211
10
64.024185
20
155.324716
11
63.350127
21
155.803363
0
LINE
8
annotation
62
1
39
211
10
63.350127
20
155.803363
11
63.350127
21
155.803363
0
LINE
8
annotation
62
1
39
211
10
63.350127
20
155.803363
11
62.596477
21
156.148426
0
LINE
8
annotation
62
1
39
211
10
62.596477
20
156.148426
11
61.816225
21
156.349761
0
LINE
8
annotation
62
1
39
211
10
61.816225
20
156.349761
11
61.026814
21
156.411900
0
LINE
8
annotation
62
1
39
211
10
61.026814
20
156.411900
11
60.245688
21
156.339373
0
LINE
8
annotation
62
1
39
211
10
60.245688
20
156.339373
11
59.490290
21
156.136712
0
LINE
8
annotation
62
1
39
211
10
59.490290
20
156.136712
11
58.778064
21
155.808449
0
LINE
8
annotation
62
1
39
211
10
58.778064
20
155.808449
11
58.126453
21
155.359115
0
LINE
8
annotation
62
1
39
211
10
58.126453
20
155.359115
11
57.552901
21
154.793242
0
LINE
8
annotation
62
1
39
211
10
57.552901
20
154.793242
11
57.074852
21
154.115361
0
LINE
8
annotation
62
1
39
211
10
57.074852
20
154.115361
11
56.472457
21
152.959798
0
LINE
8
hole
62
5
39
2
10
124.031724
20
433.478395
11
134.900458
21
433.478395
0
LINE
8
hole
62
5
39
2
10
134.900458
20
433.478395
11
134.900458
21
318.019747
0
LINE
8
hole
62
5
39
2
10
134.900458
20
318.019747
11
134.900458
21
308.478395
0
LINE
8
hole
62
5
39
2
10
134.900458
20
308.478395
11
124.031724
21
308.478395
0
LINE
8
hole
62
5
39
2
10
124.031724
20
308.478395
11
19.900475
21
308.478394
0
LINE
8
hole
62
5
39
2
10
19.900475
20
308.478394
11
19.900475
21
321.415117
0
LINE
8
hole
62
5
39
2
10
19.900475
20
321.415117
11
10.793988
21
321.565117
0
LINE
8
hole
62
5
39
2
10
10.793988
20
321.565117
11
10.793988
21
324.465117
0
LINE
8
hole
62
5
39
2
10
10.793988
20
324.465117
11
19.805475
21
324.465117
0
LINE
8
hole
62
5
39
2
10
19.805475
20
324.465117
11
19.900475
21
336.811326
0
LINE
8
hole
62
5
39
2
10
19.900475
20
336.811326
11
10.793988
21
336.961326
0
LINE
8
hole
62
5
39
2
10
10.793988
20
336.961326
11
10.793988
21
339.861326
0
LINE
8
hole
62
5
39
2
10
10.793988
20
339.861326
11
19.805475
21
339.861326
0
LINE
8
hole
62
5
39
2
10
19.805475
20
339.861326
11
19.900475
21
401.304369
0
LINE
8
hole
62
5
39
2
10
19.900475
20
401.304369
11
10.793988
21
401.454369
0
LINE
8
hole
62
5
39
2
10
10.793988
20
401.454369
11
10.793988
21
404.354369
0
LINE
8
hole
62
5
39
2
10
10.793988
20
404.354369
11
19.805475
21
404.354369
0
LINE
8
hole
62
5
39
2
10
19.805475
20
404.354369
11
19.900475
21
417.320934
0
LINE
8
hole
62
5
39
2
10
19.900475
20
417.320934
11
10.793988
21
417.470934
0
LINE
8
hole
62
5
39
2
10
10.793988
20
417.470934
11
10.793988
21
420.370934
0
LINE
8
hole
62
5
39
2
10
10.793988
20
420.370934
11
19.805475
21
420.370934
0
LINE
8
hole
62
5
39
2
10
19.805475
20
420.370934
11
19.900475
21
421.664552
0
LINE
8
hole
62
5
39
2
10
19.900475
20
421.664552
11
19.900475
21
433.478395
0
LINE
8
hole
62
5
39
2
10
19.900475
20
433.478395
11
124.031724
21
433.478395
0
LINE
8
boundary
62
5
39
2
10
213.736252
20
286.742026
11
213.736252
21
289.738281
0
LINE
8
boundary
62
5
39
2
10
213.736252
20
289.738281
11
213.736251
21
290.302672
0
LINE
8
boundary
62
5
39
2
10
213.736251
20
290.302672
11
213.736251
21
296.531888
0
LINE
8
boundary
62
5
39
2
10
213.736251
20
296.531888
11
107.711876
21
296.681887
0
LINE
8
boundary
62
5
39
2
10
107.711876
20
296.681887
11
107.711876
21
299.581887
0
LINE
8
boundary
62
5
39
2
10
107.711876
20
299.581887
11
213.641251
21
299.581887
0
LINE
8
boundary
62
5
39
2
10
213.641251
20
299.581887
11
213.736251
21
321.415117
0
LINE
8
boundary
62
5
39
2
10
213.736251
20
321.415117
11
174.368355
21
321.565117
0
LINE
8
boundary
62
5
39
2
10
174.368355
20
321.565117
11
174.368355
21
324.465117
0
LINE
8
boundary
62
5
39
2
10
174.368355
20
324.465117
11
213.641251
21
324.465117
0
LINE
8
boundary
62
5
39
2
10
213.641251
20
324.465117
11
213.736251
21
336.811326
0
LINE
8
boundary
62
5
39
2
10
213.736251
20
336.811326
11
174.368355
21
336.961326
0
LINE
8
boundary
62
5
39
2
10
174.368355
20
336.961326
11
174.368355
21
339.861326
0
LINE
8
boundary
62
5
39
2
10
174.368355
20
339.861326
11
213.641251
21
339.861326
0
LINE
8
boundary
62
5
39
2
10
213.641251
20
339.861326
11
213.736251
21
346.304527
0
LINE
8
boundary
62
5
39
2
10
213.736251
20
346.304527
11
213.736251
21
355.020279
0
LINE
8
boundary
62
5
39
2
10
213.736251
20
355.020279
11
213.736252
21
355.566556
0
LINE
8
boundary
62
5
39
2
10
213.736252
20
355.566556
11
213.736252
21
356.112435
0
LINE
8
boundary
62
5
39
2
10
213.736252
20
356.112435
11
213.736252
21
357.303615
0
LINE
8
boundary
62
5
39
2
10
213.736252
20
357.303615
11
210.202919
21
357.832077
0
LINE
8
boundary
62
5
39
2
10
210.202919
20
357.832077
11
153.736259
21
366.277508
0
LINE
8
boundary
62
5
39
2
10
153.736259
20
366.277508
11
153.736259
21
374.777507
0
LINE
8
boundary
62
5
39
2
10
153.736259
20
374.777507
11
157.269592
21
375.305970
0
LINE
8
boundary
62
5
39
2
10
157.269592
20
375.305970
11
213.736252
21
383.751401
0
LINE
8
boundary
62
5
39
2
10
213.736252
20
383.751401
11
213.736251
21
384.551056
0
LINE
8
boundary
62
5
39
2
10
213.736251
20
384.551056
11
213.736251
21
385.217511
0
LINE
8
boundary
62
5
39
2
10
213.736251
20
385.217511
11
213.736252
21
394.294785
0
LINE
8
boundary
62
5
39
2
10
213.736252
20
394.294785
11
213.736251
21
401.304369
0
LINE
8
boundary
62
5
39
2
10
213.736251
20
401.304369
11
174.368355
21
401.454369
0
LINE
8
boundary
62
5
39
2
10
174.368355
20
401.454369
11
174.368355
21
404.354369
0
LINE
8
boundary
62
5
39
2
10
174.368355
20
404.354369
11
213.641251
21
404.354369
0
LINE
8
boundary
62
5
39
2
10
213.641251
20
404.354369
11
213.736251
21
417.320934
0
LINE
8
boundary
62
5
39
2
10
213.736251
20
417.320934
11
174.368355
21
417.470934
0
LINE
8
boundary
62
5
39
2
10
174.368355
20
417.470934
11
174.368355
21
420.370934
0
LINE
8
boundary
62
5
39
2
10
174.368355
20
420.370934
11
213.641251
21
420.370934
0
LINE
8
boundary
62
5
39
2
10
213.641251
20
420.370934
11
213.736251
21
441.245493
0
LINE
8
boundary
62
5
39
2
10
213.736251
20
441.245493
11
107.711876
21
441.395493
0
LINE
8
boundary
62
5
39
2
10
107.711876
20
441.395493
11
107.711876
21
444.295493
0
LINE
8
boundary
62
5
39
2
10
107.711876
20
444.295493
11
213.641251
21
444.295492
0
LINE
8
boundary
62
5
39
2
10
213.641251
20
444.295492
11
213.736251
21
450.296645
0
LINE
8
boundary
62
5
39
2
10
213.736251
20
450.296645
11
213.736252
21
450.873286
0
LINE
8
boundary
62
5
39
2
10
213.736252
20
450.873286
11
213.736252
21
454.147758
0
LINE
8
boundary
62
5
39
2
10
213.736252
20
454.147758
11
213.736251
21
456.266158
0
LINE
8
boundary
62
5
39
2
10
213.736251
20
456.266158
11
211.417674
21
456.266158
0
LINE
8
boundary
62
5
39
2
10
211.417674
20
456.266158
11
153.736259
21
456.266157
0
LINE
8
boundary
62
5
39
2
10
153.736259
20
456.266157
11
149.265828
21
455.991077
0
LINE
8
boundary
62
5
39
2
10
149.265828
20
455.991077
11
130.839997
21
454.857272
0
LINE
8
boundary
62
5
39
2
10
130.839997
20
454.857272
11
21.355786
21
448.120333
0
LINE
8
boundary
62
5
39
2
10
21.355786
20
448.120333
11
7.589368
21
447.273239
0
LINE
8
boundary
62
5
39
2
10
7.589368
20
447.273239
11
5.783256
21
447.162103
0
LINE
8
boundary
62
5
39
2
10
5.783256
20
447.162103
11
4.579675
21
447.088042
0
LINE
8
boundary
62
5
39
2
10
4.579675
20
447.088042
11
1.587500
21
444.353924
0
LINE
8
boundary
62
5
39
2
10
1.587500
20
444.353924
11
1.587500
21
440.470766
0
LINE
8
boundary
62
5
39
2
10
1.587500
20
440.470766
11
1.587500
21
429.070378
0
LINE
8
boundary
62
5
39
2
10
1.587500
20
429.070378
11
1.587500
21
381.201537
0
LINE
8
boundary
62
5
39
2
10
1.587500
20
381.201537
11
1.587500
21
312.208506
0
LINE
8
boundary
62
5
39
2
10
1.587500
20
312.208506
11
1.587500
21
300.745758
0
LINE
8
boundary
62
5
39
2
10
1.587500
20
300.745758
11
1.587501
21
296.817896
0
LINE
8
boundary
62
5
39
2
10
1.587501
20
296.817896
11
4.434045
21
294.214518
0
LINE
8
boundary
62
5
39
2
10
4.434045
20
294.214518
11
5.839841
21
294.002974
0
LINE
8
boundary
62
5
39
2
10
5.839841
20
294.002974
11
7.498788
21
293.899616
0
LINE
8
boundary
62
5
39
2
10
7.498788
20
293.899616
11
21.207906
21
293.045508
0
LINE
8
boundary
62
5
39
2
10
21.207906
20
293.045508
11
131.041559
21
286.202630
0
LINE
8
boundary
62
5
39
2
10
131.041559
20
286.202630
11
149.258053
21
285.067703
0
LINE
8
boundary
62
5
39
2
10
149.258053
20
285.067703
11
153.736259
21
284.788701
0
LINE
8
boundary
62
5
39
2
10
153.736259
20
284.788701
11
156.054836
21
284.788701
0
LINE
8
boundary
62
5
39
2
10
156.054836
20
284.788701
11
213.736251
21
284.788701
0
LINE
8
boundary
62
5
39
2
10
213.736251
20
284.788701
11
213.736251
21
286.268230
0
LINE
8
boundary
62
5
39
2
10
213.736251
20
286.268230
11
213.736252
21
286.742026
0
LINE
8
annotation
62
1
39
211
10
100.595376
20
295.732038
11
101.661274
21
295.732038
0
LINE
8
annotation
62
1
39
211
10
101.661274
20
295.732038
11
101.661274
21
295.732038
0
LINE
8
annotation
62
1
39
211
10
101.661274
20
295.732038
11
101.852978
21
295.749235
0
LINE
8
annotation
62
1
39
211
10
101.852978
20
295.749235
11
102.033365
21
295.798798
0
LINE
8
annotation
62
1
39
211
10
102.033365
20
295.798798
11
102.199435
21
295.877685
0
LINE
8
annotation
62
1
39
211
10
102.199435
20
295.877685
11
102.348186
21
295.982853
0
LINE
8
annotation
62
1
39
211
10
102.348186
20
295.982853
11
102.476620
21
296.111260
0
LINE
8
annotation
62
1
39
211
10
102.476620
20
296.111260
11
102.581736
21
296.259864
0
LINE
8
annotation
62
1
39
211
10
102.581736
20
296.259864
11
102.660533
21
296.425622
0
LINE
8
annotation
62
1
39
211
10
102.660533
20
296.425622
11
102.710012
21
296.605491
0
LINE
8
annotation
62
1
39
211
10
102.710012
20
296.605491
11
102.727171
21
296.796430
0
LINE
8
annotation
62
1
39
211
10
102.727171
20
296.796430
11
102.727171
21
297.330132
0
LINE
8
annotation
62
1
39
211
10
102.727171
20
297.330132
11
102.727171
21
297.330132
0
LINE
8
annotation
62
1
39
211
10
102.727171
20
297.330132
11
102.710012
21
297.520991
0
LINE
8
annotation
62
1
39
211
10
102.710012
20
297.520991
11
102.660533
21
297.700819
0
LINE
8
annotation
62
1
39
211
10
102.660533
20
297.700819
11
102.581736
21
297.866564
0
LINE
8
annotation
62
1
39
211
10
102.581736
20
297.866564
11
102.476620
21
298.015178
0
LINE
8
annotation
62
1
39
211
10
102.476620
20
298.015178
11
102.348186
21
298.143610
0
LINE
8
annotation
62
1
39
211
10
102.348186
20
298.143610
11
102.199435
21
298.248810
0
LINE
8
annotation
62
1
39
211
10
102.199435
20
298.248810
11
102.033365
21
298.327729
0
LINE
8
annotation
62
1
39
211
10
102.033365
20
298.327729
11
101.852978
21
298.377317
0
LINE
8
annotation
62
1
39
211
10
101.852978
20
298.377317
11
101.661274
21
298.394524
0
LINE
8
annotation
62
1
39
211
10
101.661274
20
298.394524
11
101.127573
21
298.394524
0
LINE
8
annotation
62
1
39
211
10
101.127573
20
298.394524
11
101.661274
21
298.394524
0
LINE
8
annotation
62
1
39
211
10
101.661274
20
298.394524
11
101.661274
21
298.394524
0
LINE
8
annotation
62
1
39
211
10
101.661274
20
298.394524
11
101.852978
21
298.411735
0
LINE
8
annotation
62
1
39
211
10
101.852978
20
298.411735
11
102.033365
21
298.461352
0
LINE
8
annotation
62
1
39
211
10
102.033365
20
298.461352
11
102.199435
21
298.540349
0
LINE
8
annotation
62
1
39
211
10
102.199435
20
298.540349
11
102.348186
21
298.645702
0
LINE
8
annotation
62
1
39
211
10
102.348186
20
298.645702
11
102.476620
21
298.774386
0
LINE
8
annotation
62
1
39
211
10
102.476620
20
298.774386
11
102.581736
21
298.923375
0
LINE
8
annotation
62
1
39
211
10
102.581736
20
298.923375
11
102.660533
21
299.089645
0
LINE
8
annotation
62
1
39
211
10
102.660533
20
299.089645
11
102.710012
21
299.270171
0
LINE
8
annotation
62
1
39
211
10
102.710012
20
299.270171
11
102.727171
21
299.461926
0
LINE
8
annotation
62
1
39
211
10
102.727171
20
299.461926
11
102.727171
21
299.461926
0
LINE
8
annotation
62
1
39
211
10
102.727171
20
299.461926
11
102.710012
21
299.652786
0
LINE
8
annotation
62
1
39
211
10
102.710012
20
299.652786
11
102.660533
21
299.832614
0
LINE
8
annotation
62
1
39
211
10
102.660533
20
299.832614
11
102.581736
21
299.998359
0
LINE
8
annotation
62
1
39
211
10
102.581736
20
299.998359
11
102.476620
21
300.146973
0
LINE
8
annotation
62
1
39
211
10
102.476620
20
300.146973
11
102.348186
21
300.275404
0
LINE
8
annotation
62
1
39
211
10
102.348186
20
300.275404
11
102.199435
21
300.380605
0
LINE
8
annotation
62
1
39
211
10
102.199435
20
300.380605
11
102.033365
21
300.459524
0
LINE
8
annotation
62
1
39
211
10
102.033365
20
300.459524
11
101.852978
21
300.509112
0
LINE
8
annotation
62
1
39
211
10
101.852978
20
300.509112
11
101.661274
21
300.526319
0
LINE
8
annotation
62
1
39
211
10
101.661274
20
300.526319
11
100.595376
21
300.526319
0
LINE
8
annotation
62
1
39
211
10
6.075983
20
321.682218
11
3.410788
21
321.682218
0
LINE
8
annotation
62
1
39
211
10
3.410788
20
321.682218
11
4.475181
21
325.415117
0
LINE
8
annotation
62
1
39
211
10
5.277087
20
320.615117
11
5.277087
21
322.746912
0
LINE
8
annotation
62
1
39
211
10
169.650350
20
321.682218
11
166.985155
21
321.682218
0
LINE
8
annotation
62
1
39
211
10
166.985155
20
321.682218
11
168.049548
21
325.415117
0
LINE
8
annotation
62
1
39
211
10
168.851454
20
320.615117
11
168.851454
21
322.746912
0
LINE
8
annotation
62
1
39
211
10
3.677488
20
336.011326
11
4.743386
21
336.011326
0
LINE
8
annotation
62
1
39
211
10
4.743386
20
336.011326
11
4.743386
21
336.011326
0
LINE
8
annotation
62
1
39
211
10
4.743386
20
336.011326
11
4.934694
21
336.028527
0
LINE
8
annotation
62
1
39
211
10
4.934694
20
336.028527
11
5.114870
21
336.078116
0
LINE
8
annotation
62
1
39
211
10
5.114870
20
336.078116
11
5.280878
21
336.157074
0
LINE
8
annotation
62
1
39
211
10
5.280878
20
336.157074
11
5.429679
21
336.262379
0
LINE
8
annotation
62
1
39
211
10
5.429679
20
336.262379
11
5.558237
21
336.391013
0
LINE
8
annotation
62
1
39
211
10
5.558237
20
336.391013
11
5.663513
21
336.539955
0
LINE
8
annotation
62
1
39
211
10
5.663513
20
336.539955
11
5.742472
21
336.706185
0
LINE
8
annotation
62
1
39
211
10
5.742472
20
336.706185
11
5.792074
21
336.886682
0
LINE
8
annotation
62
1
39
211
10
5.792074
20
336.886682
11
5.809283
21
337.078428
0
LINE
8
annotation
62
1
39
211
10
5.809283
20
337.078428
11
5.809283
21
337.609420
0
LINE
8
annotation
62
1
39
211
10
5.809283
20
337.609420
11
5.809283
21
337.609420
0
LINE
8
annotation
62
1
39
211
10
5.809283
20
337.609420
11
5.792084
21
337.801072
0
LINE
8
annotation
62
1
39
211
10
5.792084
20
337.801072
11
5.742506
21
337.981321
0
LINE
8
annotation
62
1
39
211
10
5.742506
20
337.981321
11
5.663580
21
338.147190
0
LINE
8
annotation
62
1
39
211
10
5.663580
20
338.147190
11
5.558336
21
338.295705
0
LINE
8
annotation
62
1
39
211
10
5.558336
20
338.295705
11
5.429803
21
338.423889
0
LINE
8
annotation
62
1
39
211
10
5.429803
20
338.423889
11
5.281011
21
338.528767
0
LINE
8
annotation
62
1
39
211
10
5.281011
20
338.528767
11
5.114991
21
338.607364
0
LINE
8
annotation
62
1
39
211
10
5.114991
20
338.607364
11
4.934773
21
338.656704
0
LINE
8
annotation
62
1
39
211
10
4.934773
20
338.656704
11
4.743386
21
338.673812
0
LINE
8
annotation
62
1
39
211
10
4.743386
20
338.673812
11
3.677488
21
338.673812
0
LINE
8
annotation
62
1
39
211
10
3.677488
20
338.673812
11
3.677488
21
340.811326
0
LINE
8
annotation
62
1
39
211
10
3.677488
20
340.811326
11
5.809283
21
340.811326
0
LINE
8
annotation
62
1
39
211
10
167.251855
20
336.011326
11
168.317753
21
336.011326
0
LINE
8
annotation
62
1
39
211
10
168.317753
20
336.011326
11
168.317753
21
336.011326
0
LINE
8
annotation
62
1
39
211
10
168.317753
20
336.011326
11
168.509061
21
336.028527
0
LINE
8
annotation
62
1
39
211
10
168.509061
20
336.028527
11
168.689237
21
336.078116
0
LINE
8
annotation
62
1
39
211
10
168.689237
20
336.078116
11
168.855245
21
336.157074
0
LINE
8
annotation
62
1
39
211
10
168.855245
20
336.157074
11
169.004046
21
336.262379
0
LINE
8
annotation
62
1
39
211
10
169.004046
20
336.262379
11
169.132604
21
336.391013
0
LINE
8
annotation
62
1
39
211
10
169.132604
20
336.391013
11
169.237880
21
336.539955
0
LINE
8
annotation
62
1
39
211
10
169.237880
20
336.539955
11
169.316839
21
336.706185
0
LINE
8
annotation
62
1
39
211
10
169.316839
20
336.706185
11
169.366441
21
336.886682
0
LINE
8
annotation
62
1
39
211
10
169.366441
20
336.886682
11
169.383650
21
337.078428
0
LINE
8
annotation
62
1
39
211
10
169.383650
20
337.078428
11
169.383650
21
337.609420
0
LINE
8
annotation
62
1
39
211
10
169.383650
20
337.609420
11
169.383650
21
337.609420
0
LINE
8
annotation
62
1
39
211
10
169.383650
20
337.609420
11
169.366451
21
337.801072
0
LINE
8
annotation
62
1
39
211
10
169.366451
20
337.801072
11
169.316873
21
337.981321
0
LINE
8
annotation
62
1
39
211
10
169.316873
20
337.981321
11
169.237947
21
338.147190
0
LINE
8
annotation
62
1
39
211
10
169.237947
20
338.147190
11
169.132703
21
338.295705
0
LINE
8
annotation
62
1
39
211
10
169.132703
20
338.295705
11
169.004170
21
338.423889
0
LINE
8
annotation
62
1
39
211
10
169.004170
20
338.423889
11
168.855378
21
338.528767
0
LINE
8
annotation
62
1
39
211
10
168.855378
20
338.528767
11
168.689358
21
338.607364
0
LINE
8
annotation
62
1
39
211
10
168.689358
20
338.607364
11
168.509140
21
338.656704
0
LINE
8
annotation
62
1
39
211
10
168.509140
20
338.656704
11
168.317753
21
338.673812
0
LINE
8
annotation
62
1
39
211
10
168.317753
20
338.673812
11
167.251855
21
338.673812
0
LINE
8
annotation
62
1
39
211
10
167.251855
20
338.673812
11
167.251855
21
340.811326
0
LINE
8
annotation
62
1
39
211
10
167.251855
20
340.811326
11
169.383650
21
340.811326
0
LINE
8
annotation
62
1
39
211
10
5.278592
20
405.304369
11
5.278592
21
405.304369
0
LINE
8
annotation
62
1
39
211
10
5.278592
20
405.304369
11
4.973239
21
405.189880
0
LINE
8
annotation
62
1
39
211
10
4.973239
20
405.189880
11
4.693038
21
405.035620
0
LINE
8
annotation
62
1
39
211
10
4.693038
20
405.035620
11
4.440865
21
404.845454
0
LINE
8
annotation
62
1
39
211
10
4.440865
20
404.845454
11
4.219596
21
404.623246
0
LINE
8
annotation
62
1
39
211
10
4.219596
20
404.623246
11
4.032107
21
404.372861
0
LINE
8
annotation
62
1
39
211
10
4.032107
20
404.372861
11
3.881276
21
404.098165
0
LINE
8
annotation
62
1
39
211
10
3.881276
20
404.098165
11
3.769978
21
403.803022
0
LINE
8
annotation
62
1
39
211
10
3.769978
20
403.803022
11
3.701090
21
403.491297
0
LINE
8
annotation
62
1
39
211
10
3.701090
20
403.491297
11
3.677488
21
403.166855
0
LINE
8
annotation
62
1
39
211
10
3.677488
20
403.166855
11
3.677488
21
401.571471
0
LINE
8
annotation
62
1
39
211
10
3.677488
20
401.571471
11
3.677488
21
401.571471
0
LINE
8
annotation
62
1
39
211
10
3.677488
20
401.571471
11
3.694697
21
401.379725
0
LINE
8
annotation
62
1
39
211
10
3.694697
20
401.379725
11
3.744300
21
401.199228
0
LINE
8
annotation
62
1
39
211
10
3.744300
20
401.199228
11
3.823258
21
401.032998
0
LINE
8
annotation
62
1
39
211
10
3.823258
20
401.032998
11
3.928535
21
400.884056
0
LINE
8
annotation
62
1
39
211
10
3.928535
20
400.884056
11
4.057092
21
400.755422
0
LINE
8
annotation
62
1
39
211
10
4.057092
20
400.755422
11
4.205894
21
400.650117
0
LINE
8
annotation
62
1
39
211
10
4.205894
20
400.650117
11
4.371901
21
400.571159
0
LINE
8
annotation
62
1
39
211
10
4.371901
20
400.571159
11
4.552078
21
400.521570
0
LINE
8
annotation
62
1
39
211
10
4.552078
20
400.521570
11
4.743386
21
400.504369
0
LINE
8
annotation
62
1
39
211
10
4.743386
20
400.504369
11
4.743386
21
400.504369
0
LINE
8
annotation
62
1
39
211
10
4.743386
20
400.504369
11
4.935090
21
400.521570
0
LINE
8
annotation
62
1
39
211
10
4.935090
20
400.521570
11
5.115477
21
400.571159
0
LINE
8
annotation
62
1
39
211
10
5.115477
20
400.571159
11
5.281546
21
400.650117
0
LINE
8
annotation
62
1
39
211
10
5.281546
20
400.650117
11
5.430298
21
400.755422
0
LINE
8
annotation
62
1
39
211
10
5.430298
20
400.755422
11
5.558732
21
400.884056
0
LINE
8
annotation
62
1
39
211
10
5.558732
20
400.884056
11
5.663848
21
401.032998
0
LINE
8
annotation
62
1
39
211
10
5.663848
20
401.032998
11
5.742645
21
401.199228
0
LINE
8
annotation
62
1
39
211
10
5.742645
20
401.199228
11
5.792123
21
401.379725
0
LINE
8
annotation
62
1
39
211
10
5.792123
20
401.379725
11
5.809283
21
401.571471
0
LINE
8
annotation
62
1
39
211
10
5.809283
20
401.571471
11
5.809283
21
402.102463
0
LINE
8
annotation
62
1
39
211
10
5.809283
20
402.102463
11
5.809283
21
402.102463
0
LINE
8
annotation
62
1
39
211
10
5.809283
20
402.102463
11
5.792123
21
402.294115
0
LINE
8
annotation
62
1
39
211
10
5.792123
20
402.294115
11
5.742645
21
402.474364
0
LINE
8
annotation
62
1
39
211
10
5.742645
20
402.474364
11
5.663848
21
402.640233
0
LINE
8
annotation
62
1
39
211
10
5.663848
20
402.640233
11
5.558732
21
402.788748
0
LINE
8
annotation
62
1
39
211
10
5.558732
20
402.788748
11
5.430298
21
402.916932
0
LINE
8
annotation
62
1
39
211
10
5.430298
20
402.916932
11
5.281546
21
403.021810
0
LINE
8
annotation
62
1
39
211
10
5.281546
20
403.021810
11
5.115477
21
403.100407
0
LINE
8
annotation
62
1
39
211
10
5.115477
20
403.100407
11
4.935090
21
403.149747
0
LINE
8
annotation
62
1
39
211
10
4.935090
20
403.149747
11
4.743386
21
403.166855
0
LINE
8
annotation
62
1
39
211
10
4.743386
20
403.166855
11
3.677488
21
403.166855
0
LINE
8
annotation
62
1
39
211
10
3.543988
20
399.904369
11
5.943988
21
399.904369
0
LINE
8
annotation
62
1
39
211
10
168.852959
20
405.304369
11
168.852959
21
405.304369
0
LINE
8
annotation
62
1
39
211
10
168.852959
20
405.304369
11
168.547606
21
405.189880
0
LINE
8
annotation
62
1
39
211
10
168.547606
20
405.189880
11
168.267405
21
405.035620
0
LINE
8
annotation
62
1
39
211
10
168.267405
20
405.035620
11
168.015232
21
404.845454
0
LINE
8
annotation
62
1
39
211
10
168.015232
20
404.845454
11
167.793963
21
404.623246
0
LINE
8
annotation
62
1
39
211
10
167.793963
20
404.623246
11
167.606474
21
404.372861
0
LINE
8
annotation
62
1
39
211
10
167.606474
20
404.372861
11
167.455643
21
404.098165
0
LINE
8
annotation
62
1
39
211
10
167.455643
20
404.098165
11
167.344345
21
403.803022
0
LINE
8
annotation
62
1
39
211
10
167.344345
20
403.803022
11
167.275457
21
403.491297
0
LINE
8
annotation
62
1
39
211
10
167.275457
20
403.491297
11
167.251855
21
403.166855
0
LINE
8
annotation
62
1
39
211
10
167.251855
20
403.166855
11
167.251855
21
401.571471
0
LINE
8
annotation
62
1
39
211
10
167.251855
20
401.571471
11
167.251855
21
401.571471
0
LINE
8
annotation
62
1
39
211
10
167.251855
20
401.571471
11
167.269064
21
401.379725
0
LINE
8
annotation
62
1
39
211
10
167.269064
20
401.379725
11
167.318667
21
401.199228
0
LINE
8
annotation
62
1
39
211
10
167.318667
20
401.199228
11
167.397625
21
401.032998
0
LINE
8
annotation
62
1
39
211
10
167.397625
20
401.032998
11
167.502902
21
400.884056
0
LINE
8
annotation
62
1
39
211
10
167.502902
20
400.884056
11
167.631460
21
400.755422
0
LINE
8
annotation
62
1
39
211
10
167.631460
20
400.755422
11
167.780261
21
400.650117
0
LINE
8
annotation
62
1
39
211
10
167.780261
20
400.650117
11
167.946269
21
400.571159
0
LINE
8
annotation
62
1
39
211
10
167.946269
20
400.571159
11
168.126445
21
400.521570
0
LINE
8
annotation
62
1
39
211
10
168.126445
20
400.521570
11
168.317753
21
400.504369
0
LINE
8
annotation
62
1
39
211
10
168.317753
20
400.504369
11
168.317753
21
400.504369
0
LINE
8
annotation
62
1
39
211
10
168.317753
20
400.504369
11
168.509457
21
400.521570
0
LINE
8
annotation
62
1
39
211
10
168.509457
20
400.521570
11
168.689844
21
400.571159
0
LINE
8
annotation
62
1
39
211
10
168.689844
20
400.571159
11
168.855913
21
400.650117
0
LINE
8
annotation
62
1
39
211
10
168.855913
20
400.650117
11
169.004665
21
400.755422
0
LINE
8
annotation
62
1
39
211
10
169.004665
20
400.755422
11
169.133099
21
400.884056
0
LINE
8
annotation
62
1
39
211
10
169.133099
20
400.884056
11
169.238215
21
401.032998
0
LINE
8
annotation
62
1
39
211
10
169.238215
20
401.032998
11
169.317012
21
401.199228
0
LINE
8
annotation
62
1
39
211
10
169.317012
20
401.199228
11
169.366491
21
401.379725
0
LINE
8
annotation
62
1
39
211
10
169.366491
20
401.379725
11
169.383650
21
401.571471
0
LINE
8
annotation
62
1
39
211
10
169.383650
20
401.571471
11
169.383650
21
402.102463
0
LINE
8
annotation
62
1
39
211
10
169.383650
20
402.102463
11
169.383650
21
402.102463
0
LINE
8
annotation
62
1
39
211
10
169.383650
20
402.102463
11
169.366491
21
402.294115
0
LINE
8
annotation
62
1
39
211
10
169.366491
20
402.294115
11
169.317012
21
402.474364
0
LINE
8
annotation
62
1
39
211
10
169.317012
20
402.474364
11
169.238215
21
402.640233
0
LINE
8
annotation
62
1
39
211
10
169.238215
20
402.640233
11
169.133099
21
402.788748
0
LINE
8
annotation
62
1
39
211
10
169.133099
20
402.788748
11
169.004665
21
402.916932
0
LINE
8
annotation
62
1
39
211
10
169.004665
20
402.916932
11
168.855913
21
403.021810
0
LINE
8
annotation
62
1
39
211
10
168.855913
20
403.021810
11
168.689844
21
403.100407
0
LINE
8
annotation
62
1
39
211
10
168.689844
20
403.100407
11
168.509457
21
403.149747
0
LINE
8
annotation
62
1
39
211
10
168.509457
20
403.149747
11
168.317753
21
403.166855
0
LINE
8
annotation
62
1
39
211
10
168.317753
20
403.166855
11
167.251855
21
403.166855
0
LINE
8
annotation
62
1
39
211
10
167.118355
20
399.904369
11
169.518355
21
399.904369
0
LINE
8
annotation
62
1
39
211
10
4.743386
20
416.520934
11
5.810487
21
421.320934
0
LINE
8
annotation
62
1
39
211
10
5.810487
20
421.320934
11
3.675983
21
421.320934
0
LINE
8
annotation
62
1
39
211
10
5.810487
20
419.183420
11
4.743386
21
419.183420
0
LINE
8
annotation
62
1
39
211
10
168.317753
20
416.520934
11
169.384854
21
421.320934
0
LINE
8
annotation
62
1
39
211
10
169.384854
20
421.320934
11
167.250350
21
421.320934
0
LINE
8
annotation
62
1
39
211
10
169.384854
20
419.183420
11
168.317753
21
419.183420
0
LINE
8
annotation
62
1
39
211
10
100.595376
20
441.509734
11
100.595376
21
441.509734
0
LINE
8
annotation
62
1
39
211
10
100.595376
20
441.509734
11
100.612585
21
441.318082
0
LINE
8
annotation
62
1
39
211
10
100.612585
20
441.318082
11
100.662188
21
441.137833
0
LINE
8
annotation
62
1
39
211
10
100.662188
20
441.137833
11
100.741146
21
440.971964
0
LINE
8
annotation
62
1
39
211
10
100.741146
20
440.971964
11
100.846423
21
440.823449
0
LINE
8
annotation
62
1
39
211
10
100.846423
20
440.823449
11
100.974981
21
440.695265
0
LINE
8
annotation
62
1
39
211
10
100.974981
20
440.695265
11
101.123782
21
440.590387
0
LINE
8
annotation
62
1
39
211
10
101.123782
20
440.590387
11
101.289790
21
440.511790
0
LINE
8
annotation
62
1
39
211
10
101.289790
20
440.511790
11
101.469966
21
440.462450
0
LINE
8
annotation
62
1
39
211
10
101.469966
20
440.462450
11
101.661274
21
440.445342
0
LINE
8
annotation
62
1
39
211
10
101.661274
20
440.445342
11
101.661274
21
440.445342
0
LINE
8
annotation
62
1
39
211
10
101.661274
20
440.445342
11
101.852582
21
440.462450
0
LINE
8
annotation
62
1
39
211
10
101.852582
20
440.462450
11
102.032758
21
440.511790
0
LINE
8
annotation
62
1
39
211
10
102.032758
20
440.511790
11
102.198766
21
440.590387
0
LINE
8
annotation
62
1
39
211
10
102.198766
20
440.590387
11
102.347567
21
440.695265
0
LINE
8
annotation
62
1
39
211
10
102.347567
20
440.695265
11
102.476125
21
440.823449
0
LINE
8
annotation
62
1
39
211
10
102.476125
20
440.823449
11
102.581401
21
440.971964
0
LINE
8
annotation
62
1
39
211
10
102.581401
20
440.971964
11
102.660360
21
441.137833
0
LINE
8
annotation
62
1
39
211
10
102.660360
20
441.137833
11
102.709962
21
441.318082
0
LINE
8
annotation
62
1
39
211
10
102.709962
20
441.318082
11
102.727171
21
441.509734
0
LINE
8
annotation
62
1
39
211
10
102.727171
20
441.509734
11
102.727171
21
442.040726
0
LINE
8
annotation
62
1
39
211
10
102.727171
20
442.040726
11
102.727171
21
442.040726
0
LINE
8
annotation
62
1
39
211
10
102.727171
20
442.040726
11
102.709972
21
442.232472
0
LINE
8
annotation
62
1
39
211
10
102.709972
20
442.232472
11
102.660394
21
442.412970
0
LINE
8
annotation
62
1
39
211
10
102.660394
20
442.412970
11
102.581468
21
442.579199
0
LINE
8
annotation
62
1
39
211
10
102.581468
20
442.579199
11
102.476224
21
442.728141
0
LINE
8
annotation
62
1
39
211
10
102.476224
20
442.728141
11
102.347691
21
442.856775
0
LINE
8
annotation
62
1
39
211
10
102.347691
20
442.856775
11
102.198899
21
442.962080
0
LINE
8
annotation
62
1
39
211
10
102.198899
20
442.962080
11
102.032879
21
443.041038
0
LINE
8
annotation
62
1
39
211
10
102.032879
20
443.041038
11
101.852661
21
443.090627
0
LINE
8
annotation
62
1
39
211
10
101.852661
20
443.090627
11
101.661274
21
443.107828
0
LINE
8
annotation
62
1
39
211
10
101.661274
20
443.107828
11
101.661274
21
443.107828
0
LINE
8
annotation
62
1
39
211
10
101.661274
20
443.107828
11
101.469887
21
443.090617
0
LINE
8
annotation
62
1
39
211
10
101.469887
20
443.090617
11
101.289668
21
443.041003
0
LINE
8
annotation
62
1
39
211
10
101.289668
20
443.041003
11
101.123648
21
442.962014
0
LINE
8
annotation
62
1
39
211
10
101.123648
20
442.962014
11
100.974857
21
442.856676
0
LINE
8
annotation
62
1
39
211
10
100.974857
20
442.856676
11
100.846324
21
442.728017
0
LINE
8
annotation
62
1
39
211
10
100.846324
20
442.728017
11
100.741079
21
442.579066
0
LINE
8
annotation
62
1
39
211
10
100.741079
20
442.579066
11
100.662153
21
442.412848
0
LINE
8
annotation
62
1
39
211
10
100.662153
20
442.412848
11
100.612576
21
442.232393
0
LINE
8
annotation
62
1
39
211
10
100.612576
20
442.232393
11
100.595376
21
442.040726
0
LINE
8
annotation
62
1
39
211
10
100.595376
20
442.040726
11
100.595376
21
441.509734
0
LINE
8
annotation
62
1
39
211
10
102.727171
20
444.175230
11
102.727171
21
444.175230
0
LINE
8
annotation
62
1
39
211
10
102.727171
20
444.175230
11
102.709972
21
444.366090
0
LINE
8
annotation
62
1
39
211
10
102.709972
20
444.366090
11
102.660394
21
444.545918
0
LINE
8
annotation
62
1
39
211
10
102.660394
20
444.545918
11
102.581468
21
444.711663
0
LINE
8
annotation
62
1
39
211
10
102.581468
20
444.711663
11
102.476224
21
444.860277
0
LINE
8
annotation
62
1
39
211
10
102.476224
20
444.860277
11
102.347691
21
444.988708
0
LINE
8
annotation
62
1
39
211
10
102.347691
20
444.988708
11
102.198899
21
445.093909
0
LINE
8
annotation
62
1
39
211
10
102.198899
20
445.093909
11
102.032879
21
445.172828
0
LINE
8
annotation
62
1
39
211
10
102.032879
20
445.172828
11
101.852661
21
445.222416
0
LINE
8
annotation
62
1
39
211
10
101.852661
20
445.222416
11
101.661274
21
445.239623
0
LINE
8
annotation
62
1
39
211
10
101.661274
20
445.239623
11
101.661274
21
445.239623
0
LINE
8
annotation
62
1
39
211
10
101.661274
20
445.239623
11
101.469887
21
445.222416
0
LINE
8
annotation
62
1
39
211
10
101.469887
20
445.222416
11
101.289668
21
445.172828
0
LINE
8
annotation
62
1
39
211
10
101.289668
20
445.172828
11
101.123648
21
445.093909
0
LINE
8
annotation
62
1
39
211
10
101.123648
20
445.093909
11
100.974857
21
444.988708
0
LINE
8
annotation
62
1
39
211
10
100.974857
20
444.988708
11
100.846324
21
444.860277
0
LINE
8
annotation
62
1
39
211
10
100.846324
20
444.860277
11
100.741079
21
444.711663
0
LINE
8
annotation
62
1
39
211
10
100.741079
20
444.711663
11
100.662153
21
444.545918
0
LINE
8
annotation
62
1
39
211
10
100.662153
20
444.545918
11
100.612576
21
444.366090
0
LINE
8
annotation
62
1
39
211
10
100.612576
20
444.366090
11
100.595376
21
444.175230
0
LINE
8
annotation
62
1
39
211
10
100.595376
20
444.175230
11
100.595376
21
444.175230
0
LINE
8
annotation
62
1
39
211
10
100.595376
20
444.175230
11
100.612585
21
443.983475
0
LINE
8
annotation
62
1
39
211
10
100.612585
20
443.983475
11
100.662188
21
443.802949
0
LINE
8
annotation
62
1
39
211
10
100.662188
20
443.802949
11
100.741146
21
443.636679
0
LINE
8
annotation
62
1
39
211
10
100.741146
20
443.636679
11
100.846423
21
443.487690
0
LINE
8
annotation
62
1
39
211
10
100.846423
20
443.487690
11
100.974981
21
443.359007
0
LINE
8
annotation
62
1
39
211
10
100.974981
20
443.359007
11
101.123782
21
443.253653
0
LINE
8
annotation
62
1
39
211
10
101.123782
20
443.253653
11
101.289790
21
443.174656
0
LINE
8
annotation
62
1
39
211
10
101.289790
20
443.174656
11
101.469966
21
443.125039
0
LINE
8
annotation
62
1
39
211
10
101.469966
20
443.125039
11
101.661274
21
443.107828
0
LINE
8
annotation
62
1
39
211
10
101.661274
20
443.107828
11
101.661274
21
443.107828
0
LINE
8
annotation
62
1
39
211
10
101.661274
20
443.107828
11
101.852582
21
443.125039
0
LINE
8
annotation
62
1
39
211
10
101.852582
20
443.125039
11
102.032758
21
443.174656
0
LINE
8
annotation
62
1
39
211
10
102.032758
20
443.174656
11
102.198766
21
443.253653
0
LINE
8
annotation
62
1
39
211
10
102.198766
20
443.253653
11
102.347567
21
443.359007
0
LINE
8
annotation
62
1
39
211
10
102.347567
20
443.359007
11
102.476125
21
443.487690
0
LINE
8
annotation
62
1
39
211
10
102.476125
20
443.487690
11
102.581401
21
443.636679
0
LINE
8
annotation
62
1
39
211
10
102.581401
20
443.636679
11
102.660360
21
443.802949
0
LINE
8
annotation
62
1
39
211
10
102.660360
20
443.802949
11
102.709962
21
443.983475
0
LINE
8
annotation
62
1
39
211
10
102.709962
20
443.983475
11
102.727171
21
444.175230
0
LINE
8
annotation
62
1
39
211
10
94.034463
20
297.090100
11
89.793405
21
297.090100
0
LINE
8
annotation
62
1
39
211
10
89.793405
20
297.090100
11
94.034463
21
304.728218
0
LINE
8
annotation
62
1
39
211
10
94.034463
20
304.728218
11
89.793405
21
304.728218
0
LINE
8
annotation
62
1
39
211
10
101.075868
20
300.909159
11
96.899476
21
300.909159
0
LINE
8
annotation
62
1
39
211
10
105.637736
20
297.090100
11
105.637736
21
304.728218
0
LINE
8
annotation
62
1
39
211
10
105.637736
20
304.728218
11
103.939684
21
303.029688
0
LINE
8
hole
62
5
39
2
10
308.786364
20
395.574691
11
330.407163
21
395.574691
0
LINE
8
hole
62
5
39
2
10
330.407163
20
395.574691
11
330.407163
21
359.711697
0
LINE
8
hole
62
5
39
2
10
330.407163
20
359.711697
11
330.407163
21
345.574689
0
LINE
8
hole
62
5
39
2
10
330.407163
20
345.574689
11
302.516269
21
345.574689
0
LINE
8
hole
62
5
39
2
10
302.516269
20
345.574689
11
278.852606
21
345.574689
0
LINE
8
hole
62
5
39
2
10
278.852606
20
345.574689
11
278.852606
21
347.856750
0
LINE
8
hole
62
5
39
2
10
278.852606
20
347.856750
11
278.852606
21
367.429285
0
LINE
8
hole
62
5
39
2
10
278.852606
20
367.429285
11
278.852606
21
393.292631
0
LINE
8
hole
62
5
39
2
10
278.852606
20
393.292631
11
278.852606
21
395.574691
0
LINE
8
hole
62
5
39
2
10
278.852606
20
395.574691
11
308.786364
21
395.574691
0
LINE
8
boundary
62
5
39
2
10
355.812752
20
284.788701
11
405.959455
21
284.788701
0
LINE
8
boundary
62
5
39
2
10
405.959455
20
284.788701
11
415.812744
21
284.788701
0
LINE
8
boundary
62
5
39
2
10
415.812744
20
284.788701
11
415.812744
21
287.977687
0
LINE
8
boundary
62
5
39
2
10
415.812744
20
287.977687
11
415.812744
21
292.328505
0
LINE
8
boundary
62
5
39
2
10
415.812744
20
292.328505
11
415.812744
21
293.102787
0
LINE
8
boundary
62
5
39
2
10
415.812744
20
293.102787
11
415.812744
21
293.661203
0
LINE
8
boundary
62
5
39
2
10
415.812744
20
293.661203
11
415.812744
21
294.314280
0
LINE
8
boundary
62
5
39
2
10
415.812744
20
294.314280
11
415.812744
21
295.489464
0
LINE
8
boundary
62
5
39
2
10
415.812744
20
295.489464
11
415.812744
21
296.173247
0
LINE
8
boundary
62
5
39
2
10
415.812744
20
296.173247
11
415.717744
21
296.681888
0
LINE
8
boundary
62
5
39
2
10
415.717744
20
296.681888
11
316.411999
21
296.681888
0
LINE
8
boundary
62
5
39
2
10
316.411999
20
296.681888
11
316.411999
21
299.581888
0
LINE
8
boundary
62
5
39
2
10
316.411999
20
299.581888
11
415.717744
21
299.581888
0
LINE
8
boundary
62
5
39
2
10
415.717744
20
299.581888
11
415.812744
21
316.484501
0
LINE
8
boundary
62
5
39
2
10
415.812744
20
316.484501
11
415.812744
21
321.415117
0
LINE
8
boundary
62
5
39
2
10
415.812744
20
321.415117
11
316.411998
21
321.565117
0
LINE
8
boundary
62
5
39
2
10
316.411998
20
321.565117
11
316.411998
21
324.465117
0
LINE
8
boundary
62
5
39
2
10
316.411998
20
324.465117
11
415.717744
21
324.465117
0
LINE
8
boundary
62
5
39
2
10
415.717744
20
324.465117
11
415.812744
21
336.811327
0
LINE
8
boundary
62
5
39
2
10
415.812744
20
336.811327
11
316.411998
21
336.961327
0
LINE
8
boundary
62
5
39
2
10
316.411998
20
336.961327
11
316.411998
21
339.861327
0
LINE
8
boundary
62
5
39
2
10
316.411998
20
339.861327
11
415.717744
21
339.861326
0
LINE
8
boundary
62
5
39
2
10
415.717744
20
339.861326
11
415.812744
21
348.829842
0
LINE
8
boundary
62
5
39
2
10
415.812744
20
348.829842
11
415.812744
21
349.509138
0
LINE
8
boundary
62
5
39
2
10
415.812744
20
349.509138
11
415.812744
21
350.211504
0
LINE
8
boundary
62
5
39
2
10
415.812744
20
350.211504
11
415.812744
21
350.894922
0
LINE
8
boundary
62
5
39
2
10
415.812744
20
350.894922
11
415.812744
21
351.521899
0
LINE
8
boundary
62
5
39
2
10
415.812744
20
351.521899
11
415.812744
21
352.062893
0
LINE
8
boundary
62
5
39
2
10
415.812744
20
352.062893
11
415.812744
21
352.816263
0
LINE
8
boundary
62
5
39
2
10
415.812744
20
352.816263
11
415.812744
21
355.405856
0
LINE
8
boundary
62
5
39
2
10
415.812744
20
355.405856
11
415.812744
21
357.303615
0
LINE
8
boundary
62
5
39
2
10
415.812744
20
357.303615
11
366.567611
21
364.668958
0
LINE
8
boundary
62
5
39
2
10
366.567611
20
364.668958
11
355.812752
21
366.277508
0
LINE
8
boundary
62
5
39
2
10
355.812752
20
366.277508
11
355.812751
21
373.253902
0
LINE
8
boundary
62
5
39
2
10
355.812751
20
373.253902
11
355.812752
21
374.777508
0
LINE
8
boundary
62
5
39
2
10
355.812752
20
374.777508
11
405.057883
21
382.142851
0
LINE
8
boundary
62
5
39
2
10
405.057883
20
382.142851
11
415.812744
21
383.751402
0
LINE
8
boundary
62
5
39
2
10
415.812744
20
383.751402
11
415.812744
21
385.025391
0
LINE
8
boundary
62
5
39
2
10
415.812744
20
385.025391
11
415.812744
21
386.630145
0
LINE
8
boundary
62
5
39
2
10
415.812744
20
386.630145
11
415.812744
21
387.438902
0
LINE
8
boundary
62
5
39
2
10
415.812744
20
387.438902
11
415.812744
21
388.524017
0
LINE
8
boundary
62
5
39
2
10
415.812744
20
388.524017
11
415.812744
21
389.177673
0
LINE
8
boundary
62
5
39
2
10
415.812744
20
389.177673
11
415.812744
21
389.861168
0
LINE
8
boundary
62
5
39
2
10
415.812744
20
389.861168
11
415.812744
21
390.533992
0
LINE
8
boundary
62
5
39
2
10
415.812744
20
390.533992
11
415.812744
21
401.304369
0
LINE
8
boundary
62
5
39
2
10
415.812744
20
401.304369
11
316.411998
21
401.454370
0
LINE
8
boundary
62
5
39
2
10
316.411998
20
401.454370
11
316.411998
21
404.354370
0
LINE
8
boundary
62
5
39
2
10
316.411998
20
404.354370
11
415.717744
21
404.354369
0
LINE
8
boundary
62
5
39
2
10
415.717744
20
404.354369
11
415.812744
21
417.320934
0
LINE
8
boundary
62
5
39
2
10
415.812744
20
417.320934
11
316.411998
21
417.470934
0
LINE
8
boundary
62
5
39
2
10
316.411998
20
417.470934
11
316.411998
21
420.370934
0
LINE
8
boundary
62
5
39
2
10
316.411998
20
420.370934
11
415.717744
21
420.370934
0
LINE
8
boundary
62
5
39
2
10
415.717744
20
420.370934
11
415.812744
21
422.879330
0
LINE
8
boundary
62
5
39
2
10
415.812744
20
422.879330
11
415.812744
21
441.044031
0
LINE
8
boundary
62
5
39
2
10
415.812744
20
441.044031
11
316.411999
21
441.395493
0
LINE
8
boundary
62
5
39
2
10
316.411999
20
441.395493
11
316.411999
21
444.295493
0
LINE
8
boundary
62
5
39
2
10
316.411999
20
444.295493
11
415.717744
21
444.295493
0
LINE
8
boundary
62
5
39
2
10
415.717744
20
444.295493
11
415.812744
21
445.908072
0
LINE
8
boundary
62
5
39
2
10
415.812744
20
445.908072
11
415.812744
21
446.516261
0
LINE
8
boundary
62
5
39
2
10
415.812744
20
446.516261
11
415.812744
21
447.389667
0
LINE
8
boundary
62
5
39
2
10
415.812744
20
447.389667
11
415.812744
21
452.511815
0
LINE
8
boundary
62
5
39
2
10
415.812744
20
452.511815
11
415.812744
21
456.266158
0
LINE
8
boundary
62
5
39
2
10
415.812744
20
456.266158
11
365.666041
21
456.266158
0
LINE
8
boundary
62
5
39
2
10
365.666041
20
456.266158
11
355.812752
21
456.266158
0
LINE
8
boundary
62
5
39
2
10
355.812752
20
456.266158
11
300.566461
21
452.866664
0
LINE
8
boundary
62
5
39
2
10
300.566461
20
452.866664
11
234.186218
21
448.782060
0
LINE
8
boundary
62
5
39
2
10
234.186218
20
448.782060
11
218.259111
21
445.445004
0
LINE
8
boundary
62
5
39
2
10
218.259111
20
445.445004
11
216.911255
21
445.162601
0
LINE
8
boundary
62
5
39
2
10
216.911255
20
445.162601
11
216.911252
21
437.368428
0
LINE
8
boundary
62
5
39
2
10
216.911252
20
437.368428
11
216.911253
21
436.819032
0
LINE
8
boundary
62
5
39
2
10
216.911253
20
436.819032
11
216.911253
21
310.565086
0
LINE
8
boundary
62
5
39
2
10
216.911253
20
310.565086
11
216.911253
21
304.347708
0
LINE
8
boundary
62
5
39
2
10
216.911253
20
304.347708
11
216.911252
21
303.798311
0
LINE
8
boundary
62
5
39
2
10
216.911252
20
303.798311
11
216.911255
21
295.999200
0
LINE
8
boundary
62
5
39
2
10
216.911255
20
295.999200
11
218.259111
21
295.715748
0
LINE
8
boundary
62
5
39
2
10
218.259111
20
295.715748
11
234.186195
21
292.366303
0
LINE
8
boundary
62
5
39
2
10
234.186195
20
292.366303
11
300.843625
21
288.213397
0
LINE
8
boundary
62
5
39
2
10
300.843625
20
288.213397
11
355.812752
21
284.788701
0
LINE
8
annotation
62
1
39
211
10
309.295499
20
295.732038
11
310.361397
21
295.732038
0
LINE
8
annotation
62
1
39
211
10
310.361397
20
295.732038
11
310.361397
21
295.732038
0
LINE
8
annotation
62
1
39
211
10
310.361397
20
295.732038
11
310.553101
21
295.749235
0
LINE
8
annotation
62
1
39
211
10
310.553101
20
295.749235
11
310.733488
21
295.798799
0
LINE
8
annotation
62
1
39
211
10
310.733488
20
295.798799
11
310.899557
21
295.877685
0
LINE
8
annotation
62
1
39
211
10
310.899557
20
295.877685
11
311.048309
21
295.982853
0
LINE
8
annotation
62
1
39
211
10
311.048309
20
295.982853
11
311.176743
21
296.111261
0
LINE
8
annotation
62
1
39
211
10
311.176743
20
296.111261
11
311.281859
21
296.259864
0
LINE
8
annotation
62
1
39
211
10
311.281859
20
296.259864
11
311.360656
21
296.425622
0
LINE
8
annotation
62
1
39
211
10
311.360656
20
296.425622
11
311.410135
21
296.605492
0
LINE
8
annotation
62
1
39
211
10
311.410135
20
296.605492
11
311.427294
21
296.796431
0
LINE
8
annotation
62
1
39
211
10
311.427294
20
296.796431
11
311.427294
21
297.330132
0
LINE
8
annotation
62
1
39
211
10
311.427294
20
297.330132
11
311.427294
21
297.330132
0
LINE
8
annotation
62
1
39
211
10
311.427294
20
297.330132
11
311.410135
21
297.520992
0
LINE
8
annotation
62
1
39
211
10
311.410135
20
297.520992
11
311.360656
21
297.700819
0
LINE
8
annotation
62
1
39
211
10
311.360656
20
297.700819
11
311.281859
21
297.866564
0
LINE
8
annotation
62
1
39
211
10
311.281859
20
297.866564
11
311.176743
21
298.015178
0
LINE
8
annotation
62
1
39
211
10
311.176743
20
298.015178
11
311.048309
21
298.143610
0
LINE
8
annotation
62
1
39
211
10
311.048309
20
298.143610
11
310.899557
21
298.248810
0
LINE
8
annotation
62
1
39
211
10
310.899557
20
298.248810
11
310.733488
21
298.327729
0
LINE
8
annotation
62
1
39
211
10
310.733488
20
298.327729
11
310.553101
21
298.377317
0
LINE
8
annotation
62
1
39
211
10
310.553101
20
298.377317
11
310.361397
21
298.394524
0
LINE
8
annotation
62
1
39
211
10
310.361397
20
298.394524
11
309.827695
21
298.394524
0
LINE
8
annotation
62
1
39
211
10
309.827695
20
298.394524
11
310.361397
21
298.394524
0
LINE
8
annotation
62
1
39
211
10
310.361397
20
298.394524
11
310.361397
21
298.394524
0
LINE
8
annotation
62
1
39
211
10
310.361397
20
298.394524
11
310.553101
21
298.411735
0
LINE
8
annotation
62
1
39
211
10
310.553101
20
298.411735
11
310.733488
21
298.461352
0
LINE
8
annotation
62
1
39
211
10
310.733488
20
298.461352
11
310.899557
21
298.540350
0
LINE
8
annotation
62
1
39
211
10
310.899557
20
298.540350
11
311.048309
21
298.645703
0
LINE
8
annotation
62
1
39
211
10
311.048309
20
298.645703
11
311.176743
21
298.774386
0
LINE
8
annotation
62
1
39
211
10
311.176743
20
298.774386
11
311.281859
21
298.923376
0
LINE
8
annotation
62
1
39
211
10
311.281859
20
298.923376
11
311.360656
21
299.089645
0
LINE
8
annotation
62
1
39
211
10
311.360656
20
299.089645
11
311.410135
21
299.270171
0
LINE
8
annotation
62
1
39
211
10
311.410135
20
299.270171
11
311.427294
21
299.461927
0
LINE
8
annotation
62
1
39
211
10
311.427294
20
299.461927
11
311.427294
21
299.461927
0
LINE
8
annotation
62
1
39
211
10
311.427294
20
299.461927
11
311.410135
21
299.652786
0
LINE
8
annotation
62
1
39
211
10
311.410135
20
299.652786
11
311.360656
21
299.832614
0
LINE
8
annotation
62
1
39
211
10
311.360656
20
299.832614
11
311.281859
21
299.998359
0
LINE
8
annotation
62
1
39
211
10
311.281859
20
299.998359
11
311.176743
21
300.146973
0
LINE
8
annotation
62
1
39
211
10
311.176743
20
300.146973
11
311.048309
21
300.275405
0
LINE
8
annotation
62
1
39
211
10
311.048309
20
300.275405
11
310.899557
21
300.380605
0
LINE
8
annotation
62
1
39
211
10
310.899557
20
300.380605
11
310.733488
21
300.459524
0
LINE
8
annotation
62
1
39
211
10
310.733488
20
300.459524
11
310.553101
21
300.509112
0
LINE
8
annotation
62
1
39
211
10
310.553101
20
300.509112
11
310.361397
21
300.526319
0
LINE
8
annotation
62
1
39
211
10
310.361397
20
300.526319
11
309.295499
21
300.526319
0
LINE
8
annotation
62
1
39
211
10
311.693994
20
321.682219
11
309.028799
21
321.682219
0
LINE
8
annotation
62
1
39
211
10
309.028799
20
321.682219
11
310.093191
21
325.415117
0
LINE
8
annotation
62
1
39
211
10
310.895098
20
320.615117
11
310.895098
21
322.746912
0
LINE
8
annotation
62
1
39
211
10
309.295499
20
336.011327
11
310.361396
21
336.011327
0
LINE
8
annotation
62
1
39
211
10
310.361396
20
336.011327
11
310.361396
21
336.011327
0
LINE
8
annotation
62
1
39
211
10
310.361396
20
336.011327
11
310.552704
21
336.028527
0
LINE
8
annotation
62
1
39
211
10
310.552704
20
336.028527
11
310.732881
21
336.078117
0
LINE
8
annotation
62
1
39
211
10
310.732881
20
336.078117
11
310.898888
21
336.157074
0
LINE
8
annotation
62
1
39
211
10
310.898888
20
336.157074
11
311.047690
21
336.262380
0
LINE
8
annotation
62
1
39
211
10
311.047690
20
336.262380
11
311.176247
21
336.391013
0
LINE
8
annotation
62
1
39
211
10
311.176247
20
336.391013
11
311.281524
21
336.539955
0
LINE
8
annotation
62
1
39
211
10
311.281524
20
336.539955
11
311.360482
21
336.706185
0
LINE
8
annotation
62
1
39
211
10
311.360482
20
336.706185
11
311.410085
21
336.886683
0
LINE
8
annotation
62
1
39
211
10
311.410085
20
336.886683
11
311.427294
21
337.078428
0
LINE
8
annotation
62
1
39
211
10
311.427294
20
337.078428
11
311.427294
21
337.609420
0
LINE
8
annotation
62
1
39
211
10
311.427294
20
337.609420
11
311.427294
21
337.609420
0
LINE
8
annotation
62
1
39
211
10
311.427294
20
337.609420
11
311.410095
21
337.801073
0
LINE
8
annotation
62
1
39
211
10
311.410095
20
337.801073
11
311.360517
21
337.981321
0
LINE
8
annotation
62
1
39
211
10
311.360517
20
337.981321
11
311.281591
21
338.147191
0
LINE
8
annotation
62
1
39
211
10
311.281591
20
338.147191
11
311.176346
21
338.295705
0
LINE
8
annotation
62
1
39
211
10
311.176346
20
338.295705
11
311.047813
21
338.423889
0
LINE
8
annotation
62
1
39
211
10
311.047813
20
338.423889
11
310.899022
21
338.528767
0
LINE
8
annotation
62
1
39
211
10
310.899022
20
338.528767
11
310.733002
21
338.607364
0
LINE
8
annotation
62
1
39
211
10
310.733002
20
338.607364
11
310.552783
21
338.656704
0
LINE
8
annotation
62
1
39
211
10
310.552783
20
338.656704
11
310.361396
21
338.673812
0
LINE
8
annotation
62
1
39
211
10
310.361396
20
338.673812
11
309.295499
21
338.673812
0
LINE
8
annotation
62
1
39
211
10
309.295499
20
338.673812
11
309.295499
21
340.811327
0
LINE
8
annotation
62
1
39
211
10
309.295499
20
340.811327
11
311.427294
21
340.811327
0
LINE
8
annotation
62
1
39
211
10
310.896603
20
405.304369
11
310.896603
21
405.304369
0
LINE
8
annotation
62
1
39
211
10
310.896603
20
405.304369
11
310.591250
21
405.189881
0
LINE
8
annotation
62
1
39
211
10
310.591250
20
405.189881
11
310.311049
21
405.035620
0
LINE
8
annotation
62
1
39
211
10
310.311049
20
405.035620
11
310.058875
21
404.845454
0
LINE
8
annotation
62
1
39
211
10
310.058875
20
404.845454
11
309.837606
21
404.623246
0
LINE
8
annotation
62
1
39
211
10
309.837606
20
404.623246
11
309.650118
21
404.372861
0
LINE
8
annotation
62
1
39
211
10
309.650118
20
404.372861
11
309.499287
21
404.098165
0
LINE
8
annotation
62
1
39
211
10
309.499287
20
404.098165
11
309.387989
21
403.803022
0
LINE
8
annotation
62
1
39
211
10
309.387989
20
403.803022
11
309.319101
21
403.491297
0
LINE
8
annotation
62
1
39
211
10
309.319101
20
403.491297
11
309.295499
21
403.166855
0
LINE
8
annotation
62
1
39
211
10
309.295499
20
403.166855
11
309.295499
21
401.571471
0
LINE
8
annotation
62
1
39
211
10
309.295499
20
401.571471
11
309.295499
21
401.571471
0
LINE
8
annotation
62
1
39
211
10
309.295499
20
401.571471
11
309.312708
21
401.379725
0
LINE
8
annotation
62
1
39
211
10
309.312708
20
401.379725
11
309.362311
21
401.199228
0
LINE
8
annotation
62
1
39
211
10
309.362311
20
401.199228
11
309.441269
21
401.032998
0
LINE
8
annotation
62
1
39
211
10
309.441269
20
401.032998
11
309.546545
21
400.884056
0
LINE
8
annotation
62
1
39
211
10
309.546545
20
400.884056
11
309.675103
21
400.755423
0
LINE
8
annotation
62
1
39
211
10
309.675103
20
400.755423
11
309.823905
21
400.650117
0
LINE
8
annotation
62
1
39
211
10
309.823905
20
400.650117
11
309.989912
21
400.571159
0
LINE
8
annotation
62
1
39
211
10
309.989912
20
400.571159
11
310.170089
21
400.521570
0
LINE
8
annotation
62
1
39
211
10
310.170089
20
400.521570
11
310.361396
21
400.504369
0
LINE
8
annotation
62
1
39
211
10
310.361396
20
400.504369
11
310.361396
21
400.504369
0
LINE
8
annotation
62
1
39
211
10
310.361396
20
400.504369
11
310.553101
21
400.521570
0
LINE
8
annotation
62
1
39
211
10
310.553101
20
400.521570
11
310.733488
21
400.571159
0
LINE
8
annotation
62
1
39
211
10
310.733488
20
400.571159
11
310.899557
21
400.650117
0
LINE
8
annotation
62
1
39
211
10
310.899557
20
400.650117
11
311.048309
21
400.755423
0
LINE
8
annotation
62
1
39
211
10
311.048309
20
400.755423
11
311.176743
21
400.884056
0
LINE
8
annotation
62
1
39
211
10
311.176743
20
400.884056
11
311.281859
21
401.032998
0
LINE
8
annotation
62
1
39
211
10
311.281859
20
401.032998
11
311.360656
21
401.199228
0
LINE
8
annotation
62
1
39
211
10
311.360656
20
401.199228
11
311.410134
21
401.379725
0
LINE
8
annotation
62
1
39
211
10
311.410134
20
401.379725
11
311.427294
21
401.571471
0
LINE
8
annotation
62
1
39
211
10
311.427294
20
401.571471
11
311.427294
21
402.102463
0
LINE
8
annotation
62
1
39
211
10
311.427294
20
402.102463
11
311.427294
21
402.102463
0
LINE
8
annotation
62
1
39
211
10
311.427294
20
402.102463
11
311.410134
21
402.294116
0
LINE
8
annotation
62
1
39
211
10
311.410134
20
402.294116
11
311.360656
21
402.474364
0
LINE
8
annotation
62
1
39
211
10
311.360656
20
402.474364
11
311.281859
21
402.640234
0
LINE
8
annotation
62
1
39
211
10
311.281859
20
402.640234
11
311.176743
21
402.788748
0
LINE
8
annotation
62
1
39
211
10
311.176743
20
402.788748
11
311.048309
21
402.916932
0
LINE
8
annotation
62
1
39
211
10
311.048309
20
402.916932
11
310.899557
21
403.021810
0
LINE
8
annotation
62
1
39
211
10
310.899557
20
403.021810
11
310.733488
21
403.100407
0
LINE
8
annotation
62
1
39
211
10
310.733488
20
403.100407
11
310.553101
21
403.149747
0
LINE
8
annotation
62
1
39
211
10
310.553101
20
403.149747
11
310.361396
21
403.166855
0
LINE
8
annotation
62
1
39
211
10
310.361396
20
403.166855
11
309.295499
21
403.166855
0
LINE
8
annotation
62
1
39
211
10
309.161998
20
399.904369
11
311.561998
21
399.904369
0
LINE
8
annotation
62
1
39
211
10
310.361396
20
416.520934
11
311.428498
21
421.320934
0
LINE
8
annotation
62
1
39
211
10
311.428498
20
421.320934
11
309.293994
21
421.320934
0
LINE
8
annotation
62
1
39
211
10
311.428498
20
419.183420
11
310.361396
21
419.183420
0
LINE
8
annotation
62
1
39
211
10
309.295499
20
441.509735
11
309.295499
21
441.509735
0
LINE
8
annotation
62
1
39
211
10
309.295499
20
441.509735
11
309.312708
21
441.318082
0
LINE
8
annotation
62
1
39
211
10
309.312708
20
441.318082
11
309.362311
21
441.137833
0
LINE
8
annotation
62
1
39
211
10
309.362311
20
441.137833
11
309.441269
21
440.971964
0
LINE
8
annotation
62
1
39
211
10
309.441269
20
440.971964
11
309.546546
21
440.823450
0
LINE
8
annotation
62
1
39
211
10
309.546546
20
440.823450
11
309.675104
21
440.695266
0
LINE
8
annotation
62
1
39
211
10
309.675104
20
440.695266
11
309.823905
21
440.590387
0
LINE
8
annotation
62
1
39
211
10
309.823905
20
440.590387
11
309.989913
21
440.511790
0
LINE
8
annotation
62
1
39
211
10
309.989913
20
440.511790
11
310.170089
21
440.462450
0
LINE
8
annotation
62
1
39
211
10
310.170089
20
440.462450
11
310.361397
21
440.445342
0
LINE
8
annotation
62
1
39
211
10
310.361397
20
440.445342
11
310.361397
21
440.445342
0
LINE
8
annotation
62
1
39
211
10
310.361397
20
440.445342
11
310.552705
21
440.462450
0
LINE
8
annotation
62
1
39
211
10
310.552705
20
440.462450
11
310.732881
21
440.511790
0
LINE
8
annotation
62
1
39
211
10
310.732881
20
440.511790
11
310.898889
21
440.590387
0
LINE
8
annotation
62
1
39
211
10
310.898889
20
440.590387
11
311.047690
21
440.695266
0
LINE
8
annotation
62
1
39
211
10
311.047690
20
440.695266
11
311.176248
21
440.823450
0
LINE
8
annotation
62
1
39
211
10
311.176248
20
440.823450
11
311.281524
21
440.971964
0
LINE
8
annotation
62
1
39
211
10
311.281524
20
440.971964
11
311.360483
21
441.137833
0
LINE
8
annotation
62
1
39
211
10
311.360483
20
441.137833
11
311.410085
21
441.318082
0
LINE
8
annotation
62
1
39
211
10
311.410085
20
441.318082
11
311.427294
21
441.509735
0
LINE
8
annotation
62
1
39
211
10
311.427294
20
441.509735
11
311.427294
21
442.040727
0
LINE
8
annotation
62
1
39
211
10
311.427294
20
442.040727
11
311.427294
21
442.040727
0
LINE
8
annotation
62
1
39
211
10
311.427294
20
442.040727
11
311.410095
21
442.232472
0
LINE
8
annotation
62
1
39
211
10
311.410095
20
442.232472
11
311.360517
21
442.412970
0
LINE
8
annotation
62
1
39
211
10
311.360517
20
442.412970
11
311.281591
21
442.579200
0
LINE
8
annotation
62
1
39
211
10
311.281591
20
442.579200
11
311.176347
21
442.728141
0
LINE
8
annotation
62
1
39
211
10
311.176347
20
442.728141
11
311.047814
21
442.856775
0
LINE
8
annotation
62
1
39
211
10
311.047814
20
442.856775
11
310.899022
21
442.962081
0
LINE
8
annotation
62
1
39
211
10
310.899022
20
442.962081
11
310.733002
21
443.041038
0
LINE
8
annotation
62
1
39
211
10
310.733002
20
443.041038
11
310.552784
21
443.090627
0
LINE
8
annotation
62
1
39
211
10
310.552784
20
443.090627
11
310.361397
21
443.107828
0
LINE
8
annotation
62
1
39
211
10
310.361397
20
443.107828
11
310.361397
21
443.107828
0
LINE
8
annotation
62
1
39
211
10
310.361397
20
443.107828
11
310.170010
21
443.090617
0
LINE
8
annotation
62
1
39
211
10
310.170010
20
443.090617
11
309.989791
21
443.041003
0
LINE
8
annotation
62
1
39
211
10
309.989791
20
443.041003
11
309.823771
21
442.962014
0
LINE
8
annotation
62
1
39
211
10
309.823771
20
442.962014
11
309.674980
21
442.856676
0
LINE
8
annotation
62
1
39
211
10
309.674980
20
442.856676
11
309.546447
21
442.728018
0
LINE
8
annotation
62
1
39
211
10
309.546447
20
442.728018
11
309.441202
21
442.579066
0
LINE
8
annotation
62
1
39
211
10
309.441202
20
442.579066
11
309.362276
21
442.412848
0
LINE
8
annotation
62
1
39
211
10
309.362276
20
442.412848
11
309.312699
21
442.232393
0
LINE
8
annotation
62
1
39
211
10
309.312699
20
442.232393
11
309.295499
21
442.040727
0
LINE
8
annotation
62
1
39
211
10
309.295499
20
442.040727
11
309.295499
21
441.509735
0
LINE
8
annotation
62
1
39
211
10
311.427294
20
444.175231
11
311.427294
21
444.175231
0
LINE
8
annotation
62
1
39
211
10
311.427294
20
444.175231
11
311.410095
21
444.366090
0
LINE
8
annotation
62
1
39
211
10
311.410095
20
444.366090
11
311.360517
21
444.545918
0
LINE
8
annotation
62
1
39
211
10
311.360517
20
444.545918
11
311.281591
21
444.711663
0
LINE
8
annotation
62
1
39
211
10
311.281591
20
444.711663
11
311.176347
21
444.860277
0
LINE
8
annotation
62
1
39
211
10
311.176347
20
444.860277
11
311.047814
21
444.988709
0
LINE
8
annotation
62
1
39
211
10
311.047814
20
444.988709
11
310.899022
21
445.093909
0
LINE
8
annotation
62
1
39
211
10
310.899022
20
445.093909
11
310.733002
21
445.172828
0
LINE
8
annotation
62
1
39
211
10
310.733002
20
445.172828
11
310.552784
21
445.222416
0
LINE
8
annotation
62
1
39
211
10
310.552784
20
445.222416
11
310.361397
21
445.239623
0
LINE
8
annotation
62
1
39
211
10
310.361397
20
445.239623
11
310.361397
21
445.239623
0
LINE
8
annotation
62
1
39
211
10
310.361397
20
445.239623
11
310.170010
21
445.222416
0
LINE
8
annotation
62
1
39
211
10
310.170010
20
445.222416
11
309.989791
21
445.172828
0
LINE
8
annotation
62
1
39
211
10
309.989791
20
445.172828
11
309.823771
21
445.093909
0
LINE
8
annotation
62
1
39
211
10
309.823771
20
445.093909
11
309.674980
21
444.988709
0
LINE
8
annotation
62
1
39
211
10
309.674980
20
444.988709
11
309.546447
21
444.860277
0
LINE
8
annotation
62
1
39
211
10
309.546447
20
444.860277
11
309.441202
21
444.711663
0
LINE
8
annotation
62
1
39
211
10
309.441202
20
444.711663
11
309.362276
21
444.545918
0
LINE
8
annotation
62
1
39
211
10
309.362276
20
444.545918
11
309.312699
21
444.366090
0
LINE
8
annotation
62
1
39
211
10
309.312699
20
444.366090
11
309.295499
21
444.175231
0
LINE
8
annotation
62
1
39
211
10
309.295499
20
444.175231
11
309.295499
21
444.175231
0
LINE
8
annotation
62
1
39
211
10
309.295499
20
444.175231
11
309.312708
21
443.983475
0
LINE
8
annotation
62
1
39
211
10
309.312708
20
443.983475
11
309.362311
21
443.802950
0
LINE
8
annotation
62
1
39
211
10
309.362311
20
443.802950
11
309.441269
21
443.636680
0
LINE
8
annotation
62
1
39
211
10
309.441269
20
443.636680
11
309.546546
21
443.487690
0
LINE
8
annotation
62
1
39
211
10
309.546546
20
443.487690
11
309.675104
21
443.359007
0
LINE
8
annotation
62
1
39
211
10
309.675104
20
443.359007
11
309.823905
21
443.253654
0
LINE
8
annotation
62
1
39
211
10
309.823905
20
443.253654
11
309.989913
21
443.174656
0
LINE
8
annotation
62
1
39
211
10
309.989913
20
443.174656
11
310.170089
21
443.125039
0
LINE
8
annotation
62
1
39
211
10
310.170089
20
443.125039
11
310.361397
21
443.107828
0
LINE
8
annotation
62
1
39
211
10
310.361397
20
443.107828
11
310.361397
21
443.107828
0
LINE
8
annotation
62
1
39
211
10
310.361397
20
443.107828
11
310.552705
21
443.125039
0
LINE
8
annotation
62
1
39
211
10
310.552705
20
443.125039
11
310.732881
21
443.174656
0
LINE
8
annotation
62
1
39
211
10
310.732881
20
443.174656
11
310.898889
21
443.253654
0
LINE
8
annotation
62
1
39
211
10
310.898889
20
443.253654
11
311.047690
21
443.359007
0
LINE
8
annotation
62
1
39
211
10
311.047690
20
443.359007
11
311.176248
21
443.487690
0
LINE
8
annotation
62
1
39
211
10
311.176248
20
443.487690
11
311.281524
21
443.636680
0
LINE
8
annotation
62
1
39
211
10
311.281524
20
443.636680
11
311.360483
21
443.802950
0
LINE
8
annotation
62
1
39
211
10
311.360483
20
443.802950
11
311.410085
21
443.983475
0
LINE
8
annotation
62
1
39
211
10
311.410085
20
443.983475
11
311.427294
21
444.175231
0
LINE
8
annotation
62
1
39
211
10
254.995588
20
409.988459
11
247.043124
21
409.988459
0
LINE
8
annotation
62
1
39
211
10
247.043124
20
409.988459
11
254.995588
21
424.310798
0
LINE
8
annotation
62
1
39
211
10
254.995588
20
424.310798
11
247.043124
21
424.310798
0
LINE
8
annotation
62
1
39
211
10
268.199023
20
417.149629
11
260.367813
21
417.149629
0
LINE
8
annotation
62
1
39
211
10
273.568553
20
413.163966
11
273.568553
21
413.163966
0
LINE
8
annotation
62
1
39
211
10
273.568553
20
413.163966
11
273.619902
21
412.592109
0
LINE
8
annotation
62
1
39
211
10
273.619902
20
412.592109
11
273.767907
21
412.054279
0
LINE
8
annotation
62
1
39
211
10
273.767907
20
412.054279
11
274.003504
21
411.559355
0
LINE
8
annotation
62
1
39
211
10
274.003504
20
411.559355
11
274.317631
21
411.116214
0
LINE
8
annotation
62
1
39
211
10
274.317631
20
411.116214
11
274.701224
21
410.733736
0
LINE
8
annotation
62
1
39
211
10
274.701224
20
410.733736
11
275.145221
21
410.420798
0
LINE
8
annotation
62
1
39
211
10
275.145221
20
410.420798
11
275.640558
21
410.186279
0
LINE
8
annotation
62
1
39
211
10
275.640558
20
410.186279
11
276.178172
21
410.039057
0
LINE
8
annotation
62
1
39
211
10
276.178172
20
410.039057
11
276.749000
21
409.988010
0
LINE
8
annotation
62
1
39
211
10
276.749000
20
409.988010
11
276.749000
21
409.988010
0
LINE
8
annotation
62
1
39
211
10
276.749000
20
409.988010
11
277.319828
21
410.039057
0
LINE
8
annotation
62
1
39
211
10
277.319828
20
410.039057
11
277.857442
21
410.186279
0
LINE
8
annotation
62
1
39
211
10
277.857442
20
410.186279
11
278.352779
21
410.420798
0
LINE
8
annotation
62
1
39
211
10
278.352779
20
410.420798
11
278.796776
21
410.733736
0
LINE
8
annotation
62
1
39
211
10
278.796776
20
410.733736
11
279.180369
21
411.116214
0
LINE
8
annotation
62
1
39
211
10
279.180369
20
411.116214
11
279.494496
21
411.559355
0
LINE
8
annotation
62
1
39
211
10
279.494496
20
411.559355
11
279.730093
21
412.054279
0
LINE
8
annotation
62
1
39
211
10
279.730093
20
412.054279
11
279.878098
21
412.592109
0
LINE
8
annotation
62
1
39
211
10
279.878098
20
412.592109
11
279.929447
21
413.163966
0
LINE
8
annotation
62
1
39
211
10
279.929447
20
413.163966
11
279.929447
21
414.748351
0
LINE
8
annotation
62
1
39
211
10
279.929447
20
414.748351
11
279.929447
21
414.748351
0
LINE
8
annotation
62
1
39
211
10
279.929447
20
414.748351
11
279.878127
21
415.320485
0
LINE
8
annotation
62
1
39
211
10
279.878127
20
415.320485
11
279.730197
21
415.859058
0
LINE
8
annotation
62
1
39
211
10
279.730197
20
415.859058
11
279.494696
21
416.355058
0
LINE
8
annotation
62
1
39
211
10
279.494696
20
416.355058
11
279.180665
21
416.799473
0
LINE
8
annotation
62
1
39
211
10
279.180665
20
416.799473
11
278.797145
21
417.183293
0
LINE
8
annotation
62
1
39
211
10
278.797145
20
417.183293
11
278.353178
21
417.497506
0
LINE
8
annotation
62
1
39
211
10
278.353178
20
417.497506
11
277.857804
21
417.733101
0
LINE
8
annotation
62
1
39
211
10
277.857804
20
417.733101
11
277.320065
21
417.881066
0
LINE
8
annotation
62
1
39
211
10
277.320065
20
417.881066
11
276.749000
21
417.932390
0
LINE
8
annotation
62
1
39
211
10
276.749000
20
417.932390
11
276.749000
21
417.932390
0
LINE
8
annotation
62
1
39
211
10
276.749000
20
417.932390
11
276.177935
21
417.881037
0
LINE
8
annotation
62
1
39
211
10
276.177935
20
417.881037
11
275.640195
21
417.732997
0
LINE
8
annotation
62
1
39
211
10
275.640195
20
417.732997
11
275.144822
21
417.497307
0
LINE
8
annotation
62
1
39
211
10
275.144822
20
417.497307
11
274.700854
21
417.182997
0
LINE
8
annotation
62
1
39
211
10
274.700854
20
417.182997
11
274.317335
21
416.799103
0
LINE
8
annotation
62
1
39
211
10
274.317335
20
416.799103
11
274.003304
21
416.354658
0
LINE
8
annotation
62
1
39
211
10
274.003304
20
416.354658
11
273.767803
21
415.858696
0
LINE
8
annotation
62
1
39
211
10
273.767803
20
415.858696
11
273.619873
21
415.320249
0
LINE
8
annotation
62
1
39
211
10
273.619873
20
415.320249
11
273.568553
21
414.748351
0
LINE
8
annotation
62
1
39
211
10
273.568553
20
414.748351
11
273.568553
21
413.163966
0
LINE
8
annotation
62
1
39
211
10
279.929447
20
421.117328
11
279.929447
21
421.117328
0
LINE
8
annotation
62
1
39
211
10
279.929447
20
421.117328
11
279.878127
21
421.686819
0
LINE
8
annotation
62
1
39
211
10
279.878127
20
421.686819
11
279.730197
21
422.223392
0
LINE
8
annotation
62
1
39
211
10
279.730197
20
422.223392
11
279.494696
21
422.717947
0
LINE
8
annotation
62
1
39
211
10
279.494696
20
422.717947
11
279.180665
21
423.161383
0
LINE
8
annotation
62
1
39
211
10
279.180665
20
423.161383
11
278.797145
21
423.544601
0
LINE
8
annotation
62
1
39
211
10
278.797145
20
423.544601
11
278.353178
21
423.858500
0
LINE
8
annotation
62
1
39
211
10
278.353178
20
423.858500
11
277.857804
21
424.093980
0
LINE
8
annotation
62
1
39
211
10
277.857804
20
424.093980
11
277.320065
21
424.241941
0
LINE
8
annotation
62
1
39
211
10
277.320065
20
424.241941
11
276.749000
21
424.293284
0
LINE
8
annotation
62
1
39
211
10
276.749000
20
424.293284
11
276.749000
21
424.293284
0
LINE
8
annotation
62
1
39
211
10
276.749000
20
424.293284
11
276.177935
21
424.241941
0
LINE
8
annotation
62
1
39
211
10
276.177935
20
424.241941
11
275.640195
21
424.093980
0
LINE
8
annotation
62
1
39
211
10
275.640195
20
424.093980
11
275.144822
21
423.858500
0
LINE
8
annotation
62
1
39
211
10
275.144822
20
423.858500
11
274.700854
21
423.544601
0
LINE
8
annotation
62
1
39
211
10
274.700854
20
423.544601
11
274.317335
21
423.161383
0
LINE
8
annotation
62
1
39
211
10
274.317335
20
423.161383
11
274.003304
21
422.717947
0
LINE
8
annotation
62
1
39
211
10
274.003304
20
422.717947
11
273.767803
21
422.223392
0
LINE
8
annotation
62
1
39
211
10
273.767803
20
422.223392
11
273.619873
21
421.686819
0
LINE
8
annotation
62
1
39
211
10
273.619873
20
421.686819
11
273.568553
21
421.117328
0
LINE
8
annotation
62
1
39
211
10
273.568553
20
421.117328
11
273.568553
21
421.117328
0
LINE
8
annotation
62
1
39
211
10
273.568553
20
421.117328
11
273.619902
21
420.545163
0
LINE
8
annotation
62
1
39
211
10
273.619902
20
420.545163
11
273.767907
21
420.006508
0
LINE
8
annotation
62
1
39
211
10
273.767907
20
420.006508
11
274.003504
21
419.510389
0
LINE
8
annotation
62
1
39
211
10
274.003504
20
419.510389
11
274.317631
21
419.065831
0
LINE
8
annotation
62
1
39
211
10
274.317631
20
419.065831
11
274.701224
21
418.681862
0
LINE
8
annotation
62
1
39
211
10
274.701224
20
418.681862
11
275.145221
21
418.367508
0
LINE
8
annotation
62
1
39
211
10
275.145221
20
418.367508
11
275.640558
21
418.131793
0
LINE
8
annotation
62
1
39
211
10
275.640558
20
418.131793
11
276.178172
21
417.983745
0
LINE
8
annotation
62
1
39
211
10
276.178172
20
417.983745
11
276.749000
21
417.932390
0
LINE
8
annotation
62
1
39
211
10
276.749000
20
417.932390
11
276.749000
21
417.932390
0
LINE
8
annotation
62
1
39
211
10
276.749000
20
417.932390
11
277.319828
21
417.983745
0
LINE
8
annotation
62
1
39
211
10
277.319828
20
417.983745
11
277.857442
21
418.131793
0
LINE
8
annotation
62
1
39
211
10
277.857442
20
418.131793
11
278.352779
21
418.367508
0
LINE
8
annotation
62
1
39
211
10
278.352779
20
418.367508
11
278.796776
21
418.681862
0
LINE
8
annotation
62
1
39
211
10
278.796776
20
418.681862
11
279.180369
21
419.065831
0
LINE
8
annotation
62
1
39
211
10
279.180369
20
419.065831
11
279.494496
21
419.510389
0
LINE
8
annotation
62
1
39
211
10
279.494496
20
419.510389
11
279.730093
21
420.006508
0
LINE
8
annotation
62
1
39
211
10
279.730093
20
420.006508
11
279.878098
21
420.545163
0
LINE
8
annotation
62
1
39
211
10
279.878098
20
420.545163
11
279.929447
21
421.117328
0
LINE
8
annotation
62
1
39
211
10
293.132882
20
417.149629
11
285.301671
21
417.149629
0
LINE
8
annotation
62
1
39
211
10
304.864386
20
409.988342
11
298.503493
21
409.988342
0
LINE
8
annotation
62
1
39
211
10
298.503493
20
409.988342
11
304.381167
21
419.450643
0
LINE
8
annotation
62
1
39
211
10
304.381167
20
419.450643
11
304.381167
21
419.450643
0
LINE
8
annotation
62
1
39
211
10
304.381167
20
419.450643
11
304.388193
21
419.459338
0
LINE
8
annotation
62
1
39
211
10
304.388193
20
419.459338
11
304.394932
21
419.468107
0
LINE
8
annotation
62
1
39
211
10
304.394932
20
419.468107
11
304.401426
21
419.477023
0
LINE
8
annotation
62
1
39
211
10
304.401426
20
419.477023
11
304.407720
21
419.486161
0
LINE
8
annotation
62
1
39
211
10
304.407720
20
419.486161
11
304.413860
21
419.495595
0
LINE
8
annotation
62
1
39
211
10
304.413860
20
419.495595
11
304.419888
21
419.505399
0
LINE
8
annotation
62
1
39
211
10
304.419888
20
419.505399
11
304.425850
21
419.515646
0
LINE
8
annotation
62
1
39
211
10
304.425850
20
419.515646
11
304.431790
21
419.526410
0
LINE
8
annotation
62
1
39
211
10
304.431790
20
419.526410
11
304.437752
21
419.537766
0
LINE
8
annotation
62
1
39
211
10
304.437752
20
419.537766
11
304.437752
21
419.537766
0
LINE
8
annotation
62
1
39
211
10
304.437752
20
419.537766
11
304.680440
21
420.058838
0
LINE
8
annotation
62
1
39
211
10
304.680440
20
420.058838
11
304.822214
21
420.598974
0
LINE
8
annotation
62
1
39
211
10
304.822214
20
420.598974
11
304.866549
21
421.145970
0
LINE
8
annotation
62
1
39
211
10
304.866549
20
421.145970
11
304.816918
21
421.687622
0
LINE
8
annotation
62
1
39
211
10
304.816918
20
421.687622
11
304.676798
21
422.211724
0
LINE
8
annotation
62
1
39
211
10
304.676798
20
422.211724
11
304.449661
21
422.706071
0
LINE
8
annotation
62
1
39
211
10
304.449661
20
422.706071
11
304.138983
21
423.158459
0
LINE
8
annotation
62
1
39
211
10
304.138983
20
423.158459
11
303.748237
21
423.556684
0
LINE
8
annotation
62
1
39
211
10
303.748237
20
423.556684
11
303.280899
21
423.888539
0
LINE
8
annotation
62
1
39
211
10
303.280899
20
423.888539
11
303.280899
21
423.888539
0
LINE
8
annotation
62
1
39
211
10
303.280899
20
423.888539
11
302.758379
21
424.127778
0
LINE
8
annotation
62
1
39
211
10
302.758379
20
424.127778
11
302.217415
21
424.267367
0
LINE
8
annotation
62
1
39
211
10
302.217415
20
424.267367
11
301.670101
21
424.310449
0
LINE
8
annotation
62
1
39
211
10
301.670101
20
424.310449
11
301.128531
21
424.260165
0
LINE
8
annotation
62
1
39
211
10
301.128531
20
424.260165
11
300.604798
21
424.119656
0
LINE
8
annotation
62
1
39
211
10
300.604798
20
424.119656
11
300.110998
21
423.892065
0
LINE
8
annotation
62
1
39
211
10
300.110998
20
423.892065
11
299.659223
21
423.580533
0
LINE
8
annotation
62
1
39
211
10
299.659223
20
423.580533
11
299.261568
21
423.188202
0
LINE
8
annotation
62
1
39
211
10
299.261568
20
423.188202
11
298.930127
21
422.718213
0
LINE
8
annotation
62
1
39
211
10
298.930127
20
422.718213
11
298.512475
21
421.917039
0
LINE
8
frame
62
5
39
2
10
0.000000
20
0.000000
11
450.000000
21
0.000000
0
LINE
8
frame
62
5
39
2
10
450.000000
20
0.000000
11
450.000000
21
500.000000
0
LINE
8
frame
62
5
39
2
10
450.000000
20
500.000000
11
0.000000
21
500.000000
0
LINE
8
frame
62
5
39
2
10
0.000000
20
500.000000
11
0.000000
21
0.000000
0
ENDSEC
0
EOF
