0
SECTION
2
HEADER
9
$INSUNITS
70
4
9
$ACADVER
1
AC1014
9
$HANDSEED
5
FFFF
0
ENDSEC
0
SECTION
2
TABLES
0
TABLE
2
VPORT
5
8
100
AcDbSymbolTable
0
ENDTAB
0
TABLE
2
LTYPE
5
5
100
AcDbSymbolTable
0
LTYPE
5
14
100
AcDbSymbolTableRecord
100
AcDbLinetypeTableRecord
2
BYBLOCK
70
0
0
LTYPE
5
15
100
AcDbSymbolTableRecord
100
AcDbLinetypeTableRecord
2
BYLAYER
70
0
0
ENDTAB
0
TABLE
2
LAYER
5
2
100
AcDbSymbolTable
70
2
0
LAYER
5
50
100
AcDbSymbolTableRecord
100
AcDbLayerTableRecord
2
0
70
0
6
CONTINUOUS
0
ENDTAB
0
TABLE
2
STYLE
5
3
100
AcDbSymbolTable
70
1
0
STYLE
5
11
100
AcDbSymbolTableRecord
100
AcDbTextStyleTableRecord
2
STANDARD
70
0
0
ENDTAB
0
TABLE
2
VIEW
5
6
100
AcDbSymbolTable
70
0
0
ENDTAB
0
TABLE
2
UCS
5
7
100
AcDbSymbolTable
70
0
0
ENDTAB
0
TABLE
2
APPID
5
9
100
AcDbSymbolTable
70
2
0
APPID
5
12
100
AcDbSymbolTableRecord
100
AcDbRegAppTableRecord
2
ACAD
70
0
0
ENDTAB
0
TABLE
2
DIMSTYLE
5
A
100
AcDbSymbolTable
70
1
0
ENDTAB
0
TABLE
2
BLOCK_RECORD
5
1
100
AcDbSymbolTable
70
1
0
BLOCK_RECORD
5
1F
100
AcDbSymbolTableRecord
100
AcDbBlockTableRecord
2
*MODEL_SPACE
0
BLOCK_RECORD
5
1B
100
AcDbSymbolTableRecord
100
AcDbBlockTableRecord
2
*PAPER_SPACE
0
ENDTAB
0
ENDSEC
0
SECTION
2
BLOCKS
0
BLOCK
5
20
100
AcDbEntity
100
AcDbBlockBegin
2
*MODEL_SPACE
0
ENDBLK
5
21
100
AcDbEntity
100
AcDbBlockEnd
0
BLOCK
5
1C
100
AcDbEntity
100
AcDbBlockBegin
2
*PAPER_SPACE
0
ENDBLK
5
1D
100
AcDbEntity
100
AcDbBlockEnd
0
ENDSEC
0
SECTION
2
ENTITIES
0
SPLINE
5
100
100
AcDbEntity
8
0
100
AcDbSpline
70
1064
71
5
72
16
73
10
74
0
42
0.000000001
43
0.0000000001
44
0.0000000001
40
0
40
0
40
0
40
0
40
0
40
0
40
0.20000000000000001
40
0.40000000000000002
40
0.60000000000000009
40
0.80000000000000004
40
1
40
1
40
1
40
1
40
1
40
1
10
11.143981850127956
20
20.002825878639658
30
0
10
11.574953915353776
20
19.999234702756517
30
0
10
12.436898045805451
20
19.992052350990519
30
0
10
13.729814241483101
20
19.981278823342414
30
0
10
15.453702502386893
20
19.966914119813065
30
0
10
17.608562828517059
20
19.948958240402884
30
0
10
19.332451089421497
20
19.93459353687517
30
0
10
20.625367285100022
20
19.92382000922937
30
0
10
21.487311415552441
20
19.916637657465447
30
0
10
21.91828348077868
20
19.913046481583471
30
0
0
SPLINE
5
101
100
AcDbEntity
8
0
100
AcDbSpline
70
1064
71
5
72
31
73
25
74
0
42
0.000000001
43
0.0000000001
44
0.0000000001
40
0
40
0
40
0
40
0
40
0
40
0
40
0.050000000000000003
40
0.10000000000000001
40
0.15000000000000002
40
0.20000000000000001
40
0.25
40
0.29999999999999999
40
0.34999999999999998
40
0.39999999999999997
40
0.44999999999999996
40
0.49999999999999994
40
0.54999999999999993
40
0.59999999999999998
40
0.65000000000000002
40
0.70000000000000007
40
0.75000000000000011
40
0.80000000000000016
40
0.8500000000000002
40
0.90000000000000024
40
0.95000000000000029
40
1
40
1
40
1
40
1
40
1
40
1
10
21.91828348077868
20
19.913046481583471
30
0
10
21.960717419861624
20
19.914437595963619
30
0
10
22.04652009185455
20
19.9141928279703
30
0
10
22.178028589627814
20
19.904744634139689
30
0
10
22.359004191827999
20
19.873911295881996
30
0
10
22.594420410695555
20
19.804698427583077
30
0
10
22.838210921258213
20
19.704755448345804
30
0
10
23.088566185462952
20
19.57455079271881
30
0
10
23.342196695298707
20
19.415492450959611
30
0
10
23.594186481266114
20
19.23015109731783
30
0
10
23.838815921033198
20
19.021926094225922
30
0
10
24.070182077068214
20
18.794850494206447
30
0
10
24.282918408071566
20
18.553383584947895
30
0
10
24.472846505902126
20
18.302228115449452
30
0
10
24.637809309020259
20
18.046189489417049
30
0
10
24.777282670261265
20
17.789747257885843
30
0
10
24.891837327924801
20
17.536600030858047
30
0
10
24.982690553278324
20
17.289170190264986
30
0
10
25.051283129078477
20
17.048195265866358
30
0
10
25.098822967294797
20
16.812016595268691
30
0
10
25.126179339822656
20
16.577266278412001
30
0
10
25.132382858070027
20
16.38755451953504
30
0
10
25.128353947572361
20
16.242751391362418
30
0
10
25.121821083514575
20
16.144903294320233
30
0
10
25.117592911214434
20
16.095651039615216
30
0
0
SPLINE
5
102
100
AcDbEntity
8
0
100
AcDbSpline
70
1064
71
5
72
31
73
25
74
0
42
0.000000001
43
0.0000000001
44
0.0000000001
40
0
40
0
40
0
40
0
40
0
40
0
40
0.050000000000000003
40
0.10000000000000001
40
0.15000000000000002
40
0.20000000000000001
40
0.25
40
0.29999999999999999
40
0.34999999999999998
40
0.39999999999999997
40
0.44999999999999996
40
0.49999999999999994
40
0.54999999999999993
40
0.59999999999999998
40
0.65000000000000002
40
0.70000000000000007
40
0.75000000000000011
40
0.80000000000000016
40
0.8500000000000002
40
0.90000000000000024
40
0.95000000000000029
40
1
40
1
40
1
40
1
40
1
40
1
10
22.397500409621514
20
21.694378449489552
30
0
10
22.459644619294199
20
21.688599109624484
30
0
10
22.583597581029199
20
21.675094444958564
30
0
10
22.768520559967019
20
21.648999753042524
30
0
10
23.013064177299782
20
21.602481564374393
30
0
10
23.315382442001869
20
21.524127067157796
30
0
10
23.614457661092949
20
21.424017403054862
30
0
10
23.910568391403501
20
21.29949840557078
30
0
10
24.204306272724988
20
21.146323483290395
30
0
10
24.496407193660026
20
20.959046034318781
30
0
10
24.787120613480663
20
20.732681147174418
30
0
10
25.075641788116812
20
20.464199699480456
30
0
10
25.359596998868817
20
20.1539445710915
30
0
10
25.634262598533937
20
19.807689220810076
30
0
10
25.892640542281953
20
19.436759548442566
30
0
10
26.126996402831896
20
19.054836443308293
30
0
10
26.330024497929688
20
18.675654654174146
30
0
10
26.496259223288618
20
18.310247937836298
30
0
10
26.623274629818916
20
17.964638294274355
30
0
10
26.713486035744527
20
17.636516985217646
30
0
10
26.772615916921801
20
17.317701087271725
30
0
10
26.800422579549128
20
17.061916752136245
30
0
10
26.812878545899391
20
16.86563764620454
30
0
10
26.817795131413046
20
16.732258217818146
30
0
10
26.819406630034042
20
16.664936734602449
30
0
0
LINE
5
103
100
AcDbEntity
8
0
100
AcDbLine
10
40.01909993888858
20
9.8413924837172502
30
0
11
33.210474093506988
21
9.8413924837172502
31
0
0
LINE
5
104
100
AcDbEntity
8
0
100
AcDbLine
10
33.210474093506988
20
9.8413924837172502
30
0
11
29.975262092985709
21
5.5002661768953232
31
0
0
LINE
5
105
100
AcDbEntity
8
0
100
AcDbLine
10
40.019099938888587
20
5.5002661768953329
30
0
11
40.01909993888858
21
9.8413924837172502
31
0
0
SPLINE
5
106
100
AcDbEntity
8
0
100
AcDbSpline
70
1064
71
5
72
26
73
20
74
0
42
0.000000001
43
0.0000000001
44
0.0000000001
40
0
40
0
40
0
40
0
40
0
40
0
40
0.066666666666666666
40
0.13333333333333333
40
0.20000000000000001
40
0.26666666666666666
40
0.33333333333333331
40
0.39999999999999997
40
0.46666666666666662
40
0.53333333333333333
40
0.59999999999999998
40
0.66666666666666663
40
0.73333333333333328
40
0.79999999999999993
40
0.86666666666666659
40
0.93333333333333324
40
1
40
1
40
1
40
1
40
1
40
1
10
30.992397121391498
20
26.848986313272491
30
0
10
30.974090363456295
20
26.892719576619761
30
0
10
30.935495860557719
20
26.982413612139613
30
0
10
30.871661217008153
20
27.123637483101909
30
0
10
30.774575577474241
20
27.325396280872578
30
0
10
30.632500705890216
20
27.600034701409761
30
0
10
30.468316562730426
20
27.896042956306868
30
0
10
30.279975859751147
20
28.210506678657158
30
0
10
30.064748331748152
20
28.53743001300429
30
0
10
29.819455093572067
20
28.86850554508014
30
0
10
29.540811573863969
20
29.194471179567643
30
0
10
29.225859663380646
20
29.506270215616745
30
0
10
28.872405456236464
20
29.796174826885608
30
0
10
28.479794204694052
20
30.059308957120376
30
0
10
28.04859018378999
20
30.293338664578346
30
0
10
27.579892001786959
20
30.497494467307654
30
0
10
27.175909068781486
20
30.637063807328065
30
0
10
26.857017603349128
20
30.728603224956366
30
0
10
26.637406109059647
20
30.783833169529622
30
0
10
26.525846044501471
20
30.809999032160423
30
0
0
SPLINE
5
107
100
AcDbEntity
8
0
100
AcDbSpline
70
1064
71
5
72
16
73
10
74
0
42
0.000000001
43
0.0000000001
44
0.0000000001
40
0
40
0
40
0
40
0
40
0
40
0
40
0.20000000000000001
40
0.40000000000000002
40
0.60000000000000009
40
0.80000000000000004
40
1
40
1
40
1
40
1
40
1
40
1
10
26.525846044501471
20
30.809999032160423
30
0
10
26.070389850974959
20
30.809999032156476
30
0
10
25.159477463923206
20
30.809999032149676
30
0
10
23.793108883349568
20
30.809999032142954
30
0
10
21.971284109258523
20
30.809999032140112
30
0
10
19.694003141653166
20
30.809999032143395
30
0
10
17.872178367573383
20
30.809999032149229
30
0
10
16.505809787015522
20
30.809999032154735
30
0
10
15.59489739997778
20
30.809999032158832
30
0
10
15.139441206459118
20
30.809999032160999
30
0
0
SPLINE
5
108
100
AcDbEntity
8
0
100
AcDbSpline
70
1064
71
5
72
26
73
20
74
0
42
0.000000001
43
0.0000000001
44
0.0000000001
40
0
40
0
40
0
40
0
40
0
40
0
40
0.066666666666666666
40
0.13333333333333333
40
0.20000000000000001
40
0.26666666666666666
40
0.33333333333333331
40
0.39999999999999997
40
0.46666666666666662
40
0.53333333333333333
40
0.59999999999999998
40
0.66666666666666663
40
0.73333333333333328
40
0.79999999999999993
40
0.86666666666666659
40
0.93333333333333324
40
1
40
1
40
1
40
1
40
1
40
1
10
15.139441206459118
20
30.809999032160999
30
0
10
15.092649374877302
20
30.806869897752442
30
0
10
14.997020164281913
20
30.796197256979177
30
0
10
14.847439394584649
20
30.766944855789152
30
0
10
14.635637908237459
20
30.701265026324279
30
0
10
14.350277702628611
20
30.573967662466053
30
0
10
14.045292923006325
20
30.401363482303708
30
0
10
13.723349956435511
20
30.184795913475618
30
0
10
13.389955679615289
20
29.928472957466482
30
0
10
13.053298135979903
20
29.63940065484001
30
0
10
12.72284111086131
20
29.325926922968691
30
0
10
12.408316452034885
20
28.996818565720211
30
0
10
12.118568005149964
20
28.66024043313185
30
0
10
11.860373952492791
20
28.322817229704373
30
0
10
11.637211670187327
20
27.988698036614789
30
0
10
11.450355615677308
20
27.660194750586555
30
0
10
11.32988300382674
20
27.402695391290301
30
0
10
11.255597247278182
20
27.212658206190518
30
0
10
11.213163243226434
20
27.087328895851698
30
0
10
11.1937187150291
20
27.025004782530448
30
0
0
SPLINE
5
109
100
AcDbEntity
8
0
100
AcDbSpline
70
1064
71
5
72
16
73
10
74
0
42
0.000000001
43
0.0000000001
44
0.0000000001
40
0
40
0
40
0
40
0
40
0
40
0
40
0.20000000000000001
40
0.40000000000000002
40
0.60000000000000009
40
0.80000000000000004
40
1
40
1
40
1
40
1
40
1
40
1
10
36.000438824236497
20
16.641653859066359
30
0
10
36.051504917624406
20
16.649606075029308
30
0
10
36.153637104401383
20
16.665510506955798
30
0
10
36.306835384570505
20
16.689367154847421
30
0
10
36.511099758135742
20
16.721176018706277
30
0
10
36.766430225099491
20
16.76093709853378
30
0
10
36.970694598673802
20
16.792745962397756
30
0
10
37.123892878855727
20
16.816602610296552
30
0
10
37.226025065644109
20
16.832507042229405
30
0
10
37.277091159038427
20
16.840459258195914
30
0
0
SPLINE
5
110
100
AcDbEntity
8
0
100
AcDbSpline
70
1064
71
5
72
26
73
20
74
0
42
0.000000001
43
0.0000000001
44
0.0000000001
40
0
40
0
40
0
40
0
40
0
40
0
40
0.066666666666666666
40
0.13333333333333333
40
0.20000000000000001
40
0.26666666666666666
40
0.33333333333333331
40
0.39999999999999997
40
0.46666666666666662
40
0.53333333333333333
40
0.59999999999999998
40
0.66666666666666663
40
0.73333333333333328
40
0.79999999999999993
40
0.86666666666666659
40
0.93333333333333324
40
1
40
1
40
1
40
1
40
1
40
1
10
37.277091159038427
20
16.840459258195914
30
0
10
37.295408646262132
20
16.835401370083314
30
0
10
37.332214120684355
20
16.824511835836176
30
0
10
37.387933856488544
20
16.805856257206095
30
0
10
37.463257117206169
20
16.776305880154261
30
0
10
37.559099439353318
20
16.731358379951978
30
0
10
37.656459104382314
20
16.678111741667085
30
0
10
37.754933697244716
20
16.616270340532214
30
0
10
37.853761979229795
20
16.545639250289433
30
0
10
37.951772391989955
20
16.466199240562318
30
0
10
38.047592957811027
20
16.378027779406231
30
0
10
38.139818681309386
20
16.281276198749101
30
0
10
38.227187818684676
20
16.176153260305771
30
0
10
38.308795908417871
20
16.062947879079978
30
0
10
38.384233213178661
20
15.942037606255809
30
0
10
38.453385237892249
20
15.813795188838709
30
0
10
38.503727214479298
20
15.705585859748918
30
0
10
38.538733142260305
20
15.621363415810603
30
0
10
38.560856876566376
20
15.563862586718749
30
0
10
38.57161535049422
20
15.534774035601099
30
0
0
SPLINE
5
111
100
AcDbEntity
8
0
100
AcDbSpline
70
1064
71
5
72
16
73
10
74
0
42
0.000000001
43
0.0000000001
44
0.0000000001
40
0
40
0
40
0
40
0
40
0
40
0
40
0.20000000000000001
40
0.40000000000000002
40
0.60000000000000009
40
0.80000000000000004
40
1
40
1
40
1
40
1
40
1
40
1
10
38.57161535049422
20
15.534774035601099
30
0
10
38.571615350488528
20
15.307038773524715
30
0
10
38.571615350478567
20
14.851568249372242
30
0
10
38.571615350468107
20
14.16836246314449
30
0
10
38.571615350462174
20
13.257421414842472
30
0
10
38.571615350464867
20
12.118745104466736
30
0
10
38.571615350473117
20
11.207804056166822
30
0
10
38.571615350482482
20
10.52459826994202
30
0
10
38.571615350490077
20
10.069127745792168
30
0
10
38.57161535049422
20
9.8413924837172502
30
0
0
LINE
5
112
100
AcDbEntity
8
0
100
AcDbLine
10
19.153930619694655
20
15.181542286464804
30
0
11
19.15393061631211
21
12.235488963258302
31
0
0
LINE
5
113
100
AcDbEntity
8
0
100
AcDbLine
10
18.67874337344762
20
16.121885202357255
30
0
11
18.678740233454548
21
11.408756224186373
31
0
0
LINE
5
114
100
AcDbEntity
8
0
100
AcDbLine
10
18.28954022443466
20
16.652361745000757
30
0
11
18.28954018304297
21
10.948853956500438
31
0
0
LINE
5
115
100
AcDbEntity
8
0
100
AcDbLine
10
17.886861446479308
20
10.610190595125379
30
0
11
17.886861446489632
21
16.99588875316579
31
0
0
LINE
5
116
100
AcDbEntity
8
0
100
AcDbLine
10
16.980819169123478
20
10.102130800004836
30
0
11
16.980819169255575
21
11.153771219515304
31
0
0
LINE
5
117
100
AcDbEntity
8
0
100
AcDbLine
10
16.980819170511005
20
16.1278698186821
30
0
11
16.980819169385025
21
17.424957634214678
31
0
0
LINE
5
118
100
AcDbEntity
8
0
100
AcDbLine
10
17.377419804691399
20
17.275995968330989
30
0
11
17.377419796112658
21
14.936360157774885
31
0
0
LINE
5
119
100
AcDbEntity
8
0
100
AcDbLine
10
17.377419822061452
20
12.185023693889843
30
0
11
17.377419822123997
21
10.291958808321871
31
0
0
SPLINE
5
120
100
AcDbEntity
8
0
100
AcDbSpline
70
1064
71
5
72
21
73
15
74
0
42
0.000000001
43
0.0000000001
44
0.0000000001
40
1.500920637377984
40
1.500920637377984
40
1.500920637377984
40
1.500920637377984
40
1.500920637377984
40
1.500920637377984
40
1.5142857142857142
40
1.5285714285714285
40
1.5428571428571427
40
1.5571428571428569
40
1.5714285714285712
40
1.5857142857142854
40
1.5999999999999996
40
1.6142857142857139
40
1.6285714285714281
40
1.6390265800768322
40
1.6390265800768322
40
1.6390265800768322
40
1.6390265800768322
40
1.6390265800768322
40
1.6390265800768322
10
16.980819169123478
20
10.102130800004836
30
0
10
16.93507678264449
20
10.083606912573792
30
0
10
16.843366105839333
20
10.048971563618103
30
0
10
16.715778937162714
20
10.009425554995241
30
0
10
16.577772435304151
20
9.9885442259320438
30
0
10
16.478659835773886
20
10.026044735787675
30
0
10
16.459498266277656
20
10.128880373596354
30
0
10
16.506921430447591
20
10.281062036310862
30
0
10
16.596796512108341
20
10.461159995026996
30
0
10
16.703497498227613
20
10.648687486123936
30
0
10
16.804822606444546
20
10.823511243182825
30
0
10
16.880676447701273
20
10.959730293041556
30
0
10
16.933918634694415
20
11.060684890382049
30
0
10
16.966963738718025
20
11.125924814894839
30
0
10
16.980819169255579
20
11.15377121951531
30
0
0
SPLINE
5
121
100
AcDbEntity
8
0
100
AcDbSpline
70
1064
71
5
72
14
73
8
74
0
42
0.000000001
43
0.0000000001
44
0.0000000001
40
1.4500027635012835
40
1.4500027635012835
40
1.4500027635012835
40
1.4500027635012835
40
1.4500027635012835
40
1.4500027635012835
40
1.4571428571428573
40
1.4714285714285715
40
1.4790585646704613
40
1.4790585646704613
40
1.4790585646704613
40
1.4790585646704613
40
1.4790585646704613
40
1.4790585646704613
10
17.886861446479308
20
10.610190595125379
30
0
10
17.863839263372121
20
10.59356350918134
30
0
10
17.793888997773944
20
10.54398290558013
30
0
10
17.695537131162013
20
10.478013089946268
30
0
10
17.592735311838133
20
10.413824342079643
30
0
10
17.486610711751844
20
10.35198572995222
30
0
10
17.405663219202381
20
10.307266100266926
30
0
10
17.377419822123997
20
10.291958808321871
30
0
0
SPLINE
5
122
100
AcDbEntity
8
0
100
AcDbSpline
70
1064
71
5
72
14
73
8
74
0
42
0.000000001
43
0.0000000001
44
0.0000000001
40
1.3904896031129605
40
1.3904896031129605
40
1.3904896031129605
40
1.3904896031129605
40
1.3904896031129605
40
1.3904896031129605
40
1.4000000000000001
40
1.4142857142857144
40
1.4224457028174422
40
1.4224457028174422
40
1.4224457028174422
40
1.4224457028174422
40
1.4224457028174422
40
1.4224457028174422
10
18.678740233454548
20
11.408756224186373
30
0
10
18.657097630722181
20
11.378526508165404
30
0
10
18.602501178122893
20
11.304023756647863
30
0
10
18.527641865515829
20
11.207779358199987
30
0
10
18.450397574393978
20
11.116489686866968
30
0
10
18.369789498534352
20
11.029472387431809
30
0
10
18.311144751838672
20
10.970180675383245
30
0
10
18.289540183042973
20
10.948853956500438
30
0
0
SPLINE
5
123
100
AcDbEntity
8
0
100
AcDbSpline
70
1064
71
5
72
22
73
16
74
0
42
0.000000001
43
0.0000000001
44
0.0000000001
40
1.2032631594958216
40
1.2032631594958216
40
1.2032631594958216
40
1.2032631594958216
40
1.2032631594958216
40
1.2032631594958216
40
1.2142857142857144
40
1.2285714285714286
40
1.2428571428571429
40
1.2571428571428571
40
1.2714285714285714
40
1.2857142857142858
40
1.3
40
1.3142857142857143
40
1.3285714285714287
40
1.342857142857143
40
1.3445719605417805
40
1.3445719605417805
40
1.3445719605417805
40
1.3445719605417805
40
1.3445719605417805
40
1.3445719605417805
10
19.153930619694655
20
15.181542286464804
30
0
10
19.172731595456721
20
15.136489072417421
30
0
10
19.215013841309883
20
15.032466746464724
30
0
10
19.277635634771599
20
14.86793484392307
30
0
10
19.353591192822627
20
14.641563603010102
30
0
10
19.429248814674416
20
14.353753609763956
30
0
10
19.481691547871453
20
14.052234080951699
30
0
10
19.504477481246536
20
13.751288262975203
30
0
10
19.496152602631078
20
13.450857037811819
30
0
10
19.45668301748448
20
13.150920785820572
30
0
10
19.38750353043033
20
12.852074338514047
30
0
10
19.308475652191838
20
12.60823383633574
30
0
10
19.237821876501183
20
12.426739845465642
30
0
10
19.185633199389095
20
12.305573665326758
30
0
10
19.157010153885352
20
12.242265619791549
30
0
10
19.15393061631211
20
12.235488963258302
30
0
0
SPLINE
5
124
100
AcDbEntity
8
0
100
AcDbSpline
70
1064
71
5
72
14
73
8
74
0
42
0.000000001
43
0.0000000001
44
0.0000000001
40
1.1170576056889105
40
1.1170576056889105
40
1.1170576056889105
40
1.1170576056889105
40
1.1170576056889105
40
1.1170576056889105
40
1.1285714285714286
40
1.1428571428571428
40
1.1531565093557963
40
1.1531565093557963
40
1.1531565093557963
40
1.1531565093557963
40
1.1531565093557963
40
1.1531565093557963
10
18.28954022443466
20
16.652361745000757
30
0
10
18.317310258729108
20
16.622492298266199
30
0
10
18.377964116459403
20
16.554310201868645
30
0
10
18.458434027423884
20
16.45478871263839
30
0
10
18.534526984431807
20
16.348884958086391
30
0
10
18.608417770096924
20
16.236028773549407
30
0
10
18.658054292219063
20
16.15597490362217
30
0
10
18.67874337344762
20
16.121885202357259
30
0
0
SPLINE
5
125
100
AcDbEntity
8
0
100
AcDbSpline
70
1064
71
5
72
14
73
8
74
0
42
0.000000001
43
0.0000000001
44
0.0000000001
40
1.0597011225336952
40
1.0597011225336952
40
1.0597011225336952
40
1.0597011225336952
40
1.0597011225336952
40
1.0597011225336952
40
1.0714285714285714
40
1.0857142857142856
40
1.0881529500062006
40
1.0881529500062006
40
1.0881529500062006
40
1.0881529500062006
40
1.0881529500062006
40
1.0881529500062006
10
17.377419804691399
20
17.275995968330989
30
0
10
17.422458723552541
20
17.255908138460384
30
0
10
17.521884161509252
20
17.209601164555394
30
0
10
17.628271396143621
20
17.155205086877487
30
0
10
17.729662976871527
20
17.097715608570653
30
0
10
17.825078382611899
20
17.037509952488456
30
0
10
17.879038583744535
20
17.001202409685007
30
0
10
17.886861446489632
20
16.99588875316579
30
0
0
SPLINE
5
126
100
AcDbEntity
8
0
100
AcDbSpline
70
1064
71
5
72
20
73
14
74
0
42
0.000000001
43
0.0000000001
44
0.0000000001
40
0.70253957705417602
40
0.70253957705417602
40
0.70253957705417602
40
0.70253957705417602
40
0.70253957705417602
40
0.70253957705417602
40
0.71428571428571364
40
0.72857142857142787
40
0.74285714285714211
40
0.75714285714285634
40
0.77142857142857058
40
0.78571428571428481
40
0.79999999999999905
40
0.81428571428571328
40
0.8199976346246266
40
0.8199976346246266
40
0.8199976346246266
40
0.8199976346246266
40
0.8199976346246266
40
0.8199976346246266
10
17.377419822061452
20
12.185023693889843
30
0
10
17.390517233620439
20
12.231172091492237
30
0
10
17.41885575709281
20
12.334980357622797
30
0
10
17.460055101807047
20
12.500805357712956
30
0
10
17.508602347046153
20
12.734844637470598
30
0
10
17.553225080690801
20
13.043139332676784
30
0
10
17.577411403584197
20
13.374418118983989
30
0
10
17.576755637934518
20
13.716032920697375
30
0
10
17.549839539499146
20
14.066991772009828
30
0
10
17.503131394593986
20
14.38284702666262
30
0
10
17.452915770611735
20
14.630095364269245
30
0
10
17.41124714629504
20
14.805196914077765
30
0
10
17.385045819031593
20
14.907250929430823
30
0
10
17.377412859376467
20
14.936386636125407
30
0
0
SPLINE
5
127
100
AcDbEntity
8
0
100
AcDbSpline
70
1064
71
5
72
28
73
22
74
0
42
0.000000001
43
0.0000000001
44
0.0000000001
40
0.86967561470692833
40
0.86967561470692833
40
0.86967561470692833
40
0.86967561470692833
40
0.86967561470692833
40
0.86967561470692833
40
0.87142857142857022
40
0.88571428571428445
40
0.89999999999999869
40
0.91428571428571292
40
0.92857142857142716
40
0.94285714285714139
40
0.95714285714285563
40
0.97142857142856986
40
0.9857142857142841
40
1
40
1
40
1
40
1
40
1
40
1.0142857142857142
40
1.0285714285714285
40
1.0386558045893017
40
1.0386558045893017
40
1.0386558045893017
40
1.0386558045893017
40
1.0386558045893017
40
1.0386558045893017
10
16.980819170511005
20
16.1278698186821
30
0
10
16.977956870766967
20
16.135201100779348
30
0
10
16.95182382101525
20
16.202013590877822
30
0
10
16.903412257247719
20
16.323700994715725
30
0
10
16.83590825665091
20
16.48856784141368
30
0
10
16.756977088648025
20
16.674992123957068
30
0
10
16.680121893938264
20
16.850428471743413
30
0
10
16.620578377145893
20
16.981334561560558
30
0
10
16.569708587862934
20
17.085892969332956
30
0
10
16.520009788396855
20
17.184490343064297
30
0
10
16.472985084817751
20
17.289675199469542
30
0
10
16.455355082741889
20
17.372024337910489
30
0
10
16.468124330688859
20
17.42238520281785
30
0
10
16.491293822981671
20
17.448065523830888
30
0
10
16.506711669942206
20
17.458704769147708
30
0
10
16.522129516902734
20
17.469344014464525
30
0
10
16.560631412452068
20
17.486220674718783
30
0
10
16.634380945672103
20
17.495911780306482
30
0
10
16.736697618622816
20
17.486332415752539
30
0
10
16.860642603073142
20
17.459057081517003
30
0
10
16.945013411326716
20
17.435645665585845
30
0
10
16.980819169385025
20
17.424957634214678
30
0
0
ARC
5
128
100
AcDbEntity
8
0
100
AcDbCircle
10
21.024027952891068
20
46.313275070362394
30
0
40
16.342454669206862
100
AcDbArc
50
251.55909013027724
51
288.44090986972316
0
LINE
5
129
100
AcDbEntity
8
0
100
AcDbLine
10
40.01909993888858
20
9.8413924837172502
30
0
11
37.766892340633724
21
5.5002661768953311
31
0
0
SPLINE
5
130
100
AcDbEntity
8
0
100
AcDbSpline
70
1064
71
5
72
16
73
10
74
0
42
0.000000001
43
0.0000000001
44
0.0000000001
40
0
40
0
40
0
40
0
40
0
40
0
40
0.20000000000000001
40
0.40000000000000002
40
0.60000000000000009
40
0.80000000000000004
40
1
40
1
40
1
40
1
40
1
40
1
10
11.1937187150291
20
27.025004782530448
30
0
10
11.193706197825922
20
27.019619518772949
30
0
10
11.193681682550224
20
27.008848990676682
30
0
10
11.193646466373906
20
26.992693196789364
30
0
10
11.193602841307808
20
26.971152134543665
30
0
10
11.193556574761631
20
26.944225797473052
30
0
10
11.193530339564226
20
26.92268471573092
30
0
10
11.193519771043674
20
26.906528894210027
30
0
10
11.19351742107421
20
26.895758341263083
30
0
10
11.193517421074205
20
26.890373063471831
30
0
0
SPLINE
5
131
100
AcDbEntity
8
0
100
AcDbSpline
70
1064
71
5
72
16
73
10
74
0
42
0.000000001
43
0.0000000001
44
0.0000000001
40
0
40
0
40
0
40
0
40
0
40
0
40
0.20000000000000001
40
0.40000000000000002
40
0.60000000000000009
40
0.80000000000000004
40
1
40
1
40
1
40
1
40
1
40
1
10
22.397500409621514
20
21.694378449489552
30
0
10
21.947060844477349
20
21.694378390765323
30
0
10
21.046181714189295
20
21.694378273317309
30
0
10
19.694863018758106
20
21.694378097146728
30
0
10
17.893104758184677
20
21.69437786225517
30
0
10
15.640906932469454
20
21.694377568643798
30
0
10
13.839148671897679
20
21.694377333756449
30
0
10
12.48782997646877
20
21.694377157591799
30
0
10
11.58695084618274
20
21.69437704014905
30
0
10
11.136511281039708
20
21.694376981427766
30
0
0
LINE
5
132
100
AcDbEntity
8
0
100
AcDbLine
10
11.136511281039708
20
21.694376981427766
30
0
11
11.143981850127956
21
20.002825878639658
31
0
0
SPLINE
5
133
100
AcDbEntity
8
0
100
AcDbSpline
70
1064
71
5
72
12
73
6
74
0
42
0.000000001
43
0.0000000001
44
0.0000000001
40
0.99999855867227938
40
0.99999855867227938
40
0.99999855867227938
40
0.99999855867227938
40
0.99999855867227938
40
0.99999855867227938
40
1
40
1
40
1
40
1
40
1
40
1
10
11.197397574984054
20
23.877529882135097
30
0
10
11.197397574889461
20
23.877529023513645
30
0
10
11.197397574794866
20
23.87752816489219
30
0
10
11.19739757470027
20
23.877527306270743
30
0
10
11.19739757460567
20
23.877526447649295
30
0
10
11.19739757451107
20
23.87752558902784
30
0
0
LINE
5
134
100
AcDbEntity
8
0
100
AcDbLine
10
30.992397121391498
20
26.848986313272491
30
0
11
11.193517421074205
21
26.890373063471831
31
0
0
SPLINE
5
135
100
AcDbEntity
8
0
100
AcDbSpline
70
1064
71
5
72
18
73
12
74
0
42
0.000000001
43
0.0000000001
44
0.0000000001
40
0
40
0
40
0
40
0
40
0
40
0
40
0.10000000000000001
40
0.20000000000000001
40
0.30000000000000004
40
0.40000000000000002
40
0.5
40
0.59999999999999998
40
0.68247103904545503
40
0.68247103904545503
40
0.68247103904545503
40
0.68247103904545503
40
0.68247103904545503
40
0.68247103904545503
10
26.819406630034042
20
16.664936734602449
30
0
10
26.819406629961438
20
16.607848526087
30
0
10
26.819406629821188
20
16.45453604398519
30
0
10
26.819406629625529
20
16.107167588444106
30
0
10
26.819406629395765
20
15.405272224867527
30
0
10
26.819406629169407
20
14.113327652959523
30
0
10
26.819406629011397
20
12.399481401817049
30
0
10
26.819406628923325
20
10.364224575101259
30
0
10
26.81940662889701
20
8.4934732998425897
30
0
10
26.819406628897696
20
6.9889744707915993
30
0
10
26.819406628905526
20
5.9700468545825611
30
0
10
26.819406628910492
20
5.5002661768953196
30
0
0
SPLINE
5
136
100
AcDbEntity
8
0
100
AcDbSpline
70
1064
71
5
72
14
73
8
74
0
42
0.000000001
43
0.0000000001
44
0.0000000001
40
0
40
0
40
0
40
0
40
0
40
0
40
0.20000000000000001
40
0.40000000000000002
40
0.50336996691469293
40
0.50336996691469293
40
0.50336996691469293
40
0.50336996691469293
40
0.50336996691469293
40
0.50336996691469293
10
25.117592911214434
20
16.095651039615216
30
0
10
25.119271275807119
20
15.253694978734348
30
0
10
25.122628004992521
20
13.569782856972996
30
0
10
25.126852196640165
20
11.450705884428364
30
0
10
25.131076388287919
20
9.3316289118848346
30
0
10
25.135300579935702
20
7.2125519393420294
30
0
10
25.137846406990651
20
5.9354310276789546
30
0
10
25.138713869452793
20
5.5002661768953187
30
0
0
ELLIPSE
5
137
100
AcDbEntity
8
0
100
AcDbEllipse
10
15.082441621640481
20
5.4859440602108256
30
0
11
-2.067720121702184e-12
21
-2.6925821812639681
31
0.0
40
0.32704402515723263
41
1.576115452918716
42
4.7070698542608707
0
LINE
5
138
100
AcDbEntity
8
0
100
AcDbLine
10
11.193517421074205
20
26.890373063471831
30
0
11
11.193517470474601
21
24.143055862940063
31
0
0
LINE
5
139
100
AcDbEntity
8
0
100
AcDbLine
10
30.992397121391498
20
26.848986313272491
30
0
11
30.985975345445294
21
23.776892736912885
31
0
0
SPLINE
5
140
100
AcDbEntity
8
0
100
AcDbSpline
70
1064
71
5
72
16
73
10
74
0
42
0.000000001
43
0.0000000001
44
0.0000000001
40
0
40
0
40
0
40
0
40
0
40
0
40
0.20000000000000001
40
0.40000000000000002
40
0.60000000000000009
40
0.80000000000000004
40
1
40
1
40
1
40
1
40
1
40
1
10
36.000438824236497
20
16.641653859066359
30
0
10
35.999956871750761
20
16.369643404051473
30
0
10
35.99899296678042
20
15.825622494021932
30
0
10
35.997547109328508
20
15.00959112897837
30
0
10
35.995619299399031
20
13.921549308921639
30
0
10
35.993209536994456
20
12.561497033852371
30
0
10
35.991281727074096
20
11.473455213797859
30
0
10
35.989835869634881
20
10.657423848757402
30
0
10
35.988871964675752
20
10.113402938730605
30
0
10
35.988390012196263
20
9.8413924837172502
30
0
0
SPLINE
5
141
100
AcDbEntity
8
0
100
AcDbSpline
70
1064
71
5
72
39
73
33
74
0
42
0.000000001
43
0.0000000001
44
0.0000000001
40
0
40
0
40
0
40
0
40
0
40
0
40
0.033333333333333333
40
0.066666666666666666
40
0.10000000000000001
40
0.13333333333333333
40
0.16666666666666666
40
0.19999999999999998
40
0.23333333333333331
40
0.26666666666666666
40
0.29999999999999999
40
0.33333333333333331
40
0.36666666666666664
40
0.39999999999999997
40
0.43333333333333329
40
0.46666666666666662
40
0.49999999999999994
40
0.53333333333333333
40
0.56666666666666665
40
0.59999999999999998
40
0.6333333333333333
40
0.66666666666666663
40
0.69999999999999996
40
0.73333333333333328
40
0.76666666666666661
40
0.79999999999999993
40
0.83333333333333326
40
0.86666666666666659
40
0.89999999999999991
40
0.92038959003785514
40
0.92038959003785514
40
0.92038959003785514
40
0.92038959003785514
40
0.92038959003785514
40
0.92038959003785514
10
36.000438824236497
20
16.641653859066359
30
0
10
35.980745210649616
20
16.781925043497626
30
0
10
35.941042102234952
20
17.055308877060657
30
0
10
35.880539249211225
20
17.443910513000674
30
0
10
35.797973733805193
20
17.919007037100318
30
0
10
35.69001974482304
20
18.444079812973865
30
0
10
35.572667589551898
20
18.909721633600252
30
0
10
35.436455597312396
20
19.335762506888496
30
0
10
35.266053941428545
20
19.754615992230477
30
0
10
35.044490546299897
20
20.197479617988577
30
0
10
34.756624234310017
20
20.68347819878192
30
0
10
34.393362108983624
20
21.204639390136286
30
0
10
33.953274908993897
20
21.734035682963558
30
0
10
33.444729598383752
20
22.241250014859318
30
0
10
32.885864034536667
20
22.703033555730158
30
0
10
32.311689541475033
20
23.122241758576219
30
0
10
31.707866055697234
20
23.48891301970459
30
0
10
31.034685760809456
20
23.789963974880205
30
0
10
30.238221219231875
20
24.013328644428714
30
0
10
29.265448385502872
20
24.153590899206627
30
0
10
28.079394744787894
20
24.218270745898987
30
0
10
26.662582391833276
20
24.225497752070957
30
0
10
25.016512278639425
20
24.198986796741018
30
0
10
23.162788595503976
20
24.163978515764374
30
0
10
21.143556493801864
20
24.142846683394076
30
0
10
19.022901220650837
20
24.150743703672109
30
0
10
16.886967691261368
20
24.191406495897859
30
0
10
14.847315407823871
20
24.252289230320248
30
0
10
13.177874058754885
20
24.29728268299613
30
0
10
12.12982080333121
20
24.286079073871882
30
0
10
11.560757313594179
20
24.228223364501076
30
0
10
11.286402416221335
20
24.169092371273571
30
0
10
11.193517470474601
20
24.143055862940063
30
0
0
LINE
5
142
100
AcDbEntity
8
0
100
AcDbLine
10
11.143981850127956
20
20.002825878639658
30
0
11
11.093983585899254
21
20.003242500910993
31
0
0
LINE
5
143
100
AcDbEntity
8
0
100
AcDbLine
10
11.093983585899254
20
20.003242500910993
30
0
11
11.09398358589927
21
5.5002661765938825
31
0
0
LINE
5
144
100
AcDbEntity
8
0
100
AcDbLine
10
11.09398358589927
20
5.5002661765938825
30
0
11
11.187008979380339
21
5.5002661765938825
31
0
0
LINE
5
145
100
AcDbEntity
8
0
100
AcDbLine
10
11.193517470474601
20
24.143055862940063
30
0
11
11.143517470474603
21
24.143055862040995
31
0
0
LINE
5
146
100
AcDbEntity
8
0
100
AcDbLine
10
11.143517470474603
20
24.143055862040995
30
0
11
11.143517514505152
21
21.694376982334301
31
0
0
LINE
5
147
100
AcDbEntity
8
0
100
AcDbLine
10
30.992397121391541
20
-15.848453959481844
30
0
11
11.193517421074247
21
-15.889840709681229
31
0
0
LINE
5
148
100
AcDbEntity
8
0
100
AcDbLine
10
19.153930619694677
20
-4.1810099326741827
30
0
11
19.153930616312124
21
-1.2349566094676789
31
0
0
LINE
5
149
100
AcDbEntity
8
0
100
AcDbLine
10
16.980819169123489
20
0.89840155378578257
30
0
11
16.980819169255593
21
-0.15323886572468748
31
0
0
SPLINE
5
150
100
AcDbEntity
8
0
100
AcDbSpline
70
1064
71
5
72
16
73
10
74
0
42
0.000000001
43
0.0000000001
44
0.0000000001
40
0
40
0
40
0
40
0
40
0
40
0
40
0.20000000000000001
40
0.40000000000000002
40
0.60000000000000009
40
0.80000000000000004
40
1
40
1
40
1
40
1
40
1
40
1
10
11.143981850127979
20
-9.0022935248490512
30
0
10
11.574953915353801
20
-8.9987023489659101
30
0
10
12.436898045805476
20
-8.9915199971999087
30
0
10
13.729814241483124
20
-8.9807464695518018
30
0
10
15.453702502386918
20
-8.9663817660224492
30
0
10
17.608562828517083
20
-8.9484258866122666
30
0
10
19.332451089421522
20
-8.9340611830845482
30
0
10
20.625367285100044
20
-8.9232876554387452
30
0
10
21.487311415552462
20
-8.9161053036748168
30
0
10
21.918283480778701
20
-8.9125141277928392
30
0
0
SPLINE
5
151
100
AcDbEntity
8
0
100
AcDbSpline
70
1064
71
5
72
12
73
6
74
0
42
0.000000001
43
0.0000000001
44
0.0000000001
40
0.99999855867227938
40
0.99999855867227938
40
0.99999855867227938
40
0.99999855867227938
40
0.99999855867227938
40
0.99999855867227938
40
1
40
1
40
1
40
1
40
1
40
1
10
11.197397574984084
20
-12.876997528344489
30
0
10
11.197397574889491
20
-12.87699666972304
30
0
10
11.197397574794898
20
-12.876995811101587
30
0
10
11.1973975747003
20
-12.876994952480135
30
0
10
11.1973975746057
20
-12.876994093858688
30
0
10
11.197397574511101
20
-12.876993235237233
30
0
0
SPLINE
5
152
100
AcDbEntity
8
0
100
AcDbSpline
70
1064
71
5
72
26
73
20
74
0
42
0.000000001
43
0.0000000001
44
0.0000000001
40
0
40
0
40
0
40
0
40
0
40
0
40
0.066666666666666666
40
0.13333333333333333
40
0.20000000000000001
40
0.26666666666666666
40
0.33333333333333331
40
0.39999999999999997
40
0.46666666666666662
40
0.53333333333333333
40
0.59999999999999998
40
0.66666666666666663
40
0.73333333333333328
40
0.79999999999999993
40
0.86666666666666659
40
0.93333333333333324
40
1
40
1
40
1
40
1
40
1
40
1
10
30.992397121391537
20
-15.848453959481841
30
0
10
30.974090363456334
20
-15.892187222829111
30
0
10
30.935495860557758
20
-15.981881258348967
30
0
10
30.871661217008196
20
-16.123105129311263
30
0
10
30.77457557747428
20
-16.324863927081932
30
0
10
30.632500705890259
20
-16.599502347619115
30
0
10
30.468316562730465
20
-16.895510602516222
30
0
10
30.279975859751186
20
-17.209974324866511
30
0
10
30.064748331748191
20
-17.536897659213643
30
0
10
29.81945509357211
20
-17.867973191289494
30
0
10
29.540811573864012
20
-18.193938825776996
30
0
10
29.225859663380689
20
-18.505737861826098
30
0
10
28.87240545623651
20
-18.795642473094961
30
0
10
28.479794204694095
20
-19.058776603329733
30
0
10
28.048590183790036
20
-19.292806310787704
30
0
10
27.579892001787005
20
-19.496962113517014
30
0
10
27.175909068781529
20
-19.636531453537422
30
0
10
26.857017603349171
20
-19.728070871165727
30
0
10
26.63740610905969
20
-19.783300815738983
30
0
10
26.525846044501513
20
-19.809466678369784
30
0
0
SPLINE
5
153
100
AcDbEntity
8
0
100
AcDbSpline
70
1064
71
5
72
16
73
10
74
0
42
0.000000001
43
0.0000000001
44
0.0000000001
40
0
40
0
40
0
40
0
40
0
40
0
40
0.20000000000000001
40
0.40000000000000002
40
0.60000000000000009
40
0.80000000000000004
40
1
40
1
40
1
40
1
40
1
40
1
10
26.525846044501513
20
-19.809466678369784
30
0
10
26.070389850975001
20
-19.809466678365837
30
0
10
25.159477463923249
20
-19.809466678359037
30
0
10
23.793108883349614
20
-19.809466678352322
30
0
10
21.971284109258566
20
-19.809466678349487
30
0
10
19.694003141653212
20
-19.80946667835277
30
0
10
17.872178367573429
20
-19.809466678358607
30
0
10
16.505809787015568
20
-19.809466678364114
30
0
10
15.594897399977828
20
-19.809466678368217
30
0
10
15.139441206459166
20
-19.809466678370384
30
0
0
SPLINE
5
154
100
AcDbEntity
8
0
100
AcDbSpline
70
1064
71
5
72
26
73
20
74
0
42
0.000000001
43
0.0000000001
44
0.0000000001
40
0
40
0
40
0
40
0
40
0
40
0
40
0.066666666666666666
40
0.13333333333333333
40
0.20000000000000001
40
0.26666666666666666
40
0.33333333333333331
40
0.39999999999999997
40
0.46666666666666662
40
0.53333333333333333
40
0.59999999999999998
40
0.66666666666666663
40
0.73333333333333328
40
0.79999999999999993
40
0.86666666666666659
40
0.93333333333333324
40
1
40
1
40
1
40
1
40
1
40
1
10
15.139441206459166
20
-19.809466678370384
30
0
10
15.09264937487735
20
-19.806337543961824
30
0
10
14.99702016428196
20
-19.795664903188563
30
0
10
14.847439394584697
20
-19.766412501998538
30
0
10
14.635637908237506
20
-19.700732672533661
30
0
10
14.350277702628658
20
-19.573435308675439
30
0
10
14.04529292300637
20
-19.40083112851309
30
0
10
13.723349956435555
20
-19.184263559685007
30
0
10
13.389955679615333
20
-18.927940603675872
30
0
10
13.053298135979947
20
-18.638868301049399
30
0
10
12.722841110861351
20
-18.32539456917808
30
0
10
12.408316452034926
20
-17.996286211929601
30
0
10
12.118568005150006
20
-17.65970807934124
30
0
10
11.860373952492832
20
-17.322284875913763
30
0
10
11.637211670187366
20
-16.988165682824182
30
0
10
11.450355615677347
20
-16.659662396795948
30
0
10
11.329883003826779
20
-16.402163037499694
30
0
10
11.255597247278219
20
-16.212125852399911
30
0
10
11.213163243226472
20
-16.086796542061094
30
0
10
11.193718715029137
20
-16.024472428739841
30
0
0
SPLINE
5
155
100
AcDbEntity
8
0
100
AcDbSpline
70
1064
71
5
72
16
73
10
74
0
42
0.000000001
43
0.0000000001
44
0.0000000001
40
0
40
0
40
0
40
0
40
0
40
0
40
0.20000000000000001
40
0.40000000000000002
40
0.60000000000000009
40
0.80000000000000004
40
1
40
1
40
1
40
1
40
1
40
1
10
36.000438824236511
20
-5.6411215052756987
30
0
10
36.051504917624428
20
-5.649073721238647
30
0
10
36.153637104401398
20
-5.6649781531651371
30
0
10
36.306835384570519
20
-5.6888348010567613
30
0
10
36.511099758135757
20
-5.7206436649156167
30
0
10
36.766430225099505
20
-5.7604047447431199
30
0
10
36.970694598673823
20
-5.7922136086070957
30
0
10
37.123892878855742
20
-5.8160702565058919
30
0
10
37.22602506564413
20
-5.8319746884387431
30
0
10
37.277091159038449
20
-5.8399269044052531
30
0
0
SPLINE
5
156
100
AcDbEntity
8
0
100
AcDbSpline
70
1064
71
5
72
26
73
20
74
0
42
0.000000001
43
0.0000000001
44
0.0000000001
40
0
40
0
40
0
40
0
40
0
40
0
40
0.066666666666666666
40
0.13333333333333333
40
0.20000000000000001
40
0.26666666666666666
40
0.33333333333333331
40
0.39999999999999997
40
0.46666666666666662
40
0.53333333333333333
40
0.59999999999999998
40
0.66666666666666663
40
0.73333333333333328
40
0.79999999999999993
40
0.86666666666666659
40
0.93333333333333324
40
1
40
1
40
1
40
1
40
1
40
1
10
37.277091159038449
20
-5.8399269044052531
30
0
10
37.295408646262153
20
-5.834869016292652
30
0
10
37.332214120684377
20
-5.8239794820455142
30
0
10
37.387933856488559
20
-5.8053239034154309
30
0
10
37.463257117206183
20
-5.775773526363599
30
0
10
37.559099439353339
20
-5.7308260261613171
30
0
10
37.656459104382336
20
-5.6775793878764214
30
0
10
37.754933697244738
20
-5.6157379867415518
30
0
10
37.853761979229816
20
-5.5451068964987709
30
0
10
37.951772391989977
20
-5.465666886771654
30
0
10
38.047592957811041
20
-5.3774954256155656
30
0
10
38.139818681309407
20
-5.2807438449584376
30
0
10
38.227187818684691
20
-5.1756209065151086
30
0
10
38.308795908417885
20
-5.0624155252893139
30
0
10
38.384233213178675
20
-4.9415052524651459
30
0
10
38.453385237892263
20
-4.8132628350480449
30
0
10
38.503727214479312
20
-4.7050535059582543
30
0
10
38.53873314226032
20
-4.6208310620199384
30
0
10
38.56085687656639
20
-4.5633302329280845
30
0
10
38.571615350494234
20
-4.5342416818104354
30
0
0
SPLINE
5
157
100
AcDbEntity
8
0
100
AcDbSpline
70
1064
71
5
72
16
73
10
74
0
42
0.000000001
43
0.0000000001
44
0.0000000001
40
0
40
0
40
0
40
0
40
0
40
0
40
0.20000000000000001
40
0.40000000000000002
40
0.60000000000000009
40
0.80000000000000004
40
1
40
1
40
1
40
1
40
1
40
1
10
38.571615350494234
20
-4.5342416818104354
30
0
10
38.571615350488543
20
-4.3065064197340508
30
0
10
38.571615350478581
20
-3.8510358955815782
30
0
10
38.571615350468122
20
-3.1678301093538264
30
0
10
38.571615350462181
20
-2.2568890610518078
30
0
10
38.571615350464874
20
-1.1182127506760731
30
0
10
38.571615350473124
20
-0.20727170237615722
30
0
10
38.571615350482482
20
0.47593408384864366
30
0
10
38.571615350490084
20
0.93140460799849611
30
0
10
38.571615350494227
20
1.1591398700734135
30
0
0
SPLINE
5
158
100
AcDbEntity
8
0
100
AcDbSpline
70
1064
71
5
72
31
73
25
74
0
42
0.000000001
43
0.0000000001
44
0.0000000001
40
0
40
0
40
0
40
0
40
0
40
0
40
0.050000000000000003
40
0.10000000000000001
40
0.15000000000000002
40
0.20000000000000001
40
0.25
40
0.29999999999999999
40
0.34999999999999998
40
0.39999999999999997
40
0.44999999999999996
40
0.49999999999999994
40
0.54999999999999993
40
0.59999999999999998
40
0.65000000000000002
40
0.70000000000000007
40
0.75000000000000011
40
0.80000000000000016
40
0.8500000000000002
40
0.90000000000000024
40
0.95000000000000029
40
1
40
1
40
1
40
1
40
1
40
1
10
21.918283480778701
20
-8.9125141277928392
30
0
10
21.960717419861645
20
-8.9139052421729872
30
0
10
22.046520091854571
20
-8.9136604741796699
30
0
10
22.178028589627839
20
-8.9042122803490571
30
0
10
22.359004191828021
20
-8.8733789420913638
30
0
10
22.59442041069558
20
-8.8041660737924481
30
0
10
22.838210921258234
20
-8.7042230945551715
30
0
10
23.088566185462973
20
-8.5740184389281779
30
0
10
23.342196695298728
20
-8.4149600971689775
30
0
10
23.594186481266135
20
-8.2296187435271975
30
0
10
23.83881592103322
20
-8.021393740435288
30
0
10
24.070182077068235
20
-7.7943181404158102
30
0
10
24.282918408071588
20
-7.5528512311572609
30
0
10
24.472846505902147
20
-7.3016957616588174
30
0
10
24.637809309020277
20
-7.0456571356264153
30
0
10
24.777282670261283
20
-6.7892149040952088
30
0
10
24.891837327924819
20
-6.536067677067412
30
0
10
24.982690553278346
20
-6.2886378364743507
30
0
10
25.051283129078495
20
-6.0476629120757242
30
0
10
25.098822967294815
20
-5.8114842414780536
30
0
10
25.12617933982267
20
-5.5767339246213616
30
0
10
25.132382858070045
20
-5.3870221657444013
30
0
10
25.128353947572379
20
-5.2422190375717808
30
0
10
25.121821083514597
20
-5.1443709405295941
30
0
10
25.117592911214452
20
-5.0951186858245805
30
0
0
SPLINE
5
159
100
AcDbEntity
8
0
100
AcDbSpline
70
1064
71
5
72
31
73
25
74
0
42
0.000000001
43
0.0000000001
44
0.0000000001
40
0
40
0
40
0
40
0
40
0
40
0
40
0.050000000000000003
40
0.10000000000000001
40
0.15000000000000002
40
0.20000000000000001
40
0.25
40
0.29999999999999999
40
0.34999999999999998
40
0.39999999999999997
40
0.44999999999999996
40
0.49999999999999994
40
0.54999999999999993
40
0.59999999999999998
40
0.65000000000000002
40
0.70000000000000007
40
0.75000000000000011
40
0.80000000000000016
40
0.8500000000000002
40
0.90000000000000024
40
0.95000000000000029
40
1
40
1
40
1
40
1
40
1
40
1
10
22.397500409621539
20
-10.693846095698923
30
0
10
22.459644619294224
20
-10.688066755833852
30
0
10
22.583597581029228
20
-10.674562091167932
30
0
10
22.768520559967044
20
-10.648467399251892
30
0
10
23.013064177299807
20
-10.601949210583758
30
0
10
23.315382442001894
20
-10.523594713367164
30
0
10
23.614457661092978
20
-10.423485049264229
30
0
10
23.910568391403526
20
-10.298966051780148
30
0
10
24.204306272725017
20
-10.145791129499763
30
0
10
24.496407193660055
20
-9.9585136805281493
30
0
10
24.787120613480692
20
-9.7321487933837822
30
0
10
25.07564178811684
20
-9.463667345689819
30
0
10
25.359596998868842
20
-9.1534122173008647
30
0
10
25.634262598533958
20
-8.8071568670194367
30
0
10
25.892640542281974
20
-8.4362271946519307
30
0
10
26.126996402831921
20
-8.0543040895176574
30
0
10
26.330024497929713
20
-7.6751223003835056
30
0
10
26.496259223288639
20
-7.3097155840456569
30
0
10
26.62327462981893
20
-6.9641059404837158
30
0
10
26.713486035744545
20
-6.6359846314270072
30
0
10
26.772615916921822
20
-6.3171687334810862
30
0
10
26.800422579549146
20
-6.0613843983456057
30
0
10
26.812878545899409
20
-5.8651052924138991
30
0
10
26.817795131413064
20
-5.7317258640275064
30
0
10
26.819406630034059
20
-5.6644043808118099
30
0
0
SPLINE
5
160
100
AcDbEntity
8
0
100
AcDbSpline
70
1064
71
5
72
28
73
22
74
0
42
0.000000001
43
0.0000000001
44
0.0000000001
40
0.86967561470692833
40
0.86967561470692833
40
0.86967561470692833
40
0.86967561470692833
40
0.86967561470692833
40
0.86967561470692833
40
0.87142857142857022
40
0.88571428571428445
40
0.89999999999999869
40
0.91428571428571292
40
0.92857142857142716
40
0.94285714285714139
40
0.95714285714285563
40
0.97142857142856986
40
0.9857142857142841
40
1
40
1
40
1
40
1
40
1
40
1.0142857142857142
40
1.0285714285714285
40
1.0386558045893017
40
1.0386558045893017
40
1.0386558045893017
40
1.0386558045893017
40
1.0386558045893017
40
1.0386558045893017
10
16.980819170511023
20
-5.1273374648914816
30
0
10
16.977956870766981
20
-5.1346687469887282
30
0
10
16.951823821015267
20
-5.2014812370872026
30
0
10
16.903412257247737
20
-5.3231686409251067
30
0
10
16.835908256650928
20
-5.4880354876230601
30
0
10
16.756977088648043
20
-5.6744597701664485
30
0
10
16.680121893938281
20
-5.8498961179527953
30
0
10
16.620578377145911
20
-5.980802207769937
30
0
10
16.569708587862952
20
-6.0853606155423368
30
0
10
16.520009788396873
20
-6.1839579892736811
30
0
10
16.472985084817768
20
-6.289142845678926
30
0
10
16.455355082741907
20
-6.3714919841198707
30
0
10
16.468124330688877
20
-6.4218528490272337
30
0
10
16.491293822981689
20
-6.4475331700402698
30
0
10
16.506711669942224
20
-6.4581724153570903
30
0
10
16.522129516902751
20
-6.4688116606739072
30
0
10
16.560631412452086
20
-6.4856883209281646
30
0
10
16.63438094567212
20
-6.4953794265158615
30
0
10
16.736697618622834
20
-6.4858000619619194
30
0
10
16.86064260307316
20
-6.4585247277263846
30
0
10
16.945013411326734
20
-6.4351133117952237
30
0
10
16.980819169385043
20
-6.4244252804240576
30
0
0
ARC
5
161
100
AcDbEntity
8
0
100
AcDbCircle
10
21.024027952891153
20
-35.312742716571762
30
0
40
16.342454669206504
100
AcDbArc
50
71.559090130276928
51
108.4409098697229
0
SPLINE
5
162
100
AcDbEntity
8
0
100
AcDbSpline
70
1064
71
5
72
16
73
10
74
0
42
0.000000001
43
0.0000000001
44
0.0000000001
40
0
40
0
40
0
40
0
40
0
40
0
40
0.20000000000000001
40
0.40000000000000002
40
0.60000000000000009
40
0.80000000000000004
40
1
40
1
40
1
40
1
40
1
40
1
10
11.193718715029137
20
-16.024472428739841
30
0
10
11.193706197825959
20
-16.019087164982345
30
0
10
11.193681682550263
20
-16.008316636886075
30
0
10
11.193646466373943
20
-15.992160842998757
30
0
10
11.193602841307847
20
-15.970619780753058
30
0
10
11.193556574761669
20
-15.943693443682445
30
0
10
11.193530339564264
20
-15.922152361940313
30
0
10
11.193519771043711
20
-15.905996540419419
30
0
10
11.193517421074247
20
-15.895225987472475
30
0
10
11.193517421074242
20
-15.889840709681224
30
0
0
SPLINE
5
163
100
AcDbEntity
8
0
100
AcDbSpline
70
1064
71
5
72
18
73
12
74
0
42
0.000000001
43
0.0000000001
44
0.0000000001
40
0
40
0
40
0
40
0
40
0
40
0
40
0.10000000000000001
40
0.20000000000000001
40
0.30000000000000004
40
0.40000000000000002
40
0.5
40
0.59999999999999998
40
0.68247103904545503
40
0.68247103904545503
40
0.68247103904545503
40
0.68247103904545503
40
0.68247103904545503
40
0.68247103904545503
10
26.819406630034059
20
-5.6644043808118099
30
0
10
26.819406629961456
20
-5.6073161722963611
30
0
10
26.819406629821209
20
-5.4540036901945506
30
0
10
26.819406629625547
20
-5.1066352346534654
30
0
10
26.819406629395779
20
-4.4047398710768881
30
0
10
26.819406629169421
20
-3.1127952991688823
30
0
10
26.819406629011407
20
-1.39894904802641
30
0
10
26.819406628923332
20
0.63630777868938004
30
0
10
26.81940662889701
20
2.5070590539480495
30
0
10
26.819406628897692
20
4.0115578829990408
30
0
10
26.819406628905522
20
5.0304854992080781
30
0
10
26.819406628910485
20
5.5002661768953196
30
0
0
LINE
5
164
100
AcDbEntity
8
0
100
AcDbLine
10
33.210474093507003
20
1.1591398700734012
30
0
11
29.975262092985709
21
5.5002661768953223
31
0
0
LINE
5
165
100
AcDbEntity
8
0
100
AcDbLine
10
11.143517470474645
20
-13.142523508250395
30
0
11
11.143517514505188
21
-10.693844628543697
31
0
0
LINE
5
166
100
AcDbEntity
8
0
100
AcDbLine
10
11.193517470474642
20
-13.142523509149457
30
0
11
11.143517470474645
21
-13.142523508250395
31
0
0
LINE
5
167
100
AcDbEntity
8
0
100
AcDbLine
10
11.093983585899272
20
5.5002661771967247
30
0
11
11.187008979380337
21
5.5002661771967247
31
0
0
LINE
5
168
100
AcDbEntity
8
0
100
AcDbLine
10
11.093983585899284
20
-9.002710147120391
30
0
11
11.093983585899272
21
5.5002661771967247
31
0
0
LINE
5
169
100
AcDbEntity
8
0
100
AcDbLine
10
11.143981850127989
20
-9.0022935248490548
30
0
11
11.093983585899284
21
-9.002710147120391
31
0
0
LINE
5
170
100
AcDbEntity
8
0
100
AcDbLine
10
30.992397121391541
20
-15.848453959481844
30
0
11
30.985975345445329
21
-12.776360383122238
31
0
0
LINE
5
171
100
AcDbEntity
8
0
100
AcDbLine
10
11.193517421074247
20
-15.889840709681229
30
0
11
11.193517470474642
21
-13.142523509149457
31
0
0
SPLINE
5
172
100
AcDbEntity
8
0
100
AcDbSpline
70
1064
71
5
72
16
73
10
74
0
42
0.000000001
43
0.0000000001
44
0.0000000001
40
0
40
0
40
0
40
0
40
0
40
0
40
0.20000000000000001
40
0.40000000000000002
40
0.60000000000000009
40
0.80000000000000004
40
1
40
1
40
1
40
1
40
1
40
1
10
22.397500409621539
20
-10.693846095698923
30
0
10
21.947060844477377
20
-10.693846036974692
30
0
10
21.046181714189323
20
-10.69384591952668
30
0
10
19.694863018758131
20
-10.693845743356105
30
0
10
17.893104758184705
20
-10.69384550846455
30
0
10
15.64090693246948
20
-10.693845214853184
30
0
10
13.839148671897705
20
-10.693844979965839
30
0
10
12.487829976468795
20
-10.693844803801188
30
0
10
11.586950846182766
20
-10.693844686358442
30
0
10
11.136511281039734
20
-10.693844627637162
30
0
0
SPLINE
5
173
100
AcDbEntity
8
0
100
AcDbSpline
70
1064
71
5
72
16
73
10
74
0
42
0.000000001
43
0.0000000001
44
0.0000000001
40
0
40
0
40
0
40
0
40
0
40
0
40
0.20000000000000001
40
0.40000000000000002
40
0.60000000000000009
40
0.80000000000000004
40
1
40
1
40
1
40
1
40
1
40
1
10
36.000438824236511
20
-5.6411215052756987
30
0
10
35.999956871750783
20
-5.3691110502608126
30
0
10
35.998992966780435
20
-4.8250901402312714
30
0
10
35.997547109328522
20
-4.0090587751877109
30
0
10
35.995619299399038
20
-2.9210169551309795
30
0
10
35.993209536994463
20
-1.5609646800617116
30
0
10
35.991281727074103
20
-0.47292286000719885
30
0
10
35.989835869634888
20
0.34310850503325829
30
0
10
35.988871964675752
20
0.88712941506005505
30
0
10
35.98839001219627
20
1.1591398700734079
30
0
0
SPLINE
5
174
100
AcDbEntity
8
0
100
AcDbSpline
70
1064
71
5
72
39
73
33
74
0
42
0.000000001
43
0.0000000001
44
0.0000000001
40
0
40
0
40
0
40
0
40
0
40
0
40
0.033333333333333333
40
0.066666666666666666
40
0.10000000000000001
40
0.13333333333333333
40
0.16666666666666666
40
0.19999999999999998
40
0.23333333333333331
40
0.26666666666666666
40
0.29999999999999999
40
0.33333333333333331
40
0.36666666666666664
40
0.39999999999999997
40
0.43333333333333329
40
0.46666666666666662
40
0.49999999999999994
40
0.53333333333333333
40
0.56666666666666665
40
0.59999999999999998
40
0.6333333333333333
40
0.66666666666666663
40
0.69999999999999996
40
0.73333333333333328
40
0.76666666666666661
40
0.79999999999999993
40
0.83333333333333326
40
0.86666666666666659
40
0.89999999999999991
40
0.92038959003785514
40
0.92038959003785514
40
0.92038959003785514
40
0.92038959003785514
40
0.92038959003785514
40
0.92038959003785514
10
36.000438824236511
20
-5.6411215052756987
30
0
10
35.98074521064963
20
-5.7813926897069656
30
0
10
35.941042102234974
20
-6.0547765232699984
30
0
10
35.880539249211239
20
-6.4433781592100132
30
0
10
35.797973733805215
20
-6.9184746833096593
30
0
10
35.690019744823061
20
-7.4435474591832058
30
0
10
35.572667589551926
20
-7.9091892798095937
30
0
10
35.436455597312417
20
-8.3352301530978394
30
0
10
35.266053941428567
20
-8.754083638439818
30
0
10
35.044490546299926
20
-9.1969472641979202
30
0
10
34.756624234310046
20
-9.6829458449912664
30
0
10
34.393362108983652
20
-10.204107036345631
30
0
10
33.953274908993926
20
-10.733503329172901
30
0
10
33.44472959838378
20
-11.240717661068661
30
0
10
32.885864034536695
20
-11.702501201939505
30
0
10
32.311689541475069
20
-12.121709404785568
30
0
10
31.707866055697266
20
-12.488380665913938
30
0
10
31.034685760809488
20
-12.789431621089555
30
0
10
30.238221219231907
20
-13.012796290638068
30
0
10
29.265448385502904
20
-13.153058545415979
30
0
10
28.079394744787926
20
-13.217738392108345
30
0
10
26.662582391833304
20
-13.224965398280322
30
0
10
25.016512278639457
20
-13.19845444295038
30
0
10
23.162788595504008
20
-13.16344616197374
30
0
10
21.143556493801896
20
-13.142314329603447
30
0
10
19.022901220650869
20
-13.150211349881484
30
0
10
16.8869676912614
20
-13.190874142107241
30
0
10
14.847315407823904
20
-13.251756876529633
30
0
10
13.177874058754917
20
-13.296750329205519
30
0
10
12.129820803331244
20
-13.285546720081269
30
0
10
11.560757313594213
20
-13.227691010710473
30
0
10
11.286402416221367
20
-13.168560017482967
30
0
10
11.193517470474635
20
-13.142523509149457
30
0
0
LINE
5
175
100
AcDbEntity
8
0
100
AcDbLine
10
11.136511281039745
20
-10.693844627637166
30
0
11
11.143981850127989
21
-9.0022935248490548
31
0
0
LINE
5
176
100
AcDbEntity
8
0
100
AcDbLine
10
17.377419822061462
20
-1.184491340099223
30
0
11
17.377419822124011
21
0.70857354546874918
31
0
0
LINE
5
177
100
AcDbEntity
8
0
100
AcDbLine
10
17.377419804691428
20
-6.2754636145403744
30
0
11
17.377419796112676
21
-3.9358278039842665
31
0
0
LINE
5
178
100
AcDbEntity
8
0
100
AcDbLine
10
16.980819170511026
20
-5.1273374648914851
30
0
11
16.980819169385054
21
-6.4244252804240611
31
0
0
LINE
5
179
100
AcDbEntity
8
0
100
AcDbLine
10
17.886861446479315
20
0.39034175866524023
30
0
11
17.886861446489654
21
-5.9953563993751704
31
0
0
LINE
5
180
100
AcDbEntity
8
0
100
AcDbLine
10
18.289540224434685
20
-5.6518293912101338
30
0
11
18.289540183042984
21
0.051678397290184641
31
0
0
LINE
5
181
100
AcDbEntity
8
0
100
AcDbLine
10
18.678743373447642
20
-5.1213528485666329
30
0
11
18.678740233454562
21
-0.40822387039575192
31
0
0
LINE
5
182
100
AcDbEntity
8
0
100
AcDbLine
10
40.019099938888587
20
1.1591398700734157
30
0
11
37.766892340633724
21
5.5002661768953311
31
0
0
SPLINE
5
183
100
AcDbEntity
8
0
100
AcDbSpline
70
1064
71
5
72
14
73
8
74
0
42
0.000000001
43
0.0000000001
44
0.0000000001
40
0
40
0
40
0
40
0
40
0
40
0
40
0.20000000000000001
40
0.40000000000000002
40
0.50336996691469293
40
0.50336996691469293
40
0.50336996691469293
40
0.50336996691469293
40
0.50336996691469293
40
0.50336996691469293
10
25.117592911214452
20
-5.0951186858245805
30
0
10
25.119271275807129
20
-4.2531626249437116
30
0
10
25.122628004992528
20
-2.5692505031823587
30
0
10
25.126852196640172
20
-0.45017353063772747
30
0
10
25.131076388287919
20
1.6689034419058024
30
0
10
25.135300579935699
20
3.7879804144486071
30
0
10
25.137846406990647
20
5.065101326111682
30
0
10
25.13871386945279
20
5.5002661768953178
30
0
0
ELLIPSE
5
184
100
AcDbEntity
8
0
100
AcDbEllipse
10
15.082441621640479
20
5.5145882935797887
30
0
11
-2.0733189457287448e-12
21
2.6925821812639681
31
0.0
40
0.32704402515723263
41
1.5761154529184638
42
4.7070698542606193
0
SPLINE
5
185
100
AcDbEntity
8
0
100
AcDbSpline
70
1064
71
5
72
14
73
8
74
0
42
0.000000001
43
0.0000000001
44
0.0000000001
40
1.0597011225336952
40
1.0597011225336952
40
1.0597011225336952
40
1.0597011225336952
40
1.0597011225336952
40
1.0597011225336952
40
1.0714285714285714
40
1.0857142857142856
40
1.0881529500062006
40
1.0881529500062006
40
1.0881529500062006
40
1.0881529500062006
40
1.0881529500062006
40
1.0881529500062006
10
17.377419804691417
20
-6.2754636145403708
30
0
10
17.422458723552559
20
-6.2553757846697629
30
0
10
17.52188416150927
20
-6.2090688107647729
30
0
10
17.628271396143639
20
-6.1546727330868638
30
0
10
17.729662976871545
20
-6.0971832547800293
30
0
10
17.82507838261192
20
-6.0369775986978347
30
0
10
17.879038583744553
20
-6.0006700558943855
30
0
10
17.88686144648965
20
-5.9953563993751668
30
0
0
SPLINE
5
186
100
AcDbEntity
8
0
100
AcDbSpline
70
1064
71
5
72
20
73
14
74
0
42
0.000000001
43
0.0000000001
44
0.0000000001
40
0.70253957705417602
40
0.70253957705417602
40
0.70253957705417602
40
0.70253957705417602
40
0.70253957705417602
40
0.70253957705417602
40
0.71428571428571364
40
0.72857142857142787
40
0.74285714285714211
40
0.75714285714285634
40
0.77142857142857058
40
0.78571428571428481
40
0.79999999999999905
40
0.81428571428571328
40
0.8199976346246266
40
0.8199976346246266
40
0.8199976346246266
40
0.8199976346246266
40
0.8199976346246266
40
0.8199976346246266
10
17.377419822061459
20
-1.184491340099223
30
0
10
17.390517233620447
20
-1.2306397377016176
30
0
10
17.418855757092821
20
-1.3344480038321782
30
0
10
17.460055101807054
20
-1.5002730039223366
30
0
10
17.508602347046164
20
-1.7343122836799774
30
0
10
17.553225080690808
20
-2.0426069788861634
30
0
10
17.577411403584208
20
-2.3738857651933687
30
0
10
17.576755637934529
20
-2.7155005669067545
30
0
10
17.549839539499157
20
-3.0664594182192095
30
0
10
17.503131394594
20
-3.3823146728719999
30
0
10
17.452915770611749
20
-3.6295630104786247
30
0
10
17.411247146295054
20
-3.8046645602871454
30
0
10
17.385045819031607
20
-3.9067185756402045
30
0
10
17.377412859376481
20
-3.9358542823347875
30
0
0
SPLINE
5
187
100
AcDbEntity
8
0
100
AcDbSpline
70
1064
71
5
72
21
73
15
74
0
42
0.000000001
43
0.0000000001
44
0.0000000001
40
1.500920637377984
40
1.500920637377984
40
1.500920637377984
40
1.500920637377984
40
1.500920637377984
40
1.500920637377984
40
1.5142857142857142
40
1.5285714285714285
40
1.5428571428571427
40
1.5571428571428569
40
1.5714285714285712
40
1.5857142857142854
40
1.5999999999999996
40
1.6142857142857139
40
1.6285714285714281
40
1.6390265800768322
40
1.6390265800768322
40
1.6390265800768322
40
1.6390265800768322
40
1.6390265800768322
40
1.6390265800768322
10
16.980819169123482
20
0.89840155378578368
30
0
10
16.935076782644494
20
0.91692544121682706
30
0
10
16.843366105839333
20
0.95156079017251649
30
0
10
16.715778937162717
20
0.99110679879537811
30
0
10
16.577772435304155
20
1.0119881278585752
30
0
10
16.47865983577389
20
0.97448761800294159
30
0
10
16.459498266277656
20
0.87165198019426349
30
0
10
16.506921430447598
20
0.71947031747975565
30
0
10
16.596796512108348
20
0.53937235876362344
30
0
10
16.703497498227616
20
0.3518448676666841
30
0
10
16.804822606444549
20
0.17702111060779568
30
0
10
16.880676447701276
20
0.04080206074906334
30
0
10
16.933918634694422
20
-0.060152536591429051
30
0
10
16.966963738718029
20
-0.12539246110421898
30
0
10
16.980819169255582
20
-0.1532388657246897
30
0
0
SPLINE
5
188
100
AcDbEntity
8
0
100
AcDbSpline
70
1064
71
5
72
14
73
8
74
0
42
0.000000001
43
0.0000000001
44
0.0000000001
40
1.4500027635012835
40
1.4500027635012835
40
1.4500027635012835
40
1.4500027635012835
40
1.4500027635012835
40
1.4500027635012835
40
1.4571428571428573
40
1.4714285714285715
40
1.4790585646704613
40
1.4790585646704613
40
1.4790585646704613
40
1.4790585646704613
40
1.4790585646704613
40
1.4790585646704613
10
17.886861446479312
20
0.39034175866524246
30
0
10
17.863839263372125
20
0.40696884460928118
30
0
10
17.793888997773948
20
0.45654944821049259
30
0
10
17.69553713116202
20
0.52251926384435432
30
0
10
17.59273531183814
20
0.58670801171097686
30
0
10
17.486610711751847
20
0.64854662383839967
30
0
10
17.405663219202385
20
0.69326625352369442
30
0
10
17.377419822124001
20
0.70857354546874918
30
0
0
SPLINE
5
189
100
AcDbEntity
8
0
100
AcDbSpline
70
1064
71
5
72
14
73
8
74
0
42
0.000000001
43
0.0000000001
44
0.0000000001
40
1.3904896031129605
40
1.3904896031129605
40
1.3904896031129605
40
1.3904896031129605
40
1.3904896031129605
40
1.3904896031129605
40
1.4000000000000001
40
1.4142857142857144
40
1.4224457028174422
40
1.4224457028174422
40
1.4224457028174422
40
1.4224457028174422
40
1.4224457028174422
40
1.4224457028174422
10
18.678740233454555
20
-0.40822387039575192
30
0
10
18.657097630722188
20
-0.37799415437478112
30
0
10
18.6025011781229
20
-0.30349140285724108
30
0
10
18.527641865515832
20
-0.2072470044093655
30
0
10
18.450397574393985
20
-0.11595733307634637
30
0
10
18.369789498534356
20
-0.028940033641187135
30
0
10
18.311144751838675
20
0.030351678407376514
30
0
10
18.289540183042977
20
0.051678397290184641
30
0
0
SPLINE
5
190
100
AcDbEntity
8
0
100
AcDbSpline
70
1064
71
5
72
22
73
16
74
0
42
0.000000001
43
0.0000000001
44
0.0000000001
40
1.2032631594958216
40
1.2032631594958216
40
1.2032631594958216
40
1.2032631594958216
40
1.2032631594958216
40
1.2032631594958216
40
1.2142857142857144
40
1.2285714285714286
40
1.2428571428571429
40
1.2571428571428571
40
1.2714285714285714
40
1.2857142857142858
40
1.3
40
1.3142857142857143
40
1.3285714285714287
40
1.342857142857143
40
1.3445719605417805
40
1.3445719605417805
40
1.3445719605417805
40
1.3445719605417805
40
1.3445719605417805
40
1.3445719605417805
10
19.15393061969467
20
-4.1810099326741801
30
0
10
19.172731595456735
20
-4.1359567186267965
30
0
10
19.215013841309897
20
-4.0319343926740991
30
0
10
19.27763563477161
20
-3.8674024901324455
30
0
10
19.353591192822641
20
-3.6410312492194774
30
0
10
19.429248814674427
20
-3.353221255973331
30
0
10
19.481691547871463
20
-3.0517017271610758
30
0
10
19.504477481246546
20
-2.750755909184579
30
0
10
19.496152602631089
20
-2.4503246840211945
30
0
10
19.456683017484487
20
-2.1503884320299482
30
0
10
19.387503530430337
20
-1.8515419847234238
30
0
10
19.308475652191849
20
-1.6077014825451164
30
0
10
19.23782187650119
20
-1.4262074916750178
30
0
10
19.185633199389102
20
-1.3050413115361348
30
0
10
19.157010153885359
20
-1.2417332660009262
30
0
10
19.153930616312117
20
-1.2349566094676767
30
0
0
SPLINE
5
191
100
AcDbEntity
8
0
100
AcDbSpline
70
1064
71
5
72
14
73
8
74
0
42
0.000000001
43
0.0000000001
44
0.0000000001
40
1.1170576056889105
40
1.1170576056889105
40
1.1170576056889105
40
1.1170576056889105
40
1.1170576056889105
40
1.1170576056889105
40
1.1285714285714286
40
1.1428571428571428
40
1.1531565093557963
40
1.1531565093557963
40
1.1531565093557963
40
1.1531565093557963
40
1.1531565093557963
40
1.1531565093557963
10
18.289540224434681
20
-5.6518293912101347
30
0
10
18.317310258729126
20
-5.6219599444755763
30
0
10
18.377964116459424
20
-5.5537778480780231
30
0
10
18.458434027423898
20
-5.4542563588477684
30
0
10
18.534526984431821
20
-5.3483526042957674
30
0
10
18.608417770096938
20
-5.2354964197587854
30
0
10
18.658054292219077
20
-5.1554425498315481
30
0
10
18.678743373447634
20
-5.1213528485666355
30
0
0
LINE
5
192
100
AcDbEntity
8
0
100
AcDbLine
10
40.019099938888587
20
1.1591398700734157
30
0
11
33.210474093507003
21
1.1591398700734012
31
0
0
LINE
5
193
100
AcDbEntity
8
0
100
AcDbLine
10
40.019099938888587
20
5.5002661768953329
30
0
11
40.019099938888587
21
1.1591398700734157
31
0
0
LINE
5
194
100
AcDbEntity
8
0
100
AcDbLine
10
37.766892340633724
20
5.5002661768953311
30
0
11
29.975262092985709
21
5.5002661768953223
31
0
0
ENDSEC
0
SECTION
2
OBJECTS
0
DICTIONARY
5
C
100
AcDbDictionary
3
ACAD_GROUP
350
D
3
ACAD_MLINESTYLE
350
17
0
DICTIONARY
5
D
100
AcDbDictionary
0
DICTIONARY
5
1A
330
C
100
AcDbDictionary
0
DICTIONARY
5
17
100
AcDbDictionary
0
ENDSEC
0
EOF
