0
SECTION
2
HEADER
9
$INSUNITS
70
4
9
$ACADVER
1
AC1014
9
$HANDSEED
5
FFFF
0
ENDSEC
0
SECTION
2
TABLES
0
TABLE
2
VPORT
5
8
100
AcDbSymbolTable
0
ENDTAB
0
TABLE
2
LTYPE
5
5
100
AcDbSymbolTable
0
LTYPE
5
14
100
AcDbSymbolTableRecord
100
AcDbLinetypeTableRecord
2
BYBLOCK
70
0
0
LTYPE
5
15
100
AcDbSymbolTableRecord
100
AcDbLinetypeTableRecord
2
BYLAYER
70
0
0
ENDTAB
0
TABLE
2
LAYER
5
2
100
AcDbSymbolTable
70
2
0
LAYER
5
50
100
AcDbSymbolTableRecord
100
AcDbLayerTableRecord
2
0
70
0
6
CONTINUOUS
0
ENDTAB
0
TABLE
2
STYLE
5
3
100
AcDbSymbolTable
70
1
0
STYLE
5
11
100
AcDbSymbolTableRecord
100
AcDbTextStyleTableRecord
2
STANDARD
70
0
0
ENDTAB
0
TABLE
2
VIEW
5
6
100
AcDbSymbolTable
70
0
0
ENDTAB
0
TABLE
2
UCS
5
7
100
AcDbSymbolTable
70
0
0
ENDTAB
0
TABLE
2
APPID
5
9
100
AcDbSymbolTable
70
2
0
APPID
5
12
100
AcDbSymbolTableRecord
100
AcDbRegAppTableRecord
2
ACAD
70
0
0
ENDTAB
0
TABLE
2
DIMSTYLE
5
A
100
AcDbSymbolTable
70
1
0
ENDTAB
0
TABLE
2
BLOCK_RECORD
5
1
100
AcDbSymbolTable
70
1
0
BLOCK_RECORD
5
1F
100
AcDbSymbolTableRecord
100
AcDbBlockTableRecord
2
*MODEL_SPACE
0
BLOCK_RECORD
5
1B
100
AcDbSymbolTableRecord
100
AcDbBlockTableRecord
2
*PAPER_SPACE
0
ENDTAB
0
ENDSEC
0
SECTION
2
BLOCKS
0
BLOCK
5
20
100
AcDbEntity
100
AcDbBlockBegin
2
*MODEL_SPACE
0
ENDBLK
5
21
100
AcDbEntity
100
AcDbBlockEnd
0
BLOCK
5
1C
100
AcDbEntity
100
AcDbBlockBegin
2
*PAPER_SPACE
0
ENDBLK
5
1D
100
AcDbEntity
100
AcDbBlockEnd
0
ENDSEC
0
SECTION
2
ENTITIES
0
SPLINE
5
100
100
AcDbEntity
8
0
100
AcDbSpline
70
1064
71
5
72
16
73
10
74
0
42
0.000000001
43
0.0000000001
44
0.0000000001
40
0
40
0
40
0
40
0
40
0
40
0
40
0.20000000000000001
40
0.40000000000000002
40
0.60000000000000009
40
0.80000000000000004
40
1
40
1
40
1
40
1
40
1
40
1
10
11.193981850127956
20
20.002825878639658
30
0
10
11.62295391535319
20
19.999234702756517
30
0
10
12.480898045803858
20
19.992052350990519
30
0
10
13.767814241480526
20
19.981278823342414
30
0
10
15.483702502383938
20
19.966914119813065
30
0
10
17.628562828514657
20
19.948958240402884
30
0
10
19.344451089419952
20
19.93459353687517
30
0
10
20.631367285099223
20
19.92382000922937
30
0
10
21.489311415552173
20
19.916637657465447
30
0
10
21.91828348077868
20
19.913046481583471
30
0
0
SPLINE
5
101
100
AcDbEntity
8
0
100
AcDbSpline
70
1064
71
5
72
31
73
25
74
0
42
0.000000001
43
0.0000000001
44
0.0000000001
40
0
40
0
40
0
40
0
40
0
40
0
40
0.050000000000000003
40
0.10000000000000001
40
0.15000000000000002
40
0.20000000000000001
40
0.25
40
0.29999999999999999
40
0.34999999999999998
40
0.39999999999999997
40
0.44999999999999996
40
0.49999999999999994
40
0.54999999999999993
40
0.59999999999999998
40
0.65000000000000002
40
0.70000000000000007
40
0.75000000000000011
40
0.80000000000000016
40
0.8500000000000002
40
0.90000000000000024
40
0.95000000000000029
40
1
40
1
40
1
40
1
40
1
40
1
10
21.91828348077868
20
19.913046481583471
30
0
10
21.960717419861624
20
19.914437595963619
30
0
10
22.04652009185455
20
19.9141928279703
30
0
10
22.178028589627814
20
19.904744634139689
30
0
10
22.359004191827999
20
19.873911295881996
30
0
10
22.594420410695555
20
19.804698427583077
30
0
10
22.838210921258213
20
19.704755448345804
30
0
10
23.088566185462952
20
19.57455079271881
30
0
10
23.342196695298707
20
19.415492450959611
30
0
10
23.594186481266114
20
19.23015109731783
30
0
10
23.838815921033198
20
19.021926094225922
30
0
10
24.070182077068214
20
18.794850494206447
30
0
10
24.282918408071566
20
18.553383584947895
30
0
10
24.472846505902126
20
18.302228115449452
30
0
10
24.637809309020259
20
18.046189489417049
30
0
10
24.777282670261265
20
17.789747257885843
30
0
10
24.891837327924801
20
17.536600030858047
30
0
10
24.982690553278324
20
17.289170190264986
30
0
10
25.051283129078477
20
17.048195265866358
30
0
10
25.098822967294797
20
16.812016595268691
30
0
10
25.126179339822656
20
16.577266278412001
30
0
10
25.132382858070027
20
16.38755451953504
30
0
10
25.128353947572361
20
16.242751391362418
30
0
10
25.121821083514575
20
16.144903294320233
30
0
10
25.117592911214434
20
16.095651039615216
30
0
0
SPLINE
5
102
100
AcDbEntity
8
0
100
AcDbSpline
70
1064
71
5
72
30
73
24
74
0
42
0.000000001
43
0.0000000001
44
0.0000000001
40
0
40
0
40
0
40
0
40
0
40
0
40
0.050000000000000003
40
0.10000000000000001
40
0.15000000000000002
40
0.20000000000000001
40
0.25
40
0.29999999999999999
40
0.34999999999999998
40
0.39999999999999997
40
0.44999999999999996
40
0.49999999999999994
40
0.54999999999999993
40
0.59999999999999998
40
0.65000000000000002
40
0.70000000000000007
40
0.75000000000000011
40
0.80000000000000016
40
0.8500000000000002
40
0.90000000000000024
40
0.90862022191293224
40
0.90862022191293224
40
0.90862022191293224
40
0.90862022191293224
40
0.90862022191293224
40
0.90862022191293224
10
22.397500445005747
20
21.694368969444557
30
0
10
22.461495653806686
20
21.69111215027117
30
0
10
22.589301552397977
20
21.681816086073859
30
0
10
22.780456799883048
20
21.659524778644471
30
0
10
23.034219122222176
20
21.613039926093599
30
0
10
23.349515014712278
20
21.526476578828401
30
0
10
23.662792924621524
20
21.410591301307541
30
0
10
23.973853830096274
20
21.264216602316715
30
0
10
24.282428393286139
20
21.085888976382471
30
0
10
24.587998373953429
20
20.874098135364179
30
0
10
24.889492462899785
20
20.627698832732055
30
0
10
25.18499454342027
20
20.346338201187027
30
0
10
25.47148229330606
20
20.030868992435764
30
0
10
25.744427444276859
20
19.683972826791322
30
0
10
25.998225445833164
20
19.309742472607599
30
0
10
26.226845357879935
20
18.913006549914805
30
0
10
26.424442792574645
20
18.498768037792349
30
0
10
26.585951012812636
20
18.071666356360918
30
0
10
26.707878329357207
20
17.635352773591695
30
0
10
26.775184568035932
20
17.26558242891965
30
0
10
26.80530416950349
20
16.981769365388331
30
0
10
26.816079790525396
20
16.786302943581543
30
0
10
26.819034045342001
20
16.680501720985252
30
0
10
26.819406630034042
20
16.664936734602449
30
0
0
LINE
5
103
100
AcDbEntity
8
0
100
AcDbLine
10
40.01909993888858
20
9.8413924837172502
30
0
11
33.210474093506988
21
9.8413924837172502
31
0
0
LINE
5
104
100
AcDbEntity
8
0
100
AcDbLine
10
33.210474093506988
20
9.8413924837172502
30
0
11
29.975262092985709
21
5.5002661768953232
31
0
0
LINE
5
105
100
AcDbEntity
8
0
100
AcDbLine
10
40.019099938888587
20
5.5002661768953329
30
0
11
40.01909993888858
21
9.8413924837172502
31
0
0
SPLINE
5
106
100
AcDbEntity
8
0
100
AcDbSpline
70
1064
71
5
72
16
73
10
74
0
42
0.000000001
43
0.0000000001
44
0.0000000001
40
0
40
0
40
0
40
0
40
0
40
0
40
0.20000000000000001
40
0.40000000000000002
40
0.60000000000000009
40
0.80000000000000004
40
0.99641917180120143
40
0.99641917180120143
40
0.99641917180120143
40
0.99641917180120143
40
0.99641917180120143
40
0.99641917180120143
10
35.981688549531611
20
16.606540655970573
30
0
10
35.981155621686327
20
16.334962253476206
30
0
10
35.980089765996752
20
15.791805448488285
30
0
10
35.978490982465587
20
14.977070241008922
30
0
10
35.976359271093287
20
13.890756631039787
30
0
10
35.973704173495626
20
12.537726996591109
30
0
10
35.971582003740771
20
11.45627576463542
30
0
10
35.969992761828692
20
10.646402935171571
30
0
10
35.968936447759063
20
10.10810850819894
30
0
10
35.968413061531884
20
9.8413924837172466
30
0
0
SPLINE
5
107
100
AcDbEntity
8
0
100
AcDbSpline
70
1064
71
5
72
26
73
20
74
0
42
0.000000001
43
0.0000000001
44
0.0000000001
40
0
40
0
40
0
40
0
40
0
40
0
40
0.066666666666666666
40
0.13333333333333333
40
0.20000000000000001
40
0.26666666666666666
40
0.33333333333333331
40
0.39999999999999997
40
0.46666666666666662
40
0.53333333333333333
40
0.59999999999999998
40
0.66666666666666663
40
0.73333333333333328
40
0.79999999999999993
40
0.86666666666666659
40
0.93333333333333324
40
1
40
1
40
1
40
1
40
1
40
1
10
30.47131662501268
20
26.847701294068486
30
0
10
30.455273830814434
20
26.891369728132393
30
0
10
30.420969567734222
20
26.980843508818566
30
0
10
30.362857170695399
20
27.121465210804999
30
0
10
30.271965028552597
20
27.321873570916232
30
0
10
30.135276209647568
20
27.593930310015551
30
0
10
29.974355725974249
20
27.886562496443283
30
0
10
29.787702685661568
20
28.197090802330816
30
0
10
29.57363729358082
20
28.519952566892066
30
0
10
29.330405103003262
20
28.847344546839398
30
0
10
29.056284774885274
20
29.170514230050859
30
0
10
28.749815334919731
20
29.480840318661144
30
0
10
28.410027231042907
20
29.770875340504688
30
0
10
28.036944286266291
20
30.035781965446855
30
0
10
27.631412413380374
20
30.273230469405789
30
0
10
27.1945668790034
20
30.482413076798881
30
0
10
26.820934895422873
20
30.627254428839183
30
0
10
26.527490511792195
20
30.7234337028761
30
0
10
26.326027907943008
20
30.782059552693113
30
0
10
26.223838333987747
20
30.809999032167244
30
0
0
SPLINE
5
108
100
AcDbEntity
8
0
100
AcDbSpline
70
1064
71
5
72
16
73
10
74
0
42
0.000000001
43
0.0000000001
44
0.0000000001
40
0
40
0
40
0
40
0
40
0
40
0
40
0.20000000000000001
40
0.40000000000000002
40
0.60000000000000009
40
0.80000000000000004
40
1
40
1
40
1
40
1
40
1
40
1
10
26.223838333987747
20
30.809999032167244
30
0
10
25.808382140462221
20
30.809999032166381
30
0
10
24.977469753412173
20
30.809999032164967
30
0
10
23.731101172840287
20
30.809999032163809
30
0
10
22.069276398750045
20
30.809999032163873
30
0
10
19.991995431143859
20
30.809999032165582
30
0
10
18.330170657062581
20
30.809999032167386
30
0
10
17.083802076503343
20
30.809999032168708
30
0
10
16.252889689464588
20
30.809999032169504
30
0
10
15.837433495945399
20
30.809999032169891
30
0
0
SPLINE
5
109
100
AcDbEntity
8
0
100
AcDbSpline
70
1064
71
5
72
26
73
20
74
0
42
0.000000001
43
0.0000000001
44
0.0000000001
40
0
40
0
40
0
40
0
40
0
40
0
40
0.066666666666666666
40
0.13333333333333333
40
0.20000000000000001
40
0.26666666666666666
40
0.33333333333333331
40
0.39999999999999997
40
0.46666666666666662
40
0.53333333333333333
40
0.59999999999999998
40
0.66666666666666663
40
0.73333333333333328
40
0.79999999999999993
40
0.86666666666666659
40
0.93333333333333324
40
1
40
1
40
1
40
1
40
1
40
1
10
15.837433495945399
20
30.809999032169891
30
0
10
15.780364314547233
20
30.808772024257685
30
0
10
15.664951107286019
20
30.801772818564174
30
0
10
15.488006557864605
20
30.777638175501796
30
0
10
15.244377161010332
20
30.717991017002838
30
0
10
14.927096232922052
20
30.596865205734936
30
0
10
14.597986414436193
20
30.428960920842194
30
0
10
14.259317060295988
20
30.215481071860985
30
0
10
13.915549546199561
20
29.960402871950915
30
0
10
13.573443448774025
20
29.670787203307402
30
0
10
13.240881884221638
20
29.355213110953741
30
0
10
12.926028122679025
20
29.022801422315023
30
0
10
12.636331309526273
20
28.682118249396332
30
0
10
12.37754857154526
20
28.340206455480725
30
0
10
12.152585944287464
20
28.001523566803876
30
0
10
11.962398831173056
20
27.668547329238493
30
0
10
11.837940876910091
20
27.407608754218536
30
0
10
11.759915757121103
20
27.215080643518625
30
0
10
11.714657908224112
20
27.088129855472936
30
0
10
11.6937187150291
20
27.025004782530448
30
0
0
SPLINE
5
110
100
AcDbEntity
8
0
100
AcDbSpline
70
1064
71
5
72
16
73
10
74
0
42
0.000000001
43
0.0000000001
44
0.0000000001
40
0
40
0
40
0
40
0
40
0
40
0
40
0.20000000000000001
40
0.40000000000000002
40
0.60000000000000009
40
0.80000000000000004
40
1
40
1
40
1
40
1
40
1
40
1
10
35.988390012188532
20
16.840459258195914
30
0
10
36.039938058058112
20
16.840459258194421
30
0
10
36.143034149798474
20
16.840459258191782
30
0
10
36.297678287412872
20
16.840459258188961
30
0
10
36.503870470905568
20
16.840459258187213
30
0
10
36.7616107002791
20
16.840459258187686
30
0
10
36.967802883781488
20
16.840459258189831
30
0
10
37.122447021409535
20
16.840459258192464
30
0
10
37.22554311316204
20
16.840459258194688
30
0
10
37.277091159038427
20
16.840459258195914
30
0
0
SPLINE
5
111
100
AcDbEntity
8
0
100
AcDbSpline
70
1064
71
5
72
26
73
20
74
0
42
0.000000001
43
0.0000000001
44
0.0000000001
40
0
40
0
40
0
40
0
40
0
40
0
40
0.066666666666666666
40
0.13333333333333333
40
0.20000000000000001
40
0.26666666666666666
40
0.33333333333333331
40
0.39999999999999997
40
0.46666666666666662
40
0.53333333333333333
40
0.59999999999999998
40
0.66666666666666663
40
0.73333333333333328
40
0.79999999999999993
40
0.86666666666666659
40
0.93333333333333324
40
1
40
1
40
1
40
1
40
1
40
1
10
37.277091159038427
20
16.840459258195914
30
0
10
37.295408646262132
20
16.835401370083314
30
0
10
37.332214120684355
20
16.824511835836176
30
0
10
37.387933856488544
20
16.805856257206095
30
0
10
37.463257117206169
20
16.776305880154261
30
0
10
37.559099439353318
20
16.731358379951978
30
0
10
37.656459104382314
20
16.678111741667085
30
0
10
37.754933697244716
20
16.616270340532214
30
0
10
37.853761979229795
20
16.545639250289433
30
0
10
37.951772391989955
20
16.466199240562318
30
0
10
38.047592957811027
20
16.378027779406231
30
0
10
38.139818681309386
20
16.281276198749101
30
0
10
38.227187818684676
20
16.176153260305771
30
0
10
38.308795908417871
20
16.062947879079978
30
0
10
38.384233213178661
20
15.942037606255809
30
0
10
38.453385237892249
20
15.813795188838709
30
0
10
38.503727214479298
20
15.705585859748918
30
0
10
38.538733142260305
20
15.621363415810603
30
0
10
38.560856876566376
20
15.563862586718749
30
0
10
38.57161535049422
20
15.534774035601099
30
0
0
SPLINE
5
112
100
AcDbEntity
8
0
100
AcDbSpline
70
1064
71
5
72
16
73
10
74
0
42
0.000000001
43
0.0000000001
44
0.0000000001
40
0
40
0
40
0
40
0
40
0
40
0
40
0.20000000000000001
40
0.40000000000000002
40
0.60000000000000009
40
0.80000000000000004
40
1
40
1
40
1
40
1
40
1
40
1
10
38.57161535049422
20
15.534774035601099
30
0
10
38.571615350488528
20
15.307038773524715
30
0
10
38.571615350478567
20
14.851568249372242
30
0
10
38.571615350468107
20
14.16836246314449
30
0
10
38.571615350462174
20
13.257421414842472
30
0
10
38.571615350464867
20
12.118745104466736
30
0
10
38.571615350473117
20
11.207804056166822
30
0
10
38.571615350482482
20
10.52459826994202
30
0
10
38.571615350490077
20
10.069127745792168
30
0
10
38.57161535049422
20
9.8413924837172502
30
0
0
LINE
5
113
100
AcDbEntity
8
0
100
AcDbLine
10
19.153930619694655
20
15.181542286464804
30
0
11
19.15393061631211
21
12.235488963258302
31
0
0
LINE
5
114
100
AcDbEntity
8
0
100
AcDbLine
10
18.67874337344762
20
16.121885202357255
30
0
11
18.678740233454548
21
11.408756224186373
31
0
0
LINE
5
115
100
AcDbEntity
8
0
100
AcDbLine
10
18.28954022443466
20
16.652361745000757
30
0
11
18.28954018304297
21
10.948853956500438
31
0
0
LINE
5
116
100
AcDbEntity
8
0
100
AcDbLine
10
17.886861446479308
20
10.610190595125379
30
0
11
17.886861446489632
21
16.99588875316579
31
0
0
LINE
5
117
100
AcDbEntity
8
0
100
AcDbLine
10
16.980819169123478
20
10.102130800004836
30
0
11
16.980819169255575
21
11.153771219515304
31
0
0
LINE
5
118
100
AcDbEntity
8
0
100
AcDbLine
10
16.980819170511005
20
16.1278698186821
30
0
11
16.980819169385025
21
17.424957634214678
31
0
0
LINE
5
119
100
AcDbEntity
8
0
100
AcDbLine
10
17.377419804691399
20
17.275995968330989
30
0
11
17.377419796112658
21
14.936360157774885
31
0
0
LINE
5
120
100
AcDbEntity
8
0
100
AcDbLine
10
17.377419822061452
20
12.185023693889843
30
0
11
17.377419822123997
21
10.291958808321871
31
0
0
SPLINE
5
121
100
AcDbEntity
8
0
100
AcDbSpline
70
1064
71
5
72
21
73
15
74
0
42
0.000000001
43
0.0000000001
44
0.0000000001
40
1.500920637377984
40
1.500920637377984
40
1.500920637377984
40
1.500920637377984
40
1.500920637377984
40
1.500920637377984
40
1.5142857142857142
40
1.5285714285714285
40
1.5428571428571427
40
1.5571428571428569
40
1.5714285714285712
40
1.5857142857142854
40
1.5999999999999996
40
1.6142857142857139
40
1.6285714285714281
40
1.6390265800768322
40
1.6390265800768322
40
1.6390265800768322
40
1.6390265800768322
40
1.6390265800768322
40
1.6390265800768322
10
16.980819169123478
20
10.102130800004836
30
0
10
16.93507678264449
20
10.083606912573792
30
0
10
16.843366105839333
20
10.048971563618103
30
0
10
16.715778937162714
20
10.009425554995241
30
0
10
16.577772435304151
20
9.9885442259320438
30
0
10
16.478659835773886
20
10.026044735787675
30
0
10
16.459498266277656
20
10.128880373596354
30
0
10
16.506921430447591
20
10.281062036310862
30
0
10
16.596796512108341
20
10.461159995026996
30
0
10
16.703497498227613
20
10.648687486123936
30
0
10
16.804822606444546
20
10.823511243182825
30
0
10
16.880676447701273
20
10.959730293041556
30
0
10
16.933918634694415
20
11.060684890382049
30
0
10
16.966963738718025
20
11.125924814894839
30
0
10
16.980819169255579
20
11.15377121951531
30
0
0
SPLINE
5
122
100
AcDbEntity
8
0
100
AcDbSpline
70
1064
71
5
72
14
73
8
74
0
42
0.000000001
43
0.0000000001
44
0.0000000001
40
1.4500027635012835
40
1.4500027635012835
40
1.4500027635012835
40
1.4500027635012835
40
1.4500027635012835
40
1.4500027635012835
40
1.4571428571428573
40
1.4714285714285715
40
1.4790585646704613
40
1.4790585646704613
40
1.4790585646704613
40
1.4790585646704613
40
1.4790585646704613
40
1.4790585646704613
10
17.886861446479308
20
10.610190595125379
30
0
10
17.863839263372121
20
10.59356350918134
30
0
10
17.793888997773944
20
10.54398290558013
30
0
10
17.695537131162013
20
10.478013089946268
30
0
10
17.592735311838133
20
10.413824342079643
30
0
10
17.486610711751844
20
10.35198572995222
30
0
10
17.405663219202381
20
10.307266100266926
30
0
10
17.377419822123997
20
10.291958808321871
30
0
0
SPLINE
5
123
100
AcDbEntity
8
0
100
AcDbSpline
70
1064
71
5
72
14
73
8
74
0
42
0.000000001
43
0.0000000001
44
0.0000000001
40
1.3904896031129605
40
1.3904896031129605
40
1.3904896031129605
40
1.3904896031129605
40
1.3904896031129605
40
1.3904896031129605
40
1.4000000000000001
40
1.4142857142857144
40
1.4224457028174422
40
1.4224457028174422
40
1.4224457028174422
40
1.4224457028174422
40
1.4224457028174422
40
1.4224457028174422
10
18.678740233454548
20
11.408756224186373
30
0
10
18.657097630722181
20
11.378526508165404
30
0
10
18.602501178122893
20
11.304023756647863
30
0
10
18.527641865515829
20
11.207779358199987
30
0
10
18.450397574393978
20
11.116489686866968
30
0
10
18.369789498534352
20
11.029472387431809
30
0
10
18.311144751838672
20
10.970180675383245
30
0
10
18.289540183042973
20
10.948853956500438
30
0
0
SPLINE
5
124
100
AcDbEntity
8
0
100
AcDbSpline
70
1064
71
5
72
22
73
16
74
0
42
0.000000001
43
0.0000000001
44
0.0000000001
40
1.2032631594958216
40
1.2032631594958216
40
1.2032631594958216
40
1.2032631594958216
40
1.2032631594958216
40
1.2032631594958216
40
1.2142857142857144
40
1.2285714285714286
40
1.2428571428571429
40
1.2571428571428571
40
1.2714285714285714
40
1.2857142857142858
40
1.3
40
1.3142857142857143
40
1.3285714285714287
40
1.342857142857143
40
1.3445719605417805
40
1.3445719605417805
40
1.3445719605417805
40
1.3445719605417805
40
1.3445719605417805
40
1.3445719605417805
10
19.153930619694655
20
15.181542286464804
30
0
10
19.172731595456721
20
15.136489072417421
30
0
10
19.215013841309883
20
15.032466746464724
30
0
10
19.277635634771599
20
14.86793484392307
30
0
10
19.353591192822627
20
14.641563603010102
30
0
10
19.429248814674416
20
14.353753609763956
30
0
10
19.481691547871453
20
14.052234080951699
30
0
10
19.504477481246536
20
13.751288262975203
30
0
10
19.496152602631078
20
13.450857037811819
30
0
10
19.45668301748448
20
13.150920785820572
30
0
10
19.38750353043033
20
12.852074338514047
30
0
10
19.308475652191838
20
12.60823383633574
30
0
10
19.237821876501183
20
12.426739845465642
30
0
10
19.185633199389095
20
12.305573665326758
30
0
10
19.157010153885352
20
12.242265619791549
30
0
10
19.15393061631211
20
12.235488963258302
30
0
0
SPLINE
5
125
100
AcDbEntity
8
0
100
AcDbSpline
70
1064
71
5
72
14
73
8
74
0
42
0.000000001
43
0.0000000001
44
0.0000000001
40
1.1170576056889105
40
1.1170576056889105
40
1.1170576056889105
40
1.1170576056889105
40
1.1170576056889105
40
1.1170576056889105
40
1.1285714285714286
40
1.1428571428571428
40
1.1531565093557963
40
1.1531565093557963
40
1.1531565093557963
40
1.1531565093557963
40
1.1531565093557963
40
1.1531565093557963
10
18.28954022443466
20
16.652361745000757
30
0
10
18.317310258729108
20
16.622492298266199
30
0
10
18.377964116459403
20
16.554310201868645
30
0
10
18.458434027423884
20
16.45478871263839
30
0
10
18.534526984431807
20
16.348884958086391
30
0
10
18.608417770096924
20
16.236028773549407
30
0
10
18.658054292219063
20
16.15597490362217
30
0
10
18.67874337344762
20
16.121885202357259
30
0
0
SPLINE
5
126
100
AcDbEntity
8
0
100
AcDbSpline
70
1064
71
5
72
14
73
8
74
0
42
0.000000001
43
0.0000000001
44
0.0000000001
40
1.0597011225336952
40
1.0597011225336952
40
1.0597011225336952
40
1.0597011225336952
40
1.0597011225336952
40
1.0597011225336952
40
1.0714285714285714
40
1.0857142857142856
40
1.0881529500062006
40
1.0881529500062006
40
1.0881529500062006
40
1.0881529500062006
40
1.0881529500062006
40
1.0881529500062006
10
17.377419804691399
20
17.275995968330989
30
0
10
17.422458723552541
20
17.255908138460384
30
0
10
17.521884161509252
20
17.209601164555394
30
0
10
17.628271396143621
20
17.155205086877487
30
0
10
17.729662976871527
20
17.097715608570653
30
0
10
17.825078382611899
20
17.037509952488456
30
0
10
17.879038583744535
20
17.001202409685007
30
0
10
17.886861446489632
20
16.99588875316579
30
0
0
SPLINE
5
127
100
AcDbEntity
8
0
100
AcDbSpline
70
1064
71
5
72
20
73
14
74
0
42
0.000000001
43
0.0000000001
44
0.0000000001
40
0.70253957705417602
40
0.70253957705417602
40
0.70253957705417602
40
0.70253957705417602
40
0.70253957705417602
40
0.70253957705417602
40
0.71428571428571364
40
0.72857142857142787
40
0.74285714285714211
40
0.75714285714285634
40
0.77142857142857058
40
0.78571428571428481
40
0.79999999999999905
40
0.81428571428571328
40
0.8199976346246266
40
0.8199976346246266
40
0.8199976346246266
40
0.8199976346246266
40
0.8199976346246266
40
0.8199976346246266
10
17.377419822061452
20
12.185023693889843
30
0
10
17.390517233620439
20
12.231172091492237
30
0
10
17.41885575709281
20
12.334980357622797
30
0
10
17.460055101807047
20
12.500805357712956
30
0
10
17.508602347046153
20
12.734844637470598
30
0
10
17.553225080690801
20
13.043139332676784
30
0
10
17.577411403584197
20
13.374418118983989
30
0
10
17.576755637934518
20
13.716032920697375
30
0
10
17.549839539499146
20
14.066991772009828
30
0
10
17.503131394593986
20
14.38284702666262
30
0
10
17.452915770611735
20
14.630095364269245
30
0
10
17.41124714629504
20
14.805196914077765
30
0
10
17.385045819031593
20
14.907250929430823
30
0
10
17.377412859376467
20
14.936386636125407
30
0
0
SPLINE
5
128
100
AcDbEntity
8
0
100
AcDbSpline
70
1064
71
5
72
28
73
22
74
0
42
0.000000001
43
0.0000000001
44
0.0000000001
40
0.86967561470692833
40
0.86967561470692833
40
0.86967561470692833
40
0.86967561470692833
40
0.86967561470692833
40
0.86967561470692833
40
0.87142857142857022
40
0.88571428571428445
40
0.89999999999999869
40
0.91428571428571292
40
0.92857142857142716
40
0.94285714285714139
40
0.95714285714285563
40
0.97142857142856986
40
0.9857142857142841
40
1
40
1
40
1
40
1
40
1
40
1.0142857142857142
40
1.0285714285714285
40
1.0386558045893017
40
1.0386558045893017
40
1.0386558045893017
40
1.0386558045893017
40
1.0386558045893017
40
1.0386558045893017
10
16.980819170511005
20
16.1278698186821
30
0
10
16.977956870766967
20
16.135201100779348
30
0
10
16.95182382101525
20
16.202013590877822
30
0
10
16.903412257247719
20
16.323700994715725
30
0
10
16.83590825665091
20
16.48856784141368
30
0
10
16.756977088648025
20
16.674992123957068
30
0
10
16.680121893938264
20
16.850428471743413
30
0
10
16.620578377145893
20
16.981334561560558
30
0
10
16.569708587862934
20
17.085892969332956
30
0
10
16.520009788396855
20
17.184490343064297
30
0
10
16.472985084817751
20
17.289675199469542
30
0
10
16.455355082741889
20
17.372024337910489
30
0
10
16.468124330688859
20
17.42238520281785
30
0
10
16.491293822981671
20
17.448065523830888
30
0
10
16.506711669942206
20
17.458704769147708
30
0
10
16.522129516902734
20
17.469344014464525
30
0
10
16.560631412452068
20
17.486220674718783
30
0
10
16.634380945672103
20
17.495911780306482
30
0
10
16.736697618622816
20
17.486332415752539
30
0
10
16.860642603073142
20
17.459057081517003
30
0
10
16.945013411326716
20
17.435645665585845
30
0
10
16.980819169385025
20
17.424957634214678
30
0
0
ARC
5
129
100
AcDbEntity
8
0
100
AcDbCircle
10
21.024148009206868
20
46.313275070362394
30
0
40
16.34245466920672
100
AcDbArc
50
251.5590901302771
51
288.44090986972287
0
LINE
5
130
100
AcDbEntity
8
0
100
AcDbLine
10
40.01909993888858
20
9.8413924837172502
30
0
11
37.766892340633724
21
5.5002661768953311
31
0
0
SPLINE
5
131
100
AcDbEntity
8
0
100
AcDbSpline
70
1064
71
5
72
12
73
6
74
0
42
0.000000001
43
0.0000000001
44
0.0000000001
40
0.96330130266508329
40
0.96330130266508329
40
0.96330130266508329
40
0.96330130266508329
40
0.96330130266508329
40
0.96330130266508329
40
1
40
1
40
1
40
1
40
1
40
1
10
35.988390012196376
20
16.840459257723488
30
0
10
35.989255177863598
20
16.788372781053123
30
0
10
35.98898439432763
20
16.738947093116398
30
0
10
35.987620151929313
20
16.692171832195978
30
0
10
35.985188189260107
20
16.648036384179882
30
0
10
35.981688549531611
20
16.606540655970573
30
0
0
SPLINE
5
132
100
AcDbEntity
8
0
100
AcDbSpline
70
1064
71
5
72
31
73
25
74
0
42
0.000000001
43
0.0000000001
44
0.0000000001
40
0.22313686565287508
40
0.22313686565287508
40
0.22313686565287508
40
0.22313686565287508
40
0.22313686565287508
40
0.22313686565287508
40
0.24000000000000002
40
0.28000000000000003
40
0.32000000000000001
40
0.35999999999999999
40
0.39999999999999997
40
0.43999999999999995
40
0.47999999999999993
40
0.51999999999999991
40
0.55999999999999994
40
0.59999999999999998
40
0.64000000000000001
40
0.68000000000000005
40
0.72000000000000008
40
0.76000000000000012
40
0.80000000000000016
40
0.84000000000000019
40
0.88000000000000023
40
0.92000000000000026
40
0.9600000000000003
40
0.96330130266408331
40
0.96330130266408331
40
0.96330130266408331
40
0.96330130266408331
40
0.96330130266408331
40
0.96330130266408331
10
30.971316487578363
20
23.76170242276509
30
0
10
31.000842105607084
20
23.750640232954087
30
0
10
31.100002233934401
20
23.712842593158211
30
0
10
31.266813987433313
20
23.645596581597211
30
0
10
31.499174194536344
20
23.543565409032627
30
0
10
31.79904849197473
20
23.398127723159298
30
0
10
32.145911463751233
20
23.212859275114926
30
0
10
32.505996589006401
20
23.001779249577226
30
0
10
32.879706220419919
20
22.75667270392659
30
0
10
33.262966600614661
20
22.467694796452776
30
0
10
33.648684784430607
20
22.125720036907083
30
0
10
34.027898882332963
20
21.724574636162885
30
0
10
34.390975847625036
20
21.263095741246012
30
0
10
34.728911712936274
20
20.747998970704131
30
0
10
35.034108207399427
20
20.194064455945288
30
0
10
35.300459923161114
20
19.620819134878637
30
0
10
35.523627931022922
20
19.0502121022243
30
0
10
35.701307448887142
20
18.503849609274752
30
0
10
35.833458852117325
20
18.000615140028188
30
0
10
35.92279248438772
20
17.553636271110872
30
0
10
35.965065657896851
20
17.239536400942203
30
0
10
35.981922432297672
20
17.032786416981505
30
0
10
35.987170792257302
20
16.906884775178828
30
0
10
35.988312184536696
20
16.845144797999936
30
0
10
35.988390012196263
20
16.840459257730586
30
0
0
SPLINE
5
133
100
AcDbEntity
8
0
100
AcDbSpline
70
1064
71
5
72
16
73
10
74
0
42
0.000000001
43
0.0000000001
44
0.0000000001
40
0
40
0
40
0
40
0
40
0
40
0
40
0.20000000000000001
40
0.40000000000000002
40
0.60000000000000009
40
0.80000000000000004
40
1
40
1
40
1
40
1
40
1
40
1
10
11.6937187150291
20
27.025004782530448
30
0
10
11.693718715028378
20
27.018248595976878
30
0
10
11.693718715027172
20
27.004736222870541
30
0
10
11.693718715026105
20
26.984467663213568
30
0
10
11.693718715025978
20
26.957442917008549
30
0
10
11.693718715027103
20
26.923661984256263
30
0
10
11.693718715028155
20
26.896637238054772
30
0
10
11.693718715028636
20
26.87636867840261
30
0
10
11.693718715028732
20
26.862856305300468
30
0
10
11.693718715028723
20
26.856100118749215
30
0
0
SPLINE
5
134
100
AcDbEntity
8
0
100
AcDbSpline
70
1064
71
5
72
16
73
10
74
0
42
0.000000001
43
0.0000000001
44
0.0000000001
40
0
40
0
40
0
40
0
40
0
40
0
40
0.20000000000000001
40
0.40000000000000002
40
0.60000000000000009
40
0.80000000000000004
40
1
40
1
40
1
40
1
40
1
40
1
10
22.397500445005747
20
21.694368969444557
30
0
10
21.949060879859132
20
21.694368969443079
30
0
10
21.05218174956681
20
21.694368969440557
30
0
10
19.706863054131194
20
21.694368969438198
30
0
10
17.913104793555426
20
21.694368969437576
30
0
10
15.670906967841528
20
21.694368969439395
30
0
10
13.877148707273264
20
21.694368969441587
30
0
10
12.531830011848161
20
21.694368969443161
30
0
10
11.63495088156521
20
21.694368969444099
30
0
10
11.186511316423843
20
21.694368969444557
30
0
0
LINE
5
135
100
AcDbEntity
8
0
100
AcDbLine
10
11.195773522585053
20
23.551834273938979
30
0
11
11.186511316423843
21
21.694368969444557
31
0
0
LINE
5
136
100
AcDbEntity
8
0
100
AcDbLine
10
11.186511316423843
20
21.694368969444557
30
0
11
11.193981850127956
21
20.002825878639658
31
0
0
SPLINE
5
137
100
AcDbEntity
8
0
100
AcDbSpline
70
1064
71
5
72
12
73
6
74
0
42
0.000000001
43
0.0000000001
44
0.0000000001
40
0.99999855867227938
40
0.99999855867227938
40
0.99999855867227938
40
0.99999855867227938
40
0.99999855867227938
40
0.99999855867227938
40
1
40
1
40
1
40
1
40
1
40
1
10
11.197397574984054
20
23.877529882135097
30
0
10
11.197397574889461
20
23.877529023513645
30
0
10
11.197397574794866
20
23.87752816489219
30
0
10
11.19739757470027
20
23.877527306270743
30
0
10
11.19739757460567
20
23.877526447649295
30
0
10
11.19739757451107
20
23.87752558902784
30
0
0
LINE
5
138
100
AcDbEntity
8
0
100
AcDbLine
10
30.47131662501268
20
26.847701294068486
30
0
11
11.693718715028723
21
26.856100118749215
31
0
0
SPLINE
5
139
100
AcDbEntity
8
0
100
AcDbSpline
70
1064
71
5
72
26
73
20
74
0
42
0.000000001
43
0.0000000001
44
0.0000000001
40
0
40
0
40
0
40
0
40
0
40
0
40
0.066666666666666666
40
0.13333333333333333
40
0.20000000000000001
40
0.26666666666666666
40
0.33333333333333331
40
0.39999999999999997
40
0.46666666666666662
40
0.53333333333333333
40
0.59999999999999998
40
0.66666666666666663
40
0.73333333333333328
40
0.79999999999999993
40
0.86666666666666659
40
0.93333333333333324
40
1
40
1
40
1
40
1
40
1
40
1
10
30.971316487578363
20
23.76170242276509
30
0
10
30.933960185680952
20
23.782394854309281
30
0
10
30.834868869259758
20
23.82693499867414
30
0
10
30.613093689195928
20
23.903216149509095
30
0
10
30.170843320720444
20
24.018896195952742
30
0
10
29.369958602614723
20
24.161813178160536
30
0
10
28.313450575454425
20
24.276100887142835
30
0
10
26.988683485258246
20
24.346150717295146
30
0
10
25.38200896370514
20
24.372051771685502
30
0
10
23.493811719382446
20
24.362626281490577
30
0
10
21.346274858365927
20
24.33205092134553
30
0
10
19.007834889907386
20
24.29467411985021
30
0
10
16.584699885881978
20
24.262283797654902
30
0
10
14.293255881190582
20
24.236745639319345
30
0
10
12.350197664686908
20
24.212676705098222
30
0
10
11.298725900128343
20
24.155902371740325
30
0
10
11.183451306509184
20
24.068433191332652
30
0
10
11.197068033178221
20
23.986546597851568
30
0
10
11.19987919091143
20
23.926002394373764
30
0
10
11.19934927755693
20
23.894262208680914
30
0
0
SPLINE
5
140
100
AcDbEntity
8
0
100
AcDbSpline
70
1064
71
5
72
18
73
12
74
0
42
0.000000001
43
0.0000000001
44
0.0000000001
40
0
40
0
40
0
40
0
40
0
40
0
40
0.10000000000000001
40
0.20000000000000001
40
0.30000000000000004
40
0.40000000000000002
40
0.5
40
0.59999999999999998
40
0.68247103904545503
40
0.68247103904545503
40
0.68247103904545503
40
0.68247103904545503
40
0.68247103904545503
40
0.68247103904545503
10
26.819406630034042
20
16.664936734602449
30
0
10
26.819406629961438
20
16.607848526087
30
0
10
26.819406629821188
20
16.45453604398519
30
0
10
26.819406629625529
20
16.107167588444106
30
0
10
26.819406629395765
20
15.405272224867527
30
0
10
26.819406629169407
20
14.113327652959523
30
0
10
26.819406629011397
20
12.399481401817049
30
0
10
26.819406628923325
20
10.364224575101259
30
0
10
26.81940662889701
20
8.4934732998425897
30
0
10
26.819406628897696
20
6.9889744707915993
30
0
10
26.819406628905526
20
5.9700468545825611
30
0
10
26.819406628910492
20
5.5002661768953196
30
0
0
SPLINE
5
141
100
AcDbEntity
8
0
100
AcDbSpline
70
1064
71
5
72
14
73
8
74
0
42
0.000000001
43
0.0000000001
44
0.0000000001
40
0
40
0
40
0
40
0
40
0
40
0
40
0.20000000000000001
40
0.40000000000000002
40
0.50336996691469293
40
0.50336996691469293
40
0.50336996691469293
40
0.50336996691469293
40
0.50336996691469293
40
0.50336996691469293
10
25.117592911214434
20
16.095651039615216
30
0
10
25.119271275807119
20
15.253694978734348
30
0
10
25.122628004992521
20
13.569782856972996
30
0
10
25.126852196640165
20
11.450705884428364
30
0
10
25.131076388287919
20
9.3316289118848346
30
0
10
25.135300579935702
20
7.2125519393420294
30
0
10
25.137846406990651
20
5.9354310276789546
30
0
10
25.138713869452793
20
5.5002661768953187
30
0
0
SPLINE
5
142
100
AcDbEntity
8
0
100
AcDbSpline
70
1064
71
5
72
14
73
8
74
0
42
0.000000001
43
0.0000000001
44
0.0000000001
40
0
40
0
40
0
40
0
40
0
40
0
40
0.20000000000000001
40
0.40000000000000002
40
0.50878861508106332
40
0.50878861508106332
40
0.50878861508106332
40
0.50878861508106332
40
0.50878861508106332
40
0.50878861508106332
10
11.193981850127956
20
20.002825878639658
30
0
10
11.193192116269854
20
19.106974234025802
30
0
10
11.191686649703502
20
17.192163253349577
30
0
10
11.189959949361302
20
14.443722121460038
30
0
10
11.188508384372966
20
11.374890760242355
30
0
10
11.187501530696624
20
8.1580898661565406
30
0
10
11.18711458153259
20
6.1925732460554839
30
0
10
11.187008979380341
20
5.5002661765938798
30
0
0
ELLIPSE
5
143
100
AcDbEntity
8
0
100
AcDbEllipse
10
15.082441621640481
20
5.4859440602108256
30
0
11
0
21
-2.6925821812639681
31
0.0
40
0.32704402515723263
41
1.576115452918716
42
4.7070698542608707
0
LINE
5
144
100
AcDbEntity
8
0
100
AcDbLine
10
11.19934927755693
20
23.894262208680914
30
0
11
11.195773522585053
21
23.551834273938979
31
0
0
LINE
5
145
100
AcDbEntity
8
0
100
AcDbLine
10
11.693718715028723
20
26.856100118749215
30
0
11
11.693718715025181
21
24.16173454501596
31
0
0
LINE
5
146
100
AcDbEntity
8
0
100
AcDbLine
10
30.47131662501268
20
26.847701294068486
30
0
11
30.470013482431753
21
23.934211807840168
31
0
0
LINE
5
147
100
AcDbEntity
8
0
100
AcDbLine
10
33.210474093507003
20
1.1591398700734012
30
0
11
29.975262092985709
21
5.5002661768953223
31
0
0
LINE
5
148
100
AcDbEntity
8
0
100
AcDbLine
10
40.019099938888587
20
1.1591398700734157
30
0
11
33.210474093507003
21
1.1591398700734012
31
0
0
LINE
5
149
100
AcDbEntity
8
0
100
AcDbLine
10
40.019099938888587
20
5.5002661768953329
30
0
11
40.019099938888587
21
1.1591398700734157
31
0
0
LINE
5
150
100
AcDbEntity
8
0
100
AcDbLine
10
18.289540224434685
20
-5.6518293912101338
30
0
11
18.289540183042984
21
0.051678397290184641
31
0
0
LINE
5
151
100
AcDbEntity
8
0
100
AcDbLine
10
17.377419822061462
20
-1.184491340099223
30
0
11
17.377419822124011
21
0.70857354546874918
31
0
0
LINE
5
152
100
AcDbEntity
8
0
100
AcDbLine
10
17.377419804691428
20
-6.2754636145403744
30
0
11
17.377419796112676
21
-3.9358278039842665
31
0
0
LINE
5
153
100
AcDbEntity
8
0
100
AcDbLine
10
16.980819170511026
20
-5.1273374648914851
30
0
11
16.980819169385054
21
-6.4244252804240611
31
0
0
LINE
5
154
100
AcDbEntity
8
0
100
AcDbLine
10
30.471316625012722
20
-15.84716894027784
30
0
11
11.693718715028769
21
-15.855567764958614
31
0
0
LINE
5
155
100
AcDbEntity
8
0
100
AcDbLine
10
11.195773522585091
20
-12.551301920148372
30
0
11
11.186511316423879
21
-10.693836615653955
31
0
0
SPLINE
5
156
100
AcDbEntity
8
0
100
AcDbSpline
70
1064
71
5
72
12
73
6
74
0
42
0.000000001
43
0.0000000001
44
0.0000000001
40
0.96330130266508329
40
0.96330130266508329
40
0.96330130266508329
40
0.96330130266508329
40
0.96330130266508329
40
0.96330130266508329
40
1
40
1
40
1
40
1
40
1
40
1
10
35.98839001219639
20
-5.8399269039328283
30
0
10
35.989255177863619
20
-5.7878404272624628
30
0
10
35.988984394327652
20
-5.7384147393257372
30
0
10
35.987620151929328
20
-5.6916394784053175
30
0
10
35.985188189260128
20
-5.6475040303892232
30
0
10
35.981688549531633
20
-5.6060083021799141
30
0
0
SPLINE
5
157
100
AcDbEntity
8
0
100
AcDbSpline
70
1064
71
5
72
31
73
25
74
0
42
0.000000001
43
0.0000000001
44
0.0000000001
40
0
40
0
40
0
40
0
40
0
40
0
40
0.050000000000000003
40
0.10000000000000001
40
0.15000000000000002
40
0.20000000000000001
40
0.25
40
0.29999999999999999
40
0.34999999999999998
40
0.39999999999999997
40
0.44999999999999996
40
0.49999999999999994
40
0.54999999999999993
40
0.59999999999999998
40
0.65000000000000002
40
0.70000000000000007
40
0.75000000000000011
40
0.80000000000000016
40
0.8500000000000002
40
0.90000000000000024
40
0.95000000000000029
40
1
40
1
40
1
40
1
40
1
40
1
10
21.918283480778701
20
-8.9125141277928392
30
0
10
21.960717419861645
20
-8.9139052421729872
30
0
10
22.046520091854571
20
-8.9136604741796699
30
0
10
22.178028589627839
20
-8.9042122803490571
30
0
10
22.359004191828021
20
-8.8733789420913638
30
0
10
22.59442041069558
20
-8.8041660737924481
30
0
10
22.838210921258234
20
-8.7042230945551715
30
0
10
23.088566185462973
20
-8.5740184389281779
30
0
10
23.342196695298728
20
-8.4149600971689775
30
0
10
23.594186481266135
20
-8.2296187435271975
30
0
10
23.83881592103322
20
-8.021393740435288
30
0
10
24.070182077068235
20
-7.7943181404158102
30
0
10
24.282918408071588
20
-7.5528512311572609
30
0
10
24.472846505902147
20
-7.3016957616588174
30
0
10
24.637809309020277
20
-7.0456571356264153
30
0
10
24.777282670261283
20
-6.7892149040952088
30
0
10
24.891837327924819
20
-6.536067677067412
30
0
10
24.982690553278346
20
-6.2886378364743507
30
0
10
25.051283129078495
20
-6.0476629120757242
30
0
10
25.098822967294815
20
-5.8114842414780536
30
0
10
25.12617933982267
20
-5.5767339246213616
30
0
10
25.132382858070045
20
-5.3870221657444013
30
0
10
25.128353947572379
20
-5.2422190375717808
30
0
10
25.121821083514597
20
-5.1443709405295941
30
0
10
25.117592911214452
20
-5.0951186858245805
30
0
0
LINE
5
158
100
AcDbEntity
8
0
100
AcDbLine
10
17.886861446479315
20
0.39034175866524023
30
0
11
17.886861446489654
21
-5.9953563993751704
31
0
0
SPLINE
5
159
100
AcDbEntity
8
0
100
AcDbSpline
70
1064
71
5
72
16
73
10
74
0
42
0.000000001
43
0.0000000001
44
0.0000000001
40
0
40
0
40
0
40
0
40
0
40
0
40
0.20000000000000001
40
0.40000000000000002
40
0.60000000000000009
40
0.80000000000000004
40
1
40
1
40
1
40
1
40
1
40
1
10
11.193981850127981
20
-9.0022935248490512
30
0
10
11.622953915353214
20
-8.9987023489659101
30
0
10
12.480898045803883
20
-8.9915199971999087
30
0
10
13.767814241480549
20
-8.9807464695518018
30
0
10
15.483702502383963
20
-8.9663817660224492
30
0
10
17.628562828514681
20
-8.948425886612263
30
0
10
19.344451089419977
20
-8.9340611830845482
30
0
10
20.631367285099245
20
-8.9232876554387452
30
0
10
21.489311415552198
20
-8.9161053036748168
30
0
10
21.918283480778701
20
-8.9125141277928392
30
0
0
SPLINE
5
160
100
AcDbEntity
8
0
100
AcDbSpline
70
1064
71
5
72
16
73
10
74
0
42
0.000000001
43
0.0000000001
44
0.0000000001
40
0
40
0
40
0
40
0
40
0
40
0
40
0.20000000000000001
40
0.40000000000000002
40
0.60000000000000009
40
0.80000000000000004
40
0.99641917180120143
40
0.99641917180120143
40
0.99641917180120143
40
0.99641917180120143
40
0.99641917180120143
40
0.99641917180120143
10
35.981688549531633
20
-5.6060083021799141
30
0
10
35.981155621686348
20
-5.3344298996855466
30
0
10
35.980089765996766
20
-4.7912730946976261
30
0
10
35.978490982465601
20
-3.9765378872182633
30
0
10
35.976359271093294
20
-2.8902242772491271
30
0
10
35.973704173495634
20
-1.5371946428004502
30
0
10
35.971582003740778
20
-0.45574341084476
30
0
10
35.969992761828692
20
0.35412941861908909
30
0
10
35.96893644775907
20
0.89242384559171883
30
0
10
35.968413061531891
20
1.1591398700734123
30
0
0
SPLINE
5
161
100
AcDbEntity
8
0
100
AcDbSpline
70
1064
71
5
72
26
73
20
74
0
42
0.000000001
43
0.0000000001
44
0.0000000001
40
0
40
0
40
0
40
0
40
0
40
0
40
0.066666666666666666
40
0.13333333333333333
40
0.20000000000000001
40
0.26666666666666666
40
0.33333333333333331
40
0.39999999999999997
40
0.46666666666666662
40
0.53333333333333333
40
0.59999999999999998
40
0.66666666666666663
40
0.73333333333333328
40
0.79999999999999993
40
0.86666666666666659
40
0.93333333333333324
40
1
40
1
40
1
40
1
40
1
40
1
10
30.471316625012719
20
-15.84716894027784
30
0
10
30.455273830814473
20
-15.890837374341746
30
0
10
30.420969567734261
20
-15.98031115502792
30
0
10
30.362857170695442
20
-16.120932857014353
30
0
10
30.271965028552636
20
-16.321341217125585
30
0
10
30.135276209647607
20
-16.593397956224905
30
0
10
29.974355725974288
20
-16.886030142652636
30
0
10
29.787702685661607
20
-17.19655844854017
30
0
10
29.573637293580859
20
-17.519420213101419
30
0
10
29.330405103003304
20
-17.846812193048752
30
0
10
29.05628477488532
20
-18.169981876260213
30
0
10
28.749815334919777
20
-18.480307964870502
30
0
10
28.410027231042953
20
-18.770342986714045
30
0
10
28.036944286266333
20
-19.035249611656212
30
0
10
27.631412413380421
20
-19.27269811561515
30
0
10
27.194566879003442
20
-19.481880723008238
30
0
10
26.820934895422916
20
-19.626722075048541
30
0
10
26.527490511792241
20
-19.722901349085461
30
0
10
26.32602790794305
20
-19.781527198902474
30
0
10
26.223838333987789
20
-19.809466678376605
30
0
0
SPLINE
5
162
100
AcDbEntity
8
0
100
AcDbSpline
70
1064
71
5
72
16
73
10
74
0
42
0.000000001
43
0.0000000001
44
0.0000000001
40
0
40
0
40
0
40
0
40
0
40
0
40
0.20000000000000001
40
0.40000000000000002
40
0.60000000000000009
40
0.80000000000000004
40
1
40
1
40
1
40
1
40
1
40
1
10
26.223838333987789
20
-19.809466678376605
30
0
10
25.808382140462264
20
-19.809466678375745
30
0
10
24.977469753412219
20
-19.809466678374328
30
0
10
23.731101172840333
20
-19.809466678373177
30
0
10
22.069276398750088
20
-19.809466678373244
30
0
10
19.991995431143906
20
-19.80946667837496
30
0
10
18.330170657062627
20
-19.809466678376761
30
0
10
17.083802076503389
20
-19.80946667837809
30
0
10
16.252889689464634
20
-19.809466678378882
30
0
10
15.837433495945445
20
-19.809466678379273
30
0
0
SPLINE
5
163
100
AcDbEntity
8
0
100
AcDbSpline
70
1064
71
5
72
26
73
20
74
0
42
0.000000001
43
0.0000000001
44
0.0000000001
40
0
40
0
40
0
40
0
40
0
40
0
40
0.066666666666666666
40
0.13333333333333333
40
0.20000000000000001
40
0.26666666666666666
40
0.33333333333333331
40
0.39999999999999997
40
0.46666666666666662
40
0.53333333333333333
40
0.59999999999999998
40
0.66666666666666663
40
0.73333333333333328
40
0.79999999999999993
40
0.86666666666666659
40
0.93333333333333324
40
1
40
1
40
1
40
1
40
1
40
1
10
15.837433495945445
20
-19.809466678379273
30
0
10
15.780364314547279
20
-19.808239670467071
30
0
10
15.664951107286065
20
-19.801240464773556
30
0
10
15.488006557864651
20
-19.777105821711181
30
0
10
15.244377161010378
20
-19.71745866321222
30
0
10
14.9270962329221
20
-19.596332851944322
30
0
10
14.597986414436237
20
-19.428428567051576
30
0
10
14.259317060296032
20
-19.214948718070367
30
0
10
13.915549546199607
20
-18.959870518160301
30
0
10
13.57344344877407
20
-18.670254849516791
30
0
10
13.240881884221681
20
-18.354680757163131
30
0
10
12.926028122679067
20
-18.022269068524412
30
0
10
12.636331309526316
20
-17.681585895605721
30
0
10
12.377548571545303
20
-17.339674101690115
30
0
10
12.152585944287503
20
-17.000991213013265
30
0
10
11.962398831173095
20
-16.668014975447882
30
0
10
11.837940876910132
20
-16.407076400427925
30
0
10
11.75991575712114
20
-16.214548289728015
30
0
10
11.714657908224149
20
-16.087597501682328
30
0
10
11.693718715029139
20
-16.024472428739841
30
0
0
SPLINE
5
164
100
AcDbEntity
8
0
100
AcDbSpline
70
1064
71
5
72
16
73
10
74
0
42
0.000000001
43
0.0000000001
44
0.0000000001
40
0
40
0
40
0
40
0
40
0
40
0
40
0.20000000000000001
40
0.40000000000000002
40
0.60000000000000009
40
0.80000000000000004
40
1
40
1
40
1
40
1
40
1
40
1
10
35.988390012188546
20
-5.8399269044052549
30
0
10
36.039938058058127
20
-5.8399269044037609
30
0
10
36.143034149798495
20
-5.8399269044011231
30
0
10
36.297678287412893
20
-5.8399269043983004
30
0
10
36.503870470905582
20
-5.8399269043965525
30
0
10
36.761610700279114
20
-5.8399269043970259
30
0
10
36.967802883781502
20
-5.8399269043991691
30
0
10
37.122447021409556
20
-5.8399269044018016
30
0
10
37.225543113162061
20
-5.8399269044040247
30
0
10
37.277091159038449
20
-5.8399269044052531
30
0
0
SPLINE
5
165
100
AcDbEntity
8
0
100
AcDbSpline
70
1064
71
5
72
26
73
20
74
0
42
0.000000001
43
0.0000000001
44
0.0000000001
40
0
40
0
40
0
40
0
40
0
40
0
40
0.066666666666666666
40
0.13333333333333333
40
0.20000000000000001
40
0.26666666666666666
40
0.33333333333333331
40
0.39999999999999997
40
0.46666666666666662
40
0.53333333333333333
40
0.59999999999999998
40
0.66666666666666663
40
0.73333333333333328
40
0.79999999999999993
40
0.86666666666666659
40
0.93333333333333324
40
1
40
1
40
1
40
1
40
1
40
1
10
37.277091159038449
20
-5.8399269044052531
30
0
10
37.295408646262153
20
-5.834869016292652
30
0
10
37.332214120684377
20
-5.8239794820455142
30
0
10
37.387933856488559
20
-5.8053239034154309
30
0
10
37.463257117206183
20
-5.775773526363599
30
0
10
37.559099439353339
20
-5.7308260261613171
30
0
10
37.656459104382336
20
-5.6775793878764214
30
0
10
37.754933697244738
20
-5.6157379867415518
30
0
10
37.853761979229816
20
-5.5451068964987709
30
0
10
37.951772391989977
20
-5.465666886771654
30
0
10
38.047592957811041
20
-5.3774954256155656
30
0
10
38.139818681309407
20
-5.2807438449584376
30
0
10
38.227187818684691
20
-5.1756209065151086
30
0
10
38.308795908417885
20
-5.0624155252893139
30
0
10
38.384233213178675
20
-4.9415052524651459
30
0
10
38.453385237892263
20
-4.8132628350480449
30
0
10
38.503727214479312
20
-4.7050535059582543
30
0
10
38.53873314226032
20
-4.6208310620199384
30
0
10
38.56085687656639
20
-4.5633302329280845
30
0
10
38.571615350494234
20
-4.5342416818104354
30
0
0
SPLINE
5
166
100
AcDbEntity
8
0
100
AcDbSpline
70
1064
71
5
72
16
73
10
74
0
42
0.000000001
43
0.0000000001
44
0.0000000001
40
0
40
0
40
0
40
0
40
0
40
0
40
0.20000000000000001
40
0.40000000000000002
40
0.60000000000000009
40
0.80000000000000004
40
1
40
1
40
1
40
1
40
1
40
1
10
38.571615350494234
20
-4.5342416818104354
30
0
10
38.571615350488543
20
-4.3065064197340508
30
0
10
38.571615350478581
20
-3.8510358955815782
30
0
10
38.571615350468122
20
-3.1678301093538264
30
0
10
38.571615350462181
20
-2.2568890610518078
30
0
10
38.571615350464874
20
-1.1182127506760731
30
0
10
38.571615350473124
20
-0.20727170237615722
30
0
10
38.571615350482482
20
0.47593408384864366
30
0
10
38.571615350490084
20
0.93140460799849611
30
0
10
38.571615350494227
20
1.1591398700734135
30
0
0
SPLINE
5
167
100
AcDbEntity
8
0
100
AcDbSpline
70
1064
71
5
72
21
73
15
74
0
42
0.000000001
43
0.0000000001
44
0.0000000001
40
1.500920637377984
40
1.500920637377984
40
1.500920637377984
40
1.500920637377984
40
1.500920637377984
40
1.500920637377984
40
1.5142857142857142
40
1.5285714285714285
40
1.5428571428571427
40
1.5571428571428569
40
1.5714285714285712
40
1.5857142857142854
40
1.5999999999999996
40
1.6142857142857139
40
1.6285714285714281
40
1.6390265800768322
40
1.6390265800768322
40
1.6390265800768322
40
1.6390265800768322
40
1.6390265800768322
40
1.6390265800768322
10
16.980819169123482
20
0.89840155378578368
30
0
10
16.935076782644494
20
0.91692544121682706
30
0
10
16.843366105839333
20
0.95156079017251649
30
0
10
16.715778937162717
20
0.99110679879537811
30
0
10
16.577772435304155
20
1.0119881278585752
30
0
10
16.47865983577389
20
0.97448761800294159
30
0
10
16.459498266277656
20
0.87165198019426349
30
0
10
16.506921430447598
20
0.71947031747975565
30
0
10
16.596796512108348
20
0.53937235876362344
30
0
10
16.703497498227616
20
0.3518448676666841
30
0
10
16.804822606444549
20
0.17702111060779568
30
0
10
16.880676447701276
20
0.04080206074906334
30
0
10
16.933918634694422
20
-0.060152536591429051
30
0
10
16.966963738718029
20
-0.12539246110421898
30
0
10
16.980819169255582
20
-0.1532388657246897
30
0
0
SPLINE
5
168
100
AcDbEntity
8
0
100
AcDbSpline
70
1064
71
5
72
14
73
8
74
0
42
0.000000001
43
0.0000000001
44
0.0000000001
40
1.4500027635012835
40
1.4500027635012835
40
1.4500027635012835
40
1.4500027635012835
40
1.4500027635012835
40
1.4500027635012835
40
1.4571428571428573
40
1.4714285714285715
40
1.4790585646704613
40
1.4790585646704613
40
1.4790585646704613
40
1.4790585646704613
40
1.4790585646704613
40
1.4790585646704613
10
17.886861446479312
20
0.39034175866524246
30
0
10
17.863839263372125
20
0.40696884460928118
30
0
10
17.793888997773948
20
0.45654944821049259
30
0
10
17.69553713116202
20
0.52251926384435432
30
0
10
17.59273531183814
20
0.58670801171097686
30
0
10
17.486610711751847
20
0.64854662383839967
30
0
10
17.405663219202385
20
0.69326625352369442
30
0
10
17.377419822124001
20
0.70857354546874918
30
0
0
SPLINE
5
169
100
AcDbEntity
8
0
100
AcDbSpline
70
1064
71
5
72
14
73
8
74
0
42
0.000000001
43
0.0000000001
44
0.0000000001
40
1.3904896031129605
40
1.3904896031129605
40
1.3904896031129605
40
1.3904896031129605
40
1.3904896031129605
40
1.3904896031129605
40
1.4000000000000001
40
1.4142857142857144
40
1.4224457028174422
40
1.4224457028174422
40
1.4224457028174422
40
1.4224457028174422
40
1.4224457028174422
40
1.4224457028174422
10
18.678740233454555
20
-0.40822387039575192
30
0
10
18.657097630722188
20
-0.37799415437478112
30
0
10
18.6025011781229
20
-0.30349140285724108
30
0
10
18.527641865515832
20
-0.2072470044093655
30
0
10
18.450397574393985
20
-0.11595733307634637
30
0
10
18.369789498534356
20
-0.028940033641187135
30
0
10
18.311144751838675
20
0.030351678407376514
30
0
10
18.289540183042977
20
0.051678397290184641
30
0
0
SPLINE
5
170
100
AcDbEntity
8
0
100
AcDbSpline
70
1064
71
5
72
22
73
16
74
0
42
0.000000001
43
0.0000000001
44
0.0000000001
40
1.2032631594958216
40
1.2032631594958216
40
1.2032631594958216
40
1.2032631594958216
40
1.2032631594958216
40
1.2032631594958216
40
1.2142857142857144
40
1.2285714285714286
40
1.2428571428571429
40
1.2571428571428571
40
1.2714285714285714
40
1.2857142857142858
40
1.3
40
1.3142857142857143
40
1.3285714285714287
40
1.342857142857143
40
1.3445719605417805
40
1.3445719605417805
40
1.3445719605417805
40
1.3445719605417805
40
1.3445719605417805
40
1.3445719605417805
10
19.15393061969467
20
-4.1810099326741801
30
0
10
19.172731595456735
20
-4.1359567186267965
30
0
10
19.215013841309897
20
-4.0319343926740991
30
0
10
19.27763563477161
20
-3.8674024901324455
30
0
10
19.353591192822641
20
-3.6410312492194774
30
0
10
19.429248814674427
20
-3.353221255973331
30
0
10
19.481691547871463
20
-3.0517017271610758
30
0
10
19.504477481246546
20
-2.750755909184579
30
0
10
19.496152602631089
20
-2.4503246840211945
30
0
10
19.456683017484487
20
-2.1503884320299482
30
0
10
19.387503530430337
20
-1.8515419847234238
30
0
10
19.308475652191849
20
-1.6077014825451164
30
0
10
19.23782187650119
20
-1.4262074916750178
30
0
10
19.185633199389102
20
-1.3050413115361348
30
0
10
19.157010153885359
20
-1.2417332660009262
30
0
10
19.153930616312117
20
-1.2349566094676767
30
0
0
SPLINE
5
171
100
AcDbEntity
8
0
100
AcDbSpline
70
1064
71
5
72
14
73
8
74
0
42
0.000000001
43
0.0000000001
44
0.0000000001
40
1.1170576056889105
40
1.1170576056889105
40
1.1170576056889105
40
1.1170576056889105
40
1.1170576056889105
40
1.1170576056889105
40
1.1285714285714286
40
1.1428571428571428
40
1.1531565093557963
40
1.1531565093557963
40
1.1531565093557963
40
1.1531565093557963
40
1.1531565093557963
40
1.1531565093557963
10
18.289540224434681
20
-5.6518293912101347
30
0
10
18.317310258729126
20
-5.6219599444755763
30
0
10
18.377964116459424
20
-5.5537778480780231
30
0
10
18.458434027423898
20
-5.4542563588477684
30
0
10
18.534526984431821
20
-5.3483526042957674
30
0
10
18.608417770096938
20
-5.2354964197587854
30
0
10
18.658054292219077
20
-5.1554425498315481
30
0
10
18.678743373447634
20
-5.1213528485666355
30
0
0
SPLINE
5
172
100
AcDbEntity
8
0
100
AcDbSpline
70
1064
71
5
72
14
73
8
74
0
42
0.000000001
43
0.0000000001
44
0.0000000001
40
1.0597011225336952
40
1.0597011225336952
40
1.0597011225336952
40
1.0597011225336952
40
1.0597011225336952
40
1.0597011225336952
40
1.0714285714285714
40
1.0857142857142856
40
1.0881529500062006
40
1.0881529500062006
40
1.0881529500062006
40
1.0881529500062006
40
1.0881529500062006
40
1.0881529500062006
10
17.377419804691417
20
-6.2754636145403708
30
0
10
17.422458723552559
20
-6.2553757846697629
30
0
10
17.52188416150927
20
-6.2090688107647729
30
0
10
17.628271396143639
20
-6.1546727330868638
30
0
10
17.729662976871545
20
-6.0971832547800293
30
0
10
17.82507838261192
20
-6.0369775986978347
30
0
10
17.879038583744553
20
-6.0006700558943855
30
0
10
17.88686144648965
20
-5.9953563993751668
30
0
0
SPLINE
5
173
100
AcDbEntity
8
0
100
AcDbSpline
70
1064
71
5
72
20
73
14
74
0
42
0.000000001
43
0.0000000001
44
0.0000000001
40
0.70253957705417602
40
0.70253957705417602
40
0.70253957705417602
40
0.70253957705417602
40
0.70253957705417602
40
0.70253957705417602
40
0.71428571428571364
40
0.72857142857142787
40
0.74285714285714211
40
0.75714285714285634
40
0.77142857142857058
40
0.78571428571428481
40
0.79999999999999905
40
0.81428571428571328
40
0.8199976346246266
40
0.8199976346246266
40
0.8199976346246266
40
0.8199976346246266
40
0.8199976346246266
40
0.8199976346246266
10
17.377419822061459
20
-1.184491340099223
30
0
10
17.390517233620447
20
-1.2306397377016176
30
0
10
17.418855757092821
20
-1.3344480038321782
30
0
10
17.460055101807054
20
-1.5002730039223366
30
0
10
17.508602347046164
20
-1.7343122836799774
30
0
10
17.553225080690808
20
-2.0426069788861634
30
0
10
17.577411403584208
20
-2.3738857651933687
30
0
10
17.576755637934529
20
-2.7155005669067545
30
0
10
17.549839539499157
20
-3.0664594182192095
30
0
10
17.503131394594
20
-3.3823146728719999
30
0
10
17.452915770611749
20
-3.6295630104786247
30
0
10
17.411247146295054
20
-3.8046645602871454
30
0
10
17.385045819031607
20
-3.9067185756402045
30
0
10
17.377412859376481
20
-3.9358542823347875
30
0
0
SPLINE
5
174
100
AcDbEntity
8
0
100
AcDbSpline
70
1064
71
5
72
28
73
22
74
0
42
0.000000001
43
0.0000000001
44
0.0000000001
40
0.86967561470692833
40
0.86967561470692833
40
0.86967561470692833
40
0.86967561470692833
40
0.86967561470692833
40
0.86967561470692833
40
0.87142857142857022
40
0.88571428571428445
40
0.89999999999999869
40
0.91428571428571292
40
0.92857142857142716
40
0.94285714285714139
40
0.95714285714285563
40
0.97142857142856986
40
0.9857142857142841
40
1
40
1
40
1
40
1
40
1
40
1.0142857142857142
40
1.0285714285714285
40
1.0386558045893017
40
1.0386558045893017
40
1.0386558045893017
40
1.0386558045893017
40
1.0386558045893017
40
1.0386558045893017
10
16.980819170511023
20
-5.1273374648914816
30
0
10
16.977956870766981
20
-5.1346687469887282
30
0
10
16.951823821015267
20
-5.2014812370872026
30
0
10
16.903412257247737
20
-5.3231686409251067
30
0
10
16.835908256650928
20
-5.4880354876230601
30
0
10
16.756977088648043
20
-5.6744597701664485
30
0
10
16.680121893938281
20
-5.8498961179527953
30
0
10
16.620578377145911
20
-5.980802207769937
30
0
10
16.569708587862952
20
-6.0853606155423368
30
0
10
16.520009788396873
20
-6.1839579892736811
30
0
10
16.472985084817768
20
-6.289142845678926
30
0
10
16.455355082741907
20
-6.3714919841198707
30
0
10
16.468124330688877
20
-6.4218528490272337
30
0
10
16.491293822981689
20
-6.4475331700402698
30
0
10
16.506711669942224
20
-6.4581724153570903
30
0
10
16.522129516902751
20
-6.4688116606739072
30
0
10
16.560631412452086
20
-6.4856883209281646
30
0
10
16.63438094567212
20
-6.4953794265158615
30
0
10
16.736697618622834
20
-6.4858000619619194
30
0
10
16.86064260307316
20
-6.4585247277263846
30
0
10
16.945013411326734
20
-6.4351133117952237
30
0
10
16.980819169385043
20
-6.4244252804240576
30
0
0
ARC
5
175
100
AcDbEntity
8
0
100
AcDbCircle
10
21.02414800920695
20
-35.312742716571762
30
0
40
16.342454669206759
100
AcDbArc
50
71.559090130277227
51
108.44090986972301
0
SPLINE
5
176
100
AcDbEntity
8
0
100
AcDbSpline
70
1064
71
5
72
31
73
25
74
0
42
0.000000001
43
0.0000000001
44
0.0000000001
40
0.22313686565287508
40
0.22313686565287508
40
0.22313686565287508
40
0.22313686565287508
40
0.22313686565287508
40
0.22313686565287508
40
0.24000000000000002
40
0.28000000000000003
40
0.32000000000000001
40
0.35999999999999999
40
0.39999999999999997
40
0.43999999999999995
40
0.47999999999999993
40
0.51999999999999991
40
0.55999999999999994
40
0.59999999999999998
40
0.64000000000000001
40
0.68000000000000005
40
0.72000000000000008
40
0.76000000000000012
40
0.80000000000000016
40
0.84000000000000019
40
0.88000000000000023
40
0.92000000000000026
40
0.9600000000000003
40
0.96330130266408331
40
0.96330130266408331
40
0.96330130266408331
40
0.96330130266408331
40
0.96330130266408331
40
0.96330130266408331
10
30.971316487578395
20
-12.76117006897444
30
0
10
31.000842105607113
20
-12.750107879163437
30
0
10
31.100002233934433
20
-12.712310239367559
30
0
10
31.266813987433345
20
-12.645064227806561
30
0
10
31.499174194536373
20
-12.543033055241978
30
0
10
31.799048491974759
20
-12.397595369368645
30
0
10
32.145911463751268
20
-12.212326921324275
30
0
10
32.505996589006429
20
-12.001246895786576
30
0
10
32.879706220419948
20
-11.756140350135937
30
0
10
33.262966600614689
20
-11.467162442662122
30
0
10
33.648684784430635
20
-11.12518768311643
30
0
10
34.027898882332991
20
-10.724042282372231
30
0
10
34.390975847625064
20
-10.262563387455357
30
0
10
34.728911712936302
20
-9.747466616913476
30
0
10
35.034108207399449
20
-9.1935321021546343
30
0
10
35.300459923161135
20
-8.6202867810879802
30
0
10
35.523627931022943
20
-8.0496797484336433
30
0
10
35.701307448887164
20
-7.5033172554840943
30
0
10
35.833458852117339
20
-7.0000827862375292
30
0
10
35.922792484387742
20
-6.5531039173202128
30
0
10
35.965065657896872
20
-6.2390040471515444
30
0
10
35.981922432297694
20
-6.0322540631908446
30
0
10
35.987170792257317
20
-5.906352421388168
30
0
10
35.988312184536717
20
-5.8446124442092762
30
0
10
35.988390012196284
20
-5.8399269039399249
30
0
0
SPLINE
5
177
100
AcDbEntity
8
0
100
AcDbSpline
70
1064
71
5
72
16
73
10
74
0
42
0.000000001
43
0.0000000001
44
0.0000000001
40
0
40
0
40
0
40
0
40
0
40
0
40
0.20000000000000001
40
0.40000000000000002
40
0.60000000000000009
40
0.80000000000000004
40
1
40
1
40
1
40
1
40
1
40
1
10
11.693718715029139
20
-16.024472428739841
30
0
10
11.693718715028416
20
-16.017716242186275
30
0
10
11.693718715027209
20
-16.004203869079934
30
0
10
11.693718715026142
20
-15.983935309422961
30
0
10
11.693718715026016
20
-15.956910563217942
30
0
10
11.693718715027142
20
-15.923129630465658
30
0
10
11.693718715028192
20
-15.896104884264165
30
0
10
11.693718715028673
20
-15.875836324612003
30
0
10
11.693718715028769
20
-15.862323951509861
30
0
10
11.69371871502876
20
-15.855567764958609
30
0
0
SPLINE
5
178
100
AcDbEntity
8
0
100
AcDbSpline
70
1064
71
5
72
16
73
10
74
0
42
0.000000001
43
0.0000000001
44
0.0000000001
40
0
40
0
40
0
40
0
40
0
40
0
40
0.20000000000000001
40
0.40000000000000002
40
0.60000000000000009
40
0.80000000000000004
40
1
40
1
40
1
40
1
40
1
40
1
10
22.397500445005775
20
-10.693836615653929
30
0
10
21.949060879859161
20
-10.693836615652451
30
0
10
21.052181749566834
20
-10.693836615649928
30
0
10
19.706863054131219
20
-10.693836615647573
30
0
10
17.913104793555451
20
-10.693836615646957
30
0
10
15.670906967841557
20
-10.693836615648781
30
0
10
13.877148707273291
20
-10.693836615650977
30
0
10
12.531830011848189
20
-10.693836615652552
30
0
10
11.634950881565235
20
-10.693836615653494
30
0
10
11.186511316423871
20
-10.69383661565395
30
0
0
SPLINE
5
179
100
AcDbEntity
8
0
100
AcDbSpline
70
1064
71
5
72
12
73
6
74
0
42
0.000000001
43
0.0000000001
44
0.0000000001
40
0.99999855867227938
40
0.99999855867227938
40
0.99999855867227938
40
0.99999855867227938
40
0.99999855867227938
40
0.99999855867227938
40
1
40
1
40
1
40
1
40
1
40
1
10
11.197397574984084
20
-12.876997528344489
30
0
10
11.197397574889491
20
-12.87699666972304
30
0
10
11.197397574794898
20
-12.876995811101587
30
0
10
11.1973975747003
20
-12.876994952480135
30
0
10
11.1973975746057
20
-12.876994093858688
30
0
10
11.197397574511101
20
-12.876993235237233
30
0
0
SPLINE
5
180
100
AcDbEntity
8
0
100
AcDbSpline
70
1064
71
5
72
26
73
20
74
0
42
0.000000001
43
0.0000000001
44
0.0000000001
40
0
40
0
40
0
40
0
40
0
40
0
40
0.066666666666666666
40
0.13333333333333333
40
0.20000000000000001
40
0.26666666666666666
40
0.33333333333333331
40
0.39999999999999997
40
0.46666666666666662
40
0.53333333333333333
40
0.59999999999999998
40
0.66666666666666663
40
0.73333333333333328
40
0.79999999999999993
40
0.86666666666666659
40
0.93333333333333324
40
1
40
1
40
1
40
1
40
1
40
1
10
30.971316487578395
20
-12.76117006897444
30
0
10
30.933960185680984
20
-12.781862500518635
30
0
10
30.83486886925979
20
-12.826402644883492
30
0
10
30.613093689195956
20
-12.902683795718449
30
0
10
30.170843320720472
20
-13.018363842162097
30
0
10
29.369958602614755
20
-13.161280824369888
30
0
10
28.313450575454453
20
-13.275568533352192
30
0
10
26.988683485258278
20
-13.345618363504506
30
0
10
25.382008963705172
20
-13.371519417894863
30
0
10
23.493811719382478
20
-13.362093927699945
30
0
10
21.346274858365959
20
-13.331518567554902
30
0
10
19.007834889907418
20
-13.294141766059585
30
0
10
16.584699885882014
20
-13.261751443864283
30
0
10
14.293255881190616
20
-13.236213285528731
30
0
10
12.350197664686942
20
-13.212144351307611
30
0
10
11.298725900128376
20
-13.155370017949718
30
0
10
11.183451306509218
20
-13.067900837542044
30
0
10
11.197068033178253
20
-12.986014244060961
30
0
10
11.199879190911462
20
-12.925470040583157
30
0
10
11.19934927755696
20
-12.893729854890307
30
0
0
SPLINE
5
181
100
AcDbEntity
8
0
100
AcDbSpline
70
1064
71
5
72
18
73
12
74
0
42
0.000000001
43
0.0000000001
44
0.0000000001
40
0
40
0
40
0
40
0
40
0
40
0
40
0.10000000000000001
40
0.20000000000000001
40
0.30000000000000004
40
0.40000000000000002
40
0.5
40
0.59999999999999998
40
0.68247103904545503
40
0.68247103904545503
40
0.68247103904545503
40
0.68247103904545503
40
0.68247103904545503
40
0.68247103904545503
10
26.819406630034059
20
-5.6644043808118099
30
0
10
26.819406629961456
20
-5.6073161722963611
30
0
10
26.819406629821209
20
-5.4540036901945506
30
0
10
26.819406629625547
20
-5.1066352346534654
30
0
10
26.819406629395779
20
-4.4047398710768881
30
0
10
26.819406629169421
20
-3.1127952991688823
30
0
10
26.819406629011407
20
-1.39894904802641
30
0
10
26.819406628923332
20
0.63630777868938004
30
0
10
26.81940662889701
20
2.5070590539480495
30
0
10
26.819406628897692
20
4.0115578829990408
30
0
10
26.819406628905522
20
5.0304854992080781
30
0
10
26.819406628910485
20
5.5002661768953196
30
0
0
SPLINE
5
182
100
AcDbEntity
8
0
100
AcDbSpline
70
1064
71
5
72
14
73
8
74
0
42
0.000000001
43
0.0000000001
44
0.0000000001
40
0
40
0
40
0
40
0
40
0
40
0
40
0.20000000000000001
40
0.40000000000000002
40
0.50336996691469293
40
0.50336996691469293
40
0.50336996691469293
40
0.50336996691469293
40
0.50336996691469293
40
0.50336996691469293
10
25.117592911214452
20
-5.0951186858245805
30
0
10
25.119271275807129
20
-4.2531626249437116
30
0
10
25.122628004992528
20
-2.5692505031823587
30
0
10
25.126852196640172
20
-0.45017353063772747
30
0
10
25.131076388287919
20
1.6689034419058024
30
0
10
25.135300579935699
20
3.7879804144486071
30
0
10
25.137846406990647
20
5.065101326111682
30
0
10
25.13871386945279
20
5.5002661768953178
30
0
0
SPLINE
5
183
100
AcDbEntity
8
0
100
AcDbSpline
70
1064
71
5
72
14
73
8
74
0
42
0.000000001
43
0.0000000001
44
0.0000000001
40
0
40
0
40
0
40
0
40
0
40
0
40
0.20000000000000001
40
0.40000000000000002
40
0.50878861508106332
40
0.50878861508106332
40
0.50878861508106332
40
0.50878861508106332
40
0.50878861508106332
40
0.50878861508106332
10
11.193981850127981
20
-9.0022935248490512
30
0
10
11.193192116269877
20
-8.1064418802351952
30
0
10
11.19168664970352
20
-6.1916308995589686
30
0
10
11.189959949361317
20
-3.4431897676694323
30
0
10
11.188508384372973
20
-0.37435840645174912
30
0
10
11.187501530696624
20
2.842442487634067
30
0
10
11.187114581532587
20
4.8079591077351234
30
0
10
11.187008979380336
20
5.5002661771967274
30
0
0
ELLIPSE
5
184
100
AcDbEntity
8
0
100
AcDbEllipse
10
15.082441621640479
20
5.5145882935797887
30
0
11
-5.5988240265605229e-15
21
2.6925821812639681
31
0.0
40
0.32704402515723263
41
1.5761154529187151
42
4.7070698542608707
0
LINE
5
185
100
AcDbEntity
8
0
100
AcDbLine
10
30.471316625012722
20
-15.84716894027784
30
0
11
30.470013482431796
21
-12.933679454049521
31
0
0
LINE
5
186
100
AcDbEntity
8
0
100
AcDbLine
10
11.693718715028769
20
-15.855567764958614
30
0
11
11.69371871502522
21
-13.161202191225353
31
0
0
LINE
5
187
100
AcDbEntity
8
0
100
AcDbLine
10
11.199349277556969
20
-12.893729854890307
30
0
11
11.195773522585091
21
-12.551301920148372
31
0
0
LINE
5
188
100
AcDbEntity
8
0
100
AcDbLine
10
16.980819169123489
20
0.89840155378578257
30
0
11
16.980819169255593
21
-0.15323886572468748
31
0
0
LINE
5
189
100
AcDbEntity
8
0
100
AcDbLine
10
11.186511316423879
20
-10.693836615653955
30
0
11
11.193981850127987
21
-9.0022935248490512
31
0
0
LINE
5
190
100
AcDbEntity
8
0
100
AcDbLine
10
40.019099938888587
20
1.1591398700734157
30
0
11
37.766892340633724
21
5.5002661768953311
31
0
0
LINE
5
191
100
AcDbEntity
8
0
100
AcDbLine
10
18.678743373447642
20
-5.1213528485666329
30
0
11
18.678740233454562
21
-0.40822387039575192
31
0
0
LINE
5
192
100
AcDbEntity
8
0
100
AcDbLine
10
19.153930619694677
20
-4.1810099326741827
30
0
11
19.153930616312124
21
-1.2349566094676789
31
0
0
SPLINE
5
193
100
AcDbEntity
8
0
100
AcDbSpline
70
1064
71
5
72
30
73
24
74
0
42
0.000000001
43
0.0000000001
44
0.0000000001
40
0
40
0
40
0
40
0
40
0
40
0
40
0.050000000000000003
40
0.10000000000000001
40
0.15000000000000002
40
0.20000000000000001
40
0.25
40
0.29999999999999999
40
0.34999999999999998
40
0.39999999999999997
40
0.44999999999999996
40
0.49999999999999994
40
0.54999999999999993
40
0.59999999999999998
40
0.65000000000000002
40
0.70000000000000007
40
0.75000000000000011
40
0.80000000000000016
40
0.8500000000000002
40
0.90000000000000024
40
0.90862022191293224
40
0.90862022191293224
40
0.90862022191293224
40
0.90862022191293224
40
0.90862022191293224
40
0.90862022191293224
10
22.397500445005775
20
-10.693836615653929
30
0
10
22.461495653806711
20
-10.690579796480538
30
0
10
22.589301552398005
20
-10.681283732283227
30
0
10
22.780456799883076
20
-10.658992424853837
30
0
10
23.034219122222201
20
-10.612507572302965
30
0
10
23.349515014712306
20
-10.525944225037769
30
0
10
23.662792924621549
20
-10.410058947516907
30
0
10
23.973853830096303
20
-10.263684248526083
30
0
10
24.282428393286164
20
-10.085356622591837
30
0
10
24.587998373953454
20
-9.8735657815735411
30
0
10
24.88949246289981
20
-9.6271664789414189
30
0
10
25.184994543420295
20
-9.3458058473963881
30
0
10
25.471482293306082
20
-9.0303366386451245
30
0
10
25.744427444276884
20
-8.6834404730006849
30
0
10
25.998225445833185
20
-8.30921011881696
30
0
10
26.226845357879959
20
-7.9124741961241662
30
0
10
26.424442792574666
20
-7.4982356840017079
30
0
10
26.58595101281265
20
-7.0711340025702789
30
0
10
26.707878329357225
20
-6.6348204198010556
30
0
10
26.77518456803595
20
-6.265050075129011
30
0
10
26.805304169503508
20
-5.9812370115976936
30
0
10
26.816079790525414
20
-5.7857705897909035
30
0
10
26.819034045342018
20
-5.6799693671946105
30
0
10
26.819406630034059
20
-5.6644043808118099
30
0
0
ENDSEC
0
SECTION
2
OBJECTS
0
DICTIONARY
5
C
100
AcDbDictionary
3
ACAD_GROUP
350
D
3
ACAD_MLINESTYLE
350
17
0
DICTIONARY
5
D
100
AcDbDictionary
0
DICTIONARY
5
1A
330
C
100
AcDbDictionary
0
DICTIONARY
5
17
100
AcDbDictionary
0
ENDSEC
0
EOF
