0
SECTION
2
HEADER
9
$INSUNITS
70
4
9
$ACADVER
1
AC1014
9
$HANDSEED
5
FFFF
0
ENDSEC
0
SECTION
2
TABLES
0
TABLE
2
VPORT
5
8
100
AcDbSymbolTable
0
ENDTAB
0
TABLE
2
LTYPE
5
5
100
AcDbSymbolTable
0
LTYPE
5
14
100
AcDbSymbolTableRecord
100
AcDbLinetypeTableRecord
2
BYBLOCK
70
0
0
LTYPE
5
15
100
AcDbSymbolTableRecord
100
AcDbLinetypeTableRecord
2
BYLAYER
70
0
0
ENDTAB
0
TABLE
2
LAYER
5
2
100
AcDbSymbolTable
70
2
0
LAYER
5
50
100
AcDbSymbolTableRecord
100
AcDbLayerTableRecord
2
0
70
0
6
CONTINUOUS
0
ENDTAB
0
TABLE
2
STYLE
5
3
100
AcDbSymbolTable
70
1
0
STYLE
5
11
100
AcDbSymbolTableRecord
100
AcDbTextStyleTableRecord
2
STANDARD
70
0
0
ENDTAB
0
TABLE
2
VIEW
5
6
100
AcDbSymbolTable
70
0
0
ENDTAB
0
TABLE
2
UCS
5
7
100
AcDbSymbolTable
70
0
0
ENDTAB
0
TABLE
2
APPID
5
9
100
AcDbSymbolTable
70
2
0
APPID
5
12
100
AcDbSymbolTableRecord
100
AcDbRegAppTableRecord
2
ACAD
70
0
0
ENDTAB
0
TABLE
2
DIMSTYLE
5
A
100
AcDbSymbolTable
70
1
0
ENDTAB
0
TABLE
2
BLOCK_RECORD
5
1
100
AcDbSymbolTable
70
1
0
BLOCK_RECORD
5
1F
100
AcDbSymbolTableRecord
100
AcDbBlockTableRecord
2
*MODEL_SPACE
0
BLOCK_RECORD
5
1B
100
AcDbSymbolTableRecord
100
AcDbBlockTableRecord
2
*PAPER_SPACE
0
ENDTAB
0
ENDSEC
0
SECTION
2
BLOCKS
0
BLOCK
5
20
100
AcDbEntity
100
AcDbBlockBegin
2
*MODEL_SPACE
0
ENDBLK
5
21
100
AcDbEntity
100
AcDbBlockEnd
0
BLOCK
5
1C
100
AcDbEntity
100
AcDbBlockBegin
2
*PAPER_SPACE
0
ENDBLK
5
1D
100
AcDbEntity
100
AcDbBlockEnd
0
ENDSEC
0
SECTION
2
ENTITIES
0
SPLINE
5
100
100
AcDbEntity
8
0
100
AcDbSpline
70
1064
71
5
72
16
73
10
74
0
42
0.000000001
43
0.0000000001
44
0.0000000001
40
0
40
0
40
0
40
0
40
0
40
0
40
0.20000000000000001
40
0.40000000000000002
40
0.60000000000000009
40
0.80000000000000004
40
1
40
1
40
1
40
1
40
1
40
1
10
11.093981850127957
20
20.002825878639658
30
0
10
11.526953915353433
20
19.999234702756517
30
0
10
12.392898045804548
20
19.992052350990519
30
0
10
13.691814241481779
20
19.981278823342414
30
0
10
15.423702502385733
20
19.966914119813065
30
0
10
17.588562828516693
20
19.948958240402884
30
0
10
19.320451089421645
20
19.93459353687517
30
0
10
20.619367285100253
20
19.92382000922937
30
0
10
21.485311415552559
20
19.916637657465447
30
0
10
21.91828348077868
20
19.913046481583471
30
0
0
SPLINE
5
101
100
AcDbEntity
8
0
100
AcDbSpline
70
1064
71
5
72
31
73
25
74
0
42
0.000000001
43
0.0000000001
44
0.0000000001
40
0
40
0
40
0
40
0
40
0
40
0
40
0.050000000000000003
40
0.10000000000000001
40
0.15000000000000002
40
0.20000000000000001
40
0.25
40
0.29999999999999999
40
0.34999999999999998
40
0.39999999999999997
40
0.44999999999999996
40
0.49999999999999994
40
0.54999999999999993
40
0.59999999999999998
40
0.65000000000000002
40
0.70000000000000007
40
0.75000000000000011
40
0.80000000000000016
40
0.8500000000000002
40
0.90000000000000024
40
0.95000000000000029
40
1
40
1
40
1
40
1
40
1
40
1
10
21.91828348077868
20
19.913046481583471
30
0
10
21.960717419861624
20
19.914437595963619
30
0
10
22.04652009185455
20
19.9141928279703
30
0
10
22.178028589627814
20
19.904744634139689
30
0
10
22.359004191827999
20
19.873911295881996
30
0
10
22.594420410695555
20
19.804698427583077
30
0
10
22.838210921258213
20
19.704755448345804
30
0
10
23.088566185462952
20
19.57455079271881
30
0
10
23.342196695298707
20
19.415492450959611
30
0
10
23.594186481266114
20
19.23015109731783
30
0
10
23.838815921033198
20
19.021926094225922
30
0
10
24.070182077068214
20
18.794850494206447
30
0
10
24.282918408071566
20
18.553383584947895
30
0
10
24.472846505902126
20
18.302228115449452
30
0
10
24.637809309020259
20
18.046189489417049
30
0
10
24.777282670261265
20
17.789747257885843
30
0
10
24.891837327924801
20
17.536600030858047
30
0
10
24.982690553278324
20
17.289170190264986
30
0
10
25.051283129078477
20
17.048195265866358
30
0
10
25.098822967294797
20
16.812016595268691
30
0
10
25.126179339822656
20
16.577266278412001
30
0
10
25.132382858070027
20
16.38755451953504
30
0
10
25.128353947572361
20
16.242751391362418
30
0
10
25.121821083514575
20
16.144903294320233
30
0
10
25.117592911214434
20
16.095651039615216
30
0
0
SPLINE
5
102
100
AcDbEntity
8
0
100
AcDbSpline
70
1064
71
5
72
31
73
25
74
0
42
0.000000001
43
0.0000000001
44
0.0000000001
40
0
40
0
40
0
40
0
40
0
40
0
40
0.050000000000000003
40
0.10000000000000001
40
0.15000000000000002
40
0.20000000000000001
40
0.25
40
0.29999999999999999
40
0.34999999999999998
40
0.39999999999999997
40
0.44999999999999996
40
0.49999999999999994
40
0.54999999999999993
40
0.59999999999999998
40
0.65000000000000002
40
0.70000000000000007
40
0.75000000000000011
40
0.80000000000000016
40
0.8500000000000002
40
0.90000000000000024
40
0.95000000000000029
40
1
40
1
40
1
40
1
40
1
40
1
10
22.397500409621514
20
21.694378449489552
30
0
10
22.459644619294199
20
21.688599109624484
30
0
10
22.583597581029199
20
21.675094444958564
30
0
10
22.768520559967019
20
21.648999753042524
30
0
10
23.013064177299782
20
21.602481564374393
30
0
10
23.315382442001869
20
21.524127067157796
30
0
10
23.614457661092949
20
21.424017403054862
30
0
10
23.910568391403501
20
21.29949840557078
30
0
10
24.204306272724988
20
21.146323483290395
30
0
10
24.496407193660026
20
20.959046034318781
30
0
10
24.787120613480663
20
20.732681147174418
30
0
10
25.075641788116812
20
20.464199699480456
30
0
10
25.359596998868817
20
20.1539445710915
30
0
10
25.634262598533937
20
19.807689220810076
30
0
10
25.892640542281953
20
19.436759548442566
30
0
10
26.126996402831896
20
19.054836443308293
30
0
10
26.330024497929688
20
18.675654654174146
30
0
10
26.496259223288618
20
18.310247937836298
30
0
10
26.623274629818916
20
17.964638294274355
30
0
10
26.713486035744527
20
17.636516985217646
30
0
10
26.772615916921801
20
17.317701087271725
30
0
10
26.800422579549128
20
17.061916752136245
30
0
10
26.812878545899391
20
16.86563764620454
30
0
10
26.817795131413046
20
16.732258217818146
30
0
10
26.819406630034042
20
16.664936734602449
30
0
0
LINE
5
103
100
AcDbEntity
8
0
100
AcDbLine
10
40.01909993888858
20
9.8413924837172502
30
0
11
33.210474093506988
21
9.8413924837172502
31
0
0
LINE
5
104
100
AcDbEntity
8
0
100
AcDbLine
10
33.210474093506988
20
9.8413924837172502
30
0
11
29.975262092985709
21
5.5002661768953232
31
0
0
LINE
5
105
100
AcDbEntity
8
0
100
AcDbLine
10
40.019099938888587
20
5.5002661768953329
30
0
11
40.01909993888858
21
9.8413924837172502
31
0
0
SPLINE
5
106
100
AcDbEntity
8
0
100
AcDbSpline
70
1064
71
5
72
16
73
10
74
0
42
0.000000001
43
0.0000000001
44
0.0000000001
40
0
40
0
40
0
40
0
40
0
40
0
40
0.20000000000000001
40
0.40000000000000002
40
0.60000000000000009
40
0.80000000000000004
40
0.99641917180120143
40
0.99641917180120143
40
0.99641917180120143
40
0.99641917180120143
40
0.99641917180120143
40
0.99641917180120143
10
35.981688549531611
20
16.606540655970573
30
0
10
35.981155621686327
20
16.334962253476206
30
0
10
35.980089765996752
20
15.791805448488285
30
0
10
35.978490982465587
20
14.977070241008922
30
0
10
35.976359271093287
20
13.890756631039787
30
0
10
35.973704173495626
20
12.537726996591109
30
0
10
35.971582003740771
20
11.45627576463542
30
0
10
35.969992761828692
20
10.646402935171571
30
0
10
35.968936447759063
20
10.10810850819894
30
0
10
35.968413061531884
20
9.8413924837172466
30
0
0
SPLINE
5
107
100
AcDbEntity
8
0
100
AcDbSpline
70
1064
71
5
72
26
73
20
74
0
42
0.000000001
43
0.0000000001
44
0.0000000001
40
0
40
0
40
0
40
0
40
0
40
0
40
0.066666666666666666
40
0.13333333333333333
40
0.20000000000000001
40
0.26666666666666666
40
0.33333333333333331
40
0.39999999999999997
40
0.46666666666666662
40
0.53333333333333333
40
0.59999999999999998
40
0.66666666666666663
40
0.73333333333333328
40
0.79999999999999993
40
0.86666666666666659
40
0.93333333333333324
40
1
40
1
40
1
40
1
40
1
40
1
10
30.470001447247341
20
26.850001275306568
30
0
10
30.45403016863343
20
26.89355042502627
30
0
10
30.419862568229924
20
26.982795202001199
30
0
10
30.361936059234811
20
27.123102093067807
30
0
10
30.271253282343768
20
27.323148514324874
30
0
10
30.134761353867816
20
27.594850008052155
30
0
10
29.973973966458495
20
27.887222209004278
30
0
10
29.787394540569387
20
28.197578246855308
30
0
10
29.573353406309014
20
28.520339046077254
30
0
10
29.330110612477828
20
28.84768204661928
30
0
10
29.055961368541432
20
29.170834256741593
30
0
10
28.749461385691081
20
29.48115536685464
30
0
10
28.409656182794855
20
29.77118237073703
30
0
10
28.036580657935026
20
30.036068624810881
30
0
10
27.631086780962537
20
30.273478772826788
30
0
10
27.194312765408334
20
30.482602216555676
30
0
10
26.820765435817503
20
30.627378791584917
30
0
10
26.527399866632059
20
30.723499672088952
30
0
10
26.325996566113457
20
30.782082263915655
30
0
10
26.223838333979966
20
30.809999032158565
30
0
0
SPLINE
5
108
100
AcDbEntity
8
0
100
AcDbSpline
70
1064
71
5
72
16
73
10
74
0
42
0.000000001
43
0.0000000001
44
0.0000000001
40
0
40
0
40
0
40
0
40
0
40
0
40
0.20000000000000001
40
0.40000000000000002
40
0.60000000000000009
40
0.80000000000000004
40
1
40
1
40
1
40
1
40
1
40
1
10
26.223838333979966
20
30.809999032158565
30
0
10
25.808382140454821
20
30.809999032152774
30
0
10
24.977469753405455
20
30.809999032142716
30
0
10
23.731101172834283
20
30.809999032132506
30
0
10
22.069276398744467
20
30.809999032127557
30
0
10
19.991995431138207
20
30.809999032131479
30
0
10
18.330170657056406
20
30.809999032139874
30
0
10
17.083802076496486
20
30.80999903214839
30
0
10
16.252889689457138
20
30.809999032154977
30
0
10
15.837433495937619
20
30.809999032158505
30
0
0
SPLINE
5
109
100
AcDbEntity
8
0
100
AcDbSpline
70
1064
71
5
72
26
73
20
74
0
42
0.000000001
43
0.0000000001
44
0.0000000001
40
0
40
0
40
0
40
0
40
0
40
0
40
0.066666666666666666
40
0.13333333333333333
40
0.20000000000000001
40
0.26666666666666666
40
0.33333333333333331
40
0.39999999999999997
40
0.46666666666666662
40
0.53333333333333333
40
0.59999999999999998
40
0.66666666666666663
40
0.73333333333333328
40
0.79999999999999993
40
0.86666666666666659
40
0.93333333333333324
40
1
40
1
40
1
40
1
40
1
40
1
10
15.837433495937619
20
30.809999032158505
30
0
10
15.780364314537946
20
30.808772024243311
30
0
10
15.664951107274254
20
30.801772818544883
30
0
10
15.488006557850738
20
30.77763817547828
30
0
10
15.244377160996654
20
30.717991016979759
30
0
10
14.9270962329119
20
30.596865205718995
30
0
10
14.597986414430933
20
30.428960920835756
30
0
10
14.25931706029518
20
30.215481071862765
30
0
10
13.915549546201687
20
29.960402871957452
30
0
10
13.573443448777256
20
29.670787203314937
30
0
10
13.240881884224326
20
29.355213110959269
30
0
10
12.926028122680025
20
29.022801422316927
30
0
10
12.636331309525223
20
28.682118249394772
30
0
10
12.377548571542489
20
28.340206455477158
30
0
10
12.152585944283755
20
28.001523566800003
30
0
10
11.962398831169427
20
27.668547329235665
30
0
10
11.83794087690738
20
27.407608754216991
30
0
10
11.759915757119561
20
27.215080643517947
30
0
10
11.714657908223563
20
27.088129855472737
30
0
10
11.6937187150291
20
27.025004782530448
30
0
0
SPLINE
5
110
100
AcDbEntity
8
0
100
AcDbSpline
70
1064
71
5
72
16
73
10
74
0
42
0.000000001
43
0.0000000001
44
0.0000000001
40
0
40
0
40
0
40
0
40
0
40
0
40
0.20000000000000001
40
0.40000000000000002
40
0.60000000000000009
40
0.80000000000000004
40
1
40
1
40
1
40
1
40
1
40
1
10
35.988390012188532
20
16.840459258195914
30
0
10
36.039938058058112
20
16.840459258194421
30
0
10
36.143034149798474
20
16.840459258191782
30
0
10
36.297678287412872
20
16.840459258188961
30
0
10
36.503870470905568
20
16.840459258187213
30
0
10
36.7616107002791
20
16.840459258187686
30
0
10
36.967802883781488
20
16.840459258189831
30
0
10
37.122447021409535
20
16.840459258192464
30
0
10
37.22554311316204
20
16.840459258194688
30
0
10
37.277091159038427
20
16.840459258195914
30
0
0
SPLINE
5
111
100
AcDbEntity
8
0
100
AcDbSpline
70
1064
71
5
72
26
73
20
74
0
42
0.000000001
43
0.0000000001
44
0.0000000001
40
0
40
0
40
0
40
0
40
0
40
0
40
0.066666666666666666
40
0.13333333333333333
40
0.20000000000000001
40
0.26666666666666666
40
0.33333333333333331
40
0.39999999999999997
40
0.46666666666666662
40
0.53333333333333333
40
0.59999999999999998
40
0.66666666666666663
40
0.73333333333333328
40
0.79999999999999993
40
0.86666666666666659
40
0.93333333333333324
40
1
40
1
40
1
40
1
40
1
40
1
10
37.277091159038427
20
16.840459258195914
30
0
10
37.295408646262132
20
16.835401370083314
30
0
10
37.332214120684355
20
16.824511835836176
30
0
10
37.387933856488544
20
16.805856257206095
30
0
10
37.463257117206169
20
16.776305880154261
30
0
10
37.559099439353318
20
16.731358379951978
30
0
10
37.656459104382314
20
16.678111741667085
30
0
10
37.754933697244716
20
16.616270340532214
30
0
10
37.853761979229795
20
16.545639250289433
30
0
10
37.951772391989955
20
16.466199240562318
30
0
10
38.047592957811027
20
16.378027779406231
30
0
10
38.139818681309386
20
16.281276198749101
30
0
10
38.227187818684676
20
16.176153260305771
30
0
10
38.308795908417871
20
16.062947879079978
30
0
10
38.384233213178661
20
15.942037606255809
30
0
10
38.453385237892249
20
15.813795188838709
30
0
10
38.503727214479298
20
15.705585859748918
30
0
10
38.538733142260305
20
15.621363415810603
30
0
10
38.560856876566376
20
15.563862586718749
30
0
10
38.57161535049422
20
15.534774035601099
30
0
0
SPLINE
5
112
100
AcDbEntity
8
0
100
AcDbSpline
70
1064
71
5
72
16
73
10
74
0
42
0.000000001
43
0.0000000001
44
0.0000000001
40
0
40
0
40
0
40
0
40
0
40
0
40
0.20000000000000001
40
0.40000000000000002
40
0.60000000000000009
40
0.80000000000000004
40
1
40
1
40
1
40
1
40
1
40
1
10
38.57161535049422
20
15.534774035601099
30
0
10
38.571615350488528
20
15.307038773524715
30
0
10
38.571615350478567
20
14.851568249372242
30
0
10
38.571615350468107
20
14.16836246314449
30
0
10
38.571615350462174
20
13.257421414842472
30
0
10
38.571615350464867
20
12.118745104466736
30
0
10
38.571615350473117
20
11.207804056166822
30
0
10
38.571615350482482
20
10.52459826994202
30
0
10
38.571615350490077
20
10.069127745792168
30
0
10
38.57161535049422
20
9.8413924837172502
30
0
0
LINE
5
113
100
AcDbEntity
8
0
100
AcDbLine
10
19.153930619694655
20
15.181542286464804
30
0
11
19.15393061631211
21
12.235488963258302
31
0
0
LINE
5
114
100
AcDbEntity
8
0
100
AcDbLine
10
18.67874337344762
20
16.121885202357255
30
0
11
18.678740233454548
21
11.408756224186373
31
0
0
LINE
5
115
100
AcDbEntity
8
0
100
AcDbLine
10
18.28954022443466
20
16.652361745000757
30
0
11
18.28954018304297
21
10.948853956500438
31
0
0
LINE
5
116
100
AcDbEntity
8
0
100
AcDbLine
10
17.886861446479308
20
10.610190595125379
30
0
11
17.886861446489632
21
16.99588875316579
31
0
0
LINE
5
117
100
AcDbEntity
8
0
100
AcDbLine
10
16.980819169123478
20
10.102130800004836
30
0
11
16.980819169255575
21
11.153771219515304
31
0
0
LINE
5
118
100
AcDbEntity
8
0
100
AcDbLine
10
16.980819170511005
20
16.1278698186821
30
0
11
16.980819169385025
21
17.424957634214678
31
0
0
LINE
5
119
100
AcDbEntity
8
0
100
AcDbLine
10
17.377419804691399
20
17.275995968330989
30
0
11
17.377419796112658
21
14.936360157774885
31
0
0
LINE
5
120
100
AcDbEntity
8
0
100
AcDbLine
10
17.377419822061452
20
12.185023693889843
30
0
11
17.377419822123997
21
10.291958808321871
31
0
0
SPLINE
5
121
100
AcDbEntity
8
0
100
AcDbSpline
70
1064
71
5
72
21
73
15
74
0
42
0.000000001
43
0.0000000001
44
0.0000000001
40
1.500920637377984
40
1.500920637377984
40
1.500920637377984
40
1.500920637377984
40
1.500920637377984
40
1.500920637377984
40
1.5142857142857142
40
1.5285714285714285
40
1.5428571428571427
40
1.5571428571428569
40
1.5714285714285712
40
1.5857142857142854
40
1.5999999999999996
40
1.6142857142857139
40
1.6285714285714281
40
1.6390265800768322
40
1.6390265800768322
40
1.6390265800768322
40
1.6390265800768322
40
1.6390265800768322
40
1.6390265800768322
10
16.980819169123478
20
10.102130800004836
30
0
10
16.93507678264449
20
10.083606912573792
30
0
10
16.843366105839333
20
10.048971563618103
30
0
10
16.715778937162714
20
10.009425554995241
30
0
10
16.577772435304151
20
9.9885442259320438
30
0
10
16.478659835773886
20
10.026044735787675
30
0
10
16.459498266277656
20
10.128880373596354
30
0
10
16.506921430447591
20
10.281062036310862
30
0
10
16.596796512108341
20
10.461159995026996
30
0
10
16.703497498227613
20
10.648687486123936
30
0
10
16.804822606444546
20
10.823511243182825
30
0
10
16.880676447701273
20
10.959730293041556
30
0
10
16.933918634694415
20
11.060684890382049
30
0
10
16.966963738718025
20
11.125924814894839
30
0
10
16.980819169255579
20
11.15377121951531
30
0
0
SPLINE
5
122
100
AcDbEntity
8
0
100
AcDbSpline
70
1064
71
5
72
14
73
8
74
0
42
0.000000001
43
0.0000000001
44
0.0000000001
40
1.4500027635012835
40
1.4500027635012835
40
1.4500027635012835
40
1.4500027635012835
40
1.4500027635012835
40
1.4500027635012835
40
1.4571428571428573
40
1.4714285714285715
40
1.4790585646704613
40
1.4790585646704613
40
1.4790585646704613
40
1.4790585646704613
40
1.4790585646704613
40
1.4790585646704613
10
17.886861446479308
20
10.610190595125379
30
0
10
17.863839263372121
20
10.59356350918134
30
0
10
17.793888997773944
20
10.54398290558013
30
0
10
17.695537131162013
20
10.478013089946268
30
0
10
17.592735311838133
20
10.413824342079643
30
0
10
17.486610711751844
20
10.35198572995222
30
0
10
17.405663219202381
20
10.307266100266926
30
0
10
17.377419822123997
20
10.291958808321871
30
0
0
SPLINE
5
123
100
AcDbEntity
8
0
100
AcDbSpline
70
1064
71
5
72
14
73
8
74
0
42
0.000000001
43
0.0000000001
44
0.0000000001
40
1.3904896031129605
40
1.3904896031129605
40
1.3904896031129605
40
1.3904896031129605
40
1.3904896031129605
40
1.3904896031129605
40
1.4000000000000001
40
1.4142857142857144
40
1.4224457028174422
40
1.4224457028174422
40
1.4224457028174422
40
1.4224457028174422
40
1.4224457028174422
40
1.4224457028174422
10
18.678740233454548
20
11.408756224186373
30
0
10
18.657097630722181
20
11.378526508165404
30
0
10
18.602501178122893
20
11.304023756647863
30
0
10
18.527641865515829
20
11.207779358199987
30
0
10
18.450397574393978
20
11.116489686866968
30
0
10
18.369789498534352
20
11.029472387431809
30
0
10
18.311144751838672
20
10.970180675383245
30
0
10
18.289540183042973
20
10.948853956500438
30
0
0
SPLINE
5
124
100
AcDbEntity
8
0
100
AcDbSpline
70
1064
71
5
72
22
73
16
74
0
42
0.000000001
43
0.0000000001
44
0.0000000001
40
1.2032631594958216
40
1.2032631594958216
40
1.2032631594958216
40
1.2032631594958216
40
1.2032631594958216
40
1.2032631594958216
40
1.2142857142857144
40
1.2285714285714286
40
1.2428571428571429
40
1.2571428571428571
40
1.2714285714285714
40
1.2857142857142858
40
1.3
40
1.3142857142857143
40
1.3285714285714287
40
1.342857142857143
40
1.3445719605417805
40
1.3445719605417805
40
1.3445719605417805
40
1.3445719605417805
40
1.3445719605417805
40
1.3445719605417805
10
19.153930619694655
20
15.181542286464804
30
0
10
19.172731595456721
20
15.136489072417421
30
0
10
19.215013841309883
20
15.032466746464724
30
0
10
19.277635634771599
20
14.86793484392307
30
0
10
19.353591192822627
20
14.641563603010102
30
0
10
19.429248814674416
20
14.353753609763956
30
0
10
19.481691547871453
20
14.052234080951699
30
0
10
19.504477481246536
20
13.751288262975203
30
0
10
19.496152602631078
20
13.450857037811819
30
0
10
19.45668301748448
20
13.150920785820572
30
0
10
19.38750353043033
20
12.852074338514047
30
0
10
19.308475652191838
20
12.60823383633574
30
0
10
19.237821876501183
20
12.426739845465642
30
0
10
19.185633199389095
20
12.305573665326758
30
0
10
19.157010153885352
20
12.242265619791549
30
0
10
19.15393061631211
20
12.235488963258302
30
0
0
SPLINE
5
125
100
AcDbEntity
8
0
100
AcDbSpline
70
1064
71
5
72
14
73
8
74
0
42
0.000000001
43
0.0000000001
44
0.0000000001
40
1.1170576056889105
40
1.1170576056889105
40
1.1170576056889105
40
1.1170576056889105
40
1.1170576056889105
40
1.1170576056889105
40
1.1285714285714286
40
1.1428571428571428
40
1.1531565093557963
40
1.1531565093557963
40
1.1531565093557963
40
1.1531565093557963
40
1.1531565093557963
40
1.1531565093557963
10
18.28954022443466
20
16.652361745000757
30
0
10
18.317310258729108
20
16.622492298266199
30
0
10
18.377964116459403
20
16.554310201868645
30
0
10
18.458434027423884
20
16.45478871263839
30
0
10
18.534526984431807
20
16.348884958086391
30
0
10
18.608417770096924
20
16.236028773549407
30
0
10
18.658054292219063
20
16.15597490362217
30
0
10
18.67874337344762
20
16.121885202357259
30
0
0
SPLINE
5
126
100
AcDbEntity
8
0
100
AcDbSpline
70
1064
71
5
72
14
73
8
74
0
42
0.000000001
43
0.0000000001
44
0.0000000001
40
1.0597011225336952
40
1.0597011225336952
40
1.0597011225336952
40
1.0597011225336952
40
1.0597011225336952
40
1.0597011225336952
40
1.0714285714285714
40
1.0857142857142856
40
1.0881529500062006
40
1.0881529500062006
40
1.0881529500062006
40
1.0881529500062006
40
1.0881529500062006
40
1.0881529500062006
10
17.377419804691399
20
17.275995968330989
30
0
10
17.422458723552541
20
17.255908138460384
30
0
10
17.521884161509252
20
17.209601164555394
30
0
10
17.628271396143621
20
17.155205086877487
30
0
10
17.729662976871527
20
17.097715608570653
30
0
10
17.825078382611899
20
17.037509952488456
30
0
10
17.879038583744535
20
17.001202409685007
30
0
10
17.886861446489632
20
16.99588875316579
30
0
0
SPLINE
5
127
100
AcDbEntity
8
0
100
AcDbSpline
70
1064
71
5
72
20
73
14
74
0
42
0.000000001
43
0.0000000001
44
0.0000000001
40
0.70253957705417602
40
0.70253957705417602
40
0.70253957705417602
40
0.70253957705417602
40
0.70253957705417602
40
0.70253957705417602
40
0.71428571428571364
40
0.72857142857142787
40
0.74285714285714211
40
0.75714285714285634
40
0.77142857142857058
40
0.78571428571428481
40
0.79999999999999905
40
0.81428571428571328
40
0.8199976346246266
40
0.8199976346246266
40
0.8199976346246266
40
0.8199976346246266
40
0.8199976346246266
40
0.8199976346246266
10
17.377419822061452
20
12.185023693889843
30
0
10
17.390517233620439
20
12.231172091492237
30
0
10
17.41885575709281
20
12.334980357622797
30
0
10
17.460055101807047
20
12.500805357712956
30
0
10
17.508602347046153
20
12.734844637470598
30
0
10
17.553225080690801
20
13.043139332676784
30
0
10
17.577411403584197
20
13.374418118983989
30
0
10
17.576755637934518
20
13.716032920697375
30
0
10
17.549839539499146
20
14.066991772009828
30
0
10
17.503131394593986
20
14.38284702666262
30
0
10
17.452915770611735
20
14.630095364269245
30
0
10
17.41124714629504
20
14.805196914077765
30
0
10
17.385045819031593
20
14.907250929430823
30
0
10
17.377412859376467
20
14.936386636125407
30
0
0
SPLINE
5
128
100
AcDbEntity
8
0
100
AcDbSpline
70
1064
71
5
72
28
73
22
74
0
42
0.000000001
43
0.0000000001
44
0.0000000001
40
0.86967561470692833
40
0.86967561470692833
40
0.86967561470692833
40
0.86967561470692833
40
0.86967561470692833
40
0.86967561470692833
40
0.87142857142857022
40
0.88571428571428445
40
0.89999999999999869
40
0.91428571428571292
40
0.92857142857142716
40
0.94285714285714139
40
0.95714285714285563
40
0.97142857142856986
40
0.9857142857142841
40
1
40
1
40
1
40
1
40
1
40
1.0142857142857142
40
1.0285714285714285
40
1.0386558045893017
40
1.0386558045893017
40
1.0386558045893017
40
1.0386558045893017
40
1.0386558045893017
40
1.0386558045893017
10
16.980819170511005
20
16.1278698186821
30
0
10
16.977956870766967
20
16.135201100779348
30
0
10
16.95182382101525
20
16.202013590877822
30
0
10
16.903412257247719
20
16.323700994715725
30
0
10
16.83590825665091
20
16.48856784141368
30
0
10
16.756977088648025
20
16.674992123957068
30
0
10
16.680121893938264
20
16.850428471743413
30
0
10
16.620578377145893
20
16.981334561560558
30
0
10
16.569708587862934
20
17.085892969332956
30
0
10
16.520009788396855
20
17.184490343064297
30
0
10
16.472985084817751
20
17.289675199469542
30
0
10
16.455355082741889
20
17.372024337910489
30
0
10
16.468124330688859
20
17.42238520281785
30
0
10
16.491293822981671
20
17.448065523830888
30
0
10
16.506711669942206
20
17.458704769147708
30
0
10
16.522129516902734
20
17.469344014464525
30
0
10
16.560631412452068
20
17.486220674718783
30
0
10
16.634380945672103
20
17.495911780306482
30
0
10
16.736697618622816
20
17.486332415752539
30
0
10
16.860642603073142
20
17.459057081517003
30
0
10
16.945013411326716
20
17.435645665585845
30
0
10
16.980819169385025
20
17.424957634214678
30
0
0
ARC
5
129
100
AcDbEntity
8
0
100
AcDbCircle
10
21.024148009206868
20
46.313275070362394
30
0
40
16.34245466920672
100
AcDbArc
50
251.5590901302771
51
288.44090986972287
0
LINE
5
130
100
AcDbEntity
8
0
100
AcDbLine
10
40.01909993888858
20
9.8413924837172502
30
0
11
37.766892340633724
21
5.5002661768953311
31
0
0
SPLINE
5
131
100
AcDbEntity
8
0
100
AcDbSpline
70
1064
71
5
72
12
73
6
74
0
42
0.000000001
43
0.0000000001
44
0.0000000001
40
0.96330130266508329
40
0.96330130266508329
40
0.96330130266508329
40
0.96330130266508329
40
0.96330130266508329
40
0.96330130266508329
40
1
40
1
40
1
40
1
40
1
40
1
10
35.988390012196376
20
16.840459257723488
30
0
10
35.989255177863598
20
16.788372781053123
30
0
10
35.98898439432763
20
16.738947093116398
30
0
10
35.987620151929313
20
16.692171832195978
30
0
10
35.985188189260107
20
16.648036384179882
30
0
10
35.981688549531611
20
16.606540655970573
30
0
0
SPLINE
5
132
100
AcDbEntity
8
0
100
AcDbSpline
70
1064
71
5
72
31
73
25
74
0
42
0.000000001
43
0.0000000001
44
0.0000000001
40
0
40
0
40
0
40
0
40
0
40
0
40
0.050000000000000003
40
0.10000000000000001
40
0.15000000000000002
40
0.20000000000000001
40
0.25
40
0.29999999999999999
40
0.34999999999999998
40
0.39999999999999997
40
0.44999999999999996
40
0.49999999999999994
40
0.54999999999999993
40
0.59999999999999998
40
0.65000000000000002
40
0.70000000000000007
40
0.75000000000000011
40
0.80000000000000016
40
0.8500000000000002
40
0.90000000000000024
40
0.95000000000000029
40
1
40
1
40
1
40
1
40
1
40
1
10
30.929097426520407
20
23.79299286668012
30
0
10
30.991416369446881
20
23.769686871349336
30
0
10
31.114842077613819
20
23.721709949060781
30
0
10
31.296345137666016
20
23.645650362000374
30
0
10
31.533015526273161
20
23.536015343081292
30
0
10
31.830400395113507
20
23.384128149824921
30
0
10
32.141114929967699
20
23.214169810227251
30
0
10
32.474486353841698
20
23.020052686802956
30
0
10
32.832514187335612
20
22.791378229555331
30
0
10
33.210367001434044
20
22.515417028278179
30
0
10
33.598793472762409
20
22.180285361533628
30
0
10
33.985841355805533
20
21.777934437813904
30
0
10
34.358716449693965
20
21.306981122776435
30
0
10
34.705745485470857
20
20.77662115301252
30
0
10
35.017674722204013
20
20.207482346646639
30
0
10
35.287545132874271
20
19.626145384825737
30
0
10
35.510931400396309
20
19.061213011857433
30
0
10
35.686145571818507
20
18.538735616350689
30
0
10
35.814495144038972
20
18.078109041922726
30
0
10
35.900758033604106
20
17.687097390280734
30
0
10
35.953270565474618
20
17.358590483950476
30
0
10
35.975574895255875
20
17.134681256719123
30
0
10
35.984592171680958
20
16.982326492485498
30
0
10
35.987621120618222
20
16.886749644358918
30
0
10
35.988390012196263
20
16.840459257730586
30
0
0
SPLINE
5
133
100
AcDbEntity
8
0
100
AcDbSpline
70
1064
71
5
72
16
73
10
74
0
42
0.000000001
43
0.0000000001
44
0.0000000001
40
0
40
0
40
0
40
0
40
0
40
0
40
0.20000000000000001
40
0.40000000000000002
40
0.60000000000000009
40
0.80000000000000004
40
1
40
1
40
1
40
1
40
1
40
1
10
11.6937187150291
20
27.025004782530448
30
0
10
11.693706107419912
20
27.019577874809183
30
0
10
11.693681415081818
20
27.008724058781148
30
0
10
11.693645944556055
20
26.992443332983282
30
0
10
11.693602004408145
20
26.970735694829926
30
0
10
11.693555403703005
20
26.94360113781093
30
0
10
11.693528979022821
20
26.921893480028835
30
0
10
11.693518334171529
20
26.905612726409846
30
0
10
11.6935159672295
20
26.894758885362464
30
0
10
11.693515967229493
20
26.889331963512223
30
0
0
SPLINE
5
134
100
AcDbEntity
8
0
100
AcDbSpline
70
1064
71
5
72
16
73
10
74
0
42
0.000000001
43
0.0000000001
44
0.0000000001
40
0
40
0
40
0
40
0
40
0
40
0
40
0.20000000000000001
40
0.40000000000000002
40
0.60000000000000009
40
0.80000000000000004
40
1
40
1
40
1
40
1
40
1
40
1
10
22.397500409621514
20
21.694378449489552
30
0
10
21.945060844476107
20
21.694378390765323
30
0
10
21.040181714185881
20
21.694378273317309
30
0
10
19.682863018752418
20
21.694378097146728
30
0
10
17.873104758177714
20
21.69437786225517
30
0
10
15.610906932463003
20
21.694377568643798
30
0
10
13.801148671892969
20
21.694377333756449
30
0
10
12.443829976466112
20
21.694377157591799
30
0
10
11.538950846181802
20
21.69437704014905
30
0
10
11.086511281039709
20
21.694376981427766
30
0
0
LINE
5
135
100
AcDbEntity
8
0
100
AcDbLine
10
11.086511281039709
20
21.694376981427766
30
0
11
11.093981850127957
21
20.002825878639658
31
0
0
SPLINE
5
136
100
AcDbEntity
8
0
100
AcDbSpline
70
1064
71
5
72
12
73
6
74
0
42
0.000000001
43
0.0000000001
44
0.0000000001
40
0.99999855867227938
40
0.99999855867227938
40
0.99999855867227938
40
0.99999855867227938
40
0.99999855867227938
40
0.99999855867227938
40
1
40
1
40
1
40
1
40
1
40
1
10
11.197397574984054
20
23.877529882135097
30
0
10
11.197397574889461
20
23.877529023513645
30
0
10
11.197397574794866
20
23.87752816489219
30
0
10
11.19739757470027
20
23.877527306270743
30
0
10
11.19739757460567
20
23.877526447649295
30
0
10
11.19739757451107
20
23.87752558902784
30
0
0
LINE
5
137
100
AcDbEntity
8
0
100
AcDbLine
10
30.470001447247341
20
26.850001275306568
30
0
11
11.693515967229493
21
26.889331963512223
31
0
0
SPLINE
5
138
100
AcDbEntity
8
0
100
AcDbSpline
70
1064
71
5
72
26
73
20
74
0
42
0.000000001
43
0.0000000001
44
0.0000000001
40
0
40
0
40
0
40
0
40
0
40
0
40
0.066666666666666666
40
0.13333333333333333
40
0.20000000000000001
40
0.26666666666666666
40
0.33333333333333331
40
0.39999999999999997
40
0.46666666666666662
40
0.53333333333333333
40
0.59999999999999998
40
0.66666666666666663
40
0.73333333333333328
40
0.79999999999999993
40
0.86666666666666659
40
0.93333333333333324
40
1
40
1
40
1
40
1
40
1
40
1
10
30.929097426520407
20
23.79299286668012
30
0
10
30.891715528270019
20
23.81349692292336
30
0
10
30.792473142314453
20
23.857572794255795
30
0
10
30.570170981021541
20
23.932894984574453
30
0
10
30.127163793875027
20
24.046727206688104
30
0
10
29.327767898004062
20
24.186166748822544
30
0
10
28.277518971061802
20
24.295588887122697
30
0
10
26.964174330750161
20
24.359280672876835
30
0
10
25.372007788268384
20
24.377491631248859
30
0
10
23.498155084518871
20
24.359372585994628
30
0
10
21.361077886472096
20
24.319554660338611
30
0
10
19.026168968491891
20
24.272897966252678
30
0
10
16.597717189204996
20
24.231736794004721
30
0
10
14.293342740639819
20
24.198407812524785
30
0
10
12.33275363071087
20
24.168009269443989
30
0
10
11.270212597825269
20
24.106509644176906
30
0
10
11.166736843806365
20
24.016404103545526
30
0
10
11.187279430206317
20
23.934277955339553
30
0
10
11.191859573003205
20
23.874503948560161
30
0
10
11.191469360698594
20
23.84338315286481
30
0
0
SPLINE
5
139
100
AcDbEntity
8
0
100
AcDbSpline
70
1064
71
5
72
18
73
12
74
0
42
0.000000001
43
0.0000000001
44
0.0000000001
40
0
40
0
40
0
40
0
40
0
40
0
40
0.10000000000000001
40
0.20000000000000001
40
0.30000000000000004
40
0.40000000000000002
40
0.5
40
0.59999999999999998
40
0.68247103904545503
40
0.68247103904545503
40
0.68247103904545503
40
0.68247103904545503
40
0.68247103904545503
40
0.68247103904545503
10
26.819406630034042
20
16.664936734602449
30
0
10
26.819406629961438
20
16.607848526087
30
0
10
26.819406629821188
20
16.45453604398519
30
0
10
26.819406629625529
20
16.107167588444106
30
0
10
26.819406629395765
20
15.405272224867527
30
0
10
26.819406629169407
20
14.113327652959523
30
0
10
26.819406629011397
20
12.399481401817049
30
0
10
26.819406628923325
20
10.364224575101259
30
0
10
26.81940662889701
20
8.4934732998425897
30
0
10
26.819406628897696
20
6.9889744707915993
30
0
10
26.819406628905526
20
5.9700468545825611
30
0
10
26.819406628910492
20
5.5002661768953196
30
0
0
SPLINE
5
140
100
AcDbEntity
8
0
100
AcDbSpline
70
1064
71
5
72
14
73
8
74
0
42
0.000000001
43
0.0000000001
44
0.0000000001
40
0
40
0
40
0
40
0
40
0
40
0
40
0.20000000000000001
40
0.40000000000000002
40
0.50336996691469293
40
0.50336996691469293
40
0.50336996691469293
40
0.50336996691469293
40
0.50336996691469293
40
0.50336996691469293
10
25.117592911214434
20
16.095651039615216
30
0
10
25.119271275807119
20
15.253694978734348
30
0
10
25.122628004992521
20
13.569782856972996
30
0
10
25.126852196640165
20
11.450705884428364
30
0
10
25.131076388287919
20
9.3316289118848346
30
0
10
25.135300579935702
20
7.2125519393420294
30
0
10
25.137846406990651
20
5.9354310276789546
30
0
10
25.138713869452793
20
5.5002661768953187
30
0
0
SPLINE
5
141
100
AcDbEntity
8
0
100
AcDbSpline
70
1064
71
5
72
16
73
10
74
0
42
0.000000001
43
0.0000000001
44
0.0000000001
40
0
40
0
40
0
40
0
40
0
40
0
40
0.20000000000000001
40
0.40000000000000002
40
0.60000000000000009
40
0.80000000000000004
40
1
40
1
40
1
40
1
40
1
40
1
10
11.093981850127957
20
20.002825878639658
30
0
10
11.096106685910211
20
19.52170211574283
30
0
10
11.101483999980285
20
18.532337505460038
30
0
10
11.112929225601142
20
16.967010834121773
30
0
10
11.133470649270619
20
14.738315541511277
30
0
10
11.161149095320706
20
11.785040485435959
30
0
10
11.178601299253341
20
9.3250854352446204
30
0
10
11.185667996994473
20
7.431981078186702
30
0
10
11.187107759661234
20
6.1478503908441171
30
0
10
11.187008979380339
20
5.5002661765938825
30
0
0
ELLIPSE
5
142
100
AcDbEntity
8
0
100
AcDbEllipse
10
15.082441621640481
20
5.4859440602108256
30
0
11
0
21
-2.6925821812639681
31
0.0
40
0.32704402515723263
41
1.576115452918716
42
4.7070698542608707
0
LINE
5
143
100
AcDbEntity
8
0
100
AcDbLine
10
11.693515967229493
20
26.889331963512223
30
0
11
11.693515967225853
21
24.115712545336343
31
0
0
LINE
5
144
100
AcDbEntity
8
0
100
AcDbLine
10
30.470001447247341
20
26.850001275306568
30
0
11
30.463934593070377
21
23.953682788194364
31
0
0
LINE
5
145
100
AcDbEntity
8
0
100
AcDbLine
10
11.191469360698594
20
23.84338315286481
30
0
11
11.191469360698585
21
21.694376995050092
31
0
0
LINE
5
146
100
AcDbEntity
8
0
100
AcDbLine
10
17.377419822061462
20
-1.184491340099223
30
0
11
17.377419822124011
21
0.70857354546874918
31
0
0
LWPOLYLINE
5
147
100
AcDbEntity
8
0
100
AcDbPolyline
90
4
70
1
43
0.0
10
37.766892340633724
20
5.5002661768953311
10
40.019099938888587
20
1.1591398700734157
10
33.210474093507003
20
1.1591398700734012
10
29.975262092985709
20
5.5002661768953223
0
LINE
5
148
100
AcDbEntity
8
0
100
AcDbLine
10
18.289540224434685
20
-5.6518293912101338
30
0
11
18.289540183042984
21
0.051678397290184641
31
0
0
LINE
5
149
100
AcDbEntity
8
0
100
AcDbLine
10
40.019099938888587
20
5.5002661768953329
30
0
11
40.019099938888587
21
1.1591398700734157
31
0
0
LINE
5
150
100
AcDbEntity
8
0
100
AcDbLine
10
17.886861446479315
20
0.39034175866524023
30
0
11
17.886861446489654
21
-5.9953563993751704
31
0
0
SPLINE
5
151
100
AcDbEntity
8
0
100
AcDbSpline
70
1064
71
5
72
26
73
20
74
0
42
0.000000001
43
0.0000000001
44
0.0000000001
40
0
40
0
40
0
40
0
40
0
40
0
40
0.066666666666666666
40
0.13333333333333333
40
0.20000000000000001
40
0.26666666666666666
40
0.33333333333333331
40
0.39999999999999997
40
0.46666666666666662
40
0.53333333333333333
40
0.59999999999999998
40
0.66666666666666663
40
0.73333333333333328
40
0.79999999999999993
40
0.86666666666666659
40
0.93333333333333324
40
1
40
1
40
1
40
1
40
1
40
1
10
15.837433495937665
20
-19.80946667836789
30
0
10
15.780364314537994
20
-19.808239670452696
30
0
10
15.664951107274302
20
-19.801240464754265
30
0
10
15.488006557850785
20
-19.777105821687666
30
0
10
15.2443771609967
20
-19.717458663189142
30
0
10
14.927096232911946
20
-19.596332851928381
30
0
10
14.597986414430977
20
-19.428428567045142
30
0
10
14.259317060295224
20
-19.214948718072151
30
0
10
13.915549546201731
20
-18.959870518166838
30
0
10
13.573443448777301
20
-18.670254849524326
30
0
10
13.240881884224367
20
-18.354680757168659
30
0
10
12.926028122680066
20
-18.022269068526317
30
0
10
12.636331309525266
20
-17.681585895604162
30
0
10
12.377548571542532
20
-17.339674101686548
30
0
10
12.152585944283796
20
-17.000991213009392
30
0
10
11.962398831169468
20
-16.668014975445054
30
0
10
11.837940876907421
20
-16.40707640042638
30
0
10
11.759915757119598
20
-16.214548289727336
30
0
10
11.7146579082236
20
-16.087597501682129
30
0
10
11.693718715029139
20
-16.024472428739841
30
0
0
SPLINE
5
152
100
AcDbEntity
8
0
100
AcDbSpline
70
1064
71
5
72
16
73
10
74
0
42
0.000000001
43
0.0000000001
44
0.0000000001
40
0
40
0
40
0
40
0
40
0
40
0
40
0.20000000000000001
40
0.40000000000000002
40
0.60000000000000009
40
0.80000000000000004
40
1
40
1
40
1
40
1
40
1
40
1
10
26.223838333980009
20
-19.809466678367929
30
0
10
25.808382140454867
20
-19.809466678362138
30
0
10
24.977469753405501
20
-19.809466678352081
30
0
10
23.731101172834329
20
-19.809466678341874
30
0
10
22.06927639874451
20
-19.809466678336925
30
0
10
19.991995431138253
20
-19.809466678340858
30
0
10
18.330170657056453
20
-19.809466678349249
30
0
10
17.083802076496532
20
-19.809466678357772
30
0
10
16.252889689457184
20
-19.809466678364359
30
0
10
15.837433495937665
20
-19.80946667836789
30
0
0
SPLINE
5
153
100
AcDbEntity
8
0
100
AcDbSpline
70
1064
71
5
72
31
73
25
74
0
42
0.000000001
43
0.0000000001
44
0.0000000001
40
0
40
0
40
0
40
0
40
0
40
0
40
0.050000000000000003
40
0.10000000000000001
40
0.15000000000000002
40
0.20000000000000001
40
0.25
40
0.29999999999999999
40
0.34999999999999998
40
0.39999999999999997
40
0.44999999999999996
40
0.49999999999999994
40
0.54999999999999993
40
0.59999999999999998
40
0.65000000000000002
40
0.70000000000000007
40
0.75000000000000011
40
0.80000000000000016
40
0.8500000000000002
40
0.90000000000000024
40
0.95000000000000029
40
1
40
1
40
1
40
1
40
1
40
1
10
30.929097426520439
20
-12.792460512889473
30
0
10
30.99141636944691
20
-12.769154517558686
30
0
10
31.114842077613851
20
-12.721177595270131
30
0
10
31.296345137666044
20
-12.645118008209725
30
0
10
31.533015526273193
20
-12.535482989290641
30
0
10
31.830400395113539
20
-12.383595796034271
30
0
10
32.141114929967728
20
-12.213637456436599
30
0
10
32.474486353841733
20
-12.019520333012306
30
0
10
32.83251418733564
20
-11.790845875764679
30
0
10
33.210367001434079
20
-11.514884674487522
30
0
10
33.598793472762438
20
-11.179753007742974
30
0
10
33.985841355805555
20
-10.777402084023251
30
0
10
34.358716449693993
20
-10.306448768985778
30
0
10
34.705745485470885
20
-9.776088799221867
30
0
10
35.017674722204035
20
-9.2069499928559839
30
0
10
35.2875451328743
20
-8.6256130310350798
30
0
10
35.510931400396331
20
-8.0606806580667758
30
0
10
35.686145571818528
20
-7.5382032625600326
30
0
10
35.814495144038986
20
-7.0775766881320674
30
0
10
35.90075803360412
20
-6.6865650364900748
30
0
10
35.953270565474639
20
-6.358058130159816
30
0
10
35.975574895255889
20
-6.1341489029284642
30
0
10
35.984592171680973
20
-5.9817941386948377
30
0
10
35.987621120618243
20
-5.8862172905682586
30
0
10
35.988390012196284
20
-5.8399269039399249
30
0
0
SPLINE
5
154
100
AcDbEntity
8
0
100
AcDbSpline
70
1064
71
5
72
12
73
6
74
0
42
0.000000001
43
0.0000000001
44
0.0000000001
40
0.96330130266508329
40
0.96330130266508329
40
0.96330130266508329
40
0.96330130266508329
40
0.96330130266508329
40
0.96330130266508329
40
1
40
1
40
1
40
1
40
1
40
1
10
35.98839001219639
20
-5.8399269039328283
30
0
10
35.989255177863619
20
-5.7878404272624628
30
0
10
35.988984394327652
20
-5.7384147393257372
30
0
10
35.987620151929328
20
-5.6916394784053175
30
0
10
35.985188189260128
20
-5.6475040303892232
30
0
10
35.981688549531633
20
-5.6060083021799141
30
0
0
SPLINE
5
155
100
AcDbEntity
8
0
100
AcDbSpline
70
1064
71
5
72
12
73
6
74
0
42
0.000000001
43
0.0000000001
44
0.0000000001
40
0.99999855867227938
40
0.99999855867227938
40
0.99999855867227938
40
0.99999855867227938
40
0.99999855867227938
40
0.99999855867227938
40
1
40
1
40
1
40
1
40
1
40
1
10
11.197397574984084
20
-12.876997528344489
30
0
10
11.197397574889491
20
-12.87699666972304
30
0
10
11.197397574794898
20
-12.876995811101587
30
0
10
11.1973975747003
20
-12.876994952480135
30
0
10
11.1973975746057
20
-12.876994093858688
30
0
10
11.197397574511101
20
-12.876993235237233
30
0
0
SPLINE
5
156
100
AcDbEntity
8
0
100
AcDbSpline
70
1064
71
5
72
16
73
10
74
0
42
0.000000001
43
0.0000000001
44
0.0000000001
40
0
40
0
40
0
40
0
40
0
40
0
40
0.20000000000000001
40
0.40000000000000002
40
0.60000000000000009
40
0.80000000000000004
40
1
40
1
40
1
40
1
40
1
40
1
10
11.693718715029139
20
-16.024472428739841
30
0
10
11.693706107419949
20
-16.019045521018576
30
0
10
11.693681415081855
20
-16.008191704990541
30
0
10
11.693645944556092
20
-15.991910979192676
30
0
10
11.693602004408184
20
-15.970203341039323
30
0
10
11.693555403703042
20
-15.943068784020324
30
0
10
11.693528979022858
20
-15.921361126238228
30
0
10
11.693518334171566
20
-15.90508037261924
30
0
10
11.693515967229537
20
-15.894226531571856
30
0
10
11.69351596722953
20
-15.888799609721618
30
0
0
SPLINE
5
157
100
AcDbEntity
8
0
100
AcDbSpline
70
1064
71
5
72
14
73
8
74
0
42
0.000000001
43
0.0000000001
44
0.0000000001
40
1.1170576056889105
40
1.1170576056889105
40
1.1170576056889105
40
1.1170576056889105
40
1.1170576056889105
40
1.1170576056889105
40
1.1285714285714286
40
1.1428571428571428
40
1.1531565093557963
40
1.1531565093557963
40
1.1531565093557963
40
1.1531565093557963
40
1.1531565093557963
40
1.1531565093557963
10
18.289540224434681
20
-5.6518293912101347
30
0
10
18.317310258729126
20
-5.6219599444755763
30
0
10
18.377964116459424
20
-5.5537778480780231
30
0
10
18.458434027423898
20
-5.4542563588477684
30
0
10
18.534526984431821
20
-5.3483526042957674
30
0
10
18.608417770096938
20
-5.2354964197587854
30
0
10
18.658054292219077
20
-5.1554425498315481
30
0
10
18.678743373447634
20
-5.1213528485666355
30
0
0
SPLINE
5
158
100
AcDbEntity
8
0
100
AcDbSpline
70
1064
71
5
72
22
73
16
74
0
42
0.000000001
43
0.0000000001
44
0.0000000001
40
1.2032631594958216
40
1.2032631594958216
40
1.2032631594958216
40
1.2032631594958216
40
1.2032631594958216
40
1.2032631594958216
40
1.2142857142857144
40
1.2285714285714286
40
1.2428571428571429
40
1.2571428571428571
40
1.2714285714285714
40
1.2857142857142858
40
1.3
40
1.3142857142857143
40
1.3285714285714287
40
1.342857142857143
40
1.3445719605417805
40
1.3445719605417805
40
1.3445719605417805
40
1.3445719605417805
40
1.3445719605417805
40
1.3445719605417805
10
19.15393061969467
20
-4.1810099326741801
30
0
10
19.172731595456735
20
-4.1359567186267965
30
0
10
19.215013841309897
20
-4.0319343926740991
30
0
10
19.27763563477161
20
-3.8674024901324455
30
0
10
19.353591192822641
20
-3.6410312492194774
30
0
10
19.429248814674427
20
-3.353221255973331
30
0
10
19.481691547871463
20
-3.0517017271610758
30
0
10
19.504477481246546
20
-2.750755909184579
30
0
10
19.496152602631089
20
-2.4503246840211945
30
0
10
19.456683017484487
20
-2.1503884320299482
30
0
10
19.387503530430337
20
-1.8515419847234238
30
0
10
19.308475652191849
20
-1.6077014825451164
30
0
10
19.23782187650119
20
-1.4262074916750178
30
0
10
19.185633199389102
20
-1.3050413115361348
30
0
10
19.157010153885359
20
-1.2417332660009262
30
0
10
19.153930616312117
20
-1.2349566094676767
30
0
0
SPLINE
5
159
100
AcDbEntity
8
0
100
AcDbSpline
70
1064
71
5
72
14
73
8
74
0
42
0.000000001
43
0.0000000001
44
0.0000000001
40
1.3904896031129605
40
1.3904896031129605
40
1.3904896031129605
40
1.3904896031129605
40
1.3904896031129605
40
1.3904896031129605
40
1.4000000000000001
40
1.4142857142857144
40
1.4224457028174422
40
1.4224457028174422
40
1.4224457028174422
40
1.4224457028174422
40
1.4224457028174422
40
1.4224457028174422
10
18.678740233454555
20
-0.40822387039575192
30
0
10
18.657097630722188
20
-0.37799415437478112
30
0
10
18.6025011781229
20
-0.30349140285724108
30
0
10
18.527641865515832
20
-0.2072470044093655
30
0
10
18.450397574393985
20
-0.11595733307634637
30
0
10
18.369789498534356
20
-0.028940033641187135
30
0
10
18.311144751838675
20
0.030351678407376514
30
0
10
18.289540183042977
20
0.051678397290184641
30
0
0
SPLINE
5
160
100
AcDbEntity
8
0
100
AcDbSpline
70
1064
71
5
72
14
73
8
74
0
42
0.000000001
43
0.0000000001
44
0.0000000001
40
1.4500027635012835
40
1.4500027635012835
40
1.4500027635012835
40
1.4500027635012835
40
1.4500027635012835
40
1.4500027635012835
40
1.4571428571428573
40
1.4714285714285715
40
1.4790585646704613
40
1.4790585646704613
40
1.4790585646704613
40
1.4790585646704613
40
1.4790585646704613
40
1.4790585646704613
10
17.886861446479312
20
0.39034175866524246
30
0
10
17.863839263372125
20
0.40696884460928118
30
0
10
17.793888997773948
20
0.45654944821049259
30
0
10
17.69553713116202
20
0.52251926384435432
30
0
10
17.59273531183814
20
0.58670801171097686
30
0
10
17.486610711751847
20
0.64854662383839967
30
0
10
17.405663219202385
20
0.69326625352369442
30
0
10
17.377419822124001
20
0.70857354546874918
30
0
0
SPLINE
5
161
100
AcDbEntity
8
0
100
AcDbSpline
70
1064
71
5
72
21
73
15
74
0
42
0.000000001
43
0.0000000001
44
0.0000000001
40
1.500920637377984
40
1.500920637377984
40
1.500920637377984
40
1.500920637377984
40
1.500920637377984
40
1.500920637377984
40
1.5142857142857142
40
1.5285714285714285
40
1.5428571428571427
40
1.5571428571428569
40
1.5714285714285712
40
1.5857142857142854
40
1.5999999999999996
40
1.6142857142857139
40
1.6285714285714281
40
1.6390265800768322
40
1.6390265800768322
40
1.6390265800768322
40
1.6390265800768322
40
1.6390265800768322
40
1.6390265800768322
10
16.980819169123482
20
0.89840155378578368
30
0
10
16.935076782644494
20
0.91692544121682706
30
0
10
16.843366105839333
20
0.95156079017251649
30
0
10
16.715778937162717
20
0.99110679879537811
30
0
10
16.577772435304155
20
1.0119881278585752
30
0
10
16.47865983577389
20
0.97448761800294159
30
0
10
16.459498266277656
20
0.87165198019426349
30
0
10
16.506921430447598
20
0.71947031747975565
30
0
10
16.596796512108348
20
0.53937235876362344
30
0
10
16.703497498227616
20
0.3518448676666841
30
0
10
16.804822606444549
20
0.17702111060779568
30
0
10
16.880676447701276
20
0.04080206074906334
30
0
10
16.933918634694422
20
-0.060152536591429051
30
0
10
16.966963738718029
20
-0.12539246110421898
30
0
10
16.980819169255582
20
-0.1532388657246897
30
0
0
SPLINE
5
162
100
AcDbEntity
8
0
100
AcDbSpline
70
1064
71
5
72
16
73
10
74
0
42
0.000000001
43
0.0000000001
44
0.0000000001
40
0
40
0
40
0
40
0
40
0
40
0
40
0.20000000000000001
40
0.40000000000000002
40
0.60000000000000009
40
0.80000000000000004
40
1
40
1
40
1
40
1
40
1
40
1
10
38.571615350494234
20
-4.5342416818104354
30
0
10
38.571615350488543
20
-4.3065064197340508
30
0
10
38.571615350478581
20
-3.8510358955815782
30
0
10
38.571615350468122
20
-3.1678301093538264
30
0
10
38.571615350462181
20
-2.2568890610518078
30
0
10
38.571615350464874
20
-1.1182127506760731
30
0
10
38.571615350473124
20
-0.20727170237615722
30
0
10
38.571615350482482
20
0.47593408384864366
30
0
10
38.571615350490084
20
0.93140460799849611
30
0
10
38.571615350494227
20
1.1591398700734135
30
0
0
SPLINE
5
163
100
AcDbEntity
8
0
100
AcDbSpline
70
1064
71
5
72
26
73
20
74
0
42
0.000000001
43
0.0000000001
44
0.0000000001
40
0
40
0
40
0
40
0
40
0
40
0
40
0.066666666666666666
40
0.13333333333333333
40
0.20000000000000001
40
0.26666666666666666
40
0.33333333333333331
40
0.39999999999999997
40
0.46666666666666662
40
0.53333333333333333
40
0.59999999999999998
40
0.66666666666666663
40
0.73333333333333328
40
0.79999999999999993
40
0.86666666666666659
40
0.93333333333333324
40
1
40
1
40
1
40
1
40
1
40
1
10
37.277091159038449
20
-5.8399269044052531
30
0
10
37.295408646262153
20
-5.834869016292652
30
0
10
37.332214120684377
20
-5.8239794820455142
30
0
10
37.387933856488559
20
-5.8053239034154309
30
0
10
37.463257117206183
20
-5.775773526363599
30
0
10
37.559099439353339
20
-5.7308260261613171
30
0
10
37.656459104382336
20
-5.6775793878764214
30
0
10
37.754933697244738
20
-5.6157379867415518
30
0
10
37.853761979229816
20
-5.5451068964987709
30
0
10
37.951772391989977
20
-5.465666886771654
30
0
10
38.047592957811041
20
-5.3774954256155656
30
0
10
38.139818681309407
20
-5.2807438449584376
30
0
10
38.227187818684691
20
-5.1756209065151086
30
0
10
38.308795908417885
20
-5.0624155252893139
30
0
10
38.384233213178675
20
-4.9415052524651459
30
0
10
38.453385237892263
20
-4.8132628350480449
30
0
10
38.503727214479312
20
-4.7050535059582543
30
0
10
38.53873314226032
20
-4.6208310620199384
30
0
10
38.56085687656639
20
-4.5633302329280845
30
0
10
38.571615350494234
20
-4.5342416818104354
30
0
0
SPLINE
5
164
100
AcDbEntity
8
0
100
AcDbSpline
70
1064
71
5
72
16
73
10
74
0
42
0.000000001
43
0.0000000001
44
0.0000000001
40
0
40
0
40
0
40
0
40
0
40
0
40
0.20000000000000001
40
0.40000000000000002
40
0.60000000000000009
40
0.80000000000000004
40
1
40
1
40
1
40
1
40
1
40
1
10
35.988390012188546
20
-5.8399269044052549
30
0
10
36.039938058058127
20
-5.8399269044037609
30
0
10
36.143034149798495
20
-5.8399269044011231
30
0
10
36.297678287412893
20
-5.8399269043983004
30
0
10
36.503870470905582
20
-5.8399269043965525
30
0
10
36.761610700279114
20
-5.8399269043970259
30
0
10
36.967802883781502
20
-5.8399269043991691
30
0
10
37.122447021409556
20
-5.8399269044018016
30
0
10
37.225543113162061
20
-5.8399269044040247
30
0
10
37.277091159038449
20
-5.8399269044052531
30
0
0
LINE
5
165
100
AcDbEntity
8
0
100
AcDbLine
10
30.470001447247384
20
-15.849468921515921
30
0
11
30.46393459307042
21
-12.953150434403717
31
0
0
LINE
5
166
100
AcDbEntity
8
0
100
AcDbLine
10
11.191469360698637
20
-12.842850799074203
30
0
11
11.191469360698623
21
-10.693844641259487
31
0
0
SPLINE
5
167
100
AcDbEntity
8
0
100
AcDbSpline
70
1064
71
5
72
16
73
10
74
0
42
0.000000001
43
0.0000000001
44
0.0000000001
40
0
40
0
40
0
40
0
40
0
40
0
40
0.20000000000000001
40
0.40000000000000002
40
0.60000000000000009
40
0.80000000000000004
40
1
40
1
40
1
40
1
40
1
40
1
10
22.397500409621539
20
-10.693846095698923
30
0
10
21.945060844476135
20
-10.693846036974692
30
0
10
21.040181714185909
20
-10.69384591952668
30
0
10
19.682863018752446
20
-10.693845743356105
30
0
10
17.873104758177739
20
-10.69384550846455
30
0
10
15.610906932463029
20
-10.693845214853184
30
0
10
13.801148671892996
20
-10.693844979965839
30
0
10
12.443829976466139
20
-10.693844803801188
30
0
10
11.538950846181828
20
-10.693844686358442
30
0
10
11.086511281039735
20
-10.693844627637162
30
0
0
ELLIPSE
5
168
100
AcDbEntity
8
0
100
AcDbEllipse
10
15.082441621640479
20
5.5145882935797887
30
0
11
-5.5988240265605229e-15
21
2.6925821812639681
31
0.0
40
0.32704402515723263
41
1.5761154529187151
42
4.7070698542608707
0
SPLINE
5
169
100
AcDbEntity
8
0
100
AcDbSpline
70
1064
71
5
72
16
73
10
74
0
42
0.000000001
43
0.0000000001
44
0.0000000001
40
0
40
0
40
0
40
0
40
0
40
0
40
0.20000000000000001
40
0.40000000000000002
40
0.60000000000000009
40
0.80000000000000004
40
1
40
1
40
1
40
1
40
1
40
1
10
11.093981850127982
20
-9.0022935248490512
30
0
10
11.096106685910234
20
-8.5211697619522226
30
0
10
11.101483999980307
20
-7.5318051516694311
30
0
10
11.11292922560116
20
-5.9664784803311655
30
0
10
11.133470649270631
20
-3.7377831877206713
30
0
10
11.161149095320713
20
-0.78450813164535171
30
0
10
11.178601299253344
20
1.6754469185459875
30
0
10
11.185667996994471
20
3.5685512756039053
30
0
10
11.187107759661231
20
4.8526819629464901
30
0
10
11.187008979380334
20
5.5002661771967256
30
0
0
SPLINE
5
170
100
AcDbEntity
8
0
100
AcDbSpline
70
1064
71
5
72
14
73
8
74
0
42
0.000000001
43
0.0000000001
44
0.0000000001
40
0
40
0
40
0
40
0
40
0
40
0
40
0.20000000000000001
40
0.40000000000000002
40
0.50336996691469293
40
0.50336996691469293
40
0.50336996691469293
40
0.50336996691469293
40
0.50336996691469293
40
0.50336996691469293
10
25.117592911214452
20
-5.0951186858245805
30
0
10
25.119271275807129
20
-4.2531626249437116
30
0
10
25.122628004992528
20
-2.5692505031823587
30
0
10
25.126852196640172
20
-0.45017353063772747
30
0
10
25.131076388287919
20
1.6689034419058024
30
0
10
25.135300579935699
20
3.7879804144486071
30
0
10
25.137846406990647
20
5.065101326111682
30
0
10
25.13871386945279
20
5.5002661768953178
30
0
0
SPLINE
5
171
100
AcDbEntity
8
0
100
AcDbSpline
70
1064
71
5
72
18
73
12
74
0
42
0.000000001
43
0.0000000001
44
0.0000000001
40
0
40
0
40
0
40
0
40
0
40
0
40
0.10000000000000001
40
0.20000000000000001
40
0.30000000000000004
40
0.40000000000000002
40
0.5
40
0.59999999999999998
40
0.68247103904545503
40
0.68247103904545503
40
0.68247103904545503
40
0.68247103904545503
40
0.68247103904545503
40
0.68247103904545503
10
26.819406630034059
20
-5.6644043808118099
30
0
10
26.819406629961456
20
-5.6073161722963611
30
0
10
26.819406629821209
20
-5.4540036901945506
30
0
10
26.819406629625547
20
-5.1066352346534654
30
0
10
26.819406629395779
20
-4.4047398710768881
30
0
10
26.819406629169421
20
-3.1127952991688823
30
0
10
26.819406629011407
20
-1.39894904802641
30
0
10
26.819406628923332
20
0.63630777868938004
30
0
10
26.81940662889701
20
2.5070590539480495
30
0
10
26.819406628897692
20
4.0115578829990408
30
0
10
26.819406628905522
20
5.0304854992080781
30
0
10
26.819406628910485
20
5.5002661768953196
30
0
0
SPLINE
5
172
100
AcDbEntity
8
0
100
AcDbSpline
70
1064
71
5
72
26
73
20
74
0
42
0.000000001
43
0.0000000001
44
0.0000000001
40
0
40
0
40
0
40
0
40
0
40
0
40
0.066666666666666666
40
0.13333333333333333
40
0.20000000000000001
40
0.26666666666666666
40
0.33333333333333331
40
0.39999999999999997
40
0.46666666666666662
40
0.53333333333333333
40
0.59999999999999998
40
0.66666666666666663
40
0.73333333333333328
40
0.79999999999999993
40
0.86666666666666659
40
0.93333333333333324
40
1
40
1
40
1
40
1
40
1
40
1
10
30.929097426520439
20
-12.792460512889473
30
0
10
30.891715528270048
20
-12.812964569132713
30
0
10
30.792473142314485
20
-12.857040440465148
30
0
10
30.570170981021572
20
-12.932362630783807
30
0
10
30.127163793875059
20
-13.046194852897459
30
0
10
29.32776789800409
20
-13.185634395031895
30
0
10
28.277518971061831
20
-13.295056533332055
30
0
10
26.964174330750193
20
-13.358748319086192
30
0
10
25.372007788268416
20
-13.376959277458219
30
0
10
23.498155084518903
20
-13.358840232203995
30
0
10
21.361077886472128
20
-13.319022306547982
30
0
10
19.026168968491923
20
-13.272365612462057
30
0
10
16.597717189205031
20
-13.231204440214102
30
0
10
14.293342740639851
20
-13.19787545873417
30
0
10
12.332753630710904
20
-13.167476915653378
30
0
10
11.270212597825303
20
-13.105977290386299
30
0
10
11.166736843806397
20
-13.015871749754918
30
0
10
11.187279430206347
20
-12.933745601548946
30
0
10
11.191859573003235
20
-12.873971594769555
30
0
10
11.191469360698624
20
-12.842850799074203
30
0
0
SPLINE
5
173
100
AcDbEntity
8
0
100
AcDbSpline
70
1064
71
5
72
26
73
20
74
0
42
0.000000001
43
0.0000000001
44
0.0000000001
40
0
40
0
40
0
40
0
40
0
40
0
40
0.066666666666666666
40
0.13333333333333333
40
0.20000000000000001
40
0.26666666666666666
40
0.33333333333333331
40
0.39999999999999997
40
0.46666666666666662
40
0.53333333333333333
40
0.59999999999999998
40
0.66666666666666663
40
0.73333333333333328
40
0.79999999999999993
40
0.86666666666666659
40
0.93333333333333324
40
1
40
1
40
1
40
1
40
1
40
1
10
30.47000144724738
20
-15.849468921515921
30
0
10
30.454030168633469
20
-15.893018071235625
30
0
10
30.419862568229963
20
-15.982262848210551
30
0
10
30.36193605923485
20
-16.122569739277161
30
0
10
30.271253282343807
20
-16.322616160534228
30
0
10
30.134761353867855
20
-16.594317654261509
30
0
10
29.973973966458534
20
-16.886689855213632
30
0
10
29.787394540569426
20
-17.197045893064661
30
0
10
29.573353406309053
20
-17.519806692286608
30
0
10
29.330110612477874
20
-17.847149692828634
30
0
10
29.055961368541475
20
-18.170301902950946
30
0
10
28.749461385691127
20
-18.480623013063997
30
0
10
28.409656182794901
20
-18.770650016946387
30
0
10
28.036580657935069
20
-19.035536271020238
30
0
10
27.631086780962583
20
-19.272946419036145
30
0
10
27.19431276540838
20
-19.482069862765034
30
0
10
26.820765435817545
20
-19.626846437794274
30
0
10
26.527399866632102
20
-19.722967318298316
30
0
10
26.325996566113503
20
-19.781549910125019
30
0
10
26.223838333980009
20
-19.809466678367929
30
0
0
SPLINE
5
174
100
AcDbEntity
8
0
100
AcDbSpline
70
1064
71
5
72
16
73
10
74
0
42
0.000000001
43
0.0000000001
44
0.0000000001
40
0
40
0
40
0
40
0
40
0
40
0
40
0.20000000000000001
40
0.40000000000000002
40
0.60000000000000009
40
0.80000000000000004
40
0.99641917180120143
40
0.99641917180120143
40
0.99641917180120143
40
0.99641917180120143
40
0.99641917180120143
40
0.99641917180120143
10
35.981688549531633
20
-5.6060083021799141
30
0
10
35.981155621686348
20
-5.3344298996855466
30
0
10
35.980089765996766
20
-4.7912730946976261
30
0
10
35.978490982465601
20
-3.9765378872182633
30
0
10
35.976359271093294
20
-2.8902242772491271
30
0
10
35.973704173495634
20
-1.5371946428004502
30
0
10
35.971582003740778
20
-0.45574341084476
30
0
10
35.969992761828692
20
0.35412941861908909
30
0
10
35.96893644775907
20
0.89242384559171883
30
0
10
35.968413061531891
20
1.1591398700734123
30
0
0
SPLINE
5
175
100
AcDbEntity
8
0
100
AcDbSpline
70
1064
71
5
72
31
73
25
74
0
42
0.000000001
43
0.0000000001
44
0.0000000001
40
0
40
0
40
0
40
0
40
0
40
0
40
0.050000000000000003
40
0.10000000000000001
40
0.15000000000000002
40
0.20000000000000001
40
0.25
40
0.29999999999999999
40
0.34999999999999998
40
0.39999999999999997
40
0.44999999999999996
40
0.49999999999999994
40
0.54999999999999993
40
0.59999999999999998
40
0.65000000000000002
40
0.70000000000000007
40
0.75000000000000011
40
0.80000000000000016
40
0.8500000000000002
40
0.90000000000000024
40
0.95000000000000029
40
1
40
1
40
1
40
1
40
1
40
1
10
22.397500409621539
20
-10.693846095698923
30
0
10
22.459644619294224
20
-10.688066755833852
30
0
10
22.583597581029228
20
-10.674562091167932
30
0
10
22.768520559967044
20
-10.648467399251892
30
0
10
23.013064177299807
20
-10.601949210583758
30
0
10
23.315382442001894
20
-10.523594713367164
30
0
10
23.614457661092978
20
-10.423485049264229
30
0
10
23.910568391403526
20
-10.298966051780148
30
0
10
24.204306272725017
20
-10.145791129499763
30
0
10
24.496407193660055
20
-9.9585136805281493
30
0
10
24.787120613480692
20
-9.7321487933837822
30
0
10
25.07564178811684
20
-9.463667345689819
30
0
10
25.359596998868842
20
-9.1534122173008647
30
0
10
25.634262598533958
20
-8.8071568670194367
30
0
10
25.892640542281974
20
-8.4362271946519307
30
0
10
26.126996402831921
20
-8.0543040895176574
30
0
10
26.330024497929713
20
-7.6751223003835056
30
0
10
26.496259223288639
20
-7.3097155840456569
30
0
10
26.62327462981893
20
-6.9641059404837158
30
0
10
26.713486035744545
20
-6.6359846314270072
30
0
10
26.772615916921822
20
-6.3171687334810862
30
0
10
26.800422579549146
20
-6.0613843983456057
30
0
10
26.812878545899409
20
-5.8651052924138991
30
0
10
26.817795131413064
20
-5.7317258640275064
30
0
10
26.819406630034059
20
-5.6644043808118099
30
0
0
SPLINE
5
176
100
AcDbEntity
8
0
100
AcDbSpline
70
1064
71
5
72
31
73
25
74
0
42
0.000000001
43
0.0000000001
44
0.0000000001
40
0
40
0
40
0
40
0
40
0
40
0
40
0.050000000000000003
40
0.10000000000000001
40
0.15000000000000002
40
0.20000000000000001
40
0.25
40
0.29999999999999999
40
0.34999999999999998
40
0.39999999999999997
40
0.44999999999999996
40
0.49999999999999994
40
0.54999999999999993
40
0.59999999999999998
40
0.65000000000000002
40
0.70000000000000007
40
0.75000000000000011
40
0.80000000000000016
40
0.8500000000000002
40
0.90000000000000024
40
0.95000000000000029
40
1
40
1
40
1
40
1
40
1
40
1
10
21.918283480778701
20
-8.9125141277928392
30
0
10
21.960717419861645
20
-8.9139052421729872
30
0
10
22.046520091854571
20
-8.9136604741796699
30
0
10
22.178028589627839
20
-8.9042122803490571
30
0
10
22.359004191828021
20
-8.8733789420913638
30
0
10
22.59442041069558
20
-8.8041660737924481
30
0
10
22.838210921258234
20
-8.7042230945551715
30
0
10
23.088566185462973
20
-8.5740184389281779
30
0
10
23.342196695298728
20
-8.4149600971689775
30
0
10
23.594186481266135
20
-8.2296187435271975
30
0
10
23.83881592103322
20
-8.021393740435288
30
0
10
24.070182077068235
20
-7.7943181404158102
30
0
10
24.282918408071588
20
-7.5528512311572609
30
0
10
24.472846505902147
20
-7.3016957616588174
30
0
10
24.637809309020277
20
-7.0456571356264153
30
0
10
24.777282670261283
20
-6.7892149040952088
30
0
10
24.891837327924819
20
-6.536067677067412
30
0
10
24.982690553278346
20
-6.2886378364743507
30
0
10
25.051283129078495
20
-6.0476629120757242
30
0
10
25.098822967294815
20
-5.8114842414780536
30
0
10
25.12617933982267
20
-5.5767339246213616
30
0
10
25.132382858070045
20
-5.3870221657444013
30
0
10
25.128353947572379
20
-5.2422190375717808
30
0
10
25.121821083514597
20
-5.1443709405295941
30
0
10
25.117592911214452
20
-5.0951186858245805
30
0
0
SPLINE
5
177
100
AcDbEntity
8
0
100
AcDbSpline
70
1064
71
5
72
16
73
10
74
0
42
0.000000001
43
0.0000000001
44
0.0000000001
40
0
40
0
40
0
40
0
40
0
40
0
40
0.20000000000000001
40
0.40000000000000002
40
0.60000000000000009
40
0.80000000000000004
40
1
40
1
40
1
40
1
40
1
40
1
10
11.093981850127982
20
-9.0022935248490512
30
0
10
11.526953915353458
20
-8.9987023489659101
30
0
10
12.392898045804571
20
-8.9915199971999087
30
0
10
13.691814241481804
20
-8.9807464695518018
30
0
10
15.423702502385758
20
-8.9663817660224492
30
0
10
17.588562828516718
20
-8.9484258866122666
30
0
10
19.32045108942167
20
-8.9340611830845482
30
0
10
20.619367285100275
20
-8.9232876554387452
30
0
10
21.48531141555258
20
-8.9161053036748168
30
0
10
21.918283480778701
20
-8.9125141277928392
30
0
0
LINE
5
178
100
AcDbEntity
8
0
100
AcDbLine
10
17.377419804691428
20
-6.2754636145403744
30
0
11
17.377419796112676
21
-3.9358278039842665
31
0
0
LINE
5
179
100
AcDbEntity
8
0
100
AcDbLine
10
11.086511281039746
20
-10.693844627637166
30
0
11
11.093981850127989
21
-9.0022935248490548
31
0
0
LINE
5
180
100
AcDbEntity
8
0
100
AcDbLine
10
30.470001447247384
20
-15.849468921515921
30
0
11
11.693515967229535
21
-15.888799609721623
31
0
0
LINE
5
181
100
AcDbEntity
8
0
100
AcDbLine
10
16.980819169123489
20
0.89840155378578257
30
0
11
16.980819169255593
21
-0.15323886572468748
31
0
0
LINE
5
182
100
AcDbEntity
8
0
100
AcDbLine
10
16.980819170511026
20
-5.1273374648914851
30
0
11
16.980819169385054
21
-6.4244252804240611
31
0
0
LINE
5
183
100
AcDbEntity
8
0
100
AcDbLine
10
19.153930619694677
20
-4.1810099326741827
30
0
11
19.153930616312124
21
-1.2349566094676789
31
0
0
LINE
5
184
100
AcDbEntity
8
0
100
AcDbLine
10
18.678743373447642
20
-5.1213528485666329
30
0
11
18.678740233454562
21
-0.40822387039575192
31
0
0
ARC
5
185
100
AcDbEntity
8
0
100
AcDbCircle
10
21.02414800920695
20
-35.312742716571762
30
0
40
16.342454669206759
100
AcDbArc
50
71.559090130277227
51
108.44090986972301
0
SPLINE
5
186
100
AcDbEntity
8
0
100
AcDbSpline
70
1064
71
5
72
28
73
22
74
0
42
0.000000001
43
0.0000000001
44
0.0000000001
40
0.86967561470692833
40
0.86967561470692833
40
0.86967561470692833
40
0.86967561470692833
40
0.86967561470692833
40
0.86967561470692833
40
0.87142857142857022
40
0.88571428571428445
40
0.89999999999999869
40
0.91428571428571292
40
0.92857142857142716
40
0.94285714285714139
40
0.95714285714285563
40
0.97142857142856986
40
0.9857142857142841
40
1
40
1
40
1
40
1
40
1
40
1.0142857142857142
40
1.0285714285714285
40
1.0386558045893017
40
1.0386558045893017
40
1.0386558045893017
40
1.0386558045893017
40
1.0386558045893017
40
1.0386558045893017
10
16.980819170511023
20
-5.1273374648914816
30
0
10
16.977956870766981
20
-5.1346687469887282
30
0
10
16.951823821015267
20
-5.2014812370872026
30
0
10
16.903412257247737
20
-5.3231686409251067
30
0
10
16.835908256650928
20
-5.4880354876230601
30
0
10
16.756977088648043
20
-5.6744597701664485
30
0
10
16.680121893938281
20
-5.8498961179527953
30
0
10
16.620578377145911
20
-5.980802207769937
30
0
10
16.569708587862952
20
-6.0853606155423368
30
0
10
16.520009788396873
20
-6.1839579892736811
30
0
10
16.472985084817768
20
-6.289142845678926
30
0
10
16.455355082741907
20
-6.3714919841198707
30
0
10
16.468124330688877
20
-6.4218528490272337
30
0
10
16.491293822981689
20
-6.4475331700402698
30
0
10
16.506711669942224
20
-6.4581724153570903
30
0
10
16.522129516902751
20
-6.4688116606739072
30
0
10
16.560631412452086
20
-6.4856883209281646
30
0
10
16.63438094567212
20
-6.4953794265158615
30
0
10
16.736697618622834
20
-6.4858000619619194
30
0
10
16.86064260307316
20
-6.4585247277263846
30
0
10
16.945013411326734
20
-6.4351133117952237
30
0
10
16.980819169385043
20
-6.4244252804240576
30
0
0
SPLINE
5
187
100
AcDbEntity
8
0
100
AcDbSpline
70
1064
71
5
72
20
73
14
74
0
42
0.000000001
43
0.0000000001
44
0.0000000001
40
0.70253957705417602
40
0.70253957705417602
40
0.70253957705417602
40
0.70253957705417602
40
0.70253957705417602
40
0.70253957705417602
40
0.71428571428571364
40
0.72857142857142787
40
0.74285714285714211
40
0.75714285714285634
40
0.77142857142857058
40
0.78571428571428481
40
0.79999999999999905
40
0.81428571428571328
40
0.8199976346246266
40
0.8199976346246266
40
0.8199976346246266
40
0.8199976346246266
40
0.8199976346246266
40
0.8199976346246266
10
17.377419822061459
20
-1.184491340099223
30
0
10
17.390517233620447
20
-1.2306397377016176
30
0
10
17.418855757092821
20
-1.3344480038321782
30
0
10
17.460055101807054
20
-1.5002730039223366
30
0
10
17.508602347046164
20
-1.7343122836799774
30
0
10
17.553225080690808
20
-2.0426069788861634
30
0
10
17.577411403584208
20
-2.3738857651933687
30
0
10
17.576755637934529
20
-2.7155005669067545
30
0
10
17.549839539499157
20
-3.0664594182192095
30
0
10
17.503131394594
20
-3.3823146728719999
30
0
10
17.452915770611749
20
-3.6295630104786247
30
0
10
17.411247146295054
20
-3.8046645602871454
30
0
10
17.385045819031607
20
-3.9067185756402045
30
0
10
17.377412859376481
20
-3.9358542823347875
30
0
0
SPLINE
5
188
100
AcDbEntity
8
0
100
AcDbSpline
70
1064
71
5
72
14
73
8
74
0
42
0.000000001
43
0.0000000001
44
0.0000000001
40
1.0597011225336952
40
1.0597011225336952
40
1.0597011225336952
40
1.0597011225336952
40
1.0597011225336952
40
1.0597011225336952
40
1.0714285714285714
40
1.0857142857142856
40
1.0881529500062006
40
1.0881529500062006
40
1.0881529500062006
40
1.0881529500062006
40
1.0881529500062006
40
1.0881529500062006
10
17.377419804691417
20
-6.2754636145403708
30
0
10
17.422458723552559
20
-6.2553757846697629
30
0
10
17.52188416150927
20
-6.2090688107647729
30
0
10
17.628271396143639
20
-6.1546727330868638
30
0
10
17.729662976871545
20
-6.0971832547800293
30
0
10
17.82507838261192
20
-6.0369775986978347
30
0
10
17.879038583744553
20
-6.0006700558943855
30
0
10
17.88686144648965
20
-5.9953563993751668
30
0
0
LINE
5
189
100
AcDbEntity
8
0
100
AcDbLine
10
11.693515967229535
20
-15.888799609721623
30
0
11
11.693515967225894
21
-13.11518019154574
31
0
0
ENDSEC
0
SECTION
2
OBJECTS
0
DICTIONARY
5
C
100
AcDbDictionary
3
ACAD_GROUP
350
D
3
ACAD_MLINESTYLE
350
17
0
DICTIONARY
5
D
100
AcDbDictionary
0
DICTIONARY
5
1A
330
C
100
AcDbDictionary
0
DICTIONARY
5
17
100
AcDbDictionary
0
ENDSEC
0
EOF
