  0
SECTION
  2
HEADER
  9
$ACADVER
  1
AC1009
  9
$DWGCODEPAGE
  3
ansi_950
  9
$INSBASE
 10
0.0
 20
0.0
 30
0.0
  9
$EXTMIN
 10
0.4845186161295558
 20
-8.72458229058913
 30
-0.0000000000000005
  9
$EXTMAX
 10
50.72109263918288
 20
20.1080063318756
 30
0.0000000000000005
  9
$LIMMIN
 10
0.0
 20
0.0
  9
$LIMMAX
 10
12.0
 20
9.0
  9
$ORTHOMODE
 70
     0
  9
$REGENMODE
 70
     1
  9
$FILLMODE
 70
     1
  9
$QTEXTMODE
 70
     0
  9
$MIRRTEXT
 70
     1
  9
$DRAGMODE
 70
     2
  9
$LTSCALE
 40
1.0
  9
$OSMODE
 70
    37
  9
$ATTMODE
 70
     1
  9
$TEXTSIZE
 40
0.2
  9
$TRACEWID
 40
0.05
  9
$TEXTSTYLE
  7
STANDARD
  9
$CLAYER
  8
0
  9
$CELTYPE
  6
BYLAYER
  9
$CECOLOR
 62
   256
  9
$DIMSCALE
 40
1.0
  9
$DIMASZ
 40
0.18
  9
$DIMEXO
 40
0.0625
  9
$DIMDLI
 40
0.38
  9
$DIMRND
 40
0.0
  9
$DIMDLE
 40
0.0
  9
$DIMEXE
 40
0.18
  9
$DIMTP
 40
0.0
  9
$DIMTM
 40
0.0
  9
$DIMTXT
 40
0.18
  9
$DIMCEN
 40
0.09
  9
$DIMTSZ
 40
0.0
  9
$DIMTOL
 70
     0
  9
$DIMLIM
 70
     0
  9
$DIMTIH
 70
     1
  9
$DIMTOH
 70
     1
  9
$DIMSE1
 70
     0
  9
$DIMSE2
 70
     0
  9
$DIMTAD
 70
     0
  9
$DIMZIN
 70
     0
  9
$DIMBLK
  1

  9
$DIMASO
 70
     1
  9
$DIMSHO
 70
     1
  9
$DIMPOST
  1

  9
$DIMAPOST
  1

  9
$DIMALT
 70
     0
  9
$DIMALTD
 70
     2
  9
$DIMALTF
 40
25.4
  9
$DIMLFAC
 40
1.0
  9
$DIMTOFL
 70
     0
  9
$DIMTVP
 40
0.0
  9
$DIMTIX
 70
     0
  9
$DIMSOXD
 70
     0
  9
$DIMSAH
 70
     0
  9
$DIMBLK1
  1

  9
$DIMBLK2
  1

  9
$DIMSTYLE
  2
STANDARD
  9
$DIMCLRD
 70
     0
  9
$DIMCLRE
 70
     0
  9
$DIMCLRT
 70
     0
  9
$DIMTFAC
 40
1.0
  9
$DIMGAP
 40
0.09
  9
$LUNITS
 70
     2
  9
$LUPREC
 70
     4
  9
$SKETCHINC
 40
0.1
  9
$FILLETRAD
 40
0.5
  9
$AUNITS
 70
     0
  9
$AUPREC
 70
     0
  9
$MENU
  1
.
  9
$ELEVATION
 40
0.0
  9
$PELEVATION
 40
0.0
  9
$THICKNESS
 40
0.0
  9
$LIMCHECK
 70
     0
  9
$CHAMFERA
 40
0.0
  9
$CHAMFERB
 40
0.0
  9
$SKPOLY
 70
     0
  9
$TDCREATE
 40
2458232.409070625
  9
$TDUPDATE
 40
2458232.409086354
  9
$TDINDWG
 40
0.0000000116
  9
$TDUSRTIMER
 40
0.0000000116
  9
$USRTIMER
 70
     1
  9
$ANGBASE
 50
0.0
  9
$ANGDIR
 70
     0
  9
$PDMODE
 70
     0
  9
$PDSIZE
 40
0.0
  9
$PLINEWID
 40
0.0
  9
$COORDS
 70
     1
  9
$SPLFRAME
 70
     0
  9
$SPLINETYPE
 70
     6
  9
$SPLINESEGS
 70
     8
  9
$ATTDIA
 70
     0
  9
$ATTREQ
 70
     1
  9
$HANDLING
 70
     1
  9
$HANDSEED
  5
4FB
  9
$SURFTAB1
 70
     6
  9
$SURFTAB2
 70
     6
  9
$SURFTYPE
 70
     6
  9
$SURFU
 70
     6
  9
$SURFV
 70
     6
  9
$UCSNAME
  2

  9
$UCSORG
 10
0.0
 20
0.0
 30
0.0
  9
$UCSXDIR
 10
1.0
 20
0.0
 30
0.0
  9
$UCSYDIR
 10
0.0
 20
1.0
 30
0.0
  9
$PUCSNAME
  2

  9
$PUCSORG
 10
0.0
 20
0.0
 30
0.0
  9
$PUCSXDIR
 10
1.0
 20
0.0
 30
0.0
  9
$PUCSYDIR
 10
0.0
 20
1.0
 30
0.0
  9
$USERI1
 70
     0
  9
$USERI2
 70
     0
  9
$USERI3
 70
     0
  9
$USERI4
 70
     0
  9
$USERI5
 70
     0
  9
$USERR1
 40
0.0
  9
$USERR2
 40
0.0
  9
$USERR3
 40
0.0
  9
$USERR4
 40
0.0
  9
$USERR5
 40
0.0
  9
$WORLDVIEW
 70
     1
  9
$SHADEDGE
 70
     3
  9
$SHADEDIF
 70
    70
  9
$TILEMODE
 70
     1
  9
$MAXACTVP
 70
    64
  9
$PLIMCHECK
 70
     0
  9
$PEXTMIN
 10
1.000000000000000E+20
 20
1.000000000000000E+20
 30
1.000000000000000E+20
  9
$PEXTMAX
 10
-1.000000000000000E+20
 20
-1.000000000000000E+20
 30
-1.000000000000000E+20
  9
$PLIMMIN
 10
0.0
 20
0.0
  9
$PLIMMAX
 10
12.0
 20
9.0
  9
$UNITMODE
 70
     0
  9
$VISRETAIN
 70
     1
  9
$PLINEGEN
 70
     0
  9
$PSLTSCALE
 70
     1
  0
ENDSEC
  0
SECTION
  2
TABLES
  0
TABLE
  2
VPORT
 70
     1
  0
VPORT
  2
*ACTIVE
 70
     0
 10
0.0
 20
0.0
 11
1.0
 21
1.0
 12
25.60280562765622
 22
5.691712020643235
 13
0.0
 23
0.0
 14
0.5
 24
0.5
 15
0.5
 25
0.5
 16
0.0
 26
0.0
 36
1.0
 17
0.0
 27
0.0
 37
0.0
 40
29.40924039491403
 41
1.742353927385896
 42
50.0
 43
0.0
 44
0.0
 50
0.0
 51
0.0
 71
     0
 72
   100
 73
     1
 74
     3
 75
     0
 76
     0
 77
     0
 78
     0
  0
ENDTAB
  0
TABLE
  2
LTYPE
 70
     1
  0
LTYPE
  2
CONTINUOUS
 70
     0
  3
Solid line
 72
    65
 73
     0
 40
0.0
  0
ENDTAB
  0
TABLE
  2
LAYER
 70
     1
  0
LAYER
  2
0
 70
     0
 62
     7
  6
CONTINUOUS
  0
ENDTAB
  0
TABLE
  2
STYLE
 70
     1
  0
STYLE
  2
STANDARD
 70
     0
 40
0.0
 41
1.0
 50
0.0
 71
     0
 42
0.2
  3
txt
  4

  0
ENDTAB
  0
TABLE
  2
VIEW
 70
     0
  0
ENDTAB
  0
TABLE
  2
UCS
 70
     0
  0
ENDTAB
  0
TABLE
  2
APPID
 70
     1
  0
APPID
  2
ACAD
 70
     0
  0
ENDTAB
  0
TABLE
  2
DIMSTYLE
 70
     1
  0
DIMSTYLE
  2
STANDARD
 70
     0
  3

  4

  5

  6

  7

 40
1.0
 41
0.18
 42
0.0625
 43
0.38
 44
0.18
 45
0.0
 46
0.0
 47
0.0
 48
0.0
140
0.18
141
0.09
142
0.0
143
25.4
144
1.0
145
0.0
146
1.0
147
0.09
 71
     0
 72
     0
 73
     1
 74
     1
 75
     0
 76
     0
 77
     0
 78
     0
170
     0
171
     2
172
     0
173
     0
174
     0
175
     0
176
     0
177
     0
178
     0
  0
ENDTAB
  0
ENDSEC
  0
SECTION
  2
BLOCKS
  0
BLOCK
  8
0
  2
$MODEL_SPACE
 70
     0
 10
0.0
 20
0.0
 30
0.0
  3
$MODEL_SPACE
  1

  0
ENDBLK
  5
21
  8
0
  0
BLOCK
 67
     1
  8
0
  2
$PAPER_SPACE
 70
     0
 10
0.0
 20
0.0
 30
0.0
  3
$PAPER_SPACE
  1

  0
ENDBLK
  5
1D
 67
     1
  8
0
  0
ENDSEC
  0
SECTION
  2
ENTITIES
  0
LINE
  5
6E
  8
0
 10
39.86381280347545
 20
-8.717256402673442
 30
0.0
 11
41.62604729397679
 21
-8.717111756885037
 31
0.0
  0
LINE
  5
6F
  8
0
 10
41.62604729397679
 20
-8.717111756885037
 30
0.0
 11
41.6260472939768
 21
1.084992495284201
 31
0.0
  0
ARC
  5
70
  8
0
 10
35.03284633883216
 20
1.654884518808739
 30
0.0
 40
6.617784807123685
 50
355.0598423165288
 51
16.9664004698063
  0
ARC
  5
71
  8
0
 10
36.31542979598231
 20
1.423420627205638
 30
0.0
 40
5.490972463823026
 50
23.19410999558348
 51
92.69654286682575
  0
LINE
  5
72
  8
0
 10
36.05710052118985
 20
6.908313022161803
 30
0.0
 11
14.629580913697
 21
6.908313023021066
 31
0.0
  0
LINE
  5
73
  8
0
 10
14.629580913697
 20
6.908313023021065
 30
0.0
 11
14.55182342201478
 21
6.905831405772054
 31
0.0
  0
LINE
  5
74
  8
0
 10
14.55182342201478
 20
6.905831405772054
 30
0.0
 11
14.43931247488863
 21
6.900032775396229
 31
0.0
  0
LINE
  5
75
  8
0
 10
14.43931247488863
 20
6.900032775396229
 30
0.0
 11
14.32709839169316
 21
6.891626825410023
 31
0.0
  0
LINE
  5
76
  8
0
 10
14.32709839169316
 20
6.891626825410023
 30
0.0
 11
14.21519272806077
 21
6.880611466605615
 31
0.0
  0
LINE
  5
77
  8
0
 10
14.21519272806077
 20
6.880611466605615
 30
0.0
 11
14.10360939454703
 21
6.866986483255216
 31
0.0
  0
LINE
  5
78
  8
0
 10
14.10360939454703
 20
6.866986483255216
 30
0.0
 11
13.99236488911414
 21
6.85075398251807
 31
0.0
  0
LINE
  5
79
  8
0
 10
13.99236488911414
 20
6.85075398251807
 30
0.0
 11
13.88147851843451
 21
6.831918832856687
 31
0.0
  0
LINE
  5
7A
  8
0
 10
13.88147851843451
 20
6.831918832856687
 30
0.0
 11
13.77097259081425
 21
6.810489074553463
 31
0.0
  0
LINE
  5
7B
  8
0
 10
13.77097259081425
 20
6.810489074553463
 30
0.0
 11
13.66087259793685
 21
6.786476319236496
 31
0.0
  0
LINE
  5
7C
  8
0
 10
13.66087259793685
 20
6.786476319236496
 30
0.0
 11
13.55120739736935
 21
6.759896151215823
 31
0.0
  0
LINE
  5
7D
  8
0
 10
13.55120739736935
 20
6.759896151215823
 30
0.0
 11
13.44200942607869
 21
6.730768586880997
 31
0.0
  0
LINE
  5
7E
  8
0
 10
13.44200942607869
 20
6.730768586880997
 30
0.0
 11
13.33331499266566
 21
6.699118681485102
 31
0.0
  0
LINE
  5
7F
  8
0
 10
13.33331499266566
 20
6.699118681485102
 30
0.0
 11
13.22516460060891
 21
6.664977193990104
 31
0.0
  0
LINE
  5
80
  8
0
 10
13.22516460060891
 20
6.664977193990104
 30
0.0
 11
13.11760326794844
 21
6.628381246741906
 31
0.0
  0
LINE
  5
81
  8
0
 10
13.11760326794844
 20
6.628381246741906
 30
0.0
 11
13.01068072338628
 21
6.589374792656053
 31
0.0
  0
LINE
  5
82
  8
0
 10
13.01068072338628
 20
6.589374792656053
 30
0.0
 11
12.90445128867704
 21
6.548008593776725
 31
0.0
  0
LINE
  5
83
  8
0
 10
12.90445128867704
 20
6.548008593776725
 30
0.0
 11
12.7989736374356
 21
6.50434000734639
 31
0.0
  0
LINE
  5
84
  8
0
 10
12.7989736374356
 20
6.50434000734639
 30
0.0
 11
12.69431054615822
 21
6.458432759827243
 31
0.0
  0
LINE
  5
85
  8
0
 10
12.69431054615822
 20
6.458432759827243
 30
0.0
 11
12.59052856637514
 21
6.410356600158195
 31
0.0
  0
LINE
  5
86
  8
0
 10
12.59052856637514
 20
6.410356600158195
 30
0.0
 11
12.48769749659821
 21
6.360186646455971
 31
0.0
  0
LINE
  5
87
  8
0
 10
12.48769749659821
 20
6.360186646455971
 30
0.0
 11
12.38588977540005
 21
6.30800261195176
 31
0.0
  0
LINE
  5
88
  8
0
 10
12.38588977540005
 20
6.30800261195176
 30
0.0
 11
12.28517987216511
 21
6.253888027961945
 31
0.0
  0
LINE
  5
89
  8
0
 10
12.28517987216511
 20
6.253888027961945
 30
0.0
 11
12.18564369618023
 21
6.197929510509255
 31
0.0
  0
LINE
  5
8A
  8
0
 10
12.18564369618023
 20
6.197929510509255
 30
0.0
 11
12.08735805227924
 21
6.140216137748863
 31
0.0
  0
LINE
  5
8B
  8
0
 10
12.08735805227924
 20
6.140216137748863
 30
0.0
 11
11.99040011482705
 21
6.080838871044912
 31
0.0
  0
LINE
  5
8C
  8
0
 10
11.99040011482705
 20
6.080838871044912
 30
0.0
 11
11.89484690221722
 21
6.019889977548129
 31
0.0
  0
LINE
  5
8D
  8
0
 10
11.89484690221722
 20
6.019889977548129
 30
0.0
 11
11.80077474638147
 21
5.957462448151645
 31
0.0
  0
LINE
  5
8E
  8
0
 10
11.80077474638147
 20
5.957462448151645
 30
0.0
 11
11.70825874963699
 21
5.893649403714554
 31
0.0
  0
LINE
  5
8F
  8
0
 10
11.70825874963699
 20
5.893649403714554
 30
0.0
 11
11.61737223654565
 21
5.828543496663632
 31
0.0
  0
LINE
  5
90
  8
0
 10
11.61737223654565
 20
5.828543496663632
 30
0.0
 11
11.52818620465519
 21
5.762236312116617
 31
0.0
  0
LINE
  5
91
  8
0
 10
11.52818620465519
 20
5.762236312116617
 30
0.0
 11
11.44076875116093
 21
5.69481776118711
 31
0.0
  0
LINE
  5
92
  8
0
 10
11.44076875116093
 20
5.69481776118711
 30
0.0
 11
11.35518443844231
 21
5.626375454442891
 31
0.0
  0
LINE
  5
93
  8
0
 10
11.35518443844231
 20
5.626375454442891
 30
0.0
 11
11.27149363551998
 21
5.556994067545848
 31
0.0
  0
LINE
  5
94
  8
0
 10
11.27149363551998
 20
5.556994067545848
 30
0.0
 11
11.18975186068278
 21
5.486754708383442
 31
0.0
  0
LINE
  5
95
  8
0
 10
11.18975186068278
 20
5.486754708383442
 30
0.0
 11
11.11000917861494
 21
5.415734330798053
 31
0.0
  0
LINE
  5
96
  8
0
 10
11.11000917861494
 20
5.415734330798053
 30
0.0
 11
11.03230973586957
 21
5.344005266603265
 31
0.0
  0
LINE
  5
97
  8
0
 10
11.03230973586957
 20
5.344005266603265
 30
0.0
 11
10.95669135084227
 21
5.271634804198029
 31
0.0
  0
LINE
  5
98
  8
0
 10
10.95669135084227
 20
5.271634804198029
 30
0.0
 11
10.88318511431231
 21
5.19868477572277
 31
0.0
  0
LINE
  5
99
  8
0
 10
10.88318511431231
 20
5.19868477572277
 30
0.0
 11
10.81181521024121
 21
5.125211319707964
 31
0.0
  0
LINE
  5
9A
  8
0
 10
10.81181521024121
 20
5.125211319707964
 30
0.0
 11
10.74259929568612
 21
5.051265089203606
 31
0.0
  0
LINE
  5
9B
  8
0
 10
10.74259929568612
 20
5.051265089203606
 30
0.0
 11
10.67554910097058
 21
4.976891635401145
 31
0.0
  0
LINE
  5
9C
  8
0
 10
10.67554910097058
 20
4.976891635401145
 30
0.0
 11
10.61067103661761
 21
4.902131796879296
 31
0.0
  0
LINE
  5
9D
  8
0
 10
10.61067103661761
 20
4.902131796879296
 30
0.0
 11
10.54796675584722
 21
4.827022059578153
 31
0.0
  0
LINE
  5
9E
  8
0
 10
10.54796675584722
 20
4.827022059578153
 30
0.0
 11
10.48743360427556
 21
4.751594842468209
 31
0.0
  0
LINE
  5
9F
  8
0
 10
10.48743360427556
 20
4.751594842468209
 30
0.0
 11
10.42906502517848
 21
4.675878753947668
 31
0.0
  0
LINE
  5
A0
  8
0
 10
10.42906502517848
 20
4.675878753947668
 30
0.0
 11
10.37285096316073
 21
4.599898847360843
 31
0.0
  0
LINE
  5
A1
  8
0
 10
10.37285096316073
 20
4.599898847360843
 30
0.0
 11
10.31877827080807
 21
4.523676882936263
 31
0.0
  0
LINE
  5
A2
  8
0
 10
10.31877827080807
 20
4.523676882936263
 30
0.0
 11
10.26683112291154
 21
4.447231606020965
 31
0.0
  0
LINE
  5
A3
  8
0
 10
10.26683112291154
 20
4.447231606020965
 30
0.0
 11
10.21699143367457
 21
4.370579031734518
 31
0.0
  0
LINE
  5
A4
  8
0
 10
10.21699143367457
 20
4.370579031734518
 30
0.0
 11
10.16923927390868
 21
4.293732729971071
 31
0.0
  0
LINE
  5
A5
  8
0
 10
10.16923927390868
 20
4.293732729971071
 30
0.0
 11
10.12355328494664
 21
4.216704113031063
 31
0.0
  0
LINE
  5
A6
  8
0
 10
10.12355328494664
 20
4.216704113031063
 30
0.0
 11
10.07991108422334
 21
4.139502729928104
 31
0.0
  0
LINE
  5
A7
  8
0
 10
10.07991108422334
 20
4.139502729928104
 30
0.0
 11
10.03828966757415
 21
4.06213656332552
 31
0.0
  0
LINE
  5
A8
  8
0
 10
10.03828966757415
 20
4.06213656332552
 30
0.0
 11
9.998665810083926
 21
3.984612325552043
 31
0.0
  0
LINE
  5
A9
  8
0
 10
9.998665810083926
 20
3.984612325552043
 30
0.0
 11
9.96101643253319
 21
3.906935728046178
 31
0.0
  0
LINE
  5
AA
  8
0
 10
9.96101643253319
 20
3.906935728046178
 30
0.0
 11
9.925318880514311
 21
3.829111683350277
 31
0.0
  0
LINE
  5
AB
  8
0
 10
9.925318880514311
 20
3.829111683350277
 30
0.0
 11
9.891551169144893
 21
3.751144480533288
 31
0.0
  0
LINE
  5
AC
  8
0
 10
9.891551169144893
 20
3.751144480533288
 30
0.0
 11
9.85969222448534
 21
3.673037957993865
 31
0.0
  0
LINE
  5
AD
  8
0
 10
9.85969222448534
 20
3.673037957993865
 30
0.0
 11
9.829722073666622
 21
3.594795634724401
 31
0.0
  0
LINE
  5
AE
  8
0
 10
9.829722073666622
 20
3.594795634724401
 30
0.0
 11
9.801621904820962
 21
3.516420736129696
 31
0.0
  0
LINE
  5
AF
  8
0
 10
9.801621904820962
 20
3.516420736129696
 30
0.0
 11
9.775374075722759
 21
3.437916178306536
 31
0.0
  0
LINE
  5
B0
  8
0
 10
9.775374075722759
 20
3.437916178306536
 30
0.0
 11
9.750962120751524
 21
3.359284551129154
 31
0.0
  0
LINE
  5
B1
  8
0
 10
9.750962120751524
 20
3.359284551129154
 30
0.0
 11
9.72837076551681
 21
3.280528111826677
 31
0.0
  0
LINE
  5
B2
  8
0
 10
9.72837076551681
 20
3.280528111826677
 30
0.0
 11
9.707585960932844
 21
3.201648805194089
 31
0.0
  0
LINE
  5
B3
  8
0
 10
9.707585960932844
 20
3.201648805194089
 30
0.0
 11
9.688594924955186
 21
3.122648294295165
 31
0.0
  0
LINE
  5
B4
  8
0
 10
9.688594924955186
 20
3.122648294295165
 30
0.0
 11
9.67138618427127
 21
3.043527991405535
 31
0.0
  0
LINE
  5
B5
  8
0
 10
9.67138618427127
 20
3.043527991405535
 30
0.0
 11
9.655949607130863
 21
2.96428908470674
 31
0.0
  0
LINE
  5
B6
  8
0
 10
9.655949607130863
 20
2.96428908470674
 30
0.0
 11
9.642276413685451
 21
2.884932554194378
 31
0.0
  0
LINE
  5
B7
  8
0
 10
9.642276413685451
 20
2.884932554194378
 30
0.0
 11
9.630359177467506
 21
2.80545918333725
 31
0.0
  0
LINE
  5
B8
  8
0
 10
9.630359177467506
 20
2.80545918333725
 30
0.0
 11
9.620191826500918
 21
2.72586957067741
 31
0.0
  0
LINE
  5
B9
  8
0
 10
9.620191826500918
 20
2.72586957067741
 30
0.0
 11
9.611769643681267
 21
2.646164144142776
 31
0.0
  0
LINE
  5
BA
  8
0
 10
9.611769643681267
 20
2.646164144142776
 30
0.0
 11
9.60508926530274
 21
2.566343182245483
 31
0.0
  0
LINE
  5
BB
  8
0
 10
9.60508926530274
 20
2.566343182245483
 30
0.0
 11
9.600148678854893
 21
2.486406837992774
 31
0.0
  0
LINE
  5
BC
  8
0
 10
9.600148678854893
 20
2.486406837992774
 30
0.0
 11
9.600148678854886
 21
-8.72458229058913
 31
0.0
  0
LINE
  5
BD
  8
0
 10
9.600148678854886
 20
-8.72458229058913
 30
0.0
 11
11.29169176965978
 21
-8.717111756885016
 31
0.0
  0
LINE
  5
BE
  8
0
 10
39.76546648252072
 20
1.526085964711193
 30
0.0
 11
39.86381280347545
 21
-8.717256402673442
 31
0.0
  0
LINE
  5
BF
  8
0
 10
39.86381280347545
 20
-8.717256402673442
 30
0.0
 11
11.29169176965978
 21
-8.717111756885016
 31
0.0
  0
LINE
  5
C0
  8
0
 10
11.29169176965978
 20
-8.717111756885016
 30
0.0
 11
11.38147116671598
 21
2.007189873765707
 31
0.0
  0
LINE
  5
C1
  8
0
 10
11.38147116671598
 20
2.007189873765707
 30
0.0
 11
11.38083820818439
 21
2.033784117818498
 31
0.0
  0
LINE
  5
C2
  8
0
 10
11.38083820818439
 20
2.033784117818498
 30
0.0
 11
11.38067826912562
 21
2.060524438174337
 31
0.0
  0
LINE
  5
C3
  8
0
 10
11.38067826912562
 20
2.060524438174337
 30
0.0
 11
11.38177802278399
 21
2.114443425272765
 31
0.0
  0
LINE
  5
C4
  8
0
 10
11.38177802278399
 20
2.114443425272765
 30
0.0
 11
11.38477225435497
 21
2.168947054510186
 31
0.0
  0
LINE
  5
C5
  8
0
 10
11.38477225435497
 20
2.168947054510186
 30
0.0
 11
11.38966369169403
 21
2.224035280784808
 31
0.0
  0
LINE
  5
C6
  8
0
 10
11.38966369169403
 20
2.224035280784808
 30
0.0
 11
11.39645569676717
 21
2.279707451626972
 31
0.0
  0
LINE
  5
C7
  8
0
 10
11.39645569676717
 20
2.279707451626972
 30
0.0
 11
11.40515199003408
 21
2.335961955822047
 31
0.0
  0
LINE
  5
C8
  8
0
 10
11.40515199003408
 20
2.335961955822047
 30
0.0
 11
11.41575635316303
 21
2.392795850303497
 31
0.0
  0
LINE
  5
C9
  8
0
 10
11.41575635316303
 20
2.392795850303497
 30
0.0
 11
11.42827232320991
 21
2.450204478485728
 31
0.0
  0
LINE
  5
CA
  8
0
 10
11.42827232320991
 20
2.450204478485728
 30
0.0
 11
11.4427028865138
 21
2.508181088579322
 31
0.0
  0
LINE
  5
CB
  8
0
 10
11.4427028865138
 20
2.508181088579322
 30
0.0
 11
11.45905017375973
 21
2.566716460008783
 31
0.0
  0
LINE
  5
CC
  8
0
 10
11.45905017375973
 20
2.566716460008783
 30
0.0
 11
11.47731515800416
 21
2.625798550398202
 31
0.0
  0
LINE
  5
CD
  8
0
 10
11.47731515800416
 20
2.625798550398202
 30
0.0
 11
11.49749735386754
 21
2.685412150659436
 31
0.0
  0
LINE
  5
CE
  8
0
 10
11.49749735386754
 20
2.685412150659436
 30
0.0
 11
11.51959451592371
 21
2.745538539252699
 31
0.0
  0
LINE
  5
CF
  8
0
 10
11.51959451592371
 20
2.745538539252699
 30
0.0
 11
11.54360231503632
 21
2.8061551068278
 31
0.0
  0
LINE
  5
D0
  8
0
 10
11.54360231503632
 20
2.8061551068278
 30
0.0
 11
11.56951395871526
 21
2.867234905677712
 31
0.0
  0
LINE
  5
D1
  8
0
 10
11.56951395871526
 20
2.867234905677712
 30
0.0
 11
11.59731978942017
 21
2.928746169572773
 31
0.0
  0
LINE
  5
D2
  8
0
 10
11.59731978942017
 20
2.928746169572773
 30
0.0
 11
11.62700688355456
 21
2.990651835274407
 31
0.0
  0
LINE
  5
D3
  8
0
 10
11.62700688355456
 20
2.990651835274407
 30
0.0
 11
11.65855869046651
 21
3.052909137335654
 31
0.0
  0
LINE
  5
D4
  8
0
 10
11.65855869046651
 20
3.052909137335654
 30
0.0
 11
11.69195477300457
 21
3.115469388937496
 31
0.0
  0
LINE
  5
D5
  8
0
 10
11.69195477300457
 20
3.115469388937496
 30
0.0
 11
11.72717058808042
 21
3.178277836011997
 31
0.0
  0
LINE
  5
D6
  8
0
 10
11.72717058808042
 20
3.178277836011997
 30
0.0
 11
11.76417727330398
 21
3.241273522072354
 31
0.0
  0
LINE
  5
D7
  8
0
 10
11.76417727330398
 20
3.241273522072354
 30
0.0
 11
11.80294155149966
 21
3.304389358135754
 31
0.0
  0
LINE
  5
D8
  8
0
 10
11.80294155149966
 20
3.304389358135754
 30
0.0
 11
11.84342593445922
 21
3.367552713266464
 31
0.0
  0
LINE
  5
D9
  8
0
 10
11.84342593445922
 20
3.367552713266464
 30
0.0
 11
11.88558904457563
 21
3.430686210211713
 31
0.0
  0
LINE
  5
DA
  8
0
 10
11.88558904457563
 20
3.430686210211713
 30
0.0
 11
11.92938593987969
 21
3.493708527278061
 31
0.0
  0
LINE
  5
DB
  8
0
 10
11.92938593987969
 20
3.493708527278061
 30
0.0
 11
11.97476840966635
 21
3.556535157367222
 31
0.0
  0
LINE
  5
DC
  8
0
 10
11.97476840966635
 20
3.556535157367222
 30
0.0
 11
12.02168519546398
 21
3.619079058262783
 31
0.0
  0
LINE
  5
DD
  8
0
 10
12.02168519546398
 20
3.619079058262783
 30
0.0
 11
12.0700821825934
 21
3.681251260076395
 31
0.0
  0
LINE
  5
DE
  8
0
 10
12.0700821825934
 20
3.681251260076395
 30
0.0
 11
12.11990259069707
 21
3.742961471854946
 31
0.0
  0
LINE
  5
DF
  8
0
 10
12.11990259069707
 20
3.742961471854946
 30
0.0
 11
12.17108716690398
 21
3.804118709214095
 31
0.0
  0
LINE
  5
E0
  8
0
 10
12.17108716690398
 20
3.804118709214095
 30
0.0
 11
12.22357438568531
 21
3.864631975346399
 31
0.0
  0
LINE
  5
E1
  8
0
 10
12.22357438568531
 20
3.864631975346399
 30
0.0
 11
12.27730065134571
 21
3.924410963055812
 31
0.0
  0
LINE
  5
E2
  8
0
 10
12.27730065134571
 20
3.924410963055812
 30
0.0
 11
12.33220050041515
 21
3.98336675704769
 31
0.0
  0
LINE
  5
E3
  8
0
 10
12.33220050041515
 20
3.98336675704769
 30
0.0
 11
12.38820679881856
 21
4.041412521836195
 31
0.0
  0
LINE
  5
E4
  8
0
 10
12.38820679881856
 20
4.041412521836195
 30
0.0
 11
12.44525092578898
 21
4.098464153141933
 31
0.0
  0
LINE
  5
E5
  8
0
 10
12.44525092578898
 20
4.098464153141933
 30
0.0
 11
12.50326295255852
 21
4.154440914906974
 31
0.0
  0
LINE
  5
E6
  8
0
 10
12.50326295255852
 20
4.154440914906974
 30
0.0
 11
12.56217182050692
 21
4.209266077233563
 31
0.0
  0
LINE
  5
E7
  8
0
 10
12.56217182050692
 20
4.209266077233563
 30
0.0
 11
12.62190551043034
 21
4.262867592721156
 31
0.0
  0
LINE
  5
E8
  8
0
 10
12.62190551043034
 20
4.262867592721156
 30
0.0
 11
12.68239118926908
 21
4.315178870276227
 31
0.0
  0
LINE
  5
E9
  8
0
 10
12.68239118926908
 20
4.315178870276227
 30
0.0
 11
12.74355534795564
 21
4.366139587320405
 31
0.0
  0
LINE
  5
EA
  8
0
 10
12.74355534795564
 20
4.366139587320405
 30
0.0
 11
12.8053239412624
 21
4.415696493533702
 31
0.0
  0
LINE
  5
EB
  8
0
 10
12.8053239412624
 20
4.415696493533702
 30
0.0
 11
12.86762258852362
 21
4.463803956111509
 31
0.0
  0
LINE
  5
EC
  8
0
 10
12.86762258852362
 20
4.463803956111509
 30
0.0
 11
12.93037692888416
 21
4.510423848864253
 31
0.0
  0
LINE
  5
ED
  8
0
 10
12.93037692888416
 20
4.510423848864253
 30
0.0
 11
12.99351303742242
 21
4.555525182830837
 31
0.0
  0
LINE
  5
EE
  8
0
 10
12.99351303742242
 20
4.555525182830837
 30
0.0
 11
13.05695784383085
 21
4.599083725732857
 31
0.0
  0
LINE
  5
EF
  8
0
 10
13.05695784383085
 20
4.599083725732857
 30
0.0
 11
13.12063955672078
 21
4.641081589775911
 31
0.0
  0
LINE
  5
F0
  8
0
 10
13.12063955672078
 20
4.641081589775911
 30
0.0
 11
13.18448810220407
 21
4.681506739101087
 31
0.0
  0
LINE
  5
F1
  8
0
 10
13.18448810220407
 20
4.681506739101087
 30
0.0
 11
13.24843556809904
 21
4.720352465583537
 31
0.0
  0
LINE
  5
F2
  8
0
 10
13.24843556809904
 20
4.720352465583537
 30
0.0
 11
13.31241664867984
 21
4.757616864143404
 31
0.0
  0
LINE
  5
F3
  8
0
 10
13.31241664867984
 20
4.757616864143404
 30
0.0
 11
13.37636909793134
 21
4.793302327031257
 31
0.0
  0
LINE
  5
F4
  8
0
 10
13.37636909793134
 20
4.793302327031257
 30
0.0
 11
13.44023420439526
 21
4.82741508627956
 31
0.0
  0
LINE
  5
F5
  8
0
 10
13.44023420439526
 20
4.82741508627956
 30
0.0
 11
13.50395727452169
 21
4.859964775128654
 31
0.0
  0
LINE
  5
F6
  8
0
 10
13.50395727452169
 20
4.859964775128654
 30
0.0
 11
13.56748811564261
 21
4.890963990388665
 31
0.0
  0
LINE
  5
F7
  8
0
 10
13.56748811564261
 20
4.890963990388665
 30
0.0
 11
13.63078150060852
 21
4.920427860161166
 31
0.0
  0
LINE
  5
F8
  8
0
 10
13.63078150060852
 20
4.920427860161166
 30
0.0
 11
13.6937975858775
 21
4.948373625166369
 31
0.0
  0
LINE
  5
F9
  8
0
 10
13.6937975858775
 20
4.948373625166369
 30
0.0
 11
13.75650231126748
 21
4.974820225430063
 31
0.0
  0
LINE
  5
FA
  8
0
 10
13.75650231126748
 20
4.974820225430063
 30
0.0
 11
13.81886780146675
 21
4.999787886905217
 31
0.0
  0
LINE
  5
FB
  8
0
 10
13.81886780146675
 20
4.999787886905217
 30
0.0
 11
13.88087283159557
 21
5.023297701034807
 31
0.0
  0
LINE
  5
FC
  8
0
 10
13.88087283159557
 20
5.023297701034807
 30
0.0
 11
13.94250345535951
 21
5.045371186396258
 31
0.0
  0
LINE
  5
FD
  8
0
 10
13.94250345535951
 20
5.045371186396258
 30
0.0
 11
14.0037536972538
 21
5.066029843287113
 31
0.0
  0
LINE
  5
FE
  8
0
 10
14.0037536972538
 20
5.066029843287113
 30
0.0
 11
14.06462623585199
 21
5.08529471089252
 31
0.0
  0
LINE
  5
FF
  8
0
 10
14.06462623585199
 20
5.08529471089252
 30
0.0
 11
14.12513279123142
 21
5.103185998638397
 31
0.0
  0
LINE
  5
100
  8
0
 10
14.12513279123142
 20
5.103185998638397
 30
0.0
 11
14.18529376136171
 21
5.119722905862122
 31
0.0
  0
LINE
  5
101
  8
0
 10
14.18529376136171
 20
5.119722905862122
 30
0.0
 11
14.24513756263008
 21
5.134923515668927
 31
0.0
  0
LINE
  5
102
  8
0
 10
14.24513756263008
 20
5.134923515668927
 30
0.0
 11
14.30469995432879
 21
5.148804692916213
 31
0.0
  0
LINE
  5
103
  8
0
 10
14.30469995432879
 20
5.148804692916213
 30
0.0
 11
14.36402324201918
 21
5.161382015338674
 31
0.0
  0
LINE
  5
104
  8
0
 10
14.36402324201918
 20
5.161382015338674
 30
0.0
 11
14.42315517342859
 21
5.17266978879999
 31
0.0
  0
LINE
  5
105
  8
0
 10
14.42315517342859
 20
5.17266978879999
 30
0.0
 11
14.48214771322402
 21
5.182681095685327
 31
0.0
  0
LINE
  5
106
  8
0
 10
14.48214771322402
 20
5.182681095685327
 30
0.0
 11
14.54105581476212
 21
5.191427844284245
 31
0.0
  0
LINE
  5
107
  8
0
 10
14.54105581476212
 20
5.191427844284245
 30
0.0
 11
14.59993623435034
 21
5.198920810783667
 31
0.0
  0
LINE
  5
108
  8
0
 10
14.59993623435034
 20
5.198920810783667
 30
0.0
 11
14.65884645342095
 21
5.20516966250177
 31
0.0
  0
LINE
  5
109
  8
0
 10
14.65884645342095
 20
5.20516966250177
 30
0.0
 11
14.71784364321615
 21
5.21018297373194
 31
0.0
  0
LINE
  5
10A
  8
0
 10
14.71784364321615
 20
5.21018297373194
 30
0.0
 11
14.77698363033871
 21
5.213968241569743
 31
0.0
  0
LINE
  5
10B
  8
0
 10
14.77698363033871
 20
5.213968241569743
 30
0.0
 11
14.83631984229671
 21
5.216531908688641
 31
0.0
  0
LINE
  5
10C
  8
0
 10
14.83631984229671
 20
5.216531908688641
 30
0.0
 11
14.89590220226358
 21
5.217879403754769
 31
0.0
  0
LINE
  5
10D
  8
0
 10
14.89590220226358
 20
5.217879403754769
 30
0.0
 11
14.9557760038322
 21
5.21801518879044
 31
0.0
  0
LINE
  5
10E
  8
0
 10
14.9557760038322
 20
5.21801518879044
 30
0.0
 11
15.01598078519763
 21
5.216942806805235
 31
0.0
  0
LINE
  5
10F
  8
0
 10
15.01598078519763
 20
5.216942806805235
 30
0.0
 11
15.0765492084912
 21
5.214664929435672
 31
0.0
  0
LINE
  5
110
  8
0
 10
15.0765492084912
 20
5.214664929435672
 30
0.0
 11
15.1375059521911
 21
5.211183404606648
 31
0.0
  0
LINE
  5
111
  8
0
 10
15.1375059521911
 20
5.211183404606648
 30
0.0
 11
15.19886660868424
 21
5.206499304201458
 31
0.0
  0
LINE
  5
112
  8
0
 10
15.19886660868424
 20
5.206499304201458
 30
0.0
 11
36.24776813067503
 21
5.248458419019094
 31
0.0
  0
ARC
  5
113
  8
0
 10
36.3669975421568
 20
1.837806679258245
 30
0.0
 40
3.412735111680365
 50
354.7592738973028
 51
92.00212799914073
  0
LINE
  5
114
  8
0
 10
21.45312516458221
 20
16.0573194545189
 30
0.0
 11
14.68797699232889
 21
16.07059494251864
 31
0.0
  0
LINE
  5
115
  8
0
 10
14.68797699232889
 20
16.07059494251864
 30
0.0
 11
14.45405839057242
 21
16.07729640518335
 31
0.0
  0
LINE
  5
116
  8
0
 10
14.45405839057242
 20
16.07729640518334
 30
0.0
 11
14.35616542084479
 21
16.07421464009652
 31
0.0
  0
LINE
  5
117
  8
0
 10
14.35616542084479
 20
16.07421464009652
 30
0.0
 11
14.2779487142482
 21
16.06984885045273
 31
0.0
  0
LINE
  5
118
  8
0
 10
14.2779487142482
 20
16.06984885045273
 30
0.0
 11
14.19575666341013
 21
16.0636487852631
 31
0.0
  0
LINE
  5
119
  8
0
 10
14.19575666341013
 20
16.0636487852631
 30
0.0
 11
14.10958587126562
 21
16.05553838515721
 31
0.0
  0
LINE
  5
11A
  8
0
 10
14.10958587126562
 20
16.05553838515721
 30
0.0
 11
13.92533289894399
 21
16.03325647365286
 31
0.0
  0
LINE
  5
11B
  8
0
 10
13.92533289894399
 20
16.03325647365286
 30
0.0
 11
13.72534449587457
 21
16.00231378154355
 31
0.0
  0
LINE
  5
11C
  8
0
 10
13.72534449587457
 20
16.00231378154355
 30
0.0
 11
13.50998572915714
 21
15.96200924469456
 31
0.0
  0
LINE
  5
11D
  8
0
 10
13.50998572915714
 20
15.96200924469456
 30
0.0
 11
13.27989770680184
 21
15.91168202751162
 31
0.0
  0
LINE
  5
11E
  8
0
 10
13.27989770680184
 20
15.91168202751162
 30
0.0
 11
13.03607714291184
 21
15.85076930506308
 31
0.0
  0
LINE
  5
11F
  8
0
 10
13.03607714291184
 20
15.85076930506308
 30
0.0
 11
12.77993399899371
 21
15.77885472961825
 31
0.0
  0
LINE
  5
120
  8
0
 10
12.77993399899371
 20
15.77885472961825
 30
0.0
 11
12.51327821532513
 21
15.69568685117492
 31
0.0
  0
LINE
  5
121
  8
0
 10
12.51327821532513
 20
15.69568685117492
 30
0.0
 11
12.23826710087641
 21
15.60118107782273
 31
0.0
  0
LINE
  5
122
  8
0
 10
12.23826710087641
 20
15.60118107782273
 30
0.0
 11
11.9573226513268
 21
15.49540942732101
 31
0.0
  0
LINE
  5
123
  8
0
 10
11.9573226513268
 20
15.49540942732101
 30
0.0
 11
11.67304179834631
 21
15.37858734039901
 31
0.0
  0
LINE
  5
124
  8
0
 10
11.67304179834631
 20
15.37858734039901
 30
0.0
 11
11.38811734376812
 21
15.25106466760101
 31
0.0
  0
LINE
  5
125
  8
0
 10
11.38811734376812
 20
15.25106466760101
 30
0.0
 11
11.10526070929106
 21
15.11331812636655
 31
0.0
  0
LINE
  5
126
  8
0
 10
11.10526070929106
 20
15.11331812636655
 30
0.0
 11
10.96543971121799
 21
15.04079258102462
 31
0.0
  0
LINE
  5
127
  8
0
 10
10.96543971121799
 20
15.04079258102462
 30
0.0
 11
10.82711835246502
 21
14.96594319259492
 31
0.0
  0
LINE
  5
128
  8
0
 10
10.82711835246502
 20
14.96594319259492
 30
0.0
 11
10.69060363450485
 21
14.88886157391807
 31
0.0
  0
LINE
  5
129
  8
0
 10
10.69060363450485
 20
14.88886157391807
 30
0.0
 11
10.55618855692871
 21
14.80964570373639
 31
0.0
  0
LINE
  5
12A
  8
0
 10
10.55618855692871
 20
14.80964570373639
 30
0.0
 11
10.42414983919917
 21
14.72839966100843
 31
0.0
  0
LINE
  5
12B
  8
0
 10
10.42414983919917
 20
14.72839966100843
 30
0.0
 11
10.29474543228342
 21
14.64523339867408
 31
0.0
  0
LINE
  5
12C
  8
0
 10
10.29474543228342
 20
14.64523339867408
 30
0.0
 11
10.16821149690663
 21
14.56026261756311
 31
0.0
  0
LINE
  5
12D
  8
0
 10
10.16821149690663
 20
14.56026261756311
 30
0.0
 11
10.04475917168586
 21
14.47360867975438
 31
0.0
  0
LINE
  5
12E
  8
0
 10
10.04475917168586
 20
14.47360867975438
 30
0.0
 11
9.924571361695982
 21
14.38539851784149
 31
0.0
  0
LINE
  5
12F
  8
0
 10
9.924571361695982
 20
14.38539851784149
 30
0.0
 11
9.807800268388524
 21
14.29576439831862
 31
0.0
  0
LINE
  5
130
  8
0
 10
9.807800268388524
 20
14.29576439831862
 30
0.0
 11
9.69456680140621
 21
14.20484331465594
 31
0.0
  0
LINE
  5
131
  8
0
 10
9.69456680140621
 20
14.20484331465594
 30
0.0
 11
9.584960731750407
 21
14.11277623449515
 31
0.0
  0
LINE
  5
132
  8
0
 10
9.584960731750407
 20
14.11277623449515
 30
0.0
 11
9.479040895284138
 21
14.01970733697305
 31
0.0
  0
LINE
  5
133
  8
0
 10
9.479040895284138
 20
14.01970733697305
 30
0.0
 11
9.37683596360859
 21
13.9257831392533
 31
0.0
  0
LINE
  5
134
  8
0
 10
9.37683596360859
 20
13.9257831392533
 30
0.0
 11
9.278346655195119
 21
13.83115134181722
 31
0.0
  0
LINE
  5
135
  8
0
 10
9.278346655195119
 20
13.83115134181722
 30
0.0
 11
9.183548513890718
 21
13.73595956296288
 31
0.0
  0
LINE
  5
136
  8
0
 10
9.183548513890718
 20
13.73595956296288
 30
0.0
 11
9.092394702667564
 21
13.6403540698766
 31
0.0
  0
LINE
  5
137
  8
0
 10
9.092394702667564
 20
13.6403540698766
 30
0.0
 11
9.004818626345461
 21
13.5444785313816
 31
0.0
  0
LINE
  5
138
  8
0
 10
9.004818626345461
 20
13.5444785313816
 30
0.0
 11
8.920736120168613
 21
13.44847282571311
 31
0.0
  0
LINE
  5
139
  8
0
 10
8.920736120168613
 20
13.44847282571311
 30
0.0
 11
8.840047467355298
 21
13.35247186997053
 31
0.0
  0
LINE
  5
13A
  8
0
 10
8.840047467355298
 20
13.35247186997053
 30
0.0
 11
8.762639411478387
 21
13.25660445079028
 31
0.0
  0
LINE
  5
13B
  8
0
 10
8.762639411478387
 20
13.25660445079028
 30
0.0
 11
8.688387205474939
 21
13.16099206507839
 31
0.0
  0
LINE
  5
13C
  8
0
 10
8.688387205474939
 20
13.16099206507839
 30
0.0
 11
8.548806790233154
 21
12.97097514070407
 31
0.0
  0
LINE
  5
13D
  8
0
 10
8.548806790233154
 20
12.97097514070407
 30
0.0
 11
8.420160526290342
 21
12.78320429923344
 31
0.0
  0
LINE
  5
13E
  8
0
 10
8.420160526290342
 20
12.78320429923344
 30
0.0
 11
8.301258611242897
 21
12.59827180761589
 31
0.0
  0
LINE
  5
13F
  8
0
 10
8.301258611242897
 20
12.59827180761589
 30
0.0
 11
8.190939526994459
 21
12.41653585221673
 31
0.0
  0
LINE
  5
140
  8
0
 10
8.190939526994459
 20
12.41653585221673
 30
0.0
 11
8.088138003167405
 21
12.23808122797942
 31
0.0
  0
LINE
  5
141
  8
0
 10
8.088138003167405
 20
12.23808122797942
 30
0.0
 11
7.991939078283083
 21
12.06269568715992
 31
0.0
  0
LINE
  5
142
  8
0
 10
7.991939078283083
 20
12.06269568715992
 30
0.0
 11
7.901609177374002
 21
11.88987131263499
 31
0.0
  0
LINE
  5
143
  8
0
 10
7.901609177374002
 20
11.88987131263499
 30
0.0
 11
7.816582013588192
 21
11.71885451709757
 31
0.0
  0
LINE
  5
144
  8
0
 10
7.816582013588192
 20
11.71885451709757
 30
0.0
 11
7.736429799036009
 21
11.54871200800013
 31
0.0
  0
LINE
  5
145
  8
0
 10
7.736429799036009
 20
11.54871200800013
 30
0.0
 11
7.660841537776924
 21
11.37838951179566
 31
0.0
  0
LINE
  5
146
  8
0
 10
7.660841537776924
 20
11.37838951179566
 30
0.0
 11
7.589603451811376
 21
11.20676774902156
 31
0.0
  0
LINE
  5
147
  8
0
 10
7.589603451811376
 20
11.20676774902156
 30
0.0
 11
7.532815225534367
 21
11.06022288056539
 31
0.0
  0
LINE
  5
148
  8
0
 10
21.45312516458221
 20
20.1080063318756
 30
0.0
 11
30.13537777822605
 21
20.1080063318756
 31
0.0
  0
LINE
  5
149
  8
0
 10
30.13537777822605
 20
20.1080063318756
 30
0.0
 11
25.84647537173891
 21
17.82870459794456
 31
0.0
  0
LINE
  5
14A
  8
0
 10
25.84647537173891
 20
17.82870459794456
 30
0.0
 11
21.45312516458221
 21
20.1080063318756
 31
0.0
  0
LINE
  5
14B
  8
0
 10
21.45312516458221
 20
20.1080063318756
 30
0.0
 11
21.45312516458221
 21
13.29938048649401
 31
0.0
  0
LINE
  5
14C
  8
0
 10
21.45312516458221
 20
13.29938048649401
 30
0.0
 11
25.85280230791232
 21
10.02053364203507
 31
0.0
  0
LINE
  5
14D
  8
0
 10
25.85280230791232
 20
10.02053364203507
 30
0.0
 11
25.84647537173891
 21
17.82870459794456
 31
0.0
  0
LINE
  5
14E
  8
0
 10
30.13537777822604
 20
13.299380486494
 30
0.0
 11
25.85280230791232
 21
10.02053364203507
 31
0.0
  0
LINE
  5
14F
  8
0
 10
30.13537777822605
 20
20.1080063318756
 30
0.0
 11
30.13537777822604
 21
13.299380486494
 31
0.0
  0
LINE
  5
150
  8
0
 10
30.13537777822605
 20
18.66052174348123
 30
0.0
 11
35.1444135565492
 21
18.66052174348123
 31
0.0
  0
ARC
  5
151
  8
0
 10
35.08194042557694
 20
17.03575201770019
 30
0.0
 40
1.625970342259687
 50
11.71869176759982
 51
87.79803608585858
  0
LINE
  5
152
  8
0
 10
36.67402002188056
 20
17.36599755202543
 30
0.0
 11
36.67403322336122
 21
16.01748094370207
 31
0.0
  0
LINE
  5
153
  8
0
 10
14.45405839010355
 20
16.07729640517556
 30
0.0
 11
14.45405839010355
 21
17.36599755202545
 31
0.0
  0
ARC
  5
154
  8
0
 10
16.3770868389709
 20
16.73212261763015
 30
0.0
 40
2.024805138181904
 50
107.7515576866079
 51
161.7565772747258
  0
LINE
  5
155
  8
0
 10
15.75974361269836
 20
18.66052174348124
 30
0.0
 11
21.45312516458221
 21
18.66052174348124
 31
0.0
  0
LINE
  5
156
  8
0
 10
43.64888207500068
 20
11.05606996770954
 30
0.0
 11
43.58031531082725
 21
11.19190817295819
 31
0.0
  0
LINE
  5
157
  8
0
 10
43.58031531082725
 20
11.19190817295819
 30
0.0
 11
43.51997472987293
 21
11.2993239946095
 31
0.0
  0
LINE
  5
158
  8
0
 10
43.51997472987293
 20
11.2993239946095
 30
0.0
 11
43.24105073888359
 21
11.76211874916688
 31
0.0
  0
LINE
  5
159
  8
0
 10
43.24105073888359
 20
11.76211874916688
 30
0.0
 11
42.73987470119948
 21
12.5489319596836
 31
0.0
  0
LINE
  5
15A
  8
0
 10
42.73987470119948
 20
12.5489319596836
 30
0.0
 11
42.43557030218707
 21
13.00175851243938
 31
0.0
  0
LINE
  5
15B
  8
0
 10
42.43557030218707
 20
13.00175851243938
 30
0.0
 11
42.11857338847732
 21
13.44828798922067
 31
0.0
  0
LINE
  5
15C
  8
0
 10
42.11857338847732
 20
13.44828798922067
 30
0.0
 11
41.96027596920078
 21
13.65926866424015
 31
0.0
  0
LINE
  5
15D
  8
0
 10
41.96027596920078
 20
13.65926866424015
 30
0.0
 11
41.80410627074806
 21
13.85793069443925
 31
0.0
  0
LINE
  5
15E
  8
0
 10
41.80410627074806
 20
13.85793069443925
 30
0.0
 11
41.65097955932643
 21
14.04221540131179
 31
0.0
  0
LINE
  5
15F
  8
0
 10
41.65097955932643
 20
14.04221540131179
 30
0.0
 11
41.50130382978816
 21
14.21098745878552
 31
0.0
  0
LINE
  5
160
  8
0
 10
41.50130382978816
 20
14.21098745878552
 30
0.0
 11
41.42776626193524
 21
14.28943070463607
 31
0.0
  0
LINE
  5
161
  8
0
 10
41.42776626193524
 20
14.28943070463607
 30
0.0
 11
41.35505455354418
 21
14.36393390791584
 31
0.0
  0
LINE
  5
162
  8
0
 10
41.35505455354418
 20
14.36393390791584
 30
0.0
 11
41.28311556013149
 21
14.4345614110682
 31
0.0
  0
LINE
  5
163
  8
0
 10
41.28311556013149
 20
14.4345614110682
 30
0.0
 11
41.21188124780836
 21
14.50141176614871
 31
0.0
  0
LINE
  5
164
  8
0
 10
41.21188124780836
 20
14.50141176614871
 30
0.0
 11
41.14127116506647
 21
14.56461433042666
 31
0.0
  0
LINE
  5
165
  8
0
 10
41.14127116506647
 20
14.56461433042666
 30
0.0
 11
41.07119503953663
 21
14.62432569402927
 31
0.0
  0
LINE
  5
166
  8
0
 10
41.07119503953663
 20
14.62432569402927
 30
0.0
 11
41.0015556919856
 21
14.68072568123325
 31
0.0
  0
LINE
  5
167
  8
0
 10
41.0015556919856
 20
14.68072568123325
 30
0.0
 11
40.93225207528547
 21
14.73401318379904
 31
0.0
  0
LINE
  5
168
  8
0
 10
40.93225207528547
 20
14.73401318379904
 30
0.0
 11
40.86318231347644
 21
14.78440199305365
 31
0.0
  0
LINE
  5
169
  8
0
 10
40.86318231347644
 20
14.78440199305365
 30
0.0
 11
40.79424661827894
 21
14.83211676739037
 31
0.0
  0
LINE
  5
16A
  8
0
 10
40.79424661827894
 20
14.83211676739037
 30
0.0
 11
40.72534989451625
 21
14.87738934351925
 31
0.0
  0
LINE
  5
16B
  8
0
 10
40.72534989451625
 20
14.87738934351925
 30
0.0
 11
40.65640422298661
 21
14.92045518313454
 31
0.0
  0
LINE
  5
16C
  8
0
 10
40.65640422298661
 20
14.92045518313454
 30
0.0
 11
40.58733134713307
 21
14.96154981754426
 31
0.0
  0
LINE
  5
16D
  8
0
 10
40.58733134713307
 20
14.96154981754426
 30
0.0
 11
40.51806538100416
 21
15.00090510389711
 31
0.0
  0
LINE
  5
16E
  8
0
 10
40.51806538100416
 20
15.00090510389711
 30
0.0
 11
40.37877232662616
 21
15.07528116967304
 31
0.0
  0
LINE
  5
16F
  8
0
 10
40.37877232662616
 20
15.07528116967304
 30
0.0
 11
40.23837290614135
 21
15.14520150443566
 31
0.0
  0
LINE
  5
170
  8
0
 10
40.23837290614135
 20
15.14520150443566
 30
0.0
 11
39.81513923461924
 21
15.33915655666335
 31
0.0
  0
LINE
  5
171
  8
0
 10
39.81513923461924
 20
15.33915655666335
 30
0.0
 11
39.06555706191627
 21
15.66802197965291
 31
0.0
  0
LINE
  5
172
  8
0
 10
39.06555706191627
 20
15.66802197965291
 30
0.0
 11
38.86838802913938
 21
15.74941594992313
 31
0.0
  0
LINE
  5
173
  8
0
 10
38.86838802913938
 20
15.74941594992313
 30
0.0
 11
38.7762699027565
 21
15.78366872096645
 31
0.0
  0
LINE
  5
174
  8
0
 10
38.7762699027565
 20
15.78366872096645
 30
0.0
 11
38.73068036311911
 21
15.79927391626016
 31
0.0
  0
LINE
  5
175
  8
0
 10
38.73068036311911
 20
15.79927391626016
 30
0.0
 11
38.68487675640368
 21
15.8139322789479
 31
0.0
  0
LINE
  5
176
  8
0
 10
38.68487675640368
 20
15.8139322789479
 30
0.0
 11
38.63845453783497
 21
15.82770378536442
 31
0.0
  0
LINE
  5
177
  8
0
 10
38.63845453783497
 20
15.82770378536442
 30
0.0
 11
38.59101865741464
 21
15.8406528274891
 31
0.0
  0
LINE
  5
178
  8
0
 10
38.59101865741464
 20
15.8406528274891
 30
0.0
 11
38.54219183186808
 21
15.85284652388479
 31
0.0
  0
LINE
  5
179
  8
0
 10
38.54219183186808
 20
15.85284652388479
 30
0.0
 11
38.49162067418111
 21
15.86435338860543
 31
0.0
  0
LINE
  5
17A
  8
0
 10
38.49162067418111
 20
15.86435338860543
 30
0.0
 11
38.43898189194854
 21
15.87524199446497
 31
0.0
  0
LINE
  5
17B
  8
0
 10
38.43898189194854
 20
15.87524199446497
 30
0.0
 11
38.3839924172462
 21
15.88557913172964
 31
0.0
  0
LINE
  5
17C
  8
0
 10
38.3839924172462
 20
15.88557913172964
 30
0.0
 11
38.26615483201819
 21
15.90483801128784
 31
0.0
  0
LINE
  5
17D
  8
0
 10
38.26615483201819
 20
15.90483801128784
 30
0.0
 11
38.13746820311442
 21
15.92250270135566
 31
0.0
  0
LINE
  5
17E
  8
0
 10
38.13746820311442
 20
15.92250270135566
 30
0.0
 11
37.99898264990029
 21
15.93874431876162
 31
0.0
  0
LINE
  5
17F
  8
0
 10
37.99898264990029
 20
15.93874431876162
 30
0.0
 11
37.70106753476567
 21
15.96699393545218
 31
0.0
  0
LINE
  5
180
  8
0
 10
37.70106753476567
 20
15.96699393545218
 30
0.0
 11
37.38827629583106
 21
15.98935157518292
 31
0.0
  0
LINE
  5
181
  8
0
 10
37.38827629583106
 20
15.98935157518292
 30
0.0
 11
37.07056303004055
 21
16.00566569625471
 31
0.0
  0
LINE
  5
182
  8
0
 10
37.07056303004055
 20
16.00566569625471
 30
0.0
 11
36.75308020317767
 21
16.01588112707865
 31
0.0
  0
LINE
  5
183
  8
0
 10
36.75308020317767
 20
16.01588112707865
 30
0.0
 11
36.43779823171176
 21
16.0199948289271
 31
0.0
  0
LINE
  5
184
  8
0
 10
36.43779823171176
 20
16.0199948289271
 30
0.0
 11
30.13537777822604
 21
16.02024151456125
 31
0.0
  0
LINE
  5
185
  8
0
 10
4.438417529550229
 20
-8.717374891984246
 30
0.0
 11
7.416992059271603
 21
-8.7136960325019
 31
0.0
  0
LINE
  5
186
  8
0
 10
7.416992059271603
 20
-8.7136960325019
 30
0.0
 11
7.402649388155072
 21
-8.694797288481169
 31
0.0
  0
LINE
  5
187
  8
0
 10
7.402649388155072
 20
-8.694797288481169
 30
0.0
 11
7.388596769987505
 21
-8.675082839936465
 31
0.0
  0
LINE
  5
188
  8
0
 10
7.388596769987505
 20
-8.675082839936465
 30
0.0
 11
7.374834328849023
 21
-8.654552042029925
 31
0.0
  0
LINE
  5
189
  8
0
 10
7.374834328849023
 20
-8.654552042029925
 30
0.0
 11
7.361362239113894
 21
-8.633203494176703
 31
0.0
  0
LINE
  5
18A
  8
0
 10
7.361362239113894
 20
-8.633203494176703
 30
0.0
 11
7.34818070914074
 21
-8.611034891787739
 31
0.0
  0
LINE
  5
18B
  8
0
 10
7.34818070914074
 20
-8.611034891787739
 30
0.0
 11
7.335289964962737
 21
-8.588042878012502
 31
0.0
  0
LINE
  5
18C
  8
0
 10
7.335289964962737
 20
-8.588042878012502
 30
0.0
 11
7.322690233977831
 21
-8.564222895481771
 31
0.0
  0
LINE
  5
18D
  8
0
 10
7.322690233977831
 20
-8.564222895481771
 30
0.0
 11
7.310381728638935
 21
-8.539569038050377
 31
0.0
  0
LINE
  5
18E
  8
0
 10
7.310381728638935
 20
-8.539569038050377
 30
0.0
 11
7.298364630056405
 21
-8.514073901709954
 31
0.0
  0
LINE
  5
18F
  8
0
 10
7.298364630056405
 20
-8.514073901709954
 30
0.0
 11
7.286639069319413
 21
-8.487728413921236
 31
0.0
  0
LINE
  5
190
  8
0
 10
7.286639069319413
 20
-8.487728413921236
 30
0.0
 11
7.275205103026844
 21
-8.460521608165228
 31
0.0
  0
LINE
  5
191
  8
0
 10
7.275205103026844
 20
-8.460521608165228
 30
0.0
 11
7.264062686537081
 21
-8.432440376913956
 31
0.0
  0
LINE
  5
192
  8
0
 10
7.264062686537081
 20
-8.432440376913956
 30
0.0
 11
7.253211647130078
 21
-8.403469223771163
 31
0.0
  0
LINE
  5
193
  8
0
 10
7.253211647130078
 20
-8.403469223771163
 30
0.0
 11
7.242651657169414
 21
-8.373590015613036
 31
0.0
  0
LINE
  5
194
  8
0
 10
7.242651657169414
 20
-8.373590015613036
 30
0.0
 11
7.222402579431908
 21
-8.311020230962054
 31
0.0
  0
LINE
  5
195
  8
0
 10
7.222402579431908
 20
-8.311020230962054
 30
0.0
 11
7.203308719559969
 21
-8.244523870078705
 31
0.0
  0
LINE
  5
196
  8
0
 10
7.203308719559969
 20
-8.244523870078705
 30
0.0
 11
7.18535930138548
 21
-8.173837558184728
 31
0.0
  0
LINE
  5
197
  8
0
 10
7.18535930138548
 20
-8.173837558184728
 30
0.0
 11
7.168539158646029
 21
-8.098639841135128
 31
0.0
  0
LINE
  5
198
  8
0
 10
7.168539158646029
 20
-8.098639841135128
 30
0.0
 11
7.152828530188782
 21
-8.018551026062276
 31
0.0
  0
LINE
  5
199
  8
0
 10
7.152828530188782
 20
-8.018551026062276
 30
0.0
 11
7.138202868629365
 21
-7.933133182089867
 31
0.0
  0
LINE
  5
19A
  8
0
 10
7.138202868629365
 20
-7.933133182089867
 30
0.0
 11
7.124632855945499
 21
-7.841892604748088
 31
0.0
  0
LINE
  5
19B
  8
0
 10
7.124632855945499
 20
-7.841892604748088
 30
0.0
 11
7.112084944366546
 21
-7.744288534399564
 31
0.0
  0
LINE
  5
19C
  8
0
 10
7.112084944366546
 20
-7.744288534399564
 30
0.0
 11
7.100522104197839
 21
-7.63974433836651
 31
0.0
  0
LINE
  5
19D
  8
0
 10
7.100522104197839
 20
-7.63974433836651
 30
0.0
 11
7.080190562414903
 21
-7.40741654064165
 31
0.0
  0
LINE
  5
19E
  8
0
 10
7.080190562414903
 20
-7.40741654064165
 30
0.0
 11
7.063298696976686
 21
-7.139984184928887
 31
0.0
  0
LINE
  5
19F
  8
0
 10
7.063298696976686
 20
-7.139984184928887
 30
0.0
 11
7.038404955496406
 21
-6.480655275726034
 31
0.0
  0
LINE
  5
1A0
  8
0
 10
7.038404955496406
 20
-6.480655275726034
 30
0.0
 11
7.048033391809952
 21
8.749246437764999
 31
0.0
  0
ARC
  5
1A1
  8
0
 10
15.68904238270928
 20
8.142926362344834
 30
0.0
 40
8.662254926672418
 50
160.3190280878782
 51
175.9862632191596
  0
LINE
  5
1A2
  8
0
 10
7.532815225532728
 20
11.06022288056101
 30
0.0
 11
4.446816354230972
 21
11.06022301799971
 31
0.0
  0
LINE
  5
1A3
  8
0
 10
4.446816354230972
 20
11.06022301799971
 30
0.0
 11
4.438417529550229
 21
-8.717374891984246
 31
0.0
  0
LINE
  5
1A4
  8
0
 10
43.64888207500068
 20
11.05606996770954
 30
0.0
 11
46.81611279194031
 21
11.05627485325236
 31
0.0
  0
LINE
  5
1A5
  8
0
 10
46.81611279194031
 20
11.05627485325236
 30
0.0
 11
46.8077156438985
 21
-8.717374891983898
 31
0.0
  0
LINE
  5
1A6
  8
0
 10
46.8077156438985
 20
-8.717374891983898
 30
0.0
 11
43.81100574917228
 21
-8.710673769150784
 31
0.0
  0
LINE
  5
1A7
  8
0
 10
43.81100574917228
 20
-8.710673769150784
 30
0.0
 11
43.82663863609163
 21
-8.686987578295827
 31
0.0
  0
LINE
  5
1A8
  8
0
 10
43.82663863609163
 20
-8.686987578295827
 30
0.0
 11
43.84201612140448
 21
-8.66234170792035
 31
0.0
  0
LINE
  5
1A9
  8
0
 10
43.84201612140448
 20
-8.66234170792035
 30
0.0
 11
43.8571368685644
 21
-8.63665944992075
 31
0.0
  0
LINE
  5
1AA
  8
0
 10
43.8571368685644
 20
-8.63665944992075
 30
0.0
 11
43.87199873712615
 21
-8.609817556230867
 31
0.0
  0
LINE
  5
1AB
  8
0
 10
43.87199873712615
 20
-8.609817556230867
 30
0.0
 11
43.88659885609665
 21
-8.581650093523354
 31
0.0
  0
LINE
  5
1AC
  8
0
 10
43.88659885609665
 20
-8.581650093523354
 30
0.0
 11
43.90093369728595
 21
-8.551952297911086
 31
0.0
  0
LINE
  5
1AD
  8
0
 10
43.90093369728595
 20
-8.551952297911086
 30
0.0
 11
43.91499914865824
 21
-8.520484429648526
 31
0.0
  0
LINE
  5
1AE
  8
0
 10
43.91499914865824
 20
-8.520484429648526
 30
0.0
 11
43.92879058768279
 21
-8.48697562783315
 31
0.0
  0
LINE
  5
1AF
  8
0
 10
43.92879058768279
 20
-8.48697562783315
 30
0.0
 11
43.94230295469332
 21
-8.45112776492983
 31
0.0
  0
LINE
  5
1B0
  8
0
 10
43.94230295469332
 20
-8.45112776492983
 30
0.0
 11
43.95553082646386
 21
-8.412619296693512
 31
0.0
  0
LINE
  5
1B1
  8
0
 10
43.95553082646386
 20
-8.412619296693512
 30
0.0
 11
43.96846849033472
 21
-8.371109100410639
 31
0.0
  0
LINE
  5
1B2
  8
0
 10
43.96846849033472
 20
-8.371109100410639
 30
0.0
 11
43.98111001855492
 21
-8.326240308538825
 31
0.0
  0
LINE
  5
1B3
  8
0
 10
43.98111001855492
 20
-8.326240308538825
 30
0.0
 11
43.99344934263312
 21
-8.277644142169546
 31
0.0
  0
LINE
  5
1B4
  8
0
 10
43.99344934263312
 20
-8.277644142169546
 30
0.0
 11
44.00548032768839
 21
-8.224943744490849
 31
0.0
  0
LINE
  5
1B5
  8
0
 10
44.00548032768839
 20
-8.224943744490849
 30
0.0
 11
44.01719684680109
 21
-8.167758014250037
 31
0.0
  0
LINE
  5
1B6
  8
0
 10
44.01719684680109
 20
-8.167758014250037
 30
0.0
 11
44.02859285536373
 21
-8.105705439216372
 31
0.0
  0
LINE
  5
1B7
  8
0
 10
44.02859285536373
 20
-8.105705439216372
 30
0.0
 11
44.05040002032722
 21
-7.965494648820741
 31
0.0
  0
LINE
  5
1B8
  8
0
 10
44.05040002032722
 20
-7.965494648820741
 30
0.0
 11
44.07085794462272
 21
-7.801396643009769
 31
0.0
  0
LINE
  5
1B9
  8
0
 10
44.07085794462272
 20
-7.801396643009769
 30
0.0
 11
44.08992885632281
 21
-7.610735105009917
 31
0.0
  0
LINE
  5
1BA
  8
0
 10
44.08992885632281
 20
-7.610735105009917
 30
0.0
 11
44.10758349883082
 21
-7.391194455756822
 31
0.0
  0
LINE
  5
1BB
  8
0
 10
44.10758349883082
 20
-7.391194455756822
 30
0.0
 11
44.1385830131968
 21
-6.858707565033814
 31
0.0
  0
LINE
  5
1BC
  8
0
 10
44.1385830131968
 20
-6.858707565033814
 30
0.0
 11
44.19804974155605
 21
-4.488714403250082
 31
0.0
  0
LINE
  5
1BD
  8
0
 10
44.19804974155605
 20
-4.488714403250082
 30
0.0
 11
44.15000061238204
 21
6.904161110276394
 31
0.0
  0
LINE
  5
1BE
  8
0
 10
44.15000061238204
 20
6.904161110276394
 30
0.0
 11
44.08436570070555
 21
9.06194129508878
 31
0.0
  0
LINE
  5
1BF
  8
0
 10
44.08436570070555
 20
9.06194129508878
 30
0.0
 11
44.05301994507862
 21
9.537743953568294
 31
0.0
  0
LINE
  5
1C0
  8
0
 10
44.05301994507862
 20
9.537743953568294
 30
0.0
 11
44.03476132138012
 21
9.735587549987445
 31
0.0
  0
LINE
  5
1C1
  8
0
 10
44.03476132138012
 20
9.735587549987445
 30
0.0
 11
44.01447482489374
 21
9.910066962397394
 31
0.0
  0
LINE
  5
1C2
  8
0
 10
44.01447482489374
 20
9.910066962397394
 30
0.0
 11
43.99191680691875
 21
10.06417676870847
 31
0.0
  0
LINE
  5
1C3
  8
0
 10
43.99191680691875
 20
10.06417676870847
 30
0.0
 11
43.97970830323212
 21
10.13459909390609
 31
0.0
  0
LINE
  5
1C4
  8
0
 10
43.97970830323212
 20
10.13459909390609
 30
0.0
 11
43.9668386604956
 21
10.20115558096745
 31
0.0
  0
LINE
  5
1C5
  8
0
 10
43.9668386604956
 20
10.20115558096745
 30
0.0
 11
43.95327709670769
 21
10.26426825036673
 31
0.0
  0
LINE
  5
1C6
  8
0
 10
43.95327709670769
 20
10.26426825036673
 30
0.0
 11
43.93899332619542
 21
10.32435862809497
 31
0.0
  0
LINE
  5
1C7
  8
0
 10
43.93899332619542
 20
10.32435862809497
 30
0.0
 11
43.92395773607138
 21
10.38184445594498
 31
0.0
  0
LINE
  5
1C8
  8
0
 10
43.92395773607138
 20
10.38184445594498
 30
0.0
 11
43.90814155510329
 21
10.4371365973825
 31
0.0
  0
LINE
  5
1C9
  8
0
 10
43.90814155510329
 20
10.4371365973825
 30
0.0
 11
43.89151702229157
 21
10.49063595093992
 31
0.0
  0
LINE
  5
1CA
  8
0
 10
43.89151702229157
 20
10.49063595093992
 30
0.0
 11
43.87405755544697
 21
10.54273036360997
 31
0.0
  0
LINE
  5
1CB
  8
0
 10
43.87405755544697
 20
10.54273036360997
 30
0.0
 11
43.85573791976819
 21
10.59379154423945
 31
0.0
  0
LINE
  5
1CC
  8
0
 10
43.85573791976819
 20
10.59379154423945
 30
0.0
 11
43.83653439641948
 21
10.64417197692294
 31
0.0
  0
LINE
  5
1CD
  8
0
 10
43.83653439641948
 20
10.64417197692294
 30
0.0
 11
43.79538941076802
 21
10.74418574702166
 31
0.0
  0
LINE
  5
1CE
  8
0
 10
43.79538941076802
 20
10.74418574702166
 30
0.0
 11
43.75046980811669
 21
10.8450855726972
 31
0.0
  0
LINE
  5
1CF
  8
0
 10
43.75046980811669
 20
10.8450855726972
 30
0.0
 11
43.64888207500068
 21
11.05606996770954
 31
0.0
  0
LINE
  5
1D0
  8
0
 10
7.416992059271603
 20
-8.7136960325019
 30
0.0
 11
9.600148678854886
 21
-8.72458229058913
 31
0.0
  0
LINE
  5
1D1
  8
0
 10
4.269512865768995
 20
-8.71737489198387
 30
0.0
 11
4.438417529550229
 21
-8.717374891984246
 31
0.0
  0
LINE
  5
1D2
  8
0
 10
0.4845186161295558
 20
-4.573660111067568
 30
0.0
 11
0.4856405996368158
 21
-4.609427949903997
 31
0.0
  0
LINE
  5
1D3
  8
0
 10
0.4856405996368158
 20
-4.609427949903997
 30
0.0
 11
0.4874729078582126
 21
-4.64539502118571
 31
0.0
  0
LINE
  5
1D4
  8
0
 10
0.4874729078582126
 20
-4.64539502118571
 30
0.0
 11
0.4900158770265434
 21
-4.681561407162384
 31
0.0
  0
LINE
  5
1D5
  8
0
 10
0.4900158770265434
 20
-4.681561407162384
 30
0.0
 11
0.4932700399776757
 21
-4.717927224639527
 31
0.0
  0
LINE
  5
1D6
  8
0
 10
0.4932700399776757
 20
-4.717927224639527
 30
0.0
 11
0.4972361054910771
 21
-4.754492609887397
 31
0.0
  0
LINE
  5
1D7
  8
0
 10
0.4972361054910771
 20
-4.754492609887397
 30
0.0
 11
0.5019149376303433
 21
-4.791257703549931
 31
0.0
  0
LINE
  5
1D8
  8
0
 10
0.5019149376303433
 20
-4.791257703549931
 30
0.0
 11
0.5073075350837289
 21
-4.828222635553656
 31
0.0
  0
LINE
  5
1D9
  8
0
 10
0.5073075350837289
 20
-4.828222635553656
 30
0.0
 11
0.5134150105046755
 21
-4.86538751001662
 31
0.0
  0
LINE
  5
1DA
  8
0
 10
0.5134150105046755
 20
-4.86538751001662
 30
0.0
 11
0.5202385698023807
 21
-4.902752390132706
 31
0.0
  0
LINE
  5
1DB
  8
0
 10
0.5202385698023807
 20
-4.902752390132706
 30
0.0
 11
0.5277794901334028
 21
-4.940317282416242
 31
0.0
  0
LINE
  5
1DC
  8
0
 10
0.5277794901334028
 20
-4.940317282416242
 30
0.0
 11
0.5450187256248581
 21
-5.016046741230078
 31
0.0
  0
LINE
  5
1DD
  8
0
 10
0.5450187256248581
 20
-5.016046741230078
 30
0.0
 11
0.5651433738783911
 21
-5.092574132908245
 31
0.0
  0
LINE
  5
1DE
  8
0
 10
0.5651433738783911
 20
-5.092574132908245
 30
0.0
 11
0.5881635482329052
 21
-5.169895653263408
 31
0.0
  0
LINE
  5
1DF
  8
0
 10
0.5881635482329052
 20
-5.169895653263408
 30
0.0
 11
0.6140879657995716
 21
-5.248004870547375
 31
0.0
  0
LINE
  5
1E0
  8
0
 10
0.6140879657995716
 20
-5.248004870547375
 30
0.0
 11
0.6429231021499828
 21
-5.32689216075254
 31
0.0
  0
LINE
  5
1E1
  8
0
 10
0.6429231021499828
 20
-5.32689216075254
 30
0.0
 11
0.674672364675812
 21
-5.406544173945734
 31
0.0
  0
LINE
  5
1E2
  8
0
 10
0.674672364675812
 20
-5.406544173945734
 30
0.0
 11
0.709335273303913
 21
-5.486943312826927
 31
0.0
  0
LINE
  5
1E3
  8
0
 10
0.709335273303913
 20
-5.486943312826927
 30
0.0
 11
0.7469066372533903
 21
-5.568067209280233
 31
0.0
  0
LINE
  5
1E4
  8
0
 10
0.7469066372533903
 20
-5.568067209280233
 30
0.0
 11
0.7873756215284743
 21
-5.649888136499712
 31
0.0
  0
LINE
  5
1E5
  8
0
 10
0.7873756215284743
 20
-5.649888136499712
 30
0.0
 11
0.8307245335099698
 21
-5.732372257574271
 31
0.0
  0
LINE
  5
1E6
  8
0
 10
0.8307245335099698
 20
-5.732372257574271
 30
0.0
 11
0.8769274992825093
 21
-5.81547880964736
 31
0.0
  0
LINE
  5
1E7
  8
0
 10
0.8769274992825093
 20
-5.81547880964736
 30
0.0
 11
0.9259491442692005
 21
-5.899159291553993
 31
0.0
  0
LINE
  5
1E8
  8
0
 10
0.9259491442692005
 20
-5.899159291553993
 30
0.0
 11
0.9777434961227265
 21
-5.983356806293587
 31
0.0
  0
LINE
  5
1E9
  8
0
 10
0.9777434961227265
 20
-5.983356806293587
 30
0.0
 11
1.032253451805907
 21
-6.068005796547546
 31
0.0
  0
LINE
  5
1EA
  8
0
 10
1.032253451805907
 20
-6.068005796547546
 30
0.0
 11
1.089410466928711
 21
-6.15303193503266
 31
0.0
  0
LINE
  5
1EB
  8
0
 10
1.089410466928711
 20
-6.15303193503266
 30
0.0
 11
1.149134268891343
 21
-6.238352031233233
 31
0.0
  0
LINE
  5
1EC
  8
0
 10
1.149134268891343
 20
-6.238352031233233
 30
0.0
 11
1.211332966728676
 21
-6.323874209144567
 31
0.0
  0
LINE
  5
1ED
  8
0
 10
1.211332966728676
 20
-6.323874209144567
 30
0.0
 11
1.342736492174994
 21
-6.495119343819258
 31
0.0
  0
LINE
  5
1EE
  8
0
 10
1.342736492174994
 20
-6.495119343819258
 30
0.0
 11
1.482703067503942
 21
-6.66589637213866
 31
0.0
  0
LINE
  5
1EF
  8
0
 10
1.482703067503942
 20
-6.66589637213866
 30
0.0
 11
1.630215536066232
 21
-6.835261690409192
 31
0.0
  0
LINE
  5
1F0
  8
0
 10
1.630215536066232
 20
-6.835261690409192
 30
0.0
 11
1.784192245786546
 21
-7.002227782540469
 31
0.0
  0
LINE
  5
1F1
  8
0
 10
1.784192245786546
 20
-7.002227782540469
 30
0.0
 11
1.943518559045466
 21
-7.165790723083054
 31
0.0
  0
LINE
  5
1F2
  8
0
 10
1.943518559045466
 20
-7.165790723083054
 30
0.0
 11
2.107080240336869
 21
-7.324960183203896
 31
0.0
  0
LINE
  5
1F3
  8
0
 10
2.107080240336869
 20
-7.324960183203896
 30
0.0
 11
2.273796790793761
 21
-7.478790347394385
 31
0.0
  0
LINE
  5
1F4
  8
0
 10
2.273796790793761
 20
-7.478790347394385
 30
0.0
 11
2.442652638967782
 21
-7.626410635040868
 31
0.0
  0
LINE
  5
1F5
  8
0
 10
2.442652638967782
 20
-7.626410635040868
 30
0.0
 11
2.612728098627737
 21
-7.767057537787446
 31
0.0
  0
LINE
  5
1F6
  8
0
 10
2.612728098627737
 20
-7.767057537787446
 30
0.0
 11
2.78323146692846
 21
-7.900109030305981
 31
0.0
  0
LINE
  5
1F7
  8
0
 10
2.78323146692846
 20
-7.900109030305981
 30
0.0
 11
2.953520464678721
 21
-8.025106263051391
 31
0.0
  0
LINE
  5
1F8
  8
0
 10
2.953520464678721
 20
-8.025106263051391
 30
0.0
 11
3.123095040186961
 21
-8.141739921204106
 31
0.0
  0
LINE
  5
1F9
  8
0
 10
3.123095040186961
 20
-8.141739921204106
 30
0.0
 11
3.291578930202648
 21
-8.249823086244154
 31
0.0
  0
LINE
  5
1FA
  8
0
 10
3.291578930202648
 20
-8.249823086244154
 30
0.0
 11
3.458700924916063
 21
-8.349264731005388
 31
0.0
  0
LINE
  5
1FB
  8
0
 10
3.458700924916063
 20
-8.349264731005388
 30
0.0
 11
3.541690660445353
 21
-8.39573651146588
 31
0.0
  0
LINE
  5
1FC
  8
0
 10
3.541690660445353
 20
-8.39573651146588
 30
0.0
 11
3.624276581091972
 21
-8.44004455040905
 31
0.0
  0
LINE
  5
1FD
  8
0
 10
3.624276581091972
 20
-8.44004455040905
 30
0.0
 11
3.70644635829502
 21
-8.482193610300305
 31
0.0
  0
LINE
  5
1FE
  8
0
 10
3.70644635829502
 20
-8.482193610300305
 30
0.0
 11
3.788190958999293
 21
-8.522190086628678
 31
0.0
  0
LINE
  5
1FF
  8
0
 10
3.788190958999293
 20
-8.522190086628678
 30
0.0
 11
3.86950414023017
 21
-8.560041386022077
 31
0.0
  0
LINE
  5
200
  8
0
 10
3.86950414023017
 20
-8.560041386022077
 30
0.0
 11
3.950381949624503
 21
-8.595755322485264
 31
0.0
  0
LINE
  5
201
  8
0
 10
3.950381949624503
 20
-8.595755322485264
 30
0.0
 11
4.030822226415411
 21
-8.629339515005096
 31
0.0
  0
LINE
  5
202
  8
0
 10
4.030822226415411
 20
-8.629339515005096
 30
0.0
 11
4.110824108262934
 21
-8.660800802581402
 31
0.0
  0
LINE
  5
203
  8
0
 10
4.110824108262934
 20
-8.660800802581402
 30
0.0
 11
4.190387552924125
 21
-8.69014470349208
 31
0.0
  0
LINE
  5
204
  8
0
 10
4.190387552924125
 20
-8.69014470349208
 30
0.0
 11
4.269512865768995
 21
-8.71737489198387
 31
0.0
  0
LINE
  5
205
  8
0
 10
0.4845186161322097
 20
6.812744726974778
 30
0.0
 11
0.4845186161295558
 21
-4.573660111067568
 31
0.0
  0
ARC
  5
206
  8
0
 10
6.455327157150654
 20
5.214694516334395
 30
0.0
 40
6.180964254000066
 50
108.9626091851646
 51
165.0163239218718
  0
LINE
  5
207
  8
0
 10
50.72109263918283
 20
-3.997249242275178
 30
0.0
 11
50.7164444656906
 21
-4.293296822359547
 31
0.0
  0
LINE
  5
208
  8
0
 10
50.7164444656906
 20
-4.293296822359547
 30
0.0
 11
50.70905637103818
 21
-4.453201097873155
 31
0.0
  0
LINE
  5
209
  8
0
 10
50.70905637103818
 20
-4.453201097873155
 30
0.0
 11
50.70338752660687
 21
-4.536057996382766
 31
0.0
  0
LINE
  5
20A
  8
0
 10
50.70338752660687
 20
-4.536057996382766
 30
0.0
 11
50.69605147519972
 21
-4.620812118556353
 31
0.0
  0
LINE
  5
20B
  8
0
 10
50.69605147519972
 20
-4.620812118556353
 30
0.0
 11
50.68676218162102
 21
-4.707426211012266
 31
0.0
  0
LINE
  5
20C
  8
0
 10
50.68676218162102
 20
-4.707426211012266
 30
0.0
 11
50.67522292212971
 21
-4.795856220185453
 31
0.0
  0
LINE
  5
20D
  8
0
 10
50.67522292212971
 20
-4.795856220185453
 30
0.0
 11
50.66113225230806
 21
-4.886050847391531
 31
0.0
  0
LINE
  5
20E
  8
0
 10
50.66113225230806
 20
-4.886050847391531
 30
0.0
 11
50.64418979846758
 21
-4.97795111425935
 31
0.0
  0
LINE
  5
20F
  8
0
 10
50.64418979846758
 20
-4.97795111425935
 30
0.0
 11
50.62410206002647
 21
-5.071489924577032
 31
0.0
  0
LINE
  5
210
  8
0
 10
50.62410206002647
 20
-5.071489924577032
 30
0.0
 11
50.60058867361376
 21
-5.166591522520193
 31
0.0
  0
LINE
  5
211
  8
0
 10
50.60058867361376
 20
-5.166591522520193
 30
0.0
 11
50.57338984924786
 21
-5.263170687850293
 31
0.0
  0
LINE
  5
212
  8
0
 10
50.57338984924786
 20
-5.263170687850293
 30
0.0
 11
50.54227426824171
 21
-5.361131827495161
 31
0.0
  0
LINE
  5
213
  8
0
 10
50.54227426824171
 20
-5.361131827495161
 30
0.0
 11
50.50704694119003
 21
-5.460368073783149
 31
0.0
  0
LINE
  5
214
  8
0
 10
50.50704694119003
 20
-5.460368073783149
 30
0.0
 11
50.4675555663641
 21
-5.560760659289455
 31
0.0
  0
LINE
  5
215
  8
0
 10
50.4675555663641
 20
-5.560760659289455
 30
0.0
 11
50.42369308144948
 21
-5.662178993851816
 31
0.0
  0
LINE
  5
216
  8
0
 10
50.42369308144948
 20
-5.662178993851816
 30
0.0
 11
50.37539871569125
 21
-5.764481018198362
 31
0.0
  0
LINE
  5
217
  8
0
 10
50.37539871569125
 20
-5.764481018198362
 30
0.0
 11
50.32265893365313
 21
-5.867513577842763
 31
0.0
  0
LINE
  5
218
  8
0
 10
50.32265893365313
 20
-5.867513577842763
 30
0.0
 11
50.26550706052701
 21
-5.971113047316507
 31
0.0
  0
LINE
  5
219
  8
0
 10
50.26550706052701
 20
-5.971113047316507
 30
0.0
 11
50.20401956060907
 21
-6.075106589872397
 31
0.0
  0
LINE
  5
21A
  8
0
 10
50.20401956060907
 20
-6.075106589872397
 30
0.0
 11
50.13831099732619
 21
-6.179313667525189
 31
0.0
  0
LINE
  5
21B
  8
0
 10
50.13831099732619
 20
-6.179313667525189
 30
0.0
 11
50.06852896035936
 21
-6.283547557576751
 31
0.0
  0
LINE
  5
21C
  8
0
 10
50.06852896035936
 20
-6.283547557576751
 30
0.0
 11
49.99484945573366
 21
-6.387616787401893
 31
0.0
  0
LINE
  5
21D
  8
0
 10
49.99484945573366
 20
-6.387616787401893
 30
0.0
 11
49.91747347113132
 21
-6.491326361741997
 31
0.0
  0
LINE
  5
21E
  8
0
 10
49.91747347113132
 20
-6.491326361741997
 30
0.0
 11
49.83662400417148
 21
-6.594478908259303
 31
0.0
  0
LINE
  5
21F
  8
0
 10
49.83662400417148
 20
-6.594478908259303
 30
0.0
 11
49.75254310391337
 21
-6.696875821455079
 31
0.0
  0
LINE
  5
220
  8
0
 10
49.75254310391337
 20
-6.696875821455079
 30
0.0
 11
49.66548879320065
 21
-6.798318445787853
 31
0.0
  0
LINE
  5
221
  8
0
 10
49.66548879320065
 20
-6.798318445787853
 30
0.0
 11
49.57573168852586
 21
-6.898609358299511
 31
0.0
  0
LINE
  5
222
  8
0
 10
49.57573168852586
 20
-6.898609358299511
 30
0.0
 11
49.4835515007361
 21
-6.997553690441483
 31
0.0
  0
LINE
  5
223
  8
0
 10
49.4835515007361
 20
-6.997553690441483
 30
0.0
 11
49.38923353491432
 21
-7.094960451433503
 31
0.0
  0
LINE
  5
224
  8
0
 10
49.38923353491432
 20
-7.094960451433503
 30
0.0
 11
49.293065287985
 21
-7.190643852269866
 31
0.0
  0
LINE
  5
225
  8
0
 10
49.293065287985
 20
-7.190643852269866
 30
0.0
 11
49.19533329438951
 21
-7.284424631369282
 31
0.0
  0
LINE
  5
226
  8
0
 10
49.19533329438951
 20
-7.284424631369282
 30
0.0
 11
49.0963200694858
 21
-7.37613138087219
 31
0.0
  0
LINE
  5
227
  8
0
 10
49.0963200694858
 20
-7.37613138087219
 30
0.0
 11
48.89554150725215
 21
-7.552684448467281
 31
0.0
  0
LINE
  5
228
  8
0
 10
48.89554150725215
 20
-7.552684448467281
 30
0.0
 11
48.69279137796648
 21
-7.719141072832107
 31
0.0
  0
LINE
  5
229
  8
0
 10
48.69279137796648
 20
-7.719141072832107
 30
0.0
 11
48.48986486337209
 21
-7.874556581340034
 31
0.0
  0
LINE
  5
22A
  8
0
 10
48.48986486337209
 20
-7.874556581340034
 30
0.0
 11
48.3888039891341
 21
-7.947896442892166
 31
0.0
  0
LINE
  5
22B
  8
0
 10
48.3888039891341
 20
-7.947896442892166
 30
0.0
 11
48.28821873518449
 21
-8.018232678182189
 31
0.0
  0
LINE
  5
22C
  8
0
 10
48.28821873518449
 20
-8.018232678182189
 30
0.0
 11
48.18824035052614
 21
-8.085512802360192
 31
0.0
  0
LINE
  5
22D
  8
0
 10
48.18824035052614
 20
-8.085512802360192
 30
0.0
 11
48.08898233823301
 21
-8.149695796044366
 31
0.0
  0
LINE
  5
22E
  8
0
 10
48.08898233823301
 20
-8.149695796044366
 30
0.0
 11
47.9905418246984
 21
-8.21075087108277
 31
0.0
  0
LINE
  5
22F
  8
0
 10
47.9905418246984
 20
-8.21075087108277
 30
0.0
 11
47.89300091941977
 21
-8.268656262266628
 31
0.0
  0
LINE
  5
230
  8
0
 10
47.89300091941977
 20
-8.268656262266628
 30
0.0
 11
47.79642807332959
 21
-8.3233980215416
 31
0.0
  0
LINE
  5
231
  8
0
 10
47.79642807332959
 20
-8.3233980215416
 30
0.0
 11
47.70087940878975
 21
-8.374968851214621
 31
0.0
  0
LINE
  5
232
  8
0
 10
47.70087940878975
 20
-8.374968851214621
 30
0.0
 11
47.60639997765469
 21
-8.42336703614959
 31
0.0
  0
LINE
  5
233
  8
0
 10
47.60639997765469
 20
-8.42336703614959
 30
0.0
 11
47.51302499099798
 21
-8.46859541495864
 31
0.0
  0
LINE
  5
234
  8
0
 10
47.51302499099798
 20
-8.46859541495864
 30
0.0
 11
47.42078104714322
 21
-8.510660353753284
 31
0.0
  0
LINE
  5
235
  8
0
 10
47.42078104714322
 20
-8.510660353753284
 30
0.0
 11
47.3296873439441
 21
-8.549570747456588
 31
0.0
  0
LINE
  5
236
  8
0
 10
47.3296873439441
 20
-8.549570747456588
 30
0.0
 11
47.23975685108134
 21
-8.585337091077985
 31
0.0
  0
LINE
  5
237
  8
0
 10
47.23975685108134
 20
-8.585337091077985
 30
0.0
 11
47.15099746660884
 21
-8.617970578549107
 31
0.0
  0
LINE
  5
238
  8
0
 10
47.15099746660884
 20
-8.617970578549107
 30
0.0
 11
47.06341317235138
 21
-8.647482203586435
 31
0.0
  0
LINE
  5
239
  8
0
 10
47.06341317235138
 20
-8.647482203586435
 30
0.0
 11
46.97700517519764
 21
-8.673881885690015
 31
0.0
  0
LINE
  5
23A
  8
0
 10
46.97700517519764
 20
-8.673881885690015
 30
0.0
 11
46.89177301258812
 21
-8.697177659949107
 31
0.0
  0
LINE
  5
23B
  8
0
 10
46.89177301258812
 20
-8.697177659949107
 30
0.0
 11
46.8077156438985
 21
-8.717374891983898
 31
0.0
  0
LINE
  5
23C
  8
0
 10
50.72109263918284
 20
6.597873935725637
 30
0.0
 11
50.72109263918283
 21
-3.997249242275178
 31
0.0
  0
LINE
  5
23D
  8
0
 10
46.81611279194031
 20
11.05627485325236
 30
0.0
 11
47.04973851924096
 21
10.93937745424363
 31
0.0
  0
LINE
  5
23E
  8
0
 10
47.04973851924096
 20
10.93937745424363
 30
0.0
 11
47.30520876116139
 21
10.80262205741761
 31
0.0
  0
LINE
  5
23F
  8
0
 10
47.30520876116139
 20
10.80262205741761
 30
0.0
 11
47.58230877433176
 21
10.6453180504505
 31
0.0
  0
LINE
  5
240
  8
0
 10
47.58230877433176
 20
10.6453180504505
 30
0.0
 11
47.87975958389367
 21
10.46630306534322
 31
0.0
  0
LINE
  5
241
  8
0
 10
47.87975958389367
 20
10.46630306534322
 30
0.0
 11
48.19434989492636
 21
10.26397685147934
 31
0.0
  0
LINE
  5
242
  8
0
 10
48.19434989492636
 20
10.26397685147934
 30
0.0
 11
48.35634051352397
 21
10.15347065574874
 31
0.0
  0
LINE
  5
243
  8
0
 10
48.35634051352397
 20
10.15347065574874
 30
0.0
 11
48.52021199985528
 21
10.03638094634791
 31
0.0
  0
LINE
  5
244
  8
0
 10
48.52021199985528
 20
10.03638094634791
 30
0.0
 11
48.6848779271612
 21
9.912429389602835
 31
0.0
  0
LINE
  5
245
  8
0
 10
48.6848779271612
 20
9.912429389602835
 30
0.0
 11
48.84918295039778
 21
9.781335575783181
 31
0.0
  0
LINE
  5
246
  8
0
 10
48.84918295039778
 20
9.781335575783181
 30
0.0
 11
49.01194132789615
 21
9.64282533449226
 31
0.0
  0
LINE
  5
247
  8
0
 10
49.01194132789615
 20
9.64282533449226
 30
0.0
 11
49.09237067850008
 21
9.570707292078062
 31
0.0
  0
LINE
  5
248
  8
0
 10
49.09237067850008
 20
9.570707292078062
 30
0.0
 11
49.17197347976153
 21
9.496639720547613
 31
0.0
  0
LINE
  5
249
  8
0
 10
49.17197347976153
 20
9.496639720547613
 30
0.0
 11
49.25060915565759
 21
9.420594111128445
 31
0.0
  0
LINE
  5
24A
  8
0
 10
49.25060915565759
 20
9.420594111128445
 30
0.0
 11
49.32814210276707
 21
9.342544097875809
 31
0.0
  0
LINE
  5
24B
  8
0
 10
49.32814210276707
 20
9.342544097875809
 30
0.0
 11
49.40444313908726
 21
9.262465955492418
 31
0.0
  0
LINE
  5
24C
  8
0
 10
49.40444313908726
 20
9.262465955492418
 30
0.0
 11
49.47939104511565
 21
9.18033915761989
 31
0.0
  0
LINE
  5
24D
  8
0
 10
49.47939104511565
 20
9.18033915761989
 30
0.0
 11
49.55287409573953
 21
9.096146931894985
 31
0.0
  0
LINE
  5
24E
  8
0
 10
49.55287409573953
 20
9.096146931894985
 30
0.0
 11
49.62479126085431
 21
9.009876670420045
 31
0.0
  0
LINE
  5
24F
  8
0
 10
49.62479126085431
 20
9.009876670420045
 30
0.0
 11
49.69505256506353
 21
8.9215199732079
 31
0.0
  0
LINE
  5
250
  8
0
 10
49.69505256506353
 20
8.9215199732079
 30
0.0
 11
49.76357911610791
 21
8.831072547040936
 31
0.0
  0
LINE
  5
251
  8
0
 10
49.76357911610791
 20
8.831072547040936
 30
0.0
 11
49.83030311112282
 21
8.738534094798762
 31
0.0
  0
LINE
  5
252
  8
0
 10
49.83030311112282
 20
8.738534094798762
 30
0.0
 11
49.89516759770785
 21
8.643908101554956
 31
0.0
  0
LINE
  5
253
  8
0
 10
49.89516759770785
 20
8.643908101554956
 30
0.0
 11
49.95812561259599
 21
8.547201358626058
 31
0.0
  0
LINE
  5
254
  8
0
 10
49.95812561259599
 20
8.547201358626058
 30
0.0
 11
50.01913907513489
 21
8.448423384389663
 31
0.0
  0
LINE
  5
255
  8
0
 10
50.01913907513489
 20
8.448423384389663
 30
0.0
 11
50.07817767535312
 21
8.347585843272444
 31
0.0
  0
LINE
  5
256
  8
0
 10
50.07817767535312
 20
8.347585843272444
 30
0.0
 11
50.13521786642795
 21
8.244702020387946
 31
0.0
  0
LINE
  5
257
  8
0
 10
50.13521786642795
 20
8.244702020387946
 30
0.0
 11
50.19024212217184
 21
8.13978643743907
 31
0.0
  0
LINE
  5
258
  8
0
 10
50.19024212217184
 20
8.13978643743907
 30
0.0
 11
50.24323829892035
 21
8.032854524270348
 31
0.0
  0
LINE
  5
259
  8
0
 10
50.24323829892035
 20
8.032854524270348
 30
0.0
 11
50.29419900099512
 21
7.923922292629926
 31
0.0
  0
LINE
  5
25A
  8
0
 10
50.29419900099512
 20
7.923922292629926
 30
0.0
 11
50.34312093471881
 21
7.813006011735075
 31
0.0
  0
LINE
  5
25B
  8
0
 10
50.34312093471881
 20
7.813006011735075
 30
0.0
 11
50.39000423336958
 21
7.700121888415893
 31
0.0
  0
LINE
  5
25C
  8
0
 10
50.39000423336958
 20
7.700121888415893
 30
0.0
 11
50.43485177068743
 21
7.585285749062518
 31
0.0
  0
LINE
  5
25D
  8
0
 10
50.43485177068743
 20
7.585285749062518
 30
0.0
 11
50.47766847523928
 21
7.468512722488267
 31
0.0
  0
LINE
  5
25E
  8
0
 10
50.47766847523928
 20
7.468512722488267
 30
0.0
 11
50.51846067855836
 21
7.349816944803409
 31
0.0
  0
LINE
  5
25F
  8
0
 10
50.51846067855836
 20
7.349816944803409
 30
0.0
 11
50.55723554901869
 21
7.229211320162054
 31
0.0
  0
LINE
  5
260
  8
0
 10
50.55723554901869
 20
7.229211320162054
 30
0.0
 11
50.5940005594839
 21
7.106707303519669
 31
0.0
  0
LINE
  5
261
  8
0
 10
50.5940005594839
 20
7.106707303519669
 30
0.0
 11
50.62876295651111
 21
6.982314684588514
 31
0.0
  0
LINE
  5
262
  8
0
 10
50.62876295651111
 20
6.982314684588514
 30
0.0
 11
50.66152923621508
 21
6.856041380928665
 31
0.0
  0
LINE
  5
263
  8
0
 10
50.66152923621508
 20
6.856041380928665
 30
0.0
 11
50.69230463703857
 21
6.727893254229311
 31
0.0
  0
LINE
  5
264
  8
0
 10
50.69230463703857
 20
6.727893254229311
 30
0.0
 11
50.72109263918284
 21
6.597873935725637
 31
0.0
  0
LINE
  5
265
  8
0
 10
13.86956001408477
 20
-2.930274437627951
 30
0.0
 11
13.85683507514275
 21
-2.974446461240344
 31
0.0
  0
LINE
  5
266
  8
0
 10
13.85683507514275
 20
-2.974446461240344
 30
0.0
 11
13.84541874553451
 21
-3.017341231835936
 31
0.0
  0
LINE
  5
267
  8
0
 10
13.84541874553451
 20
-3.017341231835936
 30
0.0
 11
13.83536582734155
 21
-3.058801901727701
 31
0.0
  0
LINE
  5
268
  8
0
 10
13.83536582734155
 20
-3.058801901727701
 30
0.0
 11
13.8267267852517
 21
-3.098677425766632
 31
0.0
  0
LINE
  5
269
  8
0
 10
13.8267267852517
 20
-3.098677425766632
 30
0.0
 11
13.8214880898378
 21
-3.125883716860691
 31
0.0
  0
LINE
  5
26A
  8
0
 10
13.8214880898378
 20
-3.125883716860691
 30
0.0
 11
13.81699602718709
 21
-3.152173836471676
 31
0.0
  0
LINE
  5
26B
  8
0
 10
13.81699602718709
 20
-3.152173836471676
 30
0.0
 11
13.81326338036546
 21
-3.177501673265799
 31
0.0
  0
LINE
  5
26C
  8
0
 10
13.81326338036546
 20
-3.177501673265799
 30
0.0
 11
13.810301171975
 21
-3.201823839745242
 31
0.0
  0
LINE
  5
26D
  8
0
 10
13.810301171975
 20
-3.201823839745242
 30
0.0
 11
13.808118515192
 21
-3.225099950698791
 31
0.0
  0
LINE
  5
26E
  8
0
 10
13.808118515192
 20
-3.225099950698791
 30
0.0
 11
13.80672246480498
 21
-3.247292901652473
 31
0.0
  0
LINE
  5
26F
  8
0
 10
13.80672246480498
 20
-3.247292901652473
 30
0.0
 11
13.80632102213237
 21
-3.257972562582797
 31
0.0
  0
LINE
  5
270
  8
0
 10
13.80632102213237
 20
-3.257972562582797
 30
0.0
 11
13.80611786825275
 21
-3.268369147320191
 31
0.0
  0
LINE
  5
271
  8
0
 10
13.80611786825275
 20
-3.268369147320191
 30
0.0
 11
13.8061132397585
 21
-3.278479064510307
 31
0.0
  0
LINE
  5
272
  8
0
 10
13.8061132397585
 20
-3.278479064510307
 30
0.0
 11
13.8063072166624
 21
-3.288298980054366
 31
0.0
  0
LINE
  5
273
  8
0
 10
13.8063072166624
 20
-3.288298980054366
 30
0.0
 11
13.80669971774778
 21
-3.29782582580419
 31
0.0
  0
LINE
  5
274
  8
0
 10
13.80669971774778
 20
-3.29782582580419
 30
0.0
 11
13.80729049605465
 21
-3.307056808086752
 31
0.0
  0
LINE
  5
275
  8
0
 10
13.80729049605465
 20
-3.307056808086752
 30
0.0
 11
13.80807913471081
 21
-3.315989415795983
 31
0.0
  0
LINE
  5
276
  8
0
 10
13.80807913471081
 20
-3.315989415795983
 30
0.0
 11
13.80906504289898
 21
-3.324621428314125
 31
0.0
  0
LINE
  5
277
  8
0
 10
13.80906504289898
 20
-3.324621428314125
 30
0.0
 11
13.81024745182906
 21
-3.332950923426501
 31
0.0
  0
LINE
  5
278
  8
0
 10
13.81024745182906
 20
-3.332950923426501
 30
0.0
 11
13.81162541071049
 21
-3.340976285236311
 31
0.0
  0
LINE
  5
279
  8
0
 10
13.81162541071049
 20
-3.340976285236311
 30
0.0
 11
13.81319778272455
 21
-3.348696212079403
 31
0.0
  0
LINE
  5
27A
  8
0
 10
13.81319778272455
 20
-3.348696212079403
 30
0.0
 11
13.81496324099665
 21
-3.356109724439067
 31
0.0
  0
LINE
  5
27B
  8
0
 10
13.81496324099665
 20
-3.356109724439067
 30
0.0
 11
13.81591790987157
 21
-3.359701359123611
 31
0.0
  0
LINE
  5
27C
  8
0
 10
13.81591790987157
 20
-3.359701359123611
 30
0.0
 11
13.81692026456866
 21
-3.363216172860815
 31
0.0
  0
LINE
  5
27D
  8
0
 10
13.81692026456866
 20
-3.363216172860815
 30
0.0
 11
13.81797008398181
 21
-3.366654137339609
 31
0.0
  0
LINE
  5
27E
  8
0
 10
13.81797008398181
 20
-3.366654137339609
 30
0.0
 11
13.81906713437122
 21
-3.37001524586716
 31
0.0
  0
LINE
  5
27F
  8
0
 10
13.81906713437122
 20
-3.37001524586716
 30
0.0
 11
13.82021116923756
 21
-3.373299513616209
 31
0.0
  0
LINE
  5
280
  8
0
 10
13.82021116923756
 20
-3.373299513616209
 30
0.0
 11
13.82140192919606
 21
-3.376506977872409
 31
0.0
  0
LINE
  5
281
  8
0
 10
13.82140192919606
 20
-3.376506977872409
 30
0.0
 11
13.8226391418507
 21
-3.379637698281656
 31
0.0
  0
LINE
  5
282
  8
0
 10
13.8226391418507
 20
-3.379637698281656
 30
0.0
 11
13.8239225216683
 21
-3.382691757097436
 31
0.0
  0
LINE
  5
283
  8
0
 10
13.8239225216683
 20
-3.382691757097436
 30
0.0
 11
13.82525176985267
 21
-3.385669259428154
 31
0.0
  0
LINE
  5
284
  8
0
 10
13.82525176985267
 20
-3.385669259428154
 30
0.0
 11
13.82662657421875
 21
-3.388570333484474
 31
0.0
  0
LINE
  5
285
  8
0
 10
13.82662657421875
 20
-3.388570333484474
 30
0.0
 11
13.82804660906674
 21
-3.391395130826657
 31
0.0
  0
LINE
  5
286
  8
0
 10
13.82804660906674
 20
-3.391395130826657
 30
0.0
 11
13.82951153505625
 21
-3.394143826611896
 31
0.0
  0
LINE
  5
287
  8
0
 10
13.82951153505625
 20
-3.394143826611896
 30
0.0
 11
13.8310209990804
 21
-3.396816619841652
 31
0.0
  0
LINE
  5
288
  8
0
 10
13.8310209990804
 20
-3.396816619841652
 30
0.0
 11
13.83257463413998
 21
-3.399413733608994
 31
0.0
  0
LINE
  5
289
  8
0
 10
13.83257463413998
 20
-3.399413733608994
 30
0.0
 11
13.83417205921758
 21
-3.401935415345936
 31
0.0
  0
LINE
  5
28A
  8
0
 10
13.83417205921758
 20
-3.401935415345936
 30
0.0
 11
13.83581287915174
 21
-3.40438193707077
 31
0.0
  0
LINE
  5
28B
  8
0
 10
13.83581287915174
 20
-3.40438193707077
 30
0.0
 11
13.83749668451538
 21
-3.406753595629174
 31
0.0
  0
LINE
  5
28C
  8
0
 10
13.83749668451538
 20
-3.406753595629174
 30
0.0
 11
13.83922305160684
 21
-3.409050712773158
 31
0.0
  0
LINE
  5
28D
  8
0
 10
13.83922305160684
 20
-3.409050712773158
 30
0.0
 11
13.84099154272659
 21
-3.41127363482839
 31
0.0
  0
LINE
  5
28E
  8
0
 10
13.84099154272659
 20
-3.41127363482839
 30
0.0
 11
13.84280170656648
 21
-3.413422732199372
 31
0.0
  0
LINE
  5
28F
  8
0
 10
13.84280170656648
 20
-3.413422732199372
 30
0.0
 11
13.84465307860332
 21
-3.415498398868376
 31
0.0
  0
LINE
  5
290
  8
0
 10
13.84465307860332
 20
-3.415498398868376
 30
0.0
 11
13.84654518149247
 21
-3.41750105189438
 31
0.0
  0
LINE
  5
291
  8
0
 10
13.84654518149247
 20
-3.41750105189438
 30
0.0
 11
13.84847752546145
 21
-3.419431130912012
 31
0.0
  0
LINE
  5
292
  8
0
 10
13.84847752546145
 20
-3.419431130912012
 30
0.0
 11
13.85044960870349
 21
-3.421289097630487
 31
0.0
  0
LINE
  5
293
  8
0
 10
13.85044960870349
 20
-3.421289097630487
 30
0.0
 11
13.85246091777116
 21
-3.423075435332541
 31
0.0
  0
LINE
  5
294
  8
0
 10
13.85246091777116
 20
-3.423075435332541
 30
0.0
 11
13.85451092796991
 21
-3.424790648373374
 31
0.0
  0
LINE
  5
295
  8
0
 10
13.85451092796991
 20
-3.424790648373374
 30
0.0
 11
13.85659910375171
 21
-3.426435261679591
 31
0.0
  0
LINE
  5
296
  8
0
 10
13.85659910375171
 20
-3.426435261679591
 30
0.0
 11
13.85872489910858
 21
-3.428009820248134
 31
0.0
  0
LINE
  5
297
  8
0
 10
13.85872489910858
 20
-3.428009820248134
 30
0.0
 11
13.86088775796622
 21
-3.429514888645223
 31
0.0
  0
LINE
  5
298
  8
0
 10
13.86088775796622
 20
-3.429514888645223
 30
0.0
 11
13.8630871145776
 21
-3.430951050505298
 31
0.0
  0
LINE
  5
299
  8
0
 10
13.8630871145776
 20
-3.430951050505298
 30
0.0
 11
13.86532239391653
 21
-3.432318908029953
 31
0.0
  0
LINE
  5
29A
  8
0
 10
13.86532239391653
 20
-3.432318908029953
 30
0.0
 11
13.86759301207122
 21
-3.433619081486876
 31
0.0
  0
LINE
  5
29B
  8
0
 10
13.86759301207122
 20
-3.433619081486876
 30
0.0
 11
13.86989837663793
 21
-3.43485220870879
 31
0.0
  0
LINE
  5
29C
  8
0
 10
13.86989837663793
 20
-3.43485220870879
 30
0.0
 11
13.87223788711452
 21
-3.436018944592387
 31
0.0
  0
LINE
  5
29D
  8
0
 10
13.87223788711452
 20
-3.436018944592387
 30
0.0
 11
13.87461093529404
 21
-3.437119960597271
 31
0.0
  0
LINE
  5
29E
  8
0
 10
13.87461093529404
 20
-3.437119960597271
 30
0.0
 11
13.87701690565833
 21
-3.438155944244895
 31
0.0
  0
LINE
  5
29F
  8
0
 10
13.87701690565833
 20
-3.438155944244895
 30
0.0
 11
13.87945517577157
 21
-3.439127598617496
 31
0.0
  0
LINE
  5
2A0
  8
0
 10
13.87945517577157
 20
-3.439127598617496
 30
0.0
 11
13.88192511667394
 21
-3.44003564185704
 31
0.0
  0
LINE
  5
2A1
  8
0
 10
13.88192511667394
 20
-3.44003564185704
 30
0.0
 11
13.88442609327512
 21
-3.440880806664157
 31
0.0
  0
LINE
  5
2A2
  8
0
 10
13.88442609327512
 20
-3.440880806664157
 30
0.0
 11
13.88695746474797
 21
-3.441663839797076
 31
0.0
  0
LINE
  5
2A3
  8
0
 10
13.88695746474797
 20
-3.441663839797076
 30
0.0
 11
13.88951858492201
 21
-3.442385501570573
 31
0.0
  0
LINE
  5
2A4
  8
0
 10
13.88951858492201
 20
-3.442385501570573
 30
0.0
 11
13.89210880267713
 21
-3.443046565354901
 31
0.0
  0
LINE
  5
2A5
  8
0
 10
13.89210880267713
 20
-3.443046565354901
 30
0.0
 11
13.89472746233706
 21
-3.443647817074731
 31
0.0
  0
LINE
  5
2A6
  8
0
 10
13.89472746233706
 20
-3.443647817074731
 30
0.0
 11
13.89737390406305
 21
-3.444190054708093
 31
0.0
  0
LINE
  5
2A7
  8
0
 10
13.89737390406305
 20
-3.444190054708093
 30
0.0
 11
13.90004746424741
 21
-3.44467408778531
 31
0.0
  0
LINE
  5
2A8
  8
0
 10
13.90004746424741
 20
-3.44467408778531
 30
0.0
 11
13.90274747590709
 21
-3.445100736887941
 31
0.0
  0
LINE
  5
2A9
  8
0
 10
13.90274747590709
 20
-3.445100736887941
 30
0.0
 11
13.9054732690773
 21
-3.445470833147718
 31
0.0
  0
LINE
  5
2AA
  8
0
 10
13.9054732690773
 20
-3.445470833147718
 30
0.0
 11
13.9082241712051
 21
-3.445785217745483
 31
0.0
  0
LINE
  5
2AB
  8
0
 10
13.9082241712051
 20
-3.445785217745483
 30
0.0
 11
13.91099950754366
 21
-3.44604474140935
 31
0.0
  0
LINE
  5
2AC
  8
0
 10
13.91099950754366
 20
-3.44604474140935
 30
0.0
 11
13.91379860156558
 21
-3.446250263892639
 31
0.0
  0
LINE
  5
2AD
  8
0
 10
13.91379860156558
 20
-3.446250263892639
 30
0.0
 11
13.91662077542419
 21
-3.446402653400453
 31
0.0
  0
LINE
  5
2AE
  8
0
 10
13.91662077542419
 20
-3.446402653400453
 30
0.0
 11
13.91946535043383
 21
-3.446502785996032
 31
0.0
  0
LINE
  5
2AF
  8
0
 10
13.91946535043383
 20
-3.446502785996032
 30
0.0
 11
13.92233164755084
 21
-3.446551545006333
 31
0.0
  0
LINE
  5
2B0
  8
0
 10
13.92233164755084
 20
-3.446551545006333
 30
0.0
 11
13.92521898785457
 21
-3.4465498204276
 31
0.0
  0
LINE
  5
2B1
  8
0
 10
13.92521898785457
 20
-3.4465498204276
 30
0.0
 11
13.93105408584059
 21
-3.446398510267898
 31
0.0
  0
LINE
  5
2B2
  8
0
 10
13.93105408584059
 20
-3.446398510267898
 30
0.0
 11
13.93696523376475
 21
-3.446056086284502
 31
0.0
  0
LINE
  5
2B3
  8
0
 10
13.93696523376475
 20
-3.446056086284502
 30
0.0
 11
13.94294705375193
 21
-3.445529847910401
 31
0.0
  0
LINE
  5
2B4
  8
0
 10
13.94294705375193
 20
-3.445529847910401
 30
0.0
 11
13.94899421607106
 21
-3.444827144222409
 31
0.0
  0
LINE
  5
2B5
  8
0
 10
13.94899421607106
 20
-3.444827144222409
 30
0.0
 11
13.95510145452704
 21
-3.443955354919555
 31
0.0
  0
LINE
  5
2B6
  8
0
 10
13.95510145452704
 20
-3.443955354919555
 30
0.0
 11
13.96126358185275
 21
-3.442921871301496
 31
0.0
  0
LINE
  5
2B7
  8
0
 10
13.96126358185275
 20
-3.442921871301496
 30
0.0
 11
13.96747550510101
 21
-3.441734077246906
 31
0.0
  0
LINE
  5
2B8
  8
0
 10
13.96747550510101
 20
-3.441734077246906
 30
0.0
 11
13.97373224103658
 21
-3.440399330191885
 31
0.0
  0
LINE
  5
2B9
  8
0
 10
13.97373224103658
 20
-3.440399330191885
 30
0.0
 11
13.98002893152812
 21
-3.438924942108357
 31
0.0
  0
LINE
  5
2BA
  8
0
 10
13.98002893152812
 20
-3.438924942108357
 30
0.0
 11
13.99272346152518
 21
-3.435586149293008
 31
0.0
  0
LINE
  5
2BB
  8
0
 10
13.99272346152518
 20
-3.435586149293008
 30
0.0
 11
14.00552331701475
 21
-3.431774562471986
 31
0.0
  0
LINE
  5
2BC
  8
0
 10
14.00552331701475
 20
-3.431774562471986
 30
0.0
 11
14.01839570437803
 21
-3.427545102947343
 31
0.0
  0
LINE
  5
2BD
  8
0
 10
14.01839570437803
 20
-3.427545102947343
 30
0.0
 11
14.03131124515606
 21
-3.422950206842676
 31
0.0
  0
LINE
  5
2BE
  8
0
 10
14.03131124515606
 20
-3.422950206842676
 30
0.0
 11
14.04424425558137
 21
-3.418039443338104
 31
0.0
  0
LINE
  5
2BF
  8
0
 10
14.04424425558137
 20
-3.418039443338104
 30
0.0
 11
14.05717296655793
 21
-3.412859196346978
 31
0.0
  0
LINE
  5
2C0
  8
0
 10
14.05717296655793
 20
-3.412859196346978
 30
0.0
 11
14.08295129327544
 21
-3.401857965925196
 31
0.0
  0
LINE
  5
2C1
  8
0
 10
14.08295129327544
 20
-3.401857965925196
 30
0.0
 11
14.10855863817287
 21
-3.390241877985818
 31
0.0
  0
LINE
  5
2C2
  8
0
 10
14.10855863817287
 20
-3.390241877985818
 30
0.0
 11
14.31975163998275
 21
-3.288337337883767
 31
0.0
  0
LINE
  5
2C3
  8
0
 10
14.31975163998275
 20
-3.288337337883767
 30
0.0
 11
14.63212126332873
 21
-3.149436830713292
 31
0.0
  0
LINE
  5
2C4
  8
0
 10
14.63212126332873
 20
-3.149436830713292
 30
0.0
 11
15.16664782961735
 21
-2.930274436501971
 31
0.0
  0
LINE
  5
2C5
  8
0
 10
15.16664782961735
 20
-2.930274436501971
 30
0.0
 11
13.86956001408477
 21
-2.930274437627951
 31
0.0
  0
LINE
  5
2C6
  8
0
 10
20.14074642878414
 20
-2.930274437757401
 30
0.0
 11
20.2777601289315
 21
-3.000801842520663
 31
0.0
  0
LINE
  5
2C7
  8
0
 10
20.2777601289315
 20
-3.000801842520663
 30
0.0
 11
20.83141476851114
 21
-3.310014235454763
 31
0.0
  0
LINE
  5
2C8
  8
0
 10
20.83141476851114
 20
-3.310014235454763
 30
0.0
 11
20.87672082237459
 21
-3.333518094095905
 31
0.0
  0
LINE
  5
2C9
  8
0
 10
20.87672082237459
 20
-3.333518094095905
 30
0.0
 11
20.92119460086568
 21
-3.355527773737302
 31
0.0
  0
LINE
  5
2CA
  8
0
 10
20.92119460086568
 20
-3.355527773737302
 30
0.0
 11
20.96454741133326
 21
-3.375673781984718
 31
0.0
  0
LINE
  5
2CB
  8
0
 10
20.96454741133326
 20
-3.375673781984718
 30
0.0
 11
20.98570700517203
 21
-3.384928060612127
 31
0.0
  0
LINE
  5
2CC
  8
0
 10
20.98570700517203
 20
-3.384928060612127
 30
0.0
 11
21.00646867994415
 21
-3.393571640499827
 31
0.0
  0
LINE
  5
2CD
  8
0
 10
21.00646867994415
 20
-3.393571640499827
 30
0.0
 11
21.02679168714626
 21
-3.40155582740782
 31
0.0
  0
LINE
  5
2CE
  8
0
 10
21.02679168714626
 20
-3.40155582740782
 30
0.0
 11
21.04663503065581
 21
-3.408832272562403
 31
0.0
  0
LINE
  5
2CF
  8
0
 10
21.04663503065581
 20
-3.408832272562403
 30
0.0
 11
21.06595769326728
 21
-3.415353234563825
 31
0.0
  0
LINE
  5
2D0
  8
0
 10
21.06595769326728
 20
-3.415353234563825
 30
0.0
 11
21.08471884706852
 21
-3.421071823573349
 31
0.0
  0
LINE
  5
2D1
  8
0
 10
21.08471884706852
 20
-3.421071823573349
 30
0.0
 11
21.09387620282198
 21
-3.423615867905443
 31
0.0
  0
LINE
  5
2D2
  8
0
 10
21.09387620282198
 20
-3.423615867905443
 30
0.0
 11
21.10287806319547
 21
-3.425942244818759
 31
0.0
  0
LINE
  5
2D3
  8
0
 10
21.10287806319547
 20
-3.425942244818759
 30
0.0
 11
21.11171947134512
 21
-3.428045441021035
 31
0.0
  0
LINE
  5
2D4
  8
0
 10
21.11171947134512
 20
-3.428045441021035
 30
0.0
 11
21.12039552158693
 21
-3.429920042099853
 31
0.0
  0
LINE
  5
2D5
  8
0
 10
21.12039552158693
 20
-3.429920042099853
 30
0.0
 11
21.12890136595158
 21
-3.431560740132186
 31
0.0
  0
LINE
  5
2D6
  8
0
 10
21.12890136595158
 20
-3.431560740132186
 30
0.0
 11
21.13723222073926
 21
-3.432962341293949
 31
0.0
  0
LINE
  5
2D7
  8
0
 10
21.13723222073926
 20
-3.432962341293949
 30
0.0
 11
21.14538337307454
 21
-3.434119773469537
 31
0.0
  0
LINE
  5
2D8
  8
0
 10
21.14538337307454
 20
-3.434119773469537
 30
0.0
 11
21.15335018746116
 21
-3.435028093861384
 31
0.0
  0
LINE
  5
2D9
  8
0
 10
21.15335018746116
 20
-3.435028093861384
 30
0.0
 11
21.16112811235251
 21
-3.435682496617783
 31
0.0
  0
LINE
  5
2DA
  8
0
 10
21.16112811235251
 20
-3.435682496617783
 30
0.0
 11
21.16871268712828
 21
-3.436078320936164
 31
0.0
  0
LINE
  5
2DB
  8
0
 10
21.16871268712828
 20
-3.436078320936164
 30
0.0
 11
21.17243110110132
 21
-3.436177851620546
 31
0.0
  0
LINE
  5
2DC
  8
0
 10
21.17243110110132
 20
-3.436177851620546
 30
0.0
 11
21.17609955010204
 21
-3.436211060373222
 31
0.0
  0
LINE
  5
2DD
  8
0
 10
21.17609955010204
 20
-3.436211060373222
 30
0.0
 11
21.17971750575857
 21
-3.436177409613
 31
0.0
  0
LINE
  5
2DE
  8
0
 10
21.17971750575857
 20
-3.436177409613
 30
0.0
 11
21.18328444693514
 21
-3.436076372630485
 31
0.0
  0
LINE
  5
2DF
  8
0
 10
21.18328444693514
 20
-3.436076372630485
 30
0.0
 11
21.18679985999545
 21
-3.435907433894442
 31
0.0
  0
LINE
  5
2E0
  8
0
 10
21.18679985999545
 20
-3.435907433894442
 30
0.0
 11
21.19026323906611
 21
-3.435670089358176
 31
0.0
  0
LINE
  5
2E1
  8
0
 10
21.19026323906611
 20
-3.435670089358176
 30
0.0
 11
21.1936740863001
 21
-3.435363846765888
 31
0.0
  0
LINE
  5
2E2
  8
0
 10
21.1936740863001
 20
-3.435363846765888
 30
0.0
 11
21.19703191214011
 21
-3.43498822595906
 31
0.0
  0
LINE
  5
2E3
  8
0
 10
21.19703191214011
 20
-3.43498822595906
 30
0.0
 11
21.20033623558204
 21
-3.434542759182818
 31
0.0
  0
LINE
  5
2E4
  8
0
 10
21.20033623558204
 20
-3.434542759182818
 30
0.0
 11
21.20358658443837
 21
-3.434026991392305
 31
0.0
  0
LINE
  5
2E5
  8
0
 10
21.20358658443837
 20
-3.434026991392305
 30
0.0
 11
21.20678249560158
 21
-3.433440480559048
 31
0.0
  0
LINE
  5
2E6
  8
0
 10
21.20678249560158
 20
-3.433440480559048
 30
0.0
 11
21.20992351530761
 21
-3.432782797977332
 31
0.0
  0
LINE
  5
2E7
  8
0
 10
21.20992351530761
 20
-3.432782797977332
 30
0.0
 11
21.21300919939925
 21
-3.43205352857057
 31
0.0
  0
LINE
  5
2E8
  8
0
 10
21.21300919939925
 20
-3.43205352857057
 30
0.0
 11
21.21603911358955
 21
-3.431252271197672
 31
0.0
  0
LINE
  5
2E9
  8
0
 10
21.21603911358955
 20
-3.431252271197672
 30
0.0
 11
21.21901283372526
 21
-3.430378638959416
 31
0.0
  0
LINE
  5
2EA
  8
0
 10
21.21901283372526
 20
-3.430378638959416
 30
0.0
 11
21.22192994605025
 21
-3.429432259504819
 31
0.0
  0
LINE
  5
2EB
  8
0
 10
21.22192994605025
 20
-3.429432259504819
 30
0.0
 11
21.22479004746893
 21
-3.428412775337508
 31
0.0
  0
LINE
  5
2EC
  8
0
 10
21.22479004746893
 20
-3.428412775337508
 30
0.0
 11
21.22759274580965
 21
-3.427319844122088
 31
0.0
  0
LINE
  5
2ED
  8
0
 10
21.22759274580965
 20
-3.427319844122088
 30
0.0
 11
21.23033766008814
 21
-3.426153138990515
 31
0.0
  0
LINE
  5
2EE
  8
0
 10
21.23033766008814
 20
-3.426153138990515
 30
0.0
 11
21.23302442077094
 21
-3.424912348848467
 31
0.0
  0
LINE
  5
2EF
  8
0
 10
21.23302442077094
 20
-3.424912348848467
 30
0.0
 11
21.23565267003878
 21
-3.423597178681709
 31
0.0
  0
LINE
  5
2F0
  8
0
 10
21.23565267003878
 20
-3.423597178681709
 30
0.0
 11
21.23822206205005
 21
-3.422207349862472
 31
0.0
  0
LINE
  5
2F1
  8
0
 10
21.23822206205005
 20
-3.422207349862472
 30
0.0
 11
21.24073226320417
 21
-3.420742600455816
 31
0.0
  0
LINE
  5
2F2
  8
0
 10
21.24073226320417
 20
-3.420742600455816
 30
0.0
 11
21.24318295240505
 21
-3.419202685526005
 31
0.0
  0
LINE
  5
2F3
  8
0
 10
21.24318295240505
 20
-3.419202685526005
 30
0.0
 11
21.24557382132451
 21
-3.417587377442874
 31
0.0
  0
LINE
  5
2F4
  8
0
 10
21.24557382132451
 20
-3.417587377442874
 30
0.0
 11
21.24790457466564
 21
-3.415896466188202
 31
0.0
  0
LINE
  5
2F5
  8
0
 10
21.24790457466564
 20
-3.415896466188202
 30
0.0
 11
21.25017493042631
 21
-3.414129759662083
 31
0.0
  0
LINE
  5
2F6
  8
0
 10
21.25017493042631
 20
-3.414129759662083
 30
0.0
 11
21.25238462016252
 21
-3.412287083989295
 31
0.0
  0
LINE
  5
2F7
  8
0
 10
21.25238462016252
 20
-3.412287083989295
 30
0.0
 11
21.25453338924871
 21
-3.410368283821755
 31
0.0
  0
LINE
  5
2F8
  8
0
 10
21.25453338924871
 20
-3.410368283821755
 30
0.0
 11
21.25662099705586
 21
-3.408373222539225
 31
0.0
  0
LINE
  5
2F9
  8
0
 10
21.25662099705586
 20
-3.408373222539225
 30
0.0
 11
21.25864721692126
 21
-3.406301782191715
 31
0.0
  0
LINE
  5
2FA
  8
0
 10
21.25864721692126
 20
-3.406301782191715
 30
0.0
 11
21.26061183603611
 21
-3.404153863340126
 31
0.0
  0
LINE
  5
2FB
  8
0
 10
21.26061183603611
 20
-3.404153863340126
 30
0.0
 11
21.26251465532993
 21
-3.401929384892993
 31
0.0
  0
LINE
  5
2FC
  8
0
 10
21.26251465532993
 20
-3.401929384892993
 30
0.0
 11
21.26435548935507
 21
-3.399628283943214
 31
0.0
  0
LINE
  5
2FD
  8
0
 10
21.26435548935507
 20
-3.399628283943214
 30
0.0
 11
21.26613416617115
 21
-3.397250515604786
 31
0.0
  0
LINE
  5
2FE
  8
0
 10
21.26613416617115
 20
-3.397250515604786
 30
0.0
 11
21.26785052722948
 21
-3.394796052849542
 31
0.0
  0
LINE
  5
2FF
  8
0
 10
21.26785052722948
 20
-3.394796052849542
 30
0.0
 11
21.26950442725753
 21
-3.392264886343884
 31
0.0
  0
LINE
  5
300
  8
0
 10
21.26950442725753
 20
-3.392264886343884
 30
0.0
 11
21.27109573414342
 21
-3.389657024285521
 31
0.0
  0
LINE
  5
301
  8
0
 10
21.27109573414342
 20
-3.389657024285521
 30
0.0
 11
21.27262432882031
 21
-3.386972492240197
 31
0.0
  0
LINE
  5
302
  8
0
 10
21.27262432882031
 20
-3.386972492240197
 30
0.0
 11
21.2740901051509
 21
-3.384211332978434
 31
0.0
  0
LINE
  5
303
  8
0
 10
21.2740901051509
 20
-3.384211332978434
 30
0.0
 11
21.27549296981185
 21
-3.381373606312261
 31
0.0
  0
LINE
  5
304
  8
0
 10
21.27549296981185
 20
-3.381373606312261
 30
0.0
 11
21.27683284217826
 21
-3.378459388931953
 31
0.0
  0
LINE
  5
305
  8
0
 10
21.27683284217826
 20
-3.378459388931953
 30
0.0
 11
21.27810965420812
 21
-3.375468774242764
 31
0.0
  0
LINE
  5
306
  8
0
 10
21.27810965420812
 20
-3.375468774242764
 30
0.0
 11
21.27932335032673
 21
-3.372401872201662
 31
0.0
  0
LINE
  5
307
  8
0
 10
21.27932335032673
 20
-3.372401872201662
 30
0.0
 11
21.28047388731121
 21
-3.369258809154062
 31
0.0
  0
LINE
  5
308
  8
0
 10
21.28047388731121
 20
-3.369258809154062
 30
0.0
 11
21.28156123417488
 21
-3.366039727670568
 31
0.0
  0
LINE
  5
309
  8
0
 10
21.28156123417488
 20
-3.366039727670568
 30
0.0
 11
21.28258537205178
 21
-3.362744786383697
 31
0.0
  0
LINE
  5
30A
  8
0
 10
21.28258537205178
 20
-3.362744786383697
 30
0.0
 11
21.28354629408109
 21
-3.359374159824624
 31
0.0
  0
LINE
  5
30B
  8
0
 10
21.28354629408109
 20
-3.359374159824624
 30
0.0
 11
21.28444400529159
 21
-3.35592803825991
 31
0.0
  0
LINE
  5
30C
  8
0
 10
21.28444400529159
 20
-3.35592803825991
 30
0.0
 11
21.2852785224861
 21
-3.352406627528243
 31
0.0
  0
LINE
  5
30D
  8
0
 10
21.2852785224861
 20
-3.352406627528243
 30
0.0
 11
21.28604987412595
 21
-3.348810148877168
 31
0.0
  0
LINE
  5
30E
  8
0
 10
21.28604987412595
 20
-3.348810148877168
 30
0.0
 11
21.28675810021544
 21
-3.345138838799822
 31
0.0
  0
LINE
  5
30F
  8
0
 10
21.28675810021544
 20
-3.345138838799822
 30
0.0
 11
21.28740325218626
 21
-3.341392948871671
 31
0.0
  0
LINE
  5
310
  8
0
 10
21.28740325218626
 20
-3.341392948871671
 30
0.0
 11
21.28798539278196
 21
-3.337572745587248
 31
0.0
  0
LINE
  5
311
  8
0
 10
21.28798539278196
 20
-3.337572745587248
 30
0.0
 11
21.28850459594241
 21
-3.333678510196879
 31
0.0
  0
LINE
  5
312
  8
0
 10
21.28850459594241
 20
-3.333678510196879
 30
0.0
 11
21.28896094668826
 21
-3.329710538543428
 31
0.0
  0
LINE
  5
313
  8
0
 10
21.28896094668826
 20
-3.329710538543428
 30
0.0
 11
21.28968548572929
 21
-3.321554641801801
 31
0.0
  0
LINE
  5
314
  8
0
 10
21.28968548572929
 20
-3.321554641801801
 30
0.0
 11
21.29015990729469
 21
-3.313107707751855
 31
0.0
  0
LINE
  5
315
  8
0
 10
21.29015990729469
 20
-3.313107707751855
 30
0.0
 11
21.29038527865862
 21
-3.304372611798315
 31
0.0
  0
LINE
  5
316
  8
0
 10
21.29038527865862
 20
-3.304372611798315
 30
0.0
 11
21.29036283293661
 21
-3.295352446695754
 31
0.0
  0
LINE
  5
317
  8
0
 10
21.29036283293661
 20
-3.295352446695754
 30
0.0
 11
21.29009396419783
 21
-3.286050515805408
 31
0.0
  0
LINE
  5
318
  8
0
 10
21.29009396419783
 20
-3.286050515805408
 30
0.0
 11
21.28958022224456
 21
-3.276470325927423
 31
0.0
  0
LINE
  5
319
  8
0
 10
21.28958022224456
 20
-3.276470325927423
 30
0.0
 11
21.28882330737893
 21
-3.266615580116769
 31
0.0
  0
LINE
  5
31A
  8
0
 10
21.28882330737893
 20
-3.266615580116769
 30
0.0
 11
21.28782506516959
 21
-3.256490170499141
 31
0.0
  0
LINE
  5
31B
  8
0
 10
21.28782506516959
 20
-3.256490170499141
 30
0.0
 11
21.28658748121835
 21
-3.246098171086884
 31
0.0
  0
LINE
  5
31C
  8
0
 10
21.28658748121835
 20
-3.246098171086884
 30
0.0
 11
21.28511267592695
 21
-3.235443830594892
 31
0.0
  0
LINE
  5
31D
  8
0
 10
21.28511267592695
 20
-3.235443830594892
 30
0.0
 11
21.28146052553027
 21
-3.213365951639543
 31
0.0
  0
LINE
  5
31E
  8
0
 10
21.28146052553027
 20
-3.213365951639543
 30
0.0
 11
21.27688807432564
 21
-3.190293744408004
 31
0.0
  0
LINE
  5
31F
  8
0
 10
21.27688807432564
 20
-3.190293744408004
 30
0.0
 11
21.27141660452578
 21
-3.166266755134406
 31
0.0
  0
LINE
  5
320
  8
0
 10
21.27141660452578
 20
-3.166266755134406
 30
0.0
 11
21.26506905274416
 21
-3.141326635621263
 31
0.0
  0
LINE
  5
321
  8
0
 10
21.26506905274416
 20
-3.141326635621263
 30
0.0
 11
21.25835897255095
 21
-3.117205555269063
 31
0.0
  0
LINE
  5
322
  8
0
 10
21.25835897255095
 20
-3.117205555269063
 30
0.0
 11
21.25092450880241
 21
-3.092360287555919
 31
0.0
  0
LINE
  5
323
  8
0
 10
21.25092450880241
 20
-3.092360287555919
 30
0.0
 11
21.23397110132875
 21
-3.040650501071605
 31
0.0
  0
LINE
  5
324
  8
0
 10
21.23397110132875
 20
-3.040650501071605
 30
0.0
 11
21.21439367698346
 21
-2.98651290524565
 31
0.0
  0
LINE
  5
325
  8
0
 10
21.21439367698346
 20
-2.98651290524565
 30
0.0
 11
21.19238684829461
 21
-2.930274437889501
 31
0.0
  0
LINE
  5
326
  8
0
 10
21.19238684829461
 20
-2.930274437889501
 30
0.0
 11
20.14074642878414
 21
-2.930274437757401
 31
0.0
  0
ARC
  5
327
  8
0
 10
33.59076837129271
 20
-7.193705203579227
 30
0.0
 40
4.905021125806968
 50
73.7122633556052
 51
106.2877335343559
  0
LINE
  5
328
  8
0
 10
37.30607244326098
 20
-2.485545350229639
 30
-0.0000000000000004
 11
34.96643682400774
 21
-2.48554541945791
 31
-0.0000000000000001
  0
LINE
  5
329
  8
0
 10
37.02596528627726
 20
-1.976103798183907
 30
-0.0000000000000004
 11
37.30607244326098
 21
-2.485545350229639
 31
-0.0000000000000004
  0
LINE
  5
32A
  8
0
 10
30.64026463118323
 20
-1.976107104646218
 30
0.0000000000000004
 11
37.02596528627726
 21
-1.976103798183907
 31
-0.0000000000000004
  0
LINE
  5
32B
  8
0
 10
30.32203528857109
 20
-2.485545344723516
 30
0.0000000000000004
 11
30.64026463118323
 21
-1.976107104646218
 31
0.0000000000000004
  0
LINE
  5
32C
  8
0
 10
32.21510017413857
 20
-2.485545344786054
 30
0.0000000000000002
 11
30.32203528857109
 21
-2.485545344723516
 31
0.0000000000000004
  0
LINE
  5
32D
  8
0
 10
37.45503411497671
 20
-2.882145999180178
 30
-0.0000000000000004
 11
37.46775905375362
 21
-2.926318022328604
 31
-0.0000000000000004
  0
LINE
  5
32E
  8
0
 10
37.46775905375362
 20
-2.926318022328604
 30
-0.0000000000000004
 11
37.47917538322027
 21
-2.969212792480152
 31
-0.0000000000000005
  0
LINE
  5
32F
  8
0
 10
37.47917538322027
 20
-2.969212792480152
 30
-0.0000000000000005
 11
37.48922830129683
 21
-3.010673461952434
 31
-0.0000000000000005
  0
LINE
  5
330
  8
0
 10
37.48922830129683
 20
-3.010673461952434
 30
-0.0000000000000005
 11
37.49786734329702
 21
-3.050548985600879
 31
-0.0000000000000005
  0
LINE
  5
331
  8
0
 10
37.49786734329702
 20
-3.050548985600879
 30
-0.0000000000000005
 11
37.503106038711
 21
-3.077755276694952
 31
-0.0000000000000005
  0
LINE
  5
332
  8
0
 10
37.503106038711
 20
-3.077755276694952
 30
-0.0000000000000005
 11
37.50759810136181
 21
-3.10404539630595
 31
-0.0000000000000005
  0
LINE
  5
333
  8
0
 10
37.50759810136181
 20
-3.10404539630595
 30
-0.0000000000000005
 11
37.51133074818352
 21
-3.129373233100088
 31
-0.0000000000000005
  0
LINE
  5
334
  8
0
 10
37.51133074818352
 20
-3.129373233100088
 30
-0.0000000000000005
 11
37.51429295657402
 21
-3.153695399579546
 31
-0.0000000000000005
  0
LINE
  5
335
  8
0
 10
37.51429295657402
 20
-3.153695399579546
 30
-0.0000000000000005
 11
37.51647561335703
 21
-3.176971510533111
 31
-0.0000000000000005
  0
LINE
  5
336
  8
0
 10
37.51647561335703
 20
-3.176971510533111
 30
-0.0000000000000005
 11
37.51787166374399
 21
-3.19916446148681
 31
-0.0000000000000005
  0
LINE
  5
337
  8
0
 10
37.51787166374399
 20
-3.19916446148681
 30
-0.0000000000000005
 11
37.51827310641654
 21
-3.209844122417144
 31
-0.0000000000000005
  0
LINE
  5
338
  8
0
 10
37.51827310641654
 20
-3.209844122417144
 30
-0.0000000000000005
 11
37.5184762602961
 21
-3.220240707154547
 31
-0.0000000000000005
  0
LINE
  5
339
  8
0
 10
37.5184762602961
 20
-3.220240707154547
 30
-0.0000000000000005
 11
37.51848088879027
 21
-3.230350624344671
 31
-0.0000000000000005
  0
LINE
  5
33A
  8
0
 10
37.51848088879027
 20
-3.230350624344671
 30
-0.0000000000000005
 11
37.51828691188628
 21
-3.24017053988874
 31
-0.0000000000000005
  0
LINE
  5
33B
  8
0
 10
37.51828691188628
 20
-3.24017053988874
 30
-0.0000000000000005
 11
37.51789441080081
 21
-3.249697385638574
 31
-0.0000000000000005
  0
LINE
  5
33C
  8
0
 10
37.51789441080081
 20
-3.249697385638574
 30
-0.0000000000000005
 11
37.51730363249384
 21
-3.258928367921144
 31
-0.0000000000000005
  0
LINE
  5
33D
  8
0
 10
37.51730363249384
 20
-3.258928367921144
 30
-0.0000000000000005
 11
37.51651499383759
 21
-3.267860975630386
 31
-0.0000000000000005
  0
LINE
  5
33E
  8
0
 10
37.51651499383759
 20
-3.267860975630386
 30
-0.0000000000000005
 11
37.51552908564934
 21
-3.276492988148538
 31
-0.0000000000000005
  0
LINE
  5
33F
  8
0
 10
37.51552908564934
 20
-3.276492988148538
 30
-0.0000000000000005
 11
37.51434667671919
 21
-3.284822483260925
 31
-0.0000000000000005
  0
LINE
  5
340
  8
0
 10
37.51434667671919
 20
-3.284822483260925
 30
-0.0000000000000005
 11
37.51296871783771
 21
-3.292847845070744
 31
-0.0000000000000005
  0
LINE
  5
341
  8
0
 10
37.51296871783771
 20
-3.292847845070744
 30
-0.0000000000000005
 11
37.51139634582361
 21
-3.300567771913847
 31
-0.0000000000000005
  0
LINE
  5
342
  8
0
 10
37.51139634582361
 20
-3.300567771913847
 30
-0.0000000000000005
 11
37.50963088755151
 21
-3.307981284273521
 31
-0.0000000000000005
  0
LINE
  5
343
  8
0
 10
37.50963088755151
 20
-3.307981284273521
 30
-0.0000000000000005
 11
37.5086762186766
 21
-3.31157291895807
 31
-0.0000000000000005
  0
LINE
  5
344
  8
0
 10
37.5086762186766
 20
-3.31157291895807
 30
-0.0000000000000005
 11
37.50767386397952
 21
-3.315087732695279
 31
-0.0000000000000005
  0
LINE
  5
345
  8
0
 10
37.50767386397952
 20
-3.315087732695279
 30
-0.0000000000000005
 11
37.50662404456638
 21
-3.318525697174078
 31
-0.0000000000000005
  0
LINE
  5
346
  8
0
 10
37.50662404456638
 20
-3.318525697174078
 30
-0.0000000000000005
 11
37.505526994177
 21
-3.321886805701634
 31
-0.0000000000000005
  0
LINE
  5
347
  8
0
 10
37.505526994177
 20
-3.321886805701634
 30
-0.0000000000000005
 11
37.50438295931069
 21
-3.325171073450689
 31
-0.0000000000000005
  0
LINE
  5
348
  8
0
 10
37.50438295931069
 20
-3.325171073450689
 30
-0.0000000000000005
 11
37.50319219935223
 21
-3.328378537706893
 31
-0.0000000000000005
  0
LINE
  5
349
  8
0
 10
37.50319219935223
 20
-3.328378537706893
 30
-0.0000000000000005
 11
37.50195498669763
 21
-3.331509258116146
 31
-0.0000000000000005
  0
LINE
  5
34A
  8
0
 10
37.50195498669763
 20
-3.331509258116146
 30
-0.0000000000000005
 11
37.50067160688008
 21
-3.334563316931931
 31
-0.0000000000000005
  0
LINE
  5
34B
  8
0
 10
37.50067160688008
 20
-3.334563316931931
 30
-0.0000000000000005
 11
37.49934235869576
 21
-3.337540819262654
 31
-0.0000000000000005
  0
LINE
  5
34C
  8
0
 10
37.49934235869576
 20
-3.337540819262654
 30
-0.0000000000000005
 11
37.49796755432973
 21
-3.340441893318979
 31
-0.0000000000000005
  0
LINE
  5
34D
  8
0
 10
37.49796755432973
 20
-3.340441893318979
 30
-0.0000000000000005
 11
37.49654751948178
 21
-3.343266690661167
 31
-0.0000000000000005
  0
LINE
  5
34E
  8
0
 10
37.49654751948178
 20
-3.343266690661167
 30
-0.0000000000000005
 11
37.49508259349231
 21
-3.34601538644641
 31
-0.0000000000000005
  0
LINE
  5
34F
  8
0
 10
37.49508259349231
 20
-3.34601538644641
 30
-0.0000000000000005
 11
37.4935731294682
 21
-3.348688179676171
 31
-0.0000000000000005
  0
LINE
  5
350
  8
0
 10
37.4935731294682
 20
-3.348688179676171
 30
-0.0000000000000005
 11
37.49201949440864
 21
-3.351285293443518
 31
-0.0000000000000005
  0
LINE
  5
351
  8
0
 10
37.49201949440864
 20
-3.351285293443518
 30
-0.0000000000000005
 11
37.49042206933106
 21
-3.353806975180465
 31
-0.0000000000000005
  0
LINE
  5
352
  8
0
 10
37.49042206933106
 20
-3.353806975180465
 30
-0.0000000000000005
 11
37.48878124939692
 21
-3.356253496905303
 31
-0.0000000000000005
  0
LINE
  5
353
  8
0
 10
37.48878124939692
 20
-3.356253496905303
 30
-0.0000000000000005
 11
37.48709744403327
 21
-3.358625155463711
 31
-0.0000000000000005
  0
LINE
  5
354
  8
0
 10
37.48709744403327
 20
-3.358625155463711
 30
-0.0000000000000005
 11
37.48537107694179
 21
-3.360922272607699
 31
-0.0000000000000005
  0
LINE
  5
355
  8
0
 10
37.48537107694179
 20
-3.360922272607699
 30
-0.0000000000000005
 11
37.48360258582201
 21
-3.363145194662935
 31
-0.0000000000000005
  0
LINE
  5
356
  8
0
 10
37.48360258582201
 20
-3.363145194662935
 30
-0.0000000000000005
 11
37.48179242198208
 21
-3.365294292033921
 31
-0.0000000000000005
  0
LINE
  5
357
  8
0
 10
37.48179242198208
 20
-3.365294292033921
 30
-0.0000000000000005
 11
37.4799410499452
 21
-3.367369958702928
 31
-0.0000000000000005
  0
LINE
  5
358
  8
0
 10
37.4799410499452
 20
-3.367369958702928
 30
-0.0000000000000005
 11
37.478048947056
 21
-3.369372611728936
 31
-0.0000000000000005
  0
LINE
  5
359
  8
0
 10
37.478048947056
 20
-3.369372611728936
 30
-0.0000000000000005
 11
37.47611660308696
 21
-3.371302690746571
 31
-0.0000000000000005
  0
LINE
  5
35A
  8
0
 10
37.47611660308696
 20
-3.371302690746571
 30
-0.0000000000000005
 11
37.47414451984487
 21
-3.373160657465049
 31
-0.0000000000000005
  0
LINE
  5
35B
  8
0
 10
37.47414451984487
 20
-3.373160657465049
 30
-0.0000000000000005
 11
37.47213321077715
 21
-3.374946995167105
 31
-0.0000000000000005
  0
LINE
  5
35C
  8
0
 10
37.47213321077715
 20
-3.374946995167105
 30
-0.0000000000000005
 11
37.47008320057836
 21
-3.376662208207942
 31
-0.0000000000000005
  0
LINE
  5
35D
  8
0
 10
37.47008320057836
 20
-3.376662208207942
 30
-0.0000000000000005
 11
37.46799502479652
 21
-3.378306821514161
 31
-0.0000000000000004
  0
LINE
  5
35E
  8
0
 10
37.46799502479652
 20
-3.378306821514161
 30
-0.0000000000000004
 11
37.46586922943962
 21
-3.379881380082706
 31
-0.0000000000000004
  0
LINE
  5
35F
  8
0
 10
37.46586922943962
 20
-3.379881380082706
 30
-0.0000000000000004
 11
37.46370637058195
 21
-3.381386448479797
 31
-0.0000000000000004
  0
LINE
  5
360
  8
0
 10
37.46370637058195
 20
-3.381386448479797
 30
-0.0000000000000004
 11
37.46150701397055
 21
-3.382822610339874
 31
-0.0000000000000004
  0
LINE
  5
361
  8
0
 10
37.46150701397055
 20
-3.382822610339874
 30
-0.0000000000000004
 11
37.45927173463161
 21
-3.38419046786453
 31
-0.0000000000000004
  0
LINE
  5
362
  8
0
 10
37.45927173463161
 20
-3.38419046786453
 30
-0.0000000000000004
 11
37.4570011164769
 21
-3.385490641321455
 31
-0.0000000000000004
  0
LINE
  5
363
  8
0
 10
37.4570011164769
 20
-3.385490641321455
 30
-0.0000000000000004
 11
37.45469575191019
 21
-3.386723768543371
 31
-0.0000000000000004
  0
LINE
  5
364
  8
0
 10
37.45469575191019
 20
-3.386723768543371
 30
-0.0000000000000004
 11
37.45235624143361
 21
-3.387890504426969
 31
-0.0000000000000004
  0
LINE
  5
365
  8
0
 10
37.45235624143361
 20
-3.387890504426969
 30
-0.0000000000000004
 11
37.4499831932541
 21
-3.388991520431855
 31
-0.0000000000000004
  0
LINE
  5
366
  8
0
 10
37.4499831932541
 20
-3.388991520431855
 30
-0.0000000000000004
 11
37.44757722288983
 21
-3.390027504079479
 31
-0.0000000000000004
  0
LINE
  5
367
  8
0
 10
37.44757722288983
 20
-3.390027504079479
 30
-0.0000000000000004
 11
37.44513895277662
 21
-3.390999158452081
 31
-0.0000000000000004
  0
LINE
  5
368
  8
0
 10
37.44513895277662
 20
-3.390999158452081
 30
-0.0000000000000004
 11
37.44266901187427
 21
-3.391907201691627
 31
-0.0000000000000004
  0
LINE
  5
369
  8
0
 10
37.44266901187427
 20
-3.391907201691627
 30
-0.0000000000000004
 11
37.44016803527312
 21
-3.392752366498744
 31
-0.0000000000000004
  0
LINE
  5
36A
  8
0
 10
37.44016803527312
 20
-3.392752366498744
 30
-0.0000000000000004
 11
37.43763666380032
 21
-3.393535399631665
 31
-0.0000000000000004
  0
LINE
  5
36B
  8
0
 10
37.43763666380032
 20
-3.393535399631665
 30
-0.0000000000000004
 11
37.43507554362631
 21
-3.394257061405162
 31
-0.0000000000000004
  0
LINE
  5
36C
  8
0
 10
37.43507554362631
 20
-3.394257061405162
 30
-0.0000000000000004
 11
37.43248532587124
 21
-3.394918125189491
 31
-0.0000000000000004
  0
LINE
  5
36D
  8
0
 10
37.43248532587124
 20
-3.394918125189491
 30
-0.0000000000000004
 11
37.42986666621135
 21
-3.395519376909322
 31
-0.0000000000000004
  0
LINE
  5
36E
  8
0
 10
37.42986666621135
 20
-3.395519376909322
 30
-0.0000000000000004
 11
37.42722022448541
 21
-3.396061614542684
 31
-0.0000000000000004
  0
LINE
  5
36F
  8
0
 10
37.42722022448541
 20
-3.396061614542684
 30
-0.0000000000000004
 11
37.4245466643011
 21
-3.396545647619901
 31
-0.0000000000000004
  0
LINE
  5
370
  8
0
 10
37.4245466643011
 20
-3.396545647619901
 30
-0.0000000000000004
 11
37.42184665264147
 21
-3.396972296722533
 31
-0.0000000000000004
  0
LINE
  5
371
  8
0
 10
37.42184665264147
 20
-3.396972296722533
 30
-0.0000000000000004
 11
37.4191208594713
 21
-3.39734239298231
 31
-0.0000000000000004
  0
LINE
  5
372
  8
0
 10
37.4191208594713
 20
-3.39734239298231
 30
-0.0000000000000004
 11
37.41636995734355
 21
-3.397656777580075
 31
-0.0000000000000004
  0
LINE
  5
373
  8
0
 10
37.41636995734355
 20
-3.397656777580075
 30
-0.0000000000000004
 11
37.41359462100503
 21
-3.397916301243943
 31
-0.0000000000000004
  0
LINE
  5
374
  8
0
 10
37.41359462100503
 20
-3.397916301243943
 30
-0.0000000000000004
 11
37.41079552698315
 21
-3.398121823727232
 31
-0.0000000000000004
  0
LINE
  5
375
  8
0
 10
37.41079552698315
 20
-3.398121823727232
 30
-0.0000000000000004
 11
37.40797335312459
 21
-3.398274213235045
 31
-0.0000000000000004
  0
LINE
  5
376
  8
0
 10
37.40797335312459
 20
-3.398274213235045
 30
-0.0000000000000004
 11
37.40512877811499
 21
-3.398374345830624
 31
-0.0000000000000004
  0
LINE
  5
377
  8
0
 10
37.40512877811499
 20
-3.398374345830624
 30
-0.0000000000000004
 11
37.402262480998
 21
-3.398423104840925
 31
-0.0000000000000004
  0
LINE
  5
378
  8
0
 10
37.402262480998
 20
-3.398423104840925
 30
-0.0000000000000004
 11
37.3993751406943
 21
-3.398421380262191
 31
-0.0000000000000004
  0
LINE
  5
379
  8
0
 10
37.3993751406943
 20
-3.398421380262191
 30
-0.0000000000000004
 11
37.39354004270834
 21
-3.398270070102489
 31
-0.0000000000000004
  0
LINE
  5
37A
  8
0
 10
37.39354004270834
 20
-3.398270070102489
 30
-0.0000000000000004
 11
37.38762889478422
 21
-3.397927646119091
 31
-0.0000000000000004
  0
LINE
  5
37B
  8
0
 10
37.38762889478422
 20
-3.397927646119091
 30
-0.0000000000000004
 11
37.38164707479705
 21
-3.39740140774499
 31
-0.0000000000000004
  0
LINE
  5
37C
  8
0
 10
37.38164707479705
 20
-3.39740140774499
 30
-0.0000000000000004
 11
37.37559991247793
 21
-3.396698704056996
 31
-0.0000000000000004
  0
LINE
  5
37D
  8
0
 10
37.37559991247793
 20
-3.396698704056996
 30
-0.0000000000000004
 11
37.36949267402194
 21
-3.395826914754141
 31
-0.0000000000000004
  0
LINE
  5
37E
  8
0
 10
37.36949267402194
 20
-3.395826914754141
 30
-0.0000000000000004
 11
37.36333054669622
 21
-3.39479343113608
 31
-0.0000000000000004
  0
LINE
  5
37F
  8
0
 10
37.36333054669622
 20
-3.39479343113608
 30
-0.0000000000000004
 11
37.35711862344792
 21
-3.393605637081487
 31
-0.0000000000000004
  0
LINE
  5
380
  8
0
 10
37.35711862344792
 20
-3.393605637081487
 30
-0.0000000000000004
 11
37.35086188751232
 21
-3.392270890026464
 31
-0.0000000000000004
  0
LINE
  5
381
  8
0
 10
37.35086188751232
 20
-3.392270890026464
 30
-0.0000000000000004
 11
37.34456519702074
 21
-3.390796501942933
 31
-0.0000000000000004
  0
LINE
  5
382
  8
0
 10
37.34456519702074
 20
-3.390796501942933
 30
-0.0000000000000004
 11
37.3318706670236
 21
-3.387457709127579
 31
-0.0000000000000004
  0
LINE
  5
383
  8
0
 10
37.3318706670236
 20
-3.387457709127579
 30
-0.0000000000000004
 11
37.31907081153396
 21
-3.383646122306553
 31
-0.0000000000000004
  0
LINE
  5
384
  8
0
 10
37.31907081153396
 20
-3.383646122306553
 30
-0.0000000000000004
 11
37.30619842417061
 21
-3.379416662781904
 31
-0.0000000000000004
  0
LINE
  5
385
  8
0
 10
37.30619842417061
 20
-3.379416662781904
 30
-0.0000000000000004
 11
37.29328288339254
 21
-3.37482176667723
 31
-0.0000000000000004
  0
LINE
  5
386
  8
0
 10
37.29328288339254
 20
-3.37482176667723
 30
-0.0000000000000004
 11
37.28034987296722
 21
-3.369911003172652
 31
-0.0000000000000004
  0
LINE
  5
387
  8
0
 10
37.28034987296722
 20
-3.369911003172652
 30
-0.0000000000000004
 11
37.26742116199067
 21
-3.364730756181521
 31
-0.0000000000000004
  0
LINE
  5
388
  8
0
 10
37.26742116199067
 20
-3.364730756181521
 30
-0.0000000000000004
 11
37.24164283527324
 21
-3.353729525759725
 31
-0.0000000000000004
  0
LINE
  5
389
  8
0
 10
37.24164283527324
 20
-3.353729525759725
 30
-0.0000000000000004
 11
37.2160354903759
 21
-3.342113437820334
 31
-0.0000000000000004
  0
LINE
  5
38A
  8
0
 10
37.2160354903759
 20
-3.342113437820334
 30
-0.0000000000000004
 11
37.00484248856596
 21
-3.240208897718242
 31
-0.0000000000000004
  0
LINE
  5
38B
  8
0
 10
37.00484248856596
 20
-3.240208897718242
 30
-0.0000000000000004
 11
36.69247286521993
 21
-3.101308390547965
 31
-0.0000000000000004
  0
LINE
  5
38C
  8
0
 10
36.69247286521993
 20
-3.101308390547965
 30
-0.0000000000000004
 11
36.15794634596457
 21
-2.882146014699661
 31
-0.0000000000000003
  0
LINE
  5
38D
  8
0
 10
36.15794634596457
 20
-2.882146014699661
 30
-0.0000000000000003
 11
37.45503411497671
 21
-2.882145999180178
 31
-0.0000000000000004
  0
LINE
  5
38E
  8
0
 10
31.18384769976461
 20
-2.88214599759193
 30
0.0000000000000003
 11
31.04683399961718
 21
-2.952673402355229
 31
0.0000000000000003
  0
LINE
  5
38F
  8
0
 10
31.04683399961718
 20
-2.952673402355229
 30
0.0000000000000003
 11
30.49317936003752
 21
-3.261885795289282
 31
0.0000000000000004
  0
LINE
  5
390
  8
0
 10
30.49317936003752
 20
-3.261885795289282
 30
0.0000000000000004
 11
30.44787330617406
 21
-3.285389653930418
 31
0.0000000000000004
  0
LINE
  5
391
  8
0
 10
30.44787330617406
 20
-3.285389653930418
 30
0.0000000000000004
 11
30.40339952768297
 21
-3.307399333571809
 31
0.0000000000000004
  0
LINE
  5
392
  8
0
 10
30.40339952768297
 20
-3.307399333571809
 30
0.0000000000000004
 11
30.36004671721539
 21
-3.327545341819219
 31
0.0000000000000004
  0
LINE
  5
393
  8
0
 10
30.36004671721539
 20
-3.327545341819219
 30
0.0000000000000004
 11
30.33888712337662
 21
-3.336799620446624
 31
0.0000000000000004
  0
LINE
  5
394
  8
0
 10
30.33888712337662
 20
-3.336799620446624
 30
0.0000000000000004
 11
30.3181254486045
 21
-3.345443200334321
 31
0.0000000000000004
  0
LINE
  5
395
  8
0
 10
30.3181254486045
 20
-3.345443200334321
 30
0.0000000000000004
 11
30.29780244140237
 21
-3.353427387242311
 31
0.0000000000000004
  0
LINE
  5
396
  8
0
 10
30.29780244140237
 20
-3.353427387242311
 30
0.0000000000000004
 11
30.27795909789283
 21
-3.360703832396891
 31
0.0000000000000004
  0
LINE
  5
397
  8
0
 10
30.27795909789283
 20
-3.360703832396891
 30
0.0000000000000004
 11
30.25863643528136
 21
-3.36722479439831
 31
0.0000000000000004
  0
LINE
  5
398
  8
0
 10
30.25863643528136
 20
-3.36722479439831
 30
0.0000000000000004
 11
30.23987528148012
 21
-3.372943383407833
 31
0.0000000000000004
  0
LINE
  5
399
  8
0
 10
30.23987528148012
 20
-3.372943383407833
 30
0.0000000000000004
 11
30.23071792572665
 21
-3.375487427739925
 31
0.0000000000000004
  0
LINE
  5
39A
  8
0
 10
30.23071792572665
 20
-3.375487427739925
 30
0.0000000000000004
 11
30.22171606535317
 21
-3.37781380465324
 31
0.0000000000000004
  0
LINE
  5
39B
  8
0
 10
30.22171606535317
 20
-3.37781380465324
 30
0.0000000000000004
 11
30.21287465720352
 21
-3.379917000855515
 31
0.0000000000000004
  0
LINE
  5
39C
  8
0
 10
30.21287465720352
 20
-3.379917000855515
 30
0.0000000000000004
 11
30.20419860696171
 21
-3.381791601934332
 31
0.0000000000000004
  0
LINE
  5
39D
  8
0
 10
30.20419860696171
 20
-3.381791601934332
 30
0.0000000000000004
 11
30.19569276259706
 21
-3.383432299966666
 31
0.0000000000000004
  0
LINE
  5
39E
  8
0
 10
30.19569276259706
 20
-3.383432299966666
 30
0.0000000000000004
 11
30.18736190780938
 21
-3.384833901128427
 31
0.0000000000000004
  0
LINE
  5
39F
  8
0
 10
30.18736190780938
 20
-3.384833901128427
 30
0.0000000000000004
 11
30.1792107554741
 21
-3.385991333304016
 31
0.0000000000000004
  0
LINE
  5
3A0
  8
0
 10
30.1792107554741
 20
-3.385991333304016
 30
0.0000000000000004
 11
30.17124394108749
 21
-3.386899653695862
 31
0.0000000000000004
  0
LINE
  5
3A1
  8
0
 10
30.17124394108749
 20
-3.386899653695862
 30
0.0000000000000004
 11
30.16346601619612
 21
-3.387554056452262
 31
0.0000000000000004
  0
LINE
  5
3A2
  8
0
 10
30.16346601619612
 20
-3.387554056452262
 30
0.0000000000000004
 11
30.15588144142036
 21
-3.387949880770644
 31
0.0000000000000004
  0
LINE
  5
3A3
  8
0
 10
30.15588144142036
 20
-3.387949880770644
 30
0.0000000000000004
 11
30.15216302744732
 21
-3.388049411455026
 31
0.0000000000000004
  0
LINE
  5
3A4
  8
0
 10
30.15216302744732
 20
-3.388049411455026
 30
0.0000000000000004
 11
30.1484945784466
 21
-3.388082620207702
 31
0.0000000000000004
  0
LINE
  5
3A5
  8
0
 10
30.1484945784466
 20
-3.388082620207702
 30
0.0000000000000004
 11
30.14487662279007
 21
-3.38804896944748
 31
0.0000000000000004
  0
LINE
  5
3A6
  8
0
 10
30.14487662279007
 20
-3.38804896944748
 30
0.0000000000000004
 11
30.1413096816135
 21
-3.387947932464966
 31
0.0000000000000004
  0
LINE
  5
3A7
  8
0
 10
30.1413096816135
 20
-3.387947932464966
 30
0.0000000000000004
 11
30.13779426855319
 21
-3.387778993728925
 31
0.0000000000000004
  0
LINE
  5
3A8
  8
0
 10
30.13779426855319
 20
-3.387778993728925
 30
0.0000000000000004
 11
30.13433088948253
 21
-3.387541649192658
 31
0.0000000000000004
  0
LINE
  5
3A9
  8
0
 10
30.13433088948253
 20
-3.387541649192658
 30
0.0000000000000004
 11
30.13092004224854
 21
-3.387235406600372
 31
0.0000000000000004
  0
LINE
  5
3AA
  8
0
 10
30.13092004224854
 20
-3.387235406600372
 30
0.0000000000000004
 11
30.12756221640853
 21
-3.386859785793545
 31
0.0000000000000004
  0
LINE
  5
3AB
  8
0
 10
30.12756221640853
 20
-3.386859785793545
 30
0.0000000000000004
 11
30.1242578929666
 21
-3.386414319017304
 31
0.0000000000000004
  0
LINE
  5
3AC
  8
0
 10
30.1242578929666
 20
-3.386414319017304
 30
0.0000000000000004
 11
30.12100754411028
 21
-3.385898551226792
 31
0.0000000000000004
  0
LINE
  5
3AD
  8
0
 10
30.12100754411028
 20
-3.385898551226792
 30
0.0000000000000004
 11
30.11781163294706
 21
-3.385312040393536
 31
0.0000000000000005
  0
LINE
  5
3AE
  8
0
 10
30.11781163294706
 20
-3.385312040393536
 30
0.0000000000000005
 11
30.11467061324103
 21
-3.38465435781182
 31
0.0000000000000005
  0
LINE
  5
3AF
  8
0
 10
30.11467061324103
 20
-3.38465435781182
 30
0.0000000000000005
 11
30.1115849291494
 21
-3.383925088405059
 31
0.0000000000000005
  0
LINE
  5
3B0
  8
0
 10
30.1115849291494
 20
-3.383925088405059
 30
0.0000000000000005
 11
30.10855501495911
 21
-3.383123831032162
 31
0.0000000000000005
  0
LINE
  5
3B1
  8
0
 10
30.10855501495911
 20
-3.383123831032162
 30
0.0000000000000005
 11
30.10558129482339
 21
-3.382250198793908
 31
0.0000000000000005
  0
LINE
  5
3B2
  8
0
 10
30.10558129482339
 20
-3.382250198793908
 30
0.0000000000000005
 11
30.1026641824984
 21
-3.381303819339312
 31
0.0000000000000005
  0
LINE
  5
3B3
  8
0
 10
30.1026641824984
 20
-3.381303819339312
 30
0.0000000000000005
 11
30.09980408107972
 21
-3.380284335172003
 31
0.0000000000000005
  0
LINE
  5
3B4
  8
0
 10
30.09980408107972
 20
-3.380284335172003
 30
0.0000000000000005
 11
30.097001382739
 21
-3.379191403956584
 31
0.0000000000000005
  0
LINE
  5
3B5
  8
0
 10
30.097001382739
 20
-3.379191403956584
 30
0.0000000000000005
 11
30.09425646846051
 21
-3.378024698825014
 31
0.0000000000000005
  0
LINE
  5
3B6
  8
0
 10
30.09425646846051
 20
-3.378024698825014
 30
0.0000000000000005
 11
30.09156970777771
 21
-3.376783908682967
 31
0.0000000000000005
  0
LINE
  5
3B7
  8
0
 10
30.09156970777771
 20
-3.376783908682967
 30
0.0000000000000005
 11
30.08894145850986
 21
-3.375468738516212
 31
0.0000000000000005
  0
LINE
  5
3B8
  8
0
 10
30.08894145850986
 20
-3.375468738516212
 30
0.0000000000000005
 11
30.0863720664986
 21
-3.374078909696977
 31
0.0000000000000005
  0
LINE
  5
3B9
  8
0
 10
30.0863720664986
 20
-3.374078909696977
 30
0.0000000000000005
 11
30.08386186534448
 21
-3.372614160290323
 31
0.0000000000000005
  0
LINE
  5
3BA
  8
0
 10
30.08386186534448
 20
-3.372614160290323
 30
0.0000000000000005
 11
30.0814111761436
 21
-3.371074245360514
 31
0.0000000000000005
  0
LINE
  5
3BB
  8
0
 10
30.0814111761436
 20
-3.371074245360514
 30
0.0000000000000005
 11
30.07902030722415
 21
-3.369458937277384
 31
0.0000000000000005
  0
LINE
  5
3BC
  8
0
 10
30.07902030722415
 20
-3.369458937277384
 30
0.0000000000000005
 11
30.07668955388302
 21
-3.367768026022715
 31
0.0000000000000005
  0
LINE
  5
3BD
  8
0
 10
30.07668955388302
 20
-3.367768026022715
 30
0.0000000000000005
 11
30.07441919812235
 21
-3.366001319496599
 31
0.0000000000000005
  0
LINE
  5
3BE
  8
0
 10
30.07441919812235
 20
-3.366001319496599
 30
0.0000000000000005
 11
30.07220950838613
 21
-3.364158643823813
 31
0.0000000000000005
  0
LINE
  5
3BF
  8
0
 10
30.07220950838613
 20
-3.364158643823813
 30
0.0000000000000005
 11
30.07006073929994
 21
-3.362239843656276
 31
0.0000000000000005
  0
LINE
  5
3C0
  8
0
 10
30.07006073929994
 20
-3.362239843656276
 30
0.0000000000000005
 11
30.06797313149279
 21
-3.360244782373749
 31
0.0000000000000005
  0
LINE
  5
3C1
  8
0
 10
30.06797313149279
 20
-3.360244782373749
 30
0.0000000000000005
 11
30.06594691162739
 21
-3.358173342026241
 31
0.0000000000000005
  0
LINE
  5
3C2
  8
0
 10
30.06594691162739
 20
-3.358173342026241
 30
0.0000000000000005
 11
30.06398229251255
 21
-3.356025423174656
 31
0.0000000000000005
  0
LINE
  5
3C3
  8
0
 10
30.06398229251255
 20
-3.356025423174656
 30
0.0000000000000005
 11
30.06207947321872
 21
-3.353800944727525
 31
0.0000000000000005
  0
LINE
  5
3C4
  8
0
 10
30.06207947321872
 20
-3.353800944727525
 30
0.0000000000000005
 11
30.06023863919358
 21
-3.351499843777749
 31
0.0000000000000005
  0
LINE
  5
3C5
  8
0
 10
30.06023863919358
 20
-3.351499843777749
 30
0.0000000000000005
 11
30.0584599623775
 21
-3.349122075439324
 31
0.0000000000000005
  0
LINE
  5
3C6
  8
0
 10
30.0584599623775
 20
-3.349122075439324
 30
0.0000000000000005
 11
30.05674360131918
 21
-3.346667612684084
 31
0.0000000000000005
  0
LINE
  5
3C7
  8
0
 10
30.05674360131918
 20
-3.346667612684084
 30
0.0000000000000005
 11
30.05508970129113
 21
-3.34413644617843
 31
0.0000000000000005
  0
LINE
  5
3C8
  8
0
 10
30.05508970129113
 20
-3.34413644617843
 30
0.0000000000000005
 11
30.05349839440524
 21
-3.34152858412007
 31
0.0000000000000005
  0
LINE
  5
3C9
  8
0
 10
30.05349839440524
 20
-3.34152858412007
 30
0.0000000000000005
 11
30.05196979972835
 21
-3.338844052074748
 31
0.0000000000000005
  0
LINE
  5
3CA
  8
0
 10
30.05196979972835
 20
-3.338844052074748
 30
0.0000000000000005
 11
30.05050402339776
 21
-3.336082892812989
 31
0.0000000000000005
  0
LINE
  5
3CB
  8
0
 10
30.05050402339776
 20
-3.336082892812989
 30
0.0000000000000005
 11
30.04910115873681
 21
-3.33324516614682
 31
0.0000000000000005
  0
LINE
  5
3CC
  8
0
 10
30.04910115873681
 20
-3.33324516614682
 30
0.0000000000000005
 11
30.0477612863704
 21
-3.330330948766515
 31
0.0000000000000005
  0
LINE
  5
3CD
  8
0
 10
30.0477612863704
 20
-3.330330948766515
 30
0.0000000000000005
 11
30.04648447434055
 21
-3.327340334077329
 31
0.0000000000000005
  0
LINE
  5
3CE
  8
0
 10
30.04648447434055
 20
-3.327340334077329
 30
0.0000000000000005
 11
30.04527077822193
 21
-3.324273432036231
 31
0.0000000000000005
  0
LINE
  5
3CF
  8
0
 10
30.04527077822193
 20
-3.324273432036231
 30
0.0000000000000005
 11
30.04412024123745
 21
-3.321130368988635
 31
0.0000000000000005
  0
LINE
  5
3D0
  8
0
 10
30.04412024123745
 20
-3.321130368988635
 30
0.0000000000000005
 11
30.04303289437378
 21
-3.317911287505145
 31
0.0000000000000005
  0
LINE
  5
3D1
  8
0
 10
30.04303289437378
 20
-3.317911287505145
 30
0.0000000000000005
 11
30.04200875649688
 21
-3.314616346218277
 31
0.0000000000000005
  0
LINE
  5
3D2
  8
0
 10
30.04200875649688
 20
-3.314616346218277
 30
0.0000000000000005
 11
30.04104783446757
 21
-3.311245719659208
 31
0.0000000000000005
  0
LINE
  5
3D3
  8
0
 10
30.04104783446757
 20
-3.311245719659208
 30
0.0000000000000005
 11
30.04015012325707
 21
-3.307799598094499
 31
0.0000000000000005
  0
LINE
  5
3D4
  8
0
 10
30.04015012325707
 20
-3.307799598094499
 30
0.0000000000000005
 11
30.03931560606257
 21
-3.304278187362836
 31
0.0000000000000005
  0
LINE
  5
3D5
  8
0
 10
30.03931560606257
 20
-3.304278187362836
 30
0.0000000000000005
 11
30.03854425442271
 21
-3.300681708711764
 31
0.0000000000000005
  0
LINE
  5
3D6
  8
0
 10
30.03854425442271
 20
-3.300681708711764
 30
0.0000000000000005
 11
30.03783602833323
 21
-3.297010398634422
 31
0.0000000000000005
  0
LINE
  5
3D7
  8
0
 10
30.03783602833323
 20
-3.297010398634422
 30
0.0000000000000005
 11
30.03719087636242
 21
-3.293264508706275
 31
0.0000000000000005
  0
LINE
  5
3D8
  8
0
 10
30.03719087636242
 20
-3.293264508706275
 30
0.0000000000000005
 11
30.03660873576672
 21
-3.289444305421856
 31
0.0000000000000005
  0
LINE
  5
3D9
  8
0
 10
30.03660873576672
 20
-3.289444305421856
 30
0.0000000000000005
 11
30.03608953260627
 21
-3.285550070031491
 31
0.0000000000000005
  0
LINE
  5
3DA
  8
0
 10
30.03608953260627
 20
-3.285550070031491
 30
0.0000000000000005
 11
30.03563318186041
 21
-3.281582098378045
 31
0.0000000000000005
  0
LINE
  5
3DB
  8
0
 10
30.03563318186041
 20
-3.281582098378045
 30
0.0000000000000005
 11
30.03490864281939
 21
-3.273426201636426
 31
0.0000000000000005
  0
LINE
  5
3DC
  8
0
 10
30.03490864281939
 20
-3.273426201636426
 30
0.0000000000000005
 11
30.03443422125398
 21
-3.264979267586487
 31
0.0000000000000005
  0
LINE
  5
3DD
  8
0
 10
30.03443422125398
 20
-3.264979267586487
 30
0.0000000000000005
 11
30.03420884989005
 21
-3.256244171632956
 31
0.0000000000000005
  0
LINE
  5
3DE
  8
0
 10
30.03420884989005
 20
-3.256244171632956
 30
0.0000000000000005
 11
30.03423129561206
 21
-3.247224006530403
 31
0.0000000000000005
  0
LINE
  5
3DF
  8
0
 10
30.03423129561206
 20
-3.247224006530403
 30
0.0000000000000005
 11
30.03450016435084
 21
-3.237922075640065
 31
0.0000000000000005
  0
LINE
  5
3E0
  8
0
 10
30.03450016435084
 20
-3.237922075640065
 30
0.0000000000000005
 11
30.03501390630411
 21
-3.228341885762089
 31
0.0000000000000005
  0
LINE
  5
3E1
  8
0
 10
30.03501390630411
 20
-3.228341885762089
 30
0.0000000000000005
 11
30.03577082116973
 21
-3.218487139951442
 31
0.0000000000000005
  0
LINE
  5
3E2
  8
0
 10
30.03577082116973
 20
-3.218487139951442
 30
0.0000000000000005
 11
30.03676906337908
 21
-3.208361730333822
 31
0.0000000000000005
  0
LINE
  5
3E3
  8
0
 10
30.03676906337908
 20
-3.208361730333822
 30
0.0000000000000005
 11
30.03800664733032
 21
-3.197969730921573
 31
0.0000000000000005
  0
LINE
  5
3E4
  8
0
 10
30.03800664733032
 20
-3.197969730921573
 30
0.0000000000000005
 11
30.03948145262171
 21
-3.187315390429589
 31
0.0000000000000005
  0
LINE
  5
3E5
  8
0
 10
30.03948145262171
 20
-3.187315390429589
 30
0.0000000000000005
 11
30.0431336030184
 21
-3.165237511474253
 31
0.0000000000000005
  0
LINE
  5
3E6
  8
0
 10
30.0431336030184
 20
-3.165237511474253
 30
0.0000000000000005
 11
30.04770605422303
 21
-3.142165304242728
 31
0.0000000000000005
  0
LINE
  5
3E7
  8
0
 10
30.04770605422303
 20
-3.142165304242728
 30
0.0000000000000005
 11
30.05317752402289
 21
-3.118138314969142
 31
0.0000000000000005
  0
LINE
  5
3E8
  8
0
 10
30.05317752402289
 20
-3.118138314969142
 30
0.0000000000000005
 11
30.05952507580449
 21
-3.093198195456009
 31
0.0000000000000005
  0
LINE
  5
3E9
  8
0
 10
30.05952507580449
 20
-3.093198195456009
 30
0.0000000000000005
 11
30.06623515599771
 21
-3.069077115103792
 31
0.0000000000000005
  0
LINE
  5
3EA
  8
0
 10
30.06623515599771
 20
-3.069077115103792
 30
0.0000000000000005
 11
30.07366961974625
 21
-3.044231847390629
 31
0.0000000000000005
  0
LINE
  5
3EB
  8
0
 10
30.07366961974625
 20
-3.044231847390629
 30
0.0000000000000005
 11
30.09062302721993
 21
-2.992522060906264
 31
0.0000000000000005
  0
LINE
  5
3EC
  8
0
 10
30.09062302721993
 20
-2.992522060906264
 30
0.0000000000000005
 11
30.11020045156524
 21
-2.938384465080248
 31
0.0000000000000005
  0
LINE
  5
3ED
  8
0
 10
30.11020045156524
 20
-2.938384465080248
 30
0.0000000000000005
 11
30.13220728025411
 21
-2.882145997724027
 31
0.0000000000000004
  0
LINE
  5
3EE
  8
0
 10
30.13220728025411
 20
-2.882145997724027
 30
0.0000000000000004
 11
31.18384769976461
 21
-2.88214599759193
 31
0.0000000000000003
  0
ARC
  5
3EF
  8
0
 10
33.73859210594126
 20
-3.694945522217485
 30
0.0
 40
3.329485225207261
 50
63.74169280566294
 51
116.2583073014351
  0
LINE
  5
3F0
  8
0
 10
35.21161870172703
 20
-0.7090345200305137
 30
-0.0000000000000002
 11
32.26556550457418
 21
-0.709034522783913
 31
0.0000000000000002
  0
LINE
  5
3F1
  8
0
 10
36.68243886963077
 20
-1.573425541504609
 30
-0.0000000000000004
 11
36.15196887367055
 21
-1.184226157672057
 31
-0.0000000000000003
  0
LINE
  5
3F2
  8
0
 10
30.97893047558996
 20
-1.573424944458175
 30
0.0000000000000003
 11
36.68243886963077
 21
-1.573425541504609
 31
-0.0000000000000004
  0
LINE
  5
3F3
  8
0
 10
31.43883723600785
 20
-1.184221689072611
 30
0.0000000000000003
 11
30.97893047558996
 21
-1.573424944458175
 31
0.0000000000000003
  0
LINE
  5
3F4
  8
0
 10
36.15196887367055
 20
-1.184226157672057
 30
-0.0000000000000003
 11
31.43883723600785
 21
-1.184221689072611
 31
0.0000000000000003
  0
ARC
  5
3F5
  8
0
 10
17.73382508242263
 20
-7.241838779494554
 30
0.0
 40
4.905026244699845
 50
73.71227572438227
 51
106.2878698111777
  0
LINE
  5
3F6
  8
0
 10
14.01852167996846
 20
-2.533673802321577
 30
0.0
 11
16.3581442513493
 21
-2.533677279268414
 31
0.0
  0
LINE
  5
3F7
  8
0
 10
14.29862889513366
 20
-2.024232160523344
 30
0.0
 11
14.01852167996846
 21
-2.533673802321577
 31
0.0
  0
LINE
  5
3F8
  8
0
 10
20.68432705317407
 20
-2.024232160533671
 30
0.0
 11
14.29862889513366
 21
-2.024232160523344
 31
0.0
  0
LINE
  5
3F9
  8
0
 10
21.00255883997758
 20
-2.533673784888983
 30
0.0
 11
20.68432705317407
 21
-2.024232160533671
 31
0.0
  0
LINE
  5
3FA
  8
0
 10
19.10949395440961
 20
-2.533673784951528
 30
0.0
 11
21.00255883997758
 21
-2.533673784888983
 31
0.0
  0
LINE
  5
3FB
  8
0
 10
19.88576142411308
 20
-1.232353373558432
 30
0.0
 11
20.34566369179901
 21
-1.621553423970008
 31
0.0
  0
LINE
  5
3FC
  8
0
 10
15.1726324459422
 20
-1.232350233565356
 30
0.0
 11
19.88576142411308
 21
-1.232353373558432
 31
0.0
  0
LINE
  5
3FD
  8
0
 10
14.64215590329869
 20
-1.621553382578316
 30
0.0
 11
15.1726324459422
 21
-1.232350233565356
 31
0.0
  0
LINE
  5
3FE
  8
0
 10
20.34566369179901
 20
-1.621553423970008
 30
0.0
 11
14.64215590329869
 21
-1.621553382578316
 31
0.0
  0
ARC
  5
3FF
  8
0
 10
17.58600202000958
 20
-3.743073994141494
 30
0.0
 40
3.32948525696718
 50
63.74169174654966
 51
116.2583081218806
  0
LINE
  5
400
  8
0
 10
16.11297536183464
 20
-0.7571629873183205
 30
0.0
 11
19.05902868504115
 21
-0.7571629907008699
 31
0.0
  0
LINE
  5
401
  8
0
 10
41.62604729397679
 20
-8.717111756885037
 30
0.0
 11
43.81100574917228
 21
-8.710673769150784
 31
0.0
  0
LINE
  5
402
  8
0
 10
28.50115576935259
 20
-4.828651985372504
 30
0.0
 11
28.50099067754558
 21
-4.81890070139255
 31
0.0
  0
LINE
  5
403
  8
0
 10
28.50099067754558
 20
-4.81890070139255
 30
0.0
 11
28.50049242398132
 21
-4.809106394562571
 31
0.0
  0
LINE
  5
404
  8
0
 10
28.50049242398132
 20
-4.809106394562571
 30
0.0
 11
28.49965658939879
 21
-4.799270609852679
 31
0.0
  0
LINE
  5
405
  8
0
 10
28.49965658939879
 20
-4.799270609852679
 30
0.0
 11
28.49847882220354
 21
-4.789394938242844
 31
0.0
  0
LINE
  5
406
  8
0
 10
28.49847882220354
 20
-4.789394938242844
 30
0.0
 11
28.49695484317063
 21
-4.779481016594083
 31
0.0
  0
LINE
  5
407
  8
0
 10
28.49695484317063
 20
-4.779481016594083
 30
0.0
 11
28.49508045019434
 21
-4.769530527465649
 31
0.0
  0
LINE
  5
408
  8
0
 10
28.49508045019434
 20
-4.769530527465649
 30
0.0
 11
28.49285152307859
 21
-4.759545198876824
 31
0.0
  0
LINE
  5
409
  8
0
 10
28.49285152307859
 20
-4.759545198876824
 30
0.0
 11
28.49026402836204
 21
-4.749526804011974
 31
0.0
  0
LINE
  5
40A
  8
0
 10
28.49026402836204
 20
-4.749526804011974
 30
0.0
 11
28.48731402417123
 21
-4.739477160867601
 31
0.0
  0
LINE
  5
40B
  8
0
 10
28.48731402417123
 20
-4.739477160867601
 30
0.0
 11
28.48399766509512
 21
-4.729398131840188
 31
0.0
  0
LINE
  5
40C
  8
0
 10
28.48399766509512
 20
-4.729398131840188
 30
0.0
 11
28.4803112070739
 21
-4.719291623253763
 31
0.0
  0
LINE
  5
40D
  8
0
 10
28.4803112070739
 20
-4.719291623253763
 30
0.0
 11
28.47625101229483
 21
-4.709159584826127
 31
0.0
  0
LINE
  5
40E
  8
0
 10
28.47625101229483
 20
-4.709159584826127
 30
0.0
 11
28.4718135540875
 21
-4.699004009072855
 31
0.0
  0
LINE
  5
40F
  8
0
 10
28.4718135540875
 20
-4.699004009072855
 30
0.0
 11
28.46699542181072
 21
-4.688826930648239
 31
0.0
  0
LINE
  5
410
  8
0
 10
28.46699542181072
 20
-4.688826930648239
 30
0.0
 11
28.46179332572298
 21
-4.678630425622466
 31
0.0
  0
LINE
  5
411
  8
0
 10
28.46179332572298
 20
-4.678630425622466
 30
0.0
 11
28.45620410182829
 21
-4.668416610694429
 31
0.0
  0
LINE
  5
412
  8
0
 10
28.45620410182829
 20
-4.668416610694429
 30
0.0
 11
28.4502247166887
 21
-4.658187642339698
 31
0.0
  0
LINE
  5
413
  8
0
 10
28.4502247166887
 20
-4.658187642339698
 30
0.0
 11
28.44385227219518
 21
-4.647945715893302
 31
0.0
  0
LINE
  5
414
  8
0
 10
28.44385227219518
 20
-4.647945715893302
 30
0.0
 11
28.43708401028774
 21
-4.637693064567102
 31
0.0
  0
LINE
  5
415
  8
0
 10
28.43708401028774
 20
-4.637693064567102
 30
0.0
 11
28.42991731761591
 21
-4.627431958401647
 31
0.0
  0
LINE
  5
416
  8
0
 10
28.42991731761591
 20
-4.627431958401647
 30
0.0
 11
28.42234973013054
 21
-4.61716470315261
 31
0.0
  0
LINE
  5
417
  8
0
 10
28.42234973013054
 20
-4.61716470315261
 30
0.0
 11
28.41437893759748
 21
-4.606893639111944
 31
0.0
  0
LINE
  5
418
  8
0
 10
28.41437893759748
 20
-4.606893639111944
 30
0.0
 11
28.40600278802404
 21
-4.59662113986416
 31
0.0
  0
LINE
  5
419
  8
0
 10
28.40600278802404
 20
-4.59662113986416
 30
0.0
 11
28.39721929198877
 21
-4.5863496109782
 31
0.0
  0
LINE
  5
41A
  8
0
 10
28.39721929198877
 20
-4.5863496109782
 30
0.0
 11
28.388026626865
 21
-4.576081488635548
 31
0.0
  0
LINE
  5
41B
  8
0
 10
28.388026626865
 20
-4.576081488635548
 30
0.0
 11
28.37842314092896
 21
-4.565819238195421
 31
0.0
  0
LINE
  5
41C
  8
0
 10
28.37842314092896
 20
-4.565819238195421
 30
0.0
 11
28.36840735734279
 21
-4.55556535269799
 31
0.0
  0
LINE
  5
41D
  8
0
 10
28.36840735734279
 20
-4.55556535269799
 30
0.0
 11
28.35797797800322
 21
-4.545322351306782
 31
0.0
  0
LINE
  5
41E
  8
0
 10
28.35797797800322
 20
-4.545322351306782
 30
0.0
 11
28.34713388724648
 21
-4.535092777691551
 31
0.0
  0
LINE
  5
41F
  8
0
 10
28.34713388724648
 20
-4.535092777691551
 30
0.0
 11
28.33587415540032
 21
-4.524879198353092
 31
0.0
  0
LINE
  5
420
  8
0
 10
28.33587415540032
 20
-4.524879198353092
 30
0.0
 11
28.32419804217397
 21
-4.514684200891628
 31
0.0
  0
LINE
  5
421
  8
0
 10
28.32419804217397
 20
-4.514684200891628
 30
0.0
 11
28.31210499987702
 21
-4.504510392220559
 31
0.0
  0
LINE
  5
422
  8
0
 10
28.31210499987702
 20
-4.504510392220559
 30
0.0
 11
28.28666691835818
 21
-4.484236854384959
 31
0.0
  0
LINE
  5
423
  8
0
 10
28.28666691835818
 20
-4.484236854384959
 30
0.0
 11
28.25955949204124
 21
-4.464079755292274
 31
0.0
  0
LINE
  5
424
  8
0
 10
28.25955949204124
 20
-4.464079755292274
 30
0.0
 11
28.23078555792847
 21
-4.444060451657172
 31
0.0
  0
LINE
  5
425
  8
0
 10
28.23078555792847
 20
-4.444060451657172
 30
0.0
 11
28.20035127678018
 21
-4.4242004210008
 31
0.0
  0
LINE
  5
426
  8
0
 10
28.20035127678018
 20
-4.4242004210008
 30
0.0
 11
28.16826618656789
 21
-4.404521193787333
 31
0.0
  0
LINE
  5
427
  8
0
 10
28.16826618656789
 20
-4.404521193787333
 30
0.0
 11
28.13454324060541
 21
-4.385044283554188
 31
0.0
  0
LINE
  5
428
  8
0
 10
28.13454324060541
 20
-4.385044283554188
 30
0.0
 11
28.09919882965037
 21
-4.365791115463004
 31
0.0
  0
LINE
  5
429
  8
0
 10
28.09919882965037
 20
-4.365791115463004
 30
0.0
 11
28.06225278739388
 21
-4.346782953726644
 31
0.0
  0
LINE
  5
42A
  8
0
 10
28.06225278739388
 20
-4.346782953726644
 30
0.0
 11
28.02372837889491
 21
-4.328040828391369
 31
0.0
  0
LINE
  5
42B
  8
0
 10
28.02372837889491
 20
-4.328040828391369
 30
0.0
 11
27.98365227166173
 21
-4.309585461972002
 31
0.0
  0
LINE
  5
42C
  8
0
 10
27.98365227166173
 20
-4.309585461972002
 30
0.0
 11
27.94205448923917
 21
-4.291437196451346
 31
0.0
  0
LINE
  5
42D
  8
0
 10
27.94205448923917
 20
-4.291437196451346
 30
0.0
 11
27.89896834732013
 21
-4.273615921162537
 31
0.0
  0
LINE
  5
42E
  8
0
 10
27.89896834732013
 20
-4.273615921162537
 30
0.0
 11
27.85443037256424
 21
-4.256141002074562
 31
0.0
  0
LINE
  5
42F
  8
0
 10
27.85443037256424
 20
-4.256141002074562
 30
0.0
 11
27.80848020447174
 21
-4.239031212996294
 31
0.0
  0
LINE
  5
430
  8
0
 10
27.80848020447174
 20
-4.239031212996294
 30
0.0
 11
27.71251670736244
 21
-4.205978763974778
 31
0.0
  0
LINE
  5
431
  8
0
 10
27.71251670736244
 20
-4.205978763974778
 30
0.0
 11
27.61145248823896
 21
-4.17459447561199
 31
0.0
  0
LINE
  5
432
  8
0
 10
27.61145248823896
 20
-4.17459447561199
 30
0.0
 11
27.50570309211526
 21
-4.145000869145848
 31
0.0
  0
LINE
  5
433
  8
0
 10
27.50570309211526
 20
-4.145000869145848
 30
0.0
 11
27.39571930387092
 21
-4.117305497663059
 31
0.0
  0
LINE
  5
434
  8
0
 10
27.39571930387092
 20
-4.117305497663059
 30
0.0
 11
27.2819808194673
 21
-4.09159966861858
 31
0.0
  0
LINE
  5
435
  8
0
 10
27.2819808194673
 20
-4.09159966861858
 30
0.0
 11
27.16498944557155
 21
-4.067957507819843
 31
0.0
  0
LINE
  5
436
  8
0
 10
27.16498944557155
 20
-4.067957507819843
 30
0.0
 11
27.0452620253021
 21
-4.046435382781556
 31
0.0
  0
LINE
  5
437
  8
0
 10
27.0452620253021
 20
-4.046435382781556
 30
0.0
 11
26.92332329160318
 21
-4.027071689740199
 31
0.0
  0
LINE
  5
438
  8
0
 10
26.92332329160318
 20
-4.027071689740199
 30
0.0
 11
26.79969884407246
 21
-4.009886995353657
 31
0.0
  0
LINE
  5
439
  8
0
 10
26.79969884407246
 20
-4.009886995353657
 30
0.0
 11
26.67490843071265
 21
-3.994884511941314
 31
0.0
  0
LINE
  5
43A
  8
0
 10
26.67490843071265
 20
-3.994884511941314
 30
0.0
 11
26.54945969440967
 21
-3.982050874663023
 31
0.0
  0
LINE
  5
43B
  8
0
 10
26.54945969440967
 20
-3.982050874663023
 30
0.0
 11
26.29852406066196
 21
-3.96276024502997
 31
0.0
  0
LINE
  5
43C
  8
0
 10
26.29852406066196
 20
-3.96276024502997
 30
0.0
 11
26.05051404647946
 21
-3.951621149559811
 31
0.0
  0
LINE
  5
43D
  8
0
 10
26.05051404647946
 20
-3.951621149559811
 30
0.0
 11
25.80857358808862
 21
-3.948059070745293
 31
0.0
  0
LINE
  5
43E
  8
0
 10
25.80857358808862
 20
-3.948059070745293
 30
0.0
 11
25.56663312969777
 21
-3.951621149559811
 31
0.0
  0
LINE
  5
43F
  8
0
 10
25.56663312969777
 20
-3.951621149559811
 30
0.0
 11
25.31862311551528
 21
-3.962760245029969
 31
0.0
  0
LINE
  5
440
  8
0
 10
25.31862311551528
 20
-3.962760245029969
 30
0.0
 11
25.06768748176758
 21
-3.982050874663021
 31
0.0
  0
LINE
  5
441
  8
0
 10
25.06768748176758
 20
-3.982050874663021
 30
0.0
 11
24.94223874546459
 21
-3.994884511941313
 31
0.0
  0
LINE
  5
442
  8
0
 10
24.94223874546459
 20
-3.994884511941313
 30
0.0
 11
24.81744833210479
 21
-4.009886995353656
 31
0.0
  0
LINE
  5
443
  8
0
 10
24.81744833210479
 20
-4.009886995353656
 30
0.0
 11
24.69382388457407
 21
-4.027071689740199
 31
0.0
  0
LINE
  5
444
  8
0
 10
24.69382388457407
 20
-4.027071689740199
 30
0.0
 11
24.57188515087514
 21
-4.046435382781554
 31
0.0
  0
LINE
  5
445
  8
0
 10
24.57188515087514
 20
-4.046435382781554
 30
0.0
 11
24.45215773060569
 21
-4.067957507819841
 31
0.0
  0
LINE
  5
446
  8
0
 10
24.45215773060569
 20
-4.067957507819841
 30
0.0
 11
24.33516635670993
 21
-4.091599668618578
 31
0.0
  0
LINE
  5
447
  8
0
 10
24.33516635670993
 20
-4.091599668618578
 30
0.0
 11
24.22142787230631
 21
-4.117305497663058
 31
0.0
  0
LINE
  5
448
  8
0
 10
24.22142787230631
 20
-4.117305497663058
 30
0.0
 11
24.11144408406199
 21
-4.145000869145846
 31
0.0
  0
LINE
  5
449
  8
0
 10
24.11144408406199
 20
-4.145000869145846
 30
0.0
 11
24.00569468793829
 21
-4.174594475611987
 31
0.0
  0
LINE
  5
44A
  8
0
 10
24.00569468793829
 20
-4.174594475611987
 30
0.0
 11
23.9046304688148
 21
-4.205978763974775
 31
0.0
  0
LINE
  5
44B
  8
0
 10
23.9046304688148
 20
-4.205978763974775
 30
0.0
 11
23.80866697170551
 21
-4.239031212996292
 31
0.0
  0
LINE
  5
44C
  8
0
 10
23.80866697170551
 20
-4.239031212996292
 30
0.0
 11
23.76271680361301
 21
-4.25614100207456
 31
0.0
  0
LINE
  5
44D
  8
0
 10
23.76271680361301
 20
-4.25614100207456
 30
0.0
 11
23.71817882885712
 21
-4.273615921162534
 31
0.0
  0
LINE
  5
44E
  8
0
 10
23.71817882885712
 20
-4.273615921162534
 30
0.0
 11
23.67509268693808
 21
-4.291437196451343
 31
0.0
  0
LINE
  5
44F
  8
0
 10
23.67509268693808
 20
-4.291437196451343
 30
0.0
 11
23.63349490451552
 21
-4.309585461972
 31
0.0
  0
LINE
  5
450
  8
0
 10
23.63349490451552
 20
-4.309585461972
 30
0.0
 11
23.59341879728233
 21
-4.328040828391366
 31
0.0
  0
LINE
  5
451
  8
0
 10
23.59341879728233
 20
-4.328040828391366
 30
0.0
 11
23.55489438878335
 21
-4.346782953726642
 31
0.0
  0
LINE
  5
452
  8
0
 10
23.55489438878335
 20
-4.346782953726642
 30
0.0
 11
23.51794834652689
 21
-4.365791115463001
 31
0.0
  0
LINE
  5
453
  8
0
 10
23.51794834652689
 20
-4.365791115463001
 30
0.0
 11
23.48260393557183
 21
-4.385044283554185
 31
0.0
  0
LINE
  5
454
  8
0
 10
23.48260393557183
 20
-4.385044283554185
 30
0.0
 11
23.44888098960937
 21
-4.40452119378733
 31
0.0
  0
LINE
  5
455
  8
0
 10
23.44888098960937
 20
-4.40452119378733
 30
0.0
 11
23.41679589939707
 21
-4.424200421000798
 31
0.0
  0
LINE
  5
456
  8
0
 10
23.41679589939707
 20
-4.424200421000798
 30
0.0
 11
23.38636161824878
 21
-4.444060451657169
 31
0.0
  0
LINE
  5
457
  8
0
 10
23.38636161824878
 20
-4.444060451657169
 30
0.0
 11
23.357587684136
 21
-4.46407975529227
 31
0.0
  0
LINE
  5
458
  8
0
 10
23.357587684136
 20
-4.46407975529227
 30
0.0
 11
23.33048025781907
 21
-4.484236854384957
 31
0.0
  0
LINE
  5
459
  8
0
 10
23.33048025781907
 20
-4.484236854384957
 30
0.0
 11
23.30504217630023
 21
-4.504510392220556
 31
0.0
  0
LINE
  5
45A
  8
0
 10
23.30504217630023
 20
-4.504510392220556
 30
0.0
 11
23.29294913400327
 21
-4.514684200891626
 31
0.0
  0
LINE
  5
45B
  8
0
 10
23.29294913400327
 20
-4.514684200891626
 30
0.0
 11
23.28127302077693
 21
-4.52487919835309
 31
0.0
  0
LINE
  5
45C
  8
0
 10
23.28127302077693
 20
-4.52487919835309
 30
0.0
 11
23.27001328893078
 21
-4.535092777691549
 31
0.0
  0
LINE
  5
45D
  8
0
 10
23.27001328893078
 20
-4.535092777691549
 30
0.0
 11
23.25916919817402
 21
-4.54532235130678
 31
0.0
  0
LINE
  5
45E
  8
0
 10
23.25916919817402
 20
-4.54532235130678
 30
0.0
 11
23.24873981883444
 21
-4.555565352697987
 31
0.0
  0
LINE
  5
45F
  8
0
 10
23.24873981883444
 20
-4.555565352697987
 30
0.0
 11
23.23872403524828
 21
-4.565819238195417
 31
0.0
  0
LINE
  5
460
  8
0
 10
23.23872403524828
 20
-4.565819238195417
 30
0.0
 11
23.22912054931224
 21
-4.576081488635546
 31
0.0
  0
LINE
  5
461
  8
0
 10
23.22912054931224
 20
-4.576081488635546
 30
0.0
 11
23.21992788418848
 21
-4.586349610978197
 31
0.0
  0
LINE
  5
462
  8
0
 10
23.21992788418848
 20
-4.586349610978197
 30
0.0
 11
23.2111443881532
 21
-4.596621139864158
 31
0.0
  0
LINE
  5
463
  8
0
 10
23.2111443881532
 20
-4.596621139864158
 30
0.0
 11
23.20276823857977
 21
-4.606893639111941
 31
0.0
  0
LINE
  5
464
  8
0
 10
23.20276823857977
 20
-4.606893639111941
 30
0.0
 11
23.19479744604671
 21
-4.617164703152608
 31
0.0
  0
LINE
  5
465
  8
0
 10
23.19479744604671
 20
-4.617164703152608
 30
0.0
 11
23.18722985856133
 21
-4.627431958401645
 31
0.0
  0
LINE
  5
466
  8
0
 10
23.18722985856133
 20
-4.627431958401645
 30
0.0
 11
23.18006316588951
 21
-4.637693064567097
 31
0.0
  0
LINE
  5
467
  8
0
 10
23.18006316588951
 20
-4.637693064567097
 30
0.0
 11
23.17329490398206
 21
-4.647945715893298
 31
0.0
  0
LINE
  5
468
  8
0
 10
23.17329490398206
 20
-4.647945715893298
 30
0.0
 11
23.16692245948855
 21
-4.658187642339696
 31
0.0
  0
LINE
  5
469
  8
0
 10
23.16692245948855
 20
-4.658187642339696
 30
0.0
 11
23.16094307434895
 21
-4.668416610694427
 31
0.0
  0
LINE
  5
46A
  8
0
 10
23.16094307434895
 20
-4.668416610694427
 30
0.0
 11
23.15535385045425
 21
-4.678630425622464
 31
0.0
  0
LINE
  5
46B
  8
0
 10
23.15535385045425
 20
-4.678630425622464
 30
0.0
 11
23.15015175436652
 21
-4.688826930648236
 31
0.0
  0
LINE
  5
46C
  8
0
 10
23.15015175436652
 20
-4.688826930648236
 30
0.0
 11
23.14533362208974
 21
-4.699004009072851
 31
0.0
  0
LINE
  5
46D
  8
0
 10
23.14533362208974
 20
-4.699004009072851
 30
0.0
 11
23.14089616388241
 21
-4.709159584826124
 31
0.0
  0
LINE
  5
46E
  8
0
 10
23.14089616388241
 20
-4.709159584826124
 30
0.0
 11
23.13683596910333
 21
-4.719291623253761
 31
0.0
  0
LINE
  5
46F
  8
0
 10
23.13683596910333
 20
-4.719291623253761
 30
0.0
 11
23.13314951108212
 21
-4.729398131840187
 31
0.0
  0
LINE
  5
470
  8
0
 10
23.13314951108212
 20
-4.729398131840187
 30
0.0
 11
23.12983315200601
 21
-4.739477160867598
 31
0.0
  0
LINE
  5
471
  8
0
 10
23.12983315200601
 20
-4.739477160867598
 30
0.0
 11
23.1268831478152
 21
-4.749526804011971
 31
0.0
  0
LINE
  5
472
  8
0
 10
23.1268831478152
 20
-4.749526804011971
 30
0.0
 11
23.12429565309865
 21
-4.75954519887682
 31
0.0
  0
LINE
  5
473
  8
0
 10
23.12429565309865
 20
-4.75954519887682
 30
0.0
 11
23.1220667259829
 21
-4.769530527465646
 31
0.0
  0
LINE
  5
474
  8
0
 10
23.1220667259829
 20
-4.769530527465646
 30
0.0
 11
23.1201923330066
 21
-4.77948101659408
 31
0.0
  0
LINE
  5
475
  8
0
 10
23.1201923330066
 20
-4.77948101659408
 30
0.0
 11
23.1186683539737
 21
-4.789394938242841
 31
0.0
  0
LINE
  5
476
  8
0
 10
23.1186683539737
 20
-4.789394938242841
 30
0.0
 11
23.11749058677846
 21
-4.799270609852677
 31
0.0
  0
LINE
  5
477
  8
0
 10
23.11749058677846
 20
-4.799270609852677
 30
0.0
 11
23.11665475219593
 21
-4.809106394562567
 31
0.0
  0
LINE
  5
478
  8
0
 10
23.11665475219593
 20
-4.809106394562567
 30
0.0
 11
23.11615649863166
 21
-4.818900701392546
 31
0.0
  0
LINE
  5
479
  8
0
 10
23.11615649863166
 20
-4.818900701392546
 30
0.0
 11
23.11599140682466
 21
-4.828651985372501
 31
0.0
  0
LINE
  5
47A
  8
0
 10
23.11599140682466
 20
-4.828651985372501
 30
0.0
 11
23.11615649863166
 21
-4.838403269352455
 31
0.0
  0
LINE
  5
47B
  8
0
 10
23.11615649863166
 20
-4.838403269352455
 30
0.0
 11
23.11665475219593
 21
-4.848197576182434
 31
0.0
  0
LINE
  5
47C
  8
0
 10
23.11665475219593
 20
-4.848197576182434
 30
0.0
 11
23.11749058677846
 21
-4.858033360892327
 31
0.0
  0
LINE
  5
47D
  8
0
 10
23.11749058677846
 20
-4.858033360892327
 30
0.0
 11
23.1186683539737
 21
-4.86790903250216
 31
0.0
  0
LINE
  5
47E
  8
0
 10
23.1186683539737
 20
-4.86790903250216
 30
0.0
 11
23.1201923330066
 21
-4.877822954150922
 31
0.0
  0
LINE
  5
47F
  8
0
 10
23.1201923330066
 20
-4.877822954150922
 30
0.0
 11
23.1220667259829
 21
-4.887773443279356
 31
0.0
  0
LINE
  5
480
  8
0
 10
23.1220667259829
 20
-4.887773443279356
 30
0.0
 11
23.12429565309865
 21
-4.897758771868181
 31
0.0
  0
LINE
  5
481
  8
0
 10
23.12429565309865
 20
-4.897758771868181
 30
0.0
 11
23.1268831478152
 21
-4.90777716673303
 31
0.0
  0
LINE
  5
482
  8
0
 10
23.1268831478152
 20
-4.90777716673303
 30
0.0
 11
23.12983315200601
 21
-4.917826809877404
 31
0.0
  0
LINE
  5
483
  8
0
 10
23.12983315200601
 20
-4.917826809877404
 30
0.0
 11
23.13314951108212
 21
-4.927905838904815
 31
0.0
  0
LINE
  5
484
  8
0
 10
23.13314951108212
 20
-4.927905838904815
 30
0.0
 11
23.13683596910333
 21
-4.938012347491241
 31
0.0
  0
LINE
  5
485
  8
0
 10
23.13683596910333
 20
-4.938012347491241
 30
0.0
 11
23.14089616388241
 21
-4.948144385918877
 31
0.0
  0
LINE
  5
486
  8
0
 10
23.14089616388241
 20
-4.948144385918877
 30
0.0
 11
23.14533362208974
 21
-4.958299961672149
 31
0.0
  0
LINE
  5
487
  8
0
 10
23.14533362208974
 20
-4.958299961672149
 30
0.0
 11
23.15015175436652
 21
-4.968477040096764
 31
0.0
  0
LINE
  5
488
  8
0
 10
23.15015175436652
 20
-4.968477040096764
 30
0.0
 11
23.15535385045425
 21
-4.978673545122537
 31
0.0
  0
LINE
  5
489
  8
0
 10
23.15535385045425
 20
-4.978673545122537
 30
0.0
 11
23.16094307434895
 21
-4.988887360050575
 31
0.0
  0
LINE
  5
48A
  8
0
 10
23.16094307434895
 20
-4.988887360050575
 30
0.0
 11
23.16692245948855
 21
-4.999116328405308
 31
0.0
  0
LINE
  5
48B
  8
0
 10
23.16692245948855
 20
-4.999116328405308
 30
0.0
 11
23.17329490398206
 21
-5.009358254851703
 31
0.0
  0
LINE
  5
48C
  8
0
 10
23.17329490398206
 20
-5.009358254851703
 30
0.0
 11
23.18006316588951
 21
-5.019610906177905
 31
0.0
  0
LINE
  5
48D
  8
0
 10
23.18006316588951
 20
-5.019610906177905
 30
0.0
 11
23.18722985856133
 21
-5.029872012343358
 31
0.0
  0
LINE
  5
48E
  8
0
 10
23.18722985856133
 20
-5.029872012343358
 30
0.0
 11
23.19479744604671
 21
-5.040139267592396
 31
0.0
  0
LINE
  5
48F
  8
0
 10
23.19479744604671
 20
-5.040139267592396
 30
0.0
 11
23.20276823857977
 21
-5.050410331633063
 31
0.0
  0
LINE
  5
490
  8
0
 10
23.20276823857977
 20
-5.050410331633063
 30
0.0
 11
23.2111443881532
 21
-5.060682830880845
 31
0.0
  0
LINE
  5
491
  8
0
 10
23.2111443881532
 20
-5.060682830880845
 30
0.0
 11
23.21992788418848
 21
-5.070954359766805
 31
0.0
  0
LINE
  5
492
  8
0
 10
23.21992788418848
 20
-5.070954359766805
 30
0.0
 11
23.22912054931224
 21
-5.081222482109458
 31
0.0
  0
LINE
  5
493
  8
0
 10
23.22912054931224
 20
-5.081222482109458
 30
0.0
 11
23.23872403524828
 21
-5.091484732549583
 31
0.0
  0
LINE
  5
494
  8
0
 10
23.23872403524828
 20
-5.091484732549583
 30
0.0
 11
23.24873981883444
 21
-5.101738618047015
 31
0.0
  0
LINE
  5
495
  8
0
 10
23.24873981883444
 20
-5.101738618047015
 30
0.0
 11
23.25916919817402
 21
-5.111981619438223
 31
0.0
  0
LINE
  5
496
  8
0
 10
23.25916919817402
 20
-5.111981619438223
 30
0.0
 11
23.27001328893078
 21
-5.122211193053456
 31
0.0
  0
LINE
  5
497
  8
0
 10
23.27001328893078
 20
-5.122211193053456
 30
0.0
 11
23.28127302077693
 21
-5.132424772391913
 31
0.0
  0
LINE
  5
498
  8
0
 10
23.28127302077693
 20
-5.132424772391913
 30
0.0
 11
23.29294913400327
 21
-5.142619769853377
 31
0.0
  0
LINE
  5
499
  8
0
 10
23.29294913400327
 20
-5.142619769853377
 30
0.0
 11
23.30504217630023
 21
-5.152793578524448
 31
0.0
  0
LINE
  5
49A
  8
0
 10
23.30504217630023
 20
-5.152793578524448
 30
0.0
 11
23.33048025781907
 21
-5.173067116360047
 31
0.0
  0
LINE
  5
49B
  8
0
 10
23.33048025781907
 20
-5.173067116360047
 30
0.0
 11
23.357587684136
 21
-5.193224215452733
 31
0.0
  0
LINE
  5
49C
  8
0
 10
23.357587684136
 20
-5.193224215452733
 30
0.0
 11
23.38636161824878
 21
-5.213243519087835
 31
0.0
  0
LINE
  5
49D
  8
0
 10
23.38636161824878
 20
-5.213243519087835
 30
0.0
 11
23.41679589939707
 21
-5.233103549744206
 31
0.0
  0
LINE
  5
49E
  8
0
 10
23.41679589939707
 20
-5.233103549744206
 30
0.0
 11
23.44888098960937
 21
-5.252782776957676
 31
0.0
  0
LINE
  5
49F
  8
0
 10
23.44888098960937
 20
-5.252782776957676
 30
0.0
 11
23.48260393557183
 21
-5.272259687190819
 31
0.0
  0
LINE
  5
4A0
  8
0
 10
23.48260393557183
 20
-5.272259687190819
 30
0.0
 11
23.51794834652689
 21
-5.291512855282003
 31
0.0
  0
LINE
  5
4A1
  8
0
 10
23.51794834652689
 20
-5.291512855282003
 30
0.0
 11
23.55489438878335
 21
-5.310521017018361
 31
0.0
  0
LINE
  5
4A2
  8
0
 10
23.55489438878335
 20
-5.310521017018361
 30
0.0
 11
23.59341879728233
 21
-5.329263142353637
 31
0.0
  0
LINE
  5
4A3
  8
0
 10
23.59341879728233
 20
-5.329263142353637
 30
0.0
 11
23.63349490451552
 21
-5.347718508773003
 31
0.0
  0
LINE
  5
4A4
  8
0
 10
23.63349490451552
 20
-5.347718508773003
 30
0.0
 11
23.67509268693808
 21
-5.36586677429366
 31
0.0
  0
LINE
  5
4A5
  8
0
 10
23.67509268693808
 20
-5.36586677429366
 30
0.0
 11
23.71817882885712
 21
-5.38368804958247
 31
0.0
  0
LINE
  5
4A6
  8
0
 10
23.71817882885712
 20
-5.38368804958247
 30
0.0
 11
23.76271680361301
 21
-5.401162968670445
 31
0.0
  0
LINE
  5
4A7
  8
0
 10
23.76271680361301
 20
-5.401162968670445
 30
0.0
 11
23.80866697170551
 21
-5.418272757748713
 31
0.0
  0
LINE
  5
4A8
  8
0
 10
23.80866697170551
 20
-5.418272757748713
 30
0.0
 11
23.9046304688148
 21
-5.451325206770228
 31
0.0
  0
LINE
  5
4A9
  8
0
 10
23.9046304688148
 20
-5.451325206770228
 30
0.0
 11
24.00569468793829
 21
-5.482709495133017
 31
0.0
  0
LINE
  5
4AA
  8
0
 10
24.00569468793829
 20
-5.482709495133017
 30
0.0
 11
24.11144408406199
 21
-5.512303101599159
 31
0.0
  0
LINE
  5
4AB
  8
0
 10
24.11144408406199
 20
-5.512303101599159
 30
0.0
 11
24.22142787230631
 21
-5.539998473081946
 31
0.0
  0
LINE
  5
4AC
  8
0
 10
24.22142787230631
 20
-5.539998473081946
 30
0.0
 11
24.33516635670993
 21
-5.565704302126425
 31
0.0
  0
LINE
  5
4AD
  8
0
 10
24.33516635670993
 20
-5.565704302126425
 30
0.0
 11
24.45215773060569
 21
-5.589346462925164
 31
0.0
  0
LINE
  5
4AE
  8
0
 10
24.45215773060569
 20
-5.589346462925164
 30
0.0
 11
24.57188515087514
 21
-5.610868587963451
 31
0.0
  0
LINE
  5
4AF
  8
0
 10
24.57188515087514
 20
-5.610868587963451
 30
0.0
 11
24.69382388457407
 21
-5.630232281004807
 31
0.0
  0
LINE
  5
4B0
  8
0
 10
24.69382388457407
 20
-5.630232281004807
 30
0.0
 11
24.81744833210479
 21
-5.64741697539135
 31
0.0
  0
LINE
  5
4B1
  8
0
 10
24.81744833210479
 20
-5.64741697539135
 30
0.0
 11
24.94223874546459
 21
-5.66241945880369
 31
0.0
  0
LINE
  5
4B2
  8
0
 10
24.94223874546459
 20
-5.66241945880369
 30
0.0
 11
25.06768748176758
 21
-5.675253096081983
 31
0.0
  0
LINE
  5
4B3
  8
0
 10
25.06768748176758
 20
-5.675253096081983
 30
0.0
 11
25.31862311551528
 21
-5.694543725715036
 31
0.0
  0
LINE
  5
4B4
  8
0
 10
25.31862311551528
 20
-5.694543725715036
 30
0.0
 11
25.56663312969777
 21
-5.705682821185193
 31
0.0
  0
LINE
  5
4B5
  8
0
 10
25.56663312969777
 20
-5.705682821185193
 30
0.0
 11
25.80857358808862
 21
-5.709244899999712
 31
0.0
  0
LINE
  5
4B6
  8
0
 10
25.80857358808862
 20
-5.709244899999712
 30
0.0
 11
26.05051404647946
 21
-5.705682821185193
 31
0.0
  0
LINE
  5
4B7
  8
0
 10
26.05051404647946
 20
-5.705682821185193
 30
0.0
 11
26.29852406066196
 21
-5.694543725715036
 31
0.0
  0
LINE
  5
4B8
  8
0
 10
26.29852406066196
 20
-5.694543725715036
 30
0.0
 11
26.54945969440967
 21
-5.675253096081984
 31
0.0
  0
LINE
  5
4B9
  8
0
 10
26.54945969440967
 20
-5.675253096081984
 30
0.0
 11
26.67490843071265
 21
-5.662419458803693
 31
0.0
  0
LINE
  5
4BA
  8
0
 10
26.67490843071265
 20
-5.662419458803693
 30
0.0
 11
26.79969884407246
 21
-5.647416975391351
 31
0.0
  0
LINE
  5
4BB
  8
0
 10
26.79969884407246
 20
-5.647416975391351
 30
0.0
 11
26.92332329160318
 21
-5.630232281004807
 31
0.0
  0
LINE
  5
4BC
  8
0
 10
26.92332329160318
 20
-5.630232281004807
 30
0.0
 11
27.0452620253021
 21
-5.610868587963453
 31
0.0
  0
LINE
  5
4BD
  8
0
 10
27.0452620253021
 20
-5.610868587963453
 30
0.0
 11
27.16498944557155
 21
-5.589346462925166
 31
0.0
  0
LINE
  5
4BE
  8
0
 10
27.16498944557155
 20
-5.589346462925166
 30
0.0
 11
27.2819808194673
 21
-5.565704302126427
 31
0.0
  0
LINE
  5
4BF
  8
0
 10
27.2819808194673
 20
-5.565704302126427
 30
0.0
 11
27.39571930387092
 21
-5.539998473081948
 31
0.0
  0
LINE
  5
4C0
  8
0
 10
27.39571930387092
 20
-5.539998473081948
 30
0.0
 11
27.50570309211526
 21
-5.512303101599161
 31
0.0
  0
LINE
  5
4C1
  8
0
 10
27.50570309211526
 20
-5.512303101599161
 30
0.0
 11
27.61145248823896
 21
-5.482709495133019
 31
0.0
  0
LINE
  5
4C2
  8
0
 10
27.61145248823896
 20
-5.482709495133019
 30
0.0
 11
27.71251670736244
 21
-5.45132520677023
 31
0.0
  0
LINE
  5
4C3
  8
0
 10
27.71251670736244
 20
-5.45132520677023
 30
0.0
 11
27.80848020447174
 21
-5.418272757748715
 31
0.0
  0
LINE
  5
4C4
  8
0
 10
27.80848020447174
 20
-5.418272757748715
 30
0.0
 11
27.85443037256424
 21
-5.401162968670447
 31
0.0
  0
LINE
  5
4C5
  8
0
 10
27.85443037256424
 20
-5.401162968670447
 30
0.0
 11
27.89896834732013
 21
-5.383688049582473
 31
0.0
  0
LINE
  5
4C6
  8
0
 10
27.89896834732013
 20
-5.383688049582473
 30
0.0
 11
27.94205448923917
 21
-5.365866774293662
 31
0.0
  0
LINE
  5
4C7
  8
0
 10
27.94205448923917
 20
-5.365866774293662
 30
0.0
 11
27.98365227166173
 21
-5.347718508773005
 31
0.0
  0
LINE
  5
4C8
  8
0
 10
27.98365227166173
 20
-5.347718508773005
 30
0.0
 11
28.02372837889491
 21
-5.329263142353638
 31
0.0
  0
LINE
  5
4C9
  8
0
 10
28.02372837889491
 20
-5.329263142353638
 30
0.0
 11
28.06225278739388
 21
-5.310521017018362
 31
0.0
  0
LINE
  5
4CA
  8
0
 10
28.06225278739388
 20
-5.310521017018362
 30
0.0
 11
28.09919882965037
 21
-5.291512855282006
 31
0.0
  0
LINE
  5
4CB
  8
0
 10
28.09919882965037
 20
-5.291512855282006
 30
0.0
 11
28.13454324060541
 21
-5.272259687190821
 31
0.0
  0
LINE
  5
4CC
  8
0
 10
28.13454324060541
 20
-5.272259687190821
 30
0.0
 11
28.16826618656789
 21
-5.252782776957678
 31
0.0
  0
LINE
  5
4CD
  8
0
 10
28.16826618656789
 20
-5.252782776957678
 30
0.0
 11
28.20035127678018
 21
-5.233103549744209
 31
0.0
  0
LINE
  5
4CE
  8
0
 10
28.20035127678018
 20
-5.233103549744209
 30
0.0
 11
28.23078555792847
 21
-5.213243519087838
 31
0.0
  0
LINE
  5
4CF
  8
0
 10
28.23078555792847
 20
-5.213243519087838
 30
0.0
 11
28.25955949204124
 21
-5.193224215452736
 31
0.0
  0
LINE
  5
4D0
  8
0
 10
28.25955949204124
 20
-5.193224215452736
 30
0.0
 11
28.28666691835818
 21
-5.173067116360048
 31
0.0
  0
LINE
  5
4D1
  8
0
 10
28.28666691835818
 20
-5.173067116360048
 30
0.0
 11
28.31210499987702
 21
-5.152793578524451
 31
0.0
  0
LINE
  5
4D2
  8
0
 10
28.31210499987702
 20
-5.152793578524451
 30
0.0
 11
28.32419804217397
 21
-5.142619769853382
 31
0.0
  0
LINE
  5
4D3
  8
0
 10
28.32419804217397
 20
-5.142619769853382
 30
0.0
 11
28.33587415540032
 21
-5.132424772391918
 31
0.0
  0
LINE
  5
4D4
  8
0
 10
28.33587415540032
 20
-5.132424772391918
 30
0.0
 11
28.34713388724648
 21
-5.12221119305346
 31
0.0
  0
LINE
  5
4D5
  8
0
 10
28.34713388724648
 20
-5.12221119305346
 30
0.0
 11
28.35797797800322
 21
-5.111981619438227
 31
0.0
  0
LINE
  5
4D6
  8
0
 10
28.35797797800322
 20
-5.111981619438227
 30
0.0
 11
28.36840735734279
 21
-5.101738618047019
 31
0.0
  0
LINE
  5
4D7
  8
0
 10
28.36840735734279
 20
-5.101738618047019
 30
0.0
 11
28.37842314092896
 21
-5.091484732549588
 31
0.0
  0
LINE
  5
4D8
  8
0
 10
28.37842314092896
 20
-5.091484732549588
 30
0.0
 11
28.388026626865
 21
-5.081222482109462
 31
0.0
  0
LINE
  5
4D9
  8
0
 10
28.388026626865
 20
-5.081222482109462
 30
0.0
 11
28.39721929198877
 21
-5.070954359766809
 31
0.0
  0
LINE
  5
4DA
  8
0
 10
28.39721929198877
 20
-5.070954359766809
 30
0.0
 11
28.40600278802404
 21
-5.060682830880848
 31
0.0
  0
LINE
  5
4DB
  8
0
 10
28.40600278802404
 20
-5.060682830880848
 30
0.0
 11
28.41437893759748
 21
-5.050410331633066
 31
0.0
  0
LINE
  5
4DC
  8
0
 10
28.41437893759748
 20
-5.050410331633066
 30
0.0
 11
28.42234973013054
 21
-5.0401392675924
 31
0.0
  0
LINE
  5
4DD
  8
0
 10
28.42234973013054
 20
-5.0401392675924
 30
0.0
 11
28.42991731761591
 21
-5.029872012343362
 31
0.0
  0
LINE
  5
4DE
  8
0
 10
28.42991731761591
 20
-5.029872012343362
 30
0.0
 11
28.43708401028774
 21
-5.019610906177909
 31
0.0
  0
LINE
  5
4DF
  8
0
 10
28.43708401028774
 20
-5.019610906177909
 30
0.0
 11
28.44385227219518
 21
-5.009358254851707
 31
0.0
  0
LINE
  5
4E0
  8
0
 10
28.44385227219518
 20
-5.009358254851707
 30
0.0
 11
28.4502247166887
 21
-4.999116328405313
 31
0.0
  0
LINE
  5
4E1
  8
0
 10
28.4502247166887
 20
-4.999116328405313
 30
0.0
 11
28.45620410182829
 21
-4.988887360050579
 31
0.0
  0
LINE
  5
4E2
  8
0
 10
28.45620410182829
 20
-4.988887360050579
 30
0.0
 11
28.46179332572298
 21
-4.978673545122541
 31
0.0
  0
LINE
  5
4E3
  8
0
 10
28.46179332572298
 20
-4.978673545122541
 30
0.0
 11
28.46699542181072
 21
-4.968477040096768
 31
0.0
  0
LINE
  5
4E4
  8
0
 10
28.46699542181072
 20
-4.968477040096768
 30
0.0
 11
28.4718135540875
 21
-4.958299961672153
 31
0.0
  0
LINE
  5
4E5
  8
0
 10
28.4718135540875
 20
-4.958299961672153
 30
0.0
 11
28.47625101229483
 21
-4.948144385918881
 31
0.0
  0
LINE
  5
4E6
  8
0
 10
28.47625101229483
 20
-4.948144385918881
 30
0.0
 11
28.4803112070739
 21
-4.938012347491244
 31
0.0
  0
LINE
  5
4E7
  8
0
 10
28.4803112070739
 20
-4.938012347491244
 30
0.0
 11
28.48399766509512
 21
-4.927905838904818
 31
0.0
  0
LINE
  5
4E8
  8
0
 10
28.48399766509512
 20
-4.927905838904818
 30
0.0
 11
28.48731402417123
 21
-4.917826809877409
 31
0.0
  0
LINE
  5
4E9
  8
0
 10
28.48731402417123
 20
-4.917826809877409
 30
0.0
 11
28.49026402836204
 21
-4.907777166733034
 31
0.0
  0
LINE
  5
4EA
  8
0
 10
28.49026402836204
 20
-4.907777166733034
 30
0.0
 11
28.49285152307859
 21
-4.897758771868186
 31
0.0
  0
LINE
  5
4EB
  8
0
 10
28.49285152307859
 20
-4.897758771868186
 30
0.0
 11
28.49508045019434
 21
-4.887773443279361
 31
0.0
  0
LINE
  5
4EC
  8
0
 10
28.49508045019434
 20
-4.887773443279361
 30
0.0
 11
28.49695484317063
 21
-4.877822954150925
 31
0.0
  0
LINE
  5
4ED
  8
0
 10
28.49695484317063
 20
-4.877822954150925
 30
0.0
 11
28.49847882220354
 21
-4.867909032502164
 31
0.0
  0
LINE
  5
4EE
  8
0
 10
28.49847882220354
 20
-4.867909032502164
 30
0.0
 11
28.49965658939879
 21
-4.858033360892331
 31
0.0
  0
LINE
  5
4EF
  8
0
 10
28.49965658939879
 20
-4.858033360892331
 30
0.0
 11
28.50049242398132
 21
-4.848197576182438
 31
0.0
  0
LINE
  5
4F0
  8
0
 10
28.50049242398132
 20
-4.848197576182438
 30
0.0
 11
28.50099067754558
 21
-4.838403269352459
 31
0.0
  0
LINE
  5
4F1
  8
0
 10
28.50099067754558
 20
-4.838403269352459
 30
0.0
 11
28.50115576935259
 21
-4.828651985372504
 31
0.0
  0
ARC
  5
4F2
  8
0
 10
-15.01875742206294
 20
1.113054402193914
 30
0.0
 40
16.34245466920672
 50
341.5590901302771
 51
18.44090986972286
  0
ARC
  5
4F3
  8
0
 10
66.41544909211164
 20
1.192015377362971
 30
0.0
 40
16.53001185009301
 50
161.7037763450446
 51
198.2962236549552
  0
ENDSEC
  0
EOF
