0
SECTION
2
HEADER
9
$INSUNITS
70
4
9
$ACADVER
1
AC1014
9
$HANDSEED
5
FFFF
0
ENDSEC
0
SECTION
2
TABLES
0
TABLE
2
VPORT
5
8
100
AcDbSymbolTable
0
ENDTAB
0
TABLE
2
LTYPE
5
5
100
AcDbSymbolTable
0
LTYPE
5
14
100
AcDbSymbolTableRecord
100
AcDbLinetypeTableRecord
2
BYBLOCK
70
0
0
LTYPE
5
15
100
AcDbSymbolTableRecord
100
AcDbLinetypeTableRecord
2
BYLAYER
70
0
0
ENDTAB
0
TABLE
2
LAYER
5
2
100
AcDbSymbolTable
70
2
0
LAYER
5
50
100
AcDbSymbolTableRecord
100
AcDbLayerTableRecord
2
0
70
0
6
CONTINUOUS
0
ENDTAB
0
TABLE
2
STYLE
5
3
100
AcDbSymbolTable
70
1
0
STYLE
5
11
100
AcDbSymbolTableRecord
100
AcDbTextStyleTableRecord
2
STANDARD
70
0
0
ENDTAB
0
TABLE
2
VIEW
5
6
100
AcDbSymbolTable
70
0
0
ENDTAB
0
TABLE
2
UCS
5
7
100
AcDbSymbolTable
70
0
0
ENDTAB
0
TABLE
2
APPID
5
9
100
AcDbSymbolTable
70
2
0
APPID
5
12
100
AcDbSymbolTableRecord
100
AcDbRegAppTableRecord
2
ACAD
70
0
0
ENDTAB
0
TABLE
2
DIMSTYLE
5
A
100
AcDbSymbolTable
70
1
0
ENDTAB
0
TABLE
2
BLOCK_RECORD
5
1
100
AcDbSymbolTable
70
1
0
BLOCK_RECORD
5
1F
100
AcDbSymbolTableRecord
100
AcDbBlockTableRecord
2
*MODEL_SPACE
0
BLOCK_RECORD
5
1B
100
AcDbSymbolTableRecord
100
AcDbBlockTableRecord
2
*PAPER_SPACE
0
ENDTAB
0
ENDSEC
0
SECTION
2
BLOCKS
0
BLOCK
5
20
100
AcDbEntity
100
AcDbBlockBegin
2
*MODEL_SPACE
0
ENDBLK
5
21
100
AcDbEntity
100
AcDbBlockEnd
0
BLOCK
5
1C
100
AcDbEntity
100
AcDbBlockBegin
2
*PAPER_SPACE
0
ENDBLK
5
1D
100
AcDbEntity
100
AcDbBlockEnd
0
ENDSEC
0
SECTION
2
ENTITIES
0
SPLINE
5
100
100
AcDbEntity
8
0
100
AcDbSpline
70
1064
71
5
72
16
73
10
74
0
42
0.000000001
43
0.0000000001
44
0.0000000001
40
0
40
0
40
0
40
0
40
0
40
0
40
0.20000000000000001
40
0.40000000000000002
40
0.60000000000000009
40
0.80000000000000004
40
1
40
1
40
1
40
1
40
1
40
1
10
11.193981850127956
20
20.002825878639658
30
0
10
11.62295391535319
20
19.999234702756517
30
0
10
12.480898045803858
20
19.992052350990519
30
0
10
13.767814241480526
20
19.981278823342414
30
0
10
15.483702502383938
20
19.966914119813065
30
0
10
17.628562828514657
20
19.948958240402884
30
0
10
19.344451089419952
20
19.93459353687517
30
0
10
20.631367285099223
20
19.92382000922937
30
0
10
21.489311415552173
20
19.916637657465447
30
0
10
21.91828348077868
20
19.913046481583471
30
0
0
SPLINE
5
101
100
AcDbEntity
8
0
100
AcDbSpline
70
1064
71
5
72
31
73
25
74
0
42
0.000000001
43
0.0000000001
44
0.0000000001
40
0
40
0
40
0
40
0
40
0
40
0
40
0.050000000000000003
40
0.10000000000000001
40
0.15000000000000002
40
0.20000000000000001
40
0.25
40
0.29999999999999999
40
0.34999999999999998
40
0.39999999999999997
40
0.44999999999999996
40
0.49999999999999994
40
0.54999999999999993
40
0.59999999999999998
40
0.65000000000000002
40
0.70000000000000007
40
0.75000000000000011
40
0.80000000000000016
40
0.8500000000000002
40
0.90000000000000024
40
0.95000000000000029
40
1
40
1
40
1
40
1
40
1
40
1
10
21.91828348077868
20
19.913046481583471
30
0
10
21.960717419861624
20
19.914437595963619
30
0
10
22.04652009185455
20
19.9141928279703
30
0
10
22.178028589627814
20
19.904744634139689
30
0
10
22.359004191827999
20
19.873911295881996
30
0
10
22.594420410695555
20
19.804698427583077
30
0
10
22.838210921258213
20
19.704755448345804
30
0
10
23.088566185462952
20
19.57455079271881
30
0
10
23.342196695298707
20
19.415492450959611
30
0
10
23.594186481266114
20
19.23015109731783
30
0
10
23.838815921033198
20
19.021926094225922
30
0
10
24.070182077068214
20
18.794850494206447
30
0
10
24.282918408071566
20
18.553383584947895
30
0
10
24.472846505902126
20
18.302228115449452
30
0
10
24.637809309020259
20
18.046189489417049
30
0
10
24.777282670261265
20
17.789747257885843
30
0
10
24.891837327924801
20
17.536600030858047
30
0
10
24.982690553278324
20
17.289170190264986
30
0
10
25.051283129078477
20
17.048195265866358
30
0
10
25.098822967294797
20
16.812016595268691
30
0
10
25.126179339822656
20
16.577266278412001
30
0
10
25.132382858070027
20
16.38755451953504
30
0
10
25.128353947572361
20
16.242751391362418
30
0
10
25.121821083514575
20
16.144903294320233
30
0
10
25.117592911214434
20
16.095651039615216
30
0
0
SPLINE
5
102
100
AcDbEntity
8
0
100
AcDbSpline
70
1064
71
5
72
16
73
10
74
0
42
0.000000001
43
0.0000000001
44
0.0000000001
40
0
40
0
40
0
40
0
40
0
40
0
40
0.20000000000000001
40
0.40000000000000002
40
0.60000000000000009
40
0.80000000000000004
40
1
40
1
40
1
40
1
40
1
40
1
10
25.117592911214434
20
16.095651039615216
30
0
10
25.119271275807119
20
15.253694978734348
30
0
10
25.122628004992521
20
13.569782856972996
30
0
10
25.127663098770803
20
11.043914674332189
30
0
10
25.134376557142058
20
7.676090430813197
30
0
10
25.142768380106155
20
3.4663101264165235
30
0
10
25.149481838477023
20
0.098485882899769062
30
0
10
25.154516932254772
20
-2.4273822997378609
30
0
10
25.15787366143968
20
-4.1112944214963338
30
0
10
25.159552026032085
20
-4.9532504823755836
30
0
0
SPLINE
5
103
100
AcDbEntity
8
0
100
AcDbSpline
70
1064
71
5
72
31
73
25
74
0
42
0.000000001
43
0.0000000001
44
0.0000000001
40
0
40
0
40
0
40
0
40
0
40
0
40
0.050000000000000003
40
0.10000000000000001
40
0.15000000000000002
40
0.20000000000000001
40
0.25
40
0.29999999999999999
40
0.34999999999999998
40
0.39999999999999997
40
0.44999999999999996
40
0.49999999999999994
40
0.54999999999999993
40
0.59999999999999998
40
0.65000000000000002
40
0.70000000000000007
40
0.75000000000000011
40
0.80000000000000016
40
0.8500000000000002
40
0.90000000000000024
40
0.95000000000000029
40
1
40
1
40
1
40
1
40
1
40
1
10
25.159552026032085
20
-4.9532504823755836
30
0
10
25.158771708819327
20
-5.0212713895062953
30
0
10
25.154660087513609
20
-5.1564057748155046
30
0
10
25.140839733053319
20
-5.3563850327564495
30
0
10
25.107043965836894
20
-5.6175574829054442
30
0
10
25.038868532564717
20
-5.9346122059094917
30
0
10
24.944453070007555
20
-6.2415892303750997
30
0
10
24.823693206143233
20
-6.5373178677430763
30
0
10
24.676886032846067
20
-6.8200285573027566
30
0
10
24.505011941894917
20
-7.0871609484939206
30
0
10
24.309784208536165
20
-7.3355945997378509
30
0
10
24.093562166567615
20
-7.5621272716227921
30
0
10
23.859350755943737
20
-7.7639160191136911
30
0
10
23.610776726043106
20
-7.9389107910218195
30
0
10
23.352161333254674
20
-8.0864499733369968
30
0
10
23.088395053212647
20
-8.2074236856979912
30
0
10
22.824466621149679
20
-8.3036416139981526
30
0
10
22.565057532438097
20
-8.3774087637251107
30
0
10
22.314151869759723
20
-8.4310808717307708
30
0
10
22.074522206348881
20
-8.4665971391099291
30
0
10
21.847612460089586
20
-8.4852563798235607
30
0
10
21.67674413733728
20
-8.4873482033735961
30
0
10
21.554625182375968
20
-8.481875542524266
30
0
10
21.475883040650285
20
-8.4751105121270758
30
0
10
21.437179571724187
20
-8.4709488342212715
30
0
0
SPLINE
5
104
100
AcDbEntity
8
0
100
AcDbSpline
70
1064
71
5
72
16
73
10
74
0
42
0.000000001
43
0.0000000001
44
0.0000000001
40
0
40
0
40
0
40
0
40
0
40
0
40
0.20000000000000001
40
0.40000000000000002
40
0.60000000000000009
40
0.80000000000000004
40
1
40
1
40
1
40
1
40
1
40
1
10
21.437179571724187
20
-8.4709488342212715
30
0
10
21.02744587702518
20
-8.4748826870585177
30
0
10
20.207978487628125
20
-8.4827503927332657
30
0
10
18.978777403535538
20
-8.4945519512462031
30
0
10
17.339842624750752
20
-8.5102873625982305
30
0
10
15.29117415127609
20
-8.5299566267899145
30
0
10
13.652239372499782
20
-8.5456920381440487
30
0
10
12.423038288419084
20
-8.5574935966599384
30
0
10
11.603570899032615
20
-8.5653613023373047
30
0
10
11.19383720433955
20
-8.5692951551760146
30
0
0
SPLINE
5
105
100
AcDbEntity
8
0
100
AcDbSpline
70
1064
71
5
72
21
73
15
74
0
42
0.000000001
43
0.0000000001
44
0.0000000001
40
0
40
0
40
0
40
0
40
0
40
0
40
0.10000000000000001
40
0.20000000000000001
40
0.30000000000000004
40
0.40000000000000002
40
0.5
40
0.59999999999999998
40
0.69999999999999996
40
0.79999999999999993
40
0.89999999999999991
40
1
40
1
40
1
40
1
40
1
40
1
10
26.819406630034042
20
16.664936734602449
30
0
10
26.819406629961438
20
16.607848526087
30
0
10
26.819406629821188
20
16.45453604398519
30
0
10
26.819406629625529
20
16.107167588444106
30
0
10
26.819406629395765
20
15.405272224867527
30
0
10
26.819406629169407
20
14.113327652959523
30
0
10
26.819406629011397
20
12.399481401817049
30
0
10
26.819406628920124
20
10.290280370038598
30
0
10
26.819406628888331
20
7.8292507219608858
30
0
10
26.8194066289064
20
5.0629583005665193
30
0
10
26.819406628964412
20
2.0326443443154401
30
0
10
26.819406629035974
20
-0.57825916436782498
30
0
10
26.819406629101156
20
-2.6333475625539466
30
0
10
26.819406629149437
20
-4.0457759909008697
30
0
10
26.819406629174793
20
-4.7625828728904018
30
0
0
SPLINE
5
106
100
AcDbEntity
8
0
100
AcDbSpline
70
1064
71
5
72
26
73
20
74
0
42
0.000000001
43
0.0000000001
44
0.0000000001
40
0
40
0
40
0
40
0
40
0
40
0
40
0.066666666666666666
40
0.13333333333333333
40
0.20000000000000001
40
0.26666666666666666
40
0.33333333333333331
40
0.39999999999999997
40
0.46666666666666662
40
0.53333333333333333
40
0.59999999999999998
40
0.66666666666666663
40
0.73333333333333328
40
0.79999999999999993
40
0.86666666666666659
40
0.93333333333333324
40
1
40
1
40
1
40
1
40
1
40
1
10
26.819406629174793
20
-4.7625828728904018
30
0
10
26.818485147118803
20
-4.8330552776787261
30
0
10
26.81476493789458
20
-4.974932234155391
30
0
10
26.803552995460549
20
-5.1905442702090916
30
0
10
26.777257706091405
20
-5.4836594710881066
30
0
10
26.724674160462509
20
-5.8593919294347234
30
0
10
26.650806136874312
20
-6.2438529801792058
30
0
10
26.553216428890973
20
-6.6355063550178537
30
0
10
26.428455159074172
20
-7.0312904490544454
30
0
10
26.272206855543445
20
-7.4266055526376125
30
0
10
26.079826054477291
20
-7.8161686963216273
30
0
10
25.846909706119789
20
-8.1946736982032462
30
0
10
25.569875805111458
20
-8.5574585140552912
30
0
10
25.246945999911844
20
-8.9014104564302787
30
0
10
24.878197557563205
20
-9.2251126529290666
30
0
10
24.464578599502062
20
-9.5281389363812359
30
0
10
24.098812606961225
20
-9.7541628017685618
30
0
10
23.805353238594297
20
-9.9146199363244865
30
0
10
23.601271224359639
20
-10.017593805138725
30
0
10
23.497119574715846
20
-10.068081328492596
30
0
0
SPLINE
5
107
100
AcDbEntity
8
0
100
AcDbSpline
70
1064
71
5
72
21
73
15
74
0
42
0.000000001
43
0.0000000001
44
0.0000000001
40
0
40
0
40
0
40
0
40
0
40
0
40
0.10000000000000001
40
0.20000000000000001
40
0.30000000000000004
40
0.40000000000000002
40
0.5
40
0.59999999999999998
40
0.69999999999999996
40
0.79999999999999993
40
0.89999999999999991
40
1
40
1
40
1
40
1
40
1
40
1
10
23.497119574715846
20
-10.068081328492596
30
0
10
23.46606559554839
20
-10.081270021175969
30
0
10
23.40227952052409
20
-10.10683606188018
30
0
10
23.30156594641943
20
-10.142751001456986
30
0
10
23.15704757609624
20
-10.185690001156878
30
0
10
22.958211568815653
20
-10.230650812100402
30
0
10
22.739681048934081
20
-10.26642064359425
30
0
10
22.500008711781842
20
-10.292801521024666
30
0
10
22.238775170448712
20
-10.310469184817418
30
0
10
21.956970400744076
20
-10.321176173080556
30
0
10
21.65590584889042
20
-10.327013673113081
30
0
10
21.400610067089822
20
-10.329412242349768
30
0
10
21.201350607025233
20
-10.330623285516083
30
0
10
21.065079543959232
20
-10.331256546737027
30
0
10
20.996086102297195
20
-10.331529645677346
30
0
0
SPLINE
5
108
100
AcDbEntity
8
0
100
AcDbSpline
70
1064
71
5
72
30
73
24
74
0
42
0.000000001
43
0.0000000001
44
0.0000000001
40
0
40
0
40
0
40
0
40
0
40
0
40
0.050000000000000003
40
0.10000000000000001
40
0.15000000000000002
40
0.20000000000000001
40
0.25
40
0.29999999999999999
40
0.34999999999999998
40
0.39999999999999997
40
0.44999999999999996
40
0.49999999999999994
40
0.54999999999999993
40
0.59999999999999998
40
0.65000000000000002
40
0.70000000000000007
40
0.75000000000000011
40
0.80000000000000016
40
0.8500000000000002
40
0.90000000000000024
40
0.90862022191293224
40
0.90862022191293224
40
0.90862022191293224
40
0.90862022191293224
40
0.90862022191293224
40
0.90862022191293224
10
22.397500445005747
20
21.694368969444557
30
0
10
22.461495653806686
20
21.69111215027117
30
0
10
22.589301552397977
20
21.681816086073859
30
0
10
22.780456799883048
20
21.659524778644471
30
0
10
23.034219122222176
20
21.613039926093599
30
0
10
23.349515014712278
20
21.526476578828401
30
0
10
23.662792924621524
20
21.410591301307541
30
0
10
23.973853830096274
20
21.264216602316715
30
0
10
24.282428393286139
20
21.085888976382471
30
0
10
24.587998373953429
20
20.874098135364179
30
0
10
24.889492462899785
20
20.627698832732055
30
0
10
25.18499454342027
20
20.346338201187027
30
0
10
25.47148229330606
20
20.030868992435764
30
0
10
25.744427444276859
20
19.683972826791322
30
0
10
25.998225445833164
20
19.309742472607599
30
0
10
26.226845357879935
20
18.913006549914805
30
0
10
26.424442792574645
20
18.498768037792349
30
0
10
26.585951012812636
20
18.071666356360918
30
0
10
26.707878329357207
20
17.635352773591695
30
0
10
26.775184568035932
20
17.26558242891965
30
0
10
26.80530416950349
20
16.981769365388331
30
0
10
26.816079790525396
20
16.786302943581543
30
0
10
26.819034045342001
20
16.680501720985252
30
0
10
26.819406630034042
20
16.664936734602449
30
0
0
LINE
5
109
100
AcDbEntity
8
0
100
AcDbLine
10
40.01909993888858
20
9.8413924837172502
30
0
11
33.210474093506988
21
9.8413924837172502
31
0
0
LINE
5
110
100
AcDbEntity
8
0
100
AcDbLine
10
33.210474093506988
20
9.8413924837172502
30
0
11
29.931627249048056
21
5.4417153403871374
31
0
0
LINE
5
111
100
AcDbEntity
8
0
100
AcDbLine
10
29.931627249048056
20
5.4417153403871374
30
0
11
33.210474093506988
21
1.1591398700734157
31
0
0
LINE
5
112
100
AcDbEntity
8
0
100
AcDbLine
10
33.210474093506988
20
1.1591398700734157
30
0
11
40.019099938888587
21
1.1591398700734157
31
0
0
LINE
5
113
100
AcDbEntity
8
0
100
AcDbLine
10
40.019099938888587
20
1.1591398700734157
30
0
11
40.01909993888858
21
9.8413924837172502
31
0
0
SPLINE
5
114
100
AcDbEntity
8
0
100
AcDbSpline
70
1064
71
5
72
16
73
10
74
0
42
0.000000001
43
0.0000000001
44
0.0000000001
40
0
40
0
40
0
40
0
40
0
40
0
40
0.20000000000000001
40
0.40000000000000002
40
0.60000000000000009
40
0.80000000000000004
40
0.99641917180120143
40
0.99641917180120143
40
0.99641917180120143
40
0.99641917180120143
40
0.99641917180120143
40
0.99641917180120143
10
35.981688549531611
20
16.606540655970573
30
0
10
35.981155621686327
20
16.334962253476206
30
0
10
35.980089765996752
20
15.791805448488285
30
0
10
35.978490982465587
20
14.977070241008922
30
0
10
35.976359271093287
20
13.890756631039787
30
0
10
35.973704173495626
20
12.537726996591109
30
0
10
35.971582003740771
20
11.45627576463542
30
0
10
35.969992761828692
20
10.646402935171571
30
0
10
35.968936447759063
20
10.10810850819894
30
0
10
35.968413061531884
20
9.8413924837172466
30
0
0
SPLINE
5
115
100
AcDbEntity
8
0
100
AcDbSpline
70
1064
71
5
72
16
73
10
74
0
42
0.000000001
43
0.0000000001
44
0.0000000001
40
0
40
0
40
0
40
0
40
0
40
0
40
0.20000000000000001
40
0.40000000000000002
40
0.60000000000000009
40
0.80000000000000004
40
1
40
1
40
1
40
1
40
1
40
1
10
35.931335121574236
20
1.1591398700734157
30
0
10
35.931325254145619
20
0.90704305193383972
30
0
10
35.931305519289317
20
0.40284941565475102
30
0
10
35.931275917007838
20
-0.35344103876368799
30
0
10
35.931236447304393
20
-1.3618283113212895
30
0
10
35.931187110180772
20
-2.6223124020180766
30
0
10
35.931147640484049
20
-3.6306996745755815
30
0
10
35.931118038211977
20
-4.3869901289938733
30
0
10
35.931098303364031
20
-4.8911837652728112
30
0
10
35.93108843594009
20
-5.1432805834122988
30
0
0
SPLINE
5
116
100
AcDbEntity
8
0
100
AcDbSpline
70
1064
71
5
72
16
73
10
74
0
42
0.000000001
43
0.0000000001
44
0.0000000001
40
0
40
0
40
0
40
0
40
0
40
0
40
0.20000000000000001
40
0.40000000000000002
40
0.60000000000000009
40
0.80000000000000004
40
1
40
1
40
1
40
1
40
1
40
1
10
30.96716357472253
20
-12.354364426701219
30
0
10
30.967171770141103
20
-12.481053655377272
30
0
10
30.967188160979092
20
-12.734432112729777
30
0
10
30.967212747238776
20
-13.114499798759805
30
0
10
30.967245528923186
20
-13.621256713468741
30
0
10
30.967286506034242
20
-14.254702856857609
30
0
10
30.96731928772568
20
-14.76145977157017
30
0
10
30.967343873995215
20
-15.141527457605271
30
0
10
30.967360264841911
20
-15.394905914962278
30
0
10
30.967368460265362
20
-15.52159514364085
30
0
0
SPLINE
5
117
100
AcDbEntity
8
0
100
AcDbSpline
70
1064
71
5
72
26
73
20
74
0
42
0.000000001
43
0.0000000001
44
0.0000000001
40
0
40
0
40
0
40
0
40
0
40
0
40
0.066666666666666666
40
0.13333333333333333
40
0.20000000000000001
40
0.26666666666666666
40
0.33333333333333331
40
0.39999999999999997
40
0.46666666666666662
40
0.53333333333333333
40
0.59999999999999998
40
0.66666666666666663
40
0.73333333333333328
40
0.79999999999999993
40
0.86666666666666659
40
0.93333333333333324
40
1
40
1
40
1
40
1
40
1
40
1
10
30.967368460265362
20
-15.52159514364085
30
0
10
30.945952312766735
20
-15.566142527560721
30
0
10
30.901160327741973
20
-15.657412315430969
30
0
10
30.828093321010343
20
-15.80084239595698
30
0
10
30.718826776346791
20
-16.005225268331365
30
0
10
30.561815227950277
20
-16.282603305112072
30
0
10
30.383204323192061
20
-16.580793580460217
30
0
10
30.181375305714717
20
-16.896880240035689
30
0
10
29.954334700433279
20
-17.224858518757216
30
0
10
29.699854999700261
20
-17.556215868108808
30
0
10
29.415663910731102
20
-17.881367556505367
30
0
10
29.099732759335822
20
-18.190830759754693
30
0
10
28.750564763649216
20
-18.476370202885398
30
0
10
28.367769106193926
20
-18.732579861865567
30
0
10
27.951951671119236
20
-18.956899027944942
30
0
10
27.504117896205006
20
-19.148469575781107
30
0
10
27.121094486529667
20
-19.275683233910705
30
0
10
26.820266253675968
20
-19.356689659683145
30
0
10
26.613730979901806
20
-19.404339052284396
30
0
10
26.508967542738638
20
-19.426574990883385
30
0
0
SPLINE
5
118
100
AcDbEntity
8
0
100
AcDbSpline
70
1064
71
5
72
16
73
10
74
0
42
0.000000001
43
0.0000000001
44
0.0000000001
40
0
40
0
40
0
40
0
40
0
40
0
40
0.20000000000000001
40
0.40000000000000002
40
0.60000000000000009
40
0.80000000000000004
40
1
40
1
40
1
40
1
40
1
40
1
10
26.508967542738638
20
-19.426574990883385
30
0
10
26.085162615615374
20
-19.426574990881878
30
0
10
25.23755276136956
20
-19.426574990879313
30
0
10
23.966137980003104
20
-19.426574990876873
30
0
10
22.270918271518589
20
-19.426574990876045
30
0
10
20.151893635918743
20
-19.426574990877697
30
0
10
18.456673927443209
20
-19.426574990879956
30
0
10
17.185259146089358
20
-19.426574990881718
30
0
10
16.337649291854781
20
-19.426574990882838
30
0
10
15.913844364737821
20
-19.426574990883385
30
0
0
SPLINE
5
119
100
AcDbEntity
8
0
100
AcDbSpline
70
1064
71
5
72
26
73
20
74
0
42
0.000000001
43
0.0000000001
44
0.0000000001
40
0
40
0
40
0
40
0
40
0
40
0
40
0.066666666666666666
40
0.13333333333333333
40
0.20000000000000001
40
0.26666666666666666
40
0.33333333333333331
40
0.39999999999999997
40
0.46666666666666662
40
0.53333333333333333
40
0.59999999999999998
40
0.66666666666666663
40
0.73333333333333328
40
0.79999999999999993
40
0.86666666666666659
40
0.93333333333333324
40
1
40
1
40
1
40
1
40
1
40
1
10
15.913844364737821
20
-19.426574990883385
30
0
10
15.857836118824586
20
-19.426574990883459
30
0
10
15.742610023318475
20
-19.425767635483865
30
0
10
15.5601418175309
20
-19.422132414387629
30
0
10
15.297781761956044
20
-19.409253681663074
30
0
10
14.939772474974465
20
-19.362365433978653
30
0
10
14.555170315970829
20
-19.264596190001143
30
0
10
14.14962992460006
20
-19.099090616745716
30
0
10
13.731928537172182
20
-18.860334852500841
30
0
10
13.313592977459521
20
-18.555174842768409
30
0
10
12.907343515653579
20
-18.197603480784771
30
0
10
12.525924040045474
20
-17.805735799756434
30
0
10
12.180746963143566
20
-17.398221002456658
30
0
10
11.880535067710118
20
-16.991116351392066
30
0
10
11.62972421693274
20
-16.594501987258866
30
0
10
11.42982226879996
20
-16.213917701968278
30
0
10
11.310480725438296
20
-15.924187528816686
30
0
10
11.243430178937457
20
-15.715405195383802
30
0
10
11.208637855250807
20
-15.579974191561101
30
0
10
11.1937187150291
20
-15.513197995599057
30
0
0
SPLINE
5
120
100
AcDbEntity
8
0
100
AcDbSpline
70
1064
71
5
72
26
73
20
74
0
42
0.000000001
43
0.0000000001
44
0.0000000001
40
0
40
0
40
0
40
0
40
0
40
0
40
0.066666666666666666
40
0.13333333333333333
40
0.20000000000000001
40
0.26666666666666666
40
0.33333333333333331
40
0.39999999999999997
40
0.46666666666666662
40
0.53333333333333333
40
0.59999999999999998
40
0.66666666666666663
40
0.73333333333333328
40
0.79999999999999993
40
0.86666666666666659
40
0.93333333333333324
40
1
40
1
40
1
40
1
40
1
40
1
10
30.971316625012676
20
26.847701294068486
30
0
10
30.955273830815507
20
26.891369728132393
30
0
10
30.920969567737092
20
26.980843508818566
30
0
10
30.862857170699801
20
27.121465210804999
30
0
10
30.77196502855713
20
27.321873570916232
30
0
10
30.635276209650371
20
27.593930310015551
30
0
10
30.474355725974721
20
27.886562496443283
30
0
10
30.287702685660143
20
28.197090802330816
30
0
10
30.073637293578422
20
28.519952566892066
30
0
10
29.830405103000864
20
28.847344546839398
30
0
10
29.556284774883629
20
29.170514230050859
30
0
10
29.249815334919283
20
29.480840318661144
30
0
10
28.91002723104366
20
29.770875340504688
30
0
10
28.536944286268081
20
30.035781965446855
30
0
10
28.131412413382716
20
30.273230469405789
30
0
10
27.694566879005663
20
30.482413076798881
30
0
10
27.320934895424543
20
30.627254428839183
30
0
10
27.02749051179314
20
30.7234337028761
30
0
10
26.826027907943342
20
30.782059552693113
30
0
10
26.723838333987743
20
30.809999032167244
30
0
0
SPLINE
5
121
100
AcDbEntity
8
0
100
AcDbSpline
70
1064
71
5
72
16
73
10
74
0
42
0.000000001
43
0.0000000001
44
0.0000000001
40
0
40
0
40
0
40
0
40
0
40
0
40
0.20000000000000001
40
0.40000000000000002
40
0.60000000000000009
40
0.80000000000000004
40
1
40
1
40
1
40
1
40
1
40
1
10
26.723838333987743
20
30.809999032167244
30
0
10
26.268382140464603
20
30.809999032166381
30
0
10
25.357469753418698
20
30.809999032164967
30
0
10
23.991101172851124
20
30.809999032163809
30
0
10
22.169276398763287
20
30.809999032163873
30
0
10
19.891995431156012
20
30.809999032165582
30
0
10
18.070170657071362
20
30.809999032167386
30
0
10
16.703802076508268
20
30.809999032168708
30
0
10
15.792889689466328
20
30.809999032169504
30
0
10
15.337433495945398
20
30.809999032169891
30
0
0
SPLINE
5
122
100
AcDbEntity
8
0
100
AcDbSpline
70
1064
71
5
72
26
73
20
74
0
42
0.000000001
43
0.0000000001
44
0.0000000001
40
0
40
0
40
0
40
0
40
0
40
0
40
0.066666666666666666
40
0.13333333333333333
40
0.20000000000000001
40
0.26666666666666666
40
0.33333333333333331
40
0.39999999999999997
40
0.46666666666666662
40
0.53333333333333333
40
0.59999999999999998
40
0.66666666666666663
40
0.73333333333333328
40
0.79999999999999993
40
0.86666666666666659
40
0.93333333333333324
40
1
40
1
40
1
40
1
40
1
40
1
10
15.337433495945398
20
30.809999032169891
30
0
10
15.280364314548322
20
30.808772024257685
30
0
10
15.164951107288987
20
30.801772818564174
30
0
10
14.988006557869456
20
30.777638175501796
30
0
10
14.744377161015954
20
30.717991017002838
30
0
10
14.427096232926431
20
30.596865205734936
30
0
10
14.097986414437997
20
30.428960920842194
30
0
10
13.75931706029484
20
30.215481071860985
30
0
10
13.415549546195917
20
29.960402871950915
30
0
10
13.073443448769002
20
29.670787203307402
30
0
10
12.740881884216718
20
29.355213110953741
30
0
10
12.426028122675771
20
29.022801422315023
30
0
10
12.136331309526016
20
28.682118249396332
30
0
10
11.877548571548648
20
28.340206455480725
30
0
10
11.652585944294051
20
28.001523566803876
30
0
10
11.462398831181096
20
27.668547329238493
30
0
10
11.337940876916894
20
27.407608754218536
30
0
10
11.259915757125224
20
27.215080643518625
30
0
10
11.214657908225622
20
27.088129855472936
30
0
10
11.1937187150291
20
27.025004782530448
30
0
0
SPLINE
5
123
100
AcDbEntity
8
0
100
AcDbSpline
70
1064
71
5
72
16
73
10
74
0
42
0.000000001
43
0.0000000001
44
0.0000000001
40
0
40
0
40
0
40
0
40
0
40
0
40
0.20000000000000001
40
0.40000000000000002
40
0.60000000000000009
40
0.80000000000000004
40
1
40
1
40
1
40
1
40
1
40
1
10
35.988390012188532
20
16.840459258195914
30
0
10
36.039938058058112
20
16.840459258194421
30
0
10
36.143034149798474
20
16.840459258191782
30
0
10
36.297678287412872
20
16.840459258188961
30
0
10
36.503870470905568
20
16.840459258187213
30
0
10
36.7616107002791
20
16.840459258187686
30
0
10
36.967802883781488
20
16.840459258189831
30
0
10
37.122447021409535
20
16.840459258192464
30
0
10
37.22554311316204
20
16.840459258194688
30
0
10
37.277091159038427
20
16.840459258195914
30
0
0
SPLINE
5
124
100
AcDbEntity
8
0
100
AcDbSpline
70
1064
71
5
72
26
73
20
74
0
42
0.000000001
43
0.0000000001
44
0.0000000001
40
0
40
0
40
0
40
0
40
0
40
0
40
0.066666666666666666
40
0.13333333333333333
40
0.20000000000000001
40
0.26666666666666666
40
0.33333333333333331
40
0.39999999999999997
40
0.46666666666666662
40
0.53333333333333333
40
0.59999999999999998
40
0.66666666666666663
40
0.73333333333333328
40
0.79999999999999993
40
0.86666666666666659
40
0.93333333333333324
40
1
40
1
40
1
40
1
40
1
40
1
10
37.277091159038427
20
16.840459258195914
30
0
10
37.295408646262132
20
16.835401370083314
30
0
10
37.332214120684355
20
16.824511835836176
30
0
10
37.387933856488544
20
16.805856257206095
30
0
10
37.463257117206169
20
16.776305880154261
30
0
10
37.559099439353318
20
16.731358379951978
30
0
10
37.656459104382314
20
16.678111741667085
30
0
10
37.754933697244716
20
16.616270340532214
30
0
10
37.853761979229795
20
16.545639250289433
30
0
10
37.951772391989955
20
16.466199240562318
30
0
10
38.047592957811027
20
16.378027779406231
30
0
10
38.139818681309386
20
16.281276198749101
30
0
10
38.227187818684676
20
16.176153260305771
30
0
10
38.308795908417871
20
16.062947879079978
30
0
10
38.384233213178661
20
15.942037606255809
30
0
10
38.453385237892249
20
15.813795188838709
30
0
10
38.503727214479298
20
15.705585859748918
30
0
10
38.538733142260305
20
15.621363415810603
30
0
10
38.560856876566376
20
15.563862586718749
30
0
10
38.57161535049422
20
15.534774035601099
30
0
0
SPLINE
5
125
100
AcDbEntity
8
0
100
AcDbSpline
70
1064
71
5
72
16
73
10
74
0
42
0.000000001
43
0.0000000001
44
0.0000000001
40
0
40
0
40
0
40
0
40
0
40
0
40
0.20000000000000001
40
0.40000000000000002
40
0.60000000000000009
40
0.80000000000000004
40
1
40
1
40
1
40
1
40
1
40
1
10
38.57161535049422
20
15.534774035601099
30
0
10
38.571615350488528
20
15.307038773524715
30
0
10
38.571615350478567
20
14.851568249372242
30
0
10
38.571615350468107
20
14.16836246314449
30
0
10
38.571615350462174
20
13.257421414842472
30
0
10
38.571615350464867
20
12.118745104466736
30
0
10
38.571615350473117
20
11.207804056166822
30
0
10
38.571615350482482
20
10.52459826994202
30
0
10
38.571615350490077
20
10.069127745792168
30
0
10
38.57161535049422
20
9.8413924837172502
30
0
0
SPLINE
5
126
100
AcDbEntity
8
0
100
AcDbSpline
70
1064
71
5
72
16
73
10
74
0
42
0.000000001
43
0.0000000001
44
0.0000000001
40
0
40
0
40
0
40
0
40
0
40
0
40
0.20000000000000001
40
0.40000000000000002
40
0.60000000000000009
40
0.80000000000000004
40
1
40
1
40
1
40
1
40
1
40
1
10
38.57161535049422
20
1.1591398700734157
30
0
10
38.571615350488528
20
0.95877843894024883
30
0
10
38.571615350478567
20
0.5580555766739852
30
0
10
38.571615350468107
20
-0.043028716725198736
30
0
10
38.571615350462174
20
-0.84447444125708271
30
0
10
38.571615350464867
20
-1.8462815969215398
30
0
10
38.571615350473117
20
-2.647727321452904
30
0
10
38.571615350482482
20
-3.2488116148513528
30
0
10
38.571615350490077
20
-3.6495344771169465
30
0
10
38.57161535049422
20
-3.8498959082497342
30
0
0
SPLINE
5
127
100
AcDbEntity
8
0
100
AcDbSpline
70
1064
71
5
72
31
73
25
74
0
42
0.000000001
43
0.0000000001
44
0.0000000001
40
0
40
0
40
0
40
0
40
0
40
0
40
0.050000000000000003
40
0.10000000000000001
40
0.15000000000000002
40
0.20000000000000001
40
0.25
40
0.29999999999999999
40
0.34999999999999998
40
0.39999999999999997
40
0.44999999999999996
40
0.49999999999999994
40
0.54999999999999993
40
0.59999999999999998
40
0.65000000000000002
40
0.70000000000000007
40
0.75000000000000011
40
0.80000000000000016
40
0.8500000000000002
40
0.90000000000000024
40
0.95000000000000029
40
1
40
1
40
1
40
1
40
1
40
1
10
38.57161535049422
20
-3.8498959082497342
30
0
10
38.571929945233215
20
-3.8677229628901362
30
0
10
38.571905971862968
20
-3.9036848892384777
30
0
10
38.569910549737017
20
-3.9585512352617016
30
0
10
38.563314847747733
20
-4.0335607683416406
30
0
10
38.548307968461245
20
-4.1303996166513937
30
0
10
38.526087391029776
20
-4.2301947458462781
30
0
10
38.495882228915306
20
-4.3326437426285738
30
0
10
38.456508267940379
20
-4.4371756018579775
30
0
10
38.406342873613283
20
-4.5428795351092974
30
0
10
38.34379914901249
20
-4.6485779518970505
30
0
10
38.267751164655046
20
-4.7528802472957148
30
0
10
38.178011590919006
20
-4.8542394968513625
30
0
10
38.075780973323546
20
-4.951006723446266
30
0
10
37.964237692525117
20
-5.041485145447183
30
0
10
37.847942038561001
20
-5.1240054615430637
30
0
10
37.732138877989861
20
-5.1970049949745443
30
0
10
37.622089168105241
20
-5.2591218131167947
30
0
10
37.522456846855015
20
-5.3092798121422868
30
0
10
37.436506874820978
20
-5.3468324344017635
30
0
10
37.365925776623541
20
-5.3715571673053661
30
0
10
37.322319830855953
20
-5.3810816380776769
30
0
10
37.296888223400643
20
-5.3825068050601423
30
0
10
37.283153574426052
20
-5.3809257134570796
30
0
10
37.277091159038427
20
-5.3795023735810998
30
0
0
SPLINE
5
128
100
AcDbEntity
8
0
100
AcDbSpline
70
1064
71
5
72
16
73
10
74
0
42
0.000000001
43
0.0000000001
44
0.0000000001
40
0
40
0
40
0
40
0
40
0
40
0
40
0.20000000000000001
40
0.40000000000000002
40
0.60000000000000009
40
0.80000000000000004
40
1
40
1
40
1
40
1
40
1
40
1
10
37.277091159038427
20
-5.3795023735810998
30
0
10
37.223150494702296
20
-5.3795029016395004
30
0
10
37.115269166030863
20
-5.3795039577565209
30
0
10
36.953447173026412
20
-5.3795055419327475
30
0
10
36.737684515691846
20
-5.3795076541689504
30
0
10
36.467981194029257
20
-5.3795102944656472
30
0
10
36.252218536702145
20
-5.3795124067037516
30
0
10
36.090396543708131
20
-5.3795139908826437
30
0
10
35.982515215045993
20
-5.3795150470020312
30
0
10
35.928574550715062
20
-5.3795155750617587
30
0
0
LINE
5
129
100
AcDbEntity
8
0
100
AcDbLine
10
19.153930619694655
20
15.181542286464804
30
0
11
19.15393061631211
21
12.235488963258302
31
0
0
LINE
5
130
100
AcDbEntity
8
0
100
AcDbLine
10
18.67874337344762
20
16.121885202357255
30
0
11
18.678740233454548
21
11.408756224186373
31
0
0
LINE
5
131
100
AcDbEntity
8
0
100
AcDbLine
10
18.28954022443466
20
16.652361745000757
30
0
11
18.28954018304297
21
10.948853956500438
31
0
0
LINE
5
132
100
AcDbEntity
8
0
100
AcDbLine
10
17.886861446479308
20
10.610190595125379
30
0
11
17.886861446489632
21
16.99588875316579
31
0
0
LINE
5
133
100
AcDbEntity
8
0
100
AcDbLine
10
17.934986502366769
20
0.65425301711621475
30
3.8617474131613446e-16
11
17.934989808829084
21
-5.7314476379778112
31
-3.9584804544127205e-16
0
LINE
5
134
100
AcDbEntity
8
0
100
AcDbLine
10
18.337668065508382
20
-5.3879212213313146
30
-3.5377819278440726e-16
11
18.337668662554812
21
0.31558717270949244
31
3.4470013708280813e-16
0
LINE
5
135
100
AcDbEntity
8
0
100
AcDbLine
10
18.726867449340933
20
-4.857451225371098
30
-2.8881435452475248e-16
11
18.726871917940375
21
-0.14431958770840261
31
2.8837780287761831e-16
0
LINE
5
136
100
AcDbEntity
8
0
100
AcDbLine
10
19.202059086982477
20
-3.9171010534275874
30
-1.7365467170991251e-16
11
19.202059084229074
21
-0.97104785627472923
31
1.8713279009119352e-16
0
LINE
5
137
100
AcDbEntity
8
0
100
AcDbLine
10
17.028947609288959
20
1.1623103680453362
30
4.4839382217600011e-16
11
17.028947609421056
21
0.11066994853483529
31
3.1960501481525212e-16
0
LINE
5
138
100
AcDbEntity
8
0
100
AcDbLine
10
17.02894759231333
20
-4.863428697665122
30
-2.8954638375596029e-16
11
17.028947607832812
21
-6.1605164666772634
31
-4.4839382220932879e-16
0
LINE
5
139
100
AcDbEntity
8
0
100
AcDbLine
10
17.425548256783351
20
-6.0115547949615351
30
-4.301512787631063e-16
11
17.42554818755508
21
-3.6719191757082932
31
-1.4362855153413889e-16
0
LINE
5
140
100
AcDbEntity
8
0
100
AcDbLine
10
17.425548262226933
20
-0.92058252583912326
30
1.9331301062975496e-16
11
17.425548262289471
21
0.97248235972835884
31
4.2514659589861057e-16
0
SPLINE
5
141
100
AcDbEntity
8
0
100
AcDbSpline
70
1064
71
5
72
21
73
15
74
0
42
0.000000001
43
0.0000000001
44
0.0000000001
40
1.5009206373779702
40
1.5009206373779702
40
1.5009206373779702
40
1.5009206373779702
40
1.5009206373779702
40
1.5009206373779702
40
1.5142857142857142
40
1.5285714285714285
40
1.5428571428571427
40
1.5571428571428569
40
1.5714285714285712
40
1.5857142857142854
40
1.5999999999999996
40
1.6142857142857139
40
1.6285714285714281
40
1.6390265800768384
40
1.6390265800768384
40
1.6390265800768384
40
1.6390265800768384
40
1.6390265800768384
40
1.6390265800768384
10
17.028947609288959
20
1.1623103680453362
30
4.4839382217600011e-16
10
16.983205222809911
20
1.180834255476404
30
4.5066234412102237e-16
10
16.891494546004687
20
1.2154696044321163
30
4.5490395104461862e-16
10
16.763907377328046
20
1.2550156130549808
30
4.597469403325228e-16
10
16.625900875469547
20
1.2758969421181707
30
4.6230416561244082e-16
10
16.526788275939403
20
1.2383964322625653
30
4.5771167767633663e-16
10
16.507626706443197
20
1.1355607944539008
30
4.4511794420826991e-16
10
16.555049870613104
20
0.98337913173939528
30
4.2648106559504447e-16
10
16.644924952273826
20
0.80328117302324631
30
4.0442542672757494e-16
10
16.751625938393079
20
0.61575368192628721
30
3.8145993255517377e-16
10
16.852951046610016
20
0.44092992486736748
30
3.6005019710546361e-16
10
16.928804887866733
20
0.30471087500862698
30
3.4336817476622411e-16
10
16.982047074859878
20
0.20375627766812454
30
3.3100480231699845e-16
10
17.015092178883492
20
0.13851635315532007
30
3.2301521584387611e-16
10
17.028947609421056
20
0.11066994853483529
30
3.1960501481525212e-16
0
SPLINE
5
142
100
AcDbEntity
8
0
100
AcDbSpline
70
1064
71
5
72
20
73
14
74
0
42
0.000000001
43
0.0000000001
44
0.0000000001
40
0.70253957705414949
40
0.70253957705414949
40
0.70253957705414949
40
0.70253957705414949
40
0.70253957705414949
40
0.70253957705414949
40
0.71428571428571364
40
0.72857142857142787
40
0.74285714285714211
40
0.75714285714285634
40
0.77142857142857058
40
0.78571428571428481
40
0.79999999999999905
40
0.81428571428571328
40
0.81999660372545946
40
0.81999660372545946
40
0.81999660372545946
40
0.81999660372545946
40
0.81999660372545946
40
0.81999660372545946
10
17.425548262226933
20
-0.92058252583912326
30
1.9331301062975496e-16
10
17.438645673785949
20
-0.96673092344161649
30
1.8766146188878784e-16
10
17.466984197258345
20
-1.0705391895722736
30
1.7494861580459381e-16
10
17.508183541972585
20
-1.2363641896625241
30
1.5464091024668178e-16
10
17.556730787211649
20
-1.4704034694202446
30
1.2597936476368078e-16
10
17.601353520856225
20
-1.7786981646265367
30
8.8224153595837213e-17
10
17.625539843749689
20
-2.109976950933738
30
4.7654203068189192e-17
10
17.624884078100141
20
-2.4515917526471203
30
5.8184557222282519e-18
10
17.597967979664872
20
-2.8025506039595438
30
-3.7161607666989641e-17
10
17.551260600833398
20
-3.1184006781800289
30
-7.5842085907447959e-17
10
17.501046342467379
20
-3.3656437003166575
30
-1.0612062347456423e-16
10
17.459379345366322
20
-3.5407399501356043
30
-1.2756372966291447e-16
10
17.433179661991296
20
-3.6427887174104683
30
-1.4006109928292568e-16
10
17.42554818755508
20
-3.6719191757082936
30
-1.4362855153413889e-16
0
SPLINE
5
143
100
AcDbEntity
8
0
100
AcDbSpline
70
1064
71
5
72
28
73
22
74
0
42
0.000000001
43
0.0000000001
44
0.0000000001
40
0.86967561695611517
40
0.86967561695611517
40
0.86967561695611517
40
0.86967561695611517
40
0.86967561695611517
40
0.86967561695611517
40
0.87142857142857022
40
0.88571428571428445
40
0.89999999999999869
40
0.91428571428571292
40
0.92857142857142716
40
0.94285714285714139
40
0.95714285714285563
40
0.97142857142856986
40
0.9857142857142841
40
1
40
1
40
1
40
1
40
1
40
1.0142857142857142
40
1.0285714285714285
40
1.0386558044925285
40
1.0386558044925285
40
1.0386558044925285
40
1.0386558044925285
40
1.0386558044925285
40
1.0386558044925285
10
17.02894759231333
20
-4.863428697665122
30
-2.8954638375596029e-16
10
17.026085296273013
20
-4.8707599702070574
30
-2.9044420570117613e-16
10
16.99995225040821
20
-4.937572449904656
30
-2.9862637464165234e-16
10
16.951540690605952
20
-5.05925984329033
30
-3.13528782322287e-16
10
16.884036693801821
20
-5.224126680482879
30
-3.3371914676762512e-16
10
16.805105528813367
20
-5.410550955906837
30
-3.5654953598575263e-16
10
16.728250334103734
20
-5.5859873036931127
30
-3.7803429216280123e-16
10
16.66870681731146
20
-5.7168933935104516
30
-3.9406566455117232e-16
10
16.617837028028489
20
-5.8214518012826186
30
-4.0687037649137731e-16
10
16.568138228562351
20
-5.9200491750147037
30
-4.1894507230593453e-16
10
16.521113524983196
20
-6.0252340314181652
30
-4.3182650207721966e-16
10
16.503483522907299
20
-6.1075831698622149
30
-4.4191136295811171e-16
10
16.51625277085428
20
-6.1579440347658911
30
-4.4807879015866606e-16
10
16.539422263147124
20
-6.1836243557806387
30
-4.5122372245188894e-16
10
16.554840110107687
20
-6.1942636010974663
30
-4.525266542241473e-16
10
16.570257957068243
20
-6.2049028464142921
30
-4.5382958599640557e-16
10
16.608759852617645
20
-6.2217795066668486
30
-4.5589638079221606e-16
10
16.682509385653141
20
-6.2314706122336592
30
-4.5708319893356294e-16
10
16.784826058276266
20
-6.2218912477503281
30
-4.5591006512827976e-16
10
16.908771042308061
20
-6.194615913671476
30
-4.5256980007074023e-16
10
16.993141850152384
20
-6.1712044979074161
30
-4.497027285328466e-16
10
17.028947607832812
20
-6.1605164666772625
30
-4.4839382220932879e-16
0
SPLINE
5
144
100
AcDbEntity
8
0
100
AcDbSpline
70
1064
71
5
72
14
73
8
74
0
42
0.000000001
43
0.0000000001
44
0.0000000001
40
1.0597011231547819
40
1.0597011231547819
40
1.0597011231547819
40
1.0597011231547819
40
1.0597011231547819
40
1.0597011231547819
40
1.0714285714285714
40
1.0857142857142856
40
1.0881529451540193
40
1.0881529451540193
40
1.0881529451540193
40
1.0881529451540193
40
1.0881529451540193
40
1.0881529451540193
10
17.425548256783351
20
-6.0115547949615351
30
-4.301512787631063e-16
10
17.470587173213595
20
-5.9914669659876871
30
-4.2769122921764225e-16
10
17.570012608641822
20
-5.9451599929428252
30
-4.2202026058588379e-16
10
17.676399822592245
20
-5.8907639255940181
30
-4.1535866360939417e-16
10
17.777791384536791
20
-5.8332744588145582
30
-4.0831823446177856e-16
10
17.87320677396028
20
-5.7730688152404221
30
-4.0094516959241156e-16
10
17.927166961288208
20
-5.7367612837695301
30
-3.9649877937233499e-16
10
17.934989808829084
20
-5.7314476379778112
30
-3.95848045441272e-16
0
SPLINE
5
145
100
AcDbEntity
8
0
100
AcDbSpline
70
1064
71
5
72
14
73
8
74
0
42
0.000000001
43
0.0000000001
44
0.0000000001
40
1.4500029734209643
40
1.4500029734209643
40
1.4500029734209643
40
1.4500029734209643
40
1.4500029734209643
40
1.4500029734209643
40
1.4571428571428573
40
1.4714285714285715
40
1.4790585646704597
40
1.4790585646704597
40
1.4790585646704597
40
1.4790585646704597
40
1.4790585646704597
40
1.4790585646704597
10
17.934986502366769
20
0.65425301711621475
30
3.8617474131613446e-16
10
17.911964962181269
20
0.67087960193508112
30
3.8821091070405233e-16
10
17.842015306248463
20
0.72045969230766627
30
3.9428272060167543e-16
10
17.743664085901298
20
0.78642900559367601
30
4.0236163143744237e-16
10
17.640862985284521
20
0.85061727273645227
30
4.1022242702736478e-16
10
17.534739151917393
20
0.91245543809798657
30
4.1779541815487987e-16
10
17.453791659367869
20
0.95717506778330008
30
4.2327199329019754e-16
10
17.425548262289471
20
0.97248235972835884
30
4.2514659589861057e-16
0
SPLINE
5
146
100
AcDbEntity
8
0
100
AcDbSpline
70
1064
71
5
72
14
73
8
74
0
42
0.000000001
43
0.0000000001
44
0.0000000001
40
1.3904893179828424
40
1.3904893179828424
40
1.3904893179828424
40
1.3904893179828424
40
1.3904893179828424
40
1.3904893179828424
40
1.4000000000000001
40
1.4142857142857144
40
1.4224456998452584
40
1.4224456998452584
40
1.4224456998452584
40
1.4224456998452584
40
1.4224456998452584
40
1.4224456998452584
10
18.726871917940375
20
-0.14431958770840261
30
2.8837780287761831e-16
10
18.705228687632371
20
-0.11408891094948569
30
2.9207999303050374e-16
10
18.650631622097219
20
-0.03958516483717392
30
3.0120407045059395e-16
10
18.575771691076767
20
0.056660171823728664
30
3.1299072479805403e-16
10
18.498526748158426
20
0.14795068778491596
30
3.2417058861448971e-16
10
18.417917961191684
20
0.23496875633823289
30
3.3482722852666925e-16
10
18.359273223066545
20
0.29426046126194644
30
3.4208836819175055e-16
10
18.337668662554812
20
0.31558717270949233
30
3.4470013708280813e-16
0
SPLINE
5
147
100
AcDbEntity
8
0
100
AcDbSpline
70
1064
71
5
72
14
73
8
74
0
42
0.000000001
43
0.0000000001
44
0.0000000001
40
1.1170575560107563
40
1.1170575560107563
40
1.1170575560107563
40
1.1170575560107563
40
1.1170575560107563
40
1.1170575560107563
40
1.1285714285714286
40
1.1428571428571428
40
1.153156074834528
40
1.153156074834528
40
1.153156074834528
40
1.153156074834528
40
1.153156074834528
40
1.153156074834528
10
18.337668065508382
20
-5.3879212213313146
30
-3.5377819278440726e-16
10
18.365438231726483
20
-5.3580516553658804
30
-3.5012022594925843e-16
10
18.426092224403373
20
-5.289869444692644
30
-3.4177031334328143e-16
10
18.506561289541398
20
-5.1903490340069602
30
-3.2958257810367502e-16
10
18.582653491053435
20
-5.0844464948636192
30
-3.1661325754532409e-16
10
18.656543541999156
20
-4.9715916808343801
30
-3.0279252886839113e-16
10
18.706179223243691
20
-4.8915393951139654
30
-2.9298895132119371e-16
10
18.726867449340933
20
-4.8574512253710971
30
-2.8881435452475253e-16
0
SPLINE
5
148
100
AcDbEntity
8
0
100
AcDbSpline
70
1064
71
5
72
22
73
16
74
0
42
0.000000001
43
0.0000000001
44
0.0000000001
40
1.203263162675777
40
1.203263162675777
40
1.203263162675777
40
1.203263162675777
40
1.203263162675777
40
1.203263162675777
40
1.2142857142857144
40
1.2285714285714286
40
1.2428571428571429
40
1.2571428571428571
40
1.2714285714285714
40
1.2857142857142858
40
1.3
40
1.3142857142857143
40
1.3285714285714287
40
1.342857142857143
40
1.3445719574512367
40
1.3445719574512367
40
1.3445719574512367
40
1.3445719574512367
40
1.3445719574512367
40
1.3445719574512367
10
19.202059086982477
20
-3.9171010534275874
30
-1.7365467170991251e-16
10
19.220860056875285
20
-3.8720478520871842
30
-1.6813724582862742e-16
10
19.263142296565412
20
-3.768025538772739
30
-1.5539818652458715e-16
10
19.325764083903834
20
-3.6034936491527287
30
-1.3524884132651252e-16
10
19.401719636517388
20
-3.377122421533266
30
-1.0752636139419872e-16
10
19.477377254838338
20
-3.0893124417128655
30
-7.2279804339237175e-17
10
19.529819988034486
20
-2.7877929129001227
30
-3.535431175515053e-17
10
19.55260592140942
20
-2.4868470949235681
30
1.5009215150236591e-18
10
19.544281042794566
20
-2.1864158697605474
30
3.8293135341008643e-17
10
19.504811457649019
20
-1.8864796177698939
30
7.5024732435878188e-17
10
19.435631970596006
20
-1.5876331704639235
30
1.1162286694887047e-16
10
19.356604096507702
20
-1.3437926810895848
30
1.4148471443035982e-16
10
19.285950326465581
20
-1.1622987025847009
30
1.6371131641441741e-16
10
19.23376165553217
20
-1.0411325343698206
30
1.7854989242135003e-16
10
19.205138616166174
20
-0.97782450065401227
30
1.8630289050638856e-16
10
19.202059084229074
20
-0.97104785627472934
30
1.8713279009119352e-16
0
LINE
5
149
100
AcDbEntity
8
0
100
AcDbLine
10
16.980819169123478
20
10.102130800004836
30
0
11
16.980819169255575
21
11.153771219515304
31
0
0
LINE
5
150
100
AcDbEntity
8
0
100
AcDbLine
10
16.980819170511005
20
16.1278698186821
30
0
11
16.980819169385025
21
17.424957634214678
31
0
0
LINE
5
151
100
AcDbEntity
8
0
100
AcDbLine
10
17.377419804691399
20
17.275995968330989
30
0
11
17.377419796112658
21
14.936360157774885
31
0
0
LINE
5
152
100
AcDbEntity
8
0
100
AcDbLine
10
17.377419822061452
20
12.185023693889843
30
0
11
17.377419822123997
21
10.291958808321871
31
0
0
SPLINE
5
153
100
AcDbEntity
8
0
100
AcDbSpline
70
1064
71
5
72
21
73
15
74
0
42
0.000000001
43
0.0000000001
44
0.0000000001
40
1.500920637377984
40
1.500920637377984
40
1.500920637377984
40
1.500920637377984
40
1.500920637377984
40
1.500920637377984
40
1.5142857142857142
40
1.5285714285714285
40
1.5428571428571427
40
1.5571428571428569
40
1.5714285714285712
40
1.5857142857142854
40
1.5999999999999996
40
1.6142857142857139
40
1.6285714285714281
40
1.6390265800768322
40
1.6390265800768322
40
1.6390265800768322
40
1.6390265800768322
40
1.6390265800768322
40
1.6390265800768322
10
16.980819169123478
20
10.102130800004836
30
0
10
16.93507678264449
20
10.083606912573792
30
0
10
16.843366105839333
20
10.048971563618103
30
0
10
16.715778937162714
20
10.009425554995241
30
0
10
16.577772435304151
20
9.9885442259320438
30
0
10
16.478659835773886
20
10.026044735787675
30
0
10
16.459498266277656
20
10.128880373596354
30
0
10
16.506921430447591
20
10.281062036310862
30
0
10
16.596796512108341
20
10.461159995026996
30
0
10
16.703497498227613
20
10.648687486123936
30
0
10
16.804822606444546
20
10.823511243182825
30
0
10
16.880676447701273
20
10.959730293041556
30
0
10
16.933918634694415
20
11.060684890382049
30
0
10
16.966963738718025
20
11.125924814894839
30
0
10
16.980819169255579
20
11.15377121951531
30
0
0
SPLINE
5
154
100
AcDbEntity
8
0
100
AcDbSpline
70
1064
71
5
72
14
73
8
74
0
42
0.000000001
43
0.0000000001
44
0.0000000001
40
1.4500027635012835
40
1.4500027635012835
40
1.4500027635012835
40
1.4500027635012835
40
1.4500027635012835
40
1.4500027635012835
40
1.4571428571428573
40
1.4714285714285715
40
1.4790585646704613
40
1.4790585646704613
40
1.4790585646704613
40
1.4790585646704613
40
1.4790585646704613
40
1.4790585646704613
10
17.886861446479308
20
10.610190595125379
30
0
10
17.863839263372121
20
10.59356350918134
30
0
10
17.793888997773944
20
10.54398290558013
30
0
10
17.695537131162013
20
10.478013089946268
30
0
10
17.592735311838133
20
10.413824342079643
30
0
10
17.486610711751844
20
10.35198572995222
30
0
10
17.405663219202381
20
10.307266100266926
30
0
10
17.377419822123997
20
10.291958808321871
30
0
0
SPLINE
5
155
100
AcDbEntity
8
0
100
AcDbSpline
70
1064
71
5
72
14
73
8
74
0
42
0.000000001
43
0.0000000001
44
0.0000000001
40
1.3904896031129605
40
1.3904896031129605
40
1.3904896031129605
40
1.3904896031129605
40
1.3904896031129605
40
1.3904896031129605
40
1.4000000000000001
40
1.4142857142857144
40
1.4224457028174422
40
1.4224457028174422
40
1.4224457028174422
40
1.4224457028174422
40
1.4224457028174422
40
1.4224457028174422
10
18.678740233454548
20
11.408756224186373
30
0
10
18.657097630722181
20
11.378526508165404
30
0
10
18.602501178122893
20
11.304023756647863
30
0
10
18.527641865515829
20
11.207779358199987
30
0
10
18.450397574393978
20
11.116489686866968
30
0
10
18.369789498534352
20
11.029472387431809
30
0
10
18.311144751838672
20
10.970180675383245
30
0
10
18.289540183042973
20
10.948853956500438
30
0
0
SPLINE
5
156
100
AcDbEntity
8
0
100
AcDbSpline
70
1064
71
5
72
22
73
16
74
0
42
0.000000001
43
0.0000000001
44
0.0000000001
40
1.2032631594958216
40
1.2032631594958216
40
1.2032631594958216
40
1.2032631594958216
40
1.2032631594958216
40
1.2032631594958216
40
1.2142857142857144
40
1.2285714285714286
40
1.2428571428571429
40
1.2571428571428571
40
1.2714285714285714
40
1.2857142857142858
40
1.3
40
1.3142857142857143
40
1.3285714285714287
40
1.342857142857143
40
1.3445719605417805
40
1.3445719605417805
40
1.3445719605417805
40
1.3445719605417805
40
1.3445719605417805
40
1.3445719605417805
10
19.153930619694655
20
15.181542286464804
30
0
10
19.172731595456721
20
15.136489072417421
30
0
10
19.215013841309883
20
15.032466746464724
30
0
10
19.277635634771599
20
14.86793484392307
30
0
10
19.353591192822627
20
14.641563603010102
30
0
10
19.429248814674416
20
14.353753609763956
30
0
10
19.481691547871453
20
14.052234080951699
30
0
10
19.504477481246536
20
13.751288262975203
30
0
10
19.496152602631078
20
13.450857037811819
30
0
10
19.45668301748448
20
13.150920785820572
30
0
10
19.38750353043033
20
12.852074338514047
30
0
10
19.308475652191838
20
12.60823383633574
30
0
10
19.237821876501183
20
12.426739845465642
30
0
10
19.185633199389095
20
12.305573665326758
30
0
10
19.157010153885352
20
12.242265619791549
30
0
10
19.15393061631211
20
12.235488963258302
30
0
0
SPLINE
5
157
100
AcDbEntity
8
0
100
AcDbSpline
70
1064
71
5
72
14
73
8
74
0
42
0.000000001
43
0.0000000001
44
0.0000000001
40
1.1170576056889105
40
1.1170576056889105
40
1.1170576056889105
40
1.1170576056889105
40
1.1170576056889105
40
1.1170576056889105
40
1.1285714285714286
40
1.1428571428571428
40
1.1531565093557963
40
1.1531565093557963
40
1.1531565093557963
40
1.1531565093557963
40
1.1531565093557963
40
1.1531565093557963
10
18.28954022443466
20
16.652361745000757
30
0
10
18.317310258729108
20
16.622492298266199
30
0
10
18.377964116459403
20
16.554310201868645
30
0
10
18.458434027423884
20
16.45478871263839
30
0
10
18.534526984431807
20
16.348884958086391
30
0
10
18.608417770096924
20
16.236028773549407
30
0
10
18.658054292219063
20
16.15597490362217
30
0
10
18.67874337344762
20
16.121885202357259
30
0
0
SPLINE
5
158
100
AcDbEntity
8
0
100
AcDbSpline
70
1064
71
5
72
14
73
8
74
0
42
0.000000001
43
0.0000000001
44
0.0000000001
40
1.0597011225336952
40
1.0597011225336952
40
1.0597011225336952
40
1.0597011225336952
40
1.0597011225336952
40
1.0597011225336952
40
1.0714285714285714
40
1.0857142857142856
40
1.0881529500062006
40
1.0881529500062006
40
1.0881529500062006
40
1.0881529500062006
40
1.0881529500062006
40
1.0881529500062006
10
17.377419804691399
20
17.275995968330989
30
0
10
17.422458723552541
20
17.255908138460384
30
0
10
17.521884161509252
20
17.209601164555394
30
0
10
17.628271396143621
20
17.155205086877487
30
0
10
17.729662976871527
20
17.097715608570653
30
0
10
17.825078382611899
20
17.037509952488456
30
0
10
17.879038583744535
20
17.001202409685007
30
0
10
17.886861446489632
20
16.99588875316579
30
0
0
SPLINE
5
159
100
AcDbEntity
8
0
100
AcDbSpline
70
1064
71
5
72
20
73
14
74
0
42
0.000000001
43
0.0000000001
44
0.0000000001
40
0.70253957705417602
40
0.70253957705417602
40
0.70253957705417602
40
0.70253957705417602
40
0.70253957705417602
40
0.70253957705417602
40
0.71428571428571364
40
0.72857142857142787
40
0.74285714285714211
40
0.75714285714285634
40
0.77142857142857058
40
0.78571428571428481
40
0.79999999999999905
40
0.81428571428571328
40
0.8199976346246266
40
0.8199976346246266
40
0.8199976346246266
40
0.8199976346246266
40
0.8199976346246266
40
0.8199976346246266
10
17.377419822061452
20
12.185023693889843
30
0
10
17.390517233620439
20
12.231172091492237
30
0
10
17.41885575709281
20
12.334980357622797
30
0
10
17.460055101807047
20
12.500805357712956
30
0
10
17.508602347046153
20
12.734844637470598
30
0
10
17.553225080690801
20
13.043139332676784
30
0
10
17.577411403584197
20
13.374418118983989
30
0
10
17.576755637934518
20
13.716032920697375
30
0
10
17.549839539499146
20
14.066991772009828
30
0
10
17.503131394593986
20
14.38284702666262
30
0
10
17.452915770611735
20
14.630095364269245
30
0
10
17.41124714629504
20
14.805196914077765
30
0
10
17.385045819031593
20
14.907250929430823
30
0
10
17.377412859376467
20
14.936386636125407
30
0
0
SPLINE
5
160
100
AcDbEntity
8
0
100
AcDbSpline
70
1064
71
5
72
28
73
22
74
0
42
0.000000001
43
0.0000000001
44
0.0000000001
40
0.86967561470692833
40
0.86967561470692833
40
0.86967561470692833
40
0.86967561470692833
40
0.86967561470692833
40
0.86967561470692833
40
0.87142857142857022
40
0.88571428571428445
40
0.89999999999999869
40
0.91428571428571292
40
0.92857142857142716
40
0.94285714285714139
40
0.95714285714285563
40
0.97142857142856986
40
0.9857142857142841
40
1
40
1
40
1
40
1
40
1
40
1.0142857142857142
40
1.0285714285714285
40
1.0386558045893017
40
1.0386558045893017
40
1.0386558045893017
40
1.0386558045893017
40
1.0386558045893017
40
1.0386558045893017
10
16.980819170511005
20
16.1278698186821
30
0
10
16.977956870766967
20
16.135201100779348
30
0
10
16.95182382101525
20
16.202013590877822
30
0
10
16.903412257247719
20
16.323700994715725
30
0
10
16.83590825665091
20
16.48856784141368
30
0
10
16.756977088648025
20
16.674992123957068
30
0
10
16.680121893938264
20
16.850428471743413
30
0
10
16.620578377145893
20
16.981334561560558
30
0
10
16.569708587862934
20
17.085892969332956
30
0
10
16.520009788396855
20
17.184490343064297
30
0
10
16.472985084817751
20
17.289675199469542
30
0
10
16.455355082741889
20
17.372024337910489
30
0
10
16.468124330688859
20
17.42238520281785
30
0
10
16.491293822981671
20
17.448065523830888
30
0
10
16.506711669942206
20
17.458704769147708
30
0
10
16.522129516902734
20
17.469344014464525
30
0
10
16.560631412452068
20
17.486220674718783
30
0
10
16.634380945672103
20
17.495911780306482
30
0
10
16.736697618622816
20
17.486332415752539
30
0
10
16.860642603073142
20
17.459057081517003
30
0
10
16.945013411326716
20
17.435645665585845
30
0
10
16.980819169385025
20
17.424957634214678
30
0
0
ELLIPSE
5
161
100
AcDbEntity
8
0
100
AcDbEllipse
10
15.082441621640481
20
5.4859440602108256
30
0
11
0
21
-2.6925821812639681
31
0.0
40
0.32704402515723263
41
0
42
6.2831853071795862
0
ARC
5
162
100
AcDbEntity
8
0
100
AcDbCircle
10
21.024148009206868
20
46.313275070362394
30
0
40
16.34245466920672
100
AcDbArc
50
251.5590901302771
51
288.44090986972287
0
ARC
5
163
100
AcDbEntity
8
0
100
AcDbCircle
10
21.103108984375982
20
-35.120931443812189
30
0
40
16.530011850093015
100
AcDbArc
50
71.703776345044659
51
108.29622365495524
0
LINE
5
164
100
AcDbEntity
8
0
100
AcDbLine
10
30.967368460265362
20
-15.52159514364085
30
0
11
11.1937187150291
21
-15.513197995599057
31
0
0
LINE
5
165
100
AcDbEntity
8
0
100
AcDbLine
10
40.01909993888858
20
9.8413924837172502
30
0
11
37.739798204957538
21
5.4480422765605514
31
0
0
LINE
5
166
100
AcDbEntity
8
0
100
AcDbLine
10
37.739798204957538
20
5.4480422765605514
30
0
11
40.019099938888587
21
1.1591398700734157
31
0
0
LINE
5
167
100
AcDbEntity
8
0
100
AcDbLine
10
37.739798204957538
20
5.4480422765605514
30
0
11
29.931627249048056
21
5.4417153403871374
31
0
0
SPLINE
5
168
100
AcDbEntity
8
0
100
AcDbSpline
70
1064
71
5
72
12
73
6
74
0
42
0.000000001
43
0.0000000001
44
0.0000000001
40
0.96330130266508329
40
0.96330130266508329
40
0.96330130266508329
40
0.96330130266508329
40
0.96330130266508329
40
0.96330130266508329
40
1
40
1
40
1
40
1
40
1
40
1
10
35.988390012196376
20
16.840459257723488
30
0
10
35.989255177863598
20
16.788372781053123
30
0
10
35.98898439432763
20
16.738947093116398
30
0
10
35.987620151929313
20
16.692171832195978
30
0
10
35.985188189260107
20
16.648036384179882
30
0
10
35.981688549531611
20
16.606540655970573
30
0
0
SPLINE
5
169
100
AcDbEntity
8
0
100
AcDbSpline
70
1064
71
5
72
31
73
25
74
0
42
0.000000001
43
0.0000000001
44
0.0000000001
40
0.22313686565287508
40
0.22313686565287508
40
0.22313686565287508
40
0.22313686565287508
40
0.22313686565287508
40
0.22313686565287508
40
0.24000000000000002
40
0.28000000000000003
40
0.32000000000000001
40
0.35999999999999999
40
0.39999999999999997
40
0.43999999999999995
40
0.47999999999999993
40
0.51999999999999991
40
0.55999999999999994
40
0.59999999999999998
40
0.64000000000000001
40
0.68000000000000005
40
0.72000000000000008
40
0.76000000000000012
40
0.80000000000000016
40
0.84000000000000019
40
0.88000000000000023
40
0.92000000000000026
40
0.9600000000000003
40
0.96330130266408331
40
0.96330130266408331
40
0.96330130266408331
40
0.96330130266408331
40
0.96330130266408331
40
0.96330130266408331
10
30.971316487578363
20
23.76170242276509
30
0
10
31.000842105607084
20
23.750640232954087
30
0
10
31.100002233934401
20
23.712842593158211
30
0
10
31.266813987433313
20
23.645596581597211
30
0
10
31.499174194536344
20
23.543565409032627
30
0
10
31.79904849197473
20
23.398127723159298
30
0
10
32.145911463751233
20
23.212859275114926
30
0
10
32.505996589006401
20
23.001779249577226
30
0
10
32.879706220419919
20
22.75667270392659
30
0
10
33.262966600614661
20
22.467694796452776
30
0
10
33.648684784430607
20
22.125720036907083
30
0
10
34.027898882332963
20
21.724574636162885
30
0
10
34.390975847625036
20
21.263095741246012
30
0
10
34.728911712936274
20
20.747998970704131
30
0
10
35.034108207399427
20
20.194064455945288
30
0
10
35.300459923161114
20
19.620819134878637
30
0
10
35.523627931022922
20
19.0502121022243
30
0
10
35.701307448887142
20
18.503849609274752
30
0
10
35.833458852117325
20
18.000615140028188
30
0
10
35.92279248438772
20
17.553636271110872
30
0
10
35.965065657896851
20
17.239536400942203
30
0
10
35.981922432297672
20
17.032786416981505
30
0
10
35.987170792257302
20
16.906884775178828
30
0
10
35.988312184536696
20
16.845144797999936
30
0
10
35.988390012196263
20
16.840459257730586
30
0
0
SPLINE
5
170
100
AcDbEntity
8
0
100
AcDbSpline
70
1064
71
5
72
41
73
35
74
0
42
0.000000001
43
0.0000000001
44
0.0000000001
40
0
40
0
40
0
40
0
40
0
40
0
40
0.033333333333333333
40
0.066666666666666666
40
0.10000000000000001
40
0.13333333333333333
40
0.16666666666666666
40
0.19999999999999998
40
0.23333333333333331
40
0.26666666666666666
40
0.29999999999999999
40
0.33333333333333331
40
0.36666666666666664
40
0.39999999999999997
40
0.43333333333333329
40
0.46666666666666662
40
0.49999999999999994
40
0.53333333333333333
40
0.56666666666666665
40
0.59999999999999998
40
0.6333333333333333
40
0.66666666666666663
40
0.69999999999999996
40
0.73333333333333328
40
0.76666666666666661
40
0.79999999999999993
40
0.83333333333333326
40
0.86666666666666659
40
0.89999999999999991
40
0.93333333333333324
40
0.96666666666666656
40
1
40
1
40
1
40
1
40
1
40
1
10
35.93108843594009
20
-5.1432805834122988
30
0
10
35.930875192746157
20
-5.2060804578391835
30
0
10
35.929839415149885
20
-5.3319392606551563
30
0
10
35.926457129761303
20
-5.5215108050079786
30
0
10
35.918290019868031
20
-5.7757888265417527
30
0
10
35.901954102231677
20
-6.0947886734088028
30
0
10
35.879584700178683
20
-6.4097835816065638
30
0
10
35.851209487769992
20
-6.7121613473300146
30
0
10
35.817371524116062
20
-6.9837806241602998
30
0
10
35.77790896623916
20
-7.2056932449720588
30
0
10
35.728609100023348
20
-7.3929378702081188
30
0
10
35.664941987032215
20
-7.5697667367324097
30
0
10
35.583409404594512
20
-7.7634533902961458
30
0
10
35.484585601905337
20
-7.9879750583686926
30
0
10
35.372523284270478
20
-8.2425813316347298
30
0
10
35.251793682241697
20
-8.5184001933968219
30
0
10
35.125031657369099
20
-8.8030565311933309
30
0
10
34.990622528674301
20
-9.0856181022841618
30
0
10
34.839402803442162
20
-9.3625029990190072
30
0
10
34.6567966464861
20
-9.6368186695322891
30
0
10
34.427339578981979
20
-9.9147784287817249
30
0
10
34.13831175765884
20
-10.203163824086248
30
0
10
33.784011255383454
20
-10.506207808372059
30
0
10
33.369233550350557
20
-10.823068553420338
30
0
10
32.914655731734854
20
-11.144099097323231
30
0
10
32.452723802167121
20
-11.453020923437442
30
0
10
32.020073618942654
20
-11.73124383650463
30
0
10
31.651100392594294
20
-11.961480568188191
30
0
10
31.371107664511566
20
-12.131624909879008
30
0
10
31.18941965838534
20
-12.238645040262062
30
0
10
31.092740916115083
20
-12.292336229569864
30
0
10
31.048349185126693
20
-12.314312796043934
30
0
10
31.011905476841552
20
-12.332088687422573
30
0
10
30.982868105922744
20
-12.346510471881231
30
0
10
30.96716357472253
20
-12.354364426701219
30
0
0
SPLINE
5
171
100
AcDbEntity
8
0
100
AcDbSpline
70
1064
71
5
72
26
73
20
74
0
42
0.000000001
43
0.0000000001
44
0.0000000001
40
0
40
0
40
0
40
0
40
0
40
0
40
0.066666666666666666
40
0.13333333333333333
40
0.20000000000000001
40
0.26666666666666666
40
0.33333333333333331
40
0.39999999999999997
40
0.46666666666666662
40
0.53333333333333333
40
0.59999999999999998
40
0.66666666666666663
40
0.73333333333333328
40
0.79999999999999993
40
0.86666666666666659
40
0.93333333333333324
40
1
40
1
40
1
40
1
40
1
40
1
10
30.96716357472253
20
-12.354364426701219
30
0
10
30.879544667304973
20
-12.398182470016803
30
0
10
30.711187928563206
20
-12.479424978405991
30
0
10
30.479349239467851
20
-12.582105846098692
30
0
10
30.167253179150137
20
-12.683461298061411
30
0
10
29.557213410705828
20
-12.76552558850759
30
0
10
28.5094091208694
20
-12.819650214036374
30
0
10
26.933829108115059
20
-12.857920474348788
30
0
10
24.881050624878736
20
-12.886574316141605
30
0
10
22.488678138976496
20
-12.9078410097566
30
0
10
19.952365190830896
20
-12.920751775503659
30
0
10
17.490010354156638
20
-12.922300210819042
30
0
10
15.31056312119906
20
-12.908409332970187
30
0
10
13.580923812790765
20
-12.874975210453059
30
0
10
12.391684920946762
20
-12.818922486182201
30
0
10
11.720468861899061
20
-12.739329432083393
30
0
10
11.45603033647558
20
-12.658816235873598
30
0
10
11.317818117536905
20
-12.590506694766495
30
0
10
11.237571061112837
20
-12.541704673436067
30
0
10
11.200419837862212
20
-12.516488100872841
30
0
0
SPLINE
5
172
100
AcDbEntity
8
0
100
AcDbSpline
70
1064
71
5
72
16
73
10
74
0
42
0.000000001
43
0.0000000001
44
0.0000000001
40
0
40
0
40
0
40
0
40
0
40
0
40
0.20000000000000001
40
0.40000000000000002
40
0.60000000000000009
40
0.80000000000000004
40
1
40
1
40
1
40
1
40
1
40
1
10
11.1937187150291
20
27.025004782530448
30
0
10
11.193718715028808
20
27.018248595976878
30
0
10
11.193718715028314
20
27.004736222870541
30
0
10
11.193718715027819
20
26.984467663213568
30
0
10
11.193718715027671
20
26.957442917008549
30
0
10
11.19371871502808
20
26.923661984256263
30
0
10
11.193718715028496
20
26.896637238054772
30
0
10
11.1937187150287
20
26.87636867840261
30
0
10
11.19371871502873
20
26.862856305300468
30
0
10
11.193718715028723
20
26.856100118749215
30
0
0
SPLINE
5
173
100
AcDbEntity
8
0
100
AcDbSpline
70
1064
71
5
72
16
73
10
74
0
42
0.000000001
43
0.0000000001
44
0.0000000001
40
0
40
0
40
0
40
0
40
0
40
0
40
0.20000000000000001
40
0.40000000000000002
40
0.60000000000000009
40
0.80000000000000004
40
1
40
1
40
1
40
1
40
1
40
1
10
11.193981850127956
20
20.002825878639658
30
0
10
11.193192116269854
20
19.106974234025802
30
0
10
11.191686649703502
20
17.192163253349577
30
0
10
11.189650400906634
20
13.951004488680709
30
0
10
11.187445570102968
20
9.0353783757509998
30
0
10
11.186157817873756
20
2.5290849711325243
30
0
10
11.187175203748934
20
-2.4162191933515627
30
0
10
11.189705987006953
20
-5.6994423584890388
30
0
10
11.192307591120835
20
-7.6520812903960644
30
0
10
11.19383720433955
20
-8.5692951551760146
30
0
0
SPLINE
5
174
100
AcDbEntity
8
0
100
AcDbSpline
70
1064
71
5
72
16
73
10
74
0
42
0.000000001
43
0.0000000001
44
0.0000000001
40
0
40
0
40
0
40
0
40
0
40
0
40
0.20000000000000001
40
0.40000000000000002
40
0.60000000000000009
40
0.80000000000000004
40
1
40
1
40
1
40
1
40
1
40
1
10
22.397500445005747
20
21.694368969444557
30
0
10
21.949060879859132
20
21.694368969443079
30
0
10
21.05218174956681
20
21.694368969440557
30
0
10
19.706863054131194
20
21.694368969438198
30
0
10
17.913104793555426
20
21.694368969437576
30
0
10
15.670906967841528
20
21.694368969439395
30
0
10
13.877148707273264
20
21.694368969441587
30
0
10
12.531830011848161
20
21.694368969443161
30
0
10
11.63495088156521
20
21.694368969444099
30
0
10
11.186511316423843
20
21.694368969444557
30
0
0
SPLINE
5
175
100
AcDbEntity
8
0
100
AcDbSpline
70
1064
71
5
72
16
73
10
74
0
42
0.000000001
43
0.0000000001
44
0.0000000001
40
0
40
0
40
0
40
0
40
0
40
0
40
0.20000000000000001
40
0.40000000000000002
40
0.60000000000000009
40
0.80000000000000004
40
1
40
1
40
1
40
1
40
1
40
1
10
20.996086102297195
20
-10.331529645677346
30
0
10
20.604001932208583
20
-10.331529645675964
30
0
10
19.819833592031863
20
-10.331529645673555
30
0
10
18.643581081768392
20
-10.331529645671107
30
0
10
17.075244401419912
20
-10.331529645669919
30
0
10
15.114823550987488
20
-10.331529645670878
30
0
10
13.54648687064306
20
-10.331529645672898
30
0
10
12.370234360385323
20
-10.331529645674937
30
0
10
11.586066020213712
20
-10.331529645676504
30
0
10
11.193981850127956
20
-10.331529645677344
30
0
0
LINE
5
176
100
AcDbEntity
8
0
100
AcDbLine
10
11.19383720433955
20
-8.5692951551760146
30
0
11
11.193981850127956
21
-10.331529645677344
31
0
0
LINE
5
177
100
AcDbEntity
8
0
100
AcDbLine
10
11.193981850127956
20
-10.331529645677344
30
0
11
11.200419837862212
21
-12.516488100872841
31
0
0
LINE
5
178
100
AcDbEntity
8
0
100
AcDbLine
10
11.195773522585053
20
23.551834273938979
30
0
11
11.186511316423843
21
21.694368969444557
31
0
0
LINE
5
179
100
AcDbEntity
8
0
100
AcDbLine
10
11.186511316423843
20
21.694368969444557
30
0
11
11.193981850127956
21
20.002825878639658
31
0
0
SPLINE
5
180
100
AcDbEntity
8
0
100
AcDbSpline
70
1064
71
5
72
12
73
6
74
0
42
0.000000001
43
0.0000000001
44
0.0000000001
40
0.99999855867227938
40
0.99999855867227938
40
0.99999855867227938
40
0.99999855867227938
40
0.99999855867227938
40
0.99999855867227938
40
1
40
1
40
1
40
1
40
1
40
1
10
11.197397574984054
20
23.877529882135097
30
0
10
11.197397574889461
20
23.877529023513645
30
0
10
11.197397574794866
20
23.87752816489219
30
0
10
11.19739757470027
20
23.877527306270743
30
0
10
11.19739757460567
20
23.877526447649295
30
0
10
11.19739757451107
20
23.87752558902784
30
0
0
SPLINE
5
181
100
AcDbEntity
8
0
100
AcDbSpline
70
1064
71
5
72
12
73
6
74
0
42
0.000000001
43
0.0000000001
44
0.0000000001
40
0
40
0
40
0
40
0
40
0
40
0
40
0.00014821638520465881
40
0.00014821638520465881
40
0.00014821638520465881
40
0.00014821638520465881
40
0.00014821638520465881
40
0.00014821638520465881
10
11.200419837862212
20
-12.516488100872841
30
0
10
11.200419851689871
20
-12.516576933523195
30
0
10
11.200419865494553
20
-12.516665766173512
30
0
10
11.200419879276255
20
-12.516754598823791
30
0
10
11.200419893034983
20
-12.516843431474031
30
0
10
11.200419906770732
20
-12.516932264124234
30
0
0
SPLINE
5
182
100
AcDbEntity
8
0
100
AcDbSpline
70
1064
71
5
72
16
73
10
74
0
42
0.000000001
43
0.0000000001
44
0.0000000001
40
0.00014821638620465881
40
0.00014821638620465881
40
0.00014821638620465881
40
0.00014821638620465881
40
0.00014821638620465881
40
0.00014821638620465881
40
0.20000000000000001
40
0.40000000000000002
40
0.60000000000000009
40
0.80000000000000004
40
1
40
1
40
1
40
1
40
1
40
1
10
11.200419906770733
20
-12.516932264127229
30
0
10
11.20043842775809
20
-12.636712297634279
30
0
10
11.200391899900987
20
-12.876361060111938
30
0
10
11.200071475593095
20
-13.23587820877481
30
0
10
11.199212026704204
20
-13.715263308462301
30
0
10
11.19765811081038
20
-14.314516104043504
30
0
10
11.196179362573881
20
-14.793989019890265
30
0
10
11.194981375864989
20
-15.153593560820136
30
0
10
11.194145763635564
20
-15.393329860786002
30
0
10
11.1937187150291
20
-15.513197995599057
30
0
0
LINE
5
183
100
AcDbEntity
8
0
100
AcDbLine
10
30.971316625012676
20
26.847701294068486
30
0
11
11.193718715028723
21
26.856100118749215
31
0
0
LINE
5
184
100
AcDbEntity
8
0
100
AcDbLine
10
30.971316625012676
20
26.847701294068486
30
0
11
30.971316487578363
21
23.76170242276509
31
0
0
LINE
5
185
100
AcDbEntity
8
0
100
AcDbLine
10
11.193718715028723
20
26.856100118749215
30
0
11
11.195773522585053
21
23.551834273938979
31
0
0
SPLINE
5
186
100
AcDbEntity
8
0
100
AcDbSpline
70
1064
71
5
72
26
73
20
74
0
42
0.000000001
43
0.0000000001
44
0.0000000001
40
0
40
0
40
0
40
0
40
0
40
0
40
0.066666666666666666
40
0.13333333333333333
40
0.20000000000000001
40
0.26666666666666666
40
0.33333333333333331
40
0.39999999999999997
40
0.46666666666666662
40
0.53333333333333333
40
0.59999999999999998
40
0.66666666666666663
40
0.73333333333333328
40
0.79999999999999993
40
0.86666666666666659
40
0.93333333333333324
40
1
40
1
40
1
40
1
40
1
40
1
10
30.971316487578363
20
23.76170242276509
30
0
10
30.933952315158741
20
23.78239921395501
30
0
10
30.834320573903973
20
23.827204370236103
30
0
10
30.610158327540191
20
23.904653106164488
30
0
10
30.163223224682866
20
24.02260744531052
30
0
10
29.361513902530319
20
24.165808603318141
30
0
10
28.316025479548387
20
24.274425696487235
30
0
10
27.014794862822235
20
24.332513723051417
30
0
10
25.437429202361095
20
24.343512984190681
30
0
10
23.574802605983997
20
24.320987116146128
30
0
10
21.438770306987266
20
24.284267429455156
30
0
10
19.091946950578524
20
24.250668395239323
30
0
10
16.637919319817996
20
24.233329073883993
30
0
10
14.307690419152655
20
24.227077694775065
30
0
10
12.329066079856991
20
24.220972038886099
30
0
10
11.315206801414231
20
24.146889194875484
30
0
10
11.259829166649872
20
24.029777352978606
30
0
10
11.264299988083717
20
23.950802123306268
30
0
10
11.225696194043728
20
23.908788895203827
30
0
10
11.195562921369667
20
23.890494894080124
30
0
0
ENDSEC
0
SECTION
2
OBJECTS
0
DICTIONARY
5
C
100
AcDbDictionary
3
ACAD_GROUP
350
D
3
ACAD_MLINESTYLE
350
17
0
DICTIONARY
5
D
100
AcDbDictionary
0
DICTIONARY
5
1A
330
C
100
AcDbDictionary
0
DICTIONARY
5
17
100
AcDbDictionary
0
ENDSEC
0
EOF
