  0
SECTION
  2
HEADER
  9
$ACADVER
  1
AC1009
  9
$DWGCODEPAGE
  3
ansi_950
  9
$INSBASE
 10
0.0
 20
0.0
 30
0.0
  9
$EXTMIN
 10
0.4845186161295594
 20
-8.724582290589135
 30
-0.0000000000000005
  9
$EXTMAX
 10
50.72109263918288
 20
20.10800633187561
 30
0.0000000000000005
  9
$LIMMIN
 10
0.0
 20
0.0
  9
$LIMMAX
 10
12.0
 20
9.0
  9
$ORTHOMODE
 70
     0
  9
$REGENMODE
 70
     1
  9
$FILLMODE
 70
     1
  9
$QTEXTMODE
 70
     0
  9
$MIRRTEXT
 70
     1
  9
$DRAGMODE
 70
     2
  9
$LTSCALE
 40
1.0
  9
$OSMODE
 70
    37
  9
$ATTMODE
 70
     1
  9
$TEXTSIZE
 40
0.2
  9
$TRACEWID
 40
0.05
  9
$TEXTSTYLE
  7
STANDARD
  9
$CLAYER
  8
0
  9
$CELTYPE
  6
BYLAYER
  9
$CECOLOR
 62
   256
  9
$DIMSCALE
 40
1.0
  9
$DIMASZ
 40
0.18
  9
$DIMEXO
 40
0.0625
  9
$DIMDLI
 40
0.38
  9
$DIMRND
 40
0.0
  9
$DIMDLE
 40
0.0
  9
$DIMEXE
 40
0.18
  9
$DIMTP
 40
0.0
  9
$DIMTM
 40
0.0
  9
$DIMTXT
 40
0.18
  9
$DIMCEN
 40
0.09
  9
$DIMTSZ
 40
0.0
  9
$DIMTOL
 70
     0
  9
$DIMLIM
 70
     0
  9
$DIMTIH
 70
     1
  9
$DIMTOH
 70
     1
  9
$DIMSE1
 70
     0
  9
$DIMSE2
 70
     0
  9
$DIMTAD
 70
     0
  9
$DIMZIN
 70
     0
  9
$DIMBLK
  1

  9
$DIMASO
 70
     1
  9
$DIMSHO
 70
     1
  9
$DIMPOST
  1

  9
$DIMAPOST
  1

  9
$DIMALT
 70
     0
  9
$DIMALTD
 70
     2
  9
$DIMALTF
 40
25.4
  9
$DIMLFAC
 40
1.0
  9
$DIMTOFL
 70
     0
  9
$DIMTVP
 40
0.0
  9
$DIMTIX
 70
     0
  9
$DIMSOXD
 70
     0
  9
$DIMSAH
 70
     0
  9
$DIMBLK1
  1

  9
$DIMBLK2
  1

  9
$DIMSTYLE
  2
STANDARD
  9
$DIMCLRD
 70
     0
  9
$DIMCLRE
 70
     0
  9
$DIMCLRT
 70
     0
  9
$DIMTFAC
 40
1.0
  9
$DIMGAP
 40
0.09
  9
$LUNITS
 70
     2
  9
$LUPREC
 70
     4
  9
$SKETCHINC
 40
0.1
  9
$FILLETRAD
 40
0.5
  9
$AUNITS
 70
     0
  9
$AUPREC
 70
     0
  9
$MENU
  1
.
  9
$ELEVATION
 40
0.0
  9
$PELEVATION
 40
0.0
  9
$THICKNESS
 40
0.0
  9
$LIMCHECK
 70
     0
  9
$CHAMFERA
 40
0.0
  9
$CHAMFERB
 40
0.0
  9
$SKPOLY
 70
     0
  9
$TDCREATE
 40
2458232.398175394
  9
$TDUPDATE
 40
2458232.398241042
  9
$TDINDWG
 40
0.0000000116
  9
$TDUSRTIMER
 40
0.0000000116
  9
$USRTIMER
 70
     1
  9
$ANGBASE
 50
0.0
  9
$ANGDIR
 70
     0
  9
$PDMODE
 70
     0
  9
$PDSIZE
 40
0.0
  9
$PLINEWID
 40
0.0
  9
$COORDS
 70
     1
  9
$SPLFRAME
 70
     0
  9
$SPLINETYPE
 70
     6
  9
$SPLINESEGS
 70
     8
  9
$ATTDIA
 70
     0
  9
$ATTREQ
 70
     1
  9
$HANDLING
 70
     1
  9
$HANDSEED
  5
4FB
  9
$SURFTAB1
 70
     6
  9
$SURFTAB2
 70
     6
  9
$SURFTYPE
 70
     6
  9
$SURFU
 70
     6
  9
$SURFV
 70
     6
  9
$UCSNAME
  2

  9
$UCSORG
 10
0.0
 20
0.0
 30
0.0
  9
$UCSXDIR
 10
1.0
 20
0.0
 30
0.0
  9
$UCSYDIR
 10
0.0
 20
1.0
 30
0.0
  9
$PUCSNAME
  2

  9
$PUCSORG
 10
0.0
 20
0.0
 30
0.0
  9
$PUCSXDIR
 10
1.0
 20
0.0
 30
0.0
  9
$PUCSYDIR
 10
0.0
 20
1.0
 30
0.0
  9
$USERI1
 70
     0
  9
$USERI2
 70
     0
  9
$USERI3
 70
     0
  9
$USERI4
 70
     0
  9
$USERI5
 70
     0
  9
$USERR1
 40
0.0
  9
$USERR2
 40
0.0
  9
$USERR3
 40
0.0
  9
$USERR4
 40
0.0
  9
$USERR5
 40
0.0
  9
$WORLDVIEW
 70
     1
  9
$SHADEDGE
 70
     3
  9
$SHADEDIF
 70
    70
  9
$TILEMODE
 70
     1
  9
$MAXACTVP
 70
    64
  9
$PLIMCHECK
 70
     0
  9
$PEXTMIN
 10
1.000000000000000E+20
 20
1.000000000000000E+20
 30
1.000000000000000E+20
  9
$PEXTMAX
 10
-1.000000000000000E+20
 20
-1.000000000000000E+20
 30
-1.000000000000000E+20
  9
$PLIMMIN
 10
0.0
 20
0.0
  9
$PLIMMAX
 10
12.0
 20
9.0
  9
$UNITMODE
 70
     0
  9
$VISRETAIN
 70
     1
  9
$PLINEGEN
 70
     0
  9
$PSLTSCALE
 70
     1
  0
ENDSEC
  0
SECTION
  2
TABLES
  0
TABLE
  2
VPORT
 70
     1
  0
VPORT
  2
*ACTIVE
 70
     0
 10
0.0
 20
0.0
 11
1.0
 21
1.0
 12
25.60280562765622
 22
5.691712020643235
 13
0.0
 23
0.0
 14
0.5
 24
0.5
 15
0.5
 25
0.5
 16
0.0
 26
0.0
 36
1.0
 17
0.0
 27
0.0
 37
0.0
 40
29.40924039491404
 41
1.742353927385895
 42
50.0
 43
0.0
 44
0.0
 50
0.0
 51
0.0
 71
     0
 72
   100
 73
     1
 74
     3
 75
     0
 76
     0
 77
     0
 78
     0
  0
ENDTAB
  0
TABLE
  2
LTYPE
 70
     1
  0
LTYPE
  2
CONTINUOUS
 70
     0
  3
Solid line
 72
    65
 73
     0
 40
0.0
  0
ENDTAB
  0
TABLE
  2
LAYER
 70
     1
  0
LAYER
  2
0
 70
     0
 62
     7
  6
CONTINUOUS
  0
ENDTAB
  0
TABLE
  2
STYLE
 70
     1
  0
STYLE
  2
STANDARD
 70
     0
 40
0.0
 41
1.0
 50
0.0
 71
     0
 42
0.2
  3
txt
  4

  0
ENDTAB
  0
TABLE
  2
VIEW
 70
     0
  0
ENDTAB
  0
TABLE
  2
UCS
 70
     0
  0
ENDTAB
  0
TABLE
  2
APPID
 70
     1
  0
APPID
  2
ACAD
 70
     0
  0
ENDTAB
  0
TABLE
  2
DIMSTYLE
 70
     1
  0
DIMSTYLE
  2
STANDARD
 70
     0
  3

  4

  5

  6

  7

 40
1.0
 41
0.18
 42
0.0625
 43
0.38
 44
0.18
 45
0.0
 46
0.0
 47
0.0
 48
0.0
140
0.18
141
0.09
142
0.0
143
25.4
144
1.0
145
0.0
146
1.0
147
0.09
 71
     0
 72
     0
 73
     1
 74
     1
 75
     0
 76
     0
 77
     0
 78
     0
170
     0
171
     2
172
     0
173
     0
174
     0
175
     0
176
     0
177
     0
178
     0
  0
ENDTAB
  0
ENDSEC
  0
SECTION
  2
BLOCKS
  0
BLOCK
  8
0
  2
$MODEL_SPACE
 70
     0
 10
0.0
 20
0.0
 30
0.0
  3
$MODEL_SPACE
  1

  0
ENDBLK
  5
21
  8
0
  0
BLOCK
 67
     1
  8
0
  2
$PAPER_SPACE
 70
     0
 10
0.0
 20
0.0
 30
0.0
  3
$PAPER_SPACE
  1

  0
ENDBLK
  5
1D
 67
     1
  8
0
  0
ENDSEC
  0
SECTION
  2
ENTITIES
  0
LINE
  5
6E
  8
0
 10
11.29169176965979
 20
-8.717111756885021
 30
0.0
 11
11.38147116671598
 21
2.0071898737657
 31
0.0
  0
LINE
  5
6F
  8
0
 10
11.38147116671598
 20
2.0071898737657
 30
0.0
 11
11.38083820818439
 21
2.033784117818491
 31
0.0
  0
LINE
  5
70
  8
0
 10
11.38083820818439
 20
2.033784117818491
 30
0.0
 11
11.38067826912562
 21
2.060524438174329
 31
0.0
  0
LINE
  5
71
  8
0
 10
11.38067826912562
 20
2.060524438174329
 30
0.0
 11
11.38177802278399
 21
2.114443425272757
 31
0.0
  0
LINE
  5
72
  8
0
 10
11.38177802278399
 20
2.114443425272757
 30
0.0
 11
11.38477225435498
 21
2.168947054510177
 31
0.0
  0
LINE
  5
73
  8
0
 10
11.38477225435498
 20
2.168947054510177
 30
0.0
 11
11.38966369169403
 21
2.224035280784799
 31
0.0
  0
LINE
  5
74
  8
0
 10
11.38966369169403
 20
2.224035280784799
 30
0.0
 11
11.39645569676717
 21
2.279707451626964
 31
0.0
  0
LINE
  5
75
  8
0
 10
11.39645569676717
 20
2.279707451626964
 30
0.0
 11
11.40515199003408
 21
2.335961955822039
 31
0.0
  0
LINE
  5
76
  8
0
 10
11.40515199003408
 20
2.335961955822039
 30
0.0
 11
11.41575635316303
 21
2.392795850303491
 31
0.0
  0
LINE
  5
77
  8
0
 10
11.41575635316303
 20
2.392795850303491
 30
0.0
 11
11.42827232320991
 21
2.450204478485723
 31
0.0
  0
LINE
  5
78
  8
0
 10
11.42827232320991
 20
2.450204478485723
 30
0.0
 11
11.4427028865138
 21
2.508181088579316
 31
0.0
  0
LINE
  5
79
  8
0
 10
11.4427028865138
 20
2.508181088579316
 30
0.0
 11
11.45905017375973
 21
2.566716460008776
 31
0.0
  0
LINE
  5
7A
  8
0
 10
11.45905017375973
 20
2.566716460008776
 30
0.0
 11
11.47731515800416
 21
2.625798550398195
 31
0.0
  0
LINE
  5
7B
  8
0
 10
11.47731515800416
 20
2.625798550398195
 30
0.0
 11
11.49749735386754
 21
2.685412150659428
 31
0.0
  0
LINE
  5
7C
  8
0
 10
11.49749735386754
 20
2.685412150659428
 30
0.0
 11
11.51959451592371
 21
2.745538539252692
 31
0.0
  0
LINE
  5
7D
  8
0
 10
11.51959451592371
 20
2.745538539252692
 30
0.0
 11
11.54360231503632
 21
2.806155106827794
 31
0.0
  0
LINE
  5
7E
  8
0
 10
11.54360231503632
 20
2.806155106827794
 30
0.0
 11
11.56951395871526
 21
2.867234905677707
 31
0.0
  0
LINE
  5
7F
  8
0
 10
11.56951395871526
 20
2.867234905677707
 30
0.0
 11
11.59731978942017
 21
2.92874616957277
 31
0.0
  0
LINE
  5
80
  8
0
 10
11.59731978942017
 20
2.92874616957277
 30
0.0
 11
11.62700688355457
 21
2.990651835274403
 31
0.0
  0
LINE
  5
81
  8
0
 10
11.62700688355457
 20
2.990651835274403
 30
0.0
 11
11.65855869046651
 21
3.052909137335649
 31
0.0
  0
LINE
  5
82
  8
0
 10
11.65855869046651
 20
3.052909137335649
 30
0.0
 11
11.69195477300458
 21
3.11546938893749
 31
0.0
  0
LINE
  5
83
  8
0
 10
11.69195477300458
 20
3.11546938893749
 30
0.0
 11
11.72717058808043
 21
3.178277836011991
 31
0.0
  0
LINE
  5
84
  8
0
 10
11.72717058808043
 20
3.178277836011991
 30
0.0
 11
11.76417727330398
 21
3.241273522072346
 31
0.0
  0
LINE
  5
85
  8
0
 10
11.76417727330398
 20
3.241273522072346
 30
0.0
 11
11.80294155149966
 21
3.304389358135746
 31
0.0
  0
LINE
  5
86
  8
0
 10
11.80294155149966
 20
3.304389358135746
 30
0.0
 11
11.84342593445922
 21
3.367552713266454
 31
0.0
  0
LINE
  5
87
  8
0
 10
11.84342593445922
 20
3.367552713266454
 30
0.0
 11
11.88558904457563
 21
3.430686210211702
 31
0.0
  0
LINE
  5
88
  8
0
 10
11.88558904457563
 20
3.430686210211702
 30
0.0
 11
11.92938593987969
 21
3.493708527278052
 31
0.0
  0
LINE
  5
89
  8
0
 10
11.92938593987969
 20
3.493708527278052
 30
0.0
 11
11.97476840966635
 21
3.556535157367214
 31
0.0
  0
LINE
  5
8A
  8
0
 10
11.97476840966635
 20
3.556535157367214
 30
0.0
 11
12.02168519546398
 21
3.619079058262777
 31
0.0
  0
LINE
  5
8B
  8
0
 10
12.02168519546398
 20
3.619079058262777
 30
0.0
 11
12.0700821825934
 21
3.681251260076389
 31
0.0
  0
LINE
  5
8C
  8
0
 10
12.0700821825934
 20
3.681251260076389
 30
0.0
 11
12.11990259069707
 21
3.74296147185494
 31
0.0
  0
LINE
  5
8D
  8
0
 10
12.11990259069707
 20
3.74296147185494
 30
0.0
 11
12.17108716690398
 21
3.804118709214087
 31
0.0
  0
LINE
  5
8E
  8
0
 10
12.17108716690398
 20
3.804118709214087
 30
0.0
 11
12.22357438568531
 21
3.864631975346392
 31
0.0
  0
LINE
  5
8F
  8
0
 10
12.22357438568531
 20
3.864631975346392
 30
0.0
 11
12.2773006513457
 21
3.924410963055803
 31
0.0
  0
LINE
  5
90
  8
0
 10
12.2773006513457
 20
3.924410963055803
 30
0.0
 11
12.33220050041515
 21
3.983366757047683
 31
0.0
  0
LINE
  5
91
  8
0
 10
12.33220050041515
 20
3.983366757047683
 30
0.0
 11
12.38820679881856
 21
4.04141252183619
 31
0.0
  0
LINE
  5
92
  8
0
 10
12.38820679881856
 20
4.04141252183619
 30
0.0
 11
12.44525092578898
 21
4.098464153141929
 31
0.0
  0
LINE
  5
93
  8
0
 10
12.44525092578898
 20
4.098464153141929
 30
0.0
 11
12.50326295255852
 21
4.154440914906973
 31
0.0
  0
LINE
  5
94
  8
0
 10
12.50326295255852
 20
4.154440914906973
 30
0.0
 11
12.56217182050692
 21
4.209266077233559
 31
0.0
  0
LINE
  5
95
  8
0
 10
12.56217182050692
 20
4.209266077233559
 30
0.0
 11
12.62190551043033
 21
4.262867592721152
 31
0.0
  0
LINE
  5
96
  8
0
 10
12.62190551043033
 20
4.262867592721152
 30
0.0
 11
12.68239118926908
 21
4.315178870276224
 31
0.0
  0
LINE
  5
97
  8
0
 10
12.68239118926908
 20
4.315178870276224
 30
0.0
 11
12.74355534795564
 21
4.366139587320401
 31
0.0
  0
LINE
  5
98
  8
0
 10
12.74355534795564
 20
4.366139587320401
 30
0.0
 11
12.80532394126239
 21
4.415696493533697
 31
0.0
  0
LINE
  5
99
  8
0
 10
12.80532394126239
 20
4.415696493533697
 30
0.0
 11
12.86762258852361
 21
4.463803956111503
 31
0.0
  0
LINE
  5
9A
  8
0
 10
12.86762258852361
 20
4.463803956111503
 30
0.0
 11
12.93037692888415
 21
4.510423848864248
 31
0.0
  0
LINE
  5
9B
  8
0
 10
12.93037692888415
 20
4.510423848864248
 30
0.0
 11
12.99351303742241
 21
4.555525182830831
 31
0.0
  0
LINE
  5
9C
  8
0
 10
12.99351303742241
 20
4.555525182830831
 30
0.0
 11
13.05695784383084
 21
4.599083725732852
 31
0.0
  0
LINE
  5
9D
  8
0
 10
13.05695784383084
 20
4.599083725732852
 30
0.0
 11
13.12063955672077
 21
4.641081589775907
 31
0.0
  0
LINE
  5
9E
  8
0
 10
13.12063955672077
 20
4.641081589775907
 30
0.0
 11
13.18448810220407
 21
4.681506739101083
 31
0.0
  0
LINE
  5
9F
  8
0
 10
13.18448810220407
 20
4.681506739101083
 30
0.0
 11
13.24843556809904
 21
4.720352465583534
 31
0.0
  0
LINE
  5
A0
  8
0
 10
13.24843556809904
 20
4.720352465583534
 30
0.0
 11
13.31241664867983
 21
4.757616864143401
 31
0.0
  0
LINE
  5
A1
  8
0
 10
13.31241664867983
 20
4.757616864143401
 30
0.0
 11
13.37636909793134
 21
4.793302327031253
 31
0.0
  0
LINE
  5
A2
  8
0
 10
13.37636909793134
 20
4.793302327031253
 30
0.0
 11
13.44023420439525
 21
4.827415086279555
 31
0.0
  0
LINE
  5
A3
  8
0
 10
13.44023420439525
 20
4.827415086279555
 30
0.0
 11
13.50395727452168
 21
4.859964775128649
 31
0.0
  0
LINE
  5
A4
  8
0
 10
13.50395727452168
 20
4.859964775128649
 30
0.0
 11
13.56748811564261
 21
4.890963990388661
 31
0.0
  0
LINE
  5
A5
  8
0
 10
13.56748811564261
 20
4.890963990388661
 30
0.0
 11
13.63078150060852
 21
4.920427860161162
 31
0.0
  0
LINE
  5
A6
  8
0
 10
13.63078150060852
 20
4.920427860161162
 30
0.0
 11
13.6937975858775
 21
4.948373625166366
 31
0.0
  0
LINE
  5
A7
  8
0
 10
13.6937975858775
 20
4.948373625166366
 30
0.0
 11
13.75650231126748
 21
4.974820225430062
 31
0.0
  0
LINE
  5
A8
  8
0
 10
13.75650231126748
 20
4.974820225430062
 30
0.0
 11
13.81886780146674
 21
4.999787886905215
 31
0.0
  0
LINE
  5
A9
  8
0
 10
13.81886780146674
 20
4.999787886905215
 30
0.0
 11
13.88087283159557
 21
5.023297701034804
 31
0.0
  0
LINE
  5
AA
  8
0
 10
13.88087283159557
 20
5.023297701034804
 30
0.0
 11
13.94250345535951
 21
5.045371186396254
 31
0.0
  0
LINE
  5
AB
  8
0
 10
13.94250345535951
 20
5.045371186396254
 30
0.0
 11
14.0037536972538
 21
5.06602984328711
 31
0.0
  0
LINE
  5
AC
  8
0
 10
14.0037536972538
 20
5.06602984328711
 30
0.0
 11
14.06462623585199
 21
5.085294710892517
 31
0.0
  0
LINE
  5
AD
  8
0
 10
14.06462623585199
 20
5.085294710892517
 30
0.0
 11
14.12513279123142
 21
5.103185998638393
 31
0.0
  0
LINE
  5
AE
  8
0
 10
14.12513279123142
 20
5.103185998638393
 30
0.0
 11
14.1852937613617
 21
5.119722905862118
 31
0.0
  0
LINE
  5
AF
  8
0
 10
14.1852937613617
 20
5.119722905862118
 30
0.0
 11
14.24513756263008
 21
5.134923515668922
 31
0.0
  0
LINE
  5
B0
  8
0
 10
14.24513756263008
 20
5.134923515668922
 30
0.0
 11
14.30469995432879
 21
5.14880469291621
 31
0.0
  0
LINE
  5
B1
  8
0
 10
14.30469995432879
 20
5.14880469291621
 30
0.0
 11
14.36402324201917
 21
5.16138201533867
 31
0.0
  0
LINE
  5
B2
  8
0
 10
14.36402324201917
 20
5.16138201533867
 30
0.0
 11
14.42315517342859
 21
5.172669788799985
 31
0.0
  0
LINE
  5
B3
  8
0
 10
14.42315517342859
 20
5.172669788799985
 30
0.0
 11
14.48214771322402
 21
5.182681095685323
 31
0.0
  0
LINE
  5
B4
  8
0
 10
14.48214771322402
 20
5.182681095685323
 30
0.0
 11
14.54105581476212
 21
5.191427844284242
 31
0.0
  0
LINE
  5
B5
  8
0
 10
14.54105581476212
 20
5.191427844284242
 30
0.0
 11
14.59993623435034
 21
5.198920810783664
 31
0.0
  0
LINE
  5
B6
  8
0
 10
14.59993623435034
 20
5.198920810783664
 30
0.0
 11
14.65884645342095
 21
5.205169662501767
 31
0.0
  0
LINE
  5
B7
  8
0
 10
14.65884645342095
 20
5.205169662501767
 30
0.0
 11
14.71784364321614
 21
5.210182973731937
 31
0.0
  0
LINE
  5
B8
  8
0
 10
14.71784364321614
 20
5.210182973731937
 30
0.0
 11
14.77698363033871
 21
5.213968241569738
 31
0.0
  0
LINE
  5
B9
  8
0
 10
14.77698363033871
 20
5.213968241569738
 30
0.0
 11
14.83631984229671
 21
5.216531908688637
 31
0.0
  0
LINE
  5
BA
  8
0
 10
14.83631984229671
 20
5.216531908688637
 30
0.0
 11
14.89590220226358
 21
5.217879403754764
 31
0.0
  0
LINE
  5
BB
  8
0
 10
14.89590220226358
 20
5.217879403754764
 30
0.0
 11
14.9557760038322
 21
5.218015188790435
 31
0.0
  0
LINE
  5
BC
  8
0
 10
14.9557760038322
 20
5.218015188790435
 30
0.0
 11
15.01598078519763
 21
5.216942806805229
 31
0.0
  0
LINE
  5
BD
  8
0
 10
15.01598078519763
 20
5.216942806805229
 30
0.0
 11
15.0765492084912
 21
5.214664929435667
 31
0.0
  0
LINE
  5
BE
  8
0
 10
15.0765492084912
 20
5.214664929435667
 30
0.0
 11
15.13750595219109
 21
5.211183404606644
 31
0.0
  0
LINE
  5
BF
  8
0
 10
15.13750595219109
 20
5.211183404606644
 30
0.0
 11
15.19886660868423
 21
5.206499304201454
 31
0.0
  0
LINE
  5
C0
  8
0
 10
15.19886660868423
 20
5.206499304201454
 30
0.0
 11
36.24776813067503
 21
5.248458419019105
 31
0.0
  0
ARC
  5
C1
  8
0
 10
36.3669975421568
 20
1.837806679258254
 30
0.0
 40
3.412735111680367
 50
354.7592738973028
 51
92.00212799914061
  0
LINE
  5
C2
  8
0
 10
39.76546648252072
 20
1.526085964711207
 30
0.0
 11
39.86381280347547
 21
-8.71725640267343
 31
0.0
  0
LINE
  5
C3
  8
0
 10
14.629580913697
 20
6.908313023021062
 30
0.0
 11
36.05710052118985
 21
6.908313022161813
 31
0.0
  0
ARC
  5
C4
  8
0
 10
36.3154297959823
 20
1.42342062720564
 30
0.0
 40
5.490972463823039
 50
23.19410999558357
 51
92.69654286682567
  0
ARC
  5
C5
  8
0
 10
35.03284633883256
 20
1.654884518808795
 30
0.0
 40
6.617784807123292
 50
355.0598423165282
 51
16.96640046980695
  0
LINE
  5
C6
  8
0
 10
9.600148678854893
 20
2.486406837992767
 30
0.0
 11
9.60508926530274
 21
2.566343182245475
 31
0.0
  0
LINE
  5
C7
  8
0
 10
9.60508926530274
 20
2.566343182245475
 30
0.0
 11
9.611769643681269
 21
2.646164144142769
 31
0.0
  0
LINE
  5
C8
  8
0
 10
9.611769643681269
 20
2.646164144142769
 30
0.0
 11
9.620191826500918
 21
2.725869570677403
 31
0.0
  0
LINE
  5
C9
  8
0
 10
9.620191826500918
 20
2.725869570677403
 30
0.0
 11
9.630359177467508
 21
2.805459183337243
 31
0.0
  0
LINE
  5
CA
  8
0
 10
9.630359177467508
 20
2.805459183337243
 30
0.0
 11
9.642276413685448
 21
2.88493255419437
 31
0.0
  0
LINE
  5
CB
  8
0
 10
9.642276413685448
 20
2.88493255419437
 30
0.0
 11
9.655949607130859
 21
2.964289084706732
 31
0.0
  0
LINE
  5
CC
  8
0
 10
9.655949607130859
 20
2.964289084706732
 30
0.0
 11
9.671386184271267
 21
3.043527991405527
 31
0.0
  0
LINE
  5
CD
  8
0
 10
9.671386184271267
 20
3.043527991405527
 30
0.0
 11
9.688594924955185
 21
3.122648294295157
 31
0.0
  0
LINE
  5
CE
  8
0
 10
9.688594924955185
 20
3.122648294295157
 30
0.0
 11
9.707585960932848
 21
3.201648805194081
 31
0.0
  0
LINE
  5
CF
  8
0
 10
9.707585960932848
 20
3.201648805194081
 30
0.0
 11
9.72837076551681
 21
3.28052811182667
 31
0.0
  0
LINE
  5
D0
  8
0
 10
9.72837076551681
 20
3.28052811182667
 30
0.0
 11
9.750962120751527
 21
3.359284551129147
 31
0.0
  0
LINE
  5
D1
  8
0
 10
9.750962120751527
 20
3.359284551129147
 30
0.0
 11
9.775374075722759
 21
3.43791617830653
 31
0.0
  0
LINE
  5
D2
  8
0
 10
9.775374075722759
 20
3.43791617830653
 30
0.0
 11
9.801621904820962
 21
3.516420736129689
 31
0.0
  0
LINE
  5
D3
  8
0
 10
9.801621904820962
 20
3.516420736129689
 30
0.0
 11
9.829722073666622
 21
3.594795634724393
 31
0.0
  0
LINE
  5
D4
  8
0
 10
9.829722073666622
 20
3.594795634724393
 30
0.0
 11
9.859692224485343
 21
3.673037957993857
 31
0.0
  0
LINE
  5
D5
  8
0
 10
9.859692224485343
 20
3.673037957993857
 30
0.0
 11
9.891551169144895
 21
3.751144480533282
 31
0.0
  0
LINE
  5
D6
  8
0
 10
9.891551169144895
 20
3.751144480533282
 30
0.0
 11
9.925318880514311
 21
3.82911168335027
 31
0.0
  0
LINE
  5
D7
  8
0
 10
9.925318880514311
 20
3.82911168335027
 30
0.0
 11
9.96101643253319
 21
3.906935728046171
 31
0.0
  0
LINE
  5
D8
  8
0
 10
9.96101643253319
 20
3.906935728046171
 30
0.0
 11
9.998665810083926
 21
3.984612325552036
 31
0.0
  0
LINE
  5
D9
  8
0
 10
9.998665810083926
 20
3.984612325552036
 30
0.0
 11
10.03828966757415
 21
4.062136563325513
 31
0.0
  0
LINE
  5
DA
  8
0
 10
10.03828966757415
 20
4.062136563325513
 30
0.0
 11
10.07991108422334
 21
4.139502729928097
 31
0.0
  0
LINE
  5
DB
  8
0
 10
10.07991108422334
 20
4.139502729928097
 30
0.0
 11
10.12355328494664
 21
4.216704113031057
 31
0.0
  0
LINE
  5
DC
  8
0
 10
10.12355328494664
 20
4.216704113031057
 30
0.0
 11
10.16923927390868
 21
4.293732729971065
 31
0.0
  0
LINE
  5
DD
  8
0
 10
10.16923927390868
 20
4.293732729971065
 30
0.0
 11
10.21699143367457
 21
4.370579031734511
 31
0.0
  0
LINE
  5
DE
  8
0
 10
10.21699143367457
 20
4.370579031734511
 30
0.0
 11
10.26683112291154
 21
4.447231606020958
 31
0.0
  0
LINE
  5
DF
  8
0
 10
10.26683112291154
 20
4.447231606020958
 30
0.0
 11
10.31877827080807
 21
4.523676882936256
 31
0.0
  0
LINE
  5
E0
  8
0
 10
10.31877827080807
 20
4.523676882936256
 30
0.0
 11
10.37285096316072
 21
4.599898847360837
 31
0.0
  0
LINE
  5
E1
  8
0
 10
10.37285096316072
 20
4.599898847360837
 30
0.0
 11
10.42906502517848
 21
4.675878753947663
 31
0.0
  0
LINE
  5
E2
  8
0
 10
10.42906502517848
 20
4.675878753947663
 30
0.0
 11
10.48743360427555
 21
4.751594842468202
 31
0.0
  0
LINE
  5
E3
  8
0
 10
10.48743360427555
 20
4.751594842468202
 30
0.0
 11
10.54796675584721
 21
4.827022059578146
 31
0.0
  0
LINE
  5
E4
  8
0
 10
10.54796675584721
 20
4.827022059578146
 30
0.0
 11
10.61067103661761
 21
4.90213179687929
 31
0.0
  0
LINE
  5
E5
  8
0
 10
10.61067103661761
 20
4.90213179687929
 30
0.0
 11
10.67554910097057
 21
4.976891635401138
 31
0.0
  0
LINE
  5
E6
  8
0
 10
10.67554910097057
 20
4.976891635401138
 30
0.0
 11
10.74259929568612
 21
5.051265089203599
 31
0.0
  0
LINE
  5
E7
  8
0
 10
10.74259929568612
 20
5.051265089203599
 30
0.0
 11
10.81181521024121
 21
5.125211319707957
 31
0.0
  0
LINE
  5
E8
  8
0
 10
10.81181521024121
 20
5.125211319707957
 30
0.0
 11
10.88318511431231
 21
5.198684775722763
 31
0.0
  0
LINE
  5
E9
  8
0
 10
10.88318511431231
 20
5.198684775722763
 30
0.0
 11
10.95669135084226
 21
5.271634804198022
 31
0.0
  0
LINE
  5
EA
  8
0
 10
10.95669135084226
 20
5.271634804198022
 30
0.0
 11
11.03230973586957
 21
5.344005266603258
 31
0.0
  0
LINE
  5
EB
  8
0
 10
11.03230973586957
 20
5.344005266603258
 30
0.0
 11
11.11000917861493
 21
5.415734330798045
 31
0.0
  0
LINE
  5
EC
  8
0
 10
11.11000917861493
 20
5.415734330798045
 30
0.0
 11
11.18975186068277
 21
5.486754708383433
 31
0.0
  0
LINE
  5
ED
  8
0
 10
11.18975186068277
 20
5.486754708383433
 30
0.0
 11
11.27149363551997
 21
5.556994067545839
 31
0.0
  0
LINE
  5
EE
  8
0
 10
11.27149363551997
 20
5.556994067545839
 30
0.0
 11
11.35518443844231
 21
5.626375454442884
 31
0.0
  0
LINE
  5
EF
  8
0
 10
11.35518443844231
 20
5.626375454442884
 30
0.0
 11
11.44076875116093
 21
5.694817761187103
 31
0.0
  0
LINE
  5
F0
  8
0
 10
11.44076875116093
 20
5.694817761187103
 30
0.0
 11
11.52818620465519
 21
5.76223631211661
 31
0.0
  0
LINE
  5
F1
  8
0
 10
11.52818620465519
 20
5.76223631211661
 30
0.0
 11
11.61737223654564
 21
5.828543496663626
 31
0.0
  0
LINE
  5
F2
  8
0
 10
11.61737223654564
 20
5.828543496663626
 30
0.0
 11
11.70825874963699
 21
5.893649403714549
 31
0.0
  0
LINE
  5
F3
  8
0
 10
11.70825874963699
 20
5.893649403714549
 30
0.0
 11
11.80077474638147
 21
5.957462448151638
 31
0.0
  0
LINE
  5
F4
  8
0
 10
11.80077474638147
 20
5.957462448151638
 30
0.0
 11
11.89484690221722
 21
6.019889977548122
 31
0.0
  0
LINE
  5
F5
  8
0
 10
11.89484690221722
 20
6.019889977548122
 30
0.0
 11
11.99040011482704
 21
6.080838871044906
 31
0.0
  0
LINE
  5
F6
  8
0
 10
11.99040011482704
 20
6.080838871044906
 30
0.0
 11
12.08735805227924
 21
6.140216137748857
 31
0.0
  0
LINE
  5
F7
  8
0
 10
12.08735805227924
 20
6.140216137748857
 30
0.0
 11
12.18564369618023
 21
6.197929510509249
 31
0.0
  0
LINE
  5
F8
  8
0
 10
12.18564369618023
 20
6.197929510509249
 30
0.0
 11
12.28517987216511
 21
6.253888027961939
 31
0.0
  0
LINE
  5
F9
  8
0
 10
12.28517987216511
 20
6.253888027961939
 30
0.0
 11
12.38588977540005
 21
6.308002611951756
 31
0.0
  0
LINE
  5
FA
  8
0
 10
12.38588977540005
 20
6.308002611951756
 30
0.0
 11
12.48769749659821
 21
6.360186646455966
 31
0.0
  0
LINE
  5
FB
  8
0
 10
12.48769749659821
 20
6.360186646455966
 30
0.0
 11
12.59052856637514
 21
6.41035660015819
 31
0.0
  0
LINE
  5
FC
  8
0
 10
12.59052856637514
 20
6.41035660015819
 30
0.0
 11
12.69431054615822
 21
6.458432759827238
 31
0.0
  0
LINE
  5
FD
  8
0
 10
12.69431054615822
 20
6.458432759827238
 30
0.0
 11
12.79897363743559
 21
6.504340007346386
 31
0.0
  0
LINE
  5
FE
  8
0
 10
12.79897363743559
 20
6.504340007346386
 30
0.0
 11
12.90445128867704
 21
6.548008593776721
 31
0.0
  0
LINE
  5
FF
  8
0
 10
12.90445128867704
 20
6.548008593776721
 30
0.0
 11
13.01068072338628
 21
6.58937479265605
 31
0.0
  0
LINE
  5
100
  8
0
 10
13.01068072338628
 20
6.58937479265605
 30
0.0
 11
13.11760326794844
 21
6.628381246741903
 31
0.0
  0
LINE
  5
101
  8
0
 10
13.11760326794844
 20
6.628381246741903
 30
0.0
 11
13.22516460060891
 21
6.664977193990103
 31
0.0
  0
LINE
  5
102
  8
0
 10
13.22516460060891
 20
6.664977193990103
 30
0.0
 11
13.33331499266566
 21
6.6991186814851
 31
0.0
  0
LINE
  5
103
  8
0
 10
13.33331499266566
 20
6.6991186814851
 30
0.0
 11
13.44200942607868
 21
6.730768586880995
 31
0.0
  0
LINE
  5
104
  8
0
 10
13.44200942607868
 20
6.730768586880995
 30
0.0
 11
13.55120739736935
 21
6.759896151215822
 31
0.0
  0
LINE
  5
105
  8
0
 10
13.55120739736935
 20
6.759896151215822
 30
0.0
 11
13.66087259793685
 21
6.786476319236494
 31
0.0
  0
LINE
  5
106
  8
0
 10
13.66087259793685
 20
6.786476319236494
 30
0.0
 11
13.77097259081425
 21
6.81048907455346
 31
0.0
  0
LINE
  5
107
  8
0
 10
13.77097259081425
 20
6.81048907455346
 30
0.0
 11
13.8814785184345
 21
6.831918832856682
 31
0.0
  0
LINE
  5
108
  8
0
 10
13.8814785184345
 20
6.831918832856682
 30
0.0
 11
13.99236488911414
 21
6.850753982518065
 31
0.0
  0
LINE
  5
109
  8
0
 10
13.99236488911414
 20
6.850753982518065
 30
0.0
 11
14.10360939454703
 21
6.866986483255214
 31
0.0
  0
LINE
  5
10A
  8
0
 10
14.10360939454703
 20
6.866986483255214
 30
0.0
 11
14.21519272806077
 21
6.880611466605612
 31
0.0
  0
LINE
  5
10B
  8
0
 10
14.21519272806077
 20
6.880611466605612
 30
0.0
 11
14.32709839169316
 21
6.891626825410018
 31
0.0
  0
LINE
  5
10C
  8
0
 10
14.32709839169316
 20
6.891626825410018
 30
0.0
 11
14.43931247488863
 21
6.900032775396224
 31
0.0
  0
LINE
  5
10D
  8
0
 10
14.43931247488863
 20
6.900032775396224
 30
0.0
 11
14.55182342201478
 21
6.905831405772052
 31
0.0
  0
LINE
  5
10E
  8
0
 10
14.55182342201478
 20
6.905831405772052
 30
0.0
 11
14.629580913697
 21
6.908313023021062
 31
0.0
  0
LINE
  5
10F
  8
0
 10
7.41699205927161
 20
-8.713696032501907
 30
0.0
 11
7.402649388155079
 21
-8.694797288481176
 31
0.0
  0
LINE
  5
110
  8
0
 10
7.402649388155079
 20
-8.694797288481176
 30
0.0
 11
7.388596769987512
 21
-8.675082839936472
 31
0.0
  0
LINE
  5
111
  8
0
 10
7.388596769987512
 20
-8.675082839936472
 30
0.0
 11
7.37483432884903
 21
-8.654552042029932
 31
0.0
  0
LINE
  5
112
  8
0
 10
7.37483432884903
 20
-8.654552042029932
 30
0.0
 11
7.361362239113902
 21
-8.63320349417671
 31
0.0
  0
LINE
  5
113
  8
0
 10
7.361362239113902
 20
-8.63320349417671
 30
0.0
 11
7.348180709140749
 21
-8.611034891787746
 31
0.0
  0
LINE
  5
114
  8
0
 10
7.348180709140749
 20
-8.611034891787746
 30
0.0
 11
7.335289964962746
 21
-8.588042878012509
 31
0.0
  0
LINE
  5
115
  8
0
 10
7.335289964962746
 20
-8.588042878012509
 30
0.0
 11
7.322690233977839
 21
-8.564222895481779
 31
0.0
  0
LINE
  5
116
  8
0
 10
7.322690233977839
 20
-8.564222895481779
 30
0.0
 11
7.310381728638942
 21
-8.539569038050384
 31
0.0
  0
LINE
  5
117
  8
0
 10
7.310381728638942
 20
-8.539569038050384
 30
0.0
 11
7.29836463005641
 21
-8.514073901709962
 31
0.0
  0
LINE
  5
118
  8
0
 10
7.29836463005641
 20
-8.514073901709962
 30
0.0
 11
7.286639069319419
 21
-8.487728413921243
 31
0.0
  0
LINE
  5
119
  8
0
 10
7.286639069319419
 20
-8.487728413921243
 30
0.0
 11
7.275205103026849
 21
-8.460521608165235
 31
0.0
  0
LINE
  5
11A
  8
0
 10
7.275205103026849
 20
-8.460521608165235
 30
0.0
 11
7.264062686537086
 21
-8.432440376913965
 31
0.0
  0
LINE
  5
11B
  8
0
 10
7.264062686537086
 20
-8.432440376913965
 30
0.0
 11
7.253211647130084
 21
-8.403469223771172
 31
0.0
  0
LINE
  5
11C
  8
0
 10
7.253211647130084
 20
-8.403469223771172
 30
0.0
 11
7.242651657169421
 21
-8.373590015613047
 31
0.0
  0
LINE
  5
11D
  8
0
 10
7.242651657169421
 20
-8.373590015613047
 30
0.0
 11
7.222402579431916
 21
-8.311020230962063
 31
0.0
  0
LINE
  5
11E
  8
0
 10
7.222402579431916
 20
-8.311020230962063
 30
0.0
 11
7.203308719559974
 21
-8.244523870078714
 31
0.0
  0
LINE
  5
11F
  8
0
 10
7.203308719559974
 20
-8.244523870078714
 30
0.0
 11
7.185359301385486
 21
-8.173837558184738
 31
0.0
  0
LINE
  5
120
  8
0
 10
7.185359301385486
 20
-8.173837558184738
 30
0.0
 11
7.168539158646034
 21
-8.098639841135139
 31
0.0
  0
LINE
  5
121
  8
0
 10
7.168539158646034
 20
-8.098639841135139
 30
0.0
 11
7.152828530188787
 21
-8.018551026062283
 31
0.0
  0
LINE
  5
122
  8
0
 10
7.152828530188787
 20
-8.018551026062283
 30
0.0
 11
7.138202868629374
 21
-7.933133182089874
 31
0.0
  0
LINE
  5
123
  8
0
 10
7.138202868629374
 20
-7.933133182089874
 30
0.0
 11
7.124632855945508
 21
-7.841892604748095
 31
0.0
  0
LINE
  5
124
  8
0
 10
7.124632855945508
 20
-7.841892604748095
 30
0.0
 11
7.112084944366555
 21
-7.744288534399571
 31
0.0
  0
LINE
  5
125
  8
0
 10
7.112084944366555
 20
-7.744288534399571
 30
0.0
 11
7.100522104197848
 21
-7.639744338366518
 31
0.0
  0
LINE
  5
126
  8
0
 10
7.100522104197848
 20
-7.639744338366518
 30
0.0
 11
7.08019056241491
 21
-7.407416540641657
 31
0.0
  0
LINE
  5
127
  8
0
 10
7.08019056241491
 20
-7.407416540641657
 30
0.0
 11
7.063298696976693
 21
-7.139984184928894
 31
0.0
  0
LINE
  5
128
  8
0
 10
7.063298696976693
 20
-7.139984184928894
 30
0.0
 11
7.038404955496409
 21
-6.480655275726039
 31
0.0
  0
LINE
  5
129
  8
0
 10
7.038404955496409
 20
-6.480655275726039
 30
0.0
 11
7.048033391809948
 21
8.749246437764988
 31
0.0
  0
LINE
  5
12A
  8
0
 10
21.4531251645822
 20
20.1080063318756
 30
0.0
 11
21.4531251645822
 21
13.29938048649401
 31
0.0
  0
LINE
  5
12B
  8
0
 10
21.4531251645822
 20
13.29938048649401
 30
0.0
 11
25.85280230791231
 21
10.02053364203508
 31
0.0
  0
LINE
  5
12C
  8
0
 10
25.85280230791231
 20
10.02053364203508
 30
0.0
 11
30.13537777822604
 21
13.29938048649401
 31
0.0
  0
LINE
  5
12D
  8
0
 10
30.13537777822604
 20
13.29938048649401
 30
0.0
 11
30.13537777822604
 21
20.10800633187561
 31
0.0
  0
LINE
  5
12E
  8
0
 10
30.13537777822604
 20
20.10800633187561
 30
0.0
 11
21.4531251645822
 21
20.1080063318756
 31
0.0
  0
LINE
  5
12F
  8
0
 10
14.68797699232888
 20
16.07059494251863
 30
0.0
 11
21.4531251645822
 21
16.0573194545189
 31
0.0
  0
LINE
  5
130
  8
0
 10
30.13537777822604
 20
16.02024151456126
 30
0.0
 11
36.43779823171175
 21
16.01999482892711
 31
0.0
  0
LINE
  5
131
  8
0
 10
43.64888207500067
 20
11.05606996770955
 30
0.0
 11
46.8161127919403
 21
11.05627485325238
 31
0.0
  0
LINE
  5
132
  8
0
 10
46.8161127919403
 20
11.05627485325238
 30
0.0
 11
47.04973851924096
 21
10.93937745424365
 31
0.0
  0
LINE
  5
133
  8
0
 10
47.04973851924096
 20
10.93937745424365
 30
0.0
 11
47.30520876116139
 21
10.80262205741763
 31
0.0
  0
LINE
  5
134
  8
0
 10
47.30520876116139
 20
10.80262205741763
 30
0.0
 11
47.58230877433176
 21
10.64531805045051
 31
0.0
  0
LINE
  5
135
  8
0
 10
47.58230877433176
 20
10.64531805045051
 30
0.0
 11
47.87975958389367
 21
10.46630306534324
 31
0.0
  0
LINE
  5
136
  8
0
 10
47.87975958389367
 20
10.46630306534324
 30
0.0
 11
48.19434989492636
 21
10.26397685147936
 31
0.0
  0
LINE
  5
137
  8
0
 10
48.19434989492636
 20
10.26397685147936
 30
0.0
 11
48.35634051352396
 21
10.15347065574876
 31
0.0
  0
LINE
  5
138
  8
0
 10
48.35634051352396
 20
10.15347065574876
 30
0.0
 11
48.52021199985526
 21
10.03638094634793
 31
0.0
  0
LINE
  5
139
  8
0
 10
48.52021199985526
 20
10.03638094634793
 30
0.0
 11
48.6848779271612
 21
9.912429389602854
 31
0.0
  0
LINE
  5
13A
  8
0
 10
48.6848779271612
 20
9.912429389602854
 30
0.0
 11
48.84918295039777
 21
9.7813355757832
 31
0.0
  0
LINE
  5
13B
  8
0
 10
48.84918295039777
 20
9.7813355757832
 30
0.0
 11
49.01194132789614
 21
9.642825334492278
 31
0.0
  0
LINE
  5
13C
  8
0
 10
49.01194132789614
 20
9.642825334492278
 30
0.0
 11
49.09237067850007
 21
9.57070729207808
 31
0.0
  0
LINE
  5
13D
  8
0
 10
49.09237067850007
 20
9.57070729207808
 30
0.0
 11
49.17197347976153
 21
9.49663972054763
 31
0.0
  0
LINE
  5
13E
  8
0
 10
49.17197347976153
 20
9.49663972054763
 30
0.0
 11
49.25060915565757
 21
9.420594111128462
 31
0.0
  0
LINE
  5
13F
  8
0
 10
49.25060915565757
 20
9.420594111128462
 30
0.0
 11
49.32814210276707
 21
9.342544097875827
 31
0.0
  0
LINE
  5
140
  8
0
 10
49.32814210276707
 20
9.342544097875827
 30
0.0
 11
49.40444313908726
 21
9.262465955492438
 31
0.0
  0
LINE
  5
141
  8
0
 10
49.40444313908726
 20
9.262465955492438
 30
0.0
 11
49.47939104511566
 21
9.18033915761991
 31
0.0
  0
LINE
  5
142
  8
0
 10
49.47939104511566
 20
9.18033915761991
 30
0.0
 11
49.55287409573953
 21
9.096146931895003
 31
0.0
  0
LINE
  5
143
  8
0
 10
49.55287409573953
 20
9.096146931895003
 30
0.0
 11
49.62479126085429
 21
9.009876670420063
 31
0.0
  0
LINE
  5
144
  8
0
 10
49.62479126085429
 20
9.009876670420063
 30
0.0
 11
49.69505256506352
 21
8.921519973207918
 31
0.0
  0
LINE
  5
145
  8
0
 10
49.69505256506352
 20
8.921519973207918
 30
0.0
 11
49.76357911610791
 21
8.831072547040955
 31
0.0
  0
LINE
  5
146
  8
0
 10
49.76357911610791
 20
8.831072547040955
 30
0.0
 11
49.83030311112281
 21
8.73853409479878
 31
0.0
  0
LINE
  5
147
  8
0
 10
49.83030311112281
 20
8.73853409479878
 30
0.0
 11
49.89516759770785
 21
8.643908101554976
 31
0.0
  0
LINE
  5
148
  8
0
 10
49.89516759770785
 20
8.643908101554976
 30
0.0
 11
49.95812561259601
 21
8.547201358626078
 31
0.0
  0
LINE
  5
149
  8
0
 10
49.95812561259601
 20
8.547201358626078
 30
0.0
 11
50.0191390751349
 21
8.448423384389685
 31
0.0
  0
LINE
  5
14A
  8
0
 10
50.0191390751349
 20
8.448423384389685
 30
0.0
 11
50.07817767535312
 21
8.347585843272466
 31
0.0
  0
LINE
  5
14B
  8
0
 10
50.07817767535312
 20
8.347585843272466
 30
0.0
 11
50.13521786642795
 21
8.244702020387965
 31
0.0
  0
LINE
  5
14C
  8
0
 10
50.13521786642795
 20
8.244702020387965
 30
0.0
 11
50.19024212217185
 21
8.139786437439088
 31
0.0
  0
LINE
  5
14D
  8
0
 10
50.19024212217185
 20
8.139786437439088
 30
0.0
 11
50.24323829892036
 21
8.03285452427037
 31
0.0
  0
LINE
  5
14E
  8
0
 10
50.24323829892036
 20
8.03285452427037
 30
0.0
 11
50.29419900099511
 21
7.923922292629947
 31
0.0
  0
LINE
  5
14F
  8
0
 10
50.29419900099511
 20
7.923922292629947
 30
0.0
 11
50.3431209347188
 21
7.813006011735096
 31
0.0
  0
LINE
  5
150
  8
0
 10
50.3431209347188
 20
7.813006011735096
 30
0.0
 11
50.39000423336958
 21
7.700121888415916
 31
0.0
  0
LINE
  5
151
  8
0
 10
50.39000423336958
 20
7.700121888415916
 30
0.0
 11
50.43485177068743
 21
7.585285749062541
 31
0.0
  0
LINE
  5
152
  8
0
 10
50.43485177068743
 20
7.585285749062541
 30
0.0
 11
50.47766847523927
 21
7.468512722488288
 31
0.0
  0
LINE
  5
153
  8
0
 10
50.47766847523927
 20
7.468512722488288
 30
0.0
 11
50.51846067855834
 21
7.349816944803431
 31
0.0
  0
LINE
  5
154
  8
0
 10
50.51846067855834
 20
7.349816944803431
 30
0.0
 11
50.55723554901868
 21
7.229211320162076
 31
0.0
  0
LINE
  5
155
  8
0
 10
50.55723554901868
 20
7.229211320162076
 30
0.0
 11
50.59400055948389
 21
7.106707303519691
 31
0.0
  0
LINE
  5
156
  8
0
 10
50.59400055948389
 20
7.106707303519691
 30
0.0
 11
50.62876295651111
 21
6.982314684588536
 31
0.0
  0
LINE
  5
157
  8
0
 10
50.62876295651111
 20
6.982314684588536
 30
0.0
 11
50.66152923621507
 21
6.856041380928686
 31
0.0
  0
LINE
  5
158
  8
0
 10
50.66152923621507
 20
6.856041380928686
 30
0.0
 11
50.69230463703855
 21
6.727893254229333
 31
0.0
  0
LINE
  5
159
  8
0
 10
50.69230463703855
 20
6.727893254229333
 30
0.0
 11
50.72109263918284
 21
6.597873935725659
 31
0.0
  0
LINE
  5
15A
  8
0
 10
50.72109263918284
 20
6.597873935725659
 30
0.0
 11
50.72109263918284
 21
-3.99724924227516
 31
0.0
  0
LINE
  5
15B
  8
0
 10
50.72109263918284
 20
-3.99724924227516
 30
0.0
 11
50.71644446569061
 21
-4.293296822359532
 31
0.0
  0
LINE
  5
15C
  8
0
 10
50.71644446569061
 20
-4.293296822359532
 30
0.0
 11
50.70905637103818
 21
-4.453201097873137
 31
0.0
  0
LINE
  5
15D
  8
0
 10
50.70905637103818
 20
-4.453201097873137
 30
0.0
 11
50.70338752660687
 21
-4.536057996382747
 31
0.0
  0
LINE
  5
15E
  8
0
 10
50.70338752660687
 20
-4.536057996382747
 30
0.0
 11
50.69605147519973
 21
-4.620812118556334
 31
0.0
  0
LINE
  5
15F
  8
0
 10
50.69605147519973
 20
-4.620812118556334
 30
0.0
 11
50.68676218162102
 21
-4.707426211012247
 31
0.0
  0
LINE
  5
160
  8
0
 10
50.68676218162102
 20
-4.707426211012247
 30
0.0
 11
50.67522292212972
 21
-4.795856220185433
 31
0.0
  0
LINE
  5
161
  8
0
 10
50.67522292212972
 20
-4.795856220185433
 30
0.0
 11
50.66113225230806
 21
-4.886050847391512
 31
0.0
  0
LINE
  5
162
  8
0
 10
50.66113225230806
 20
-4.886050847391512
 30
0.0
 11
50.64418979846756
 21
-4.977951114259331
 31
0.0
  0
LINE
  5
163
  8
0
 10
50.64418979846756
 20
-4.977951114259331
 30
0.0
 11
50.62410206002647
 21
-5.071489924577013
 31
0.0
  0
LINE
  5
164
  8
0
 10
50.62410206002647
 20
-5.071489924577013
 30
0.0
 11
50.60058867361376
 21
-5.166591522520174
 31
0.0
  0
LINE
  5
165
  8
0
 10
50.60058867361376
 20
-5.166591522520174
 30
0.0
 11
50.57338984924786
 21
-5.263170687850276
 31
0.0
  0
LINE
  5
166
  8
0
 10
50.57338984924786
 20
-5.263170687850276
 30
0.0
 11
50.54227426824173
 21
-5.361131827495145
 31
0.0
  0
LINE
  5
167
  8
0
 10
50.54227426824173
 20
-5.361131827495145
 30
0.0
 11
50.50704694119004
 21
-5.460368073783131
 31
0.0
  0
LINE
  5
168
  8
0
 10
50.50704694119004
 20
-5.460368073783131
 30
0.0
 11
50.46755556636411
 21
-5.560760659289437
 31
0.0
  0
LINE
  5
169
  8
0
 10
50.46755556636411
 20
-5.560760659289437
 30
0.0
 11
50.42369308144948
 21
-5.662178993851799
 31
0.0
  0
LINE
  5
16A
  8
0
 10
50.42369308144948
 20
-5.662178993851799
 30
0.0
 11
50.37539871569125
 21
-5.764481018198346
 31
0.0
  0
LINE
  5
16B
  8
0
 10
50.37539871569125
 20
-5.764481018198346
 30
0.0
 11
50.32265893365313
 21
-5.867513577842745
 31
0.0
  0
LINE
  5
16C
  8
0
 10
50.32265893365313
 20
-5.867513577842745
 30
0.0
 11
50.26550706052701
 21
-5.971113047316488
 31
0.0
  0
LINE
  5
16D
  8
0
 10
50.26550706052701
 20
-5.971113047316488
 30
0.0
 11
50.20401956060907
 21
-6.075106589872378
 31
0.0
  0
LINE
  5
16E
  8
0
 10
50.20401956060907
 20
-6.075106589872378
 30
0.0
 11
50.13831099732619
 21
-6.179313667525168
 31
0.0
  0
LINE
  5
16F
  8
0
 10
50.13831099732619
 20
-6.179313667525168
 30
0.0
 11
50.06852896035936
 21
-6.283547557576731
 31
0.0
  0
LINE
  5
170
  8
0
 10
50.06852896035936
 20
-6.283547557576731
 30
0.0
 11
49.99484945573366
 21
-6.387616787401873
 31
0.0
  0
LINE
  5
171
  8
0
 10
49.99484945573366
 20
-6.387616787401873
 30
0.0
 11
49.91747347113131
 21
-6.491326361741978
 31
0.0
  0
LINE
  5
172
  8
0
 10
49.91747347113131
 20
-6.491326361741978
 30
0.0
 11
49.83662400417148
 21
-6.594478908259284
 31
0.0
  0
LINE
  5
173
  8
0
 10
49.83662400417148
 20
-6.594478908259284
 30
0.0
 11
49.75254310391337
 21
-6.696875821455061
 31
0.0
  0
LINE
  5
174
  8
0
 10
49.75254310391337
 20
-6.696875821455061
 30
0.0
 11
49.66548879320067
 21
-6.798318445787834
 31
0.0
  0
LINE
  5
175
  8
0
 10
49.66548879320067
 20
-6.798318445787834
 30
0.0
 11
49.57573168852588
 21
-6.898609358299494
 31
0.0
  0
LINE
  5
176
  8
0
 10
49.57573168852588
 20
-6.898609358299494
 30
0.0
 11
49.48355150073611
 21
-6.997553690441466
 31
0.0
  0
LINE
  5
177
  8
0
 10
49.48355150073611
 20
-6.997553690441466
 30
0.0
 11
49.38923353491432
 21
-7.094960451433487
 31
0.0
  0
LINE
  5
178
  8
0
 10
49.38923353491432
 20
-7.094960451433487
 30
0.0
 11
49.29306528798501
 21
-7.190643852269853
 31
0.0
  0
LINE
  5
179
  8
0
 10
49.29306528798501
 20
-7.190643852269853
 30
0.0
 11
49.19533329438951
 21
-7.284424631369269
 31
0.0
  0
LINE
  5
17A
  8
0
 10
49.19533329438951
 20
-7.284424631369269
 30
0.0
 11
49.09632006948581
 21
-7.376131380872177
 31
0.0
  0
LINE
  5
17B
  8
0
 10
49.09632006948581
 20
-7.376131380872177
 30
0.0
 11
48.89554150725215
 21
-7.552684448467264
 31
0.0
  0
LINE
  5
17C
  8
0
 10
48.89554150725215
 20
-7.552684448467264
 30
0.0
 11
48.6927913779665
 21
-7.719141072832089
 31
0.0
  0
LINE
  5
17D
  8
0
 10
48.6927913779665
 20
-7.719141072832089
 30
0.0
 11
48.48986486337209
 21
-7.874556581340016
 31
0.0
  0
LINE
  5
17E
  8
0
 10
48.48986486337209
 20
-7.874556581340016
 30
0.0
 11
48.3888039891341
 21
-7.947896442892148
 31
0.0
  0
LINE
  5
17F
  8
0
 10
48.3888039891341
 20
-7.947896442892148
 30
0.0
 11
48.2882187351845
 21
-8.018232678182173
 31
0.0
  0
LINE
  5
180
  8
0
 10
48.2882187351845
 20
-8.018232678182173
 30
0.0
 11
48.18824035052614
 21
-8.085512802360174
 31
0.0
  0
LINE
  5
181
  8
0
 10
48.18824035052614
 20
-8.085512802360174
 30
0.0
 11
48.08898233823301
 21
-8.14969579604435
 31
0.0
  0
LINE
  5
182
  8
0
 10
48.08898233823301
 20
-8.14969579604435
 30
0.0
 11
47.99054182469841
 21
-8.210750871082752
 31
0.0
  0
LINE
  5
183
  8
0
 10
47.99054182469841
 20
-8.210750871082752
 30
0.0
 11
47.89300091941978
 21
-8.268656262266614
 31
0.0
  0
LINE
  5
184
  8
0
 10
47.89300091941978
 20
-8.268656262266614
 30
0.0
 11
47.79642807332961
 21
-8.323398021541585
 31
0.0
  0
LINE
  5
185
  8
0
 10
47.79642807332961
 20
-8.323398021541585
 30
0.0
 11
47.70087940878976
 21
-8.374968851214607
 31
0.0
  0
LINE
  5
186
  8
0
 10
47.70087940878976
 20
-8.374968851214607
 30
0.0
 11
47.6063999776547
 21
-8.423367036149576
 31
0.0
  0
LINE
  5
187
  8
0
 10
47.6063999776547
 20
-8.423367036149576
 30
0.0
 11
47.51302499099798
 21
-8.468595414958626
 31
0.0
  0
LINE
  5
188
  8
0
 10
47.51302499099798
 20
-8.468595414958626
 30
0.0
 11
47.42078104714322
 21
-8.510660353753266
 31
0.0
  0
LINE
  5
189
  8
0
 10
47.42078104714322
 20
-8.510660353753266
 30
0.0
 11
47.3296873439441
 21
-8.54957074745657
 31
0.0
  0
LINE
  5
18A
  8
0
 10
47.3296873439441
 20
-8.54957074745657
 30
0.0
 11
47.23975685108135
 21
-8.585337091077967
 31
0.0
  0
LINE
  5
18B
  8
0
 10
47.23975685108135
 20
-8.585337091077967
 30
0.0
 11
47.15099746660886
 21
-8.61797057854909
 31
0.0
  0
LINE
  5
18C
  8
0
 10
47.15099746660886
 20
-8.61797057854909
 30
0.0
 11
47.0634131723514
 21
-8.647482203586417
 31
0.0
  0
LINE
  5
18D
  8
0
 10
47.0634131723514
 20
-8.647482203586417
 30
0.0
 11
46.97700517519765
 21
-8.673881885689998
 31
0.0
  0
LINE
  5
18E
  8
0
 10
46.97700517519765
 20
-8.673881885689998
 30
0.0
 11
46.89177301258814
 21
-8.697177659949089
 31
0.0
  0
LINE
  5
18F
  8
0
 10
46.89177301258814
 20
-8.697177659949089
 30
0.0
 11
46.8077156438985
 21
-8.71737489198388
 31
0.0
  0
LINE
  5
190
  8
0
 10
7.53281522553436
 20
11.06022288056538
 30
0.0
 11
4.446816354230965
 21
11.0602230179997
 31
0.0
  0
ARC
  5
191
  8
0
 10
6.455327157150637
 20
5.214694516334401
 30
0.0
 40
6.180964254000046
 50
108.9626091851646
 51
165.0163239218719
  0
LINE
  5
192
  8
0
 10
0.4845186161322061
 20
6.812744726974763
 30
0.0
 11
0.4845186161295594
 21
-4.57366011106758
 31
0.0
  0
LINE
  5
193
  8
0
 10
0.4845186161295594
 20
-4.57366011106758
 30
0.0
 11
0.4856405996368193
 21
-4.609427949904009
 31
0.0
  0
LINE
  5
194
  8
0
 10
0.4856405996368193
 20
-4.609427949904009
 30
0.0
 11
0.4874729078582162
 21
-4.645395021185722
 31
0.0
  0
LINE
  5
195
  8
0
 10
0.4874729078582162
 20
-4.645395021185722
 30
0.0
 11
0.4900158770265469
 21
-4.681561407162397
 31
0.0
  0
LINE
  5
196
  8
0
 10
0.4900158770265469
 20
-4.681561407162397
 30
0.0
 11
0.4932700399776793
 21
-4.717927224639539
 31
0.0
  0
LINE
  5
197
  8
0
 10
0.4932700399776793
 20
-4.717927224639539
 30
0.0
 11
0.4972361054910806
 21
-4.75449260988741
 31
0.0
  0
LINE
  5
198
  8
0
 10
0.4972361054910806
 20
-4.75449260988741
 30
0.0
 11
0.5019149376303469
 21
-4.791257703549944
 31
0.0
  0
LINE
  5
199
  8
0
 10
0.5019149376303469
 20
-4.791257703549944
 30
0.0
 11
0.5073075350837325
 21
-4.828222635553669
 31
0.0
  0
LINE
  5
19A
  8
0
 10
0.5073075350837325
 20
-4.828222635553669
 30
0.0
 11
0.5134150105046791
 21
-4.865387510016633
 31
0.0
  0
LINE
  5
19B
  8
0
 10
0.5134150105046791
 20
-4.865387510016633
 30
0.0
 11
0.5202385698023843
 21
-4.902752390132717
 31
0.0
  0
LINE
  5
19C
  8
0
 10
0.5202385698023843
 20
-4.902752390132717
 30
0.0
 11
0.5277794901334063
 21
-4.940317282416253
 31
0.0
  0
LINE
  5
19D
  8
0
 10
0.5277794901334063
 20
-4.940317282416253
 30
0.0
 11
0.5450187256248616
 21
-5.01604674123009
 31
0.0
  0
LINE
  5
19E
  8
0
 10
0.5450187256248616
 20
-5.01604674123009
 30
0.0
 11
0.5651433738783946
 21
-5.092574132908258
 31
0.0
  0
LINE
  5
19F
  8
0
 10
0.5651433738783946
 20
-5.092574132908258
 30
0.0
 11
0.5881635482329088
 21
-5.169895653263421
 31
0.0
  0
LINE
  5
1A0
  8
0
 10
0.5881635482329088
 20
-5.169895653263421
 30
0.0
 11
0.6140879657995753
 21
-5.248004870547385
 31
0.0
  0
LINE
  5
1A1
  8
0
 10
0.6140879657995753
 20
-5.248004870547385
 30
0.0
 11
0.6429231021499864
 21
-5.326892160752551
 31
0.0
  0
LINE
  5
1A2
  8
0
 10
0.6429231021499864
 20
-5.326892160752551
 30
0.0
 11
0.6746723646758155
 21
-5.406544173945745
 31
0.0
  0
LINE
  5
1A3
  8
0
 10
0.6746723646758155
 20
-5.406544173945745
 30
0.0
 11
0.7093352733039162
 21
-5.486943312826937
 31
0.0
  0
LINE
  5
1A4
  8
0
 10
0.7093352733039162
 20
-5.486943312826937
 30
0.0
 11
0.7469066372533937
 21
-5.568067209280242
 31
0.0
  0
LINE
  5
1A5
  8
0
 10
0.7469066372533937
 20
-5.568067209280242
 30
0.0
 11
0.787375621528478
 21
-5.649888136499722
 31
0.0
  0
LINE
  5
1A6
  8
0
 10
0.787375621528478
 20
-5.649888136499722
 30
0.0
 11
0.8307245335099736
 21
-5.732372257574283
 31
0.0
  0
LINE
  5
1A7
  8
0
 10
0.8307245335099736
 20
-5.732372257574283
 30
0.0
 11
0.8769274992825133
 21
-5.815478809647372
 31
0.0
  0
LINE
  5
1A8
  8
0
 10
0.8769274992825133
 20
-5.815478809647372
 30
0.0
 11
0.9259491442692045
 21
-5.899159291554005
 31
0.0
  0
LINE
  5
1A9
  8
0
 10
0.9259491442692045
 20
-5.899159291554005
 30
0.0
 11
0.9777434961227309
 21
-5.9833568062936
 31
0.0
  0
LINE
  5
1AA
  8
0
 10
0.9777434961227309
 20
-5.9833568062936
 30
0.0
 11
1.032253451805911
 21
-6.068005796547559
 31
0.0
  0
LINE
  5
1AB
  8
0
 10
1.032253451805911
 20
-6.068005796547559
 30
0.0
 11
1.089410466928716
 21
-6.153031935032672
 31
0.0
  0
LINE
  5
1AC
  8
0
 10
1.089410466928716
 20
-6.153031935032672
 30
0.0
 11
1.149134268891347
 21
-6.238352031233245
 31
0.0
  0
LINE
  5
1AD
  8
0
 10
1.149134268891347
 20
-6.238352031233245
 30
0.0
 11
1.21133296672868
 21
-6.323874209144578
 31
0.0
  0
LINE
  5
1AE
  8
0
 10
1.21133296672868
 20
-6.323874209144578
 30
0.0
 11
1.342736492174997
 21
-6.495119343819269
 31
0.0
  0
LINE
  5
1AF
  8
0
 10
1.342736492174997
 20
-6.495119343819269
 30
0.0
 11
1.482703067503946
 21
-6.665896372138669
 31
0.0
  0
LINE
  5
1B0
  8
0
 10
1.482703067503946
 20
-6.665896372138669
 30
0.0
 11
1.630215536066237
 21
-6.835261690409201
 31
0.0
  0
LINE
  5
1B1
  8
0
 10
1.630215536066237
 20
-6.835261690409201
 30
0.0
 11
1.784192245786552
 21
-7.002227782540482
 31
0.0
  0
LINE
  5
1B2
  8
0
 10
1.784192245786552
 20
-7.002227782540482
 30
0.0
 11
1.943518559045474
 21
-7.165790723083067
 31
0.0
  0
LINE
  5
1B3
  8
0
 10
1.943518559045474
 20
-7.165790723083067
 30
0.0
 11
2.107080240336878
 21
-7.324960183203909
 31
0.0
  0
LINE
  5
1B4
  8
0
 10
2.107080240336878
 20
-7.324960183203909
 30
0.0
 11
2.273796790793771
 21
-7.478790347394399
 31
0.0
  0
LINE
  5
1B5
  8
0
 10
2.273796790793771
 20
-7.478790347394399
 30
0.0
 11
2.442652638967789
 21
-7.626410635040879
 31
0.0
  0
LINE
  5
1B6
  8
0
 10
2.442652638967789
 20
-7.626410635040879
 30
0.0
 11
2.612728098627742
 21
-7.767057537787457
 31
0.0
  0
LINE
  5
1B7
  8
0
 10
2.612728098627742
 20
-7.767057537787457
 30
0.0
 11
2.783231466928466
 21
-7.900109030305992
 31
0.0
  0
LINE
  5
1B8
  8
0
 10
2.783231466928466
 20
-7.900109030305992
 30
0.0
 11
2.953520464678728
 21
-8.025106263051402
 31
0.0
  0
LINE
  5
1B9
  8
0
 10
2.953520464678728
 20
-8.025106263051402
 30
0.0
 11
3.123095040186969
 21
-8.141739921204115
 31
0.0
  0
LINE
  5
1BA
  8
0
 10
3.123095040186969
 20
-8.141739921204115
 30
0.0
 11
3.291578930202657
 21
-8.249823086244165
 31
0.0
  0
LINE
  5
1BB
  8
0
 10
3.291578930202657
 20
-8.249823086244165
 30
0.0
 11
3.458700924916072
 21
-8.349264731005398
 31
0.0
  0
LINE
  5
1BC
  8
0
 10
3.458700924916072
 20
-8.349264731005398
 30
0.0
 11
3.541690660445362
 21
-8.395736511465891
 31
0.0
  0
LINE
  5
1BD
  8
0
 10
3.541690660445362
 20
-8.395736511465891
 30
0.0
 11
3.624276581091981
 21
-8.440044550409063
 31
0.0
  0
LINE
  5
1BE
  8
0
 10
3.624276581091981
 20
-8.440044550409063
 30
0.0
 11
3.706446358295028
 21
-8.482193610300312
 31
0.0
  0
LINE
  5
1BF
  8
0
 10
3.706446358295028
 20
-8.482193610300312
 30
0.0
 11
3.7881909589993
 21
-8.522190086628685
 31
0.0
  0
LINE
  5
1C0
  8
0
 10
3.7881909589993
 20
-8.522190086628685
 30
0.0
 11
3.869504140230176
 21
-8.560041386022084
 31
0.0
  0
LINE
  5
1C1
  8
0
 10
3.869504140230176
 20
-8.560041386022084
 30
0.0
 11
3.950381949624508
 21
-8.595755322485271
 31
0.0
  0
LINE
  5
1C2
  8
0
 10
3.950381949624508
 20
-8.595755322485271
 30
0.0
 11
4.030822226415417
 21
-8.629339515005107
 31
0.0
  0
LINE
  5
1C3
  8
0
 10
4.030822226415417
 20
-8.629339515005107
 30
0.0
 11
4.110824108262941
 21
-8.660800802581411
 31
0.0
  0
LINE
  5
1C4
  8
0
 10
4.110824108262941
 20
-8.660800802581411
 30
0.0
 11
4.190387552924133
 21
-8.690144703492091
 31
0.0
  0
LINE
  5
1C5
  8
0
 10
4.190387552924133
 20
-8.690144703492091
 30
0.0
 11
4.269512865769002
 21
-8.717374891983878
 31
0.0
  0
LINE
  5
1C6
  8
0
 10
14.45405839010354
 20
16.07729640517555
 30
0.0
 11
14.45405839010354
 21
17.36599755202545
 31
0.0
  0
ARC
  5
1C7
  8
0
 10
16.3770868389709
 20
16.73212261763015
 30
0.0
 40
2.02480513818191
 50
107.7515576866081
 51
161.756577274726
  0
LINE
  5
1C8
  8
0
 10
15.75974361269835
 20
18.66052174348124
 30
0.0
 11
21.4531251645822
 21
18.66052174348124
 31
0.0
  0
LINE
  5
1C9
  8
0
 10
30.13537777822604
 20
18.66052174348124
 30
0.0
 11
35.14441355654919
 21
18.66052174348124
 31
0.0
  0
ARC
  5
1CA
  8
0
 10
35.08194042557692
 20
17.03575201770019
 30
0.0
 40
1.625970342259698
 50
11.71869176760026
 51
87.7980360858581
  0
LINE
  5
1CB
  8
0
 10
36.67402002188055
 20
17.36599755202545
 30
0.0
 11
36.67403322336121
 21
16.01748094370208
 31
0.0
  0
LINE
  5
1CC
  8
0
 10
16.11297536183465
 20
-0.7571629873183241
 30
0.0
 11
19.05902868504115
 21
-0.7571629907008699
 31
0.0
  0
LINE
  5
1CD
  8
0
 10
15.1726324459422
 20
-1.232350233565359
 30
0.0
 11
19.88576142411308
 21
-1.232353373558432
 31
0.0
  0
LINE
  5
1CE
  8
0
 10
14.64215590329869
 20
-1.62155338257832
 30
0.0
 11
20.34566369179901
 21
-1.62155342397001
 31
0.0
  0
LINE
  5
1CF
  8
0
 10
20.68432705317407
 20
-2.024232160533671
 30
0.0
 11
14.29862889513366
 21
-2.024232160523347
 31
0.0
  0
LINE
  5
1D0
  8
0
 10
30.64026463118324
 20
-1.976107104646211
 30
0.0000000000000004
 11
37.02596528627726
 21
-1.976103798183896
 31
-0.0000000000000004
  0
LINE
  5
1D1
  8
0
 10
36.68243886963077
 20
-1.573425541504598
 30
-0.0000000000000004
 11
30.97893047558996
 21
-1.573424944458168
 31
0.0000000000000003
  0
LINE
  5
1D2
  8
0
 10
36.15196887367055
 20
-1.184226157672047
 30
-0.0000000000000003
 11
31.43883723600785
 21
-1.184221689072604
 31
0.0000000000000003
  0
LINE
  5
1D3
  8
0
 10
35.21161870172704
 20
-0.709034520030503
 30
-0.0000000000000002
 11
32.26556550457418
 21
-0.7090345227839059
 31
0.0000000000000002
  0
LINE
  5
1D4
  8
0
 10
30.13220728025411
 20
-2.88214599772402
 30
0.0000000000000004
 11
31.18384769976462
 21
-2.882145997591923
 31
0.0000000000000003
  0
LINE
  5
1D5
  8
0
 10
36.15794634596458
 20
-2.88214601469965
 30
-0.0000000000000003
 11
37.45503411497671
 21
-2.882145999180167
 31
-0.0000000000000004
  0
LINE
  5
1D6
  8
0
 10
37.30607244326099
 20
-2.485545350229629
 30
-0.0000000000000004
 11
34.96643682400774
 21
-2.4855454194579
 31
-0.0000000000000001
  0
LINE
  5
1D7
  8
0
 10
32.21510017413858
 20
-2.485545344786047
 30
0.0000000000000002
 11
30.32203528857109
 21
-2.485545344723509
 31
0.0000000000000004
  0
LINE
  5
1D8
  8
0
 10
30.13220728025411
 20
-2.88214599772402
 30
0.0000000000000004
 11
30.11020045156524
 21
-2.938384465080241
 31
0.0000000000000005
  0
LINE
  5
1D9
  8
0
 10
30.11020045156524
 20
-2.938384465080241
 30
0.0000000000000005
 11
30.09062302721993
 21
-2.992522060906257
 31
0.0000000000000005
  0
LINE
  5
1DA
  8
0
 10
30.09062302721993
 20
-2.992522060906257
 30
0.0000000000000005
 11
30.07366961974625
 21
-3.044231847390622
 31
0.0000000000000005
  0
LINE
  5
1DB
  8
0
 10
30.07366961974625
 20
-3.044231847390622
 30
0.0000000000000005
 11
30.06623515599771
 21
-3.069077115103785
 31
0.0000000000000005
  0
LINE
  5
1DC
  8
0
 10
30.06623515599771
 20
-3.069077115103785
 30
0.0000000000000005
 11
30.0595250758045
 21
-3.093198195456002
 31
0.0000000000000005
  0
LINE
  5
1DD
  8
0
 10
30.0595250758045
 20
-3.093198195456002
 30
0.0000000000000005
 11
30.05317752402289
 21
-3.118138314969135
 31
0.0000000000000005
  0
LINE
  5
1DE
  8
0
 10
30.05317752402289
 20
-3.118138314969135
 30
0.0000000000000005
 11
30.04770605422303
 21
-3.142165304242722
 31
0.0000000000000005
  0
LINE
  5
1DF
  8
0
 10
30.04770605422303
 20
-3.142165304242722
 30
0.0000000000000005
 11
30.0431336030184
 21
-3.165237511474246
 31
0.0000000000000005
  0
LINE
  5
1E0
  8
0
 10
30.0431336030184
 20
-3.165237511474246
 30
0.0000000000000005
 11
30.03948145262171
 21
-3.187315390429582
 31
0.0000000000000005
  0
LINE
  5
1E1
  8
0
 10
30.03948145262171
 20
-3.187315390429582
 30
0.0000000000000005
 11
30.03800664733032
 21
-3.197969730921566
 31
0.0000000000000005
  0
LINE
  5
1E2
  8
0
 10
30.03800664733032
 20
-3.197969730921566
 30
0.0000000000000005
 11
30.03676906337909
 21
-3.208361730333816
 31
0.0000000000000005
  0
LINE
  5
1E3
  8
0
 10
30.03676906337909
 20
-3.208361730333816
 30
0.0000000000000005
 11
30.03577082116973
 21
-3.218487139951435
 31
0.0000000000000005
  0
LINE
  5
1E4
  8
0
 10
30.03577082116973
 20
-3.218487139951435
 30
0.0000000000000005
 11
30.03501390630412
 21
-3.228341885762082
 31
0.0000000000000005
  0
LINE
  5
1E5
  8
0
 10
30.03501390630412
 20
-3.228341885762082
 30
0.0000000000000005
 11
30.03450016435085
 21
-3.237922075640058
 31
0.0000000000000005
  0
LINE
  5
1E6
  8
0
 10
30.03450016435085
 20
-3.237922075640058
 30
0.0000000000000005
 11
30.03423129561207
 21
-3.247224006530396
 31
0.0000000000000005
  0
LINE
  5
1E7
  8
0
 10
30.03423129561207
 20
-3.247224006530396
 30
0.0000000000000005
 11
30.03420884989006
 21
-3.256244171632949
 31
0.0000000000000005
  0
LINE
  5
1E8
  8
0
 10
30.03420884989006
 20
-3.256244171632949
 30
0.0000000000000005
 11
30.03443422125399
 21
-3.26497926758648
 31
0.0000000000000005
  0
LINE
  5
1E9
  8
0
 10
30.03443422125399
 20
-3.26497926758648
 30
0.0000000000000005
 11
30.0349086428194
 21
-3.273426201636418
 31
0.0000000000000005
  0
LINE
  5
1EA
  8
0
 10
30.0349086428194
 20
-3.273426201636418
 30
0.0000000000000005
 11
30.03563318186042
 21
-3.281582098378037
 31
0.0000000000000005
  0
LINE
  5
1EB
  8
0
 10
30.03563318186042
 20
-3.281582098378037
 30
0.0000000000000005
 11
30.03608953260628
 21
-3.285550070031483
 31
0.0000000000000005
  0
LINE
  5
1EC
  8
0
 10
30.03608953260628
 20
-3.285550070031483
 30
0.0000000000000005
 11
30.03660873576673
 21
-3.289444305421848
 31
0.0000000000000005
  0
LINE
  5
1ED
  8
0
 10
30.03660873576673
 20
-3.289444305421848
 30
0.0000000000000005
 11
30.03719087636242
 21
-3.293264508706267
 31
0.0000000000000005
  0
LINE
  5
1EE
  8
0
 10
30.03719087636242
 20
-3.293264508706267
 30
0.0000000000000005
 11
30.03783602833324
 21
-3.297010398634414
 31
0.0000000000000005
  0
LINE
  5
1EF
  8
0
 10
30.03783602833324
 20
-3.297010398634414
 30
0.0000000000000005
 11
30.03854425442272
 21
-3.300681708711756
 31
0.0000000000000005
  0
LINE
  5
1F0
  8
0
 10
30.03854425442272
 20
-3.300681708711756
 30
0.0000000000000005
 11
30.03931560606257
 21
-3.304278187362828
 31
0.0000000000000005
  0
LINE
  5
1F1
  8
0
 10
30.03931560606257
 20
-3.304278187362828
 30
0.0000000000000005
 11
30.04015012325708
 21
-3.307799598094491
 31
0.0000000000000005
  0
LINE
  5
1F2
  8
0
 10
30.04015012325708
 20
-3.307799598094491
 30
0.0000000000000005
 11
30.04104783446758
 21
-3.3112457196592
 31
0.0000000000000005
  0
LINE
  5
1F3
  8
0
 10
30.04104783446758
 20
-3.3112457196592
 30
0.0000000000000005
 11
30.04200875649689
 21
-3.314616346218269
 31
0.0000000000000005
  0
LINE
  5
1F4
  8
0
 10
30.04200875649689
 20
-3.314616346218269
 30
0.0000000000000005
 11
30.04303289437379
 21
-3.317911287505137
 31
0.0000000000000005
  0
LINE
  5
1F5
  8
0
 10
30.04303289437379
 20
-3.317911287505137
 30
0.0000000000000005
 11
30.04412024123747
 21
-3.321130368988627
 31
0.0000000000000005
  0
LINE
  5
1F6
  8
0
 10
30.04412024123747
 20
-3.321130368988627
 30
0.0000000000000005
 11
30.04527077822194
 21
-3.324273432036223
 31
0.0000000000000005
  0
LINE
  5
1F7
  8
0
 10
30.04527077822194
 20
-3.324273432036223
 30
0.0000000000000005
 11
30.04648447434055
 21
-3.327340334077322
 31
0.0000000000000005
  0
LINE
  5
1F8
  8
0
 10
30.04648447434055
 20
-3.327340334077322
 30
0.0000000000000005
 11
30.04776128637041
 21
-3.330330948766508
 31
0.0000000000000005
  0
LINE
  5
1F9
  8
0
 10
30.04776128637041
 20
-3.330330948766508
 30
0.0000000000000005
 11
30.04910115873682
 21
-3.333245166146812
 31
0.0000000000000005
  0
LINE
  5
1FA
  8
0
 10
30.04910115873682
 20
-3.333245166146812
 30
0.0000000000000005
 11
30.05050402339777
 21
-3.336082892812981
 31
0.0000000000000005
  0
LINE
  5
1FB
  8
0
 10
30.05050402339777
 20
-3.336082892812981
 30
0.0000000000000005
 11
30.05196979972835
 21
-3.338844052074741
 31
0.0000000000000005
  0
LINE
  5
1FC
  8
0
 10
30.05196979972835
 20
-3.338844052074741
 30
0.0000000000000005
 11
30.05349839440525
 21
-3.341528584120062
 31
0.0000000000000005
  0
LINE
  5
1FD
  8
0
 10
30.05349839440525
 20
-3.341528584120062
 30
0.0000000000000005
 11
30.05508970129114
 21
-3.344136446178423
 31
0.0000000000000005
  0
LINE
  5
1FE
  8
0
 10
30.05508970129114
 20
-3.344136446178423
 30
0.0000000000000005
 11
30.0567436013192
 21
-3.346667612684077
 31
0.0000000000000005
  0
LINE
  5
1FF
  8
0
 10
30.0567436013192
 20
-3.346667612684077
 30
0.0000000000000005
 11
30.05845996237752
 21
-3.349122075439317
 31
0.0000000000000005
  0
LINE
  5
200
  8
0
 10
30.05845996237752
 20
-3.349122075439317
 30
0.0000000000000005
 11
30.0602386391936
 21
-3.351499843777742
 31
0.0000000000000005
  0
LINE
  5
201
  8
0
 10
30.0602386391936
 20
-3.351499843777742
 30
0.0000000000000005
 11
30.06207947321874
 21
-3.353800944727518
 31
0.0000000000000005
  0
LINE
  5
202
  8
0
 10
30.06207947321874
 20
-3.353800944727518
 30
0.0000000000000005
 11
30.06398229251256
 21
-3.356025423174648
 31
0.0000000000000005
  0
LINE
  5
203
  8
0
 10
30.06398229251256
 20
-3.356025423174648
 30
0.0000000000000005
 11
30.06594691162741
 21
-3.358173342026234
 31
0.0000000000000005
  0
LINE
  5
204
  8
0
 10
30.06594691162741
 20
-3.358173342026234
 30
0.0000000000000005
 11
30.06797313149281
 21
-3.360244782373742
 31
0.0000000000000005
  0
LINE
  5
205
  8
0
 10
30.06797313149281
 20
-3.360244782373742
 30
0.0000000000000005
 11
30.07006073929996
 21
-3.362239843656269
 31
0.0000000000000005
  0
LINE
  5
206
  8
0
 10
30.07006073929996
 20
-3.362239843656269
 30
0.0000000000000005
 11
30.07220950838615
 21
-3.364158643823806
 31
0.0000000000000005
  0
LINE
  5
207
  8
0
 10
30.07220950838615
 20
-3.364158643823806
 30
0.0000000000000005
 11
30.07441919812235
 21
-3.366001319496593
 31
0.0000000000000005
  0
LINE
  5
208
  8
0
 10
30.07441919812235
 20
-3.366001319496593
 30
0.0000000000000005
 11
30.07668955388302
 21
-3.367768026022709
 31
0.0000000000000005
  0
LINE
  5
209
  8
0
 10
30.07668955388302
 20
-3.367768026022709
 30
0.0000000000000005
 11
30.07902030722415
 21
-3.369458937277377
 31
0.0000000000000005
  0
LINE
  5
20A
  8
0
 10
30.07902030722415
 20
-3.369458937277377
 30
0.0000000000000005
 11
30.0814111761436
 21
-3.371074245360507
 31
0.0000000000000005
  0
LINE
  5
20B
  8
0
 10
30.0814111761436
 20
-3.371074245360507
 30
0.0000000000000005
 11
30.08386186534449
 21
-3.372614160290316
 31
0.0000000000000005
  0
LINE
  5
20C
  8
0
 10
30.08386186534449
 20
-3.372614160290316
 30
0.0000000000000005
 11
30.08637206649861
 21
-3.37407890969697
 31
0.0000000000000005
  0
LINE
  5
20D
  8
0
 10
30.08637206649861
 20
-3.37407890969697
 30
0.0000000000000005
 11
30.08894145850987
 21
-3.375468738516205
 31
0.0000000000000005
  0
LINE
  5
20E
  8
0
 10
30.08894145850987
 20
-3.375468738516205
 30
0.0000000000000005
 11
30.09156970777772
 21
-3.37678390868296
 31
0.0000000000000005
  0
LINE
  5
20F
  8
0
 10
30.09156970777772
 20
-3.37678390868296
 30
0.0000000000000005
 11
30.09425646846051
 21
-3.378024698825007
 31
0.0000000000000005
  0
LINE
  5
210
  8
0
 10
30.09425646846051
 20
-3.378024698825007
 30
0.0000000000000005
 11
30.09700138273901
 21
-3.379191403956577
 31
0.0000000000000005
  0
LINE
  5
211
  8
0
 10
30.09700138273901
 20
-3.379191403956577
 30
0.0000000000000005
 11
30.09980408107972
 21
-3.380284335171996
 31
0.0000000000000005
  0
LINE
  5
212
  8
0
 10
30.09980408107972
 20
-3.380284335171996
 30
0.0000000000000005
 11
30.1026641824984
 21
-3.381303819339305
 31
0.0000000000000005
  0
LINE
  5
213
  8
0
 10
30.1026641824984
 20
-3.381303819339305
 30
0.0000000000000005
 11
30.10558129482339
 21
-3.3822501987939
 31
0.0000000000000005
  0
LINE
  5
214
  8
0
 10
30.10558129482339
 20
-3.3822501987939
 30
0.0000000000000005
 11
30.10855501495911
 21
-3.383123831032155
 31
0.0000000000000005
  0
LINE
  5
215
  8
0
 10
30.10855501495911
 20
-3.383123831032155
 30
0.0000000000000005
 11
30.1115849291494
 21
-3.383925088405052
 31
0.0000000000000005
  0
LINE
  5
216
  8
0
 10
30.1115849291494
 20
-3.383925088405052
 30
0.0000000000000005
 11
30.11467061324104
 21
-3.384654357811813
 31
0.0000000000000005
  0
LINE
  5
217
  8
0
 10
30.11467061324104
 20
-3.384654357811813
 30
0.0000000000000005
 11
30.11781163294707
 21
-3.385312040393528
 31
0.0000000000000005
  0
LINE
  5
218
  8
0
 10
30.11781163294707
 20
-3.385312040393528
 30
0.0000000000000005
 11
30.12100754411028
 21
-3.385898551226785
 31
0.0000000000000004
  0
LINE
  5
219
  8
0
 10
30.12100754411028
 20
-3.385898551226785
 30
0.0000000000000004
 11
30.1242578929666
 21
-3.386414319017297
 31
0.0000000000000004
  0
LINE
  5
21A
  8
0
 10
30.1242578929666
 20
-3.386414319017297
 30
0.0000000000000004
 11
30.12756221640853
 21
-3.386859785793538
 31
0.0000000000000004
  0
LINE
  5
21B
  8
0
 10
30.12756221640853
 20
-3.386859785793538
 30
0.0000000000000004
 11
30.13092004224855
 21
-3.387235406600364
 31
0.0000000000000004
  0
LINE
  5
21C
  8
0
 10
30.13092004224855
 20
-3.387235406600364
 30
0.0000000000000004
 11
30.13433088948253
 21
-3.387541649192651
 31
0.0000000000000004
  0
LINE
  5
21D
  8
0
 10
30.13433088948253
 20
-3.387541649192651
 30
0.0000000000000004
 11
30.1377942685532
 21
-3.387778993728918
 31
0.0000000000000004
  0
LINE
  5
21E
  8
0
 10
30.1377942685532
 20
-3.387778993728918
 30
0.0000000000000004
 11
30.14130968161351
 21
-3.387947932464959
 31
0.0000000000000004
  0
LINE
  5
21F
  8
0
 10
30.14130968161351
 20
-3.387947932464959
 30
0.0000000000000004
 11
30.14487662279008
 21
-3.388048969447473
 31
0.0000000000000004
  0
LINE
  5
220
  8
0
 10
30.14487662279008
 20
-3.388048969447473
 30
0.0000000000000004
 11
30.14849457844661
 21
-3.388082620207695
 31
0.0000000000000004
  0
LINE
  5
221
  8
0
 10
30.14849457844661
 20
-3.388082620207695
 30
0.0000000000000004
 11
30.15216302744733
 21
-3.388049411455019
 31
0.0000000000000004
  0
LINE
  5
222
  8
0
 10
30.15216302744733
 20
-3.388049411455019
 30
0.0000000000000004
 11
30.15588144142037
 21
-3.387949880770637
 31
0.0000000000000004
  0
LINE
  5
223
  8
0
 10
30.15588144142037
 20
-3.387949880770637
 30
0.0000000000000004
 11
30.16346601619613
 21
-3.387554056452256
 31
0.0000000000000004
  0
LINE
  5
224
  8
0
 10
30.16346601619613
 20
-3.387554056452256
 30
0.0000000000000004
 11
30.17124394108749
 21
-3.386899653695855
 31
0.0000000000000004
  0
LINE
  5
225
  8
0
 10
30.17124394108749
 20
-3.386899653695855
 30
0.0000000000000004
 11
30.17921075547411
 21
-3.385991333304009
 31
0.0000000000000004
  0
LINE
  5
226
  8
0
 10
30.17921075547411
 20
-3.385991333304009
 30
0.0000000000000004
 11
30.18736190780938
 21
-3.38483390112842
 31
0.0000000000000004
  0
LINE
  5
227
  8
0
 10
30.18736190780938
 20
-3.38483390112842
 30
0.0000000000000004
 11
30.19569276259706
 21
-3.383432299966659
 31
0.0000000000000004
  0
LINE
  5
228
  8
0
 10
30.19569276259706
 20
-3.383432299966659
 30
0.0000000000000004
 11
30.20419860696171
 21
-3.381791601934325
 31
0.0000000000000004
  0
LINE
  5
229
  8
0
 10
30.20419860696171
 20
-3.381791601934325
 30
0.0000000000000004
 11
30.21287465720352
 21
-3.379917000855508
 31
0.0000000000000004
  0
LINE
  5
22A
  8
0
 10
30.21287465720352
 20
-3.379917000855508
 30
0.0000000000000004
 11
30.22171606535317
 21
-3.377813804653233
 31
0.0000000000000004
  0
LINE
  5
22B
  8
0
 10
30.22171606535317
 20
-3.377813804653233
 30
0.0000000000000004
 11
30.23071792572666
 21
-3.375487427739918
 31
0.0000000000000004
  0
LINE
  5
22C
  8
0
 10
30.23071792572666
 20
-3.375487427739918
 30
0.0000000000000004
 11
30.23987528148013
 21
-3.372943383407826
 31
0.0000000000000004
  0
LINE
  5
22D
  8
0
 10
30.23987528148013
 20
-3.372943383407826
 30
0.0000000000000004
 11
30.25863643528137
 21
-3.367224794398303
 31
0.0000000000000004
  0
LINE
  5
22E
  8
0
 10
30.25863643528137
 20
-3.367224794398303
 30
0.0000000000000004
 11
30.27795909789283
 21
-3.360703832396884
 31
0.0000000000000004
  0
LINE
  5
22F
  8
0
 10
30.27795909789283
 20
-3.360703832396884
 30
0.0000000000000004
 11
30.29780244140237
 21
-3.353427387242304
 31
0.0000000000000004
  0
LINE
  5
230
  8
0
 10
30.29780244140237
 20
-3.353427387242304
 30
0.0000000000000004
 11
30.3181254486045
 21
-3.345443200334314
 31
0.0000000000000004
  0
LINE
  5
231
  8
0
 10
30.3181254486045
 20
-3.345443200334314
 30
0.0000000000000004
 11
30.33888712337662
 21
-3.336799620446617
 31
0.0000000000000004
  0
LINE
  5
232
  8
0
 10
30.33888712337662
 20
-3.336799620446617
 30
0.0000000000000004
 11
30.36004671721539
 21
-3.327545341819212
 31
0.0000000000000004
  0
LINE
  5
233
  8
0
 10
30.36004671721539
 20
-3.327545341819212
 30
0.0000000000000004
 11
30.40339952768298
 21
-3.307399333571802
 31
0.0000000000000004
  0
LINE
  5
234
  8
0
 10
30.40339952768298
 20
-3.307399333571802
 30
0.0000000000000004
 11
30.44787330617406
 21
-3.285389653930411
 31
0.0000000000000004
  0
LINE
  5
235
  8
0
 10
30.44787330617406
 20
-3.285389653930411
 30
0.0000000000000004
 11
30.49317936003752
 21
-3.261885795289275
 31
0.0000000000000004
  0
LINE
  5
236
  8
0
 10
30.49317936003752
 20
-3.261885795289275
 30
0.0000000000000004
 11
31.04683399961718
 21
-2.952673402355222
 31
0.0000000000000003
  0
LINE
  5
237
  8
0
 10
31.04683399961718
 20
-2.952673402355222
 30
0.0000000000000003
 11
31.18384769976462
 21
-2.882145997591923
 31
0.0000000000000003
  0
ARC
  5
238
  8
0
 10
33.59076837129271
 20
-7.193705203579282
 30
0.0
 40
4.905021125807028
 50
73.7122633556054
 51
106.2877335343556
  0
LINE
  5
239
  8
0
 10
36.15794634596458
 20
-2.88214601469965
 30
-0.0000000000000003
 11
36.69247286521993
 21
-3.101308390547954
 31
-0.0000000000000004
  0
LINE
  5
23A
  8
0
 10
36.69247286521993
 20
-3.101308390547954
 30
-0.0000000000000004
 11
37.00484248856596
 21
-3.240208897718231
 31
-0.0000000000000004
  0
LINE
  5
23B
  8
0
 10
37.00484248856596
 20
-3.240208897718231
 30
-0.0000000000000004
 11
37.21603549037591
 21
-3.342113437820323
 31
-0.0000000000000004
  0
LINE
  5
23C
  8
0
 10
37.21603549037591
 20
-3.342113437820323
 30
-0.0000000000000004
 11
37.24164283527325
 21
-3.353729525759714
 31
-0.0000000000000004
  0
LINE
  5
23D
  8
0
 10
37.24164283527325
 20
-3.353729525759714
 30
-0.0000000000000004
 11
37.26742116199068
 21
-3.36473075618151
 31
-0.0000000000000004
  0
LINE
  5
23E
  8
0
 10
37.26742116199068
 20
-3.36473075618151
 30
-0.0000000000000004
 11
37.28034987296724
 21
-3.369911003172642
 31
-0.0000000000000004
  0
LINE
  5
23F
  8
0
 10
37.28034987296724
 20
-3.369911003172642
 30
-0.0000000000000004
 11
37.29328288339255
 21
-3.374821766677219
 31
-0.0000000000000004
  0
LINE
  5
240
  8
0
 10
37.29328288339255
 20
-3.374821766677219
 30
-0.0000000000000004
 11
37.30619842417062
 21
-3.379416662781893
 31
-0.0000000000000004
  0
LINE
  5
241
  8
0
 10
37.30619842417062
 20
-3.379416662781893
 30
-0.0000000000000004
 11
37.31907081153397
 21
-3.383646122306541
 31
-0.0000000000000004
  0
LINE
  5
242
  8
0
 10
37.31907081153397
 20
-3.383646122306541
 30
-0.0000000000000004
 11
37.33187066702362
 21
-3.387457709127569
 31
-0.0000000000000004
  0
LINE
  5
243
  8
0
 10
37.33187066702362
 20
-3.387457709127569
 30
-0.0000000000000004
 11
37.34456519702076
 21
-3.390796501942923
 31
-0.0000000000000004
  0
LINE
  5
244
  8
0
 10
37.34456519702076
 20
-3.390796501942923
 30
-0.0000000000000004
 11
37.35086188751234
 21
-3.392270890026452
 31
-0.0000000000000004
  0
LINE
  5
245
  8
0
 10
37.35086188751234
 20
-3.392270890026452
 30
-0.0000000000000004
 11
37.35711862344794
 21
-3.393605637081476
 31
-0.0000000000000004
  0
LINE
  5
246
  8
0
 10
37.35711862344794
 20
-3.393605637081476
 30
-0.0000000000000004
 11
37.36333054669623
 21
-3.394793431136068
 31
-0.0000000000000004
  0
LINE
  5
247
  8
0
 10
37.36333054669623
 20
-3.394793431136068
 30
-0.0000000000000004
 11
37.36949267402194
 21
-3.39582691475413
 31
-0.0000000000000004
  0
LINE
  5
248
  8
0
 10
37.36949267402194
 20
-3.39582691475413
 30
-0.0000000000000004
 11
37.37559991247793
 21
-3.396698704056984
 31
-0.0000000000000004
  0
LINE
  5
249
  8
0
 10
37.37559991247793
 20
-3.396698704056984
 30
-0.0000000000000004
 11
37.38164707479705
 21
-3.397401407744979
 31
-0.0000000000000004
  0
LINE
  5
24A
  8
0
 10
37.38164707479705
 20
-3.397401407744979
 30
-0.0000000000000004
 11
37.38762889478422
 21
-3.39792764611908
 31
-0.0000000000000004
  0
LINE
  5
24B
  8
0
 10
37.38762889478422
 20
-3.39792764611908
 30
-0.0000000000000004
 11
37.39354004270834
 21
-3.398270070102478
 31
-0.0000000000000004
  0
LINE
  5
24C
  8
0
 10
37.39354004270834
 20
-3.398270070102478
 30
-0.0000000000000004
 11
37.3993751406943
 21
-3.39842138026218
 31
-0.0000000000000004
  0
LINE
  5
24D
  8
0
 10
37.3993751406943
 20
-3.39842138026218
 30
-0.0000000000000004
 11
37.402262480998
 21
-3.398423104840913
 31
-0.0000000000000004
  0
LINE
  5
24E
  8
0
 10
37.402262480998
 20
-3.398423104840913
 30
-0.0000000000000004
 11
37.40512877811499
 21
-3.398374345830613
 31
-0.0000000000000004
  0
LINE
  5
24F
  8
0
 10
37.40512877811499
 20
-3.398374345830613
 30
-0.0000000000000004
 11
37.40797335312459
 21
-3.398274213235033
 31
-0.0000000000000004
  0
LINE
  5
250
  8
0
 10
37.40797335312459
 20
-3.398274213235033
 30
-0.0000000000000004
 11
37.41079552698315
 21
-3.39812182372722
 31
-0.0000000000000004
  0
LINE
  5
251
  8
0
 10
37.41079552698315
 20
-3.39812182372722
 30
-0.0000000000000004
 11
37.41359462100503
 21
-3.397916301243932
 31
-0.0000000000000004
  0
LINE
  5
252
  8
0
 10
37.41359462100503
 20
-3.397916301243932
 30
-0.0000000000000004
 11
37.41636995734355
 21
-3.397656777580063
 31
-0.0000000000000004
  0
LINE
  5
253
  8
0
 10
37.41636995734355
 20
-3.397656777580063
 30
-0.0000000000000004
 11
37.4191208594713
 21
-3.397342392982299
 31
-0.0000000000000004
  0
LINE
  5
254
  8
0
 10
37.4191208594713
 20
-3.397342392982299
 30
-0.0000000000000004
 11
37.42184665264147
 21
-3.396972296722522
 31
-0.0000000000000004
  0
LINE
  5
255
  8
0
 10
37.42184665264147
 20
-3.396972296722522
 30
-0.0000000000000004
 11
37.4245466643011
 21
-3.396545647619891
 31
-0.0000000000000004
  0
LINE
  5
256
  8
0
 10
37.4245466643011
 20
-3.396545647619891
 30
-0.0000000000000004
 11
37.42722022448541
 21
-3.396061614542673
 31
-0.0000000000000004
  0
LINE
  5
257
  8
0
 10
37.42722022448541
 20
-3.396061614542673
 30
-0.0000000000000004
 11
37.42986666621135
 21
-3.395519376909311
 31
-0.0000000000000004
  0
LINE
  5
258
  8
0
 10
37.42986666621135
 20
-3.395519376909311
 30
-0.0000000000000004
 11
37.43248532587124
 21
-3.39491812518948
 31
-0.0000000000000004
  0
LINE
  5
259
  8
0
 10
37.43248532587124
 20
-3.39491812518948
 30
-0.0000000000000004
 11
37.43507554362631
 21
-3.394257061405152
 31
-0.0000000000000004
  0
LINE
  5
25A
  8
0
 10
37.43507554362631
 20
-3.394257061405152
 30
-0.0000000000000004
 11
37.43763666380032
 21
-3.393535399631654
 31
-0.0000000000000004
  0
LINE
  5
25B
  8
0
 10
37.43763666380032
 20
-3.393535399631654
 30
-0.0000000000000004
 11
37.44016803527312
 21
-3.392752366498733
 31
-0.0000000000000004
  0
LINE
  5
25C
  8
0
 10
37.44016803527312
 20
-3.392752366498733
 30
-0.0000000000000004
 11
37.44266901187428
 21
-3.391907201691616
 31
-0.0000000000000004
  0
LINE
  5
25D
  8
0
 10
37.44266901187428
 20
-3.391907201691616
 30
-0.0000000000000004
 11
37.44513895277663
 21
-3.39099915845207
 31
-0.0000000000000004
  0
LINE
  5
25E
  8
0
 10
37.44513895277663
 20
-3.39099915845207
 30
-0.0000000000000004
 11
37.44757722288985
 21
-3.390027504079468
 31
-0.0000000000000004
  0
LINE
  5
25F
  8
0
 10
37.44757722288985
 20
-3.390027504079468
 30
-0.0000000000000004
 11
37.44998319325411
 21
-3.388991520431844
 31
-0.0000000000000004
  0
LINE
  5
260
  8
0
 10
37.44998319325411
 20
-3.388991520431844
 30
-0.0000000000000004
 11
37.45235624143361
 21
-3.387890504426958
 31
-0.0000000000000004
  0
LINE
  5
261
  8
0
 10
37.45235624143361
 20
-3.387890504426958
 30
-0.0000000000000004
 11
37.45469575191019
 21
-3.38672376854336
 31
-0.0000000000000004
  0
LINE
  5
262
  8
0
 10
37.45469575191019
 20
-3.38672376854336
 30
-0.0000000000000004
 11
37.45700111647692
 21
-3.385490641321444
 31
-0.0000000000000004
  0
LINE
  5
263
  8
0
 10
37.45700111647692
 20
-3.385490641321444
 30
-0.0000000000000004
 11
37.45927173463163
 21
-3.384190467864519
 31
-0.0000000000000004
  0
LINE
  5
264
  8
0
 10
37.45927173463163
 20
-3.384190467864519
 30
-0.0000000000000004
 11
37.46150701397056
 21
-3.382822610339863
 31
-0.0000000000000004
  0
LINE
  5
265
  8
0
 10
37.46150701397056
 20
-3.382822610339863
 30
-0.0000000000000004
 11
37.46370637058196
 21
-3.381386448479786
 31
-0.0000000000000004
  0
LINE
  5
266
  8
0
 10
37.46370637058196
 20
-3.381386448479786
 30
-0.0000000000000004
 11
37.46586922943963
 21
-3.379881380082695
 31
-0.0000000000000004
  0
LINE
  5
267
  8
0
 10
37.46586922943963
 20
-3.379881380082695
 30
-0.0000000000000004
 11
37.46799502479654
 21
-3.37830682151415
 31
-0.0000000000000004
  0
LINE
  5
268
  8
0
 10
37.46799502479654
 20
-3.37830682151415
 30
-0.0000000000000004
 11
37.47008320057836
 21
-3.376662208207931
 31
-0.0000000000000005
  0
LINE
  5
269
  8
0
 10
37.47008320057836
 20
-3.376662208207931
 30
-0.0000000000000005
 11
37.47213321077716
 21
-3.374946995167094
 31
-0.0000000000000005
  0
LINE
  5
26A
  8
0
 10
37.47213321077716
 20
-3.374946995167094
 30
-0.0000000000000005
 11
37.47414451984487
 21
-3.373160657465038
 31
-0.0000000000000005
  0
LINE
  5
26B
  8
0
 10
37.47414451984487
 20
-3.373160657465038
 30
-0.0000000000000005
 11
37.47611660308696
 21
-3.37130269074656
 31
-0.0000000000000005
  0
LINE
  5
26C
  8
0
 10
37.47611660308696
 20
-3.37130269074656
 30
-0.0000000000000005
 11
37.478048947056
 21
-3.369372611728925
 31
-0.0000000000000005
  0
LINE
  5
26D
  8
0
 10
37.478048947056
 20
-3.369372611728925
 30
-0.0000000000000005
 11
37.4799410499452
 21
-3.367369958702918
 31
-0.0000000000000005
  0
LINE
  5
26E
  8
0
 10
37.4799410499452
 20
-3.367369958702918
 30
-0.0000000000000005
 11
37.48179242198208
 21
-3.36529429203391
 31
-0.0000000000000005
  0
LINE
  5
26F
  8
0
 10
37.48179242198208
 20
-3.36529429203391
 30
-0.0000000000000005
 11
37.48360258582201
 21
-3.363145194662925
 31
-0.0000000000000005
  0
LINE
  5
270
  8
0
 10
37.48360258582201
 20
-3.363145194662925
 30
-0.0000000000000005
 11
37.48537107694179
 21
-3.360922272607688
 31
-0.0000000000000005
  0
LINE
  5
271
  8
0
 10
37.48537107694179
 20
-3.360922272607688
 30
-0.0000000000000005
 11
37.48709744403327
 21
-3.358625155463701
 31
-0.0000000000000005
  0
LINE
  5
272
  8
0
 10
37.48709744403327
 20
-3.358625155463701
 30
-0.0000000000000005
 11
37.48878124939692
 21
-3.356253496905293
 31
-0.0000000000000005
  0
LINE
  5
273
  8
0
 10
37.48878124939692
 20
-3.356253496905293
 30
-0.0000000000000005
 11
37.49042206933106
 21
-3.353806975180454
 31
-0.0000000000000005
  0
LINE
  5
274
  8
0
 10
37.49042206933106
 20
-3.353806975180454
 30
-0.0000000000000005
 11
37.49201949440864
 21
-3.351285293443508
 31
-0.0000000000000005
  0
LINE
  5
275
  8
0
 10
37.49201949440864
 20
-3.351285293443508
 30
-0.0000000000000005
 11
37.4935731294682
 21
-3.348688179676161
 31
-0.0000000000000005
  0
LINE
  5
276
  8
0
 10
37.4935731294682
 20
-3.348688179676161
 30
-0.0000000000000005
 11
37.49508259349231
 21
-3.3460153864464
 31
-0.0000000000000005
  0
LINE
  5
277
  8
0
 10
37.49508259349231
 20
-3.3460153864464
 30
-0.0000000000000005
 11
37.49654751948178
 21
-3.343266690661157
 31
-0.0000000000000005
  0
LINE
  5
278
  8
0
 10
37.49654751948178
 20
-3.343266690661157
 30
-0.0000000000000005
 11
37.49796755432973
 21
-3.340441893318968
 31
-0.0000000000000005
  0
LINE
  5
279
  8
0
 10
37.49796755432973
 20
-3.340441893318968
 30
-0.0000000000000005
 11
37.49934235869576
 21
-3.337540819262643
 31
-0.0000000000000005
  0
LINE
  5
27A
  8
0
 10
37.49934235869576
 20
-3.337540819262643
 30
-0.0000000000000005
 11
37.50067160688008
 21
-3.33456331693192
 31
-0.0000000000000005
  0
LINE
  5
27B
  8
0
 10
37.50067160688008
 20
-3.33456331693192
 30
-0.0000000000000005
 11
37.50195498669763
 21
-3.331509258116135
 31
-0.0000000000000005
  0
LINE
  5
27C
  8
0
 10
37.50195498669763
 20
-3.331509258116135
 30
-0.0000000000000005
 11
37.50319219935223
 21
-3.328378537706882
 31
-0.0000000000000005
  0
LINE
  5
27D
  8
0
 10
37.50319219935223
 20
-3.328378537706882
 30
-0.0000000000000005
 11
37.50438295931069
 21
-3.325171073450679
 31
-0.0000000000000005
  0
LINE
  5
27E
  8
0
 10
37.50438295931069
 20
-3.325171073450679
 30
-0.0000000000000005
 11
37.505526994177
 21
-3.321886805701624
 31
-0.0000000000000005
  0
LINE
  5
27F
  8
0
 10
37.505526994177
 20
-3.321886805701624
 30
-0.0000000000000005
 11
37.50662404456638
 21
-3.318525697174067
 31
-0.0000000000000005
  0
LINE
  5
280
  8
0
 10
37.50662404456638
 20
-3.318525697174067
 30
-0.0000000000000005
 11
37.50767386397952
 21
-3.315087732695268
 31
-0.0000000000000005
  0
LINE
  5
281
  8
0
 10
37.50767386397952
 20
-3.315087732695268
 30
-0.0000000000000005
 11
37.5086762186766
 21
-3.311572918958059
 31
-0.0000000000000005
  0
LINE
  5
282
  8
0
 10
37.5086762186766
 20
-3.311572918958059
 30
-0.0000000000000005
 11
37.50963088755151
 21
-3.30798128427351
 31
-0.0000000000000005
  0
LINE
  5
283
  8
0
 10
37.50963088755151
 20
-3.30798128427351
 30
-0.0000000000000005
 11
37.51139634582361
 21
-3.300567771913836
 31
-0.0000000000000005
  0
LINE
  5
284
  8
0
 10
37.51139634582361
 20
-3.300567771913836
 30
-0.0000000000000005
 11
37.51296871783771
 21
-3.292847845070733
 31
-0.0000000000000005
  0
LINE
  5
285
  8
0
 10
37.51296871783771
 20
-3.292847845070733
 30
-0.0000000000000005
 11
37.51434667671919
 21
-3.284822483260914
 31
-0.0000000000000005
  0
LINE
  5
286
  8
0
 10
37.51434667671919
 20
-3.284822483260914
 30
-0.0000000000000005
 11
37.51552908564934
 21
-3.276492988148527
 31
-0.0000000000000005
  0
LINE
  5
287
  8
0
 10
37.51552908564934
 20
-3.276492988148527
 30
-0.0000000000000005
 11
37.51651499383759
 21
-3.267860975630376
 31
-0.0000000000000005
  0
LINE
  5
288
  8
0
 10
37.51651499383759
 20
-3.267860975630376
 30
-0.0000000000000005
 11
37.51730363249384
 21
-3.258928367921134
 31
-0.0000000000000005
  0
LINE
  5
289
  8
0
 10
37.51730363249384
 20
-3.258928367921134
 30
-0.0000000000000005
 11
37.51789441080081
 21
-3.249697385638563
 31
-0.0000000000000005
  0
LINE
  5
28A
  8
0
 10
37.51789441080081
 20
-3.249697385638563
 30
-0.0000000000000005
 11
37.51828691188629
 21
-3.240170539888729
 31
-0.0000000000000005
  0
LINE
  5
28B
  8
0
 10
37.51828691188629
 20
-3.240170539888729
 30
-0.0000000000000005
 11
37.51848088879028
 21
-3.23035062434466
 31
-0.0000000000000005
  0
LINE
  5
28C
  8
0
 10
37.51848088879028
 20
-3.23035062434466
 30
-0.0000000000000005
 11
37.5184762602961
 21
-3.220240707154536
 31
-0.0000000000000005
  0
LINE
  5
28D
  8
0
 10
37.5184762602961
 20
-3.220240707154536
 30
-0.0000000000000005
 11
37.51827310641654
 21
-3.209844122417133
 31
-0.0000000000000005
  0
LINE
  5
28E
  8
0
 10
37.51827310641654
 20
-3.209844122417133
 30
-0.0000000000000005
 11
37.51787166374399
 21
-3.1991644614868
 31
-0.0000000000000005
  0
LINE
  5
28F
  8
0
 10
37.51787166374399
 20
-3.1991644614868
 30
-0.0000000000000005
 11
37.51647561335704
 21
-3.176971510533101
 31
-0.0000000000000005
  0
LINE
  5
290
  8
0
 10
37.51647561335704
 20
-3.176971510533101
 30
-0.0000000000000005
 11
37.51429295657404
 21
-3.153695399579536
 31
-0.0000000000000005
  0
LINE
  5
291
  8
0
 10
37.51429295657404
 20
-3.153695399579536
 30
-0.0000000000000005
 11
37.51133074818352
 21
-3.129373233100078
 31
-0.0000000000000005
  0
LINE
  5
292
  8
0
 10
37.51133074818352
 20
-3.129373233100078
 30
-0.0000000000000005
 11
37.50759810136182
 21
-3.104045396305939
 31
-0.0000000000000005
  0
LINE
  5
293
  8
0
 10
37.50759810136182
 20
-3.104045396305939
 30
-0.0000000000000005
 11
37.50310603871101
 21
-3.077755276694941
 31
-0.0000000000000005
  0
LINE
  5
294
  8
0
 10
37.50310603871101
 20
-3.077755276694941
 30
-0.0000000000000005
 11
37.49786734329703
 21
-3.050548985600869
 31
-0.0000000000000005
  0
LINE
  5
295
  8
0
 10
37.49786734329703
 20
-3.050548985600869
 30
-0.0000000000000005
 11
37.48922830129685
 21
-3.010673461952423
 31
-0.0000000000000005
  0
LINE
  5
296
  8
0
 10
37.48922830129685
 20
-3.010673461952423
 30
-0.0000000000000005
 11
37.47917538322027
 21
-2.969212792480142
 31
-0.0000000000000005
  0
LINE
  5
297
  8
0
 10
37.47917538322027
 20
-2.969212792480142
 30
-0.0000000000000005
 11
37.46775905375362
 21
-2.926318022328593
 31
-0.0000000000000004
  0
LINE
  5
298
  8
0
 10
37.46775905375362
 20
-2.926318022328593
 30
-0.0000000000000004
 11
37.45503411497671
 21
-2.882145999180167
 31
-0.0000000000000004
  0
LINE
  5
299
  8
0
 10
37.30607244326099
 20
-2.485545350229629
 30
-0.0000000000000004
 11
37.02596528627726
 21
-1.976103798183896
 31
-0.0000000000000004
  0
LINE
  5
29A
  8
0
 10
30.64026463118324
 20
-1.976107104646211
 30
0.0000000000000004
 11
30.32203528857109
 21
-2.485545344723509
 31
0.0000000000000004
  0
LINE
  5
29B
  8
0
 10
31.43883723600785
 20
-1.184221689072604
 30
0.0000000000000003
 11
30.97893047558996
 21
-1.573424944458168
 31
0.0000000000000003
  0
LINE
  5
29C
  8
0
 10
36.68243886963077
 20
-1.573425541504598
 30
-0.0000000000000004
 11
36.15196887367055
 21
-1.184226157672047
 31
-0.0000000000000003
  0
ARC
  5
29D
  8
0
 10
33.73859210594127
 20
-3.694945522217499
 30
0.0
 40
3.329485225207281
 50
63.7416928056631
 51
116.258307301435
  0
LINE
  5
29E
  8
0
 10
21.19238684829462
 20
-2.930274437889501
 30
0.0
 11
20.14074642878415
 21
-2.930274437757404
 31
0.0
  0
LINE
  5
29F
  8
0
 10
15.16664782961735
 20
-2.930274436501975
 30
0.0
 11
13.86956001408477
 21
-2.930274437627954
 31
0.0
  0
LINE
  5
2A0
  8
0
 10
14.01852167996846
 20
-2.53367380232158
 30
0.0
 11
16.35815749052457
 21
-2.533673810900321
 31
0.0
  0
LINE
  5
2A1
  8
0
 10
19.10949395440961
 20
-2.533673784951528
 30
0.0
 11
21.00255883997758
 21
-2.533673784888983
 31
0.0
  0
LINE
  5
2A2
  8
0
 10
21.19238684829462
 20
-2.930274437889501
 30
0.0
 11
21.21439367698346
 21
-2.98651290524565
 31
0.0
  0
LINE
  5
2A3
  8
0
 10
21.21439367698346
 20
-2.98651290524565
 30
0.0
 11
21.23397110132876
 21
-3.040650501071605
 31
0.0
  0
LINE
  5
2A4
  8
0
 10
21.23397110132876
 20
-3.040650501071605
 30
0.0
 11
21.25092450880241
 21
-3.092360287555919
 31
0.0
  0
LINE
  5
2A5
  8
0
 10
21.25092450880241
 20
-3.092360287555919
 30
0.0
 11
21.25835897255096
 21
-3.117205555269063
 31
0.0
  0
LINE
  5
2A6
  8
0
 10
21.25835897255096
 20
-3.117205555269063
 30
0.0
 11
21.26506905274417
 21
-3.141326635621263
 31
0.0
  0
LINE
  5
2A7
  8
0
 10
21.26506905274417
 20
-3.141326635621263
 30
0.0
 11
21.27141660452578
 21
-3.166266755134406
 31
0.0
  0
LINE
  5
2A8
  8
0
 10
21.27141660452578
 20
-3.166266755134406
 30
0.0
 11
21.27688807432565
 21
-3.190293744408004
 31
0.0
  0
LINE
  5
2A9
  8
0
 10
21.27688807432565
 20
-3.190293744408004
 30
0.0
 11
21.28146052553028
 21
-3.213365951639543
 31
0.0
  0
LINE
  5
2AA
  8
0
 10
21.28146052553028
 20
-3.213365951639543
 30
0.0
 11
21.28511267592696
 21
-3.235443830594892
 31
0.0
  0
LINE
  5
2AB
  8
0
 10
21.28511267592696
 20
-3.235443830594892
 30
0.0
 11
21.28658748121835
 21
-3.246098171086884
 31
0.0
  0
LINE
  5
2AC
  8
0
 10
21.28658748121835
 20
-3.246098171086884
 30
0.0
 11
21.2878250651696
 21
-3.256490170499141
 31
0.0
  0
LINE
  5
2AD
  8
0
 10
21.2878250651696
 20
-3.256490170499141
 30
0.0
 11
21.28882330737894
 21
-3.266615580116769
 31
0.0
  0
LINE
  5
2AE
  8
0
 10
21.28882330737894
 20
-3.266615580116769
 30
0.0
 11
21.28958022224457
 21
-3.276470325927424
 31
0.0
  0
LINE
  5
2AF
  8
0
 10
21.28958022224457
 20
-3.276470325927424
 30
0.0
 11
21.29009396419783
 21
-3.286050515805408
 31
0.0
  0
LINE
  5
2B0
  8
0
 10
21.29009396419783
 20
-3.286050515805408
 30
0.0
 11
21.29036283293662
 21
-3.295352446695754
 31
0.0
  0
LINE
  5
2B1
  8
0
 10
21.29036283293662
 20
-3.295352446695754
 30
0.0
 11
21.29038527865863
 21
-3.304372611798316
 31
0.0
  0
LINE
  5
2B2
  8
0
 10
21.29038527865863
 20
-3.304372611798316
 30
0.0
 11
21.2901599072947
 21
-3.313107707751855
 31
0.0
  0
LINE
  5
2B3
  8
0
 10
21.2901599072947
 20
-3.313107707751855
 30
0.0
 11
21.28968548572929
 21
-3.321554641801801
 31
0.0
  0
LINE
  5
2B4
  8
0
 10
21.28968548572929
 20
-3.321554641801801
 30
0.0
 11
21.28896094668826
 21
-3.329710538543428
 31
0.0
  0
LINE
  5
2B5
  8
0
 10
21.28896094668826
 20
-3.329710538543428
 30
0.0
 11
21.28850459594241
 21
-3.333678510196879
 31
0.0
  0
LINE
  5
2B6
  8
0
 10
21.28850459594241
 20
-3.333678510196879
 30
0.0
 11
21.28798539278196
 21
-3.337572745587248
 31
0.0
  0
LINE
  5
2B7
  8
0
 10
21.28798539278196
 20
-3.337572745587248
 30
0.0
 11
21.28740325218626
 21
-3.341392948871671
 31
0.0
  0
LINE
  5
2B8
  8
0
 10
21.28740325218626
 20
-3.341392948871671
 30
0.0
 11
21.28675810021544
 21
-3.345138838799822
 31
0.0
  0
LINE
  5
2B9
  8
0
 10
21.28675810021544
 20
-3.345138838799822
 30
0.0
 11
21.28604987412596
 21
-3.348810148877168
 31
0.0
  0
LINE
  5
2BA
  8
0
 10
21.28604987412596
 20
-3.348810148877168
 30
0.0
 11
21.28527852248611
 21
-3.352406627528243
 31
0.0
  0
LINE
  5
2BB
  8
0
 10
21.28527852248611
 20
-3.352406627528243
 30
0.0
 11
21.2844440052916
 21
-3.35592803825991
 31
0.0
  0
LINE
  5
2BC
  8
0
 10
21.2844440052916
 20
-3.35592803825991
 30
0.0
 11
21.2835462940811
 21
-3.359374159824624
 31
0.0
  0
LINE
  5
2BD
  8
0
 10
21.2835462940811
 20
-3.359374159824624
 30
0.0
 11
21.28258537205179
 21
-3.362744786383697
 31
0.0
  0
LINE
  5
2BE
  8
0
 10
21.28258537205179
 20
-3.362744786383697
 30
0.0
 11
21.28156123417489
 21
-3.366039727670568
 31
0.0
  0
LINE
  5
2BF
  8
0
 10
21.28156123417489
 20
-3.366039727670568
 30
0.0
 11
21.28047388731122
 21
-3.369258809154063
 31
0.0
  0
LINE
  5
2C0
  8
0
 10
21.28047388731122
 20
-3.369258809154063
 30
0.0
 11
21.27932335032674
 21
-3.372401872201662
 31
0.0
  0
LINE
  5
2C1
  8
0
 10
21.27932335032674
 20
-3.372401872201662
 30
0.0
 11
21.27810965420812
 21
-3.375468774242764
 31
0.0
  0
LINE
  5
2C2
  8
0
 10
21.27810965420812
 20
-3.375468774242764
 30
0.0
 11
21.27683284217827
 21
-3.378459388931954
 31
0.0
  0
LINE
  5
2C3
  8
0
 10
21.27683284217827
 20
-3.378459388931954
 30
0.0
 11
21.27549296981185
 21
-3.381373606312261
 31
0.0
  0
LINE
  5
2C4
  8
0
 10
21.27549296981185
 20
-3.381373606312261
 30
0.0
 11
21.2740901051509
 21
-3.384211332978434
 31
0.0
  0
LINE
  5
2C5
  8
0
 10
21.2740901051509
 20
-3.384211332978434
 30
0.0
 11
21.27262432882032
 21
-3.386972492240197
 31
0.0
  0
LINE
  5
2C6
  8
0
 10
21.27262432882032
 20
-3.386972492240197
 30
0.0
 11
21.27109573414343
 21
-3.389657024285521
 31
0.0
  0
LINE
  5
2C7
  8
0
 10
21.27109573414343
 20
-3.389657024285521
 30
0.0
 11
21.26950442725753
 21
-3.392264886343884
 31
0.0
  0
LINE
  5
2C8
  8
0
 10
21.26950442725753
 20
-3.392264886343884
 30
0.0
 11
21.26785052722948
 21
-3.394796052849542
 31
0.0
  0
LINE
  5
2C9
  8
0
 10
21.26785052722948
 20
-3.394796052849542
 30
0.0
 11
21.26613416617116
 21
-3.397250515604786
 31
0.0
  0
LINE
  5
2CA
  8
0
 10
21.26613416617116
 20
-3.397250515604786
 30
0.0
 11
21.26435548935508
 21
-3.399628283943214
 31
0.0
  0
LINE
  5
2CB
  8
0
 10
21.26435548935508
 20
-3.399628283943214
 30
0.0
 11
21.26251465532994
 21
-3.401929384892993
 31
0.0
  0
LINE
  5
2CC
  8
0
 10
21.26251465532994
 20
-3.401929384892993
 30
0.0
 11
21.26061183603611
 21
-3.404153863340126
 31
0.0
  0
LINE
  5
2CD
  8
0
 10
21.26061183603611
 20
-3.404153863340126
 30
0.0
 11
21.25864721692127
 21
-3.406301782191715
 31
0.0
  0
LINE
  5
2CE
  8
0
 10
21.25864721692127
 20
-3.406301782191715
 30
0.0
 11
21.25662099705587
 21
-3.408373222539225
 31
0.0
  0
LINE
  5
2CF
  8
0
 10
21.25662099705587
 20
-3.408373222539225
 30
0.0
 11
21.25453338924872
 21
-3.410368283821755
 31
0.0
  0
LINE
  5
2D0
  8
0
 10
21.25453338924872
 20
-3.410368283821755
 30
0.0
 11
21.25238462016253
 21
-3.412287083989295
 31
0.0
  0
LINE
  5
2D1
  8
0
 10
21.25238462016253
 20
-3.412287083989295
 30
0.0
 11
21.25017493042632
 21
-3.414129759662083
 31
0.0
  0
LINE
  5
2D2
  8
0
 10
21.25017493042632
 20
-3.414129759662083
 30
0.0
 11
21.24790457466565
 21
-3.415896466188202
 31
0.0
  0
LINE
  5
2D3
  8
0
 10
21.24790457466565
 20
-3.415896466188202
 30
0.0
 11
21.24557382132451
 21
-3.417587377442873
 31
0.0
  0
LINE
  5
2D4
  8
0
 10
21.24557382132451
 20
-3.417587377442873
 30
0.0
 11
21.24318295240506
 21
-3.419202685526004
 31
0.0
  0
LINE
  5
2D5
  8
0
 10
21.24318295240506
 20
-3.419202685526004
 30
0.0
 11
21.24073226320417
 21
-3.420742600455815
 31
0.0
  0
LINE
  5
2D6
  8
0
 10
21.24073226320417
 20
-3.420742600455815
 30
0.0
 11
21.23822206205005
 21
-3.422207349862471
 31
0.0
  0
LINE
  5
2D7
  8
0
 10
21.23822206205005
 20
-3.422207349862471
 30
0.0
 11
21.23565267003879
 21
-3.423597178681709
 31
0.0
  0
LINE
  5
2D8
  8
0
 10
21.23565267003879
 20
-3.423597178681709
 30
0.0
 11
21.23302442077095
 21
-3.424912348848466
 31
0.0
  0
LINE
  5
2D9
  8
0
 10
21.23302442077095
 20
-3.424912348848466
 30
0.0
 11
21.23033766008815
 21
-3.426153138990514
 31
0.0
  0
LINE
  5
2DA
  8
0
 10
21.23033766008815
 20
-3.426153138990514
 30
0.0
 11
21.22759274580966
 21
-3.427319844122087
 31
0.0
  0
LINE
  5
2DB
  8
0
 10
21.22759274580966
 20
-3.427319844122087
 30
0.0
 11
21.22479004746894
 21
-3.428412775337507
 31
0.0
  0
LINE
  5
2DC
  8
0
 10
21.22479004746894
 20
-3.428412775337507
 30
0.0
 11
21.22192994605025
 21
-3.429432259504818
 31
0.0
  0
LINE
  5
2DD
  8
0
 10
21.22192994605025
 20
-3.429432259504818
 30
0.0
 11
21.21901283372526
 21
-3.430378638959415
 31
0.0
  0
LINE
  5
2DE
  8
0
 10
21.21901283372526
 20
-3.430378638959415
 30
0.0
 11
21.21603911358955
 21
-3.431252271197671
 31
0.0
  0
LINE
  5
2DF
  8
0
 10
21.21603911358955
 20
-3.431252271197671
 30
0.0
 11
21.21300919939925
 21
-3.432053528570569
 31
0.0
  0
LINE
  5
2E0
  8
0
 10
21.21300919939925
 20
-3.432053528570569
 30
0.0
 11
21.20992351530762
 21
-3.432782797977332
 31
0.0
  0
LINE
  5
2E1
  8
0
 10
21.20992351530762
 20
-3.432782797977332
 30
0.0
 11
21.20678249560159
 21
-3.433440480559048
 31
0.0
  0
LINE
  5
2E2
  8
0
 10
21.20678249560159
 20
-3.433440480559048
 30
0.0
 11
21.20358658443838
 21
-3.434026991392305
 31
0.0
  0
LINE
  5
2E3
  8
0
 10
21.20358658443838
 20
-3.434026991392305
 30
0.0
 11
21.20033623558205
 21
-3.434542759182818
 31
0.0
  0
LINE
  5
2E4
  8
0
 10
21.20033623558205
 20
-3.434542759182818
 30
0.0
 11
21.19703191214012
 21
-3.43498822595906
 31
0.0
  0
LINE
  5
2E5
  8
0
 10
21.19703191214012
 20
-3.43498822595906
 30
0.0
 11
21.1936740863001
 21
-3.435363846765888
 31
0.0
  0
LINE
  5
2E6
  8
0
 10
21.1936740863001
 20
-3.435363846765888
 30
0.0
 11
21.19026323906612
 21
-3.435670089358176
 31
0.0
  0
LINE
  5
2E7
  8
0
 10
21.19026323906612
 20
-3.435670089358176
 30
0.0
 11
21.18679985999545
 21
-3.435907433894442
 31
0.0
  0
LINE
  5
2E8
  8
0
 10
21.18679985999545
 20
-3.435907433894442
 30
0.0
 11
21.18328444693515
 21
-3.436076372630485
 31
0.0
  0
LINE
  5
2E9
  8
0
 10
21.18328444693515
 20
-3.436076372630485
 30
0.0
 11
21.17971750575858
 21
-3.436177409612999
 31
0.0
  0
LINE
  5
2EA
  8
0
 10
21.17971750575858
 20
-3.436177409612999
 30
0.0
 11
21.17609955010204
 21
-3.436211060373221
 31
0.0
  0
LINE
  5
2EB
  8
0
 10
21.17609955010204
 20
-3.436211060373221
 30
0.0
 11
21.17243110110132
 21
-3.436177851620546
 31
0.0
  0
LINE
  5
2EC
  8
0
 10
21.17243110110132
 20
-3.436177851620546
 30
0.0
 11
21.16871268712828
 21
-3.436078320936164
 31
0.0
  0
LINE
  5
2ED
  8
0
 10
21.16871268712828
 20
-3.436078320936164
 30
0.0
 11
21.16112811235252
 21
-3.435682496617783
 31
0.0
  0
LINE
  5
2EE
  8
0
 10
21.16112811235252
 20
-3.435682496617783
 30
0.0
 11
21.15335018746116
 21
-3.435028093861384
 31
0.0
  0
LINE
  5
2EF
  8
0
 10
21.15335018746116
 20
-3.435028093861384
 30
0.0
 11
21.14538337307454
 21
-3.434119773469537
 31
0.0
  0
LINE
  5
2F0
  8
0
 10
21.14538337307454
 20
-3.434119773469537
 30
0.0
 11
21.13723222073927
 21
-3.432962341293949
 31
0.0
  0
LINE
  5
2F1
  8
0
 10
21.13723222073927
 20
-3.432962341293949
 30
0.0
 11
21.12890136595158
 21
-3.431560740132186
 31
0.0
  0
LINE
  5
2F2
  8
0
 10
21.12890136595158
 20
-3.431560740132186
 30
0.0
 11
21.12039552158694
 21
-3.429920042099853
 31
0.0
  0
LINE
  5
2F3
  8
0
 10
21.12039552158694
 20
-3.429920042099853
 30
0.0
 11
21.11171947134513
 21
-3.428045441021035
 31
0.0
  0
LINE
  5
2F4
  8
0
 10
21.11171947134513
 20
-3.428045441021035
 30
0.0
 11
21.10287806319548
 21
-3.425942244818759
 31
0.0
  0
LINE
  5
2F5
  8
0
 10
21.10287806319548
 20
-3.425942244818759
 30
0.0
 11
21.09387620282199
 21
-3.423615867905443
 31
0.0
  0
LINE
  5
2F6
  8
0
 10
21.09387620282199
 20
-3.423615867905443
 30
0.0
 11
21.08471884706852
 21
-3.421071823573349
 31
0.0
  0
LINE
  5
2F7
  8
0
 10
21.08471884706852
 20
-3.421071823573349
 30
0.0
 11
21.06595769326729
 21
-3.415353234563825
 31
0.0
  0
LINE
  5
2F8
  8
0
 10
21.06595769326729
 20
-3.415353234563825
 30
0.0
 11
21.04663503065582
 21
-3.408832272562403
 31
0.0
  0
LINE
  5
2F9
  8
0
 10
21.04663503065582
 20
-3.408832272562403
 30
0.0
 11
21.02679168714627
 21
-3.401555827407821
 31
0.0
  0
LINE
  5
2FA
  8
0
 10
21.02679168714627
 20
-3.401555827407821
 30
0.0
 11
21.00646867994416
 21
-3.393571640499827
 31
0.0
  0
LINE
  5
2FB
  8
0
 10
21.00646867994416
 20
-3.393571640499827
 30
0.0
 11
20.98570700517204
 21
-3.384928060612126
 31
0.0
  0
LINE
  5
2FC
  8
0
 10
20.98570700517204
 20
-3.384928060612126
 30
0.0
 11
20.96454741133326
 21
-3.375673781984717
 31
0.0
  0
LINE
  5
2FD
  8
0
 10
20.96454741133326
 20
-3.375673781984717
 30
0.0
 11
20.92119460086568
 21
-3.355527773737302
 31
0.0
  0
LINE
  5
2FE
  8
0
 10
20.92119460086568
 20
-3.355527773737302
 30
0.0
 11
20.8767208223746
 21
-3.333518094095905
 31
0.0
  0
LINE
  5
2FF
  8
0
 10
20.8767208223746
 20
-3.333518094095905
 30
0.0
 11
20.83141476851115
 21
-3.310014235454763
 31
0.0
  0
LINE
  5
300
  8
0
 10
20.83141476851115
 20
-3.310014235454763
 30
0.0
 11
20.2777601289315
 21
-3.000801842520663
 31
0.0
  0
LINE
  5
301
  8
0
 10
20.2777601289315
 20
-3.000801842520663
 30
0.0
 11
20.14074642878414
 21
-2.930274437757401
 31
0.0
  0
LINE
  5
302
  8
0
 10
20.68432705317407
 20
-2.024232160533671
 30
0.0
 11
21.00255883997758
 21
-2.533673784888983
 31
0.0
  0
LINE
  5
303
  8
0
 10
19.88576142411308
 20
-1.232353373558432
 30
0.0
 11
20.34566369179901
 21
-1.621553423970006
 31
0.0
  0
ARC
  5
304
  8
0
 10
17.58600202000959
 20
-3.743073994141494
 30
0.0
 40
3.329485256967177
 50
63.74169174654977
 51
116.2583081218806
  0
LINE
  5
305
  8
0
 10
14.64215590329869
 20
-1.62155338257832
 30
0.0
 11
15.17263244594219
 21
-1.232350233565359
 31
0.0
  0
LINE
  5
306
  8
0
 10
14.01852167996846
 20
-2.53367380232158
 30
0.0
 11
14.29862889513366
 21
-2.024232160523347
 31
0.0
  0
ARC
  5
307
  8
0
 10
17.73382439792557
 20
-7.241843988794618
 30
0.0
 40
4.905031436901589
 50
73.71228511569939
 51
106.2880048732786
  0
LINE
  5
308
  8
0
 10
15.16664782961735
 20
-2.930274436501974
 30
0.0
 11
14.63212126332873
 21
-3.149436830713296
 31
0.0
  0
LINE
  5
309
  8
0
 10
14.63212126332873
 20
-3.149436830713296
 30
0.0
 11
14.31975163998275
 21
-3.288337337883772
 31
0.0
  0
LINE
  5
30A
  8
0
 10
14.31975163998275
 20
-3.288337337883772
 30
0.0
 11
14.10855863817287
 21
-3.390241877985821
 31
0.0
  0
LINE
  5
30B
  8
0
 10
14.10855863817287
 20
-3.390241877985821
 30
0.0
 11
14.08295129327544
 21
-3.401857965925198
 31
0.0
  0
LINE
  5
30C
  8
0
 10
14.08295129327544
 20
-3.401857965925198
 30
0.0
 11
14.05717296655793
 21
-3.412859196346981
 31
0.0
  0
LINE
  5
30D
  8
0
 10
14.05717296655793
 20
-3.412859196346981
 30
0.0
 11
14.04424425558137
 21
-3.418039443338108
 31
0.0
  0
LINE
  5
30E
  8
0
 10
14.04424425558137
 20
-3.418039443338108
 30
0.0
 11
14.03131124515606
 21
-3.422950206842679
 31
0.0
  0
LINE
  5
30F
  8
0
 10
14.03131124515606
 20
-3.422950206842679
 30
0.0
 11
14.01839570437803
 21
-3.427545102947347
 31
0.0
  0
LINE
  5
310
  8
0
 10
14.01839570437803
 20
-3.427545102947347
 30
0.0
 11
14.00552331701475
 21
-3.431774562471989
 31
0.0
  0
LINE
  5
311
  8
0
 10
14.00552331701475
 20
-3.431774562471989
 30
0.0
 11
13.99272346152519
 21
-3.435586149293011
 31
0.0
  0
LINE
  5
312
  8
0
 10
13.99272346152519
 20
-3.435586149293011
 30
0.0
 11
13.98002893152813
 21
-3.438924942108359
 31
0.0
  0
LINE
  5
313
  8
0
 10
13.98002893152813
 20
-3.438924942108359
 30
0.0
 11
13.97373224103658
 21
-3.440399330191887
 31
0.0
  0
LINE
  5
314
  8
0
 10
13.97373224103658
 20
-3.440399330191887
 30
0.0
 11
13.96747550510101
 21
-3.441734077246908
 31
0.0
  0
LINE
  5
315
  8
0
 10
13.96747550510101
 20
-3.441734077246908
 30
0.0
 11
13.96126358185275
 21
-3.442921871301498
 31
0.0
  0
LINE
  5
316
  8
0
 10
13.96126358185275
 20
-3.442921871301498
 30
0.0
 11
13.95510145452704
 21
-3.443955354919558
 31
0.0
  0
LINE
  5
317
  8
0
 10
13.95510145452704
 20
-3.443955354919558
 30
0.0
 11
13.94899421607106
 21
-3.444827144222411
 31
0.0
  0
LINE
  5
318
  8
0
 10
13.94899421607106
 20
-3.444827144222411
 30
0.0
 11
13.94294705375193
 21
-3.445529847910404
 31
0.0
  0
LINE
  5
319
  8
0
 10
13.94294705375193
 20
-3.445529847910404
 30
0.0
 11
13.93696523376475
 21
-3.446056086284504
 31
0.0
  0
LINE
  5
31A
  8
0
 10
13.93696523376475
 20
-3.446056086284504
 30
0.0
 11
13.93105408584059
 21
-3.446398510267901
 31
0.0
  0
LINE
  5
31B
  8
0
 10
13.93105408584059
 20
-3.446398510267901
 30
0.0
 11
13.92521898785457
 21
-3.446549820427602
 31
0.0
  0
LINE
  5
31C
  8
0
 10
13.92521898785457
 20
-3.446549820427602
 30
0.0
 11
13.92233164755084
 21
-3.446551545006336
 31
0.0
  0
LINE
  5
31D
  8
0
 10
13.92233164755084
 20
-3.446551545006336
 30
0.0
 11
13.91946535043383
 21
-3.446502785996035
 31
0.0
  0
LINE
  5
31E
  8
0
 10
13.91946535043383
 20
-3.446502785996035
 30
0.0
 11
13.91662077542419
 21
-3.446402653400456
 31
0.0
  0
LINE
  5
31F
  8
0
 10
13.91662077542419
 20
-3.446402653400456
 30
0.0
 11
13.91379860156558
 21
-3.446250263892642
 31
0.0
  0
LINE
  5
320
  8
0
 10
13.91379860156558
 20
-3.446250263892642
 30
0.0
 11
13.91099950754366
 21
-3.446044741409353
 31
0.0
  0
LINE
  5
321
  8
0
 10
13.91099950754366
 20
-3.446044741409353
 30
0.0
 11
13.9082241712051
 21
-3.445785217745486
 31
0.0
  0
LINE
  5
322
  8
0
 10
13.9082241712051
 20
-3.445785217745486
 30
0.0
 11
13.9054732690773
 21
-3.445470833147721
 31
0.0
  0
LINE
  5
323
  8
0
 10
13.9054732690773
 20
-3.445470833147721
 30
0.0
 11
13.90274747590709
 21
-3.445100736887944
 31
0.0
  0
LINE
  5
324
  8
0
 10
13.90274747590709
 20
-3.445100736887944
 30
0.0
 11
13.90004746424741
 21
-3.444674087785313
 31
0.0
  0
LINE
  5
325
  8
0
 10
13.90004746424741
 20
-3.444674087785313
 30
0.0
 11
13.89737390406305
 21
-3.444190054708096
 31
0.0
  0
LINE
  5
326
  8
0
 10
13.89737390406305
 20
-3.444190054708096
 30
0.0
 11
13.89472746233706
 21
-3.443647817074735
 31
0.0
  0
LINE
  5
327
  8
0
 10
13.89472746233706
 20
-3.443647817074735
 30
0.0
 11
13.89210880267713
 21
-3.443046565354905
 31
0.0
  0
LINE
  5
328
  8
0
 10
13.89210880267713
 20
-3.443046565354905
 30
0.0
 11
13.88951858492201
 21
-3.442385501570577
 31
0.0
  0
LINE
  5
329
  8
0
 10
13.88951858492201
 20
-3.442385501570577
 30
0.0
 11
13.88695746474797
 21
-3.44166383979708
 31
0.0
  0
LINE
  5
32A
  8
0
 10
13.88695746474797
 20
-3.44166383979708
 30
0.0
 11
13.88442609327512
 21
-3.440880806664159
 31
0.0
  0
LINE
  5
32B
  8
0
 10
13.88442609327512
 20
-3.440880806664159
 30
0.0
 11
13.88192511667394
 21
-3.440035641857043
 31
0.0
  0
LINE
  5
32C
  8
0
 10
13.88192511667394
 20
-3.440035641857043
 30
0.0
 11
13.87945517577157
 21
-3.439127598617499
 31
0.0
  0
LINE
  5
32D
  8
0
 10
13.87945517577157
 20
-3.439127598617499
 30
0.0
 11
13.87701690565833
 21
-3.438155944244898
 31
0.0
  0
LINE
  5
32E
  8
0
 10
13.87701690565833
 20
-3.438155944244898
 30
0.0
 11
13.87461093529404
 21
-3.437119960597275
 31
0.0
  0
LINE
  5
32F
  8
0
 10
13.87461093529404
 20
-3.437119960597275
 30
0.0
 11
13.87223788711452
 21
-3.436018944592391
 31
0.0
  0
LINE
  5
330
  8
0
 10
13.87223788711452
 20
-3.436018944592391
 30
0.0
 11
13.86989837663793
 21
-3.434852208708793
 31
0.0
  0
LINE
  5
331
  8
0
 10
13.86989837663793
 20
-3.434852208708793
 30
0.0
 11
13.86759301207122
 21
-3.43361908148688
 31
0.0
  0
LINE
  5
332
  8
0
 10
13.86759301207122
 20
-3.43361908148688
 30
0.0
 11
13.86532239391653
 21
-3.432318908029956
 31
0.0
  0
LINE
  5
333
  8
0
 10
13.86532239391653
 20
-3.432318908029956
 30
0.0
 11
13.86308711457761
 21
-3.430951050505302
 31
0.0
  0
LINE
  5
334
  8
0
 10
13.86308711457761
 20
-3.430951050505302
 30
0.0
 11
13.86088775796622
 21
-3.429514888645227
 31
0.0
  0
LINE
  5
335
  8
0
 10
13.86088775796622
 20
-3.429514888645227
 30
0.0
 11
13.85872489910858
 21
-3.428009820248137
 31
0.0
  0
LINE
  5
336
  8
0
 10
13.85872489910858
 20
-3.428009820248137
 30
0.0
 11
13.85659910375171
 21
-3.426435261679595
 31
0.0
  0
LINE
  5
337
  8
0
 10
13.85659910375171
 20
-3.426435261679595
 30
0.0
 11
13.85451092796992
 21
-3.424790648373378
 31
0.0
  0
LINE
  5
338
  8
0
 10
13.85451092796992
 20
-3.424790648373378
 30
0.0
 11
13.85246091777116
 21
-3.423075435332544
 31
0.0
  0
LINE
  5
339
  8
0
 10
13.85246091777116
 20
-3.423075435332544
 30
0.0
 11
13.8504496087035
 21
-3.42128909763049
 31
0.0
  0
LINE
  5
33A
  8
0
 10
13.8504496087035
 20
-3.42128909763049
 30
0.0
 11
13.84847752546145
 21
-3.419431130912016
 31
0.0
  0
LINE
  5
33B
  8
0
 10
13.84847752546145
 20
-3.419431130912016
 30
0.0
 11
13.84654518149247
 21
-3.417501051894383
 31
0.0
  0
LINE
  5
33C
  8
0
 10
13.84654518149247
 20
-3.417501051894383
 30
0.0
 11
13.84465307860332
 21
-3.415498398868379
 31
0.0
  0
LINE
  5
33D
  8
0
 10
13.84465307860332
 20
-3.415498398868379
 30
0.0
 11
13.84280170656648
 21
-3.413422732199376
 31
0.0
  0
LINE
  5
33E
  8
0
 10
13.84280170656648
 20
-3.413422732199376
 30
0.0
 11
13.84099154272659
 21
-3.411273634828394
 31
0.0
  0
LINE
  5
33F
  8
0
 10
13.84099154272659
 20
-3.411273634828394
 30
0.0
 11
13.83922305160684
 21
-3.409050712773161
 31
0.0
  0
LINE
  5
340
  8
0
 10
13.83922305160684
 20
-3.409050712773161
 30
0.0
 11
13.83749668451538
 21
-3.406753595629177
 31
0.0
  0
LINE
  5
341
  8
0
 10
13.83749668451538
 20
-3.406753595629177
 30
0.0
 11
13.83581287915174
 21
-3.404381937070774
 31
0.0
  0
LINE
  5
342
  8
0
 10
13.83581287915174
 20
-3.404381937070774
 30
0.0
 11
13.83417205921759
 21
-3.40193541534594
 31
0.0
  0
LINE
  5
343
  8
0
 10
13.83417205921759
 20
-3.40193541534594
 30
0.0
 11
13.83257463413998
 21
-3.399413733608998
 31
0.0
  0
LINE
  5
344
  8
0
 10
13.83257463413998
 20
-3.399413733608998
 30
0.0
 11
13.8310209990804
 21
-3.396816619841655
 31
0.0
  0
LINE
  5
345
  8
0
 10
13.8310209990804
 20
-3.396816619841655
 30
0.0
 11
13.82951153505626
 21
-3.394143826611899
 31
0.0
  0
LINE
  5
346
  8
0
 10
13.82951153505626
 20
-3.394143826611899
 30
0.0
 11
13.82804660906675
 21
-3.391395130826661
 31
0.0
  0
LINE
  5
347
  8
0
 10
13.82804660906675
 20
-3.391395130826661
 30
0.0
 11
13.82662657421875
 21
-3.388570333484477
 31
0.0
  0
LINE
  5
348
  8
0
 10
13.82662657421875
 20
-3.388570333484477
 30
0.0
 11
13.82525176985267
 21
-3.385669259428157
 31
0.0
  0
LINE
  5
349
  8
0
 10
13.82525176985267
 20
-3.385669259428157
 30
0.0
 11
13.8239225216683
 21
-3.382691757097439
 31
0.0
  0
LINE
  5
34A
  8
0
 10
13.8239225216683
 20
-3.382691757097439
 30
0.0
 11
13.82263914185071
 21
-3.37963769828166
 31
0.0
  0
LINE
  5
34B
  8
0
 10
13.82263914185071
 20
-3.37963769828166
 30
0.0
 11
13.82140192919607
 21
-3.376506977872412
 31
0.0
  0
LINE
  5
34C
  8
0
 10
13.82140192919607
 20
-3.376506977872412
 30
0.0
 11
13.82021116923756
 21
-3.373299513616213
 31
0.0
  0
LINE
  5
34D
  8
0
 10
13.82021116923756
 20
-3.373299513616213
 30
0.0
 11
13.81906713437123
 21
-3.370015245867164
 31
0.0
  0
LINE
  5
34E
  8
0
 10
13.81906713437123
 20
-3.370015245867164
 30
0.0
 11
13.81797008398181
 21
-3.366654137339612
 31
0.0
  0
LINE
  5
34F
  8
0
 10
13.81797008398181
 20
-3.366654137339612
 30
0.0
 11
13.81692026456866
 21
-3.363216172860818
 31
0.0
  0
LINE
  5
350
  8
0
 10
13.81692026456866
 20
-3.363216172860818
 30
0.0
 11
13.81591790987157
 21
-3.359701359123614
 31
0.0
  0
LINE
  5
351
  8
0
 10
13.81591790987157
 20
-3.359701359123614
 30
0.0
 11
13.81496324099665
 21
-3.356109724439071
 31
0.0
  0
LINE
  5
352
  8
0
 10
13.81496324099665
 20
-3.356109724439071
 30
0.0
 11
13.81319778272455
 21
-3.348696212079406
 31
0.0
  0
LINE
  5
353
  8
0
 10
13.81319778272455
 20
-3.348696212079406
 30
0.0
 11
13.81162541071049
 21
-3.340976285236314
 31
0.0
  0
LINE
  5
354
  8
0
 10
13.81162541071049
 20
-3.340976285236314
 30
0.0
 11
13.81024745182906
 21
-3.332950923426505
 31
0.0
  0
LINE
  5
355
  8
0
 10
13.81024745182906
 20
-3.332950923426505
 30
0.0
 11
13.80906504289898
 21
-3.324621428314128
 31
0.0
  0
LINE
  5
356
  8
0
 10
13.80906504289898
 20
-3.324621428314128
 30
0.0
 11
13.80807913471081
 21
-3.315989415795987
 31
0.0
  0
LINE
  5
357
  8
0
 10
13.80807913471081
 20
-3.315989415795987
 30
0.0
 11
13.80729049605466
 21
-3.307056808086755
 31
0.0
  0
LINE
  5
358
  8
0
 10
13.80729049605466
 20
-3.307056808086755
 30
0.0
 11
13.80669971774779
 21
-3.297825825804193
 31
0.0
  0
LINE
  5
359
  8
0
 10
13.80669971774779
 20
-3.297825825804193
 30
0.0
 11
13.8063072166624
 21
-3.288298980054369
 31
0.0
  0
LINE
  5
35A
  8
0
 10
13.8063072166624
 20
-3.288298980054369
 30
0.0
 11
13.80611323975851
 21
-3.27847906451031
 31
0.0
  0
LINE
  5
35B
  8
0
 10
13.80611323975851
 20
-3.27847906451031
 30
0.0
 11
13.80611786825276
 21
-3.268369147320195
 31
0.0
  0
LINE
  5
35C
  8
0
 10
13.80611786825276
 20
-3.268369147320195
 30
0.0
 11
13.80632102213237
 21
-3.257972562582801
 31
0.0
  0
LINE
  5
35D
  8
0
 10
13.80632102213237
 20
-3.257972562582801
 30
0.0
 11
13.80672246480498
 21
-3.247292901652476
 31
0.0
  0
LINE
  5
35E
  8
0
 10
13.80672246480498
 20
-3.247292901652476
 30
0.0
 11
13.808118515192
 21
-3.225099950698795
 31
0.0
  0
LINE
  5
35F
  8
0
 10
13.808118515192
 20
-3.225099950698795
 30
0.0
 11
13.810301171975
 21
-3.201823839745246
 31
0.0
  0
LINE
  5
360
  8
0
 10
13.810301171975
 20
-3.201823839745246
 30
0.0
 11
13.81326338036546
 21
-3.177501673265803
 31
0.0
  0
LINE
  5
361
  8
0
 10
13.81326338036546
 20
-3.177501673265803
 30
0.0
 11
13.81699602718709
 21
-3.15217383647168
 31
0.0
  0
LINE
  5
362
  8
0
 10
13.81699602718709
 20
-3.15217383647168
 30
0.0
 11
13.82148808983781
 21
-3.125883716860695
 31
0.0
  0
LINE
  5
363
  8
0
 10
13.82148808983781
 20
-3.125883716860695
 30
0.0
 11
13.8267267852517
 21
-3.098677425766636
 31
0.0
  0
LINE
  5
364
  8
0
 10
13.8267267852517
 20
-3.098677425766636
 30
0.0
 11
13.83536582734155
 21
-3.058801901727705
 31
0.0
  0
LINE
  5
365
  8
0
 10
13.83536582734155
 20
-3.058801901727705
 30
0.0
 11
13.84541874553452
 21
-3.017341231835939
 31
0.0
  0
LINE
  5
366
  8
0
 10
13.84541874553452
 20
-3.017341231835939
 30
0.0
 11
13.85683507514275
 21
-2.974446461240348
 31
0.0
  0
LINE
  5
367
  8
0
 10
13.85683507514275
 20
-2.974446461240348
 30
0.0
 11
13.86956001408477
 21
-2.930274437627954
 31
0.0
  0
LINE
  5
368
  8
0
 10
28.50115576935259
 20
-4.828651985372499
 30
0.0
 11
28.50099067754558
 21
-4.818900701392544
 31
0.0
  0
LINE
  5
369
  8
0
 10
28.50099067754558
 20
-4.818900701392544
 30
0.0
 11
28.50049242398132
 21
-4.809106394562566
 31
0.0
  0
LINE
  5
36A
  8
0
 10
28.50049242398132
 20
-4.809106394562566
 30
0.0
 11
28.49965658939879
 21
-4.799270609852675
 31
0.0
  0
LINE
  5
36B
  8
0
 10
28.49965658939879
 20
-4.799270609852675
 30
0.0
 11
28.49847882220354
 21
-4.78939493824284
 31
0.0
  0
LINE
  5
36C
  8
0
 10
28.49847882220354
 20
-4.78939493824284
 30
0.0
 11
28.49695484317064
 21
-4.779481016594078
 31
0.0
  0
LINE
  5
36D
  8
0
 10
28.49695484317064
 20
-4.779481016594078
 30
0.0
 11
28.49508045019435
 21
-4.769530527465644
 31
0.0
  0
LINE
  5
36E
  8
0
 10
28.49508045019435
 20
-4.769530527465644
 30
0.0
 11
28.4928515230786
 21
-4.759545198876818
 31
0.0
  0
LINE
  5
36F
  8
0
 10
28.4928515230786
 20
-4.759545198876818
 30
0.0
 11
28.49026402836204
 21
-4.749526804011969
 31
0.0
  0
LINE
  5
370
  8
0
 10
28.49026402836204
 20
-4.749526804011969
 30
0.0
 11
28.48731402417124
 21
-4.739477160867597
 31
0.0
  0
LINE
  5
371
  8
0
 10
28.48731402417124
 20
-4.739477160867597
 30
0.0
 11
28.48399766509513
 21
-4.729398131840185
 31
0.0
  0
LINE
  5
372
  8
0
 10
28.48399766509513
 20
-4.729398131840185
 30
0.0
 11
28.48031120707391
 21
-4.719291623253759
 31
0.0
  0
LINE
  5
373
  8
0
 10
28.48031120707391
 20
-4.719291623253759
 30
0.0
 11
28.47625101229484
 21
-4.709159584826122
 31
0.0
  0
LINE
  5
374
  8
0
 10
28.47625101229484
 20
-4.709159584826122
 30
0.0
 11
28.47181355408751
 21
-4.69900400907285
 31
0.0
  0
LINE
  5
375
  8
0
 10
28.47181355408751
 20
-4.69900400907285
 30
0.0
 11
28.46699542181072
 21
-4.688826930648235
 31
0.0
  0
LINE
  5
376
  8
0
 10
28.46699542181072
 20
-4.688826930648235
 30
0.0
 11
28.46179332572299
 21
-4.678630425622462
 31
0.0
  0
LINE
  5
377
  8
0
 10
28.46179332572299
 20
-4.678630425622462
 30
0.0
 11
28.45620410182829
 21
-4.668416610694425
 31
0.0
  0
LINE
  5
378
  8
0
 10
28.45620410182829
 20
-4.668416610694425
 30
0.0
 11
28.4502247166887
 21
-4.658187642339693
 31
0.0
  0
LINE
  5
379
  8
0
 10
28.4502247166887
 20
-4.658187642339693
 30
0.0
 11
28.44385227219518
 21
-4.647945715893297
 31
0.0
  0
LINE
  5
37A
  8
0
 10
28.44385227219518
 20
-4.647945715893297
 30
0.0
 11
28.43708401028774
 21
-4.637693064567095
 31
0.0
  0
LINE
  5
37B
  8
0
 10
28.43708401028774
 20
-4.637693064567095
 30
0.0
 11
28.42991731761592
 21
-4.627431958401643
 31
0.0
  0
LINE
  5
37C
  8
0
 10
28.42991731761592
 20
-4.627431958401643
 30
0.0
 11
28.42234973013055
 21
-4.617164703152606
 31
0.0
  0
LINE
  5
37D
  8
0
 10
28.42234973013055
 20
-4.617164703152606
 30
0.0
 11
28.41437893759749
 21
-4.60689363911194
 31
0.0
  0
LINE
  5
37E
  8
0
 10
28.41437893759749
 20
-4.60689363911194
 30
0.0
 11
28.40600278802405
 21
-4.596621139864157
 31
0.0
  0
LINE
  5
37F
  8
0
 10
28.40600278802405
 20
-4.596621139864157
 30
0.0
 11
28.39721929198877
 21
-4.586349610978195
 31
0.0
  0
LINE
  5
380
  8
0
 10
28.39721929198877
 20
-4.586349610978195
 30
0.0
 11
28.38802662686501
 21
-4.576081488635543
 31
0.0
  0
LINE
  5
381
  8
0
 10
28.38802662686501
 20
-4.576081488635543
 30
0.0
 11
28.37842314092897
 21
-4.565819238195415
 31
0.0
  0
LINE
  5
382
  8
0
 10
28.37842314092897
 20
-4.565819238195415
 30
0.0
 11
28.3684073573428
 21
-4.555565352697985
 31
0.0
  0
LINE
  5
383
  8
0
 10
28.3684073573428
 20
-4.555565352697985
 30
0.0
 11
28.35797797800323
 21
-4.545322351306777
 31
0.0
  0
LINE
  5
384
  8
0
 10
28.35797797800323
 20
-4.545322351306777
 30
0.0
 11
28.34713388724649
 21
-4.535092777691547
 31
0.0
  0
LINE
  5
385
  8
0
 10
28.34713388724649
 20
-4.535092777691547
 30
0.0
 11
28.33587415540033
 21
-4.524879198353088
 31
0.0
  0
LINE
  5
386
  8
0
 10
28.33587415540033
 20
-4.524879198353088
 30
0.0
 11
28.32419804217398
 21
-4.514684200891624
 31
0.0
  0
LINE
  5
387
  8
0
 10
28.32419804217398
 20
-4.514684200891624
 30
0.0
 11
28.31210499987703
 21
-4.504510392220554
 31
0.0
  0
LINE
  5
388
  8
0
 10
28.31210499987703
 20
-4.504510392220554
 30
0.0
 11
28.28666691835818
 21
-4.484236854384955
 31
0.0
  0
LINE
  5
389
  8
0
 10
28.28666691835818
 20
-4.484236854384955
 30
0.0
 11
28.25955949204124
 21
-4.464079755292269
 31
0.0
  0
LINE
  5
38A
  8
0
 10
28.25955949204124
 20
-4.464079755292269
 30
0.0
 11
28.23078555792847
 21
-4.444060451657166
 31
0.0
  0
LINE
  5
38B
  8
0
 10
28.23078555792847
 20
-4.444060451657166
 30
0.0
 11
28.20035127678018
 21
-4.424200421000795
 31
0.0
  0
LINE
  5
38C
  8
0
 10
28.20035127678018
 20
-4.424200421000795
 30
0.0
 11
28.16826618656789
 21
-4.404521193787327
 31
0.0
  0
LINE
  5
38D
  8
0
 10
28.16826618656789
 20
-4.404521193787327
 30
0.0
 11
28.13454324060541
 21
-4.385044283554183
 31
0.0
  0
LINE
  5
38E
  8
0
 10
28.13454324060541
 20
-4.385044283554183
 30
0.0
 11
28.09919882965037
 21
-4.365791115462999
 31
0.0
  0
LINE
  5
38F
  8
0
 10
28.09919882965037
 20
-4.365791115462999
 30
0.0
 11
28.06225278739388
 21
-4.346782953726639
 31
0.0
  0
LINE
  5
390
  8
0
 10
28.06225278739388
 20
-4.346782953726639
 30
0.0
 11
28.02372837889491
 21
-4.328040828391364
 31
0.0
  0
LINE
  5
391
  8
0
 10
28.02372837889491
 20
-4.328040828391364
 30
0.0
 11
27.98365227166173
 21
-4.309585461971998
 31
0.0
  0
LINE
  5
392
  8
0
 10
27.98365227166173
 20
-4.309585461971998
 30
0.0
 11
27.94205448923917
 21
-4.291437196451341
 31
0.0
  0
LINE
  5
393
  8
0
 10
27.94205448923917
 20
-4.291437196451341
 30
0.0
 11
27.89896834732014
 21
-4.273615921162532
 31
0.0
  0
LINE
  5
394
  8
0
 10
27.89896834732014
 20
-4.273615921162532
 30
0.0
 11
27.85443037256424
 21
-4.256141002074557
 31
0.0
  0
LINE
  5
395
  8
0
 10
27.85443037256424
 20
-4.256141002074557
 30
0.0
 11
27.80848020447174
 21
-4.239031212996289
 31
0.0
  0
LINE
  5
396
  8
0
 10
27.80848020447174
 20
-4.239031212996289
 30
0.0
 11
27.71251670736244
 21
-4.205978763974772
 31
0.0
  0
LINE
  5
397
  8
0
 10
27.71251670736244
 20
-4.205978763974772
 30
0.0
 11
27.61145248823896
 21
-4.174594475611985
 31
0.0
  0
LINE
  5
398
  8
0
 10
27.61145248823896
 20
-4.174594475611985
 30
0.0
 11
27.50570309211526
 21
-4.145000869145844
 31
0.0
  0
LINE
  5
399
  8
0
 10
27.50570309211526
 20
-4.145000869145844
 30
0.0
 11
27.39571930387092
 21
-4.117305497663056
 31
0.0
  0
LINE
  5
39A
  8
0
 10
27.39571930387092
 20
-4.117305497663056
 30
0.0
 11
27.28198081946731
 21
-4.091599668618575
 31
0.0
  0
LINE
  5
39B
  8
0
 10
27.28198081946731
 20
-4.091599668618575
 30
0.0
 11
27.16498944557156
 21
-4.067957507819838
 31
0.0
  0
LINE
  5
39C
  8
0
 10
27.16498944557156
 20
-4.067957507819838
 30
0.0
 11
27.04526202530211
 21
-4.046435382781551
 31
0.0
  0
LINE
  5
39D
  8
0
 10
27.04526202530211
 20
-4.046435382781551
 30
0.0
 11
26.92332329160318
 21
-4.027071689740196
 31
0.0
  0
LINE
  5
39E
  8
0
 10
26.92332329160318
 20
-4.027071689740196
 30
0.0
 11
26.79969884407247
 21
-4.009886995353653
 31
0.0
  0
LINE
  5
39F
  8
0
 10
26.79969884407247
 20
-4.009886995353653
 30
0.0
 11
26.67490843071266
 21
-3.99488451194131
 31
0.0
  0
LINE
  5
3A0
  8
0
 10
26.67490843071266
 20
-3.99488451194131
 30
0.0
 11
26.54945969440967
 21
-3.982050874663019
 31
0.0
  0
LINE
  5
3A1
  8
0
 10
26.54945969440967
 20
-3.982050874663019
 30
0.0
 11
26.29852406066197
 21
-3.962760245029966
 31
0.0
  0
LINE
  5
3A2
  8
0
 10
26.29852406066197
 20
-3.962760245029966
 30
0.0
 11
26.05051404647947
 21
-3.951621149559808
 31
0.0
  0
LINE
  5
3A3
  8
0
 10
26.05051404647947
 20
-3.951621149559808
 30
0.0
 11
25.80857358808863
 21
-3.948059070745289
 31
0.0
  0
LINE
  5
3A4
  8
0
 10
25.80857358808863
 20
-3.948059070745289
 30
0.0
 11
25.56663312969777
 21
-3.951621149559808
 31
0.0
  0
LINE
  5
3A5
  8
0
 10
25.56663312969777
 20
-3.951621149559808
 30
0.0
 11
25.31862311551529
 21
-3.962760245029966
 31
0.0
  0
LINE
  5
3A6
  8
0
 10
25.31862311551529
 20
-3.962760245029966
 30
0.0
 11
25.06768748176759
 21
-3.982050874663019
 31
0.0
  0
LINE
  5
3A7
  8
0
 10
25.06768748176759
 20
-3.982050874663019
 30
0.0
 11
24.94223874546459
 21
-3.99488451194131
 31
0.0
  0
LINE
  5
3A8
  8
0
 10
24.94223874546459
 20
-3.99488451194131
 30
0.0
 11
24.8174483321048
 21
-4.009886995353653
 31
0.0
  0
LINE
  5
3A9
  8
0
 10
24.8174483321048
 20
-4.009886995353653
 30
0.0
 11
24.69382388457408
 21
-4.027071689740196
 31
0.0
  0
LINE
  5
3AA
  8
0
 10
24.69382388457408
 20
-4.027071689740196
 30
0.0
 11
24.57188515087515
 21
-4.046435382781551
 31
0.0
  0
LINE
  5
3AB
  8
0
 10
24.57188515087515
 20
-4.046435382781551
 30
0.0
 11
24.45215773060569
 21
-4.067957507819838
 31
0.0
  0
LINE
  5
3AC
  8
0
 10
24.45215773060569
 20
-4.067957507819838
 30
0.0
 11
24.33516635670994
 21
-4.091599668618575
 31
0.0
  0
LINE
  5
3AD
  8
0
 10
24.33516635670994
 20
-4.091599668618575
 30
0.0
 11
24.22142787230632
 21
-4.117305497663056
 31
0.0
  0
LINE
  5
3AE
  8
0
 10
24.22142787230632
 20
-4.117305497663056
 30
0.0
 11
24.11144408406199
 21
-4.145000869145844
 31
0.0
  0
LINE
  5
3AF
  8
0
 10
24.11144408406199
 20
-4.145000869145844
 30
0.0
 11
24.00569468793829
 21
-4.174594475611985
 31
0.0
  0
LINE
  5
3B0
  8
0
 10
24.00569468793829
 20
-4.174594475611985
 30
0.0
 11
23.9046304688148
 21
-4.205978763974772
 31
0.0
  0
LINE
  5
3B1
  8
0
 10
23.9046304688148
 20
-4.205978763974772
 30
0.0
 11
23.80866697170552
 21
-4.239031212996289
 31
0.0
  0
LINE
  5
3B2
  8
0
 10
23.80866697170552
 20
-4.239031212996289
 30
0.0
 11
23.76271680361302
 21
-4.256141002074557
 31
0.0
  0
LINE
  5
3B3
  8
0
 10
23.76271680361302
 20
-4.256141002074557
 30
0.0
 11
23.71817882885712
 21
-4.273615921162532
 31
0.0
  0
LINE
  5
3B4
  8
0
 10
23.71817882885712
 20
-4.273615921162532
 30
0.0
 11
23.67509268693808
 21
-4.291437196451341
 31
0.0
  0
LINE
  5
3B5
  8
0
 10
23.67509268693808
 20
-4.291437196451341
 30
0.0
 11
23.63349490451552
 21
-4.309585461971998
 31
0.0
  0
LINE
  5
3B6
  8
0
 10
23.63349490451552
 20
-4.309585461971998
 30
0.0
 11
23.59341879728233
 21
-4.328040828391364
 31
0.0
  0
LINE
  5
3B7
  8
0
 10
23.59341879728233
 20
-4.328040828391364
 30
0.0
 11
23.55489438878335
 21
-4.346782953726639
 31
0.0
  0
LINE
  5
3B8
  8
0
 10
23.55489438878335
 20
-4.346782953726639
 30
0.0
 11
23.51794834652689
 21
-4.365791115462999
 31
0.0
  0
LINE
  5
3B9
  8
0
 10
23.51794834652689
 20
-4.365791115462999
 30
0.0
 11
23.48260393557183
 21
-4.385044283554183
 31
0.0
  0
LINE
  5
3BA
  8
0
 10
23.48260393557183
 20
-4.385044283554183
 30
0.0
 11
23.44888098960937
 21
-4.404521193787327
 31
0.0
  0
LINE
  5
3BB
  8
0
 10
23.44888098960937
 20
-4.404521193787327
 30
0.0
 11
23.41679589939707
 21
-4.424200421000795
 31
0.0
  0
LINE
  5
3BC
  8
0
 10
23.41679589939707
 20
-4.424200421000795
 30
0.0
 11
23.38636161824878
 21
-4.444060451657166
 31
0.0
  0
LINE
  5
3BD
  8
0
 10
23.38636161824878
 20
-4.444060451657166
 30
0.0
 11
23.357587684136
 21
-4.464079755292269
 31
0.0
  0
LINE
  5
3BE
  8
0
 10
23.357587684136
 20
-4.464079755292269
 30
0.0
 11
23.33048025781907
 21
-4.484236854384955
 31
0.0
  0
LINE
  5
3BF
  8
0
 10
23.33048025781907
 20
-4.484236854384955
 30
0.0
 11
23.30504217630023
 21
-4.504510392220554
 31
0.0
  0
LINE
  5
3C0
  8
0
 10
23.30504217630023
 20
-4.504510392220554
 30
0.0
 11
23.29294913400327
 21
-4.514684200891624
 31
0.0
  0
LINE
  5
3C1
  8
0
 10
23.29294913400327
 20
-4.514684200891624
 30
0.0
 11
23.28127302077693
 21
-4.524879198353088
 31
0.0
  0
LINE
  5
3C2
  8
0
 10
23.28127302077693
 20
-4.524879198353088
 30
0.0
 11
23.27001328893078
 21
-4.535092777691547
 31
0.0
  0
LINE
  5
3C3
  8
0
 10
23.27001328893078
 20
-4.535092777691547
 30
0.0
 11
23.25916919817402
 21
-4.545322351306777
 31
0.0
  0
LINE
  5
3C4
  8
0
 10
23.25916919817402
 20
-4.545322351306777
 30
0.0
 11
23.24873981883444
 21
-4.555565352697985
 31
0.0
  0
LINE
  5
3C5
  8
0
 10
23.24873981883444
 20
-4.555565352697985
 30
0.0
 11
23.23872403524828
 21
-4.565819238195415
 31
0.0
  0
LINE
  5
3C6
  8
0
 10
23.23872403524828
 20
-4.565819238195415
 30
0.0
 11
23.22912054931224
 21
-4.576081488635543
 31
0.0
  0
LINE
  5
3C7
  8
0
 10
23.22912054931224
 20
-4.576081488635543
 30
0.0
 11
23.21992788418848
 21
-4.586349610978195
 31
0.0
  0
LINE
  5
3C8
  8
0
 10
23.21992788418848
 20
-4.586349610978195
 30
0.0
 11
23.2111443881532
 21
-4.596621139864157
 31
0.0
  0
LINE
  5
3C9
  8
0
 10
23.2111443881532
 20
-4.596621139864157
 30
0.0
 11
23.20276823857977
 21
-4.60689363911194
 31
0.0
  0
LINE
  5
3CA
  8
0
 10
23.20276823857977
 20
-4.60689363911194
 30
0.0
 11
23.19479744604671
 21
-4.617164703152606
 31
0.0
  0
LINE
  5
3CB
  8
0
 10
23.19479744604671
 20
-4.617164703152606
 30
0.0
 11
23.18722985856133
 21
-4.627431958401643
 31
0.0
  0
LINE
  5
3CC
  8
0
 10
23.18722985856133
 20
-4.627431958401643
 30
0.0
 11
23.18006316588951
 21
-4.637693064567095
 31
0.0
  0
LINE
  5
3CD
  8
0
 10
23.18006316588951
 20
-4.637693064567095
 30
0.0
 11
23.17329490398206
 21
-4.647945715893297
 31
0.0
  0
LINE
  5
3CE
  8
0
 10
23.17329490398206
 20
-4.647945715893297
 30
0.0
 11
23.16692245948855
 21
-4.658187642339693
 31
0.0
  0
LINE
  5
3CF
  8
0
 10
23.16692245948855
 20
-4.658187642339693
 30
0.0
 11
23.16094307434895
 21
-4.668416610694425
 31
0.0
  0
LINE
  5
3D0
  8
0
 10
23.16094307434895
 20
-4.668416610694425
 30
0.0
 11
23.15535385045425
 21
-4.678630425622462
 31
0.0
  0
LINE
  5
3D1
  8
0
 10
23.15535385045425
 20
-4.678630425622462
 30
0.0
 11
23.15015175436652
 21
-4.688826930648235
 31
0.0
  0
LINE
  5
3D2
  8
0
 10
23.15015175436652
 20
-4.688826930648235
 30
0.0
 11
23.14533362208974
 21
-4.69900400907285
 31
0.0
  0
LINE
  5
3D3
  8
0
 10
23.14533362208974
 20
-4.69900400907285
 30
0.0
 11
23.14089616388241
 21
-4.709159584826122
 31
0.0
  0
LINE
  5
3D4
  8
0
 10
23.14089616388241
 20
-4.709159584826122
 30
0.0
 11
23.13683596910333
 21
-4.719291623253759
 31
0.0
  0
LINE
  5
3D5
  8
0
 10
23.13683596910333
 20
-4.719291623253759
 30
0.0
 11
23.13314951108212
 21
-4.729398131840185
 31
0.0
  0
LINE
  5
3D6
  8
0
 10
23.13314951108212
 20
-4.729398131840185
 30
0.0
 11
23.12983315200601
 21
-4.739477160867597
 31
0.0
  0
LINE
  5
3D7
  8
0
 10
23.12983315200601
 20
-4.739477160867597
 30
0.0
 11
23.1268831478152
 21
-4.749526804011969
 31
0.0
  0
LINE
  5
3D8
  8
0
 10
23.1268831478152
 20
-4.749526804011969
 30
0.0
 11
23.12429565309865
 21
-4.759545198876818
 31
0.0
  0
LINE
  5
3D9
  8
0
 10
23.12429565309865
 20
-4.759545198876818
 30
0.0
 11
23.1220667259829
 21
-4.769530527465644
 31
0.0
  0
LINE
  5
3DA
  8
0
 10
23.1220667259829
 20
-4.769530527465644
 30
0.0
 11
23.1201923330066
 21
-4.779481016594078
 31
0.0
  0
LINE
  5
3DB
  8
0
 10
23.1201923330066
 20
-4.779481016594078
 30
0.0
 11
23.1186683539737
 21
-4.78939493824284
 31
0.0
  0
LINE
  5
3DC
  8
0
 10
23.1186683539737
 20
-4.78939493824284
 30
0.0
 11
23.11749058677846
 21
-4.799270609852675
 31
0.0
  0
LINE
  5
3DD
  8
0
 10
23.11749058677846
 20
-4.799270609852675
 30
0.0
 11
23.11665475219593
 21
-4.809106394562566
 31
0.0
  0
LINE
  5
3DE
  8
0
 10
23.11665475219593
 20
-4.809106394562566
 30
0.0
 11
23.11615649863166
 21
-4.818900701392544
 31
0.0
  0
LINE
  5
3DF
  8
0
 10
23.11615649863166
 20
-4.818900701392544
 30
0.0
 11
23.11599140682466
 21
-4.828651985372499
 31
0.0
  0
LINE
  5
3E0
  8
0
 10
23.11599140682466
 20
-4.828651985372499
 30
0.0
 11
23.11615649863166
 21
-4.838403269352454
 31
0.0
  0
LINE
  5
3E1
  8
0
 10
23.11615649863166
 20
-4.838403269352454
 30
0.0
 11
23.11665475219593
 21
-4.848197576182432
 31
0.0
  0
LINE
  5
3E2
  8
0
 10
23.11665475219593
 20
-4.848197576182432
 30
0.0
 11
23.11749058677846
 21
-4.858033360892326
 31
0.0
  0
LINE
  5
3E3
  8
0
 10
23.11749058677846
 20
-4.858033360892326
 30
0.0
 11
23.1186683539737
 21
-4.867909032502158
 31
0.0
  0
LINE
  5
3E4
  8
0
 10
23.1186683539737
 20
-4.867909032502158
 30
0.0
 11
23.1201923330066
 21
-4.87782295415092
 31
0.0
  0
LINE
  5
3E5
  8
0
 10
23.1201923330066
 20
-4.87782295415092
 30
0.0
 11
23.1220667259829
 21
-4.887773443279355
 31
0.0
  0
LINE
  5
3E6
  8
0
 10
23.1220667259829
 20
-4.887773443279355
 30
0.0
 11
23.12429565309865
 21
-4.89775877186818
 31
0.0
  0
LINE
  5
3E7
  8
0
 10
23.12429565309865
 20
-4.89775877186818
 30
0.0
 11
23.1268831478152
 21
-4.907777166733029
 31
0.0
  0
LINE
  5
3E8
  8
0
 10
23.1268831478152
 20
-4.907777166733029
 30
0.0
 11
23.12983315200601
 21
-4.917826809877402
 31
0.0
  0
LINE
  5
3E9
  8
0
 10
23.12983315200601
 20
-4.917826809877402
 30
0.0
 11
23.13314951108212
 21
-4.927905838904813
 31
0.0
  0
LINE
  5
3EA
  8
0
 10
23.13314951108212
 20
-4.927905838904813
 30
0.0
 11
23.13683596910333
 21
-4.938012347491239
 31
0.0
  0
LINE
  5
3EB
  8
0
 10
23.13683596910333
 20
-4.938012347491239
 30
0.0
 11
23.14089616388241
 21
-4.948144385918876
 31
0.0
  0
LINE
  5
3EC
  8
0
 10
23.14089616388241
 20
-4.948144385918876
 30
0.0
 11
23.14533362208974
 21
-4.958299961672147
 31
0.0
  0
LINE
  5
3ED
  8
0
 10
23.14533362208974
 20
-4.958299961672147
 30
0.0
 11
23.15015175436652
 21
-4.968477040096762
 31
0.0
  0
LINE
  5
3EE
  8
0
 10
23.15015175436652
 20
-4.968477040096762
 30
0.0
 11
23.15535385045425
 21
-4.978673545122535
 31
0.0
  0
LINE
  5
3EF
  8
0
 10
23.15535385045425
 20
-4.978673545122535
 30
0.0
 11
23.16094307434895
 21
-4.988887360050573
 31
0.0
  0
LINE
  5
3F0
  8
0
 10
23.16094307434895
 20
-4.988887360050573
 30
0.0
 11
23.16692245948855
 21
-4.999116328405306
 31
0.0
  0
LINE
  5
3F1
  8
0
 10
23.16692245948855
 20
-4.999116328405306
 30
0.0
 11
23.17329490398206
 21
-5.009358254851701
 31
0.0
  0
LINE
  5
3F2
  8
0
 10
23.17329490398206
 20
-5.009358254851701
 30
0.0
 11
23.18006316588951
 21
-5.019610906177903
 31
0.0
  0
LINE
  5
3F3
  8
0
 10
23.18006316588951
 20
-5.019610906177903
 30
0.0
 11
23.18722985856133
 21
-5.029872012343356
 31
0.0
  0
LINE
  5
3F4
  8
0
 10
23.18722985856133
 20
-5.029872012343356
 30
0.0
 11
23.19479744604671
 21
-5.040139267592394
 31
0.0
  0
LINE
  5
3F5
  8
0
 10
23.19479744604671
 20
-5.040139267592394
 30
0.0
 11
23.20276823857977
 21
-5.050410331633061
 31
0.0
  0
LINE
  5
3F6
  8
0
 10
23.20276823857977
 20
-5.050410331633061
 30
0.0
 11
23.2111443881532
 21
-5.060682830880843
 31
0.0
  0
LINE
  5
3F7
  8
0
 10
23.2111443881532
 20
-5.060682830880843
 30
0.0
 11
23.21992788418848
 21
-5.070954359766803
 31
0.0
  0
LINE
  5
3F8
  8
0
 10
23.21992788418848
 20
-5.070954359766803
 30
0.0
 11
23.22912054931224
 21
-5.081222482109456
 31
0.0
  0
LINE
  5
3F9
  8
0
 10
23.22912054931224
 20
-5.081222482109456
 30
0.0
 11
23.23872403524828
 21
-5.091484732549581
 31
0.0
  0
LINE
  5
3FA
  8
0
 10
23.23872403524828
 20
-5.091484732549581
 30
0.0
 11
23.24873981883444
 21
-5.101738618047013
 31
0.0
  0
LINE
  5
3FB
  8
0
 10
23.24873981883444
 20
-5.101738618047013
 30
0.0
 11
23.25916919817402
 21
-5.111981619438221
 31
0.0
  0
LINE
  5
3FC
  8
0
 10
23.25916919817402
 20
-5.111981619438221
 30
0.0
 11
23.27001328893078
 21
-5.122211193053454
 31
0.0
  0
LINE
  5
3FD
  8
0
 10
23.27001328893078
 20
-5.122211193053454
 30
0.0
 11
23.28127302077693
 21
-5.132424772391912
 31
0.0
  0
LINE
  5
3FE
  8
0
 10
23.28127302077693
 20
-5.132424772391912
 30
0.0
 11
23.29294913400327
 21
-5.142619769853376
 31
0.0
  0
LINE
  5
3FF
  8
0
 10
23.29294913400327
 20
-5.142619769853376
 30
0.0
 11
23.30504217630023
 21
-5.152793578524446
 31
0.0
  0
LINE
  5
400
  8
0
 10
23.30504217630023
 20
-5.152793578524446
 30
0.0
 11
23.33048025781907
 21
-5.173067116360044
 31
0.0
  0
LINE
  5
401
  8
0
 10
23.33048025781907
 20
-5.173067116360044
 30
0.0
 11
23.357587684136
 21
-5.193224215452731
 31
0.0
  0
LINE
  5
402
  8
0
 10
23.357587684136
 20
-5.193224215452731
 30
0.0
 11
23.38636161824878
 21
-5.213243519087833
 31
0.0
  0
LINE
  5
403
  8
0
 10
23.38636161824878
 20
-5.213243519087833
 30
0.0
 11
23.41679589939707
 21
-5.233103549744205
 31
0.0
  0
LINE
  5
404
  8
0
 10
23.41679589939707
 20
-5.233103549744205
 30
0.0
 11
23.44888098960937
 21
-5.252782776957673
 31
0.0
  0
LINE
  5
405
  8
0
 10
23.44888098960937
 20
-5.252782776957673
 30
0.0
 11
23.48260393557183
 21
-5.272259687190817
 31
0.0
  0
LINE
  5
406
  8
0
 10
23.48260393557183
 20
-5.272259687190817
 30
0.0
 11
23.51794834652689
 21
-5.291512855282002
 31
0.0
  0
LINE
  5
407
  8
0
 10
23.51794834652689
 20
-5.291512855282002
 30
0.0
 11
23.55489438878335
 21
-5.310521017018358
 31
0.0
  0
LINE
  5
408
  8
0
 10
23.55489438878335
 20
-5.310521017018358
 30
0.0
 11
23.59341879728233
 21
-5.329263142353634
 31
0.0
  0
LINE
  5
409
  8
0
 10
23.59341879728233
 20
-5.329263142353634
 30
0.0
 11
23.63349490451552
 21
-5.347718508773
 31
0.0
  0
LINE
  5
40A
  8
0
 10
23.63349490451552
 20
-5.347718508773
 30
0.0
 11
23.67509268693808
 21
-5.365866774293658
 31
0.0
  0
LINE
  5
40B
  8
0
 10
23.67509268693808
 20
-5.365866774293658
 30
0.0
 11
23.71817882885712
 21
-5.383688049582468
 31
0.0
  0
LINE
  5
40C
  8
0
 10
23.71817882885712
 20
-5.383688049582468
 30
0.0
 11
23.76271680361302
 21
-5.401162968670443
 31
0.0
  0
LINE
  5
40D
  8
0
 10
23.76271680361302
 20
-5.401162968670443
 30
0.0
 11
23.80866697170552
 21
-5.418272757748711
 31
0.0
  0
LINE
  5
40E
  8
0
 10
23.80866697170552
 20
-5.418272757748711
 30
0.0
 11
23.9046304688148
 21
-5.451325206770226
 31
0.0
  0
LINE
  5
40F
  8
0
 10
23.9046304688148
 20
-5.451325206770226
 30
0.0
 11
24.00569468793829
 21
-5.482709495133014
 31
0.0
  0
LINE
  5
410
  8
0
 10
24.00569468793829
 20
-5.482709495133014
 30
0.0
 11
24.11144408406199
 21
-5.512303101599157
 31
0.0
  0
LINE
  5
411
  8
0
 10
24.11144408406199
 20
-5.512303101599157
 30
0.0
 11
24.22142787230632
 21
-5.539998473081943
 31
0.0
  0
LINE
  5
412
  8
0
 10
24.22142787230632
 20
-5.539998473081943
 30
0.0
 11
24.33516635670994
 21
-5.565704302126423
 31
0.0
  0
LINE
  5
413
  8
0
 10
24.33516635670994
 20
-5.565704302126423
 30
0.0
 11
24.45215773060569
 21
-5.589346462925162
 31
0.0
  0
LINE
  5
414
  8
0
 10
24.45215773060569
 20
-5.589346462925162
 30
0.0
 11
24.57188515087515
 21
-5.610868587963449
 31
0.0
  0
LINE
  5
415
  8
0
 10
24.57188515087515
 20
-5.610868587963449
 30
0.0
 11
24.69382388457408
 21
-5.630232281004804
 31
0.0
  0
LINE
  5
416
  8
0
 10
24.69382388457408
 20
-5.630232281004804
 30
0.0
 11
24.8174483321048
 21
-5.647416975391347
 31
0.0
  0
LINE
  5
417
  8
0
 10
24.8174483321048
 20
-5.647416975391347
 30
0.0
 11
24.94223874546459
 21
-5.662419458803688
 31
0.0
  0
LINE
  5
418
  8
0
 10
24.94223874546459
 20
-5.662419458803688
 30
0.0
 11
25.06768748176759
 21
-5.67525309608198
 31
0.0
  0
LINE
  5
419
  8
0
 10
25.06768748176759
 20
-5.67525309608198
 30
0.0
 11
25.31862311551529
 21
-5.694543725715032
 31
0.0
  0
LINE
  5
41A
  8
0
 10
25.31862311551529
 20
-5.694543725715032
 30
0.0
 11
25.56663312969777
 21
-5.70568282118519
 31
0.0
  0
LINE
  5
41B
  8
0
 10
25.56663312969777
 20
-5.70568282118519
 30
0.0
 11
25.80857358808863
 21
-5.709244899999709
 31
0.0
  0
LINE
  5
41C
  8
0
 10
25.80857358808863
 20
-5.709244899999709
 30
0.0
 11
26.05051404647947
 21
-5.70568282118519
 31
0.0
  0
LINE
  5
41D
  8
0
 10
26.05051404647947
 20
-5.70568282118519
 30
0.0
 11
26.29852406066197
 21
-5.694543725715032
 31
0.0
  0
LINE
  5
41E
  8
0
 10
26.29852406066197
 20
-5.694543725715032
 30
0.0
 11
26.54945969440967
 21
-5.67525309608198
 31
0.0
  0
LINE
  5
41F
  8
0
 10
26.54945969440967
 20
-5.67525309608198
 30
0.0
 11
26.67490843071266
 21
-5.662419458803688
 31
0.0
  0
LINE
  5
420
  8
0
 10
26.67490843071266
 20
-5.662419458803688
 30
0.0
 11
26.79969884407247
 21
-5.647416975391347
 31
0.0
  0
LINE
  5
421
  8
0
 10
26.79969884407247
 20
-5.647416975391347
 30
0.0
 11
26.92332329160318
 21
-5.630232281004804
 31
0.0
  0
LINE
  5
422
  8
0
 10
26.92332329160318
 20
-5.630232281004804
 30
0.0
 11
27.04526202530211
 21
-5.610868587963449
 31
0.0
  0
LINE
  5
423
  8
0
 10
27.04526202530211
 20
-5.610868587963449
 30
0.0
 11
27.16498944557156
 21
-5.589346462925162
 31
0.0
  0
LINE
  5
424
  8
0
 10
27.16498944557156
 20
-5.589346462925162
 30
0.0
 11
27.28198081946731
 21
-5.565704302126423
 31
0.0
  0
LINE
  5
425
  8
0
 10
27.28198081946731
 20
-5.565704302126423
 30
0.0
 11
27.39571930387092
 21
-5.539998473081943
 31
0.0
  0
LINE
  5
426
  8
0
 10
27.39571930387092
 20
-5.539998473081943
 30
0.0
 11
27.50570309211526
 21
-5.512303101599157
 31
0.0
  0
LINE
  5
427
  8
0
 10
27.50570309211526
 20
-5.512303101599157
 30
0.0
 11
27.61145248823896
 21
-5.482709495133014
 31
0.0
  0
LINE
  5
428
  8
0
 10
27.61145248823896
 20
-5.482709495133014
 30
0.0
 11
27.71251670736244
 21
-5.451325206770226
 31
0.0
  0
LINE
  5
429
  8
0
 10
27.71251670736244
 20
-5.451325206770226
 30
0.0
 11
27.80848020447174
 21
-5.418272757748711
 31
0.0
  0
LINE
  5
42A
  8
0
 10
27.80848020447174
 20
-5.418272757748711
 30
0.0
 11
27.85443037256424
 21
-5.401162968670443
 31
0.0
  0
LINE
  5
42B
  8
0
 10
27.85443037256424
 20
-5.401162968670443
 30
0.0
 11
27.89896834732014
 21
-5.383688049582468
 31
0.0
  0
LINE
  5
42C
  8
0
 10
27.89896834732014
 20
-5.383688049582468
 30
0.0
 11
27.94205448923917
 21
-5.365866774293658
 31
0.0
  0
LINE
  5
42D
  8
0
 10
27.94205448923917
 20
-5.365866774293658
 30
0.0
 11
27.98365227166173
 21
-5.347718508773
 31
0.0
  0
LINE
  5
42E
  8
0
 10
27.98365227166173
 20
-5.347718508773
 30
0.0
 11
28.02372837889491
 21
-5.329263142353634
 31
0.0
  0
LINE
  5
42F
  8
0
 10
28.02372837889491
 20
-5.329263142353634
 30
0.0
 11
28.06225278739388
 21
-5.310521017018358
 31
0.0
  0
LINE
  5
430
  8
0
 10
28.06225278739388
 20
-5.310521017018358
 30
0.0
 11
28.09919882965037
 21
-5.291512855282002
 31
0.0
  0
LINE
  5
431
  8
0
 10
28.09919882965037
 20
-5.291512855282002
 30
0.0
 11
28.13454324060541
 21
-5.272259687190817
 31
0.0
  0
LINE
  5
432
  8
0
 10
28.13454324060541
 20
-5.272259687190817
 30
0.0
 11
28.16826618656789
 21
-5.252782776957673
 31
0.0
  0
LINE
  5
433
  8
0
 10
28.16826618656789
 20
-5.252782776957673
 30
0.0
 11
28.20035127678018
 21
-5.233103549744205
 31
0.0
  0
LINE
  5
434
  8
0
 10
28.20035127678018
 20
-5.233103549744205
 30
0.0
 11
28.23078555792847
 21
-5.213243519087833
 31
0.0
  0
LINE
  5
435
  8
0
 10
28.23078555792847
 20
-5.213243519087833
 30
0.0
 11
28.25955949204124
 21
-5.193224215452731
 31
0.0
  0
LINE
  5
436
  8
0
 10
28.25955949204124
 20
-5.193224215452731
 30
0.0
 11
28.28666691835818
 21
-5.173067116360044
 31
0.0
  0
LINE
  5
437
  8
0
 10
28.28666691835818
 20
-5.173067116360044
 30
0.0
 11
28.31210499987703
 21
-5.152793578524446
 31
0.0
  0
LINE
  5
438
  8
0
 10
28.31210499987703
 20
-5.152793578524446
 30
0.0
 11
28.32419804217398
 21
-5.142619769853376
 31
0.0
  0
LINE
  5
439
  8
0
 10
28.32419804217398
 20
-5.142619769853376
 30
0.0
 11
28.33587415540033
 21
-5.132424772391912
 31
0.0
  0
LINE
  5
43A
  8
0
 10
28.33587415540033
 20
-5.132424772391912
 30
0.0
 11
28.34713388724649
 21
-5.122211193053454
 31
0.0
  0
LINE
  5
43B
  8
0
 10
28.34713388724649
 20
-5.122211193053454
 30
0.0
 11
28.35797797800323
 21
-5.111981619438221
 31
0.0
  0
LINE
  5
43C
  8
0
 10
28.35797797800323
 20
-5.111981619438221
 30
0.0
 11
28.3684073573428
 21
-5.101738618047013
 31
0.0
  0
LINE
  5
43D
  8
0
 10
28.3684073573428
 20
-5.101738618047013
 30
0.0
 11
28.37842314092897
 21
-5.091484732549581
 31
0.0
  0
LINE
  5
43E
  8
0
 10
28.37842314092897
 20
-5.091484732549581
 30
0.0
 11
28.38802662686501
 21
-5.081222482109456
 31
0.0
  0
LINE
  5
43F
  8
0
 10
28.38802662686501
 20
-5.081222482109456
 30
0.0
 11
28.39721929198877
 21
-5.070954359766803
 31
0.0
  0
LINE
  5
440
  8
0
 10
28.39721929198877
 20
-5.070954359766803
 30
0.0
 11
28.40600278802405
 21
-5.060682830880843
 31
0.0
  0
LINE
  5
441
  8
0
 10
28.40600278802405
 20
-5.060682830880843
 30
0.0
 11
28.41437893759749
 21
-5.050410331633061
 31
0.0
  0
LINE
  5
442
  8
0
 10
28.41437893759749
 20
-5.050410331633061
 30
0.0
 11
28.42234973013055
 21
-5.040139267592394
 31
0.0
  0
LINE
  5
443
  8
0
 10
28.42234973013055
 20
-5.040139267592394
 30
0.0
 11
28.42991731761592
 21
-5.029872012343356
 31
0.0
  0
LINE
  5
444
  8
0
 10
28.42991731761592
 20
-5.029872012343356
 30
0.0
 11
28.43708401028774
 21
-5.019610906177903
 31
0.0
  0
LINE
  5
445
  8
0
 10
28.43708401028774
 20
-5.019610906177903
 30
0.0
 11
28.44385227219518
 21
-5.009358254851701
 31
0.0
  0
LINE
  5
446
  8
0
 10
28.44385227219518
 20
-5.009358254851701
 30
0.0
 11
28.4502247166887
 21
-4.999116328405306
 31
0.0
  0
LINE
  5
447
  8
0
 10
28.4502247166887
 20
-4.999116328405306
 30
0.0
 11
28.45620410182829
 21
-4.988887360050573
 31
0.0
  0
LINE
  5
448
  8
0
 10
28.45620410182829
 20
-4.988887360050573
 30
0.0
 11
28.46179332572299
 21
-4.978673545122535
 31
0.0
  0
LINE
  5
449
  8
0
 10
28.46179332572299
 20
-4.978673545122535
 30
0.0
 11
28.46699542181072
 21
-4.968477040096762
 31
0.0
  0
LINE
  5
44A
  8
0
 10
28.46699542181072
 20
-4.968477040096762
 30
0.0
 11
28.47181355408751
 21
-4.958299961672147
 31
0.0
  0
LINE
  5
44B
  8
0
 10
28.47181355408751
 20
-4.958299961672147
 30
0.0
 11
28.47625101229484
 21
-4.948144385918876
 31
0.0
  0
LINE
  5
44C
  8
0
 10
28.47625101229484
 20
-4.948144385918876
 30
0.0
 11
28.48031120707391
 21
-4.938012347491239
 31
0.0
  0
LINE
  5
44D
  8
0
 10
28.48031120707391
 20
-4.938012347491239
 30
0.0
 11
28.48399766509513
 21
-4.927905838904813
 31
0.0
  0
LINE
  5
44E
  8
0
 10
28.48399766509513
 20
-4.927905838904813
 30
0.0
 11
28.48731402417124
 21
-4.917826809877402
 31
0.0
  0
LINE
  5
44F
  8
0
 10
28.48731402417124
 20
-4.917826809877402
 30
0.0
 11
28.49026402836204
 21
-4.907777166733029
 31
0.0
  0
LINE
  5
450
  8
0
 10
28.49026402836204
 20
-4.907777166733029
 30
0.0
 11
28.4928515230786
 21
-4.89775877186818
 31
0.0
  0
LINE
  5
451
  8
0
 10
28.4928515230786
 20
-4.89775877186818
 30
0.0
 11
28.49508045019435
 21
-4.887773443279355
 31
0.0
  0
LINE
  5
452
  8
0
 10
28.49508045019435
 20
-4.887773443279355
 30
0.0
 11
28.49695484317064
 21
-4.87782295415092
 31
0.0
  0
LINE
  5
453
  8
0
 10
28.49695484317064
 20
-4.87782295415092
 30
0.0
 11
28.49847882220354
 21
-4.867909032502158
 31
0.0
  0
LINE
  5
454
  8
0
 10
28.49847882220354
 20
-4.867909032502158
 30
0.0
 11
28.49965658939879
 21
-4.858033360892326
 31
0.0
  0
LINE
  5
455
  8
0
 10
28.49965658939879
 20
-4.858033360892326
 30
0.0
 11
28.50049242398132
 21
-4.848197576182432
 31
0.0
  0
LINE
  5
456
  8
0
 10
28.50049242398132
 20
-4.848197576182432
 30
0.0
 11
28.50099067754558
 21
-4.838403269352454
 31
0.0
  0
LINE
  5
457
  8
0
 10
28.50099067754558
 20
-4.838403269352454
 30
0.0
 11
28.50115576935259
 21
-4.828651985372499
 31
0.0
  0
ARC
  5
458
  8
0
 10
-15.01875742206294
 20
1.113054402193892
 30
0.0
 40
16.34245466920672
 50
341.5590901302771
 51
18.44090986972289
  0
ARC
  5
459
  8
0
 10
66.41544909211164
 20
1.192015377362999
 30
0.0
 40
16.53001185009301
 50
161.7037763450446
 51
198.2962236549552
  0
LINE
  5
45A
  8
0
 10
46.8161127919403
 20
11.05627485325238
 30
0.0
 11
46.8077156438985
 21
-8.71737489198388
 31
0.0
  0
LINE
  5
45B
  8
0
 10
4.446816354230965
 20
11.0602230179997
 30
0.0
 11
4.438417529550236
 21
-8.717374891984255
 31
0.0
  0
LINE
  5
45C
  8
0
 10
21.4531251645822
 20
20.1080063318756
 30
0.0
 11
25.8464753717389
 21
17.82870459794456
 31
0.0
  0
LINE
  5
45D
  8
0
 10
25.8464753717389
 20
17.82870459794456
 30
0.0
 11
30.13537777822604
 21
20.10800633187561
 31
0.0
  0
LINE
  5
45E
  8
0
 10
25.8464753717389
 20
17.82870459794456
 30
0.0
 11
25.85280230791231
 21
10.02053364203508
 31
0.0
  0
ARC
  5
45F
  8
0
 10
15.68904238271298
 20
8.142926362344326
 30
0.0
 40
8.662254926676146
 50
160.3190280879143
 51
175.986263219158
  0
LINE
  5
460
  8
0
 10
14.45405839057597
 20
16.0772964051834
 30
0.0
 11
14.68797699232888
 21
16.07059494251863
 31
0.0
  0
LINE
  5
461
  8
0
 10
7.53281522553436
 20
11.06022288056538
 30
0.0
 11
7.589603451811366
 21
11.20676774902155
 31
0.0
  0
LINE
  5
462
  8
0
 10
7.589603451811366
 20
11.20676774902155
 30
0.0
 11
7.660841537776913
 21
11.37838951179565
 31
0.0
  0
LINE
  5
463
  8
0
 10
7.660841537776913
 20
11.37838951179565
 30
0.0
 11
7.736429799036001
 21
11.54871200800012
 31
0.0
  0
LINE
  5
464
  8
0
 10
7.736429799036001
 20
11.54871200800012
 30
0.0
 11
7.816582013588187
 21
11.71885451709756
 31
0.0
  0
LINE
  5
465
  8
0
 10
7.816582013588187
 20
11.71885451709756
 30
0.0
 11
7.901609177373999
 21
11.88987131263499
 31
0.0
  0
LINE
  5
466
  8
0
 10
7.901609177373999
 20
11.88987131263499
 30
0.0
 11
7.991939078283082
 21
12.06269568715992
 31
0.0
  0
LINE
  5
467
  8
0
 10
7.991939078283082
 20
12.06269568715992
 30
0.0
 11
8.088138003167405
 21
12.23808122797943
 31
0.0
  0
LINE
  5
468
  8
0
 10
8.088138003167405
 20
12.23808122797943
 30
0.0
 11
8.190939526994455
 21
12.41653585221673
 31
0.0
  0
LINE
  5
469
  8
0
 10
8.190939526994455
 20
12.41653585221673
 30
0.0
 11
8.301258611242886
 21
12.59827180761587
 31
0.0
  0
LINE
  5
46A
  8
0
 10
8.301258611242886
 20
12.59827180761587
 30
0.0
 11
8.420160526290333
 21
12.78320429923343
 31
0.0
  0
LINE
  5
46B
  8
0
 10
8.420160526290333
 20
12.78320429923343
 30
0.0
 11
8.548806790233147
 21
12.97097514070406
 31
0.0
  0
LINE
  5
46C
  8
0
 10
8.548806790233147
 20
12.97097514070406
 30
0.0
 11
8.688387205474935
 21
13.16099206507838
 31
0.0
  0
LINE
  5
46D
  8
0
 10
8.688387205474935
 20
13.16099206507838
 30
0.0
 11
8.762639411478384
 21
13.25660445079028
 31
0.0
  0
LINE
  5
46E
  8
0
 10
8.762639411478384
 20
13.25660445079028
 30
0.0
 11
8.840047467355298
 21
13.35247186997053
 31
0.0
  0
LINE
  5
46F
  8
0
 10
8.840047467355298
 20
13.35247186997053
 30
0.0
 11
8.920736120168616
 21
13.44847282571311
 31
0.0
  0
LINE
  5
470
  8
0
 10
8.920736120168616
 20
13.44847282571311
 30
0.0
 11
9.004818626345468
 21
13.54447853138161
 31
0.0
  0
LINE
  5
471
  8
0
 10
9.004818626345468
 20
13.54447853138161
 30
0.0
 11
9.092394702667573
 21
13.6403540698766
 31
0.0
  0
LINE
  5
472
  8
0
 10
9.092394702667573
 20
13.6403540698766
 30
0.0
 11
9.183548513890727
 21
13.73595956296288
 31
0.0
  0
LINE
  5
473
  8
0
 10
9.183548513890727
 20
13.73595956296288
 30
0.0
 11
9.278346655195124
 21
13.83115134181722
 31
0.0
  0
LINE
  5
474
  8
0
 10
9.278346655195124
 20
13.83115134181722
 30
0.0
 11
9.376835963608587
 21
13.92578313925329
 31
0.0
  0
LINE
  5
475
  8
0
 10
9.376835963608587
 20
13.92578313925329
 30
0.0
 11
9.479040895284125
 21
14.01970733697304
 31
0.0
  0
LINE
  5
476
  8
0
 10
9.479040895284125
 20
14.01970733697304
 30
0.0
 11
9.584960731750389
 21
14.11277623449513
 31
0.0
  0
LINE
  5
477
  8
0
 10
9.584960731750389
 20
14.11277623449513
 30
0.0
 11
9.694566801406197
 21
14.20484331465592
 31
0.0
  0
LINE
  5
478
  8
0
 10
9.694566801406197
 20
14.20484331465592
 30
0.0
 11
9.807800268388512
 21
14.29576439831861
 31
0.0
  0
LINE
  5
479
  8
0
 10
9.807800268388512
 20
14.29576439831861
 30
0.0
 11
9.924571361695975
 21
14.38539851784148
 31
0.0
  0
LINE
  5
47A
  8
0
 10
9.924571361695975
 20
14.38539851784148
 30
0.0
 11
10.04475917168586
 21
14.47360867975438
 31
0.0
  0
LINE
  5
47B
  8
0
 10
10.04475917168586
 20
14.47360867975438
 30
0.0
 11
10.16821149690663
 21
14.56026261756311
 31
0.0
  0
LINE
  5
47C
  8
0
 10
10.16821149690663
 20
14.56026261756311
 30
0.0
 11
10.29474543228342
 21
14.64523339867408
 31
0.0
  0
LINE
  5
47D
  8
0
 10
10.29474543228342
 20
14.64523339867408
 30
0.0
 11
10.42414983919918
 21
14.72839966100844
 31
0.0
  0
LINE
  5
47E
  8
0
 10
10.42414983919918
 20
14.72839966100844
 30
0.0
 11
10.55618855692872
 21
14.80964570373639
 31
0.0
  0
LINE
  5
47F
  8
0
 10
10.55618855692872
 20
14.80964570373639
 30
0.0
 11
10.69060363450485
 21
14.88886157391807
 31
0.0
  0
LINE
  5
480
  8
0
 10
10.69060363450485
 20
14.88886157391807
 30
0.0
 11
10.82711835246501
 21
14.96594319259492
 31
0.0
  0
LINE
  5
481
  8
0
 10
10.82711835246501
 20
14.96594319259492
 30
0.0
 11
10.96543971121798
 21
15.04079258102461
 31
0.0
  0
LINE
  5
482
  8
0
 10
10.96543971121798
 20
15.04079258102461
 30
0.0
 11
11.10526070929103
 21
15.11331812636654
 31
0.0
  0
LINE
  5
483
  8
0
 10
11.10526070929103
 20
15.11331812636654
 30
0.0
 11
11.3881173437681
 21
15.251064667601
 31
0.0
  0
LINE
  5
484
  8
0
 10
11.3881173437681
 20
15.251064667601
 30
0.0
 11
11.6730417983463
 21
15.378587340399
 31
0.0
  0
LINE
  5
485
  8
0
 10
11.6730417983463
 20
15.378587340399
 30
0.0
 11
11.95732265132679
 21
15.49540942732101
 31
0.0
  0
LINE
  5
486
  8
0
 10
11.95732265132679
 20
15.49540942732101
 30
0.0
 11
12.23826710087641
 21
15.60118107782273
 31
0.0
  0
LINE
  5
487
  8
0
 10
12.23826710087641
 20
15.60118107782273
 30
0.0
 11
12.51327821532514
 21
15.69568685117491
 31
0.0
  0
LINE
  5
488
  8
0
 10
12.51327821532514
 20
15.69568685117491
 30
0.0
 11
12.77993399899372
 21
15.77885472961824
 31
0.0
  0
LINE
  5
489
  8
0
 10
12.77993399899372
 20
15.77885472961824
 30
0.0
 11
13.03607714291184
 21
15.85076930506307
 31
0.0
  0
LINE
  5
48A
  8
0
 10
13.03607714291184
 20
15.85076930506307
 30
0.0
 11
13.27989770680182
 21
15.91168202751161
 31
0.0
  0
LINE
  5
48B
  8
0
 10
13.27989770680182
 20
15.91168202751161
 30
0.0
 11
13.50998572915712
 21
15.96200924469455
 31
0.0
  0
LINE
  5
48C
  8
0
 10
13.50998572915712
 20
15.96200924469455
 30
0.0
 11
13.72534449587456
 21
16.00231378154354
 31
0.0
  0
LINE
  5
48D
  8
0
 10
13.72534449587456
 20
16.00231378154354
 30
0.0
 11
13.92533289894399
 21
16.03325647365285
 31
0.0
  0
LINE
  5
48E
  8
0
 10
13.92533289894399
 20
16.03325647365285
 30
0.0
 11
14.10958587126561
 21
16.0555383851572
 31
0.0
  0
LINE
  5
48F
  8
0
 10
14.10958587126561
 20
16.0555383851572
 30
0.0
 11
14.19575666341013
 21
16.0636487852631
 31
0.0
  0
LINE
  5
490
  8
0
 10
14.19575666341013
 20
16.0636487852631
 30
0.0
 11
14.2779487142482
 21
16.06984885045272
 31
0.0
  0
LINE
  5
491
  8
0
 10
14.2779487142482
 20
16.06984885045272
 30
0.0
 11
14.35616542084479
 21
16.07421464009651
 31
0.0
  0
LINE
  5
492
  8
0
 10
14.35616542084479
 20
16.07421464009651
 30
0.0
 11
14.45405839056887
 21
16.07729640518328
 31
0.0
  0
LINE
  5
493
  8
0
 10
36.43779823171175
 20
16.01999482892711
 30
0.0
 11
36.75308020317767
 21
16.01588112707866
 31
0.0
  0
LINE
  5
494
  8
0
 10
36.75308020317767
 20
16.01588112707866
 30
0.0
 11
37.07056303004055
 21
16.00566569625472
 31
0.0
  0
LINE
  5
495
  8
0
 10
37.07056303004055
 20
16.00566569625472
 30
0.0
 11
37.38827629583105
 21
15.98935157518294
 31
0.0
  0
LINE
  5
496
  8
0
 10
37.38827629583105
 20
15.98935157518294
 30
0.0
 11
37.70106753476566
 21
15.96699393545219
 31
0.0
  0
LINE
  5
497
  8
0
 10
37.70106753476566
 20
15.96699393545219
 30
0.0
 11
37.99898264990028
 21
15.93874431876164
 31
0.0
  0
LINE
  5
498
  8
0
 10
37.99898264990028
 20
15.93874431876164
 30
0.0
 11
38.13746820311441
 21
15.92250270135567
 31
0.0
  0
LINE
  5
499
  8
0
 10
38.13746820311441
 20
15.92250270135567
 30
0.0
 11
38.26615483201819
 21
15.90483801128785
 31
0.0
  0
LINE
  5
49A
  8
0
 10
38.26615483201819
 20
15.90483801128785
 30
0.0
 11
38.38399241724619
 21
15.88557913172965
 31
0.0
  0
LINE
  5
49B
  8
0
 10
38.38399241724619
 20
15.88557913172965
 30
0.0
 11
38.43898189194853
 21
15.87524199446498
 31
0.0
  0
LINE
  5
49C
  8
0
 10
38.43898189194853
 20
15.87524199446498
 30
0.0
 11
38.4916206741811
 21
15.86435338860545
 31
0.0
  0
LINE
  5
49D
  8
0
 10
38.4916206741811
 20
15.86435338860545
 30
0.0
 11
38.54219183186807
 21
15.85284652388481
 31
0.0
  0
LINE
  5
49E
  8
0
 10
38.54219183186807
 20
15.85284652388481
 30
0.0
 11
38.59101865741462
 21
15.84065282748911
 31
0.0
  0
LINE
  5
49F
  8
0
 10
38.59101865741462
 20
15.84065282748911
 30
0.0
 11
38.63845453783496
 21
15.82770378536443
 31
0.0
  0
LINE
  5
4A0
  8
0
 10
38.63845453783496
 20
15.82770378536443
 30
0.0
 11
38.6848767564037
 21
15.81393227894791
 31
0.0
  0
LINE
  5
4A1
  8
0
 10
38.6848767564037
 20
15.81393227894791
 30
0.0
 11
38.73068036311911
 21
15.79927391626017
 31
0.0
  0
LINE
  5
4A2
  8
0
 10
38.73068036311911
 20
15.79927391626017
 30
0.0
 11
38.7762699027565
 21
15.78366872096646
 31
0.0
  0
LINE
  5
4A3
  8
0
 10
38.7762699027565
 20
15.78366872096646
 30
0.0
 11
38.86838802913937
 21
15.74941594992315
 31
0.0
  0
LINE
  5
4A4
  8
0
 10
38.86838802913937
 20
15.74941594992315
 30
0.0
 11
39.06555706191627
 21
15.66802197965292
 31
0.0
  0
LINE
  5
4A5
  8
0
 10
39.06555706191627
 20
15.66802197965292
 30
0.0
 11
40.09711174060877
 21
15.2119633676361
 31
0.0
  0
LINE
  5
4A6
  8
0
 10
40.09711174060877
 20
15.2119633676361
 30
0.0
 11
40.23837290614134
 21
15.14520150443568
 31
0.0
  0
LINE
  5
4A7
  8
0
 10
40.23837290614134
 20
15.14520150443568
 30
0.0
 11
40.37877232662616
 21
15.07528116967306
 31
0.0
  0
LINE
  5
4A8
  8
0
 10
40.37877232662616
 20
15.07528116967306
 30
0.0
 11
40.51806538100416
 21
15.00090510389713
 31
0.0
  0
LINE
  5
4A9
  8
0
 10
40.51806538100416
 20
15.00090510389713
 30
0.0
 11
40.58733134713306
 21
14.96154981754428
 31
0.0
  0
LINE
  5
4AA
  8
0
 10
40.58733134713306
 20
14.96154981754428
 30
0.0
 11
40.65640422298659
 21
14.92045518313456
 31
0.0
  0
LINE
  5
4AB
  8
0
 10
40.65640422298659
 20
14.92045518313456
 30
0.0
 11
40.72534989451623
 21
14.87738934351926
 31
0.0
  0
LINE
  5
4AC
  8
0
 10
40.72534989451623
 20
14.87738934351926
 30
0.0
 11
40.79424661827893
 21
14.83211676739038
 31
0.0
  0
LINE
  5
4AD
  8
0
 10
40.79424661827893
 20
14.83211676739038
 30
0.0
 11
40.86318231347643
 21
14.78440199305366
 31
0.0
  0
LINE
  5
4AE
  8
0
 10
40.86318231347643
 20
14.78440199305366
 30
0.0
 11
40.93225207528546
 21
14.73401318379905
 31
0.0
  0
LINE
  5
4AF
  8
0
 10
40.93225207528546
 20
14.73401318379905
 30
0.0
 11
41.00155569198559
 21
14.68072568123326
 31
0.0
  0
LINE
  5
4B0
  8
0
 10
41.00155569198559
 20
14.68072568123326
 30
0.0
 11
41.07119503953663
 21
14.62432569402929
 31
0.0
  0
LINE
  5
4B1
  8
0
 10
41.07119503953663
 20
14.62432569402929
 30
0.0
 11
41.14127116506647
 21
14.56461433042667
 31
0.0
  0
LINE
  5
4B2
  8
0
 10
41.14127116506647
 20
14.56461433042667
 30
0.0
 11
41.21188124780835
 21
14.50141176614873
 31
0.0
  0
LINE
  5
4B3
  8
0
 10
41.21188124780835
 20
14.50141176614873
 30
0.0
 11
41.28311556013148
 21
14.43456141106821
 31
0.0
  0
LINE
  5
4B4
  8
0
 10
41.28311556013148
 20
14.43456141106821
 30
0.0
 11
41.35505455354416
 21
14.36393390791586
 31
0.0
  0
LINE
  5
4B5
  8
0
 10
41.35505455354416
 20
14.36393390791586
 30
0.0
 11
41.42776626193523
 21
14.28943070463608
 31
0.0
  0
LINE
  5
4B6
  8
0
 10
41.42776626193523
 20
14.28943070463608
 30
0.0
 11
41.50130382978816
 21
14.21098745878553
 31
0.0
  0
LINE
  5
4B7
  8
0
 10
41.50130382978816
 20
14.21098745878553
 30
0.0
 11
41.65097955932644
 21
14.0422154013118
 31
0.0
  0
LINE
  5
4B8
  8
0
 10
41.65097955932644
 20
14.0422154013118
 30
0.0
 11
41.80410627074805
 21
13.85793069443926
 31
0.0
  0
LINE
  5
4B9
  8
0
 10
41.80410627074805
 20
13.85793069443926
 30
0.0
 11
41.96027596920078
 21
13.65926866424016
 31
0.0
  0
LINE
  5
4BA
  8
0
 10
41.96027596920078
 20
13.65926866424016
 30
0.0
 11
42.11857338847732
 21
13.44828798922068
 31
0.0
  0
LINE
  5
4BB
  8
0
 10
42.11857338847732
 20
13.44828798922068
 30
0.0
 11
42.43557030218706
 21
13.00175851243941
 31
0.0
  0
LINE
  5
4BC
  8
0
 10
42.43557030218706
 20
13.00175851243941
 30
0.0
 11
42.7398747011995
 21
12.54893195968361
 31
0.0
  0
LINE
  5
4BD
  8
0
 10
42.7398747011995
 20
12.54893195968361
 30
0.0
 11
43.24105073888358
 21
11.7621187491669
 31
0.0
  0
LINE
  5
4BE
  8
0
 10
43.24105073888358
 20
11.7621187491669
 30
0.0
 11
43.51997472987294
 21
11.29932399460952
 31
0.0
  0
LINE
  5
4BF
  8
0
 10
43.51997472987294
 20
11.29932399460952
 30
0.0
 11
43.58031531082723
 21
11.1919081729582
 31
0.0
  0
LINE
  5
4C0
  8
0
 10
43.58031531082723
 20
11.1919081729582
 30
0.0
 11
43.64888207500067
 21
11.05606996770955
 31
0.0
  0
LINE
  5
4C1
  8
0
 10
43.64888207500067
 20
11.05606996770955
 30
0.0
 11
43.75046980811668
 21
10.84508557269722
 31
0.0
  0
LINE
  5
4C2
  8
0
 10
43.75046980811668
 20
10.84508557269722
 30
0.0
 11
43.79538941076802
 21
10.74418574702167
 31
0.0
  0
LINE
  5
4C3
  8
0
 10
43.79538941076802
 20
10.74418574702167
 30
0.0
 11
43.83653439641948
 21
10.64417197692295
 31
0.0
  0
LINE
  5
4C4
  8
0
 10
43.83653439641948
 20
10.64417197692295
 30
0.0
 11
43.85573791976819
 21
10.59379154423947
 31
0.0
  0
LINE
  5
4C5
  8
0
 10
43.85573791976819
 20
10.59379154423947
 30
0.0
 11
43.87405755544698
 21
10.54273036360998
 31
0.0
  0
LINE
  5
4C6
  8
0
 10
43.87405755544698
 20
10.54273036360998
 30
0.0
 11
43.89151702229159
 21
10.49063595093994
 31
0.0
  0
LINE
  5
4C7
  8
0
 10
43.89151702229159
 20
10.49063595093994
 30
0.0
 11
43.90814155510331
 21
10.43713659738252
 31
0.0
  0
LINE
  5
4C8
  8
0
 10
43.90814155510331
 20
10.43713659738252
 30
0.0
 11
43.92395773607139
 21
10.38184445594499
 31
0.0
  0
LINE
  5
4C9
  8
0
 10
43.92395773607139
 20
10.38184445594499
 30
0.0
 11
43.93899332619544
 21
10.32435862809498
 31
0.0
  0
LINE
  5
4CA
  8
0
 10
43.93899332619544
 20
10.32435862809498
 30
0.0
 11
43.95327709670772
 21
10.26426825036674
 31
0.0
  0
LINE
  5
4CB
  8
0
 10
43.95327709670772
 20
10.26426825036674
 30
0.0
 11
43.96683866049561
 21
10.20115558096746
 31
0.0
  0
LINE
  5
4CC
  8
0
 10
43.96683866049561
 20
10.20115558096746
 30
0.0
 11
43.97970830323212
 21
10.1345990939061
 31
0.0
  0
LINE
  5
4CD
  8
0
 10
43.97970830323212
 20
10.1345990939061
 30
0.0
 11
43.99191680691875
 21
10.06417676870848
 31
0.0
  0
LINE
  5
4CE
  8
0
 10
43.99191680691875
 20
10.06417676870848
 30
0.0
 11
44.01447482489374
 21
9.910066962397407
 31
0.0
  0
LINE
  5
4CF
  8
0
 10
44.01447482489374
 20
9.910066962397407
 30
0.0
 11
44.03476132138012
 21
9.735587549987459
 31
0.0
  0
LINE
  5
4D0
  8
0
 10
44.03476132138012
 20
9.735587549987459
 30
0.0
 11
44.05301994507862
 21
9.53774395356831
 31
0.0
  0
LINE
  5
4D1
  8
0
 10
44.05301994507862
 20
9.53774395356831
 30
0.0
 11
44.08436570070555
 21
9.061941295088793
 31
0.0
  0
LINE
  5
4D2
  8
0
 10
44.08436570070555
 20
9.061941295088793
 30
0.0
 11
44.15000061238206
 21
6.904161110276419
 31
0.0
  0
LINE
  5
4D3
  8
0
 10
44.15000061238206
 20
6.904161110276419
 30
0.0
 11
44.19804974155606
 21
-4.488714403250079
 31
0.0
  0
LINE
  5
4D4
  8
0
 10
44.19804974155606
 20
-4.488714403250079
 30
0.0
 11
44.1385830131968
 21
-6.858707565033799
 31
0.0
  0
LINE
  5
4D5
  8
0
 10
44.1385830131968
 20
-6.858707565033799
 30
0.0
 11
44.10758349883082
 21
-7.391194455756809
 31
0.0
  0
LINE
  5
4D6
  8
0
 10
44.10758349883082
 20
-7.391194455756809
 30
0.0
 11
44.08992885632281
 21
-7.610735105009901
 31
0.0
  0
LINE
  5
4D7
  8
0
 10
44.08992885632281
 20
-7.610735105009901
 30
0.0
 11
44.07085794462272
 21
-7.801396643009752
 31
0.0
  0
LINE
  5
4D8
  8
0
 10
44.07085794462272
 20
-7.801396643009752
 30
0.0
 11
44.05040002032722
 21
-7.96549464882072
 31
0.0
  0
LINE
  5
4D9
  8
0
 10
44.05040002032722
 20
-7.96549464882072
 30
0.0
 11
44.02859285536374
 21
-8.105705439216354
 31
0.0
  0
LINE
  5
4DA
  8
0
 10
44.02859285536374
 20
-8.105705439216354
 30
0.0
 11
44.01719684680111
 21
-8.167758014250019
 31
0.0
  0
LINE
  5
4DB
  8
0
 10
44.01719684680111
 20
-8.167758014250019
 30
0.0
 11
44.0054803276884
 21
-8.224943744490831
 31
0.0
  0
LINE
  5
4DC
  8
0
 10
44.0054803276884
 20
-8.224943744490831
 30
0.0
 11
43.99344934263312
 21
-8.277644142169528
 31
0.0
  0
LINE
  5
4DD
  8
0
 10
43.99344934263312
 20
-8.277644142169528
 30
0.0
 11
43.98111001855492
 21
-8.326240308538807
 31
0.0
  0
LINE
  5
4DE
  8
0
 10
43.98111001855492
 20
-8.326240308538807
 30
0.0
 11
43.96846849033472
 21
-8.37110910041062
 31
0.0
  0
LINE
  5
4DF
  8
0
 10
43.96846849033472
 20
-8.37110910041062
 30
0.0
 11
43.95553082646386
 21
-8.412619296693494
 31
0.0
  0
LINE
  5
4E0
  8
0
 10
43.95553082646386
 20
-8.412619296693494
 30
0.0
 11
43.94230295469332
 21
-8.451127764929812
 31
0.0
  0
LINE
  5
4E1
  8
0
 10
43.94230295469332
 20
-8.451127764929812
 30
0.0
 11
43.9287905876828
 21
-8.486975627833136
 31
0.0
  0
LINE
  5
4E2
  8
0
 10
43.9287905876828
 20
-8.486975627833136
 30
0.0
 11
43.91499914865824
 21
-8.52048442964851
 31
0.0
  0
LINE
  5
4E3
  8
0
 10
43.91499914865824
 20
-8.52048442964851
 30
0.0
 11
43.90093369728595
 21
-8.551952297911068
 31
0.0
  0
LINE
  5
4E4
  8
0
 10
43.90093369728595
 20
-8.551952297911068
 30
0.0
 11
43.88659885609665
 21
-8.58165009352334
 31
0.0
  0
LINE
  5
4E5
  8
0
 10
43.88659885609665
 20
-8.58165009352334
 30
0.0
 11
43.87199873712616
 21
-8.609817556230853
 31
0.0
  0
LINE
  5
4E6
  8
0
 10
43.87199873712616
 20
-8.609817556230853
 30
0.0
 11
43.85713686856441
 21
-8.636659449920733
 31
0.0
  0
LINE
  5
4E7
  8
0
 10
43.85713686856441
 20
-8.636659449920733
 30
0.0
 11
43.84201612140448
 21
-8.662341707920332
 31
0.0
  0
LINE
  5
4E8
  8
0
 10
43.84201612140448
 20
-8.662341707920332
 30
0.0
 11
43.82663863609164
 21
-8.68698757829581
 31
0.0
  0
LINE
  5
4E9
  8
0
 10
43.82663863609164
 20
-8.68698757829581
 30
0.0
 11
43.8110057491723
 21
-8.710673769150768
 31
0.0
  0
LINE
  5
4EA
  8
0
 10
4.269512865769002
 20
-8.717374891983878
 30
0.0
 11
4.438417529550236
 21
-8.717374891984255
 31
0.0
  0
LINE
  5
4EB
  8
0
 10
4.438417529550236
 20
-8.717374891984255
 30
0.0
 11
7.41699205927161
 21
-8.713696032501907
 31
0.0
  0
LINE
  5
4EC
  8
0
 10
43.8110057491723
 20
-8.710673769150768
 30
0.0
 11
46.8077156438985
 21
-8.71737489198388
 31
0.0
  0
LINE
  5
4ED
  8
0
 10
11.29169176965979
 20
-8.717111756885021
 30
0.0
 11
39.86381280347547
 21
-8.71725640267343
 31
0.0
  0
LINE
  5
4EE
  8
0
 10
9.600148678854893
 20
2.486406837992767
 30
0.0
 11
9.600148678854893
 21
-8.724582290589135
 31
0.0
  0
LINE
  5
4EF
  8
0
 10
41.6260472939768
 20
1.084992495284215
 30
0.0
 11
41.6260472939768
 21
-8.717111756885023
 31
0.0
  0
LINE
  5
4F0
  8
0
 10
39.86381280347547
 20
-8.71725640267343
 30
0.0
 11
41.6260472939768
 21
-8.717111756885023
 31
0.0
  0
LINE
  5
4F1
  8
0
 10
41.6260472939768
 20
-8.717111756885023
 30
0.0
 11
43.8110057491723
 21
-8.710673769150768
 31
0.0
  0
LINE
  5
4F2
  8
0
 10
7.41699205927161
 20
-8.713696032501907
 30
0.0
 11
9.600148678854893
 21
-8.724582290589135
 31
0.0
  0
LINE
  5
4F3
  8
0
 10
9.600148678854893
 20
-8.724582290589135
 30
0.0
 11
11.29169176965979
 21
-8.717111756885021
 31
0.0
  0
ENDSEC
  0
EOF
